<svg id="Group_476" data-name="Group 476" xmlns="http://www.w3.org/2000/svg" width="76.776" height="100" viewBox="0 0 76.776 100">
  <path id="Path_3208" data-name="Path 3208" d="M36.822,60.465a7.072,7.072,0,1,0,7.073,7.072,7.079,7.079,0,0,0-7.073-7.072m4.4,6.517a22.711,22.711,0,0,0-.968-2.862,5.894,5.894,0,0,1,1.171,3.766c-.053-.3-.126-.607-.2-.9m-1.642-3.793c.225.507.426,1.025.615,1.547A9.988,9.988,0,0,0,39.236,63c.117.062.237.118.347.189m-7.226,5.76a6.729,6.729,0,0,0,.283,1.146,1.583,1.583,0,0,1-.711-1.444,7.555,7.555,0,0,1,.1-1.136,2.191,2.191,0,0,0,.18.4.163.163,0,0,0,.076.057,7.1,7.1,0,0,0,.068.979m.454,1.64c.047.114.1.231.153.346a5.262,5.262,0,0,1-.469-.6,1.159,1.159,0,0,0,.244.04c.026.069.044.142.073.212M31.856,66.2c0,.049-.009.1-.011.147-.054.271-.1.542-.141.812-.007.048-.017.1-.024.149a5.129,5.129,0,0,1,.176-1.108M34,71.853a15.85,15.85,0,0,1-.761-1.413,6.628,6.628,0,0,1-.419-1.587,6.4,6.4,0,0,1,.388-3.195c.119-.3-.376-.44-.493-.136a6.671,6.671,0,0,0-.3,1.126,4.767,4.767,0,0,1,.033-.639,3.746,3.746,0,0,1,3.892-3.265c.208.007.259-.2.183-.342.1-.006.2-.031.3-.031a5.08,5.08,0,0,1,1.611.283,9.47,9.47,0,0,1,2.089,5.477c.032.657-.071,1.317-.039,1.969a.173.173,0,0,0,.339.045A5.306,5.306,0,0,0,41,68.071a10.182,10.182,0,0,0-.2-1.4c.007.029.019.057.025.086.271,1.049.624,2.394.026,3.395a.078.078,0,0,0,.005.084c-.044.089-.081.181-.127.269a10.547,10.547,0,0,1-.639,1A5.079,5.079,0,0,1,34,71.853m7.572-2.3.019-.091c0-.02-.027-.029-.032-.008l-.038.192a5.135,5.135,0,0,1-.707,1.12c.035-.061.076-.122.108-.183.113-.209.213-.425.306-.644a.083.083,0,0,0,.094-.042A5.745,5.745,0,0,0,40.3,63.746a5.118,5.118,0,0,1,1.272,5.812" transform="translate(1.566 3.182)" fill="#7db1c7"/>
  <path id="Path_3209" data-name="Path 3209" d="M47.835,43.162H45.927v4.6H39.274l3.958-8.392H47.2a.16.16,0,0,0,.048.212A4.5,4.5,0,0,0,45.9,39.6a.249.249,0,0,0-.173.3.253.253,0,0,0,.3.173,3.949,3.949,0,0,1,2.081.28,5.219,5.219,0,0,1,.9.5c.3.2.536.479.828.691a.184.184,0,0,0,.266-.12c.2.191.388.383.586.572V44.24H52.6V40.873L49.19,37.461H43.45l.934-.905a9.965,9.965,0,1,0-13.855,0l.933.9H25.724l-3.412,3.412V44.24H24.22v-1c.039-.141.085-.279.126-.42.012-.027.021-.056.034-.083a3.59,3.59,0,0,1,.542-.789c.107-.117-.067-.293-.175-.174-.035.038-.063.082-.1.122a8.293,8.293,0,0,1,.415-.974.114.114,0,0,0,0-.1l.675-.676c.019,0,.035,0,.054-.007a5.065,5.065,0,0,1,.493-.24,4.549,4.549,0,0,0-.815.605c-.155.146.079.379.233.233a3.961,3.961,0,0,1,1.334-.836,5.906,5.906,0,0,1,1.545-.3.126.126,0,0,0,.105-.154c.093,0,.185,0,.277,0a.106.106,0,0,0,.1-.068h2.609l3.96,8.392H28.986v-4.6H27.079v4.6H17.707v7.766h.812c.022.016.039.011.064,0h2.131V98.977H54.2V55.526h3.007V47.76H47.835Zm2.192-1.941a1.707,1.707,0,0,0-.178-.273c.217.211.409.44.619.658a.132.132,0,0,0,.182.014l.042.043V41.9c-.219-.231-.443-.456-.665-.683M48.78,39.75a5.237,5.237,0,0,0-.986-.381H48.4Zm-22.232-.381-.047.014.014-.014ZM24.46,42.245a.012.012,0,1,0,0-.024.012.012,0,1,1,0,.024m-.24.092v-.674l.413-.413a8,8,0,0,0-.413,1.086m23.239,7.506c-.131-.061-.262-.119-.394-.176h.657a.186.186,0,0,0-.142.053c-.042.039-.08.082-.121.123m2.313-.176H50.2c.027.026.057.049.084.076l-.262.275c-.116-.083-.232-.164-.348-.244.035-.035.067-.072.1-.106m2.095,0c-.117.132-.234.262-.349.394-.114-.093-.22-.193-.335-.284s-.248.064-.145.145.232.193.348.287l-.18.2c-.214-.181-.417-.375-.621-.567l.168-.177ZM55.3,51.53l-.12.152c-.073-.083-.143-.168-.218-.249l.338-.391Zm0,.512v1.578h-.222c-.215-.174-.431-.344-.652-.508.035-.044.074-.085.108-.129l.748-.957.017.017m-.227-.224q-.39.488-.778.977c-.035.044-.065.091-.1.135-.115-.084-.225-.174-.342-.257.328-.362.66-.721.98-1.092.079.079.16.158.24.237M23.108,75.955c-.011.056-.026.109-.037.165-.005.025.014.039.031.048a23.483,23.483,0,0,0-.428,2.693c-.017.04-.035.08-.053.12V73.989c.277-.862.565-1.72.872-2.572.328-.914.683-1.816,1.039-2.719a56.313,56.313,0,0,0-1.48,7.163.085.085,0,0,0,.057.094M20.613,49.667h.634c.005.007,0,.015.009.022.419.4.864.761,1.3,1.141-.138.134-.268.276-.4.413-.2-.169-.4-.353-.591-.533.04-.055.073-.115.113-.169.063-.086-.079-.166-.142-.083-.034.045-.062.095-.095.141-.3-.28-.579-.574-.852-.876l.032-.056m3.834,0c.392.391.792.772,1.205,1.139-.144.136-.292.267-.433.406q-.562-.459-1.1-.947c.062-.059.12-.123.184-.181.122-.111-.058-.289-.18-.18-.066.059-.126.125-.193.185l-.138-.131.005-.006c.114-.111-.059-.283-.175-.174l-.012.011c-.043-.041-.087-.08-.131-.122Zm1.981,0c.075.067.154.131.229.2-.279.239-.533.5-.8.752q-.526-.461-1.026-.948Zm1,0,1.989,1.665c-.074.075-.147.149-.219.225-.049-.038-.1-.073-.148-.111l-.08-.067.072-.066c.113-.1-.056-.272-.169-.168l-.088.081c-.641-.5-1.262-1.031-1.882-1.559Zm1.379,0c.373.381.768.739,1.156,1.105-.12.116-.232.239-.348.357l-1.777-1.462Zm2.946,0,.834.668c-.184.16-.365.323-.547.484-.328-.26-.659-.517-.981-.784.079-.072.155-.148.235-.219a.087.087,0,0,0-.057-.149Zm10.415,0c-.052.052-.1.108-.152.16-.055-.035-.108-.073-.164-.107.017-.017.031-.036.046-.053Zm.554,0,.726.493c-.12.123-.237.251-.357.375-.292-.2-.583-.389-.879-.579.079-.08.153-.165.233-.245.014-.014.012-.028.018-.043Zm3.029,0,.217.129c-.157.155-.311.311-.465.467-.119-.073-.236-.146-.357-.216a2.33,2.33,0,0,0-.206-.115c-.011-.012-.016-.006-.025-.015.007-.026.024-.053.009-.072a.263.263,0,0,0-.1-.08c.029-.029.058-.06.087-.088,0,0,0-.007.005-.012Zm7.306,1.749c-.057-.053-.111-.107-.167-.16.251-.278.512-.546.768-.819.028.027.059.052.087.079l-.653.854-.036.046m-8.283.981c.063-.071.125-.141.189-.209l.144.106c.039.031.078.064.117.095-.049.066-.1.129-.149.2l-.3-.187m-5.458.326c.167-.212.34-.419.506-.632l.033.022c-.18.2-.355.409-.531.616l-.008-.006m-1.921.035c-.195-.158-.38-.324-.583-.474.161-.148.32-.3.482-.444.191.119.385.232.573.357-.1.114-.2.224-.293.339-.061.074-.119.148-.179.222m-1.528-.178c.117-.117.237-.231.353-.347l.123.093c-.125.115-.253.227-.377.344l-.1-.089m-.922.458c-.192-.166-.393-.323-.6-.471.161-.148.329-.287.492-.435.16.127.319.257.481.382.026.021.056.039.083.059-.153.155-.3.309-.455.464m-1.976.58h-.531a.084.084,0,0,0-.014-.092c-.047-.049-.1-.095-.149-.144l.3-.309c.093.074.183.147.276.22s.168.135.255.2l-.065.06-.067.062m-3.025,0a2.253,2.253,0,0,0-.292-.209c.018-.017.035-.036.053-.053.179-.174.361-.343.542-.516l.034.027c.148.112.3.218.452.326q-.2.212-.394.424Zm-1,0c.055-.062.113-.121.167-.181l.041.027-.165.154Zm-3.366-.738c-.094-.073-.185-.147-.279-.22l.214-.253.318-.376c.2.149.393.3.594.444-.2.192-.4.392-.593.595-.085-.063-.171-.126-.254-.191m-1.474.738h-.5l-.2-.139.06-.074c.143-.176.286-.349.433-.521l.024-.026a4.049,4.049,0,0,0,.587.3l-.072.084c-.106.123-.221.251-.335.378M21.016,53.4c.058-.092.116-.183.176-.274l.018.017c-.057.078-.119.152-.175.229l-.019.027m-.143-1.658,0,0c.121.142.262.266.391.4-.045.051-.1.094-.141.144-.069.079-.134.162-.2.242q-.177-.171-.345-.347c.1-.148.2-.3.295-.443m-.428.309c-.088-.1-.173-.195-.258-.294l.3-.478c.087.108.177.214.265.318-.1.151-.207.3-.308.454m2.774,1.3c-.189-.142-.366-.3-.548-.449.171-.177.342-.352.513-.529.071.049.136.106.207.154.113.075.226.151.34.223-.153.175-.3.351-.454.529l-.058.073m.376-1.6-.32.332c-.182-.124-.36-.256-.537-.387.116-.131.227-.265.346-.394.172.147.336.3.511.449m-.712-.626c-.126.133-.243.275-.365.411-.032-.024-.067-.046-.1-.072.12-.143.24-.286.364-.427l.1.088m-.635.557c.027.022.058.04.084.062-.129.148-.267.289-.393.442-.011.013-.02.027-.031.04-.016-.016-.032-.033-.048-.048.126-.168.256-.333.387-.5m-.059.637c.116-.142.244-.274.363-.413.172.132.344.26.522.384-.169.175-.335.353-.5.528-.132-.111-.273-.211-.4-.327-.022-.02-.042-.044-.064-.065.028-.035.053-.073.081-.107m1.415,0c-.077-.049-.146-.109-.221-.16.1-.108.205-.216.308-.324.082.068.157.144.24.212s.169.137.254.205c-.082.091-.166.179-.247.268-.112-.066-.224-.131-.334-.2m.543-.561c-.073-.058-.143-.117-.215-.175.141-.149.282-.3.424-.446.056-.057-.032-.145-.086-.087-.145.152-.292.3-.437.453-.178-.144-.354-.291-.532-.435.2-.212.417-.413.629-.615q.532.488,1.091.946c-.118.118-.248.221-.364.341-.077.08-.149.163-.225.244-.095-.076-.192-.149-.285-.226M23.1,50.9l-.105-.085c.2-.224.408-.447.622-.661l.129.122c-.218.205-.437.409-.646.624m-1.551.959c-.113-.117-.234-.225-.343-.345-.035-.038-.065-.08-.1-.119.1-.152.2-.309.305-.459.182.169.361.341.551.5-.136.142-.28.278-.414.422m-.252.548c.005-.007.013-.013.018-.02-.076.1-.141.214-.215.319-.008-.007-.015-.016-.023-.023.075-.091.143-.186.22-.276m-.336.5c-.162.235-.327.467-.479.709h-.142c.024-.034.047-.069.073-.1.164-.22.341-.431.513-.644.013.012.023.025.036.037m.371,0c.072-.106.134-.218.208-.322.022-.033.049-.061.072-.093.018.017.034.036.052.054-.1.128-.2.259-.3.389l-.035-.028m.532-.157c.016.016.031.034.046.048.122.112.258.207.384.315q-.158.167-.314.336c-.133-.108-.262-.221-.394-.329.091-.124.182-.247.277-.369m.2.773-.008-.007.324-.328c.174.144.344.293.524.428h-.717c-.041-.032-.083-.06-.123-.093m2.586-.541c-.173-.124-.347-.246-.531-.355.074-.084.149-.167.224-.251q.243.2.487.394l-.181.212m-.062-.879c.078-.084.152-.173.229-.257.109-.116.234-.218.344-.333.077.062.149.128.226.189s.146.108.219.164l-.3.344-.237.276-.486-.384M27.044,50.2c-.238.276-.474.552-.711.827q-.177-.148-.352-.3c.265-.252.515-.52.788-.762.091.079.183.156.274.235M26.788,52.4c.047-.045.093-.093.14-.137.077-.072.159-.139.237-.209.127.1.258.192.387.287l-.36.327c-.136-.088-.273-.177-.4-.268m-.165-.12c-.211-.148-.415-.306-.621-.461l.352-.416c.139.115.269.239.411.352.078.062.161.117.24.179-.071.064-.145.125-.215.191l-.166.156m.762-.422c.259-.234.518-.469.783-.7.118.1.231.2.349.3l-.746.679c-.128-.095-.259-.187-.386-.284m-.162-.119c-.112-.086-.231-.163-.341-.251s-.231-.2-.348-.3l.7-.831c.259.225.517.453.781.673-.269.231-.532.468-.795.706m-1.069-.507-.367.427c-.088-.068-.181-.131-.269-.2-.054-.043-.1-.091-.159-.134.139-.14.284-.274.425-.411.122.106.246.212.371.317m.434,1.366c.125.089.256.18.386.271l-.647.588c-.115-.092-.228-.183-.347-.272.2-.2.407-.389.608-.587m-.027,1.018.641-.6a3.878,3.878,0,0,0,.485.263c-.086.111-.172.222-.257.334Zm1.253-.492c-.127-.106-.26-.206-.4-.3l.348-.324c.12.087.236.18.357.265-.1.122-.208.238-.306.361m.168-.829q.362-.335.722-.672c.045.037.086.077.132.113s.071.055.105.083c-.045.047-.094.093-.138.141-.169.187-.327.385-.491.578-.113-.078-.22-.163-.331-.243m1.043-.232c.032-.036.065-.068.1-.1.2.158.4.313.6.467-.094.091-.2.168-.291.261-.118.121-.229.248-.344.372-.193-.124-.385-.247-.574-.376.172-.207.336-.42.514-.621m4.209-1.96c.121.082.239.168.359.252-.073.066-.145.131-.218.2l-.339-.271c.066-.059.132-.12.2-.179m2.493.806.181.1c-.133.114-.265.231-.4.345-.216-.152-.441-.289-.659-.437.122-.1.236-.218.36-.321a4.468,4.468,0,0,0,.516.311M37.1,50.86l-.24.237c-.056-.033-.109-.069-.165-.1-.118-.066-.24-.126-.359-.189.1-.083.189-.173.287-.255l.477.308m4.372-1.111c-.136.151-.267.305-.4.458a4.784,4.784,0,0,0-.614-.309c.074-.076.144-.155.218-.231h.662c.044.027.091.054.135.082m3.114.264a.305.305,0,0,0,.115.172c.165.129.351.239.526.359-.093.095-.188.186-.28.281l-.7-.467c.115-.114.226-.232.342-.344m3.752,1.155c.018-.018.036-.036.053-.055.141.057.284.109.422.171-.208.218-.421.435-.635.652l-.327-.206c.163-.186.319-.38.487-.561m-.459,1.074q-.159.163-.316.328c-.093-.064-.179-.135-.272-.2.093-.111.189-.217.283-.326l.3.195m-1.047,1.153c-.075-.078-.162-.145-.241-.219.157-.185.323-.361.479-.547.091.061.182.12.274.18-.177.192-.346.387-.512.586M45.264,52.09c-.04-.032-.083-.06-.124-.092.132-.141.272-.275.406-.415.063.044.126.088.191.132-.123.153-.237.311-.355.466-.039-.031-.08-.061-.118-.092m-.648-.476c.045-.049.088-.1.134-.153.081-.085.168-.165.248-.251l.387.262c-.133.138-.271.272-.4.411-.121-.092-.246-.179-.368-.269m1.443.324q.33.231.662.459c-.146.168-.286.341-.427.514-.2-.167-.4-.334-.6-.492.124-.16.241-.324.369-.481m.892.2c-.228-.151-.456-.3-.684-.446.085-.1.175-.2.263-.3.209.127.422.255.626.386l.073.047c-.093.1-.185.206-.278.311m-1.016-.661-.176-.115.272-.277.159.1c-.084.1-.172.194-.255.294m-.341-.223L45.206,51c.089-.095.184-.185.276-.279.128.085.249.179.381.261l-.269.275m-.858-.225c-.078.082-.162.158-.239.24-.046.051-.095.1-.141.151-.227-.165-.448-.338-.679-.5.121-.122.24-.244.362-.365l.7.473m-.808.844c-.251-.149-.5-.3-.755-.444.107-.109.216-.217.324-.326.231.164.455.336.682.5l-.252.266m-.413-1.063c-.084-.057-.171-.109-.254-.166.117-.125.233-.252.351-.376l.266.18-.363.362m-.181.18c-.113.112-.226.222-.338.335l-.239-.141q.166-.18.334-.358c.08.056.163.107.243.164m-.761.086c-.141-.083-.281-.167-.422-.249l-.5-.286c.134-.138.262-.281.4-.418.293.192.582.389.871.587-.116.122-.233.243-.347.366M41.02,52.743c-.289-.205-.587-.4-.88-.6a.12.12,0,0,1,.016-.018c.055-.063.116-.12.173-.183.1.084.2.163.294.247.167.146.329.3.494.451l-.1.1m-2.406-1.415c-.061.068-.119.14-.179.208-.148-.1-.3-.2-.447-.3.082-.073.168-.141.252-.213.134.092.266.186.4.278l-.026.027m-.268-.4c.121-.1.245-.205.367-.309.109.085.221.168.331.255-.1.106-.2.207-.3.315l-.4-.26m1.995-.917a4.012,4.012,0,0,0,.551.393c-.136.157-.275.311-.409.468-.189-.137-.383-.269-.574-.4.144-.153.287-.306.433-.457m.36,1.016c.14-.163.283-.322.425-.484l.135.074c-.153.161-.306.321-.458.483-.034-.025-.068-.047-.1-.073m-.055.238c-.105.114-.216.221-.319.336l-.071-.061.059-.074c.077-.092.159-.178.237-.268l.094.067m-.311-.224c-.077.091-.158.176-.234.266l-.047.058c-.183-.158-.362-.32-.548-.474.084-.091.171-.178.254-.267.192.139.384.276.576.417m-1.017.048c.193.155.379.318.568.477l-.211.256c-.214-.145-.424-.294-.639-.437.091-.1.189-.2.281-.3m.778.653.054.045c-.062.068-.129.132-.191.2l-.015.016-.037-.024.188-.238m.7.266c-.1-.087-.2-.168-.295-.255.107-.12.223-.233.332-.351.105.078.214.152.319.231.173.129.341.266.512.4-.127.139-.255.28-.383.419-.161-.149-.323-.3-.484-.444m.521-.543c-.105-.08-.218-.151-.325-.231q.237-.253.478-.5c.168.092.335.181.488.274s.286.175.431.261c-.184.2-.374.387-.556.585l-.516-.386m.127-1.043c-.047-.027-.095-.056-.143-.082.134-.151.263-.3.4-.453.053.034.1.069.155.1-.139.14-.271.287-.408.431m-1.253-.759c-.194.2-.383.4-.573.6l-.267-.188c.164-.137.325-.278.491-.414Zm-.719.756c-.079.084-.161.166-.239.252-.1-.081-.2-.156-.305-.236l.262-.221.282.205m-.768-.158c-.1-.079-.2-.159-.3-.236l.22-.224c.115.081.225.164.339.246l-.255.214m-.219.184c-.128.108-.259.214-.386.323L37.84,50.6l.364-.372.283.219M38,50.857c-.084.074-.173.142-.257.216l-.22-.148.232-.237.245.169m-.4.333c-.082.073-.169.139-.252.212-.062-.038-.123-.077-.185-.114l.228-.233c.069.044.138.091.208.135m-1.116.152c.025.014.049.031.075.045-.141.139-.276.283-.415.423-.159-.113-.318-.228-.476-.34-.016-.013-.034-.023-.051-.035.134-.118.265-.239.4-.356.156.087.312.173.465.262m-1.2.206c-.108.094-.218.187-.326.282l-.595-.479c.093-.084.186-.168.281-.252.213.152.428.3.64.448m-5.916,1.7-.063-.038c.109-.117.214-.239.326-.354.092-.094.2-.173.289-.264l.081.064c-.16.151-.323.3-.483.451-.048.047-.1.094-.151.141m.847-.923c.057-.054.116-.105.174-.159l.072.061c-.057.052-.112.1-.167.157l-.078-.059m.409-.374c.1-.086.189-.177.287-.261.019.016.035.035.054.051l.012.011c-.055.051-.113.1-.167.148l-.115.107-.071-.056m.386.149c.061-.056.124-.109.184-.165.132.114.266.225.4.338-.078.078-.159.153-.235.232l-.025.027c-.138-.116-.276-.232-.416-.344l.092-.087m.8.352c.133.111.261.226.4.335.064.053.129.1.194.155-.095.1-.187.2-.282.294-.182-.177-.367-.349-.56-.516.084-.089.167-.179.253-.267m.595.072c-.124-.1-.245-.207-.368-.311.039-.04.077-.082.116-.123.144-.146.3-.279.446-.424.037.028.072.06.107.087.161.124.324.244.486.366-.195.186-.372.392-.562.582l-.225-.178m.523-.989c-.035-.027-.067-.056-.1-.083.173-.169.352-.333.526-.5l.612.489c-.175.158-.358.305-.528.466-.168-.125-.339-.246-.506-.373m1.192.033.007.006c.2.156.393.311.587.467-.166.146-.338.287-.5.436l-.133-.095c-.161-.116-.319-.235-.478-.353.168-.159.347-.306.519-.462m.089-.344-.622-.5c.076-.072.149-.143.225-.214.224.155.447.312.671.468l-.274.241m-1.081-.451c-.177.165-.348.336-.522.5-.122-.094-.238-.193-.359-.287q.27-.245.541-.488Zm-.742.721q-.279.272-.555.548c-.129-.108-.26-.217-.388-.327.189-.175.384-.345.577-.52.123.1.242.2.366.3m-1.159.04c-.02-.018-.041-.035-.062-.052l-.009-.011c.1-.081.182-.176.28-.256.128-.1-.053-.281-.18-.18-.1.081-.187.177-.286.259-.217-.193-.418-.4-.631-.6.163-.158.331-.309.5-.463.318.268.644.527.968.788-.193.172-.387.339-.578.513m-.5-.022c-.1.089-.2.184-.306.276-.218-.174-.435-.347-.648-.523.112-.115.217-.237.331-.349.211.2.409.4.624.6M29.6,51.487c.2.167.4.339.6.511-.062.057-.126.112-.188.169q-.317-.235-.633-.475c.068-.074.138-.146.207-.219l.017.014m1.06,1.167-.123-.093.152-.144c.142.122.285.24.429.359L31,52.9c-.113-.083-.226-.165-.339-.249m.68.3q.3.238.613.459c-.039.042-.08.082-.12.124a4.789,4.789,0,0,0-.408-.321l-.2-.144c.037-.04.075-.079.112-.118m.786.582c.038.026.075.055.115.081h-.193c.025-.027.052-.054.078-.081m.957-.48c-.1-.074-.189-.149-.285-.224.192-.194.369-.4.564-.586.141.105.28.214.421.317l.187.137c-.205.185-.409.373-.613.56-.092-.068-.186-.135-.275-.2m2.457-.768c-.154-.125-.309-.247-.464-.372l.328-.292c.029.021.059.04.087.061.151.108.3.224.445.336-.109.109-.216.222-.324.332-.025-.021-.047-.044-.073-.065m.9-.272c.145-.147.295-.288.439-.436.056.034.109.069.165.1-.158.142-.314.286-.469.429l-.135-.1m1.169-.461c.079-.072.164-.136.244-.207.16.1.317.209.477.309-.064.074-.127.148-.191.222-.174-.114-.355-.215-.531-.324m1.283-.014c.014-.015.028-.028.041-.043.217.148.437.289.654.436-.171.205-.332.415-.5.625-.22-.161-.436-.326-.661-.48.155-.179.305-.361.462-.538m1.16.7c.295.2.587.4.884.589-.217.239-.419.486-.626.732-.261-.238-.516-.481-.795-.7.179-.208.355-.418.537-.623m.528,1.373c.239-.273.482-.539.719-.815.044.041.092.078.136.119-.219.228-.433.461-.644.7Zm.879-1c.128-.147.255-.3.384-.442l.174.136c-.142.147-.281.3-.423.444-.046-.044-.087-.094-.135-.138m.553-.631c.185-.2.378-.4.564-.6l.227.138c-.2.2-.409.4-.607.6l-.184-.138m.968-.358c.252.153.5.3.755.459q-.332.357-.644.731c-.242-.192-.48-.383-.727-.568.2-.212.413-.412.617-.621m1.056.642c.124.077.251.153.377.229-.247.268-.483.544-.717.824-.117-.1-.233-.2-.352-.294.229-.256.466-.5.692-.76m.189-.215.221-.251c.119.089.241.177.36.266l-.2.22c-.127-.078-.252-.159-.379-.236m1.3.577c.2.164.4.318.6.479-.023.029-.047.057-.071.086-.216-.139-.436-.271-.654-.408.04-.053.081-.1.121-.157m.911.711c.089.066.175.139.266.2-.014.018-.029.036-.044.054-.093-.062-.186-.125-.281-.187.02-.022.04-.044.059-.067m.521.275q.336-.3.656-.629c.264.166.531.325.8.473a.1.1,0,0,0,.106-.009c-.046.055-.089.112-.135.166Zm1.594-.331c-.228-.187-.479-.348-.72-.521.109-.115.218-.229.325-.346.269.173.538.344.808.515-.132.149-.259.3-.388.453a.085.085,0,0,0-.025-.1M48.6,52.2l-.155-.1c.215-.234.428-.465.644-.693.285.135.568.275.844.427-.228.257-.455.514-.683.769-.217-.135-.436-.273-.651-.407m1.6-.2c.084.049.165.1.247.153q-.339.39-.662.793l-.267-.168c.226-.259.455-.518.682-.777m.133-.115c.057.039.108-.053.054-.093l0,0c.02-.022.039-.044.06-.066l.229.171c-.053.059-.1.119-.156.179-.082-.052-.163-.1-.247-.153l.042-.048a.139.139,0,0,1,.021.013m1.326,1.729h-.792c.084-.106.167-.213.253-.318.118-.149.244-.293.365-.44.107.081.219.157.325.241-.073.1-.144.209-.218.313a.139.139,0,0,0,.066.2m.211-.6c-.1-.082-.212-.157-.318-.236.205-.249.408-.5.619-.745l.266.184c-.04.053-.082.1-.122.158-.153.209-.3.424-.445.639m.5-1.661c0-.011,0-.021-.006-.028-.118-.085-.228-.18-.344-.267.055-.063.112-.123.167-.185.118.1.24.2.358.3-.057.063-.119.12-.175.183m-.056.056h0c-.037.04-.077.077-.113.118q-.188-.129-.378-.257c.04-.045.082-.088.122-.134.123.088.239.188.366.273m-.406.444c-.212.241-.415.486-.62.732-.122-.086-.241-.175-.365-.258q.3-.371.615-.733c.123.086.245.175.371.259m-1.2,0c-.074-.059-.151-.116-.226-.174l.449-.512.237.166-.46.519m.151.554c.123.082.242.171.363.256-.122.147-.251.289-.371.438-.091.111-.185.223-.281.337-.124-.079-.248-.155-.373-.233q.333-.4.661-.8m.932,1.208c.013-.007.029-.006.04-.02.262-.318.541-.625.8-.946.052-.064.1-.131.151-.2.2.135.394.267.591.4-.208.253-.424.5-.623.761Zm1.255-1.506c.074-.1.151-.195.225-.293.182.164.368.324.548.492-.061.071-.117.145-.178.217-.2-.14-.4-.278-.6-.416m-.343-.239-.239-.167c.1-.114.209-.218.311-.331.062.054.122.109.183.164-.085.111-.169.222-.255.334m-.035-.825c-.117-.105-.239-.2-.357-.307.247-.279.5-.554.751-.829.124.112.252.22.375.334-.257.267-.518.531-.768.8m.547-1.307c.023-.024.045-.049.067-.074h.707c-.134.135-.261.276-.395.413-.124-.116-.254-.226-.38-.339m-.477-.074c-.253.264-.505.528-.752.8l-.248-.212.515-.585Zm-.881.934c-.058.065-.121.126-.18.192-.081-.064-.165-.125-.245-.191l.179-.2.246.2m-.259.276c-.044.049-.093.1-.137.145l-.249-.171.14-.159c.08.064.165.121.246.184m-.636-.2c-.1-.068-.2-.139-.305-.207-.135-.092-.269-.187-.405-.285l.239-.251c.206.193.412.385.627.567l-.156.176m-.624.075c.114.081.229.16.344.241l-.443.5c-.243-.179-.492-.348-.742-.514l.459-.482c.128.084.259.169.382.256m-.143.788-.071.08c-.248-.176-.505-.338-.762-.5l.083-.087c.254.164.5.332.749.507m-.148.168c-.016.016-.029.033-.044.049-.275-.154-.557-.292-.842-.426l.1-.107c.264.157.527.314.784.484M48.887,51.2c-.139-.062-.283-.114-.424-.171.057-.061.116-.12.173-.18.127.069.251.147.377.219l-.125.132m-.778-.314c-.037-.015-.073-.031-.109-.044-.2-.127-.4-.248-.6-.374.049-.049.1-.1.149-.149.256.118.508.24.759.369-.065.067-.134.129-.2.2m-.116.118c-.159.169-.32.342-.48.515l-.705-.442c.156-.168.316-.333.477-.5.237.14.471.286.708.423m-1.525-.141-.136-.085c.156-.155.3-.317.462-.471.005-.005,0-.011.006-.016l.132.079c-.157.162-.313.325-.464.493m-.305-.192-.391-.245c.155-.158.308-.315.465-.471.131.079.263.157.394.235-.159.157-.311.322-.468.481m-2.083-.423-.278-.184c.122-.128.239-.261.361-.387,0,0,0-.008.005-.013h.5c-.2.192-.389.392-.587.584m-.442-.294-.438-.291h.714c-.094.1-.182.195-.276.291m-4.517-.041c-.119-.082-.234-.168-.354-.249h.652c-.1.082-.2.167-.3.249m-.818-.249-.161.16c-.069-.053-.136-.108-.206-.16Zm-.86,0c.165.12.333.237.5.359l-.391.386-.982-.643c-.041-.025-.076.038-.038.064l.942.655c-.08.08-.161.159-.241.238-.523-.355-1.047-.709-1.575-1.059Zm-.924.819c-.1.084-.2.175-.3.26-.1-.053-.2-.109-.3-.159a5.277,5.277,0,0,0-.479-.225.1.1,0,0,0-.165-.068l-.022.02a.661.661,0,0,0-.119-.017.108.108,0,0,0-.076.182l0,0c-.128.106-.248.223-.376.331-.231-.154-.461-.308-.695-.46.244-.225.474-.464.721-.685h.545c.419.276.843.545,1.264.819m-2.167-.819c-.2.176-.393.357-.589.536-.123-.079-.242-.165-.366-.243.1-.084.188-.173.285-.257.013-.012.011-.024.017-.036Zm-1.178.145-.04-.026c-.106-.067-.2.084-.114.163-.064.056-.127.114-.192.169l-.566-.452h1.076c-.056.047-.108.1-.164.145m-2.009-.123c-.087.074-.168.154-.255.228-.068-.057-.141-.109-.209-.167-.141-.119-.345.082-.2.2.064.055.133.105.2.16-.166.147-.333.294-.494.445-.316-.295-.633-.586-.938-.892h1.971a.086.086,0,0,0-.067.022m-8.036,0c.1.1.2.189.3.285-.111.107-.213.221-.321.331a.066.066,0,0,0-.062.017c-.1.093-.188.2-.289.295q-.583-.477-1.166-.954h1.526c.005.008,0,.018.011.026m-1.845,1.125c-.1.141-.195.291-.3.434-.092-.111-.185-.218-.276-.331l.177-.279c.077-.122-.115-.233-.192-.113l-.137.214c-.094-.114-.184-.229-.286-.336a.133.133,0,0,0-.063-.029l.24-.424c.267.3.543.587.833.864m-1.224-.174a3.784,3.784,0,0,0,.286.436q-.155.243-.312.486c-.1-.119-.2-.238-.294-.361l.082-.142Zm-.444.778.009-.016q.139.182.283.358-.145.229-.293.458Zm0,1.24.145-.231.3-.476c.082.1.168.189.254.284-.147.225-.314.439-.456.668-.08.131-.161.264-.243.4Zm.066.956c.124-.216.244-.434.373-.647s.267-.392.394-.592c.106.113.213.225.323.334-.167.2-.339.4-.5.6-.079.1-.159.2-.241.3Zm1.557-.035c.06-.086.127-.166.188-.252.118.1.24.195.364.286h-.575c.007-.012.015-.024.022-.035m1.726,39.7c-.12.332-.233.665-.343,1v-1Zm-.343-1.908v-.009l0,.009Zm0-.5c.184-.538.38-1.073.579-1.606-.2.692-.4,1.384-.579,2.081Zm0-11.132c.354-.811.72-1.616,1.063-2.432.217-.515.438-1.032.658-1.549-.659,1.594-1.218,3.227-1.721,4.88Zm0-19.525c.058-.159.107-.32.168-.478s.136-.309.2-.465c-.148.746-.269,1.5-.371,2.253Zm1.985-6.751c.062-.074.124-.148.187-.222a.066.066,0,0,0,.068-.08c.062-.075.124-.148.187-.222.083.067.165.136.248.2s.174.137.26.206c-.016.019-.035.035-.051.055a.082.082,0,0,0,.116.116c.023-.021.045-.044.068-.065.065.054.129.105.2.157h-1.4l.121-.146m3.366-.135c.113-.145.236-.281.351-.423.182.125.368.248.554.371-.092.1-.188.2-.278.3l-.032.035h-.8c.071-.094.138-.188.208-.281m2.913.1c.023-.026.048-.052.073-.077l.135.1c.071.049.144.105.22.162h-.592c.055-.06.108-.122.164-.182m2.368.167.024.015h-.041l.017-.015m.451.015a.153.153,0,0,0-.033-.08,1.47,1.47,0,0,0-.179-.163c.2-.194.4-.388.608-.581a6.3,6.3,0,0,0,.664.426c-.129.133-.262.263-.391.4Zm1.362-.249a.1.1,0,0,0,.1-.1q.253-.248.5-.5c.035.024.069.048.1.074-.271.253-.539.511-.8.774h-.161c.085-.082.168-.167.254-.249m.953-.352c.185.128.364.264.551.392.069.048.151-.059.089-.116-.158-.146-.32-.284-.477-.428.129-.122.262-.241.393-.362.213.161.433.311.648.467-.045.058-.093.113-.138.171-.12.155-.245.313-.356.478H35.41c.2-.2.4-.4.608-.6m1.321.347c.055-.064.108-.129.162-.195.137.1.268.2.407.292a.108.108,0,0,0,.129-.168c-.118-.112-.255-.206-.378-.314.062-.076.126-.152.189-.227.1-.121.206-.238.308-.359.234.161.461.331.689.5-.126.174-.264.341-.379.521-.061.1.063.2.149.146l-.049.06H37.134c.068-.085.136-.172.205-.254m1.731.019c.058-.069.119-.136.177-.205.2.146.395.292.589.44h-.956c.062-.078.125-.158.189-.235m2.536-.313c.139.122.275.248.42.362a.074.074,0,0,0,.1-.105c-.118-.144-.254-.274-.384-.408.145-.16.291-.319.438-.477.244.195.495.38.74.574-.157.195-.3.4-.443.6H41.1c.167-.183.337-.364.5-.547m1.569.138c.124.1.252.192.377.287-.034.041-.068.08-.1.122h-.663c.133-.134.26-.272.387-.409m.505.384.033.025h-.056l.023-.025m.364.025c-.071-.063-.147-.121-.219-.183.253-.277.507-.551.757-.829l.331.2a4.291,4.291,0,0,0-.468.812Zm1.2-.612.655.4c-.052.069-.1.142-.148.213h-.962c.16-.2.311-.4.456-.612m.971.592.033.02h-.052l.019-.02m3.021-.491.286.182c-.082.107-.158.218-.236.328h-.516c.156-.171.313-.338.465-.511m.683.433.123.078h-.189l.066-.078m2.307,1.985c-.015.4-.032.8-.055,1.193-.046-.4-.1-.795-.157-1.193Zm-.144,5.532c0,.279.008.558.007.837-.192-.456-.384-.909-.585-1.36-.02-.368-.039-.736-.059-1.1.138.223.291.436.432.656-.024.3-.041.605-.04.906a.132.132,0,0,0,.245.065M51.4,61.7c.058,1.082.126,2.164.195,3.245-.165-.382-.331-.764-.5-1.145-.087-1.273-.217-2.54-.364-3.8.228.565.453,1.131.668,1.7m.234,3.878c.007.113.014.225.021.339-.138-.406-.267-.816-.411-1.221q.2.441.389.882m.5,13.536v0Zm0,.021c.011.085.14.088.139,0-.068-3.795-.217-7.585-.191-11.382a.111.111,0,0,0-.222,0c-.033,2.792-.035,5.592.088,8.383-.012-.188-.025-.378-.037-.566l-.322-5.691c-.008-.153-.246-.154-.238,0q.044.849.089,1.7c-.072-.8-.144-1.593-.205-2.386-.015-.2-.029-.4-.045-.6.022-.607.016-1.218.009-1.828.038.251.065.5.105.754.013.077.145.06.138-.019-.074-.775-.175-1.546-.267-2.32.167.483.344.963.518,1.444v0l0,0c.2.546.382,1.1.589,1.641l0,0V80.353c-.042-.408-.1-.816-.154-1.222m.154-11.324c-.165-.516-.344-1.027-.518-1.54-.005-.139-.014-.278-.019-.417l.537,1.214Zm-.562-2.547c-.043-1.019-.085-2.038-.138-3.056.166.447.324.9.484,1.349-.006.689-.008,1.38.016,2.069a.174.174,0,0,0,.2.153v.82c-.183-.447-.373-.892-.562-1.336m1.233-11.64c.205-.205.4-.423.6-.636.132.088.265.175.4.261q-.141.186-.279.375Zm.932-1.395c-.175-.177-.357-.343-.536-.515l.073-.095q.309-.4.618-.8c.195.189.388.379.579.571-.247.278-.491.561-.734.843m-.009-1.891c-.023-.022-.048-.041-.072-.063.191-.2.372-.406.565-.6h.016l-.509.666m-4.171,0-.463.485c-.121-.077-.238-.16-.362-.234q.238-.249.478-.5c.117.082.227.166.347.246m-.516.541-.081.084c-.123-.075-.241-.158-.365-.231l.081-.085c.124.074.243.155.365.232m-.769-.309c-.244-.134-.5-.258-.747-.379.038-.037.074-.076.112-.113.247.125.487.263.728.4-.029.032-.062.061-.093.093M47.3,50c-.056-.025-.107-.058-.164-.082-.111-.048-.206.115-.095.163.041.017.08.041.121.059-.04.039-.079.079-.118.118-.228-.141-.456-.284-.684-.424.054-.054.106-.109.161-.163h.389q.246.109.492.226c-.035.034-.067.069-.1.1m-8.166-6.42.057-.168.316-.936c.058-.1.121-.2.171-.3a4.774,4.774,0,0,0,.229-.553.463.463,0,0,0,.092.124ZM30.845,34a10.575,10.575,0,0,1-.753-1.694,4.216,4.216,0,0,0,.555.731,5.449,5.449,0,0,0,2.378,2.558c.12.058.276-.1.155-.2a7.818,7.818,0,0,1-1.76-1.864,9.834,9.834,0,0,1-1.1-2.4,16.583,16.583,0,0,1-.534-2.018,7.363,7.363,0,0,1,.1-1.195,12.193,12.193,0,0,1,.923-2.891c.06-.136.126-.278.2-.42a8.074,8.074,0,0,1,1.274-1.359,1.363,1.363,0,0,1,.313-.066.169.169,0,0,0,.12-.267A8.044,8.044,0,0,1,35,21.733c.451.008.9.031,1.347.082.176.02.346.053.519.081a.218.218,0,0,0,.112.018,29.066,29.066,0,0,1,2.983.745c.122.034.208-.152.088-.211a9.279,9.279,0,0,0-2.388-.748,3.679,3.679,0,0,1,1.5-.066,12.485,12.485,0,0,1,1.864,1.442,16.612,16.612,0,0,1,2.375,2.944.1.1,0,0,0,.172-.082,9.581,9.581,0,0,1,.608,2.187c0,.019.016.028.026.04.037.232.064.463.088.695a10.67,10.67,0,0,1-.324,1.494c-.023.078.092.106.119.034.1-.259.184-.52.258-.783a16.257,16.257,0,0,1-.075,2.426c-.049.161-.1.322-.164.481a8.053,8.053,0,0,1-.942,1.242,10.669,10.669,0,0,1-3.111,2.172c-.134.066-.039.265.1.233a6.445,6.445,0,0,0,3.036-1.8c.013,0,.027.005.037-.007.022-.028.038-.06.059-.088a8.352,8.352,0,0,0,.825-.991c0,.028-.008.057-.014.085-.134.2-.271.4-.416.605-.047.065.024.133.091.123a10.112,10.112,0,0,1-.9,1.119c-.242.257-.5.5-.759.739l-.172.157a8.147,8.147,0,0,1-.826.479.653.653,0,0,1-.222.012.138.138,0,0,0-.16.173A8.024,8.024,0,0,1,30.845,34M44.387,26.88c0,.071.012.141.013.212l-.008-.039a.166.166,0,0,0-.164-.129,7.332,7.332,0,0,0-2.308-3.769.157.157,0,0,0-.257.105,12.513,12.513,0,0,0-1.624-1.4,4.8,4.8,0,0,1,.808.389,10.349,10.349,0,0,1,2.665,2.686c0,.005.009,0,.014.007a11.888,11.888,0,0,1,.86,1.931l0,0m.338,5.358,0-.018c.08-.156.149-.315.219-.474-.066.168-.143.331-.221.492m.608-1.878a.174.174,0,0,0-.3.066c-.055.2-.132.394-.2.589a13.387,13.387,0,0,0-.045-1.579,8.3,8.3,0,0,0-.144-1.452,9.659,9.659,0,0,0-.064-2.338,8,8,0,0,1,.757,2.083c0,.011-.009.019-.006.032a7.452,7.452,0,0,1,0,2.6m-1.8-4.5c-.12-.246-.252-.488-.394-.724.076.132.174.248.242.384.057.112.1.226.152.34m-.486-.868a9.812,9.812,0,0,0-.6-.841,7.263,7.263,0,0,1,.6.841m-5.8-3.633a3.561,3.561,0,0,0-.4.161c-.022.011-.023.032-.039.045-.131-.017-.263-.039-.394-.053s-.26-.019-.389-.029a8.012,8.012,0,0,1,1.219-.124m6.853,3.486c.058.231.111.462.153.7a8.985,8.985,0,0,0-.538-.992,10.64,10.64,0,0,0-.7-.971,8.15,8.15,0,0,1,1.085,1.266m-10.3,14.525h7.336l-.7,1.484a.5.5,0,0,0-.081-.017.481.481,0,0,0-.281.091l.287-.783c.063-.169-.206-.24-.269-.074L39.65,41.2a6.908,6.908,0,0,0-.394,1.139h0l-.124.207-.326.548a1.483,1.483,0,0,0-.264.534.083.083,0,0,0,.124.072.646.646,0,0,0,.153-.181l-.208.557c-.049.134-.106.267-.147.405a1.051,1.051,0,0,0-.079.394.133.133,0,0,0,.091.111l-.377.8q.109-.387.219-.772a.108.108,0,0,0-.207-.057q-.128.447-.257.892c-.041.143-.082.286-.124.429-.019.067-.04.136-.059.2,0-.018,0-.037,0-.056q0-.657,0-1.314a.078.078,0,0,0-.156,0q0,.657,0,1.314c0,.2-.005.4-.007.606l-.053.113-.155-.328c-.012-.205-.027-.412-.037-.612q-.036-.733-.071-1.466c-.008-.158-.255-.159-.247,0,.013.275.024.549.037.825l-.134-1.077a.141.141,0,0,0-.174-.116,11.651,11.651,0,0,0-.495-1.438c-.036-.084-.127-.059-.169,0-.193-.377-.395-.749-.592-1.122l-.224-.424a14.251,14.251,0,0,1-.483-1.689c-.042-.192-.336-.111-.294.081.026.122.062.242.092.364a.117.117,0,0,0-.161.157l.436.822c.057.179.109.359.174.536a7.551,7.551,0,0,0,.807,1.747.127.127,0,0,0,.223-.032c.035.06.065.123.1.182a.09.09,0,0,0,.108.041,14.173,14.173,0,0,1,.471,1.52c.023.169.045.338.068.506Zm-13.595,10.3c.04.047.083.093.124.14l-.693,1.142-.012.018v-1.3ZM42.9,97.069l.493-.135q1.666-.453,3.326-.926c-.718.365-1.443.716-2.171,1.061Zm4.959,0h0a9.046,9.046,0,0,0,1.511-.354.086.086,0,0,0-.046-.166c-.491.092-.974.213-1.465.3-.416.073-.836.118-1.256.158L46.624,97c1.207-.36,2.454-.662,3.635-1.1a.083.083,0,0,0-.044-.159c-1.232.257-2.448.663-3.661,1-.389.107-.781.219-1.173.328h-.5c1.011-.479,2.029-.942,3.049-1.4.128-.057.036-.253-.093-.22-1.439.368-2.873.761-4.306,1.154-.573.157-1.146.318-1.723.467H40.49c.283-.074.566-.142.849-.217q1.329-.349,2.66-.709a22.586,22.586,0,0,0,2.738-.824.087.087,0,0,0-.046-.167,24.416,24.416,0,0,0-2.669.678q-1.377.381-2.757.754c-.619.166-1.239.323-1.859.486h-.579l.561-.155q1.491-.409,2.978-.826a21.01,21.01,0,0,0,2.976-.916.082.082,0,0,0-.042-.153,21.08,21.08,0,0,0-3.024.74q-1.491.406-2.98.819c-.589.163-1.179.328-1.769.491H35.387c1.488-.4,3.014-.766,4.461-1.287a.1.1,0,0,0-.055-.2c-1.612.34-3.2.851-4.8,1.254-.312.079-.624.154-.936.232H30.979l2.536-.628c1.438-.357,2.939-.655,4.341-1.138a.1.1,0,0,0-.053-.191c-1.467.221-2.938.649-4.38,1l-3.793.916c.044-.014.087-.031.132-.044,1.435-.461,2.928-.776,4.348-1.274a.09.09,0,0,0-.047-.174A29.222,29.222,0,0,0,29.7,96.753c-.308.1-.613.212-.92.316h-.143c1.876-.672,3.749-1.349,5.605-2.075.144-.057.088-.287-.066-.239-1.478.466-2.946.965-4.413,1.472a.06.06,0,0,0-.087-.032c-.144.074-.291.139-.435.211-.314.109-.628.216-.941.324s-.633.225-.948.339H24.681c1.027-.405,2.077-.771,3.092-1.2.124-.053.033-.239-.088-.211-.577.134-1.141.337-1.7.525-.58.2-1.175.377-1.742.6-.222.088-.438.193-.659.283H23.04q.191-.579.381-1.16c.205-.625.432-1.246.6-1.882.032-.115-.132-.154-.174-.048-.245.612-.44,1.245-.653,1.868l-.417,1.222h-.159V95.683c.124-.428.26-.853.395-1.278-.036.2-.083.393-.117.591-.011.062.084.088.095.026.1-.551.225-1.093.349-1.636.012-.034.024-.067.036-.1h12.3V91.378h-11.6q.39-.987.823-1.957c.009-.02-.005-.034-.017-.048.509-1,1.055-1.985,1.613-2.967a.07.07,0,0,0-.12-.071,30.158,30.158,0,0,0-2.209,3.987q.647-2.04,1.488-4.023c.036-.085-.087-.162-.127-.075A32.664,32.664,0,0,0,23.7,91.378h-.323c.382-1.4.761-2.8,1.033-4.224a.1.1,0,0,0-.2-.054c-.439,1.4-.771,2.842-1.1,4.278h-.332c.346-1.327.733-2.642,1.145-3.949.383-.92.777-1.836,1.159-2.757.044-.107-.136-.182-.188-.079-.031.062-.057.127-.087.189.312-.881.635-1.759.978-2.629.037-.094-.114-.135-.151-.042-.526,1.338-1.013,2.692-1.468,4.054-.582,1.314-1.092,2.664-1.553,4.029V89.27c.276-.537.553-1.075.786-1.632a13.273,13.273,0,0,0,.814-2.345.144.144,0,0,0-.278-.076c-.293.745-.516,1.515-.822,2.257q-.234.568-.5,1.122V87.266c.955-2.387,1.9-4.794,2.617-7.258.025-.086-.106-.121-.135-.037-.775,2.256-1.553,4.495-2.482,6.683v-.1c1.294-3.458,2.466-6.961,3.492-10.507a.144.144,0,0,0-.278-.077q-1.424,4.909-3.214,9.7V84.173q.379-.826.741-1.659a30.3,30.3,0,0,0,1.405-3.584c.053-.179-.222-.3-.307-.129-.552,1.129-.983,2.324-1.467,3.483-.038.091-.079.18-.117.271a25,25,0,0,1,2.177-6.374.1.1,0,0,0-.163-.1,16,16,0,0,0-2.268,5.928v-.724c.584-2.034,1.294-4.027,2.047-6.012.023-.059-.06-.093-.1-.053.5-1.178.979-2.365,1.377-3.572.046-.139-.179-.239-.24-.1-.793,1.767-1.448,3.6-2.2,5.387-.163.392-.341.776-.507,1.166a32.441,32.441,0,0,1,2.768-8.446c.048-.1-.094-.185-.149-.087a23.038,23.038,0,0,0-1.914,4.352c.186-.684.388-1.365.612-2.039.463-1.4,1.06-2.744,1.574-4.125.033-.087-.107-.145-.151-.063a25,25,0,0,0-1.567,4.066c-.239.762-.451,1.531-.643,2.3.141-.756.293-1.508.46-2.259.3-1.359.691-2.695,1.016-4.048a.092.092,0,0,0-.073-.117c.126-.332.259-.66.38-.994.043-.121-.155-.206-.211-.088A41.645,41.645,0,0,0,23.3,71.266c-.236.7-.458,1.407-.675,2.116V72.117c.26-1.093.542-2.18.858-3.258.405-1.376.92-2.713,1.352-4.078.035-.109-.139-.187-.187-.08a31.1,31.1,0,0,0-1.4,4.014c-.234.791-.437,1.588-.626,2.389V68.614c.195-.7.392-1.395.608-2.086q.387-1.239.814-2.465c.294-.844.659-1.675.915-2.531.028-.092-.115-.156-.157-.066a33.257,33.257,0,0,0-1.7,4.927c-.172.583-.324,1.173-.481,1.76V67.91c.522-2.027,1.153-4.018,1.794-6.02.037-.118-.14-.161-.183-.051a38.092,38.092,0,0,0-1.611,5.411V66.157q.193-1.006.428-2A35.028,35.028,0,0,1,25.1,58.445c.056-.123-.113-.228-.184-.108-.147.245-.28.5-.413.753.062-.189.119-.38.183-.568.038-.114-.132-.153-.175-.048A30.635,30.635,0,0,0,23.5,61.379a20.715,20.715,0,0,0-.875,3.343V62.973c.206-1.518.456-3.031.736-4.537.162-.348.327-.7.492-1.045l.237,0a.021.021,0,0,0,0-.041l-.214,0c.051-.105.1-.209.151-.316a.07.07,0,0,0-.121-.071c-.158.258-.286.535-.423.806.017-.084.029-.169.045-.254s-.105-.118-.126-.035c-.068.267-.124.536-.186.8-.2.437-.381.884-.554,1.327-.013.034-.022.067-.036.1V58.053c.092-.176.182-.352.259-.533a.1.1,0,0,0-.163-.1c-.034.052-.062.108-.1.161V55.526H51.643q.226,1.756.34,3.521c-.034.284-.062.567-.088.852-.157-.248-.313-.5-.465-.751l-.035-.655c-.005-.105-.171-.105-.164,0s.012.227.018.34c-.293-.493-.587-.985-.86-1.492-.04-.075-.154-.007-.114.066.314.579.648,1.145.988,1.708.018.332.036.662.053.994l-.092-.208q-.759-1.737-1.517-3.474c-.056-.127-.279-.035-.225.095.034.084.068.167.1.252a.126.126,0,0,0-.141.176c.331.737.647,1.481.957,2.227.014.124.024.248.038.373-.062-.057-.182-.038-.169.064.134,1.046.26,2.095.389,3.143a.1.1,0,0,0-.033-.008c-.107-.236-.213-.473-.32-.707q-.279-.777-.555-1.553a.08.08,0,0,0-.157.023c-.051-.108-.1-.218-.152-.326-.065-.138-.272-.018-.205.121.366.771.713,1.551,1.067,2.327.082.243.165.486.247.729q.1,1.418.209,2.836.148,3.824.484,7.64.171,1.926.392,3.847c.072.619.133,1.244.214,1.867.04.568.087,1.136.159,1.7a.077.077,0,0,0,.147.026l0,.014a.1.1,0,0,0,.132.063v2.307a35.406,35.406,0,0,0-.852-5.063.1.1,0,0,0-.182.051,34.885,34.885,0,0,1,.812,5.127q.1,1.228.112,2.462c0,.394,0,.788,0,1.183s.1,1.128-.336,1.369a.062.062,0,0,0,.047.113.63.63,0,0,0,.4-.346v8.508ZM54,53.619c.063-.076.127-.151.189-.226.118.075.234.153.354.226Zm1.3-3c-.175.2-.349.4-.525.594-.191-.2-.387-.395-.584-.587l.74-.962H55.3Zm-6.475-.956c.089.078.188.148.284.221-.179.174-.355.352-.529.531-.242-.136-.483-.273-.732-.4L47.865,50a.2.2,0,0,0-.127-.337Z" transform="translate(0.932 1.023)" fill="#7db1c7"/>
  <path id="Path_3210" data-name="Path 3210" d="M0,0V50.691H15.119V48.783H4.154c0-.064,0-.129.005-.191.007-.2.02-.406.041-.609A8.685,8.685,0,0,1,4.408,46.8a.156.156,0,0,0-.3-.083,9.234,9.234,0,0,0-.215,1.221q-.033.3-.044.608c0,.076,0,.156,0,.236H3.462c.023-.188.031-.381.052-.552q.079-.628.159-1.258.069-.551.14-1.1l.007.027a.078.078,0,0,0,.151-.041c-.035-.129-.073-.257-.107-.386q.06-.483.122-.966c.017-.133-.215-.165-.235-.033l-.057.395c-.133-.483-.269-.966-.405-1.448q.057-.425.116-.846c.069.186.12.381.194.564.033.082.161.052.135-.037-.092-.307-.182-.614-.275-.921.066-.461.119-.923.191-1.383,0-.006,0-.008,0-.015.037-.163.069-.329.107-.493s-.214-.235-.254-.071c-.031.131-.057.261-.086.391a.127.127,0,0,0-.073.1c-.04.233-.071.467-.109.7-.186-.633-.352-1.273-.506-1.916.065-.823.157-1.646.269-2.468.38,1.683.811,3.354,1.324,5a.078.078,0,0,0,.151-.042C4,40.067,3.537,38.155,3.1,36.236c.009-.055.015-.109.023-.164a28.557,28.557,0,0,0,.763,3.214.094.094,0,0,0,.182-.049c-.217-1.464-.534-2.916-.826-4.371a.108.108,0,0,0,.106-.111c-.022-.321-.061-.641-.089-.962l.006-.085a.1.1,0,0,0,.116-.113l-.073-.5c.04-.571.083-1.143.119-1.709.008-.127-.186-.125-.2,0-.02.225-.051.449-.072.674q-.1-.714-.2-1.429c-.011-.1-.019-.2-.029-.294.059-.351.112-.7.176-1.053.033-.169-.226-.244-.261-.072-.007.035-.013.068-.019.1-.013-.134-.028-.267-.041-.4.114-1.054.232-2.106.368-3.156.016-.12-.174-.119-.189,0-.086.669-.182,1.338-.276,2.006-.019-.22-.033-.44-.051-.66.131-.636.263-1.272.406-1.9.013.1.023.2.037.3.009.081.136.086.132,0-.016-.252-.043-.5-.061-.754.143-.617.285-1.234.439-1.848a.086.086,0,0,0-.166-.045c-.112.432-.213.866-.32,1.3-.056-.712-.113-1.423-.187-2.135.017-.153.033-.305.049-.458.028.563.055,1.126.087,1.689a.1.1,0,0,0,.2,0c.018-.977,0-1.958-.017-2.938.012-.051.021-.1.034-.151a.118.118,0,0,0-.035-.113c0-.154,0-.308-.006-.462a.1.1,0,0,0,.122-.088,44.867,44.867,0,0,0,.161-5.252v0h0c-.009-.392-.012-.783-.031-1.175.014-.054.027-.107.04-.161a.106.106,0,0,0-.059-.124c-.033-.621-.072-1.241-.125-1.862-.2-2.272-.738-4.559-.867-6.845a60.664,60.664,0,0,1,1.02,6.666c0,.041.069.042.065,0A53.742,53.742,0,0,0,2.447,3.707c0-.085-.006-.171-.008-.255q1.508-.279,3.028-.482a34.934,34.934,0,0,1,5.679,1.657c.081.028.111-.1.035-.126A27.387,27.387,0,0,0,6.187,2.873c.432-.054.864-.1,1.3-.146.008,0,.013.011.023.009,1.439-.044,2.879-.085,4.319-.138.708.215,1.421.415,2.137.556a.115.115,0,0,0,.061-.222c-.329-.127-.673-.228-1.016-.327l2.378-.111c.011,0,.011-.017,0-.016l-2.461.1c-.02-.006-.04-.014-.06-.019.132-.006.263-.009.394-.015a.082.082,0,0,0,0-.164c-.328,0-.658.011-.986.015l-.011,0c2.976-.1,5.944.025,8.918.167.217.055.435.106.653.16-2.991.224-5.98.525-8.949.823-.066.007-.068.114,0,.107,3.322-.281,6.654-.463,9.981-.677l.043.011c-.258.032-.515.067-.772.1-.145.017-.148.246,0,.231.494-.055.989-.1,1.486-.154.341.082.682.169,1.024.252-2.632.208-5.26.466-7.885.685-.167.014-.169.276,0,.263,4.206-.327,8.442-.543,12.631-1.052a.106.106,0,0,0,.074-.165c.855-.061,1.708-.127,2.562-.192l.091.014a.09.09,0,0,0,.079-.026c.688-.053,1.378-.1,2.067-.162.286-.025.574-.054.861-.08.267.031.533.072.8.1.678.069,1.363.136,2.049.2l-.256.028c-.065,0-.131.006-.2.007-.009,0-.006.013-.014.015-.329.037-.659.072-.989.106-.675.072-1.351.14-2.026.2q-.486.043-.974.081l-.487.037-.324.023a.294.294,0,0,0-.1.013.133.133,0,0,0-.073-.106L32.5,3.372a.154.154,0,0,0-.158,0,.258.258,0,0,0-.132.229.158.158,0,0,0,.078.135c.214.143.5.063.747.047.379-.026.758-.054,1.137-.084q1.1-.087,2.188-.2c.854-.087,1.708-.2,2.56-.327.476-.005.951-.013,1.426-.028.729.028,1.46.041,2.183.013.022,0,.033-.015.049-.022.566.056,1.132.118,1.7.173.075.007.073-.106,0-.115-.517-.065-1.036-.122-1.553-.185.642-.052,1.284-.108,1.923-.186.671.1,1.341.2,2.012.312-.473.118-.946.222-1.417.345a.2.2,0,0,0,.1.381c.771-.2,1.546-.379,2.32-.563,1.694.275,3.387.553,5.085.813.122.018.179-.161.053-.191-1.393-.325-2.8-.6-4.216-.845.341-.079.683-.155,1.026-.229,1.1.167,2.194.335,3.292.494a.1.1,0,0,0,0,.205c.438,0,.876-.016,1.314-.023.559.078,1.118.161,1.678.233.092.012.113-.144.022-.162-.168-.033-.339-.059-.509-.091,2.405-.06,4.811-.206,7.2-.479l.483.055q-1.633.289-3.265.573c-.432.055-.861.12-1.293.173-.033,0-.035.034-.022.055-1.336.227-2.672.448-4.012.651-.212.032-.125.366.089.324,3.164-.612,6.347-1.125,9.527-1.659.224.026.447.049.672.076.045.006.057-.073.011-.08-.121-.019-.244-.032-.365-.049l.191-.033c.421.021.842.053,1.263.067a.141.141,0,0,0,.154.148l2.845-.165c.219.012.439.019.658.025a.135.135,0,0,0,.081.2,10.132,10.132,0,0,0,3.541.446.086.086,0,0,0,0-.173,21.9,21.9,0,0,1-3.088-.461c.071,0,.142,0,.213,0a.094.094,0,0,0,.081-.124l.132-.007c.932-.054,1.875-.085,2.812-.157q.079.9.16,1.806-.182,1.08-.291,2.169c-.239,1.145-.48,2.291-.706,3.439-.26-1.566-.509-3.135-.727-4.709-.008-.059-.114-.045-.105.015.315,2.38.662,4.76,1.062,7.132-.387,1.654-.755,3.311-1.064,4.978,0,.006,0,.009,0,.016-.2.5-.4,1-.612,1.5-.023.056.072.095.1.041.505-1.031.955-2.094,1.378-3.168.014.241.031.48.045.72q-.414,1.235-.857,2.459c-.321.888-.718,1.767-.989,2.672a.1.1,0,0,0,.114.117c-.045.125-.1.249-.138.376a.111.111,0,0,0,.2.086,31.8,31.8,0,0,0,1.523-3.622l.019.193c-.682,1.834-1.3,3.691-1.8,5.578a.124.124,0,0,0,.239.065c.529-1.665,1.068-3.326,1.631-4.979.04.436.087.872.129,1.307q-.589,1.427-1.16,2.861A29.056,29.056,0,0,0,70.1,27.565c-.036.145.175.243.248.1a30.751,30.751,0,0,0,1.365-3.379q.267-.688.54-1.374c.018.14.037.28.055.42-.7,1.8-1.38,3.6-1.906,5.446-.037.131.168.225.225.095.677-1.537,1.239-3.132,1.788-4.726q.106.8.209,1.595l-1.269,3.544a33.171,33.171,0,0,0-1.317,3.925c-.027.121.149.211.211.088a31.4,31.4,0,0,0,1.376-3.672q.549-1.569,1.1-3.139.051.382.1.764l-.114.324c-.1.3-.216.594-.324.891-.031,0-.063.009-.054.049.005.02.009.04.014.061a56.344,56.344,0,0,0-1.933,5.757c-.025.1.127.174.173.073a51.248,51.248,0,0,0,1.887-5.278q.2.832.385,1.666c-.242.694-.493,1.385-.746,2.075-.047-.214-.087-.428-.135-.642-.024-.108-.191-.062-.167.046.065.3.121.608.184.913-.709,1.919-1.437,3.832-2.078,5.773-.028.087.113.149.151.064.759-1.738,1.407-3.529,2.029-5.327.019.089.037.179.055.268q-.485,1.38-.964,2.763c-.4,1.148-.874,2.3-1.179,3.475-.032.121.157.213.211.088.455-1.045.773-2.165,1.144-3.243q.447-1.295.887-2.591c.022.113.046.225.068.339q-.373,1.142-.746,2.283c-.447,1.374-.9,2.745-1.341,4.122-.449,1.409-.991,2.821-1.325,4.262a.107.107,0,0,0,.206.057c.556-1.326.935-2.744,1.382-4.111s.887-2.748,1.327-4.123c.045.322.1.642.145.963l-.711,2.151q-.286.861-.569,1.722-.122.369-.244.739c-.059.178-.328.68-.279.859a.128.128,0,0,0-.251.034.258.258,0,0,0,.261.3.307.307,0,0,0,.236-.1q-.243.706-.487,1.412a7.314,7.314,0,0,0-.533,1.789c-.009.118.151.141.206.056a2.987,2.987,0,0,0,.292-.6.151.151,0,0,0,.276.069,14.259,14.259,0,0,0,1.12-3.027c.354-1.053.689-2.112,1.021-3.172.067.436.126.873.2,1.308q-.339.894-.679,1.786l-.365.962c-.042-.184-.083-.369-.131-.552a.042.042,0,0,0-.08.022c.061.234.095.472.143.706q-.218.576-.437,1.152a19.04,19.04,0,0,0-.9,2.475.129.129,0,0,0,.234.1,18.034,18.034,0,0,0,.9-2.316q.158-.426.318-.853c.007.042.019.084.025.127a5.468,5.468,0,0,0,.021.573,12.193,12.193,0,0,0-.514,1.739c-.02.118.152.218.209.089a7.677,7.677,0,0,0,.4-1.2c.031.148.054.3.1.443.009.109.027.216.037.325,0,.015.013.02.024.023a7.962,7.962,0,0,0-.357,1.327.1.1,0,0,0,.009.049h-9.8v1.907H76.776V0ZM74.868,46.826c-.132.321-.261.643-.419.953-.1.205-.214.407-.328.606a4.1,4.1,0,0,0-.229.4H72.447c.024-.073.049-.144.074-.217.038,0,.076-.009.072-.055s-.011-.074-.015-.111l.063-.182q.287-.81.561-1.626a8.731,8.731,0,0,0,.126.942c.023.113.189.081.194-.026s0-.22,0-.331a.109.109,0,0,0,.139-.117c-.057-.415-.14-.825-.213-1.238.019-.056.035-.112.053-.167a.059.059,0,0,0,.112-.023c.008-.111,0-.224,0-.337.08-.249.159-.5.237-.747a.074.074,0,0,0,.135-.039c0-.118-.006-.237-.009-.355.1-.331.214-.658.313-.989a.132.132,0,0,0-.254-.069c-.034.113-.074.223-.107.336-.036-.332-.08-.664-.131-.995.2-.592.4-1.186.611-1.776.058-.165-.2-.235-.262-.072-.149.415-.291.834-.438,1.251-.008-.059-.018-.119-.026-.178.012,0,.024-.006.027-.02a9.085,9.085,0,0,0-.04-2c0-.043-.011-.087-.014-.132.077-.2.152-.406.228-.609.059-.159-.195-.226-.254-.069-.012.028-.022.057-.033.085-.039-.419-.072-.838-.125-1.256-.029-.227-.075-.452-.108-.679.006-.021.014-.042.019-.063.124-.434.3-.9.414-1.379.214,1.332.4,2.672.687,3.984.019.089.169.072.161-.022s-.025-.195-.035-.292a.1.1,0,0,0,.029-.078,39.171,39.171,0,0,0-.5-3.94q-.062-.441-.122-.881l.08-.241c.017.068.027.14.045.207a.045.045,0,0,0,.088-.012c0-.176-.013-.354-.021-.532l.151-.451a.09.09,0,0,0,.052-.091c0-.019,0-.038,0-.057l.044-.131A.084.084,0,0,0,74.4,32.9c0-.361-.02-.723-.045-1.085.151-.479.3-.957.455-1.437.036-.112-.137-.157-.174-.047q-.163.477-.323.954-.06-.671-.136-1.339l.114-.357c.007.138.012.277.02.415a.054.054,0,0,0,.107,0c.011-.282.006-.565.012-.848.04-.122.079-.244.118-.366a.113.113,0,0,0-.109-.149c0-.213.009-.424.008-.637q.189-.561.381-1.12c.038-.111-.137-.157-.175-.048l-.218.623c0-.239-.013-.477-.019-.716.155-.492.3-.987.452-1.48ZM72.706,16.945c.009-.033.021-.064.032-.1.156-.489.3-.982.445-1.473.028.153.055.305.084.458.005.038.011.077.015.115-.182.477-.355.959-.542,1.434-.013-.145-.022-.292-.034-.438m2.114-14.2a.075.075,0,0,0,.048-.031V3.861a.138.138,0,0,0-.121.123c-.034.406-.071.813-.106,1.219-.134.488-.265.979-.4,1.468-.033-.333-.065-.666-.095-1l.587-2.415a.136.136,0,0,0-.262-.072q-.2.819-.406,1.639c-.023-.294-.041-.587-.063-.88q.106-.564.208-1.127c.2-.023.405-.042.606-.073M74.257,28.86c-.051.153-.1.305-.151.459-.008-.079-.018-.159-.026-.238l.164-.483c0,.087.008.175.013.262m-.9,8.954c.056.468.089.94.125,1.411-.04.107-.081.215-.121.321-.058-.366-.107-.735-.168-1.1-.031-.184-.068-.367-.1-.552.06-.2.124-.406.184-.612.024.178.059.354.08.533m.209,6.752c-.043-.341-.1-.682-.142-1.008l0-.021c.055-.16.111-.319.165-.478q.055.5.145.994c-.054.172-.111.343-.165.514m-.218.667c-.005-.046-.012-.095-.017-.142-.035-.313-.082-.624-.122-.937.02-.061.042-.122.062-.183.037.381.061.773.117,1.154-.014.039-.025.078-.038.117l0-.008m.385-11.017,0,.027-.007-.034,0,.006m-.036-.268c-.006,0-.013.011-.02.015l.016-.049Zm-.119.327c.025.136.048.273.073.408l-.448,1.28c-.019-.109-.034-.219-.055-.327q.215-.681.431-1.361m-.626,4.082.005.028c.085.535.155,1.072.234,1.606q-.111.287-.219.575c-.082-.475-.164-.951-.257-1.423.081-.262.158-.524.237-.786m-.354.215,0-.014c.082-.243.163-.487.245-.731-.08.248-.162.5-.242.744m.48,2.494c0,.013-.008.026-.014.04v0a.361.361,0,0,1,.014-.036m-.068.963q.1.646.181,1.294l-.066.192c-.036-.256-.064-.513-.1-.768-.025-.168-.053-.337-.077-.505l.063-.212m.324.886c-.06-.446-.119-.893-.188-1.338l.185-.618c.033.236.072.469.1.705s.057.484.082.729q-.092.261-.182.521m.16-2.5,0-.017a.086.086,0,0,0-.02-.088c-.012-.076-.024-.152-.036-.227l.092-.244c.019.361.024.729.039,1.1-.025-.174-.054-.346-.079-.52m.385-7.1c.014-.041.026-.082.04-.124.024.156.058.307.088.46l-.058.167c-.023-.167-.046-.335-.071-.5m-.116-4.577c0,.037.008.074.013.112.013.128.02.259.033.388-.035.1-.069.2-.105.3-.019-.151-.036-.3-.055-.452.039-.116.076-.233.115-.348m-.166-.084c-.086-.708-.174-1.417-.256-2.125l.129-.38c.083.72.166,1.441.244,2.163-.04.114-.079.227-.118.342m.013,1.811c.009.095.019.193.028.287-.026.082-.053.164-.08.246-.013-.092-.025-.183-.037-.274.028-.086.058-.173.088-.26m.1.946q.06.627.14,1.255c-.015.039-.027.079-.04.118q-.082-.586-.163-1.174Zm.453,1.6c-.015-.141-.029-.282-.047-.424l0-.013c.017.145.026.292.044.437m-.113-.933q-.087-.6-.172-1.188c.02-.061.039-.121.058-.182.035.443.086.883.128,1.325-.005.015-.011.031-.015.045m-.254-1.795-.032-.262c.031-.089.061-.178.091-.267.008.092.017.184.023.276l-.082.254m.236-1.667c-.019-.168-.041-.336-.06-.5.076-.233.155-.465.228-.7.007.218.015.436.024.654l-.193.548m-.107-.9q-.122-1.071-.254-2.141.167-.494.336-.988v.033a.05.05,0,0,0,.1,0c0-.1-.008-.2-.009-.3v0q.046,1.322.086,2.643c-.085.253-.174.5-.26.757M73.525,24.4c-.006-.052-.013-.1-.02-.155q.208-.594.415-1.188c.017.311.035.622.049.934L73.6,25.041c-.026-.213-.048-.426-.076-.639m-.44-3.6c.189-.484.384-.967.574-1.452.009.109.02.219.031.328q-.272.761-.559,1.516c-.015-.131-.031-.262-.045-.393m1.783.634q-.313.889-.624,1.776c-.019-.3-.039-.607-.059-.911q.341-.981.683-1.962Zm-.367-8.7c-.023.063-.048.125-.072.188l-.063-.687c.035-.331.073-.661.1-.992.091.7.205,1.392.335,2.08-.095.216-.185.435-.279.652q-.032-.332-.061-.663c.062-.179.132-.355.194-.534.035-.1-.123-.143-.158-.044m-.843,1.794a17.659,17.659,0,0,0,.387-2.187c.019-.068.038-.138.056-.206-.022.411-.051.821-.067,1.232-.005.134.176.131.206.015l0,.034c-.222.608-.459,1.212-.688,1.818-.022-.2-.042-.408-.065-.613a.135.135,0,0,0,.168-.092m.621-.7.054.6c-.232.537-.467,1.071-.692,1.612-.012-.118-.025-.236-.038-.354.227-.62.457-1.238.676-1.86m-.728,2.444-.009.021c-.018-.1-.035-.193-.053-.289l.028-.077c.011.116.023.231.034.345m.135.177c.216-.575.446-1.144.674-1.716q.032.351.062.7c.037.409.063.823.091,1.239q-.311.723-.62,1.447c-.022-.113-.043-.224-.065-.337-.042-.445-.1-.889-.141-1.335m.289,2.1c.154-.392.309-.782.464-1.173-.136.456-.276.911-.427,1.362-.013-.063-.024-.126-.037-.189m.158,3.008c-.044-.638-.1-1.275-.155-1.912.017-.052.033-.1.051-.155.065.291.121.583.188.873.016.068.116.039.1-.027-.072-.364-.14-.727-.211-1.091q.254-.766.48-1.54a15.416,15.416,0,0,0,.237,1.8c0,.019.023.015.036.024q-.366,1.012-.729,2.025m.6-5.412c-.033-.283-.064-.566-.089-.846-.033-.349-.064-.7-.1-1.048.1-.243.193-.489.294-.733.008.039.016.078.024.117v.061c-.012.14-.021.28-.033.42,0,.024.019.025.033.035v1.625c-.012.046-.021.092-.033.138l-.1.232m.132-4.606q-.134-.889-.263-1.779c.086-.315.18-.629.263-.943Zm-.48-3.433c-.009-.076-.021-.151-.029-.226-.018-.167-.029-.336-.047-.5.069-.278.142-.555.213-.833q-.069.782-.136,1.563m-.962,5.928c-.012-.1-.02-.2-.032-.3.042-.126.08-.253.122-.379-.037.225-.065.452-.091.677m-.1-.08c.014.123.023.246.036.369-.033.107-.068.214-.1.321-.007-.057-.014-.115-.022-.172,0-.019-.022-.012-.033-.02-.007-.037-.014-.073-.02-.109.046-.129.1-.258.141-.389M73.3,14.978c.031-.1.062-.2.092-.3.027.259.051.518.076.777-.018.049-.037.1-.056.147q-.052-.276-.1-.555l-.009-.067m.411,3.053c.012.142.019.284.031.426-.005.011-.009.022-.014.033-.025-.247-.051-.495-.078-.741.02.094.041.188.061.282m-.491,3.789q.259-.734.516-1.471c.051.638.1,1.276.139,1.915l-.461,1.279c-.071-.561-.14-1.121-.207-1.683,0-.013.008-.027.014-.04m1.058,1.944.587-1.726V24.9c-.156.466-.306.935-.463,1.4q-.046-1.268-.124-2.533m.538-6.872c.016-.057.035-.114.049-.172v.605c-.016-.144-.033-.288-.049-.434m.049-8.318c-.013,0-.027,0-.033.018-.059.222-.133.439-.195.66q.062-.772.119-1.543c.036-.232.073-.463.108-.694Zm-.921-5.527-.013-.2c.018,0,.036,0,.053-.006-.012.067-.027.135-.04.2m-.187.944-.1.512c-.012-.123-.023-.246-.034-.369.037-.2.065-.408.106-.612.009.157.018.314.028.469m.064.925c.017.219.041.437.06.656-.032.125-.062.249-.094.375q-.027-.292-.053-.585c.027-.148.058-.3.086-.445m.139,1.522c.029.317.055.635.087.952-.032.118-.064.235-.095.353l-.085-.924c.031-.126.062-.254.093-.38m.158,1.7c.035.325.069.653.1.98l-.092.566q-.054-.579-.106-1.159c.032-.128.062-.259.094-.387m-.131,2.418c-.061.374-.123.748-.183,1.123-.032.193-.066.387-.1.583-.194.573-.383,1.147-.589,1.715-.058-.315-.119-.628-.175-.943q.461-1.928.928-3.856.06.688.121,1.378m-1.148,7.219c.174-.456.331-.918.5-1.375.013.1.027.195.039.293q-.294.723-.575,1.452l-.022-.215c.02-.052.039-.1.058-.155m.594-.643c.063.551.115,1.1.167,1.655-.2.459-.4.916-.592,1.377-.054-.483-.1-.967-.148-1.451.185-.529.38-1.055.573-1.581m-.467,4.493c-.041.108-.083.216-.124.324-.015-.141-.031-.282-.045-.423l.126-.321c.015.14.028.28.043.42m.073.719q.093.857.191,1.714l-.123.344c-.064-.573-.123-1.145-.185-1.717.04-.114.079-.228.118-.341m.274,2.453c.029.267.059.535.091.8-.043.122-.086.245-.128.367-.032-.269-.057-.54-.087-.809.042-.12.083-.24.125-.36m-.106,2.123c.078.721.16,1.44.242,2.16-.038.109-.075.219-.113.328q-.141-1.023-.28-2.046c.051-.147.1-.295.151-.442m.294,2.617c.017.145.033.292.048.437-.032.094-.065.186-.1.28-.018-.134-.036-.266-.055-.4.036-.105.069-.212.1-.317m-.221,1.207-.186.531c-.022-.095-.047-.189-.068-.285.011-.035.023-.069.035-.1.059-.173.112-.347.171-.52.016.126.033.253.049.379m.064.5c.013.1.025.2.039.294-.047.143-.095.286-.141.431-.019-.086-.036-.173-.056-.258l.158-.466m.12.925.152,1.178c-.015.046-.031.093-.046.138-.068-.328-.141-.656-.213-.983l.107-.333m.012,1.592-.183.544a1.389,1.389,0,0,0-.144.191.029.029,0,0,0,.049.029c.012-.022.028-.039.04-.06l-.213.633c-.065-.309-.132-.618-.2-.925q.226-.7.451-1.4c.068.331.14.661.2.993m-.528,1.565c-.071.209-.142.418-.213.627-.059-.316-.118-.632-.181-.947l.2-.608c.069.309.137.618.2.928m.115.572c.019.106.031.215.048.322l-.215.616-.047-.261c.072-.225.143-.452.214-.677m-.308,1.344c-.091.26-.182.52-.273.781-.013-.059-.024-.117-.037-.176.091-.281.178-.562.267-.844.015.08.028.159.042.239m-.4,1.142c-.011.027-.02.056-.029.083-.009-.052-.018-.1-.027-.156l.025-.079.032.152m-.128.152c.008.048.016.1.023.146-.008.027-.018.054-.027.081-.007-.047-.016-.094-.022-.14.008-.029.018-.059.026-.087m.12.759.005.029c-.009.026-.017.054-.026.08l-.005-.032Zm.081-.241c.014-.04.027-.08.04-.12l0,.02c-.013.041-.026.083-.04.124l0-.024m.164.494c.087.46.163.921.24,1.383-.021.056-.042.113-.064.169q-.109-.695-.225-1.388c.017-.055.033-.109.049-.164m.334,1.92.009.053-.069.222c0-.027-.007-.054-.012-.081.024-.064.048-.128.072-.194M72.883,44.2c-.052.148-.106.295-.156.443-.158.465-.311.932-.465,1.4-.053-.339-.1-.677-.155-1.016.086-.285.172-.572.258-.857q.166-.553.333-1.106.09.568.185,1.138m.1.6c.035.2.075.407.114.611.014.162.027.325.039.489-.059.176-.111.355-.171.531-.152.448-.308.9-.467,1.342-.044-.357-.082-.715-.136-1.071q.306-.952.621-1.9M74.868,2.609a.09.09,0,0,0-.074-.052c-.187-.006-.377,0-.565,0a.1.1,0,0,0-.173,0c-.047,0-.095,0-.141,0-.014-.216-.031-.431-.042-.646h.995ZM46.514,2.374c-.467.047-.934.094-1.4.139l-.289-.041c.1-.012.192-.016.286-.027.031,0,.06-.009.089-.014.318-.022.634-.068.949-.109l.366.053m-8.526.069c.288-.011.586-.017.868-.052l-.346.114-.522-.062m1.535.1a.144.144,0,0,0-.115.065l-.619-.074.929-.257c.064-.018.054-.125-.017-.121q-1.317.088-2.633.173c-1.017-.119-2.032-.246-3.048-.363-.133-.016-.166.125-.113.219-.351-.046-.7-.082-1.055-.133a.123.123,0,0,0,.012-.148h6.761a.181.181,0,0,0,.151.231c.656.079,1.308.173,1.961.262q-1.107.09-2.215.146M27.1,2.442q-1.814.051-3.631.162-.917-.309-1.858-.553a47.31,47.31,0,0,1,4.825.142c.456.04.907.108,1.361.162l-.7.086M10.546,1.908h2.878c-.834.026-1.666.057-2.5.108l-.378-.108m16.369,0h2.292c.3.024.606.041.911.063.148.026.3.047.445.073q-.688.069-1.377.148c-.753-.117-1.511-.209-2.271-.284m5.032,0H32.1l-.1.008-.055-.008m11.417,0c.015.007.023.02.043.023.409.055.818.117,1.227.175-.2.023-.4.051-.6.074-.129.015-.259.023-.388.038-.337-.006-.672-.031-1.007-.056-.658-.087-1.316-.171-1.973-.254Zm1.625,0h1.273c-.223.029-.447.054-.672.081l-.6-.081m2.583.159.086-.014a5.768,5.768,0,0,0,.767-.145h1.607c.007.018.007.038.022.051a.134.134,0,0,0,.1.041l.251-.02a.134.134,0,0,0,.084-.035c.008-.009.008-.024.015-.037h1.219l.305.034c-.164.032-.327.069-.491.1h-.008l-.008,0c-.231.045-.458.094-.687.141q-.867.137-1.728.287-1.041-.147-2.081-.289c.183-.035.365-.078.548-.119m14.087.239a.156.156,0,0,0-.173.166q-1.2-.12-2.389-.236.872-.077,1.743-.152l2.885.382.046.006c-.7-.057-1.408-.111-2.113-.167m-3.409-.154c-.811-.079-1.62-.162-2.429-.244h3.684l.68.089c-.645.055-1.291.095-1.935.155m-4.9-.061.419.047c-.2-.009-.4-.017-.6-.025l.182-.022m13.352.36c-.962-.124-1.933-.216-2.875-.341l-1.3-.173.346-.029h7.278c-1.151.173-2.3.349-3.447.543M2.914,20.555l-.005.044c-.035.148-.065.3-.1.446-.039-.348-.076-.7-.118-1.046.051-.308.1-.617.149-.926.023.494.049.988.074,1.482M1.907,4.921V3.545l.069-.012c-.02.463-.045.925-.069,1.387m0,10.676c.078.6.156,1.206.227,1.811-.074.291-.151.581-.227.872Zm0,18.081V31.632l.009-.067c.047.277.1.555.152.832-.055.427-.109.855-.161,1.282m0-5.315v-.8l.044.408c-.014.129-.031.259-.044.389m.3,2.887c-.017.125-.032.251-.047.376-.017-.094-.037-.186-.054-.28s-.095-.095-.155-.062c.057-.463.112-.926.149-1.393.013-.076.028-.152.041-.227.043.339.1.677.143,1.015-.025.191-.054.381-.078.572M2.144,26.28c-.022.178-.04.356-.061.535-.024-.239-.056-.477-.079-.716.026-.136.054-.272.08-.407.018.2.041.393.06.588M1.907,39.135q.144.6.295,1.193c-.043.329-.081.66-.12.991a.094.094,0,0,0-.158.086c.028.147.064.293.095.44-.02.18-.048.36-.065.541-.007.078.119.094.137.018.009-.039.015-.078.023-.117.029.132.054.266.085.4.006.695.037,1.387.105,2.074a.074.074,0,0,0,.148,0c.013-.335.025-.667.038-1,.063.215.132.427.2.64-.046.312-.1.623-.136.937-.058.46-.122.935-.146,1.4-.066-.208-.133-.416-.2-.624q-.15-.474-.3-.947Zm.84,4.877c-.084-.286-.159-.575-.235-.863.019-.462.042-.922.064-1.383.109.405.232.805.348,1.207-.043.243-.094.485-.134.729-.017.1-.028.206-.044.309m-.543-2.2,0-.019v.034Zm-.3-3.44v0A.1.1,0,0,0,2,38.288a8.33,8.33,0,0,0,.105-.873c.081.518.161,1.037.267,1.552-.039.276-.072.553-.108.828-.121-.474-.244-.946-.359-1.421m.263-1.745c.011-.156.019-.312.033-.466q.084-1,.188-2c.114.586.239,1.171.363,1.755-.038.325-.064.651-.1.975-.057.468-.123.934-.187,1.4-.107-.555-.214-1.109-.294-1.668m.32-3.295c.026-.214.056-.425.084-.638.1.652.205,1.311.313,1.972-.014.127-.026.255-.041.382q-.185-.856-.356-1.716m.364-.58c-.057-.348-.1-.7-.151-1.046l.035-.236q.068.734.149,1.467c-.011-.062-.024-.123-.034-.185m-.436-3.023q-.06-.464-.115-.928c.022-.122.043-.244.066-.365.033.274.077.545.113.819-.022.158-.042.317-.064.475m.213.6,0,.026-.016.083ZM2.278,22.4c.032-.171.068-.34.1-.511.016,0,.033,0,.026-.024s-.009-.032-.015-.046c.054-.3.1-.6.151-.9q.049.445.1.888c-.1.452-.2.9-.3,1.356-.017-.253-.042-.506-.058-.76m-.371.217V19.445q.158-.649.314-1.3c.059.508.12,1.018.178,1.526q-.242,1.472-.492,2.94m0,1.7c.016-.078.029-.156.045-.234L2,24.663c-.029.14-.061.281-.093.421ZM1.907,46c.024.073.047.146.071.22q.118.369.236.739l-.306-.653Zm.823,2.449a.072.072,0,0,0,.087.039c.022.06.045.119.066.179-.009.037-.018.074-.027.112H2.667c.016-.126.033-.253.042-.381.008.016.013.035.021.052m.414-.965q-.093.475-.2.948h0c-.035-.093-.068-.184-.1-.277-.027-.122-.052-.245-.091-.366.011-.152.021-.3.038-.447.073-.662.155-1.323.235-1.985.1.274.213.546.326.816-.064.438-.123.876-.207,1.311M2.407,24.1c.021-.1.044-.2.065-.3-.018.138-.038.276-.056.415L2.407,24.1m.133-5.308q-.082-.633-.167-1.264c.008-.038.018-.077.027-.115l.3-1.222c.019.387.036.774.055,1.161-.075.48-.141.961-.219,1.44m-.26-1.955q-.147-1.064-.3-2.125c.033-.283.065-.566.1-.847.116-.936.208-1.875.312-2.812q.155,2.144.265,4.292-.188.745-.378,1.493m.159-8.724c-.024.232-.057.462-.082.694.054-.713.092-1.426.128-2.14.063.448.131.9.2,1.345a.153.153,0,0,0-.244.1m-.168-2.5c-.042.536-.087,1.071-.131,1.607.052-.859.075-1.719.112-2.578.023.288.054.578.085.866a.131.131,0,0,0-.066.1m-.181-3.7a.138.138,0,0,0-.036.076c-.016.479-.051.958-.071,1.437l-.076.015V1.908ZM1.907,46.536q.227.475.453.949c-.059.423-.133.865-.159,1.3H1.907Zm1.716-1.181a.177.177,0,0,0-.165.153c-.018.142-.047.282-.067.423-.111-.3-.221-.6-.322-.9.043-.354.1-.706.144-1.061.044.141.079.285.124.426.009.033.039.037.065.035.079.276.155.553.235.828,0,.033-.008.065-.014.1m-.479-3.543c-.044.215-.083.431-.124.646-.137-.48-.268-.962-.4-1.442.016-.286.028-.573.048-.859.141.56.3,1.109.479,1.655M2.979,24.658q-.207.859-.4,1.72c-.019-.241-.036-.482-.055-.722.084-.837.18-1.673.268-2.508.059.5.121,1.007.183,1.511m.2-6.066q-.027-.711-.063-1.42c.037-.267.075-.535.111-.8q-.008,1.112-.047,2.223m.034-4.253c-.056.407-.126.813-.185,1.219-.012-.177-.026-.354-.038-.531l.219-.88c0,.064,0,.128,0,.192m-.027-1.095-.253,1q-.172-2.334-.381-4.655c.049-.466.108-.933.155-1.4.137.912.267,1.822.342,2.729.063.775.106,1.549.137,2.326M2.44,3.334c0-.173,0-.346,0-.52.009,0,.016.011.027.009a11.422,11.422,0,0,1,2.446.065q-1.246.205-2.478.445m.032-.676c-.012,0-.017.011-.026.015,0-.063,0-.127,0-.191a.1.1,0,0,0-.1-.109c0-.129.013-.259.016-.388a.121.121,0,0,0-.031-.076H9.084c.3.039.6.072.894.117l.132.04c-.367.023-.735.046-1.1.067-1.876.1-3.754.2-5.626.359-.046,0-.048.076,0,.075,1.791-.037,3.581-.126,5.369-.212-.351.038-.7.086-1.049.131l-.195,0a.1.1,0,0,0-.06.027q-.9.117-1.8.255a11.783,11.783,0,0,0-3.177-.114M14.66,2a.055.055,0,0,0,.016-.087h3.942c.385.1.769.2,1.154.3A47.8,47.8,0,0,0,14.66,2m5.517.054c.845.172,1.684.376,2.511.609l-.168.013c-.781-.207-1.559-.422-2.342-.622M24.149,3.1l.007,0-.009,0Zm3.494-.126a.154.154,0,0,0-.115.236c-.716.042-1.432.085-2.147.139a.067.067,0,0,0-.033-.036c-.221-.1-.446-.178-.669-.266,1.575-.157,3.153-.314,4.725-.5.455.066.911.137,1.365.207-1.042.072-2.084.14-3.126.218m4.093-.285c-.415-.1-.833-.189-1.254-.272.426-.055.851-.119,1.276-.181.708.112,1.42.211,2.132.3-.718.047-1.436.1-2.154.149m9.7.132c-.193-.013-.384-.028-.577-.04q1.224-.062,2.444-.168l.257.04q-1.061.093-2.124.168m5.5-.343c.019,0,.016-.025.025-.04l1.271.194c-.357.064-.712.129-1.066.2-.412-.066-.821-.137-1.234-.2.335-.052.671-.092,1-.151m5.559-.239q1.626.06,3.247.166c-1.277.128-2.555.252-3.831.395-.053.006-.057.056-.036.089-.478-.075-.956-.149-1.435-.22.684-.145,1.367-.3,2.054-.431m-.468.674c1.525-.161,3.054-.3,4.582-.446.208.015.417.028.625.044q2.045.215,4.094.382c-2.346.186-4.692.335-7.046.4-.751-.133-1.5-.263-2.255-.382m14.163.077c-.007,0-.011-.008-.018-.009-.145-.018-.291-.032-.435-.048l.035-.005.211.014c.151.011.3.023.453.035l-.245.015m4.235-.245-1.534.088c-.126-.029-.255-.053-.383-.079.573-.025,1.145-.049,1.717-.084a16.033,16.033,0,0,0,2.358-.206c.159-.034.115-.268-.038-.275a23.7,23.7,0,0,0-2.514.161c-.167.012-.334.019-.5.029.387-.067.775-.135,1.158-.215.072-.015.057-.139-.017-.129-.171.022-.339.049-.508.074.356-.068.713-.132,1.068-.2h2.408c.012.216.027.431.04.646-1.086.027-2.177.129-3.255.192m3.094.144c.06-.005.12-.007.181-.013l.025.432c-.044.212-.069.425-.111.637-.032-.352-.064-.7-.1-1.056M73.491,4.9l.028.309c-.082.4-.157.8-.24,1.2.059-.506.131-1.009.212-1.514m-.851,5.491c.363-1.421.672-2.858.956-4.3.014.158.028.316.042.474l-.193.776q-.251,1.02-.5,2.039c-.126.508-.261,1.023-.361,1.541-.027-.167-.057-.334-.085-.5a.082.082,0,0,0,.145-.028m.032,1.062a.1.1,0,0,0,.039-.043,17.4,17.4,0,0,0,.538-2.029q.234-.965.468-1.927c.026.3.054.605.08.908q-.515,1.963-.981,3.936c-.051-.281-.1-.563-.144-.844m-.643,5.359q.407-1.663.806-3.329c.048.278.1.554.153.831-.159.431-.326.859-.492,1.287,0,.008-.017.005-.017.017l0,.022c-.151.391-.3.783-.453,1.173m1.027-2.131.069.381c-.149.479-.3.958-.455,1.434-.016-.22-.036-.44-.051-.66.148-.383.3-.767.436-1.155m-1.225,4.867c.265-.743.512-1.494.755-2.245.009.137.015.274.025.412-.262.656-.544,1.309-.825,1.964.015-.043.029-.087.045-.131M72.5,18.7c.053-.144.106-.286.16-.428.005.068.012.137.018.205-.052.135-.108.267-.159.4-.005-.06-.014-.12-.019-.179m.088.822c.048-.142.094-.284.142-.425.042.476.083.951.131,1.426-.045.106-.086.214-.131.321-.046-.441-.1-.881-.142-1.322m-.161,3.188a.076.076,0,0,0-.067-.062q.169-.429.339-.861c.014.144.028.289.043.434-.095.242-.187.485-.282.728-.011-.08-.022-.159-.033-.239m.392.284c.058.58.113,1.16.173,1.739l-.208.579c-.072-.529-.145-1.059-.217-1.588.083-.244.168-.486.253-.729m.064,3.048.071-.2c.039-.109.077-.22.115-.329.029.274.053.548.082.822l-.164.467Zm.02,1.786q.136,1.031.271,2.063c-.08.232-.159.464-.24.7-.128-.549-.259-1.1-.4-1.646.121-.373.24-.744.365-1.113m-.686,5.533q.371-1.08.738-2.158c.022.1.042.2.063.3q-.354,1-.705,2.009c-.014.038-.027.077-.04.116-.019-.088-.037-.177-.056-.264m.156.745c.046-.136.094-.271.14-.406l.6-1.757c.02.089.038.18.056.269q-.243.744-.485,1.488c-.035,0-.069.016-.059.06.006.023.009.047.016.072q-.1.3-.195.6c-.022-.107-.046-.216-.068-.323m-.392,3.123c-.011-.072-.084-.069-.127-.031l.012-.039.572-1.78c.06.321.111.644.167.966-.081.244-.165.487-.246.732-.024.072-.047.144-.072.216a.1.1,0,0,0-.125.115c.012.055.021.109.033.163-.035.107-.071.214-.105.321-.034-.221-.075-.441-.107-.663m.119,1.886-.361,1.034-.373,1.069.711-2.2L72.078,39c.006.039.013.079.018.118m-.073,1.213c-.274.817-.561,1.631-.845,2.444q.428-1.269.853-2.541l.161-.481.006.04c-.06.179-.115.359-.175.538m.412-.265c.008-.026.016-.053.023-.079.071.471.132.941.194,1.413v0c-.076-.445-.143-.892-.216-1.338m-.363,3.685q.259-.692.516-1.382c.011.058.019.117.028.175q-.231.744-.46,1.485l-.489,1.576c-.027-.172-.061-.342-.095-.513q.251-.671.5-1.341M71.585,45.7c.005.042.007.085.014.127l0,.014-.005.016c0-.052,0-.1,0-.157m.083.825.007-.026c.005.044.011.088.015.133-.007-.036-.016-.071-.022-.106m.081-.291c.023-.085.046-.173.071-.257l.164-.542q.069.507.141,1.014l-.051.153c-.078.237-.161.477-.244.718-.008-.362-.04-.724-.081-1.085m.48.9c.048.319.1.637.159.954-.084.233-.176.466-.266.7h-.471a11.642,11.642,0,0,0,.578-1.654m2.014,1.654c.051-.084.1-.171.139-.245.123-.213.238-.428.348-.647.052-.1.088-.215.138-.32v1.213Z" fill="#7db1c7"/>
  <rect id="Rectangle_232" data-name="Rectangle 232" width="25.658" height="1.907" transform="translate(10.691 7.797)" fill="#7db1c7"/>
  <path id="Path_3211" data-name="Path 3211" d="M10.156,14.871h50V13.279c.462-.047.923-.1,1.379-.175.153-.024.113-.268-.037-.266-1.134.009-2.267.072-3.4.125H53.29c1.262-.182,2.532-.3,3.808-.38,1.024-.068,2.071-.109,3.113-.112.714.029,1.426.054,2.14.058.1.006.124-.159.024-.176a44.836,44.836,0,0,0-6.32-.479q-3.279-.09-6.558.045c-.322.013-.322.518,0,.5q3.213-.163,6.432-.116c.982.015,1.964.061,2.945.108-.676,0-1.352,0-2.025.02a37.506,37.506,0,0,0-5.2.509l-.04.005c-.011,0-.014.011-.023.015H10.156Z" transform="translate(0.535 0.623)" fill="#7db1c7"/>
  <rect id="Rectangle_233" data-name="Rectangle 233" width="19.059" height="1.907" transform="translate(10.691 19.376)" fill="#7db1c7"/>
  <rect id="Rectangle_234" data-name="Rectangle 234" width="15.307" height="1.907" transform="translate(10.691 25.165)" fill="#7db1c7"/>
  <rect id="Rectangle_235" data-name="Rectangle 235" width="14.334" height="1.907" transform="translate(10.691 30.954)" fill="#7db1c7"/>
  <rect id="Rectangle_236" data-name="Rectangle 236" width="1.907" height="1.907" transform="translate(20.56 36.744)" fill="#7db1c7"/>
  <rect id="Rectangle_237" data-name="Rectangle 237" width="1.907" height="1.907" transform="translate(10.691 36.744)" fill="#7db1c7"/>
  <rect id="Rectangle_238" data-name="Rectangle 238" width="1.907" height="1.907" transform="translate(15.625 36.744)" fill="#7db1c7"/>
  <rect id="Rectangle_239" data-name="Rectangle 239" width="1.907" height="1.907" transform="translate(67.997 6.381)" fill="#7db1c7"/>
  <rect id="Rectangle_240" data-name="Rectangle 240" width="1.907" height="1.907" transform="translate(67.997 11.316)" fill="#7db1c7"/>
  <rect id="Rectangle_241" data-name="Rectangle 241" width="1.907" height="18.026" transform="translate(67.997 16.25)" fill="#7db1c7"/>
  <rect id="Rectangle_242" data-name="Rectangle 242" width="1.907" height="1.907" transform="translate(48.29 72.302)" fill="#7db1c7"/>
  <rect id="Rectangle_243" data-name="Rectangle 243" width="1.907" height="12.501" transform="translate(48.29 82.17)" fill="#7db1c7"/>
  <rect id="Rectangle_244" data-name="Rectangle 244" width="1.907" height="1.907" transform="translate(48.29 77.237)" fill="#7db1c7"/>
  <rect id="Rectangle_245" data-name="Rectangle 245" width="8.94" height="1.907" transform="translate(51.75 30.954)" fill="#7db1c7"/>
  <rect id="Rectangle_246" data-name="Rectangle 246" width="12.039" height="1.907" transform="translate(6.086 98.093)" fill="#7db1c7"/>
  <rect id="Rectangle_247" data-name="Rectangle 247" width="12.039" height="1.907" transform="translate(58.652 98.093)" fill="#7db1c7"/>
  <path id="Path_3212" data-name="Path 3212" d="M4.411,44.273a5.346,5.346,0,0,0-.269.84c-.034.141-.06.283-.081.426s-.068.326.008.444a.1.1,0,0,0,.155.02.815.815,0,0,0,.112-.419c.022-.138.049-.276.082-.412a5.27,5.27,0,0,1,.272-.823.145.145,0,0,0-.1-.177.147.147,0,0,0-.177.1" transform="translate(0.212 2.325)" fill="#7db1c7"/>
  <path id="Path_3213" data-name="Path 3213" d="M70.864,42.965l-.608,1.446a9.547,9.547,0,0,0-.564,1.458.107.107,0,0,0,.195.082,9.71,9.71,0,0,0,.645-1.435q.3-.737.611-1.475c.071-.172-.207-.245-.278-.077" transform="translate(3.668 2.256)" fill="#7db1c7"/>
  <path id="Path_3214" data-name="Path 3214" d="M49.93,80.665a.144.144,0,0,0-.287,0q0,1.852.1,3.7c.005.1.012.2.017.3a.125.125,0,0,0-.1.12q-.047,1.658-.016,3.317a25.564,25.564,0,0,0,.12,2.643v.021a2.329,2.329,0,0,0,.062.673.1.1,0,0,0,.183,0,2.292,2.292,0,0,0,.061-.673l0-.7q0-.7,0-1.4a.138.138,0,0,0-.121-.141c-.007-.161-.016-.323-.02-.483-.008-.366,0-.733,0-1.1.04.335.086.667.148,1,.02.109.2.083.194-.026-.041-1.208-.188-2.414-.255-3.621s-.1-2.42-.1-3.632" transform="translate(2.612 4.238)" fill="#7db1c7"/>
  <path id="Path_3215" data-name="Path 3215" d="M24.681,71.5l-.249,1.125c-.015.066.086.095.1.028q.125-.562.251-1.125c.014-.066-.087-.095-.1-.028" transform="translate(1.286 3.761)" fill="#7db1c7"/>
  <path id="Path_3216" data-name="Path 3216" d="M23.15,57.953c-.271.855-.442,1.748-.644,2.622-.024.107.139.154.166.045.224-.868.483-1.74.637-2.623a.083.083,0,0,0-.159-.044" transform="translate(1.185 3.047)" fill="#7db1c7"/>
  <path id="Path_3217" data-name="Path 3217" d="M35.29,54.347a.161.161,0,0,0,0-.321,41.41,41.41,0,0,0-5.883-.044c-1.964.069-3.92.215-5.874.42-.171.018-.177.283,0,.272q2.931-.194,5.874-.264c1.958-.047,3.928.046,5.883-.062" transform="translate(1.232 2.837)" fill="#7db1c7"/>
  <path id="Path_3218" data-name="Path 3218" d="M36.586,54.834c.4-.022.789-.048,1.185-.072q3.1-.025,6.195-.044a.037.037,0,0,0,0-.075c-1.188-.027-2.377-.036-3.566-.038,1.314-.089,2.626-.2,3.939-.337a.106.106,0,0,0,.063-.034c.249,0,.5.017.748.016q.734,0,1.467-.033A7.256,7.256,0,0,0,48,54.1c.147-.035.1-.226-.033-.242a9.885,9.885,0,0,0-1.466.011c-.469.013-.94.022-1.411.032q-1.44.028-2.878-.007a.146.146,0,0,0-.105.246c-1.842.1-3.682.226-5.524.373a.153.153,0,0,0-.137.123c-3.042.049-6.084.151-9.117.272-.042,0-.043.067,0,.065,3.045-.118,6.088-.168,9.132-.2a.129.129,0,0,0,.122.06" transform="translate(1.437 2.833)" fill="#7db1c7"/>
  <path id="Path_3219" data-name="Path 3219" d="M47.869,54.109c-1.46.072-2.92.221-4.378.336-.1.008-.1.165,0,.157,1.459-.131,2.924-.228,4.378-.4.056-.007.06-.094,0-.091" transform="translate(2.285 2.848)" fill="#7db1c7"/>
  <path id="Path_3220" data-name="Path 3220" d="M44.849,78.722c0-.1,0-.209,0-.314a.161.161,0,0,0-.321,0q-.009,2.327-.02,4.656c0,.761-.011,1.522-.006,2.283a15,15,0,0,0,.048,2.229.145.145,0,0,0,.278,0c0-.015,0-.029,0-.044a.109.109,0,0,0,.121-.084,19.9,19.9,0,0,0,.289-4.261,34.535,34.535,0,0,0-.225-4.4.1.1,0,0,0-.165-.063m.022,5.744c0-.467,0-.935,0-1.4q-.008-1.8-.017-3.594c.051,1.211.1,2.419.074,3.632-.009.455-.034.909-.054,1.364" transform="translate(2.341 4.119)" fill="#7db1c7"/>
  <path id="Path_3221" data-name="Path 3221" d="M37.287,87.037c-1.823.132-3.635.244-5.451.276.364-.016.728-.023,1.092-.053a21.664,21.664,0,0,0,3.762-.541.124.124,0,0,0-.033-.242c-1.269.051-2.535.213-3.8.283s-2.549.123-3.825.118a.235.235,0,0,0-.169.392c-.153-.008-.3-.006-.455-.016-.123-.008-.119.177,0,.188a30.008,30.008,0,0,0,8.907-.219.1.1,0,0,0-.025-.186" transform="translate(1.49 4.552)" fill="#7db1c7"/>
  <path id="Path_3222" data-name="Path 3222" d="M37.687,23.309a1.545,1.545,0,0,1,2.072.1A5.808,5.808,0,0,1,41.109,25.2,8.327,8.327,0,0,1,42,28.072a7.563,7.563,0,0,0-2.287-2.823c-.055-.042-.108.051-.054.092a7.257,7.257,0,0,1,1.907,2.177,6.9,6.9,0,0,1,.5,1.1,7.6,7.6,0,0,1-.005,1.073c-.007.092.147.114.162.022.022-.148.033-.3.046-.443.081.3.152.613.2.928.011.063.119.049.113-.016a6.174,6.174,0,0,0-.291-1.362,7.539,7.539,0,0,0-1.18-4.217,4.376,4.376,0,0,0-1.708-1.751,1.675,1.675,0,0,0-1.905.266c-.118.121.067.306.186.186" transform="translate(1.972 1.194)" fill="#7db1c7"/>
  <path id="Path_3223" data-name="Path 3223" d="M43.848,28.436a.053.053,0,0,0,0-.105.053.053,0,0,0,0,.105" transform="translate(2.305 1.491)" fill="#7db1c7"/>
  <path id="Path_3224" data-name="Path 3224" d="M38.639,9.813A67.006,67.006,0,0,0,28.029,9.4q-2.678.039-5.355.181a26.645,26.645,0,0,0-5.245.523.124.124,0,0,0,.033.243,40.947,40.947,0,0,0,5.213-.214c.113-.005.225-.005.338-.011-1.485.12-2.966.279-4.443.492-.119.018-.092.218.028.211,2.892-.184,5.785-.378,8.682-.452s5.807.055,8.7-.037a.171.171,0,0,0,.136-.276c.831.005,1.66,0,2.488-.019.123,0,.163-.207.031-.226" transform="translate(0.913 0.493)" fill="#7db1c7"/>
  <path id="Path_3225" data-name="Path 3225" d="M21.278,11.131c-.215.018-.217.356,0,.337,4.083-.356,8.165-.46,12.258-.654a.123.123,0,0,0,0-.246,118.88,118.88,0,0,0-12.258.563" transform="translate(1.112 0.555)" fill="#7db1c7"/>
  <path id="Path_3226" data-name="Path 3226" d="M49.44,15.929a36.409,36.409,0,0,0,7.783-.5c.124-.024.095-.221-.029-.218-.94.023-1.878.071-2.815.119.285-.018.569-.039.853-.079.157-.022.111-.262-.036-.266a19.886,19.886,0,0,0-2.064.088l-2.064.144a.126.126,0,0,0-.015.249c-.537.012-1.074.022-1.613.014a.222.222,0,0,0,0,.444m3.732-.535.194-.007c-.455.022-.911.039-1.367.056h-.063l1.237-.048m-1.5.059-.008,0q-.2.008-.4.013l.406-.016" transform="translate(2.591 0.789)" fill="#7db1c7"/>
  <path id="Path_3227" data-name="Path 3227" d="M60.055,19.7a7.579,7.579,0,0,0-1.716.094V19.5c.415-.052.829-.1,1.244-.157.111-.017.083-.2-.026-.195-.407.015-.813.045-1.218.067v-.811H44.675v1.907h9.356l-.976.126c-.246.032-.257.419,0,.395l3.568-.338c.542-.052,1.083-.117,1.623-.183h.093V20.3l.068-.008A7.812,7.812,0,0,0,60.1,20.01a.161.161,0,0,0-.043-.315" transform="translate(2.352 0.969)" fill="#7db1c7"/>
  <path id="Path_3228" data-name="Path 3228" d="M56.992,25.814h1.162v-.1a10.811,10.811,0,0,0,1.261-.2.165.165,0,0,0-.043-.323c-.4,0-.812.028-1.218.06V23.907H48.24v1.907h5.171a.2.2,0,0,0,.208.173c.279-.007.556-.029.834-.041l-.835.258a.2.2,0,0,0,.053.387c.862-.015,1.728,0,2.587-.069.838-.064,1.685-.052,2.518-.171.126-.018.082-.2-.028-.209-.843-.072-1.695,0-2.539-.026-.476-.016-.955,0-1.434.025a.193.193,0,0,0-.064-.206c.615-.026,1.231-.046,1.845-.089l.436-.031" transform="translate(2.539 1.258)" fill="#7db1c7"/>
  <path id="Path_3229" data-name="Path 3229" d="M57.086,26.819c.118-.021.091-.217-.028-.209-.459.024-.916.06-1.375.059a12.278,12.278,0,0,1-1.377-.079c-.178-.019-.178.262,0,.28a10.373,10.373,0,0,0,2.78-.051" transform="translate(2.852 1.399)" fill="#7db1c7"/>
  <path id="Path_3230" data-name="Path 3230" d="M58.041,31.962a5.417,5.417,0,0,0,.876-.221.137.137,0,0,0-.037-.267,5.444,5.444,0,0,0-.893.095c-.294.041-.584.1-.876.159l-.854.159c.172-.049.339-.111.514-.148a4.8,4.8,0,0,0,.532-.12,3.052,3.052,0,0,1,.577-.111c.178-.023.191-.295,0-.287s-.391.035-.584.034a2.749,2.749,0,0,0-.593.079,9,9,0,0,0-1.132.323.2.2,0,0,0-.053.367l-.189.036c-.229.042-.131.387.1.348l1.755-.3c.286-.048.575-.089.86-.147" transform="translate(2.905 1.643)" fill="#7db1c7"/>
  <path id="Path_3231" data-name="Path 3231" d="M24.122,41.082a.012.012,0,0,1,0,.024" transform="translate(1.27 2.162)" fill="none" stroke="#7db1c7" stroke-linecap="round" stroke-linejoin="round"/>
</svg>
