<svg id="Group_450" data-name="Group 450" xmlns="http://www.w3.org/2000/svg" width="100.762" height="73.583" viewBox="0 0 100.762 73.583">
  <g id="Group_448" data-name="Group 448" transform="translate(0 51.678)">
    <path id="Path_749" data-name="Path 749" d="M47.079,95.689a4.912,4.912,0,0,0-.562-1.585,10.112,10.112,0,0,0-2.4-3.091c-.5-.13-.934-.322-1.468-.419a9.316,9.316,0,0,1-.362-1.777,4.134,4.134,0,0,0-1.293-1.891,4.267,4.267,0,0,1-.533-.5c.17.062.381.084.489.205.1-.149-.159-.133-.194-.15-.861-.445-1.761-.745-2.686-1.131-.485-.2-.816-.475-1.267-.613a24.2,24.2,0,0,0-5.254-.487,165.053,165.053,0,0,0-18.3.018,29.631,29.631,0,0,0-3.158.583c-.271.043-.44,0-.64.038a11.716,11.716,0,0,0-2.071,1.029c.1-.039.183-.065.234-.028a4.954,4.954,0,0,0-.9.623,5.258,5.258,0,0,0-.963,1.656c-.18.543-.032,1.156-.325,1.617a3.368,3.368,0,0,1-.746.477,12.909,12.909,0,0,0-2.338,1.483A6.346,6.346,0,0,0,.81,94.964c-.446,1.827-1.07,4.259-.7,5.888.2.072.332.264.534.4.62.423,1.527.605,2.1,1.022,1.5.406,3.016.906,4.647,1.411,1.606.5,3.414.69,5.194,1.076a65.905,65.905,0,0,0,22.717.306c3.593-.546,7.217-.791,9.927-2.332a4.662,4.662,0,0,0,2.293-1.728c.135-.6.032-1.2.18-1.72a19.607,19.607,0,0,1-.64-2.764c-.028-.29.047-.564.015-.836" transform="translate(0 -84)" fill="#7db1c7"/>
    <path id="Union_13" data-name="Union 13" d="M31.751,19.834l.1,0a9.2,9.2,0,0,1-2.514.3C30.086,19.979,31,19.995,31.751,19.834Zm-13.276.244a10.91,10.91,0,0,0-1.139-.056,13.392,13.392,0,0,1,2.556.093,3.911,3.911,0,0,1-.426.021C19.148,20.136,18.815,20.107,18.475,20.078Zm8.213-.481a2.764,2.764,0,0,0,.45-.034c.357-.044.73-.09.826.155.23.037.22-.173.349-.239a5.157,5.157,0,0,0,1.054-.044,3.037,3.037,0,0,1,1.357.038,3.163,3.163,0,0,1,1.429-.22c-.082.356-.561.3-.841.328-1.555.18-3.195.306-4.828.406C26.52,19.823,26.642,19.748,26.689,19.6Zm-1.58.365c.152-.346.438-.329.76-.313a1.488,1.488,0,0,0,.624-.057c-.034.183-.177.252-.254.391C25.862,19.976,25.485,19.97,25.109,19.963Zm-8.268,0a1.082,1.082,0,0,0-.24,0c.063-.07.206-.056.348-.044a1.106,1.106,0,0,0,.242.006.249.249,0,0,1-.183.052C16.955,19.974,16.9,19.968,16.841,19.963Zm7.5-.014a1.945,1.945,0,0,0-.269-.005c.03-.318.451-.234.79-.232.01.206-.138.247-.325.247C24.478,19.958,24.412,19.954,24.345,19.949Zm-1.051-.019a1.874,1.874,0,0,0-.3-.005c-.012-.278.265-.258.54-.238a1.885,1.885,0,0,0,.3.007c.008.2-.14.246-.329.246C23.438,19.941,23.366,19.935,23.294,19.93Zm-1.337-.024a2.043,2.043,0,0,0-.538-.01c.044-.308.421-.271.8-.233a2.113,2.113,0,0,0,.536.011c-.029.206-.208.257-.436.257C22.2,19.931,22.081,19.919,21.957,19.907ZM16.044,19.9a1.392,1.392,0,0,0-.279-.005.635.635,0,0,1,.408-.043,1.487,1.487,0,0,0,.281.006.35.35,0,0,1-.218.052C16.175,19.91,16.109,19.9,16.044,19.9Zm4.493-.019c-.547,0-1.125-.029-1.622-.078.269-.345.858-.272,1.449-.2a4.089,4.089,0,0,0,.964.046c-.005.209-.171.253-.371.253C20.819,19.9,20.665,19.881,20.536,19.88ZM35.25,19.4c1.981-.55,4.136-.92,6.172-1.414-.038.151.083.147.044.3a8.416,8.416,0,0,1-2.223.551,66.173,66.173,0,0,1-7.1,1.054A13.6,13.6,0,0,1,35.25,19.4Zm-17.22.334c-1.543-.059-3.354-.161-4.913-.284.041-.146.213-.412.3-.341a18.746,18.746,0,0,0,2.014.186c.019.125.346-.044.242.2a8.751,8.751,0,0,1,3,.1.2.2,0,0,1-.227.207C18.3,19.809,18.13,19.741,18.03,19.738Zm14.959-.422a8.4,8.4,0,0,1,2.416-.4,21.138,21.138,0,0,1-2.909.491C32.468,19.194,32.923,19.122,32.989,19.316ZM7.97,18.477c.126-.308,1.015-.129,1.129.168,1.193-.07,2.576.337,4.026.416-.033.135-.128.2-.155.341C11.064,19.325,9.7,18.719,7.97,18.477Zm21.845-.4a2.032,2.032,0,0,1-.456.73,3.108,3.108,0,0,0-.639.037C28.948,18.449,29.06,17.931,29.814,18.078Zm-1.933.753c.226-.3.261-.8.849-.722-.135.259-.315.474-.456.728Zm-.639-.011c.174-.287.17-.757.7-.676a5.863,5.863,0,0,0-.258.684Zm-.736-.013a4.707,4.707,0,0,0,.306-.634.554.554,0,0,1,.168,0c.1.012.2.023.227-.044.126.247-.245.411-.258.683Zm-.738-.014c.222-.253.2-.76.8-.625a4.557,4.557,0,0,0-.307.634C26.1,18.8,25.933,18.8,25.768,18.794Zm-.983-.017c.2-.346.3-.787,1-.623a5.728,5.728,0,0,0-.356.635Zm-1.033-.019c.131-.414.327-.762,1-.621a3.36,3.36,0,0,0-.355.632Zm6,.009c.24-.287.237-.824.85-.723-.075.258-.229.431-.308.684a.733.733,0,0,0-.315.014.936.936,0,0,1-.2.026Zm-6.835-.024c.255-.2.206-.722.748-.627a6.8,6.8,0,0,1-.355.634Zm-.69-.013c.18-.371.258-.8.847-.623a4.756,4.756,0,0,0-.306.633Zm-.785-.015c.219-.274.212-.778.8-.674-.078.271-.272.421-.357.683C21.737,18.723,21.588,18.72,21.442,18.716Zm-.985-.016c.256-.3.306-.819,1-.671a4.962,4.962,0,0,1-.405.681Zm10.083-.018c.132-.229.273-.451.406-.68a1.744,1.744,0,0,0,.492-.041c-.063.268-.245.414-.307.683a.73.73,0,0,0-.3.019.863.863,0,0,1-.2.027A.65.65,0,0,1,30.541,18.681Zm-10.918-.046a.784.784,0,0,1,.848-.625c-.039.261-.2.394-.257.636Zm-.787-.015c.072-.126.257-.134.4-.19,0,.159-.115.2-.268.2C18.924,18.627,18.881,18.625,18.836,18.621ZM31.379,18.6c.262-.263.345-.541.8-.676-.175.278-.219.688-.659.688A.876.876,0,0,1,31.379,18.6ZM18,18.556a.477.477,0,0,1,.351-.387c-.1.146-.1.388-.331.388Zm14.214-.041c.229-.232.174-.756.749-.627-.18.238-.206.638-.618.638A.791.791,0,0,1,32.216,18.516Zm-14.544-.7c.022.359-.462.625-.9.674C16.858,18.038,17.352,18.018,17.672,17.813Zm15.432.619c.138-.257.147-.648.6-.579-.131.252-.189.581-.563.581ZM6.99,18.263c.092-.148.278-.108.47-.068a1.017,1.017,0,0,0,.318.033.186.186,0,0,1-.206.179A5.1,5.1,0,0,1,6.99,18.263Zm27.157-.452a1.018,1.018,0,0,0,.359-.015,1.091,1.091,0,0,1,.281-.023c-.064.466-.522.526-.994.572A3.5,3.5,0,0,1,34.147,17.812Zm7.623.087a21.974,21.974,0,0,0,3.218-1.123,5.5,5.5,0,0,1-3.127,1.518C41.8,18.2,41.819,18.012,41.77,17.9Zm-22.183,0c-.089.275-.426.292-.695.381C18.994,17.925,19.143,17.805,19.587,17.9Zm-2.7-.344c.13.341-.574.67-1.046.72C16,17.833,16.491,17.743,16.888,17.553Zm-1.782.706c.073-.143.293-.13.445-.19,0,.165-.123.2-.279.2C15.219,18.266,15.163,18.263,15.106,18.26Zm-8.752-.108c.015-.146.546-.163.49.058a.772.772,0,0,1-.093.006A3.228,3.228,0,0,1,6.354,18.152Zm29.812-.5a2.78,2.78,0,0,1-.253.437,8.529,8.529,0,0,0-.987.082C35.06,17.707,35.587,17.651,36.166,17.651Zm-22.14.442c.241-.185.636-.209.892-.378.181.216-.29.416-.656.416A.65.65,0,0,1,14.026,18.093Zm-8-.016a.322.322,0,0,0-.164-.031c.04-.182.277-.023.393.008a.107.107,0,0,1-.1.056A.412.412,0,0,1,6.027,18.077ZM36.6,18a.687.687,0,0,1,.746-.53c-.174.211-.229.543-.606.543A.8.8,0,0,1,36.6,18Zm1.931-.7a1.106,1.106,0,0,1-1.045.67C37.492,17.588,37.958,17.253,38.534,17.3Zm-24.7.347c.1.156-.29.232-.449.287C13.434,17.73,13.717,17.772,13.837,17.647Zm-.982-.115c-.1.266-.375.346-.7.38A1.048,1.048,0,0,1,12.855,17.532Zm3.2-.239c.159.241-.436.545-.8.578C15.347,17.492,15.771,17.463,16.057,17.292Zm-3.834-.166c.126.335-.576.666-1.093.669C11.363,17.435,11.895,17.386,12.223,17.126Zm26.4.618a1.185,1.185,0,0,1,1.095-.718c.117.341-.544.718-1.085.718Zm-27.53-.687c.152.266-.454.591-.848.624C10.334,17.271,10.806,17.259,11.094,17.057Zm4.278.026c.13.258-.726.344-.993.523C14.385,17.3,15.082,17.268,15.372,17.084ZM13.6,17.2a.585.585,0,0,1-.35.337C13.147,17.4,13.418,17.214,13.6,17.2Zm13.667.292c.643-1.351,1.4-2.585,2.087-3.9l.54.008q-1.1,1.919-2.184,3.848a.407.407,0,0,0-.209.023.467.467,0,0,1-.147.028A.426.426,0,0,1,27.266,17.493Zm-.687-.013c.707-1.319,1.465-2.586,2.232-3.845l.3,0c-.563.979-1.14,2.02-1.728,3.068-.149.266-.278.784-.691.784A.561.561,0,0,1,26.579,17.48Zm-.934-.017c.764-1.31,1.56-2.59,2.427-3.792.116,0,.23,0,.346.006q-1.118,1.9-2.232,3.8Zm15.211-.712c.2.384-.492.688-.949.722A1.2,1.2,0,0,1,40.856,16.751Zm-32.08.708c.029-.255.316-.24.449-.385.231.044-.147.219-.106.391C9,17.461,8.889,17.461,8.775,17.459Zm19.738-.879c.521-.937,1.131-2,1.626-2.971l.149,0c.025.315-.247.644-.412.977-.34.692-.67,1.358-1.07,2.046-.17.3-.312.78-.7.824C28.073,17.141,28.349,16.875,28.513,16.58Zm.231.84c1.142-1.922,2.3-3.822,3.447-5.742.426,0,1.17-.069.589.01a.856.856,0,0,1-.394.043c.032.07.144.063.256.054a.655.655,0,0,1,.186,0,11.527,11.527,0,0,0-.757,1.116c.579-.084.622-.724.905-1.115a2.763,2.763,0,0,1,.727-.041,3,3,0,0,0,.7-.033c-.2.357-.463.656-.658,1.022.572-.093.425-.927,1-1.015.122.2-.316.668-.413.977a.363.363,0,0,0,.5-.09c-.2-.378.114-.587.212-.93.537-.014,1.09-.009,1.643-.005.745.005,1.489.011,2.194-.025-.248.593-.7.979-.963,1.557.468,0,.577-.54.754-.824a3.6,3.6,0,0,0,.559-.972c-.121-.1-.161-.016-.215.072-.04.066-.088.132-.183.118a30.773,30.773,0,0,0-5.214.055c-.209,0-.24.052-.393-.007-.115-.044,1.134-.245.2-.045,1.07-.229,1.641-.223,2.809-.393,2.5-.363,6.452-.852,7.663-2.127.079-.013.082.048.145.053a17.587,17.587,0,0,1,1.821,5.441c-.088-.058-.033-.256-.092-.346-.6-.486-.8-1.358-1.592-1.65-.034-.2.16-.167.1-.393-.1-.074-.144,0-.207.083a.222.222,0,0,1-.239.107,3.2,3.2,0,0,0-1.613-.619c.229.23.67.256.978.411a16.084,16.084,0,0,0-1.415,2.041,2.054,2.054,0,0,1-.636-.111c.279-.644.8-1.042,1.014-1.752-.63.381-.867,1.173-1.358,1.7a.584.584,0,0,1-.219-.033.56.56,0,0,0-.272-.025c.32-.7.835-1.2,1.165-1.9-.365.041-.566.5-.8.821s-.482.686-.707.973a.911.911,0,0,1-.307-.032.833.833,0,0,0-.331-.029c0-.309.4-.44.308-.684-.259-.073-.453.322-.5.63a27.4,27.4,0,0,0-5.8-.348c-.649.96-1.252,2.033-1.874,3.113-.166.287-.3.9-.8.822.731-1.345,1.567-2.583,2.235-3.992-.348-.03-.564.553-.754.871-.6,1.011-1.24,2.182-1.876,3.164l-.638-.011c.826-1.331,1.682-2.63,2.433-4.039-.492-.036-.6.552-.8.871-.648,1.019-1.454,2.146-2.072,3.209Zm11.617-6.039c-.234.293-.553.616-.8.969-.238.335-.616.745-.511,1.122a19.71,19.71,0,0,0,1.413-2.04.067.067,0,0,0-.075-.052ZM36.79,12.989a1.233,1.233,0,0,0,.711-1.216C37.28,12.193,36.983,12.538,36.79,12.989Zm-.227-1.037c-.153.341-.452.534-.556.925.476-.037.5-.547.7-.871-.056,0-.065-.055-.128-.055ZM33.614,11.8c-.112.365-.556.656-.51,1.023.341-.2.44-.647.657-.972-.057,0-.066-.053-.126-.053Zm1.7,1.013c.209.033.345-.011.3-.24a.335.335,0,0,0-.052,0C35.406,12.571,35.382,12.713,35.318,12.816ZM10.661,16.508c-.191.537-.8.639-1.245.912C9.48,16.953,10.134,16.663,10.661,16.508Zm13.952.888c.7-1.228,1.52-2.33,2.227-3.549.237-.039.468-.082.692-.137-.582,1.235-1.611,2.439-2.33,3.7Zm6.739-.027c.581-1.3,1.378-2.377,1.982-3.653l.443.007c-.64,1.24-1.322,2.435-1.982,3.653Zm1.574-.021c.6-1.166,1.3-2.229,1.928-3.359-.4-.1-.589.417-.75.676-.374.6-.736,1.216-1.114,1.849-.178.3-.268.761-.655.824-.044-.225.2-.518.359-.831.445-.861.99-1.857,1.426-2.778A29.34,29.34,0,0,1,38.4,14c-.564,1.085-1.273,2.02-1.874,3.065a4.329,4.329,0,0,1-.887.083c.673-1.04,1.4-2.026,2.022-3.113-.438-.073-.579.419-.749.676-.552.834-1.146,1.7-1.717,2.527a1.153,1.153,0,0,0-.358.019,1.143,1.143,0,0,1-.381.016c.646-1.1,1.353-2.137,1.928-3.309-.392-.006-.585.458-.751.725-.371.6-.729,1.212-1.115,1.848-.17.281-.274.774-.7.774-.061-.264.214-.522.359-.78.459-.81.952-1.773,1.422-2.581-.441-.076-.638.45-.8.724-.372.638-.729,1.268-1.116,1.947-.14.247-.251.739-.633.739A.52.52,0,0,1,32.926,17.347ZM17.29,17.118c-.068.264-.426.226-.742.233C16.64,17.033,16.966,16.961,17.29,17.118Zm6.587.216c.659-1.2,1.484-2.234,2.224-3.354a.131.131,0,0,0,.137-.019.124.124,0,0,1,.109-.025c.038.256-.3.57-.506.876-.4.587-.8,1.218-1.214,1.847-.161.247-.307.692-.637.692A.421.421,0,0,1,23.876,17.334Zm-6.037-.01a.976.976,0,0,0-.161,0c.058-.125.268-.093.446-.09-.011.08-.082.1-.17.1C17.918,17.33,17.878,17.327,17.839,17.324Zm5.3,0c.444-.765,1.059-1.634,1.669-2.479.26-.362.443-.814.948-.819-.73,1.1-1.524,2.127-2.173,3.3Zm-.785-.014c.627-1.053,1.366-1.99,2.02-3.014.14-.038.3-.052.443-.091.068.18-.21.511-.408.781-.531.727-1.159,1.612-1.713,2.329Zm-8.009-.44c.074.18-.261.364-.451.436C13.775,17.078,14.188,16.977,14.343,16.868Zm-5.4-.391c.069.312-.564.746-1.047.817C8.03,16.8,8.506,16.663,8.939,16.477Zm12.528.765c.617-.93,1.242-1.85,1.918-2.721.2.03.276-.08.444-.09.014.2-.2.468-.358.682a21.331,21.331,0,0,0-1.464,2.138ZM7.354,17.188a.476.476,0,0,1,.3-.142c-.017.1-.135.093-.151.193A.221.221,0,0,0,7.354,17.188Zm6.06-.581c.044.332-.447.539-.8.625C12.748,16.885,13.095,16.761,13.414,16.607Zm7.17.57c.346-.627.8-1.14,1.162-1.75a6.746,6.746,0,0,1-.46,1.025c-.151.286-.287.738-.606.738A.384.384,0,0,1,20.584,17.177Zm-.821-.064h-.112c.075-.172.38-.107.5-.238.133.075-.082.21-.1.291C19.99,17.109,19.876,17.111,19.763,17.113Zm-3.155-.45c-.1.312-.505.309-.794.428C15.928,16.791,16.3,16.756,16.608,16.663Zm2.355.387c.124-.124.141-.355.4-.337-.126.1-.117.342-.341.342A.382.382,0,0,1,18.963,17.05Zm20.07-2.939a5.724,5.724,0,0,0,.687.112c-.619.942-1.3,1.82-1.967,2.719a.407.407,0,0,1-.241.038c-.1,0-.206,0-.253.052A19.577,19.577,0,0,1,39.033,14.111ZM7.368,16.4c.113.193-.379.6-.749.627A1.645,1.645,0,0,1,7.368,16.4Zm34.129.215c.031-.084.233.008.248-.093a.5.5,0,0,1,.091.394c-.031.069-.189,0-.2.1C41.515,16.954,41.5,16.791,41.5,16.615Zm-25.52-.355c.024.476-.826.478-1.193.716C14.8,16.543,15.6,16.488,15.977,16.259Zm1.906.672c.109-.353.454-.463.8-.576.075.146-.226.592-.656.592A.635.635,0,0,1,17.883,16.931Zm22.18-2.653c.114.067.339.026.441.106a22.979,22.979,0,0,1-1.617,2.43c-.206.054-.464.054-.69.086C38.819,16.027,39.458,15.17,40.063,14.278ZM5.343,16.856c.064-.233.3-.283.547-.335-.049.133-.154.207-.2.341Zm15.965-1.683c-.5.54-.59,1.493-1.456,1.645C20.308,16.24,20.442,15.326,21.308,15.173Zm-7,1.105c-.184.192-.259.5-.6.531C13.825,16.55,13.946,16.292,14.3,16.278Zm27.928.5c0-.146.131-.164.152-.292a.213.213,0,0,1,.094.2c-.088.019-.121.1-.227.1ZM12.779,16.4c.081.136-.21.315-.4.336C12.454,16.563,12.661,16.528,12.779,16.4Zm26.6.326c.367-.655.842-1.2,1.212-1.848a5.827,5.827,0,0,1,.235.645c-.315.569-.566,1.2-1.431,1.2ZM9.929,16.15c-.046.318-.346.376-.55.531C9.346,16.48,9.647,16.192,9.929,16.15ZM18,16.1c.034.355-.578.47-.945.575C17.173,16.28,17.682,16.29,18,16.1ZM4.964,16.062a.716.716,0,0,1-.453.581A.8.8,0,0,1,4.964,16.062Zm6.934-.024c.061.262-.346.473-.6.579C11.3,16.42,11.746,16.247,11.9,16.039Zm2.451.535c.188-.19.312-.444.55-.58.134.133-.217.581-.539.581Zm-5.941-.648c.029.283-.365.556-.7.628A1.348,1.348,0,0,1,8.408,15.926Zm34.417.614c.044-.17-.069-.19-.043-.346.057.01.088-.009.1-.047.122.044.235.4.006.4A.3.3,0,0,1,42.825,16.54Zm-22.907-.606c-.178.218-.245.548-.6.58C19.5,16.306,19.558,15.963,19.918,15.935Zm2.627-1.182a.254.254,0,0,0,.184-.019.243.243,0,0,1,.161-.024c-.4.539-.991,1.407-1.261,1.748A18.364,18.364,0,0,1,22.545,14.753Zm18.069,1.7c.1-.148.2-.291.3-.437a.436.436,0,0,1,.092.346c-.145,0-.209.093-.359.093Zm-23.5-.617c.2.284-.487.491-.8.577C16.382,16.011,16.855,16.032,17.116,15.836Zm-3.3.139c.234.189-.409.3-.549.433C13.159,16.158,13.666,16.12,13.817,15.974Zm29.854.09c.086.014.111.087.094.2-.07,0-.139-.01-.149.047C43.457,16.232,43.721,16.191,43.671,16.064Zm-33.05-.146c-.139.139-.19.369-.449.384A.557.557,0,0,1,10.622,15.918Zm-7.234.336a.154.154,0,0,0-.1-.025c.03-.2.315-.141.4-.287.1.09-.109.283-.2.339H3.476A.163.163,0,0,1,3.388,16.254Zm13.245-.919c.168.106-.268.412-.355.586-.38.071-.656.254-1.038.325C15.447,15.676,16.1,15.568,16.632,15.335Zm-3.4.236c.038.229-.644.561-1.044.669C12.317,15.787,12.877,15.784,13.234,15.571Zm5.948.2c-.1.309-.5.321-.8.429A.757.757,0,0,1,19.182,15.774ZM9.5,15.553c-.073.143-.258.165-.2.439a1.281,1.281,0,0,0-.545.188A.858.858,0,0,1,9.5,15.553Zm31.977-.365a.876.876,0,0,1-.067.982A.731.731,0,0,1,41.474,15.188Zm2,.725c.161.077-.105.119-.054.244C43.228,16.1,43.394,15.963,43.476,15.913Zm.637.158a1.08,1.08,0,0,1-.09-.443c.271-.249.362.136.385.4a.25.25,0,0,0-.114.026.26.26,0,0,1-.109.027A.288.288,0,0,1,44.113,16.071Zm-2.065-.036c-.088-.248.045-.373.157-.538.09.122.083.337.14.494a.247.247,0,0,0-.116.026.268.268,0,0,1-.11.027A.29.29,0,0,1,42.048,16.034ZM6.7,15.454a1.231,1.231,0,0,1-.747.576C5.94,15.771,6.321,15.485,6.7,15.454Zm8.062.193c-.041.223-.3.226-.448.336C14.224,15.826,14.548,15.663,14.758,15.647Zm-9.932-.129c-.082.25-.369.287-.55.433C4.231,15.769,4.539,15.524,4.826,15.518Zm13.724-.1c-.129.367-.614.365-.945.525C17.7,15.537,18.165,15.523,18.549,15.419Zm1.621.078c.141.149-.19.234-.3.289C19.724,15.63,20.086,15.577,20.171,15.5Zm24.456-.7a2.573,2.573,0,0,1,.229.939C44.7,15.532,44.443,15.037,44.627,14.8Zm-32.371.554a1.4,1.4,0,0,1-.6.383C11.738,15.488,11.994,15.419,12.256,15.356Zm30.929.3c-.037-.322.192-.368.257-.585a1.045,1.045,0,0,1,.137.544.372.372,0,0,0-.161.041.375.375,0,0,1-.138.042A.13.13,0,0,1,43.185,15.661ZM17.82,14.914c.108.317-.539.707-1,.77A1.435,1.435,0,0,1,17.82,14.914ZM1.772,15.66c.054-.384.385-.667.609-.971.662-.91,1.389-1.887,2.066-2.817-.688.321-1.131,1.112-1.655,1.79-.247.319-.564.638-.8.97-.209.289-.366.9-.85.77.589-1.209,1.474-2.108,2.123-3.256a6.032,6.032,0,0,0-1.256,1.5A8.313,8.313,0,0,1,.748,15.2a37.809,37.809,0,0,1,2.228-3.5,1.641,1.641,0,0,0,.543-.139,4.692,4.692,0,0,0-2.275.648,22.744,22.744,0,0,1,1.29-3.369,48.7,48.7,0,0,0,7.394,1.9,21.708,21.708,0,0,0-5.224.6,20.318,20.318,0,0,0,2.609-.15c-.391.481-1.917.216-2.712.442.06.073.2.064.348.056a1.1,1.1,0,0,1,.24,0c.092.066-.169.335-.3.487-.706.793-1.489,1.709-2.16,2.617-.228.309-.412.878-.846.878A.547.547,0,0,1,1.772,15.66Zm13.678-.3c0,.18-.174.185-.249.291C15.094,15.556,15.32,15.38,15.451,15.363Zm27.16-.5a.948.948,0,0,1,.085.79C42.56,15.473,42.425,15.069,42.61,14.864ZM14.372,15.3c-.016.268-.354.2-.5.335C13.853,15.524,14.179,15.351,14.372,15.3Zm-7.334.312a.7.7,0,0,1,.55-.482c.141.111-.259.482-.545.482ZM5.57,15.188c.137.13-.166.226-.251.29C5.2,15.368,5.5,15.264,5.57,15.188Zm14.67-.822c-.322.467-.554,1.028-1.25,1.109C19.23,15.123,19.422,14.289,20.24,14.367Zm24.741-.05c.063.064.182.068.2-.046a1.624,1.624,0,0,1,.178,1.183A5.613,5.613,0,0,1,44.981,14.317Zm-40.69.8c.067.123-.282.241-.447.287C3.926,15.236,4.185,15.254,4.291,15.115Zm7.58-.307c0,.274-.445.507-.8.578C11.319,15.169,11.637,15.033,11.871,14.807Zm31.825-.12a13.155,13.155,0,0,0,1.009-1.458c.174.153.143.5.33.744a1.7,1.7,0,0,0-.553.729c-.17-.063-.184-.123-.344-.007.078.316.01.6-.259.685A4.168,4.168,0,0,0,43.7,14.688Zm-26.561.067c-.2.411-.845.359-1.191.618C15.976,14.99,16.693,14.879,17.135,14.755Zm24.89-.146a.589.589,0,0,1-.112.734C41.809,15.1,41.574,14.618,42.024,14.609ZM8.476,14.9c.046.35-.282.308-.451.434A.478.478,0,0,1,8.476,14.9Zm5.511-.149c-.1.38-.606.34-.894.526C13.162,15.06,13.636,14.835,13.987,14.747Zm5.267-.249c-.148.265-.391.43-.5.729-.134-.186-.446-.055-.591.038A.948.948,0,0,1,19.254,14.5ZM40.9,14.441a1.657,1.657,0,0,1,.49.105c.05.354-.18.415-.258.638A1.522,1.522,0,0,1,40.9,14.441Zm1.959.378c.024-.069.124-.057.226-.046a.534.534,0,0,0,.169,0c-.044.155-.1.3-.251.341A.5.5,0,0,0,42.856,14.819Zm-21.728-.534a1.868,1.868,0,0,1-.852.822C20.356,14.821,20.519,14.19,21.128,14.285Zm-11.661.283a.662.662,0,0,1-.648.481A1.227,1.227,0,0,1,9.466,14.568Zm-4.084.076c.11.165-.273.249-.4.336C4.873,14.815,5.257,14.731,5.383,14.644Zm1.868-.016c.1.22-.364.289-.6.334C6.734,14.726,7.074,14.762,7.251,14.628Zm7.724-.109c-.138.172-.414.2-.645.284C14.428,14.586,14.709,14.559,14.975,14.519Zm27.887.005c.361-.645.8-1.2,1.164-1.848.2.1.353.239.535.354-.355.618-.841,1.1-1.211,1.7A1.75,1.75,0,0,0,42.862,14.524ZM13.753,14.1c.237-.156.691-.083.793-.378a8,8,0,0,0-2.168.306c.075-.068.215-.178.1-.295a1.776,1.776,0,0,0-.595.285c-.084-.14.23-.293.255-.486a.223.223,0,0,0-.265.087.22.22,0,0,1-.181.1c-.081-.17,0-.218-.041-.443a14.679,14.679,0,0,1,3.354-.531c-.04.141-.24.118-.348.19.444.253.926-.13,1.481-.219a4.765,4.765,0,0,1,.973-.023,6.068,6.068,0,0,0,.748,0c.336-.027.8-.285,1.032-.03a1.663,1.663,0,0,1,.84-.182c.013.08-.047.083-.051.147a5.524,5.524,0,0,1,1.232-.273c-.015.1-.134.093-.15.193.436-.031.629-.316,1.135-.275.021.155-.133.128-.151.244a.369.369,0,0,0,.435-.137.366.366,0,0,1,.406-.143c.232.02-.092.162-.055.295.368.08.4-.188.547-.334l.639.009c0,.147-.131.166-.153.294.381.093.345-.246.547-.336.212.005.427.007.639.011-.052.164-.2.226-.252.39.489-.026.447-.6,1.137-.423-.085.163-.229.261-.3.437.443.076.453-.3.648-.481a1.7,1.7,0,0,0,.542-.039c.119.208-.271.319-.3.536.257.09.365-.093.49-.278.113-.166.24-.332.5-.3a3.534,3.534,0,0,1-.4.583c.271.093.365-.1.475-.3.1-.175.209-.35.47-.322-.075.273-.288.4-.4.632.415.163.5-.453.7-.675a4.547,4.547,0,0,1,.737-.036,4.272,4.272,0,0,1-.456.73c.5.2.525-.525.751-.774l.394.008c-.119.292-.316.505-.456.777.58.051.51-.574.8-.822a2.66,2.66,0,0,0,.518-.017,2.5,2.5,0,0,1,.565-.012c-.237.521-.56.957-.813,1.46-.056,0-.122,0-.187,0-.2,0-.394,0-.352-.1a.668.668,0,0,1-.536.08.737.737,0,0,0-.5.048c-.195.06-.118-.145-.243-.151-4.546-.494-8.715.384-12.361.862a3.581,3.581,0,0,0-1.135.225c-.012-.08.048-.083.053-.147-.361-.072-.421.166-.547.336a1.282,1.282,0,0,0-.842.28C13.385,14.526,13.8,14.267,13.753,14.1Zm16.011-1.485c.366-.053.394-.459.553-.726C29.98,11.975,29.914,12.342,29.764,12.618Zm-7.8,1.582a.8.8,0,0,1-.7.48C21.456,14.475,21.486,14.105,21.965,14.2Zm-15.741.162a.411.411,0,0,1-.4.288A.5.5,0,0,1,6.223,14.363Zm1.52.273c.079-.2.319-.236.5-.336.178.091-.232.336-.475.336Zm5.12-.253c-.034.149-.268.092-.3.241C12.425,14.493,12.727,14.4,12.863,14.383ZM.234,13.715a1.073,1.073,0,0,1-.212.881C-.09,14.312.262,14.079.234,13.715Zm9.925.618c.129.091-.194.131-.2.243C9.8,14.461,10.1,14.395,10.159,14.334Zm31.92-.02c.346-.743.866-1.307,1.218-2.045a3.222,3.222,0,0,1,.537.257c-.4.65-.865,1.241-1.265,1.9A4.518,4.518,0,0,0,42.079,14.314Zm-35.513.1c.064-.1.083-.248.25-.241-.063.1-.082.241-.24.241Zm4.974-.4c-.115.18-.222.371-.5.385A.556.556,0,0,1,11.54,14.015Zm6.1.109a2.11,2.11,0,0,1-.988.229C16.847,14.141,17.305,14.2,17.637,14.124ZM1.192,12.455a7.055,7.055,0,0,1,1.537-.662c-.512.737-1.293,1.632-1.817,2.527A8.841,8.841,0,0,1,1.192,12.455Zm22.152,1.574c-.049.181-.32.135-.494.187C22.872,14.007,23.174,14.086,23.344,14.029ZM8.053,13.756a.924.924,0,0,1-.794.428C7.37,13.883,7.716,13.824,8.053,13.756Zm15.635.328c.025-.12.18-.106.334-.093a1.031,1.031,0,0,0,.209,0,.987.987,0,0,1-.465.089Zm-12.381-.713c.142.3-.539.6-.994.621A1.59,1.59,0,0,1,11.306,13.372Zm-2.361.056c.191.161-.329.417-.55.482C8.314,13.671,8.722,13.513,8.946,13.428Zm22.6-1.711.345,0c-.4.691-.876,1.3-1.266,2C30.808,13.116,31.306,12.416,31.55,11.717ZM8.507,13.174a1.2,1.2,0,0,1-.643.234A2.01,2.01,0,0,1,8.507,13.174ZM5.483,11.693a2.788,2.788,0,0,1,.723-.036c.105,0,.21.005.312.005a18.481,18.481,0,0,0-2.195,1.684C4.538,12.816,5.16,12.274,5.483,11.693ZM31,12.05c.065.018.075.089.146.1-.272.328-.356,1.086-.758,1.117C30.541,12.8,30.836,12.493,31,12.05Zm-21.507.8c-.035.231-.345.177-.5.287C8.88,12.941,9.333,12.914,9.5,12.848ZM1.462,8.229c.209.136.419.273.632.405A11.861,11.861,0,0,0,.548,12.64a2.076,2.076,0,0,0-.353.485A10.155,10.155,0,0,1,1.462,8.229ZM6.793,12.8c-.042.19-.277.18-.447.238A.785.785,0,0,1,6.793,12.8Zm5.9-.19a.582.582,0,0,1-.5.287A.434.434,0,0,1,12.7,12.61Zm-2.311-.043a.508.508,0,0,1-.5.287C9.927,12.627,10.164,12.6,10.387,12.567ZM7.635,12.42c.087.159-.242.316-.4.387C7.094,12.593,7.521,12.538,7.635,12.42Zm-.877-.457c-.054.277-.584.5-.849.722C5.96,12.405,6.524,12.219,6.758,11.963Zm7.226.178c-.091.257-.695.413-1.091.522C12.945,12.366,13.691,12.354,13.984,12.141Zm-5.409-.048c-.159.22-.3.454-.647.482C8.079,12.348,8.225,12.116,8.575,12.093Zm1.334-.319c-.393.2-.586.544-1.24.567A1.1,1.1,0,0,1,9.909,11.774Zm6.342.161c-.074.355-.579.267-.94.327A1.289,1.289,0,0,1,16.251,11.935Zm-1.378-.024a1.208,1.208,0,0,1-.445.188A.39.39,0,0,1,14.873,11.912Zm-4.077-.27c.124-.278.522-.27.92-.262a4.062,4.062,0,0,0,.462-.009,3.11,3.11,0,0,1-1.334.271Zm-.493-.049a1.143,1.143,0,0,0-.242-.014c.1-.15.361-.126.592-.138-.035.134-.1.168-.194.168A1.15,1.15,0,0,1,10.3,11.593Zm4.039-.133c0-.069.085-.059.166-.048a.346.346,0,0,0,.129,0c0,.072-.067.1-.137.1A.231.231,0,0,1,14.342,11.459Zm-1.034.03c.041-.17.26-.154.478-.14a1.832,1.832,0,0,0,.261.005,1.33,1.33,0,0,1-.573.153A.7.7,0,0,1,13.308,11.489ZM8.193,11.4c.067-.122-.191-.158-.045-.2a.78.78,0,0,1,.427-.043,1.992,1.992,0,0,0,.263.005.506.506,0,0,1-.506.241Q8.266,11.4,8.193,11.4Zm.79-.133a1.361,1.361,0,0,1,.837-.129c.117,0,.235.006.346,0A2.508,2.508,0,0,1,9.3,11.3,1.21,1.21,0,0,1,8.983,11.264Zm13.627-.2c-1.6-.1-3.614-.446-5.3-.488A16.773,16.773,0,0,1,18.473,8.63c2.1.017,4.394-.022,6.588.118.343.022.72.017,1.1.013a5.818,5.818,0,0,1,2.044.191c.12-.156.4-.149.676-.142a1.7,1.7,0,0,0,.509-.034c.055.7.093,1.424.109,2.166-1.862.04-3.667.14-5.512.2-.23-.024.138-.154.056-.343-.257.006-.336.281-.547.334a.777.777,0,0,1-.192.022C23.085,11.151,22.851,11.081,22.609,11.065Zm7.175-2.332A30.932,30.932,0,0,0,38.7,7.811a.219.219,0,0,1,.1,0c.988.394,1.735,1.2,2.727,1.524a15.928,15.928,0,0,1-4.542.952,40.393,40.393,0,0,1-6.061.628c-.264-.662-.536-1.319-.851-1.933a4.3,4.3,0,0,0,.458,1.876.5.5,0,0,1-.325.047.537.537,0,0,0-.316.041A17.33,17.33,0,0,1,29.785,8.733ZM14.352,10.819c.093-.118.385-.073.453-.028.036.024.01.048-.14.048C14.592,10.838,14.491,10.833,14.352,10.819Zm-.49-.156.2,0a.115.115,0,0,1-.12.148C13.878,10.815,13.824,10.77,13.863,10.663Zm-1.133.078a55.829,55.829,0,0,1-7.106-1.4c0-.033,0-.066,0-.1-.012-.088.049-.1.052-.048a54.157,54.157,0,0,0,8.04,1.422.672.672,0,0,1-.523.162C13.024,10.774,12.852,10.752,12.73,10.741Zm3.25-.238A12.912,12.912,0,0,1,17.1,8.557a5.581,5.581,0,0,1,.983.066,14.839,14.839,0,0,0-1.067,1.9C16.67,10.517,16.326,10.511,15.98,10.5Zm-1.374-.121A12.951,12.951,0,0,1,15.92,8.438a4.806,4.806,0,0,1,.836.063c-.365.674-.783,1.293-1.118,2C15.277,10.476,14.985,10.387,14.606,10.383Zm-9.07-1.64c-.05-.3-.029-.678-.08-.984a9.011,9.011,0,0,1,3.306-.63,21.152,21.152,0,0,1,3.283.7c1.164.216,2.274.365,3.384.55.064.111-.106.3-.206.44a8.647,8.647,0,0,0-.96,1.507A79.035,79.035,0,0,1,5.536,8.743Zm-.3.389h.059c.065,0,.131,0,.137.054.021.074-.032.108-.091.108C5.261,9.294,5.172,9.235,5.234,9.132ZM39.146,7.77C40.2,6.946,41.22,8.687,42.124,9c-.043.122-.175.153-.25.242C40.885,8.83,40.072,8.245,39.146,7.77ZM2.788,8.4c0-.046.062-.036.1-.046.648.324,1.458.493,2.1.823A7.672,7.672,0,0,1,2.788,8.4ZM41.45,8.155c-.4-.279-.825-.533-1.216-.759-.016-.2.211-.148.251-.291a23.4,23.4,0,0,0,2.183,1.661.572.572,0,0,1-.189.033C42.086,8.8,41.769,8.377,41.45,8.155Zm-36.534-.6c.159-.037.251-.141.446-.141-.093.088,0,.365-.154.392.186-.011.054.6.083.887C4.925,8.545,4.987,7.985,4.917,7.553Zm-.4.729c.04-.042.135-.026.149-.1.228-.057.075.251.191.3a.17.17,0,0,1-.124.055A.231.231,0,0,1,4.512,8.282ZM40.878,7.162c.44-.405.873.291,1.269.612.365.3.806.417.871.754A15.637,15.637,0,0,1,40.878,7.162ZM4.025,7.931a.138.138,0,0,0,.11-.026.134.134,0,0,1,.139-.019c.044.2.076.375-.107.441C4.042,8.268,4.028,8.106,4.025,7.931Zm37.5-1.054c.023-.042.044-.087.1-.1a3.32,3.32,0,0,1,1.4,1.4A10.359,10.359,0,0,0,41.523,6.877Zm-37.1.914c.1-.027.144-.12.3-.093.026.072-.062.252.045.247a.35.35,0,0,1-.3.191C4.492,7.98,4.38,7.96,4.421,7.791Zm-2.458,0a1.682,1.682,0,0,0,.486.3.186.186,0,0,1-.094.024A.473.473,0,0,1,1.963,7.8Zm24.488.24a25.864,25.864,0,0,1-.394-2.712c.164,0,.327,0,.492.009A16.185,16.185,0,0,0,26.994,8a.612.612,0,0,0-.287.017.745.745,0,0,1-.184.027A.569.569,0,0,1,26.451,8.036Zm-.624-.012a1.2,1.2,0,0,0-.259-.005,9.121,9.121,0,0,0-.5-2.419,8.462,8.462,0,0,0,.251,2.415,5.27,5.27,0,0,1-.884-.065,4.75,4.75,0,0,1-.312-1.727c-.468.331-.075,1.309.018,1.721q-.861-.014-1.721-.031c-.271-.075.149-.179.1-.342-.347.114-.732.436-1.233.224-.2-.065.222-.285.3-.387-.2-.157-.365,0-.542.151s-.349.291-.594.173c-.221-.048.188-.214.154-.392-.507.185-.654.476-1.431.319.154-.356.559-.454.655-.873-.6.048-.672.9-1.292.764-.149-.229.594-.378.6-.776-.295-.067-.46.141-.634.348-.193.232-.4.463-.8.316.242-.333.667-.477.851-.871-.31-.13-.52.12-.742.369-.207.231-.425.462-.746.391.371-.415.966-.6,1.2-1.158-.673.02-1.085,1.011-1.739,1.05-.063-.174.409-.479.651-.677.28-.232.626-.433.7-.774-.521.014-.777.445-1.094.717s-.614.629-1.045.621c.714-.579,1.429-1.155,2.1-1.783A11.853,11.853,0,0,0,15.3,7.049a.416.416,0,0,0-.293-.054c.963-.782,2.16-1.438,3.088-2.109a4.611,4.611,0,0,0-1.888,1c-.277.184-.572.419-.846.624-.253.189-.54.522-.942.377.862-.71,1.781-1.361,2.692-2.02a3.006,3.006,0,0,0-1.687.906c-.456.366-.839.758-1.2,1.061a.88.88,0,0,1-.33-.03.872.872,0,0,0-.308-.032,21.152,21.152,0,0,1,2.789-1.918c-.7-.149-1.308.458-1.834.853a4.806,4.806,0,0,1-1.347.96,5.2,5.2,0,0,1,1.151-1.013,10.515,10.515,0,0,1,1.343-.862c-.712-.161-1.3.493-1.836.9-.22.17-.455.365-.649.53s-.391.436-.691.233A10.836,10.836,0,0,1,15,4.733c-.746-.287-1.616.763-2.183,1.092.114-.6,1-.833,1.5-1.2-.534-.187-.884.255-1.188.471-.11-.216.161-.465.209-.685a.628.628,0,0,0-.642.185c-.094-.006.042-.181.053-.244-.394-.255-.674.154-.794.478.116.166.258-.063.3-.143.073.294-.331.524-.456.778.1.334-.072.515-.161.784a1.841,1.841,0,0,1-.342-.1c.259-.683.595-1.287.823-2-.448.033-.472.6-.609.923-.151.365-.354.693-.461,1.025a4.615,4.615,0,0,1-.49-.107,18.415,18.415,0,0,0,.97-1.95c-.568.429-.73,1.28-1.116,1.9-.151.034-.179-.054-.295-.054.279-.68.668-1.245.921-1.952-.377.112-.523.548-.7.874a2.852,2.852,0,0,1-.608.972c.261-.61.856-1.364.726-2.052.038-.142.244-.113.3-.241,4.975,1.169,11.706,1.239,17.737.956,3.462-.163,7.094-.43,9.667-1.549-.03.352-.412.331-.647.48-.1.061-.145.222-.252.291a9.213,9.213,0,0,1-1.829.558,3.162,3.162,0,0,1-.342-.056c-.073.011-.022.147-.1.146-1.8.223-3.544.5-5.471.591-.21-.039-.083-.4-.287-.448-.165.046-.048.385-.157.489-.408.1-.374-.218-.534-.354-.177,0-.161.2-.154.391-2.215-.006-3.974.248-6.2.284,1.1.134,2.41.058,3.589.112a13.87,13.87,0,0,0,.446,2.616.3.3,0,0,1-.2.052C25.95,8.035,25.889,8.029,25.827,8.024ZM20.383,6.353a1.632,1.632,0,0,0,1.151-1.061C20.987,5.477,20.742,5.974,20.383,6.353Zm-.735-.111a1.31,1.31,0,0,0,1.1-1.014C20.233,5.412,19.986,5.876,19.648,6.242Zm-.488-.206c.452-.1.626-.485.851-.821a.433.433,0,0,0-.1-.012C19.513,5.2,19.195,5.748,19.16,6.036Zm-.873-.655c.042.266.365.26.583.354a.444.444,0,0,0,.252-.339c-.184-.166-.285.077-.443.09-.154-.154,0-.082,0-.294a.182.182,0,0,0-.109-.032A.29.29,0,0,0,18.286,5.381Zm9,2.57c-.2-.833-.334-1.74-.5-2.615a1.721,1.721,0,0,1,.494-.041,21.337,21.337,0,0,0,.443,2.664Zm.837-.034c-.285-.773-.317-1.788-.593-2.568.065-.108.243-.1.42-.093a.716.716,0,0,0,.369-.04A3.036,3.036,0,0,1,28.792,6.5c.125.458.361.969.223,1.331-.342-.251-.378-.789-.521-1.238a2.569,2.569,0,0,0-.52-1.19c-.209.819.454,1.62.547,2.468a.394.394,0,0,0-.169.025.426.426,0,0,1-.14.027A.4.4,0,0,1,28.127,7.917ZM3.93,7.781c-.026-.195.115-.216.25-.241-.008.088.058.105.045.2-.07.023-.139.087-.208.087A.117.117,0,0,1,3.93,7.781Zm-.783-.21c.057.008.089-.009.1-.047.107.009.1.124.093.247-.055-.008-.088.01-.1.048A.243.243,0,0,1,3.147,7.571Zm26.211.221a10.228,10.228,0,0,0-.545-2.568.416.416,0,0,1,.3-.043c.17.913.486,1.689.642,2.618C29.62,7.8,29.491,7.794,29.358,7.792ZM29.5,5.138a23.072,23.072,0,0,0,4.284-.268,16.679,16.679,0,0,1,1.337,2.286c-.428.258-.56-.374-.727-.652a5.023,5.023,0,0,0-.622-.9C34,6.23,34.4,6.676,34.63,7.3c-1.343.127-2.759.18-4.087.321.013.066.122.043.195.053-.133.1-.433.016-.591.086A17.531,17.531,0,0,1,29.5,5.138ZM2.656,7.562c.055.009.086-.01.1-.047.1.015.009.218.146.2a.058.058,0,0,1-.056.036A.232.232,0,0,1,2.656,7.562Zm2.616-.544a6.017,6.017,0,0,1,1.09-.424c.04.074.158.075.244.1-.55.214-1.3.7-1.831.606-.057.209-.235.292-.449.336C4.427,7.232,4.946,7.163,5.272,7.017Zm.14.348a2.4,2.4,0,0,1,1.534-.416c-.456.261-1.046.385-1.487.662C5.433,7.541,5.521,7.359,5.412,7.366ZM3.546,7.332c.153-.022.154.107.141.248a.2.2,0,0,1-.044.005C3.5,7.585,3.495,7.379,3.546,7.332Zm.292.1c-.069-.288.145-.284.252-.39.11.007.017.209.044.3-.091.024-.132.1-.246.1A.309.309,0,0,1,3.838,7.435Zm.35-.337c.489-.355,1.261-.9,1.93-.607a9.338,9.338,0,0,1-1.884.755C4.241,7.175,4.246,7.107,4.188,7.1Zm30.993-.433a5.473,5.473,0,0,0-1.149-1.789c.1-.115.344-.079.5-.141a8.073,8.073,0,0,1,1.137,2.431.3.3,0,0,1-.064.007C35.35,7.173,35.255,6.822,35.181,6.666Zm.593-.187c-.252-.6-.608-1.315-.852-1.835.019,0,.041,0,.063,0,.063,0,.127.008.135-.046a12.32,12.32,0,0,1,1.038,2.478C35.946,6.982,35.863,6.688,35.774,6.479Zm-21.851.539a1.508,1.508,0,0,0-.435-.05c.111-.143.716.038.982.066a.485.485,0,0,1-.2.037A1.733,1.733,0,0,1,13.924,7.017Zm-5.8-.1a2.655,2.655,0,0,1-.592.088A.569.569,0,0,1,8.127,6.921Zm28.288-.431c-.294-.635-.635-1.387-.948-1.983a7.757,7.757,0,0,0,1.285-.371,11.384,11.384,0,0,1,1.379,2.632c-.343.114-.377-.346-.482-.55A5.086,5.086,0,0,0,36.3,4.373c.211.828.91,1.6,1.184,2.531-.43-.181-.573-.809-.814-1.246a2.526,2.526,0,0,0-.864-1.145c.112.827.91,1.668,1.037,2.478a.25.25,0,0,1-.089.018C36.541,7.008,36.484,6.642,36.415,6.491ZM5.19,6.13a.327.327,0,0,1,.246.054A16.766,16.766,0,0,0,3.8,6.992C3.983,6.617,4.773,6.437,5.19,6.13ZM5.358,5c-.033-.3.072-.459.061-.736A8.184,8.184,0,0,0,7.9,5.589l0,.247a.225.225,0,0,0,.182-.071.224.224,0,0,1,.165-.071.325.325,0,0,0,.044.247c.093.028.113-.021.131-.07s.036-.093.118-.073a22.947,22.947,0,0,0,3.722.9A19.924,19.924,0,0,1,5.358,5Zm32.276-.653c.079.842.764,1.516,1.09,2.282-.314.037-.327-.389-.433-.6A11.212,11.212,0,0,0,37,4.092c.125-.154.421-.132.548-.286a26.285,26.285,0,0,1,1.668,2.883A14.851,14.851,0,0,0,37.634,4.349Zm1.694,1.456c-.133-.255-.328-.5-.48-.746a8.622,8.622,0,0,1-.907-1.492A5.991,5.991,0,0,1,38.9,5.059a6.068,6.068,0,0,1,.86,1.491C39.447,6.5,39.461,6.059,39.328,5.806ZM3.953,6.5l.087-.036a.185.185,0,0,1-.083.036Zm.41-.283c.242-.184.534-.368.731-.239a7.02,7.02,0,0,1-1.054.485C4.118,6.416,4.234,6.318,4.362,6.22Zm35.651-.255a1.253,1.253,0,0,1,.287.447C40.133,6.333,40.077,6.147,40.014,5.965ZM11.924,6.3c.14-.2.41-.277.55-.482.132.123-.1.565-.362.565A.269.269,0,0,1,11.924,6.3Zm1.012-1.555c.073.492-.468.783-.756,1.068C12.149,5.365,12.611,4.992,12.936,4.745Zm-3.9.864A9.832,9.832,0,0,1,9.854,3.8c-.034.535-.68,1.127-.573,1.81a.3.3,0,0,0,.3-.29c.125.085-.1.228-.056.394A2.045,2.045,0,0,0,9.036,5.609Zm-.343-.1c-.092-.186.2-.339.256-.537.031.1-.026.537-.253.537Zm1.758-2.083c.094.248-.211.574-.359.877-.162.333-.273.686-.412.977A7.459,7.459,0,0,1,10.451,3.423ZM8.922,3.64a2.942,2.942,0,0,1-.963,1.606A13.088,13.088,0,0,1,8.922,3.64ZM8.738,3l.245,0a5.062,5.062,0,0,1-.658,1.069c-.224.351-.4.83-.756,1.019C7.844,4.473,8.367,3.685,8.738,3ZM7.228,4.89c-.212-.027.137-.231.2-.292C7.7,3.96,8.114,3.47,8.4,2.845a.236.236,0,0,0,.148.051A12.193,12.193,0,0,0,7.374,4.991C7.334,4.947,7.24,4.959,7.228,4.89Zm.064-.836a.661.661,0,0,1-.358.732A7.21,7.21,0,0,1,7.293,4.054ZM7.41,3.023c.015.6-.525,1.058-.718,1.611C6.592,4.137,7.2,3.532,7.41,3.023Zm2.308.189c.094.07.28.053.392.106A4.741,4.741,0,0,0,8.954,4.626C9.008,4.145,9.494,3.682,9.718,3.211ZM7.32,2.48c.269.015.391.171.637.209a.979.979,0,0,0-.353.434c-.11-.038-.014-.276-.042-.394-.685.291-.765,1.212-1.308,1.65A16.5,16.5,0,0,0,7.32,2.48Zm-.391-.105A4.1,4.1,0,0,0,5.868,3.93c-.372-.194.1-.561.261-.832.233-.394.385-.736.609-1.071.251.048.253.336.535.352a8.365,8.365,0,0,0-1.164,1.8C6.069,3.676,6.8,3.049,6.929,2.375Zm31.411.954c.239.235.345.6.575.845C38.757,4.081,38.317,3.6,38.34,3.329ZM8,2.739a.134.134,0,0,1,.136.023.129.129,0,0,0,.109.03c-.23.38-.5.72-.709,1.118C7.446,3.461,7.94,3.188,8,2.739Zm6.188.5a197.3,197.3,0,0,0,19.975-.332,33.654,33.654,0,0,0-5.018.108c-1.7.047-3.452.09-5.216.1-4.587.034-9.859.363-13.661-.638.229-.005.491,0,.766,0a11.974,11.974,0,0,0,1.693-.055,1.759,1.759,0,0,0-.681-.063A3.625,3.625,0,0,1,11.6,2.36c-.2,0-.394-.007-.589-.01-.157.009-.216-.01-.208-.028s.112-.044.258-.021c5.325.01,10.646.017,15.79-.161.176.022.15-.024.112-.072S26.884,1.977,27,2c1.793.054,3.5.021,5.214-.005C28.48,1.662,24.4,1.7,20.37,1.631c-3.492-.062-6.928-.188-10.424-.088a4.6,4.6,0,0,1-1.231.028c-.157-.54.422-.637.751-.725A33.592,33.592,0,0,1,15.823.074c3.317-.206,6.895.073,10.621.14,2.157.039,4.25.052,6.489.214a15.125,15.125,0,0,1,3.189.451c.63.183,1.8.538,1.8,1.065,0,.624-1.444.834-2.28.992a52.063,52.063,0,0,1-8.866.727C25.407,3.682,24,3.7,22.586,3.7A59.616,59.616,0,0,1,14.192,3.241ZM8.111,2.3c.492-.184.887.142,1.274.219a.808.808,0,0,1-.247.038A7.253,7.253,0,0,1,8.111,2.3Zm30.351-.247.147,0c.019.187-.1.229-.152.342C38.334,2.346,38.527,2.207,38.461,2.051ZM7.137,1.69c.291-.6.628.024.931.213-.088.075-.264.062-.2.291C7.619,2.031,7.235,2,7.137,1.69Zm1.719.177c0-.033,0-.064,0-.1-.005-.057.014-.087.052-.1,4.134.254,8.65.056,13.03.233l.934.015.492.01c.083,0,.163,0,.245,0,.076.027,0,.051-.049.047-1.967-.049-3.937-.017-5.9.015-1.237.02-2.472.04-3.7.04C12.246,2.037,10.545,2,8.855,1.867Z" transform="translate(0.958 0.648)" fill="#fff" stroke="rgba(0,0,0,0)" stroke-width="1"/>
  </g>
  <g id="Group_449" data-name="Group 449">
    <path id="Path_1000" data-name="Path 1000" d="M27.829,4.846c-1.01-.449-2-1.074-3.088-1.56-1.21-.54-2.614-1.113-4.164-1.893C18.557.372,16.608-1,16.161,1.1a2.128,2.128,0,0,0-3.018,2c.017.637.557,1.017.709,1.467C13.06,5.69,13.8,6.3,14.286,7c-.465.629.066,1-.337,1.489-.672.821-2.359-.613-3.259-.122a2.888,2.888,0,0,0-.779,1.957,8.528,8.528,0,0,1-.145,1.1,23.6,23.6,0,0,1-1.558,2.95c-1.032,2.009-1.852,4.808-2.84,5.761-.5.487-1.141.239-1.468.989-.532,1.22.866,2.106,1.922,2.77a1.537,1.537,0,0,1-.034,1.712c-.976.1-2.753.077-2.6,1.455-.856-.224-1.854-.534-2.431.018A2.18,2.18,0,0,0,.8,30.425c-.309.5-.124.839-.227,1.272.347.976,2.092,1.864,3.692,2.694,1.286.666,2.586,1.365,3.83,2,1.959,1,3.79,1.632,5.68,2.454a8.711,8.711,0,0,0,1.82.779c.559-.036.925-.739,1.166-1.211,1.457.715,2.436-.408,2.907-1.922A4.28,4.28,0,0,0,18.46,34.5c1.254-1.181-.7-2.084-.319-3.067a1.469,1.469,0,0,1,1.631-.767c.611.138,1.251.722,1.931.7.38-.4.932-.431,1.136-.879.242-.532-.527-1.158.09-1.686a34.638,34.638,0,0,1,4.631,2.338c.292-.186.585-.362.886-.52a1.1,1.1,0,0,0,1.492-.077,8.474,8.474,0,0,0,2.557,3.02,23.614,23.614,0,0,0,6.839,2.623c2.214.533,4.428.493,6.514,1.352a3.029,3.029,0,0,1,.91.528c.237.26.167.826.465,1.134a4.141,4.141,0,0,0,1.46.807c.469.082,1.033-.375,1.715-.38a12.888,12.888,0,0,1,4.165,1.343,114.092,114.092,0,0,1,12.43,6.9c2.754,1.638,5.593,3.193,8.156,4.811,4.417,2.786,7.834,5.316,12.73,7.535,1.736.786,3.356,1.907,5.1,2.644,2.137.9,4.636,1.455,6.074.715a3.83,3.83,0,0,0,1.608-1.817c.284-.84-.115-1.782-.017-2.431-.835-.524-1.09-1.317-1.622-1.858a25.6,25.6,0,0,0-4.82-3.332,109.15,109.15,0,0,0-17.176-8.05C73.4,44.7,69.5,43.541,65.771,41.925c-4.658-2.019-10.207-4.2-13.257-7.178.3-.866-.464-1.648-1.512-1.94-.548-.153-1.125.246-1.629.077A8.982,8.982,0,0,1,48,31.91a26.433,26.433,0,0,1-3.524-3.162c-2.871-2.917-7.653-5.329-11.055-4.96.026-.576-.468-.979-1.045-1.357-.071-.191.253-.512.058-.663-1.5-.907-3.464-1.728-4.851-2.588.105-.356.632-.134.942-.495.25-.291.242-.7.5-.992a3.458,3.458,0,0,0-1.953-2.023,2.4,2.4,0,0,1,.284-1.794c.871-.1,1.792-.05,2.271-1.345a3.044,3.044,0,0,0,2.127-.1,2.3,2.3,0,0,0,.234-3.482c.923-2.051-1.965-3.127-4.154-4.1" transform="translate(0 0)" fill="#7db1c7"/>
    <path id="Union_12" data-name="Union 12" d="M93.59,61.18c.028-.055.057-.11.084-.164.849.368,1.649.062,2.458.478a3.8,3.8,0,0,1-.508.033A7.481,7.481,0,0,1,93.59,61.18Zm-.579-.223c.145-.171.453,0,.469.167a.116.116,0,0,1-.11.061A.5.5,0,0,1,93.012,60.957Zm-.662-.2c.09-.164.6.074.413.278C92.606,60.95,92.386,60.886,92.35,60.761Zm4.23-.977a1.532,1.532,0,0,1,.134.966h0C96.226,60.75,96.364,60.008,96.579,59.784Zm-.58.052c.011.268.105.716-.032.883C95.793,60.512,95.705,59.9,96,59.836Zm-.69,0c.111.236.2.684.051.858C95.117,60.479,95.311,60.123,95.309,59.832Zm-.653.744a.219.219,0,0,1-.18-.055c-.081-.2.044-.472,0-.691.1-.117.269-.017.414,0a7.612,7.612,0,0,1-.057.8A.216.216,0,0,0,94.656,60.576Zm2.7-1.095c.05-.056.124-.034.211-.014a.385.385,0,0,0,.285-.011c.229.246-.108.99-.444,1.019A6.8,6.8,0,0,0,97.354,59.481Zm-3.535.152c-.212.313.152.635-.06.8C93.481,60.3,93.362,59.435,93.819,59.633Zm-.994-.225a.5.5,0,0,1,.386.058c-.09.3.068.53,0,.828C92.78,60.1,92.988,59.692,92.825,59.409Zm-.525-.194c.257.222.141.566.19.855C92.11,59.918,92.191,59.373,92.3,59.214Zm-.776.577c-.153-.225-.062-.531-.161-.774a.633.633,0,0,1,.5.112,6.081,6.081,0,0,1,.024.774C91.77,59.885,91.592,59.672,91.524,59.791Zm-.8-.336c.122-.286-.336-.853.253-.635a3.817,3.817,0,0,1,.08.8Zm3.868-.122a24.15,24.15,0,0,1-3.945-.956c-.408-.168-.82-.363-1.234-.574a1.1,1.1,0,0,0-.065.957c-.23-.171-.258-.8-.464-1.135a.54.54,0,0,1,.194,0c-1.042-.547-2.106-1.177-3.2-1.728-4.554-2.3-9.372-5.292-13.559-7.54,4.513,2.035,10.759,5.711,16.016,7.881,2.507,1.036,4.981,2.235,6.71.829a1.928,1.928,0,0,0-1.084.063,2.975,2.975,0,0,1-.743.121A13.959,13.959,0,0,1,88.806,56C84,54.067,79.726,51.688,75.132,49.37c-1.552-.785-3.212-1.406-4.687-2.23s-2.886-1.713-4.327-2.53c-1.471-.833-3.02-1.643-4.493-2.475-1.953-1.105-4.228-1.831-5.485-3.117-1.264-.234-2.994-1.381-4.136-1.672a2.331,2.331,0,0,0,.365-.993c.013-.053.047-.041.082-.026a127.865,127.865,0,0,0,17.726,8.465A72.218,72.218,0,0,0,79.116,48.2c-5.941-2.916-11.938-4.8-18.036-7.721l-.385-.2c-.45-.335.274.093.522.2,4.5,1.848,9.224,3.708,13.761,5.495a147.977,147.977,0,0,1,14.7,6.245,52.314,52.314,0,0,0-7.142-2.846c2.422,1.364,5.545,2.587,8.271,4.177,2.652,1.548,5.4,2.9,6.388,5.025a2.222,2.222,0,0,1-1.814.851A3.835,3.835,0,0,1,94.591,59.333ZM90.122,58.6c.027-.193.17-.035.275,0-.214.315.063.471-.032.746C90.125,59.147,90.3,58.813,90.122,58.6Zm-.525-.334c.335,0,.086.585.3.775C89.6,59.028,89.791,58.462,89.6,58.264Zm-1.407-.779c.11-.186.355.053.524.057-.261.438.09.675.025,1.05C88.13,58.363,88.412,57.841,88.191,57.485Zm-.579-.224a.277.277,0,0,1,.278,0,1.5,1.5,0,0,0,.106.886C87.672,58.1,87.83,57.5,87.612,57.261Zm-.634-.249c.052-.124.208.074.3.083a1.813,1.813,0,0,0,.109.748C87.2,57.765,87.161,57.242,86.978,57.012Zm-.773-.392c.511,0,.551.8.548.969C86.231,57.378,86.366,56.951,86.206,56.62Zm-.744-.306c.5-.025.386.546.576.775l-.045,0C85.513,57.091,85.6,56.553,85.462,56.314Zm-.552-.278c.031-.053.09-.009.137,0,.231.17.07.47.221.665l-.037,0C84.918,56.7,85.1,56.2,84.91,56.036Zm-2.016.02c.128-.247.3.138.387.195a.087.087,0,0,1-.066.026A.482.482,0,0,1,82.894,56.056Zm1.08-.632c.407.158.3.482.3.777A.559.559,0,0,1,83.974,55.424Zm-1.685.326c.052-.229.34.046.357.112a.063.063,0,0,1-.057.035C82.506,55.9,82.377,55.764,82.289,55.75Zm1.078-.494c.037-.213.214,0,.331.029-.1.2,0,.336-.058.524C83.33,55.7,83.507,55.425,83.367,55.256Zm-.69-.416c.1-.105.322.134.47.167a.775.775,0,0,0,.026.5l-.037,0C82.784,55.506,82.832,55.027,82.677,54.84Zm-1.27.188c.119.1.258.19.162.361A.247.247,0,0,1,81.408,55.028Zm.748-.521c.067-.119.246.1.359.112-.092.216.089.338,0,.552C82.061,55.057,82.321,54.711,82.156,54.506Zm-1.328.3c.106-.1.368.119.219.249C80.848,55.011,80.921,54.882,80.828,54.8Zm.775-.576c-.153-.055-.163.044-.163.143s.009.172-.06.158c-.316-.156-.085-.492-.355-.664-.248-.051-.072.174-.168.331-.388-.132-.141-.475-.356-.664.466.045.835.52,1.378.7.02.161-.042.35.024.5l-.023,0C81.728,54.729,81.824,54.319,81.6,54.229Zm-1.464.159c.161-.109.334.161.357.249a.141.141,0,0,1-.08.025C80.283,54.662,80.159,54.461,80.14,54.387Zm-.633-.528c.033.1.163.161.3.223.025.069-.043.167.027.22h0C79.785,54.3,79.252,54.1,79.507,53.859Zm-.689-.279c.129-.084.453.153.328.306C78.954,53.811,78.8,53.723,78.818,53.58ZM79.84,53.2c.047-.227.257.033.385.055a1.647,1.647,0,0,0,.054.582l-.045,0C79.909,53.84,80.01,53.364,79.84,53.2Zm-.689-.418c.069-.119.245.1.358.112-.02.2.117.361.053.579C79.151,53.333,79.349,52.993,79.151,52.781ZM78.074,53c.081.141.348.224.356.387a.139.139,0,0,1-.053.01C78.212,53.4,77.966,53.16,78.074,53Zm.443-.606c.373-.029.432.439.412.692C78.516,52.945,78.622,52.635,78.516,52.393Zm-1.269.187c.141-.073.355.217.467.307a.056.056,0,0,1-.03.008C77.573,52.894,77.328,52.668,77.248,52.58Zm.5-.578c.067-.119.247.094.359.112.039.155-.011.339.109.47a.439.439,0,0,1-.073.007C77.821,52.591,77.848,52.171,77.746,52Zm-.689-.416c.087-.112.282.115.415.139.026.145-.064.327.053.443a.434.434,0,0,1-.07.006C77.138,52.173,77.1,51.775,77.056,51.586Zm-.771-.391c.218-.188.538.328.413.555C76.317,51.647,76.436,51.376,76.286,51.2Zm-1.13-.638c.46.034.984.442.825.832C75.616,51.139,75.182,50.917,75.156,50.557Zm-1.35-.752c.455.034.979.444.989.778A1.315,1.315,0,0,1,73.805,49.8Zm-.965-.556c.293-.019.77.3.687.554a.453.453,0,0,1-.057,0C73.135,49.807,73.051,49.4,72.84,49.249Zm-1.378-.834c.3.1,1.065.446,1.212.751a.1.1,0,0,1-.075.024A1.9,1.9,0,0,1,71.462,48.415Zm-.579-.361c.109-.076.419.164.248.333C70.894,48.326,71,48.153,70.883,48.054Zm-6.916-3.978a38.233,38.233,0,0,1,6.723,3.948C68.347,46.926,66.36,45.311,63.968,44.075Zm2.973,2.332C63.2,44.5,59.909,42.354,56.413,40.4c-.1-.029-.068-.1-.137-.139.028-.055.055-.111.083-.165,4.063,2.327,8.551,4.9,12.124,7.091.018.011.026.016.023.016C68.479,47.2,67.394,46.64,66.94,46.408Zm-5.1-3.471a8.69,8.69,0,0,1,1.571.725H63.4A10.236,10.236,0,0,1,61.845,42.936Zm-6.258-3.091c.147-.216.628.169.441.359C55.8,40.112,55.618,40,55.586,39.845Zm-.773-.39c.148-.215.63.17.442.361C55.028,39.722,54.846,39.614,54.814,39.455Zm-.881-.445c.155-.219.608.176.522.334a.179.179,0,0,1-.066.012C54.2,39.355,53.938,39.133,53.933,39.01Zm2.351-.957A7.2,7.2,0,0,1,58.159,39,10.994,10.994,0,0,1,56.284,38.053Zm-2.984.568c.184-.084.437.19.3.361A.356.356,0,0,1,53.3,38.621Zm-.661-.472c.268.112.248.317.3.5a.246.246,0,0,1-.062.008C52.66,38.654,52.584,38.321,52.638,38.148Zm-.689-.278c.206-.1.153.283.22.386a.147.147,0,0,1-.06.015C51.971,38.272,52.006,37.963,51.949,37.871Zm-4.664-.489c.157-.219.524.2.772.251-.046.19-.159.173-.222.3A.732.732,0,0,1,47.285,37.382Zm1.462-.023c.023-.118.088-.112.153-.106a.128.128,0,0,0,.123-.03c.085.114-.024.178-.137.178A.228.228,0,0,1,48.747,37.359Zm-1.352-.612c.122-.192.353-.055.583.082.17.1.339.2.466.171-.059.151-.139.208-.233.208C47.966,37.208,47.636,36.821,47.395,36.747Zm3.7-.206a.542.542,0,0,1-.031.607A.494.494,0,0,1,51.1,36.541Zm-37.024.572a.394.394,0,0,0-.128-.03l.141-.275c.141.061.271.124.219.249a.109.109,0,0,1-.107.085A.407.407,0,0,1,14.074,37.113Zm-1.094-.17c.174-.077.226-.53.444-.469.177.141.029.388.053.581C13.308,37.005,13.15,36.992,12.98,36.943Zm38.48-1.12a2.832,2.832,0,0,1,.216,1.217A1.253,1.253,0,0,1,51.46,35.823Zm-2.546,1.068.112-.222a.3.3,0,0,0,.33.031c.066.176-.071.233-.219.233A.616.616,0,0,1,48.915,36.891Zm-36.68-.257c.074-.161.214-.344.17-.468.044-.122.145-.08.245-.038a.327.327,0,0,0,.168.041c.055.165-.231.443-.084.579a.17.17,0,0,1-.112.038A.983.983,0,0,1,12.235,36.635ZM47.7,36.278a13.487,13.487,0,0,0,1.2-2.369l.882.443a12.644,12.644,0,0,1-1.225,2.428C48.284,36.609,47.841,36.493,47.7,36.278Zm-32.371-.016c-2.133-.828-4.222-1.924-6.312-2.982C6.065,31.79,2.464,30.505.2,28.827c-.107-.068-.041-.035.053,0,.141.049.341.1.114-.19C5.725,31.1,11.758,34.391,17.1,36.323a.788.788,0,0,1-.61.234A3.464,3.464,0,0,1,15.331,36.262Zm-3.868.122c.2-.122.261-.7.555-.55-.149.263-.007.431-.141.689C11.74,36.475,11.626,36.506,11.463,36.384Zm40.465-.393.276.139c-.064.13-.129.257-.195.386A.911.911,0,0,1,51.928,35.992Zm-2.265.239c-.05.16-.153.156-.256.152a.257.257,0,0,0-.188.04C49.127,36.175,49.474,36.086,49.663,36.231ZM10.774,36.1c.2-.182.322-.609.583-.6.219.259-.3.482-.252.772C11,36.216,10.884,36.159,10.774,36.1Zm-.634-.251c.223-.251.322-.883.72-.6-.169.25-.28.673-.53.673A.343.343,0,0,1,10.14,35.854Zm39.471-.341c.149.125.229.044.358.112-.049.221-.17.22-.293.219a.343.343,0,0,0-.178.029C49.381,35.8,49.593,35.626,49.611,35.513ZM4.169,30.142c-.6-.282-1.371-.6-2.177-1.032-.969-.519-2.107-.957-1.982-1.692l.055-.11c2.651.589,5.765,2.509,9.1,4.039,1.214.559,2.448,1.134,3.64,1.7a29.578,29.578,0,0,1,3.639,1.836c.307.207.684.517.631.941C13.269,34.51,8.458,32.158,4.169,30.142ZM44.831,35.66a6.649,6.649,0,0,1-.355-1.217c.4.038.207.667.522.886.224-.166.005-.582-.08-.8.435.04.173.706.494.94a.612.612,0,0,1-.456.2A.751.751,0,0,1,44.831,35.66ZM.573,31.094c1.709.673,3.582,1.852,5.293,2.534A34.149,34.149,0,0,0,.52,30.652c.112-.148.041-.467.169-.47C3.562,31.67,7.02,33.71,10.17,34.97c-.109.32-.3.385-.415.689C6.66,34.162,3.509,32.876.573,31.094Zm43.159,3.318c-.242.431.217.634.106,1.024-.685-.074-.46-.744-.687-1.11a1.129,1.129,0,0,1,.536.031,1.143,1.143,0,0,0,.54.03,7.148,7.148,0,0,0,.327,1.134C44,35.432,44.36,34.483,43.733,34.412Zm1.383-.685c-.223.063-.077.392-.057.525-.336.063-.154-.439-.412-.553-.287.069.048.476-.112.5a55.877,55.877,0,0,1-6.1-1.349c-.071.3.219.679-.031.883-.4-.282-.151-.779-.411-1.105a45.787,45.787,0,0,1-4.409-2.366c.991-1.054,2.468-3.539,2.34-5.045.075-.138.239-.015.387.056,0,.249-.093.157-.223.3C39.131,26.717,43,28.6,45.045,30.716c.321.94-.891,1.729-1.638,1.872-2.2.417-6-.731-8.443-1.773a4.261,4.261,0,0,0,1.68,1.056c2.226.933,5.627,1.614,7.232,1.161.68-.19,1.74-.83,1.747-1.678a1.373,1.373,0,0,1-.064,2.459c-.124.592.244,1.023.16,1.6C45.306,34.921,45.585,34.2,45.116,33.727Zm4.746,1.152c.033.112.212.176.358.248-.052.132-.147.131-.242.131a.233.233,0,0,0-.2.062C49.623,35.233,49.792,35.041,49.861,34.879Zm-7.019.364a.3.3,0,0,1-.08-.005c-.206-.346-.183-.767-.493-1.078a1.341,1.341,0,0,1,.635.112c-.113.39.191.64.107,1.023A.22.22,0,0,0,42.842,35.242Zm2.936-1.182c.326-.06.518.87.325,1.134C45.893,34.852,45.974,34.411,45.779,34.061Zm-4.228.012c-.193.214-.062.684.08.939-.065.037-.155,0-.244-.035a.449.449,0,0,0-.2-.049,2.418,2.418,0,0,0-.3-1.05,1.277,1.277,0,0,1,.621.077,1.582,1.582,0,0,0,.54.092,2.676,2.676,0,0,0,.354,1.077.686.686,0,0,1-.187.03C41.721,35.153,41.9,34.361,41.551,34.073Zm4.807-.34a2.678,2.678,0,0,1,.188,1.134C46.374,34.537,46.166,34.034,46.358,33.733Zm-5.942.942c-.025-.068.044-.167-.025-.219.024-.122.1-.093.169-.065.05.019.1.038.134.011.2.088.087.278.219.386a.171.171,0,0,1-.113.039A.985.985,0,0,1,40.416,34.675Zm-.772-.389c.211-.2.443.163.469.307a.19.19,0,0,1-.132.058C39.815,34.65,39.664,34.4,39.645,34.286Zm6.964-.91c.218.158.307.754.326,1.133A6.18,6.18,0,0,1,46.608,33.375ZM38.9,34.393c-.018-.1.051-.231-.054-.3.068-.089.179-.051.289-.013a.581.581,0,0,0,.18.042.58.58,0,0,0,.109.334.184.184,0,0,1-.132.049A2.019,2.019,0,0,1,38.9,34.393Zm-.5-.527c.268.1.164.315.247.47a.239.239,0,0,1-.112.031C38.315,34.366,38.23,33.967,38.4,33.866Zm1.768-.213a.824.824,0,0,1,.442.083c-.119.24.172.344.054.58C40.185,34.265,40.348,33.918,40.172,33.653Zm-2.542.514c-.024-.114.044-.259-.026-.359.312-.269.371.21.412.417a.276.276,0,0,1-.1.019A.7.7,0,0,1,37.63,34.167Zm-24-1.392a10.407,10.407,0,0,1,2.84,1.364C15.58,33.85,14.57,33.2,13.631,32.775Zm23.336.783c.373-.073.388.361.5.526a.425.425,0,0,1-.141.027C37.057,34.111,37.023,33.758,36.968,33.558Zm2.4.175c-.181-.024.006.188-.165.192-.151-.124-.23-.046-.36-.111a4.086,4.086,0,0,0-.19-.858c.258.048.81.5,1.186.529-.071.222.139.353.052.581a.3.3,0,0,1-.068.008C39.618,34.074,39.472,33.848,39.37,33.733ZM36.5,33.391c.358.081.131.354.3.5a.245.245,0,0,1-.061.008C36.521,33.9,36.444,33.563,36.5,33.391Zm12.709-.365c.292.18.779.3.827.555a.4.4,0,0,0-.195.248C49.406,33.642,48.7,33.64,49.207,33.025Zm-11.849-.378c.051-.125.16-.073.268-.022a.314.314,0,0,0,.2.052c-.129.333.11.546-.03.882C37.309,33.368,37.622,32.912,37.358,32.647Zm-1.6.573c.142-.062.469.02.358.25C35.966,33.4,35.786,33.333,35.753,33.22Zm.916-.713c-.209.116.07.465-.086.718-.413-.265-.161-.746-.438-1.053.306-.1.772.3,1.131.365-.233.365.077.555-.03.882C36.664,33.243,37.011,32.76,36.669,32.507Zm-1.214-.614c.092-.234.375.113.551.141-.15.365.139.8-.031,1.021C35.409,32.8,35.708,32.254,35.455,31.893Zm-20.025.473c.194-.109.294-.5.445-.744.47.365,1.009.71.628,1.356C16.054,32.8,15.859,32.548,15.43,32.367ZM34.822,31.5c.07-.118.246.094.358.113-.114.45.188.764.079,1.214C34.779,32.5,35.031,31.926,34.822,31.5Zm-21.933.964c0-.213.445.012.275.138C13.073,32.559,12.978,32.515,12.889,32.468Zm21.328-1.407a3.327,3.327,0,0,1,.242,1.436A1.841,1.841,0,0,1,34.216,31.061ZM14.6,31.95l.418-.827a1.089,1.089,0,0,1,.522.334c-.129.257-.26.514-.388.773C14.97,32.135,14.785,32.042,14.6,31.95Zm18.759-1.114c.74-.1.421.93.657,1.3C33.232,32.073,33.573,31.242,33.361,30.836Zm-21.853.936.084-.166c.137.078.277.154.191.3Zm3.154-.9c-.248.3-.165.725-.446.881C14.065,31.608,14.453,30.838,14.662,30.873Zm17.2.592c.136-.248.229.161.387.195a.087.087,0,0,1-.065.025A.487.487,0,0,1,31.867,31.465Zm.862-1.156c.559.108.285.887.464,1.272C32.662,31.464,32.995,30.666,32.728,30.309ZM13.445,31.366A6.5,6.5,0,0,1,14,30.539c.037.019.073.036.11.056.2.211-.262.638-.335.937Zm-.607-.307c.25-.313.318-1.176.8-.771a4.971,4.971,0,0,1-.527.91C13.022,31.151,12.929,31.105,12.838,31.059Zm18.423-.178c.175-.112.252.19.276.279a.165.165,0,0,1-.086.028C31.318,31.188,31.263,30.962,31.261,30.881ZM2.8,26.129c-.12-.036-.165-.1-.109-.195.481-.818,1.5-.413,2.237-.044,2.4,1.2,5.5,2.712,8.048,4.065-.158.312-.315.623-.473.935C9.21,29.236,6.048,27.451,2.8,26.129Zm27.824,4.087c.241-.045.289.365.357.527a.225.225,0,0,1-.046.005C30.717,30.749,30.692,30.371,30.628,30.217Zm.945-1.46c.381.4.2,1.375.462,1.963C31.536,30.363,31.8,29.359,31.573,28.757Zm-15.525.74a2.828,2.828,0,0,1-.142,1.1C15.506,30.38,16.009,29.862,16.048,29.5Zm-8.039.578c.091-.1.216-.089.277-.276l.606.3c-.125.149.014.21-.113.359C8.523,30.332,8.265,30.2,8.009,30.074Zm7.181.164c.063-.219.27-1.1.638-.852-.26.222-.249.631-.417.964C15.336,30.313,15.262,30.277,15.189,30.238ZM31.719,27.1c.217-.527.189-1.206.5-1.545.326-.355,1.217-.339,2.022-.325a4.537,4.537,0,0,0,1.294-.076c.3,1.4-1.22,3.53-2.092,4.961C32.257,29.314,32.13,28.161,31.719,27.1Zm.777-1.268c-1.036,1.314.245,3.016,1.035,3.705-.383-1.2-1.6-2.34-.287-3.95a.558.558,0,0,0-.259-.071A.659.659,0,0,0,32.5,25.834Zm-1.47,1.816c.09.433.148,1.666.321,2.377A6.155,6.155,0,0,1,31.026,27.65ZM7.457,29.793c.084-.2.178-.388.386-.219-.124.15-.044.229-.111.358C7.641,29.887,7.549,29.84,7.457,29.793Zm7.155-.743c.233-.45.088.056-.055.247-.1.145.042.443-.168.471C14.166,29.625,14.57,29.279,14.613,29.05ZM29.722,29c.152.028.413.414.439.636h0C29.917,29.634,29.9,29.171,29.722,29Zm-22.77.575a.2.2,0,0,1-.13-.032c.087-.153.152-.375.279-.411.237.074.051.288-.03.468A.2.2,0,0,0,6.951,29.574Zm3.393-3.579c.039.034.026.083.083.111C10.066,25.982,8.986,25.5,8.913,25c-.04.088-.133.2-.056.248-.269-.15-.758-.341-1.268-.642-.65-.381-1.635-.618-1.572-1.138,3.738,1.574,7.357,3.945,11.221,5.6.174.134-.38.284-.527.356A37.336,37.336,0,0,0,10.345,25.994Zm20.213,1.075a20.5,20.5,0,0,0,.212,2.321A3.006,3.006,0,0,1,30.558,27.069ZM6.081,28.683c.042-.059.124.006.193.029-.1.172-.02.283-.168.471C5.884,29.087,6.214,28.809,6.081,28.683Zm11.358-1.529c.373-.166.891.242,1.35.475.848.429,1.9.823,2.177,1.445A18.787,18.787,0,0,0,17.438,27.154ZM5.085,28.735c0-.125.064-.507.195-.524.179.127,0,.37,0,.553C5.2,28.719,5.127,28.676,5.085,28.735Zm23.483-1.287c.738-1.309,1.456-2.986,2.005-4.247.144-.331.172-.765.61-.8-.842,2.113-2.026,4.214-3.118,6.313C27.89,28.221,28.327,27.874,28.568,27.448ZM5.222,22.163c-.806-.423-1.577-.8-1.79-1.25,5.153,2.106,10.222,4.955,15.381,7.629C14.729,26.874,9.752,24.536,5.222,22.163Zm-.935,6.1.222-.442c.128.066.257.131.386.2-.142.185-.025.284-.168.469Zm-.965-.418a1.33,1.33,0,0,1,.306-.468c.184.093.368.184.551.278l-.223.441A1.787,1.787,0,0,1,3.322,27.844Zm20.8-1.6c.1-.033.161-.164.223-.3a13.886,13.886,0,0,0,2.78,2.027C26.072,27.775,25.079,26.772,24.126,26.242Zm14.888.114c.073-.161.212-.345.168-.469,1.39.4,2.182,1.4,3.251,2.058C41.354,27.6,40.091,26.7,39.014,26.356ZM10.531,27.681c.149-.265.114-.468.307-.745a.212.212,0,0,0,.179.054.216.216,0,0,1,.18.056c-.229.268-.2.426-.391.774ZM2.8,27.648c.106-.239.265-.313.388-.5.06.1-.065.547-.268.547A.186.186,0,0,1,2.8,27.648Zm-.469-.165c.045-.075.226-.753.528-.5-.179.068-.228.528-.43.528A.192.192,0,0,1,2.328,27.483Zm7.958-.824c.245.179-.168.575-.141.826C10.042,27.258,10.194,26.948,10.286,26.659Zm14.064-1,.054-.111c.6.144,1.244.9,2.012,1.361.289.175.631.281.771.529C26.14,27.248,25.3,26.2,24.35,25.663ZM1.474,27.119c.2-.233.375-.538.719-.328-.161.208-.157.5-.278.551C1.769,27.268,1.62,27.194,1.474,27.119Zm8.29-.657c.066.179.024.633-.17.746C9.433,27.031,9.655,26.727,9.764,26.462Zm13.974,0c.309-.122.608.527,1.047.666A2.576,2.576,0,0,1,23.737,26.462ZM17.5,26.216a12.878,12.878,0,0,0-1.93-1.112,34.8,34.8,0,0,1,4.19,1.978.807.807,0,0,1-.193.022A5.191,5.191,0,0,1,17.5,26.216Zm7.267-.965c.341-.884,1.223-2.28,1.671-3.446a14.516,14.516,0,0,1,2.84.949c-.583,1.419-1.209,2.849-1.978,4.328A25.452,25.452,0,0,1,24.765,25.251ZM8.88,26.016c.229.155.114.423.413.554-.122.162-.093.275-.141.414C8.726,26.771,8.941,26.349,8.88,26.016Zm-8,.908A.215.215,0,0,1,.7,26.869c.085-.3.332-.107.47-.248.121.067-.092.245-.111.36A.215.215,0,0,0,.88,26.924Zm15.623-.38c-.1-.173.343.123.468.168.022.038.017.053,0,.053A4.1,4.1,0,0,1,16.5,26.544Zm4.921-.976c.966-2.145,2.184-4.655,3.175-6.837A29.853,29.853,0,0,1,21.059,26.7C20.809,26.411,21.238,25.975,21.423,25.568Zm10.108.123a2.689,2.689,0,0,1-.088.995C31.382,26.405,31.2,25.953,31.531,25.691Zm-23.066.6c.122.083.037.233.11.333a.146.146,0,0,1-.078.026C8.37,26.649,8.323,26.419,8.465,26.291Zm11.962-.81c.438-.931.812-1.652,1.281-2.536.033-.107.108-.087.083-.026-.1.2-.2.4-.306.6-.5.917-.85,2.027-1.254,2.759C19.959,26.065,20.323,25.705,20.427,25.481Zm18.284.1a1.97,1.97,0,0,0,.275.693.477.477,0,0,1-.063,0C38.579,26.278,38.532,25.859,38.712,25.581Zm-1.436.106a1.031,1.031,0,0,0,.058-.663c.247-.183.714.3,1.048.391-.024.239.085.431,0,.69C37.978,25.864,37.67,25.91,37.276,25.687ZM21.294,22.945c-.635.992-.956,2.364-1.615,3.059C20.209,25.046,20.813,23.578,21.294,22.945ZM7.2,25.236c.088.186-.011.433-.057.662C7,25.73,7.183,25.457,7.2,25.236Zm15.856-7.423c.182.287-.1.721-.225.994a61.134,61.134,0,0,1-3.534,7C20.276,23.278,21.968,20.192,23.055,17.813Zm.773,7.517a.3.3,0,0,1-.085.441C23.657,25.661,23.729,25.5,23.827,25.33Zm12.924.3c-.293-.257-.061-.686-.272-.969.112-.173.361.073.551.141a2.977,2.977,0,0,0-.086.854C36.868,25.613,36.793,25.57,36.751,25.63Zm-19.166-.686a59.539,59.539,0,0,0,2.756-5.871c-1.119,1.583-2.005,3.876-3.032,5.734-1.348-.553-2.776-1.356-4.163-2.033,1.257-2.575,2.721-5.218,3.842-7.746a35.6,35.6,0,0,1,5.073,2.147q-2.125,4.126-3.733,8.078c1.58-2.271,2.674-5.32,4.009-7.939.119.082.163.192.358.249-.974,2.573-2.634,5.419-3.734,8.078Q18.272,25.295,17.585,24.944Zm-11.3-.238c.265.1-.026.377.081.526l-.018,0C6.239,25.235,6.167,24.9,6.288,24.707Zm6.656.111a.686.686,0,0,1,.635.113.19.19,0,0,1-.161.081A1.276,1.276,0,0,1,12.945,24.817Zm22.872-.352c.016-.151.1-.1.186-.043.07.045.141.09.172.017a.617.617,0,0,1,.026.5.407.407,0,0,1-.078.008C35.859,24.945,35.893,24.615,35.817,24.465Zm-11.63.01c.185-.073.2.3.109.469C24.164,24.819,24.219,24.632,24.187,24.475Zm10.443-.4c.233.154.2.394.162.636A.823.823,0,0,1,34.631,24.074Zm.717.223c.257-.111.134.29.219.389a.171.171,0,0,1-.067.017C35.357,24.7,35.458,24.372,35.348,24.3Zm-2.76-.563c.093.291.021.637.161.912C32.573,24.588,32.373,23.923,32.587,23.734Zm-21.568-1c.967.33,2.526,1.253,3.722,1.811C13.776,24.22,12.215,23.3,11.02,22.737ZM33.25,23.792a.277.277,0,0,1,.277,0c-.109.266.082.434,0,.691C33.3,24.294,33.337,24.024,33.25,23.792Zm-21.38.551a.638.638,0,0,1,.662.057c-.116.011-.222.049-.342.049A.554.554,0,0,1,11.87,24.344Zm12.874-.7a1.165,1.165,0,0,1,.024.774A.9.9,0,0,1,24.744,23.648Zm8.975.312c.207-.1.155.284.219.389a.077.077,0,0,1-.034.009C33.8,24.359,33.833,24.037,33.719,23.96Zm-23.144-.2a.66.66,0,0,1,.662-.081c-.067.169-.209.107-.278.276ZM31.4,22.791c.152.1-.023.315.054.443a.115.115,0,0,1-.048.013C31.284,23.246,31.331,22.928,31.4,22.791Zm-22.041.355a.468.468,0,0,1,.608-.108.519.519,0,0,1-.358.186A.489.489,0,0,1,9.362,23.146ZM8.7,22.811c.18-.063.32-.241.554-.136a.5.5,0,0,1-.354.186A.466.466,0,0,1,8.7,22.811Zm4.062-.232c-.379-.222.073-.682.17-.883a61.363,61.363,0,0,0,2.98-6.451c-1.372,2.106-2.3,4.863-3.645,7.084l-.33-.167c.852-2.2,2.955-5.54,3.73-7.8.324-.135.857.367,1.269.5-1.33,2.107-2.439,5.01-3.619,7.166-.089.161-.17.6-.407.6A.283.283,0,0,1,12.761,22.579Zm-4.612-.045c.131-.118.313-.076.443-.193.043.107-.14.228-.306.228A.261.261,0,0,1,8.148,22.534Zm.667-.91a13.7,13.7,0,0,1,1.957.921A14.174,14.174,0,0,1,8.815,21.624Zm-1.274.6a1.432,1.432,0,0,0,.5-.164c.032.1-.124.242-.3.242A.3.3,0,0,1,7.541,22.227ZM26.6,21.473l.167-.331c.891.382,1.779.749,2.676,1.144C28.577,22.259,27.5,21.593,26.6,21.473Zm-19.7.5c.056-.111.111-.221.166-.331.007.228.164.21.322.194a.587.587,0,0,1,.2,0c-.016.116-.277.149-.14.276a.168.168,0,0,1-.112.039A1.271,1.271,0,0,1,6.908,21.977Zm23.12-.158c.091.1.141.278-.03.33C29.881,22.081,29.951,21.951,30.027,21.819ZM25.64,20.641c.156.192.256.6.024.774a.406.406,0,0,0,.248.194c-.089.183.051.289-.112.5C25.753,21.615,25.436,21.212,25.64,20.641ZM11.547,21.967c-.069-.024-.092-.062-.082-.112,1.024-1.965,2.063-3.88,3.062-5.925-.7,1.939-1.957,4.078-2.868,6.092ZM26.854,20.7c.129-.272-.033-.448.087-.717a10.181,10.181,0,0,1,1.68.779c.525.264,1.455.5.963,1.109C28.668,21.465,27.783,21.144,26.854,20.7Zm-3.785.372c.062.2-.229.505-.307.744C22.7,21.623,22.993,21.313,23.069,21.073Zm-17.154.4c.062-.189.2-.145.252-.358.178.11.468.183.522.333l-.14.277a.2.2,0,0,1-.046.005C6.337,21.732,6.11,21.552,5.915,21.475Zm5.416-.173c.083-.17.146-.286.222-.442a2.181,2.181,0,0,1-.383.841C11.152,21.7,11.189,21.591,11.331,21.3Zm1.228-3.393a18.021,18.021,0,0,1-1.782,3.666A20.219,20.219,0,0,1,12.559,17.91ZM10,21.187c.812-1.214,1.554-2.634,2.308-4.024-.354,1.313-1.394,2.851-1.921,4.219Zm-4.695-.018c.151-.194.29-.424.553-.274.044.147-.185.256-.277.414Zm4.309-.177c.833-1.519,1.647-3.1,2.449-4.713.107.493-.346,1.094-.643,1.681a17.681,17.681,0,0,1-1.558,2.951c-.054.064-.049.119-.112.119A.414.414,0,0,1,9.618,20.992ZM4.7,20.862c.186-.138.313-.451.609-.247-.149.061-.25.26-.386.359Zm17.541-.07c.485-.94.833-1.835,1.254-2.756a11.981,11.981,0,0,1-1.144,2.674c.024-.039,0,.024-.028.085s-.053.1-.07.1S22.235,20.867,22.242,20.793Zm-13.177-.08c.766-1.217,1.454-2.667,2.2-3.94a21.95,21.95,0,0,1-1.978,4.054C9.213,20.787,9.141,20.75,9.065,20.713Zm-.44-.222c-.054-.026-.109-.056-.164-.083,1.063-2.031,2.378-4.505,3.506-6.808.307.791-.459,1.718-.922,2.648-.625,1.257-1.258,2.566-1.92,3.666-.111.184-.16.586-.428.586A.316.316,0,0,1,8.625,20.491Zm17.239-.981c.344.239.175.648.356.941C25.78,20.424,25.789,19.856,25.864,19.509Zm-18.258.4a58.6,58.6,0,0,0,3.732-7.663c-1.44,2.289-2.633,5.068-3.9,7.58a14.5,14.5,0,0,1-1.846-.865,80.715,80.715,0,0,1,3.538-7.83c1.208.594,2.631,1.1,3.695,1.728-.4.039-.181.373-.445.745-.258.146-.191-.571-.218-.8-1.463,2.026-2.619,4.989-3.951,7.415C8.011,20.111,7.808,20.011,7.606,19.907Zm-1.13-.639a.172.172,0,0,0,.221-.027c.94-1.749,2.412-3.822,2.895-5.6A51.665,51.665,0,0,0,6.476,19.268Zm19.941.52c.051-.124.208.075.3.084-.045.092-.093.183-.139.276C26.472,20.045,26.526,19.89,26.417,19.788Zm-13.441-2.7c.06.193-.231.5-.307.745C12.608,17.633,12.9,17.323,12.977,17.083Zm-.219-.8c.133.187-.147.508-.252.772C12.327,16.883,12.682,16.537,12.758,16.282Zm11.519-.2c.1-.073.214-.093.3-.192a10.737,10.737,0,0,0,1.819.919A5.811,5.811,0,0,1,24.277,16.079Zm-12.4-.519c.153.271-.307.745-.421,1.1C11.3,16.392,11.765,15.918,11.877,15.56Zm9.912.785a.482.482,0,0,1,.635-.025,1.46,1.46,0,0,1-.381.06A.956.956,0,0,1,21.789,16.345Zm-9.585-.2a2.037,2.037,0,0,1,.281-.69c.192.086-.022.694-.248.695A.125.125,0,0,1,12.2,16.142Zm.971-.688c.173.112-.073.363-.141.553C12.863,15.895,13.11,15.646,13.176,15.454Zm10.521.4c.044-.188.177-.114.223-.3.343.073.229.293.329.444A.226.226,0,0,1,24.2,16,4.473,4.473,0,0,1,23.7,15.856Zm-4.858-.93a28.835,28.835,0,0,1-2.95-1.422c-.036-.024-.414-.1-.165-.221-.457.059-.879-.429-1.323-.53-.053-.044.017-.128-.054-.166.028-.056.056-.111.083-.167,2.451,1.259,4.875,2.431,7.277,3.537a1.213,1.213,0,0,1-.272.03A8.028,8.028,0,0,1,18.839,14.926Zm-4.972.394c.086.141-.175.394-.224.579C13.557,15.759,13.817,15.5,13.867,15.32Zm9.059.146.167-.331c.147.075.295.149.441.222a1.389,1.389,0,0,1-.056.387C23.293,15.652,23.109,15.559,22.926,15.466Zm-7.9-.528c.18.14-.126.44-.195.662C14.652,15.46,14.958,15.16,15.028,14.938Zm9.447.2C19.5,12.867,14.888,11.27,10.386,8.649c-.062-.055-.037-.141-.11-.193l.083-.167c2.371.691,4.7,2.22,7.224,3.371,2.467,1.125,4.98,2.356,7.249,3.592.265.134.336.185.3.185A2.661,2.661,0,0,1,24.475,15.141Zm-2.349-.01c.112-.033.175-.212.251-.357.128.063.256.13.385.194-.122.163-.092.277-.139.414C22.458,15.3,22.292,15.214,22.126,15.131Zm-10.137.209c.1-.2.2-.4.306-.608.1.092-.059.618-.258.618A.119.119,0,0,1,11.989,15.34Zm.717-.19a1.547,1.547,0,0,1,.224-.579c.135.077.044.587-.175.587A.156.156,0,0,1,12.706,15.149Zm.943-.631c.177.125-.1.4-.168.607C13.3,15,13.582,14.723,13.649,14.518Zm7.952.418.223-.442c.36.08.162.346.136.553a.175.175,0,0,1-.052.007A.716.716,0,0,1,21.6,14.936ZM20.94,14.6l.195-.387c.112.055.221.111.331.168-.064.128-.13.257-.194.387C21.161,14.714,21.05,14.657,20.94,14.6Zm-5.718.087c-.056-.245.263-.329.223-.579.073.038.148.074.221.112-.14.139-.216.473-.4.473A.172.172,0,0,1,15.222,14.689Zm5.03-.367.222-.441.385.2c-.127.036-.191.257-.278.412C20.473,14.435,20.361,14.379,20.252,14.322Zm-7.512-.471c.12.143-.069.39-.169.607C12.393,14.332,12.674,14.056,12.74,13.851Zm.413.414a1.814,1.814,0,0,1,.25-.634c.217.065-.007.642-.21.642A.105.105,0,0,1,13.153,14.266Zm6.465-.194c.117-.2.195-.526.417-.413.232.091-.114.374-.141.551C19.8,14.163,19.709,14.117,19.618,14.072Zm-5-.379c.165.1-.047.321-.112.5C14.341,14.091,14.552,13.869,14.62,13.693Zm4.389.073c.16-.076.213-.472.417-.413.236.092-.113.375-.14.552Zm-.577-.224c.138-.045.2-.3.3-.468l.221.112a.9.9,0,0,0-.223.44.333.333,0,0,1-.058.005A.424.424,0,0,1,18.432,13.541Zm-5.358-.489c.318-.229.083.317-.058.523C12.792,13.481,13.2,13.179,13.075,13.052Zm4.5.126c-.024-.22.156-.377.25-.5a1.121,1.121,0,0,0,.47.167,1.312,1.312,0,0,0-.2.526C17.933,13.334,17.7,13.085,17.576,13.179Zm-.773-.39a1.134,1.134,0,0,0,.279-.413q.192.1.386.195c-.076.148-.15.295-.224.443Zm-.44-.222c.1-.171.158-.45.359-.3-.141.169-.024.253-.139.414Zm6.106-.444a.394.394,0,0,1,.079.525C22.442,12.5,22.228,12.234,22.47,12.122Zm-8.924.131c-.983-.5-2.485-1.327-3.583-1.948L9.8,10.221c.03-.055.057-.112.084-.165.268-.08.611.289.882.446,1.076.612,2.5,1.269,3.529,1.92a.2.2,0,0,1-.184.143C13.921,12.565,13.673,12.317,13.546,12.254Zm2.572-.295c.232.062-.061.3-.085.441C15.854,12.348,15.941,11.975,16.118,11.959Zm5.385.16.084-.166c.28.092.321.263.412.416a.141.141,0,0,1-.073.019C21.775,12.388,21.587,12.186,21.5,12.118ZM15.18,11.9c.092-.276.285-.248.523-.081l-.139.275C15.437,12.028,15.308,11.963,15.18,11.9Zm8.009-.246c.09-.12-.039-.17.085-.3l.385.195c-.037.13-.1.167-.183.167A2.6,2.6,0,0,1,23.189,11.654Zm-9.968-.674c.14-.169.024-.252.14-.414.4.083.069.406.274.553.226.052.115-.146.223-.3a4.629,4.629,0,0,1,1.076.472c.071.1-.023.053-.13.006-.085-.037-.18-.075-.2-.035-.021.146.3.179.414.278a.288.288,0,0,1-.269.169C14.351,11.708,13.72,11.111,13.221,10.98Zm9.334.56c.1-.169.02-.282.167-.469.092.046.184.094.276.14-.088.163-.152.4-.295.4A.239.239,0,0,1,22.555,11.541Zm-.884-.168c.011-.2.231-.474.2-.662.14-.089.394.174.579.223-.092.184-.186.367-.277.552A1.633,1.633,0,0,1,21.671,11.373Zm4.451-.729a14.017,14.017,0,0,1,1.433.587,1.752,1.752,0,0,1-.783.152C26.262,11.383,25.771,11.211,26.122,10.644Zm-5.2.56c-.122-.235.066-.573.17-.882-.349-.086-.523.362-.721.743-.521-.186-1.054-.408-1.573-.587-.057-.258.451-.7.17-.882-.275-.041-.392.4-.556.687-.161-.1-.328-.005-.386-.194a3.064,3.064,0,0,0,.559-1.1,18.2,18.2,0,0,1,2.976,1.5c-.292.14-.21.756-.494.756A.338.338,0,0,1,20.925,11.2Zm4.065-1.06c.168.141.252.024.414.139a.867.867,0,0,1-.168.608C24.776,10.764,24.694,10.517,24.991,10.143Zm-12.072.2c.075.036.148.075.221.112l-.167.329C12.966,10.637,12.847,10.521,12.919,10.344Zm-.385-.195a.614.614,0,0,1,.025.5C12.406,10.527,12.565,10.308,12.534,10.149Zm11.627.267.278-.551.331.167c-.11.18-.183.47-.334.523C24.345,10.508,24.253,10.462,24.161,10.415Zm-7.568-.085c.033-.18.151-.1.2-.248q.3.154.6.307a.289.289,0,0,1-.258.148A1.264,1.264,0,0,1,16.593,10.33Zm-4.667-.348c.279-.09.3.3.247.471C11.836,10.378,12.013,10.137,11.926,9.982Zm11.6.183c.092-.185.186-.366.279-.551.147.124.229.045.357.112.045.153-.143.385-.223.579C23.78,10.19,23.695,10.306,23.526,10.165Zm4.834-.12c.186-.273.355-.594.719-.328a5.588,5.588,0,0,0-.388.5C28.582,10.156,28.47,10.1,28.361,10.045ZM16.044,9.638c.152-.078.391.2.469.306a.113.113,0,0,1-.091.062C16.292,10.006,16.151,9.7,16.044,9.638Zm.994.225a11.5,11.5,0,0,0,.778-1.4,1.552,1.552,0,0,0,.523.332,6.085,6.085,0,0,0-.667,1.186C17.462,9.947,17.241,9.875,17.038,9.863ZM21.3,7.449c.029-.055.056-.111.084-.166C23.3,8.171,25.12,9,26.9,9.929A44.657,44.657,0,0,1,21.3,7.449Zm6.233,2.316c.063-.223.213-.189.278-.413.147.125.229.046.358.113-.1.232-.238.353-.415.353A.541.541,0,0,1,27.533,9.765ZM13.6,5.293c-.1-.3.105-.71.031-1.023,2.99,1.5,6.178,3.575,9.455,4.98a2.189,2.189,0,0,0-.334.524C19.77,8.36,16.594,6.918,13.6,5.293ZM14.967,9.3c.006-.029.446.188.469.306a.145.145,0,0,1-.12.069C15.154,9.678,14.963,9.4,14.967,9.3Zm1.325.116a12.648,12.648,0,0,0,.751-1.351l.442.222a7.569,7.569,0,0,0-.75,1.351ZM27.1,9.534c-.057-.022-.113-.044-.145.01-.119-.189.195-.229.223-.442l.274.139c-.1.034-.161.163-.221.3a.064.064,0,0,1-.042.014A.276.276,0,0,1,27.1,9.534Zm3.61-.03c.019-.115.088-.245.029-.333.165-.11.146.224.275.278a.373.373,0,0,1-.195.089A.213.213,0,0,1,30.71,9.5Zm-4.557-.3A1.8,1.8,0,0,1,26.57,8.8l.331.169c-.083.119-.191.163-.249.357A1.575,1.575,0,0,1,26.153,9.207Zm2.764-.126a1.3,1.3,0,0,0,.142-1.1c.617.089.5.815.3,1.326Zm-14.193-.94c.247-.419.424-.814.115-1.05-.218.06-.1.4-.307.607-.006-.138.178-.731-.079-.939-.126.03-.136.409-.306.6-.17-.157.158-.48.058-.661a8.765,8.765,0,0,1,2.508,1.2c-.248.411-.511.774-.75,1.213A3.577,3.577,0,0,1,14.724,8.142ZM25.548,8.9c.088-.156.151-.375.278-.414l.33.167c-.085.207-.237.215-.333.386ZM13.672,1.59c-.081-.034-.161-.069-.138-.137.047-.092.094-.184.14-.276,4.1,1.738,8.489,4.209,12.737,6.155C22.77,5.149,18.325,3.094,14.145.93c2.147.324,4.884,1.844,7.528,3.178,2.446,1.236,4.5,2.292,6.918,3.563A1.515,1.515,0,0,1,28.5,8.942,164.057,164.057,0,0,1,13.672,1.59ZM24.584,8.485c.073-.148.148-.295.222-.441.17-.043.422.165.635.25a1.336,1.336,0,0,1-.307.469Zm-.91-.391q.14-.275.279-.552c.2.1.4.2.606.307-.082.268-.241.294-.334.523Zm-2.206-.975c.12-.193.2-.513.361-.579.662.382,1.26.567,1.9.891a1.191,1.191,0,0,0-.472.521C22.658,7.582,21.881,7.379,21.467,7.119ZM23,3.948c-.089-.055-.126-.1-.111-.194.019-.035.038-.073.057-.11,1.913.556,4.643,2.6,6.56,3.312.442.165.59-.121.634.391C28.213,6.388,24.8,5.07,23,3.948ZM21.25,6.316c.4.124-.164.968-.364.994C20.785,7.08,21.09,6.477,21.25,6.316Zm-.525-.194c.3.185-.27.554-.335.938C20.191,6.849,20.654,6.421,20.725,6.122Zm-.606-.308c.52.133-.089.79-.226,1C19.783,6.538,20.037,6.149,20.119,5.814Zm-.277-.138c-.212.316-.188.553-.361.854C19.482,6.334,19.524,5.676,19.842,5.676Zm3.216-2.529.083-.166c2,1.142,4.562,2.109,6.558,3.452A59.351,59.351,0,0,1,23.058,3.147ZM19.347,5.426c.228.122-.159.45-.2.662C19.182,5.906,19.132,5.514,19.347,5.426Zm-.58.054c.075-.145.123-.372.3-.192-.08.057-.128.219-.228.219A.138.138,0,0,1,18.767,5.479Zm-.191-.445-.2.388C18.294,5.363,18.365,4.9,18.576,5.034ZM15.238,3.7c.077.127.234.229.137.415A.338.338,0,0,1,15.238,3.7Zm-.551-.279c.2.072.083.248.165.361a.1.1,0,0,1-.051.016C14.685,3.795,14.628,3.536,14.687,3.418Zm7.512.2c.066-.13.13-.258.195-.386.309.082.209.3.08.524C22.382,3.707,22.291,3.659,22.2,3.614ZM14.135,3.14c.235.077.182.247.137.416C14.194,3.426,14.037,3.325,14.135,3.14Zm7.846-.189c.122.127-.015.342-.058.523C21.652,3.4,21.832,3.023,21.981,2.951Zm-1.049.023c.083-.166.167-.331.25-.5.183.078.184.216.414.278-.1.171-.021.281-.168.467Zm1.52-.134.083-.164c.2.073.307.175.165.359A.388.388,0,0,1,22.451,2.839Zm-2.293-.256c.167-.224.093-.368.224-.579a1.3,1.3,0,0,0,.467.307c-.089.182-.044.32-.194.523C20.49,2.751,20.325,2.667,20.159,2.584ZM19.5,2.248c.155-.124.11-.3.278-.549l.331.166c-.162.238-.038.379-.168.607C19.792,2.4,19.644,2.323,19.5,2.248Zm1.768-.074c.056-.215.52.1.524.2a.119.119,0,0,1-.11.077C21.538,2.448,21.339,2.224,21.265,2.174ZM15.941.523A4.212,4.212,0,0,1,16.413,0c.64.144,1.521.876,2.428,1.225-.069.176-.279.4-.114.5.242.056.189-.254.278-.414.165.083.33.167.5.251a1.164,1.164,0,0,0-.086.578A31.547,31.547,0,0,1,15.941.523Zm4.5,1.233c.027-.057.056-.111.083-.166.235.107.47.213.5.388A.121.121,0,0,1,20.952,2C20.807,2,20.6,1.8,20.438,1.757ZM19.861,1.4c.051-.229.341.045.357.111a.063.063,0,0,1-.058.036C20.076,1.542,19.948,1.408,19.861,1.4ZM17.35.2c.621-.116,1.539.667,2.289.948h-.011C18.974,1.145,18.052.337,17.35.2Z" transform="translate(1.13 0.966)" fill="#fff" stroke="rgba(0,0,0,0)" stroke-width="1"/>
  </g>
</svg>
