<svg xmlns="http://www.w3.org/2000/svg" xmlns:xlink="http://www.w3.org/1999/xlink" width="100.358" height="100.521" viewBox="0 0 100.358 100.521">
  <defs>
    <clipPath id="clip-path">
      <rect id="Rectangle_252" data-name="Rectangle 252" width="100.358" height="100.521" fill="none"/>
    </clipPath>
  </defs>
  <g id="Group_488" data-name="Group 488" transform="translate(0 0)">
    <g id="Group_487" data-name="Group 487" transform="translate(0 -0.001)" clip-path="url(#clip-path)">
      <path id="Path_4065" data-name="Path 4065" d="M65.348,16.975a8.269,8.269,0,1,0-8.291,8.291,8.277,8.277,0,0,0,8.291-8.291M57.057,24a7.021,7.021,0,1,1,7.021-7.022A7.008,7.008,0,0,1,57.057,24" transform="translate(4.734 0.847)" fill="#7db1c7"/>
      <path id="Path_4066" data-name="Path 4066" d="M94.7,41.017H64.5l3.03-2.44c4.513-3.633,12.082-11.16,12.082-20.756A17.838,17.838,0,0,0,66.322.606C66.306.59,66.29.573,66.274.556A.139.139,0,0,0,66.1.547,17.751,17.751,0,0,0,43.969,17.822c0,12.975,13.714,22.129,16.465,23.834l.111.069c.068.036.2.115.328.2a2.674,2.674,0,0,0,.833.408H94.7a4.347,4.347,0,0,1,0,8.695H60.453a5.659,5.659,0,0,0,0,11.319l11.267.008a4.418,4.418,0,0,1,2.985,1.687,4.325,4.325,0,0,1,.867,3.22,4.395,4.395,0,0,1-3.821,3.812l-.152.009H52.417l-.244-1.064c-.045-.183-1.184-4.585-7.2-4.585-2.025,0-6.563.442-8.272.61-.418.041-.706.068-.811.076l-.873.068L24.968,48.207a.7.7,0,0,0-.672-.335l-7.852.645a.591.591,0,0,0-.451.235.868.868,0,0,0-.1.708l6.361,18.6L13.11,69.428,7.671,60.914a.521.521,0,0,0-.546-.282l-5.018.35a.6.6,0,0,0-.429.293.685.685,0,0,0-.105.58l3.212,8.913-.529.113a.171.171,0,0,0-.241.052l-.883.189a5.214,5.214,0,0,0-2.086,1.311,4.125,4.125,0,0,0,.092,5.59,6.061,6.061,0,0,0,2.984,1.415l1.336.21L4.1,89.179a.723.723,0,0,0,.2.607.463.463,0,0,0,.42.133l4.986-.527a.681.681,0,0,0,.575-.438L13.942,79.7l9.5.235L19.837,99.756a.69.69,0,0,0,.205.55.626.626,0,0,0,.459.213l6.065-.495-.005.025a.086.086,0,0,0,.166.046c.009-.029.015-.058.024-.087l1.719-.139a.608.608,0,0,0,.544-.384l7.311-19.272,8.386-.531A9.174,9.174,0,0,0,50.7,77.223a6.557,6.557,0,0,0,1.845-3.669l.179-1.163h18.86a5.681,5.681,0,1,0,0-11.361H60.453a4.347,4.347,0,1,1,0-8.694H94.7a5.659,5.659,0,0,0,0-11.319M66.248,34.024c.27-.294.545-.584.816-.878-.138.568-.284,1.134-.433,1.7-.118.123-.235.248-.353.372.021-.2.041-.4.045-.595a.2.2,0,0,0-.139-.2c.026-.134.049-.267.065-.4m2.731-8.858c.665-.725,1.3-1.478,1.934-2.233q-.087.451-.18.9c-.6.645-1.2,1.3-1.806,1.935.025-.2.038-.4.052-.6m4.907-5.637c-.043.342-.092.683-.137,1.026-.27.3-.532.609-.8.908.038-.337.077-.674.113-1.009.274-.31.552-.617.827-.925m.483-1.826.188-.192.01.912c-.087.093-.17.189-.256.282.033-.3.074-.592.106-.889a.117.117,0,0,0-.048-.113M75,16.825c-.049.047-.1.1-.144.146-.011-.37-.021-.739-.032-1.109a.14.14,0,0,0-.218-.11q.573-.757,1.117-1.534v.007c.033.2.066.392.1.588.149,1.008.249,2.015.313,3.022q-.6.694-1.213,1.384l-.023-.816c.2-.216.386-.44.586-.655.1-.1-.059-.262-.158-.157-.148.158-.29.321-.438.48-.008-.292-.016-.582-.024-.873.084-.086.166-.174.252-.259s-.041-.189-.115-.115m-.032-5.833c.019.1.03.2.045.3a.149.149,0,0,0-.079.047l-.4.527c-.031-.377-.057-.755-.1-1.13l.371-.461c.052.238.12.473.163.712m1.831,8.68c-.045.048-.091.094-.136.142-.02-.706-.06-1.413-.129-2.117l.21-.245q.041,1.109.056,2.22m-.578.6q-.612.64-1.226,1.279c-.016-.465-.034-.93-.048-1.392-.005-.207-.011-.415-.018-.622.409-.463.817-.926,1.221-1.393q.059,1.063.071,2.128M72.294,30.792l-.553.666c.083-.163.177-.323.247-.494s-.192-.26-.274-.115a12.954,12.954,0,0,1-.726,1.12c.12-.425.237-.849.346-1.277.358-.366.716-.733,1.072-1.1-.06.367-.113.737-.174,1.1a.087.087,0,0,0,.064.1m-5.4,4.454c.163-.165.326-.333.489-.5-.281.623-.572,1.246-.824,1.879-.012.013-.024.025-.035.038.05-.192.1-.384.155-.574.078-.28.14-.563.215-.844m1.264-1.1c.043-.105.082-.214.125-.32.461-.473.923-.942,1.383-1.416l1-1.032q-.165.719-.333,1.44c-.372.448-.762.882-1.177,1.3-.516.518-1.053,1.014-1.585,1.515-.018.015-.035.032-.052.048.223-.512.43-1.031.635-1.534m6.43-13.983c0,.286,0,.575,0,.862-.214.167-.418.346-.63.516.048-.358.094-.715.14-1.073l.483-.541,0,.236m-1.011,1.694c-.249.2-.5.4-.747.612.027-.228.056-.455.082-.683.267-.29.529-.58.792-.872-.043.315-.083.629-.127.943m-.952,2.168c.059-.418.112-.836.166-1.253.246-.218.5-.425.75-.638-.052.363-.094.727-.147,1.09l-.769.8m.714-.4c-.046.32-.089.642-.137.962-.263.262-.522.53-.784.793.049-.306.1-.613.14-.92l.781-.835m-1-.745c-.416.361-.817.737-1.221,1.111.021-.118.038-.237.058-.354.418-.44.83-.884,1.243-1.328-.027.191-.052.382-.08.572m-1.282,1.481q.61-.578,1.235-1.142c-.073.462-.146.924-.227,1.384-.453.471-.9.944-1.353,1.418.124-.552.241-1.1.344-1.661m.918.72q-.084.461-.173.92-.729.742-1.447,1.5c.083-.323.172-.643.249-.968.456-.483.916-.963,1.371-1.448m-.28,1.49c-.11.553-.217,1.107-.335,1.659-.576.6-1.158,1.2-1.727,1.812q.295-.944.555-1.9.75-.788,1.506-1.571M71.256,28.7c-.131.607-.26,1.213-.4,1.82l-1.529,1.56c-.208.212-.412.425-.62.635.267-.71.521-1.426.756-2.147.592-.627,1.192-1.247,1.79-1.868m.292,1.116c.142-.6.275-1.212.4-1.823.284-.293.567-.585.852-.876-.09.572-.179,1.144-.272,1.715-.326.329-.653.655-.977.985m.494-2.29c.1-.532.2-1.066.286-1.6.262-.269.523-.54.788-.808-.078.518-.166,1.033-.246,1.55-.278.285-.553.574-.828.86m1.677-4.3c.292-.313.584-.623.875-.935,0,.307.012.613.023.919-.347.337-.7.67-1.04,1.01.05-.331.093-.664.142-.995m.056-.395c.049-.339.1-.678.146-1.017.224-.188.442-.383.668-.568,0,.245,0,.489,0,.734l-.817.851m.794-4.058c0,.28.005.561.009.841-.146.165-.288.333-.437.5.042-.331.081-.664.12-.995.1-.115.205-.23.308-.344m-2.105,3.213c-.407.444-.824.879-1.233,1.321.039-.247.088-.493.123-.74a.178.178,0,0,0-.029-.115c.278-.33.554-.664.837-.989.145-.168.3-.329.443-.5-.042.342-.094.681-.142,1.021m-1.8,2.206c-.02.091-.037.182-.056.272-.059.056-.121.108-.179.162-.533.513-1.05,1.043-1.564,1.575.012-.07.022-.142.032-.212.592-.6,1.186-1.192,1.767-1.8M68.8,26.609q.836-.884,1.709-1.729-.2.9-.423,1.8-.819.864-1.634,1.734l0-.02c.109-.587.238-1.187.344-1.788m1.144.613c-.086.329-.167.659-.259.986-.517.551-1.032,1.1-1.538,1.665.068-.333.145-.665.208-1q.8-.823,1.588-1.652m-.461,1.661c-.123.416-.242.833-.376,1.246-.086.263-.179.524-.268.787-.4.432-.789.871-1.183,1.306.138-.6.25-1.2.376-1.8q.722-.77,1.45-1.536m-.816,2.541c-.251.721-.513,1.437-.8,2.147q-.377.385-.754.773c.148-.577.3-1.152.44-1.731q.553-.6,1.109-1.189m-3.688,7.3a7.28,7.28,0,0,0,.72-1.294,7.917,7.917,0,0,0,.3-.85c.029-.055.066-.1.093-.158a.2.2,0,0,0,0-.189c.022-.089.045-.177.064-.265.081-.081.165-.16.246-.241-.024.091-.044.183-.069.274-.227.821-.485,1.638-.727,2.458-.339.253-.657.485-.958.7.118-.142.228-.291.328-.432m1.152-.665c.045-.155.088-.309.131-.464a.15.15,0,0,0,.24,0,8.59,8.59,0,0,0,.483-.794c.319-.294.632-.6.943-.887.176-.162.344-.331.519-.495-.679.813-1.357,1.628-2.044,2.434-.093.073-.181.138-.272.21m.651-.509q1.678-1.879,3.33-3.779-.1.421-.2.844a.1.1,0,0,0,.056.118c-1.094,1.063-2.186,2.012-3.191,2.817m3.924-3.541c-.174.179-.35.346-.525.519q.242-.683.457-1.375c.34-.394.676-.791,1.011-1.187a.06.06,0,0,0,.1.067l.082-.089a.078.078,0,0,0-.007-.115c-.022-.018-.044,0-.068.012.315-.372.637-.737.949-1.113.112-.135-.081-.329-.194-.193l-.11.132c.1-.449.177-.9.267-1.348.889-.924,1.771-1.852,2.628-2.8a.146.146,0,0,0-.206-.206c-.771.729-1.52,1.481-2.27,2.233.114-.6.226-1.191.331-1.788.459-.466.907-.943,1.37-1.406.124-.125-.07-.32-.194-.194-.372.375-.729.762-1.1,1.14.09-.521.181-1.041.264-1.563.377-.382.761-.756,1.143-1.134.014.291.03.582.057.872a.155.155,0,0,0,.309,0c.023-.419.029-.839.026-1.262.376-.371.747-.746,1.128-1.112.127-.123-.067-.316-.194-.194-.315.3-.624.609-.938.912-.005-.319-.012-.638-.022-.959q.609-.652,1.221-1.3c.01,1.473-.036,2.954-.1,4.448,0,.094.15.118.168.023a23.837,23.837,0,0,0,.382-4.945l.131-.139q.01.829.015,1.662a.082.082,0,0,0,.163,0c.052-.643.073-1.291.078-1.942a.082.082,0,0,0,0-.1c0-.793-.027-1.587-.075-2.38.254-.3.513-.6.766-.9.053.863.088,1.729.176,2.588a.163.163,0,0,0,.326,0,18.882,18.882,0,0,0-.192-3.739c-.041-.344-.1-.686-.149-1.028a16.429,16.429,0,0,1,.438,3.728c0,5.473-2.64,11.069-7.637,16.184m6.221-17.683c.037.016.079.013.091-.039a10.8,10.8,0,0,0-.071-5.082c.06.137.106.281.162.419a36.491,36.491,0,0,1,.568,3.643c.025.249.034.5.05.749-.25.3-.513.58-.766.875-.013-.189-.02-.377-.035-.565m-.6-6.36A12.561,12.561,0,0,1,76.9,16c-.044-.528-.092-1.054-.147-1.575-.014-.136-.229-.137-.215,0,.1.91.149,1.819.188,2.726-.075.087-.15.171-.225.257-.059-.565-.136-1.128-.223-1.687a12.661,12.661,0,0,0-.21-1.756c-.05-.325-.123-.646-.185-.968.278-.3.542-.615.823-.915.083-.089-.049-.223-.133-.134-.251.265-.487.544-.735.813-.038-.186-.066-.375-.108-.562-.173-.783-.382-1.554-.607-2.322l.248-.308c.079-.1-.058-.238-.139-.139-.059.072-.118.146-.179.218-.1-.325-.189-.652-.3-.974a.136.136,0,0,0-.112-.093.131.131,0,0,0-.2.14c.117.43.2.869.3,1.3q-.178.217-.357.432c-.07-.528-.146-1.054-.245-1.577.151-.157.289-.327.444-.48.094-.093-.05-.237-.146-.145-.124.118-.231.252-.353.373C73.928,7.812,73.732,7,73.514,6.2a16.723,16.723,0,0,1,2.813,3.763M68.714,6.119c.052-.072.105-.144.158-.216.088.134.178.265.262.4l-.1.138c-.1-.111-.216-.215-.321-.324m-.495-.5.249-.333c.079.109.145.227.222.338-.068.088-.136.177-.2.265-.09-.09-.178-.181-.268-.27M66.707,4.23c-.03-.025-.06-.048-.09-.072l.5-.584c.407.478.812.958,1.188,1.461.008.011.014.024.023.035-.1.124-.19.248-.285.371q-.648-.622-1.335-1.211M65.245,5.766l.7-.822.4-.472c.145.127.294.249.437.378.079.072.15.155.229.227-.013.005-.027,0-.039.013a11.743,11.743,0,0,0-.981.931c-.094.1-.184.207-.275.312-.155-.193-.307-.385-.474-.568m-.5-.545c-.014-.014-.029-.027-.042-.042l.658-.743.414-.467c.137.116.272.237.407.354l-.421.483-.681.778c-.112-.121-.223-.245-.335-.363M64.1,4.592q.508-.576.98-1.181c.159.127.323.249.48.378l-.423.472-.644.717c-.127-.132-.262-.257-.393-.386M59.84,2.816l-.4.258c-.02-.02-.038-.042-.059-.061-.109-.11-.226-.208-.337-.316l.459-.319c.318.214.63.438.932.678-.2.149-.393.3-.586.451-.1-.108-.2-.218-.307-.325l.369-.239c.078-.052.005-.178-.073-.126m-2.484-.2a.12.12,0,0,0-.135-.088,4.727,4.727,0,0,0-1.624.514,8.683,8.683,0,0,1,2.151-1.258c.181.166.358.336.535.5l-.047.032-.152.1q-.367.087-.728.193M46.736,20.01c-.1-.17-.2-.34-.291-.513,0-.129.016-.259.022-.388.082.229.193.453.283.681,0,.026,0,.054,0,.08l.007-.068c.1.253.2.506.314.757-.111-.176-.219-.352-.324-.53,0-.055,0-.105,0-.159l-.013.14m.9,6.821a.069.069,0,0,0,.133-.036c-.016-.057-.027-.116-.044-.174A19.009,19.009,0,0,0,48.9,28.682a.145.145,0,0,0-.027.161c.148.32.314.629.485.934l.007.023a24.131,24.131,0,0,1-3.093-5.962,11.953,11.953,0,0,0,1.008,1.654c.108.449.219.9.348,1.339m3.3-21.468c.086-.064.154-.139.242-.2.021-.014.022-.034.034-.052A16.591,16.591,0,0,1,55.627,2.47a9.421,9.421,0,0,0-1.333,1.186,16.062,16.062,0,0,0-1.6.69.122.122,0,0,0-.064.155,10.408,10.408,0,0,0-3,2.419A11.89,11.89,0,0,0,48.579,8.4a8.427,8.427,0,0,1,1.1-1.829,16.589,16.589,0,0,1,1.244-1.209m-4.839,9.9c0-.156,0-.309.009-.466a.116.116,0,0,0-.1-.128,7.264,7.264,0,0,1,.225-1.783c.331-.367.657-.742.988-1.109-.115.644-.205,1.286-.271,1.918a17.58,17.58,0,0,0-.85,1.569m.3,3.6c-.01.147-.027.293-.035.44-.049-.1-.093-.2-.139-.3.033-.131.061-.261.1-.391.026.082.05.166.078.249m-.3-.12c-.043-.1-.076-.205-.114-.308.022-.192.075-.382.114-.574.037.147.078.293.121.439-.044.147-.081.3-.121.443M46,19.115c-.019.075-.039.148-.056.222,0-.106.009-.213.012-.319.014.033.03.066.044.1m-.328-1.764c0-.282.011-.563.027-.845.027-.069.061-.136.09-.206.03.265.065.529.1.79a.2.2,0,0,0-.113.134c-.031.1-.041.213-.067.318q-.021-.1-.039-.191M52.159,5.294a.1.1,0,0,0,.146.07c.193-.1.4-.167.595-.252l-.049.046A16.12,16.12,0,0,0,51.712,6.4c-.18.147-.361.292-.535.446a24.212,24.212,0,0,0-2.1,1.613,10.348,10.348,0,0,1,.932-1.246,11.841,11.841,0,0,1,2.146-1.923m-3.905,4.752c.053-.029.109-.052.163-.078-.112.159-.22.319-.328.482.054-.136.108-.271.165-.4m.76-1.463a.145.145,0,0,0,.236.094c.177-.152.361-.294.541-.44-.414.462-.8.946-1.165,1.444-.1.037-.186.1-.284.148a11.286,11.286,0,0,1,.672-1.246M47.27,11.416c-.3.333-.6.664-.9,1a4.784,4.784,0,0,1,1.077-1.754c-.06.252-.126.5-.177.757m.1,1.052a.113.113,0,0,0,.077-.059c-.012.181-.019.362-.027.543-.074.109-.149.216-.22.327.056-.27.114-.538.171-.811M50.4,7.894c.06-.06.111-.129.172-.189.093-.09.192-.172.287-.259-.077.082-.15.168-.227.251-.077.066-.157.128-.233.2M53.334,4.7c-.228.089-.452.19-.676.291.3-.19.612-.373.935-.532l-.025.033c-.078.07-.158.139-.234.208M47.52,10.349A4.563,4.563,0,0,0,46.46,11.6,16.642,16.642,0,0,1,48.2,8.4a13.168,13.168,0,0,0-.68,1.953m-1.756,5.644-.026.061c.005-.063.009-.126.014-.189,0,.042.008.084.012.127m.03,5.649c-.01-.033-.019-.067-.029-.1l0-.024c.01.042.015.083.025.125m.126.432c-.018-.049-.03-.1-.047-.15.015.05.033.1.047.15m.422-.238c-.045-.173-.089-.344-.132-.517a9.291,9.291,0,0,1-.218-1.28c.042-.218.084-.437.134-.653.069.144.144.285.219.426-.013.508-.021,1.016,0,1.525,0,.077.124.077.12,0-.021-.446-.015-.892-.012-1.337.053.094.1.19.158.283,0,.005-.011.005-.011.011a8.3,8.3,0,0,0,.087,1.744c.041.4.1.789.157,1.183-.185-.454-.359-.913-.5-1.384m.384-2.821c-.079-.222-.14-.445-.207-.67.013-.179.02-.358.036-.536.025-.08.047-.159.074-.238.067.269.151.534.228.8l-.008.052c-.023.25-.039.5-.058.754-.021-.055-.045-.108-.065-.162m0-1.738c.117-.34.241-.679.376-1.014.027-.067-.088-.116-.117-.049-.129.292-.245.589-.358.887a.083.083,0,0,0-.1.1c.007.031.018.059.025.089-.065.177-.117.357-.176.534a9.818,9.818,0,0,1-.294-2.181,17.357,17.357,0,0,1,.891-1.654.07.07,0,0,0,.092-.048c.011-.052.022-.106.033-.159.1-.155.2-.307.3-.459a6.133,6.133,0,0,0-.036,1.107.143.143,0,0,0,.037.082c0,.148,0,.3.007.443-.093.451-.2.9-.274,1.353-.088.539-.15,1.081-.212,1.622-.06-.219-.137-.432-.191-.654m1.253-4.78c.029-.038.059-.075.088-.112q-.13.415-.245.835c.044-.245.1-.485.157-.723m-.364-.612c.076-.278.148-.557.239-.826l.369-.415a8.276,8.276,0,0,0-.586,1.464c0-.053.005-.105.01-.158a.066.066,0,0,0-.032-.066M58.6,2.274l.242-.161c.087-.058.005-.2-.082-.14l-.28.19c-.156-.148-.312-.3-.47-.44.146-.035.286-.082.432-.112a4.966,4.966,0,0,0,1.173.461l-.066.045c-.049-.031-.094-.069-.144-.1-.117-.072-.215.087-.133.176-.218.035-.441.05-.658.094L58.6,2.274m1.248-.881c.251.17.489.358.735.535a5.357,5.357,0,0,1-1.666-.393c.307-.054.618-.105.931-.143m9.975,1.991A17.2,17.2,0,0,1,71.4,5.655l-.32.386c-.122-.17-.248-.337-.372-.5l.011-.016c.057-.078-.047-.168-.123-.134-.083-.112-.162-.226-.247-.337l.143-.2c.093-.132-.122-.254-.214-.126-.029.039-.057.079-.084.118-.078-.1-.147-.205-.224-.3-.16-.2-.338-.386-.5-.584.019-.025.036-.05.055-.075.087-.116-.106-.225-.192-.113l-.011.015c-.32-.38-.635-.763-.971-1.129a16.447,16.447,0,0,1,1.473.734M68.758,4.9l.469-.63c.109.133.224.258.33.392A1.592,1.592,0,0,0,69,5.224L68.758,4.9m.948-.041c.082.106.156.218.237.325q-.25.346-.5.691-.132-.2-.268-.394a2.7,2.7,0,0,1,.529-.622M70.1,5.4c.074.1.144.2.216.3-.161.189-.325.376-.477.572-.029.036-.052.076-.08.113-.053-.089-.105-.179-.16-.267l.5-.713m-.046,1.033c.139-.179.268-.365.4-.55.116.161.238.32.352.484l-.637.768c-.084-.176-.174-.348-.27-.519.05-.063.106-.12.156-.183m-.976-2.343-.473.617c-.384-.5-.793-.983-1.215-1.452l.134-.158c.086-.1-.058-.246-.146-.146l-.125.144c-.384-.425-.783-.856-1.206-1.253q.768.206,1.505.482c.527.574,1.032,1.164,1.526,1.767m-5.89-.4c-.159-.144-.329-.273-.491-.414.3-.317.6-.641.892-.968l.114.01.325.259a12.89,12.89,0,0,1-.839,1.112M61.505,2.271l-.012.008-.011-.008h.023m1.46-.477c-.259.038-.518.078-.778.105a9.578,9.578,0,0,1-1.15.05c-.226-.167-.453-.332-.683-.493a19.433,19.433,0,0,1,2.4.211c.072.041.144.081.215.126m-2.446.441h.021c.174.016.346.039.52.045.071.054.146.1.216.157-.186.136-.373.27-.559.4l-.06.047c-.26-.2-.535-.38-.808-.562.224-.027.445-.075.671-.091m.281.706.579-.431c.157.124.307.256.462.382-.206.161-.414.319-.618.483-.156-.134-.3-.281-.46-.407l.036-.026m.793-.59.112-.083c.091,0,.182,0,.273-.005.12-.008.238-.029.357-.041.112.005.224.015.336.023-.211.159-.416.325-.624.487-.152-.125-.3-.259-.453-.381m1.3-.09v0c.16.012.32.022.48.035-.272.291-.55.577-.827.862-.126-.106-.251-.214-.378-.319.244-.189.478-.389.724-.576m1.322.039a.092.092,0,0,0-.057-.134c-.055-.011-.111-.015-.166-.026l-.154-.109.018-.021.335-.054.057-.008c.174.038.35.072.523.115a.051.051,0,0,0,.027-.1c-.081-.022-.163-.036-.245-.057.337-.047.674-.094,1.01-.133.069.091.145.178.218.265-.22.308-.452.609-.686.907-.292-.219-.583-.44-.882-.648m1.73-.061c.167.19.327.382.5.566l-.63.7c-.168-.134-.335-.269-.506-.4q.326-.431.636-.867M66.627,3c.072.08.147.158.218.239.046.054.088.112.134.166l-.533.61c-.137-.115-.278-.227-.417-.34l.6-.675M64.5,1.56l-.347.055c-.018-.041-.055-.07-.093-.027-.016.018-.033.033-.048.05l-.377.059c-.121-.023-.242-.038-.363-.058a4,4,0,0,0-.633-.33,16.7,16.7,0,0,1,2.045.224L64.5,1.56m-2.976-.2a1.761,1.761,0,0,1,.891.15,19.365,19.365,0,0,0-2.184-.143l-.022-.015c.407-.039.819-.055,1.234-.064a.072.072,0,0,0,.081.071m-2.43,1.072-.143.1L58.9,2.56c-.033-.032-.066-.061-.1-.092.094-.019.192-.023.287-.039m1.445.7c.163.132.314.28.472.419-.211.171-.414.352-.622.527-.155-.173-.318-.338-.477-.507.211-.144.42-.291.627-.439m.6.534c.167.15.339.293.5.45-.217.216-.446.42-.667.633-.161-.188-.323-.376-.487-.562.217-.176.437-.347.655-.521m.217-.171c.205-.163.408-.328.614-.489.136.112.27.228.4.343-.183.188-.358.382-.544.566-.15-.148-.316-.28-.474-.42m1.163-.023c.17.148.348.285.513.438-.065.077-.115.165-.182.24-.133.15-.275.29-.415.433-.158-.18-.3-.372-.47-.543.186-.186.37-.377.553-.568m.554.829c.056-.065.105-.134.16-.2.167.157.325.324.488.485q-.332.362-.675.716c-.135-.18-.291-.343-.434-.516.156-.16.314-.319.461-.487m.325-.4a13.083,13.083,0,0,0,.836-1.154c.037.029.077.061.113.088.18.135.352.28.529.418-.3.374-.609.74-.929,1.1-.014.016-.03.032-.044.047-.169-.165-.331-.337-.5-.5m5.828,2.755c.023-.033.047-.066.07-.1.053.088.116.167.167.256-.014.022-.031.043-.045.065-.065-.072-.126-.149-.192-.22m.344.358c.016.03.031.061.046.092l-.063-.072.016-.02m.7.352.666-.816c.073.108.157.207.23.315.092.139.18.283.27.425l-.53.63c-.1.12-.2.24-.3.36a6.463,6.463,0,0,0-.332-.913m1.256-.712c-.1-.148-.217-.287-.32-.434l.3-.372q.232.41.441.833l-.224.265c-.067-.1-.134-.2-.2-.292m.574.337c.067.144.143.283.206.428.106.246.192.5.284.744l-.054.055c-.2-.339-.407-.672-.625-1Zm.564,1.365c.038.111.084.22.123.331-.05-.1-.1-.2-.151-.3l.029-.03m.538.184c-.024.018-.045.037-.068.055-.066-.176-.139-.342-.21-.514.154-.162.3-.329.461-.486.078-.078-.043-.2-.122-.122-.144.137-.276.284-.416.426-.079-.189-.152-.383-.237-.567-.093-.2-.2-.4-.3-.595l.715-.868a.144.144,0,0,0,.023-.143c.042.038.078.082.118.122q.418,1.5.706,3.023c-.163.166-.319.339-.48.508-.057-.183-.115-.364-.18-.544.043-.038.08-.082.124-.12.093-.082-.034-.251-.135-.176m.724.59c.1.529.179,1.061.258,1.593l-.362.439a11.77,11.77,0,0,0-.349-1.542c.15-.163.3-.329.453-.489M72.81,5.647q-.327.39-.656.778c-.146-.275-.3-.545-.463-.813l.136-.168c.08-.1-.057-.237-.138-.139l-.106.128a17.4,17.4,0,0,0-1.231-1.747A16.821,16.821,0,0,1,72.913,5.6a.122.122,0,0,0-.1.049M45.782,13.68a9.014,9.014,0,0,0-.068,1.54.16.16,0,0,0-.222.124c-.027.22-.047.444-.066.67a.1.1,0,0,0-.093.1,5.813,5.813,0,0,0,.041.807,14.986,14.986,0,0,0,.121,2.386,8.994,8.994,0,0,0,.156,1.63c-.007.046-.011.092-.016.138-.061-.227-.142-.45-.192-.68,0-.009-.01-.01-.013-.018a17.813,17.813,0,0,1-.192-2.557,16.478,16.478,0,0,1,.545-4.141m6.03,19.185a.09.09,0,0,0,0-.126A14.973,14.973,0,0,1,49.7,29.807a17.875,17.875,0,0,0,2.024,2.236.064.064,0,0,0,.09-.091,21.615,21.615,0,0,1-2.635-3.306c-.078-.323-.162-.643-.23-.966-.176-.841-.29-1.688-.41-2.535q.155.308.321.61a35.6,35.6,0,0,0,1.4,3.939c.021.049.1.029.082-.023-.3-.749-.577-1.512-.832-2.28q.28.36.556.721c.056.108.108.218.166.324a20.033,20.033,0,0,0,1.075,1.713c.105.176.211.349.318.522.032.089.063.179.093.268a.114.114,0,0,0-.016.145c.045.07.1.137.14.207q.439,1.252.841,2.519-.441-.457-.876-.943m2.073.376q.921,1.2,1.915,2.348c.132.152.27.3.4.454-.26-.249-.518-.5-.77-.755-.566-.688-1.132-1.377-1.66-2.1-.377-.514-.734-1.043-1.087-1.573-.025-.072-.053-.143-.078-.214q.655.859,1.314,1.721a.072.072,0,0,0-.037.116m.2,1.948c-.271-.617-.532-1.236-.777-1.864.239.3.482.6.736.891a20.13,20.13,0,0,0,2.461,2.826c.105.1.3-.035.21-.161s-.218-.268-.325-.4l.011.011a.089.089,0,0,0,.092.01c.208.354.421.708.635,1.059.06.125.113.253.174.377-1-.773-2.1-1.692-3.217-2.745m2.883,1.7c.087.093.18.181.269.272.031.123.056.247.082.372-.116-.215-.235-.429-.351-.644m-.284-1.308c.136.33.267.663.386,1,.023.07.039.142.06.212-.181-.193-.357-.391-.535-.586-.047-.083-.091-.17-.138-.255-.018-.03-.033-.059-.05-.089-.331-.791-.62-1.6-.874-2.414a9.212,9.212,0,0,1,.766,1.289c-.024,0-.044.021-.027.048.151.26.29.527.414.8m-4.457-4.665c-.013-.021-.025-.042-.037-.063l.03.041.008.022m-1.262-2.078-.722-.936c-.012-.023-.025-.046-.036-.069.217.282.451.551.688.813.024.064.047.128.07.192m-1.349-1.724a.139.139,0,0,0-.188.019c-.038-.12-.082-.237-.118-.357-.045-.144-.08-.289-.122-.433.1.161.21.313.312.471.036.1.077.2.116.3M52.968,34.1q-.3-1.04-.626-2.075c.193.28.387.557.592.829q.406,1.042.862,2.063c-.275-.265-.552-.536-.828-.817m4.8,1.207c-.041-.118-.076-.238-.115-.357.047.108.094.214.142.318a.089.089,0,0,0,0,.065c.154.343.3.691.454,1.037-.073-.124-.146-.248-.222-.372-.084-.231-.183-.457-.262-.691m4.408,5.425a.1.1,0,0,0,.035-.007l-.03.016-.005-.01m.122-.053a.1.1,0,0,0,.011-.127c-.3-.439-.573-.893-.833-1.355a.085.085,0,0,0,.149-.072c-.012-.036-.026-.071-.037-.109.014-.012.037-.015.035-.039-.029-.456-.1-.912-.151-1.366s-.089-.914-.135-1.37c-.019-.184-.31-.186-.292,0,.047.461.111.918.182,1.376.034.215.065.432.1.649-.087-.248-.168-.5-.26-.746-.043-.115-.083-.233-.126-.35l-.013-.044q-.123-.434-.223-.873c-.005-.025-.027-.03-.047-.027a1.312,1.312,0,0,1-.027-.279c.008-.182-.273-.182-.283,0a4.306,4.306,0,0,0,.43,1.62c.2.545.433,1.068.679,1.6a17.989,17.989,0,0,1-1.2-2.58c-.029-.077-.15-.045-.124.034a18.183,18.183,0,0,0,1.832,3.848.155.155,0,0,0-.125.016.169.169,0,0,0-.06.229c.039.061.08.123.121.184l-.146.08-.674-.411-.451-.472c-.038-.039-.1.022-.061.06l.268.26c-.111-.068-.23-.144-.363-.228-.08-.093-.163-.181-.239-.279s-.142-.211-.216-.314a.158.158,0,0,0,.078-.213c-.327-.706-.667-1.405-1.014-2.1-.139-.279-.29-.551-.441-.823-.061-.127-.125-.252-.184-.38q-.2-.433-.394-.869c-.12-.269-.233-.548-.377-.805a.114.114,0,0,1,.134.009c.045.027.109-.03.076-.077a.278.278,0,0,0-.419-.039c-.018.013-.013.038-.016.06-.02-.065-.043-.129-.063-.194a7.869,7.869,0,0,0-.363-1.129.082.082,0,0,0-.151.041,5.324,5.324,0,0,0,.27,1.11c.08.271.169.539.257.807a23.2,23.2,0,0,0-1.446-1.96l0,0c-.007-.007-.011-.014-.016-.021-.076-.091-.226.026-.162.125.364.572.738,1.136,1.1,1.708a.051.051,0,0,0,.089-.052c-.032-.054-.063-.108-.093-.161.3.415.574.845.849,1.274.213.595.428,1.189.67,1.772.061.146.3.081.24-.066-.1-.226-.171-.46-.262-.688.01.016.022.033.032.049.352.614.679,1.244.985,1.882a.1.1,0,0,0-.048.144c.1.152.212.292.316.439.047.1.094.21.14.314-.369-.247-.781-.531-1.233-.857-.144-.219-.3-.431-.436-.654a.021.021,0,1,0-.036.021c.1.181.223.352.33.53-.231-.168-.472-.346-.719-.533-.076-.14-.154-.28-.229-.42-.012-.087-.023-.173-.038-.26.05.019.118-.018.1-.082l-.01-.026c.131.129.252.267.386.391.056.053.11,0,.1-.064a7.17,7.17,0,0,0,.729.8c.053.048.131-.03.078-.079a7,7,0,0,1-1.153-1.429c-.045-.075-.165-.005-.118.069.1.161.22.309.335.462-.16-.176-.323-.348-.485-.521A11.8,11.8,0,0,0,55.384,33a.064.064,0,0,0-.106.063c.262.8.564,1.579.883,2.351-.35-.632-.7-1.267-1.093-1.867a.112.112,0,0,0-.193.112c.267.544.573,1.07.883,1.593-.151-.176-.291-.359-.438-.536a.1.1,0,0,0,.046-.148c-.881-1.286-1.9-2.492-2.85-3.725l-.16-.207q-.6-1.836-1.1-3.708a.072.072,0,0,0-.139.038c.236,1.081.539,2.141.87,3.193l-.508-.658q-.1-.262-.2-.521a.124.124,0,0,0,.048-.192c-.087-.112-.163-.228-.249-.341-.323-.819-.663-1.631-1.04-2.424a.052.052,0,0,0-.094.039q.3.838.614,1.672c-.357-.506-.694-1.02-1-1.549a7.639,7.639,0,0,1-.219-.974c-.023-.151-.255-.087-.231.065.005.038.016.076.023.113-.142-.269-.292-.533-.418-.812-.067-.258-.132-.517-.2-.774-.018-.065-.1-.039-.1.019-.109-.273-.229-.538-.324-.818s-.54-.152-.438.121c.208.558.446,1.115.706,1.663a24.931,24.931,0,0,0,.472,2.857c.05.238.115.472.17.709a20.191,20.191,0,0,1-1.24-2.233.111.111,0,0,0-.174-.042c-.027-.105-.054-.21-.079-.314a10.025,10.025,0,0,0,.676.838c.1.105.3-.037.208-.161-.173-.234-.336-.474-.5-.71-.235-.63-.508-1.243-.774-1.859-.016-.1-.042-.205-.058-.309q-.133-.852-.21-1.712c-.039-.438-.053-.882-.109-1.319,0-.014,0-.029,0-.043.306.487.637.957.983,1.405.214.407.417.823.656,1.209a.1.1,0,0,0,.17-.1c-.072-.159-.148-.314-.223-.471a.071.071,0,0,0,.021-.1c-.068-.1-.138-.2-.207-.3-.467-.963-.954-1.914-1.331-2.922.018-.206.033-.412.054-.619.005-.048.015-.1.02-.144A22.076,22.076,0,0,0,50.4,25.662c.059.077.191.005.134-.078a25.148,25.148,0,0,1-3.59-7.558c.077-.627.155-1.255.268-1.877.054-.3.133-.592.2-.89A26.193,26.193,0,0,0,47.817,19c.008.044.072.025.066-.018a28.43,28.43,0,0,1-.342-4.337c.008-.029.013-.058.02-.087a.141.141,0,0,0,.1-.125c.016-.2.041-.392.065-.586.139-.536.3-1.067.453-1.6A19.51,19.51,0,0,1,50.889,9.4c.068-.058-.03-.15-.1-.1a15.983,15.983,0,0,0-2.477,2.44l.019-.063a.03.03,0,0,0-.058-.016c-.024.069-.038.142-.061.211-.033.039-.064.081-.094.121A8.181,8.181,0,0,1,49.668,9.14c.174-.207.369-.393.556-.586-.155.276-.313.553-.448.839a.112.112,0,0,0,.193.113q.6-.989,1.287-1.909c.335-.28.678-.551,1.03-.81a6.612,6.612,0,0,0-.4,1.781c-.013.18.267.213.312.043a13.29,13.29,0,0,1,.846-2.372c.25-.173.5-.349.749-.52a.132.132,0,0,0,.043-.166c.016-.011.034-.019.05-.03.1-.067.038-.262-.089-.212s-.233.106-.349.161c.013-.024.024-.05.038-.073.213-.144.426-.289.642-.428a.081.081,0,0,0-.082-.14c-.093.049-.182.109-.274.161.07-.1.139-.2.214-.3A14.849,14.849,0,0,1,58,3.954a.06.06,0,0,0,0-.12,11.985,11.985,0,0,0-3.612.516c.144-.115.283-.236.43-.347.2-.148.4-.289.606-.422.034-.01.067-.025.1-.035.915-.265,1.84-.376,2.771-.555.129-.025.1-.228-.031-.227a7.024,7.024,0,0,0-1.041.1c.165-.048.332-.084.5-.128,0,.041.036.076.081.056a1.385,1.385,0,0,0,.218-.134c.169-.041.335-.094.5-.131.063.06.127.117.189.178-.211.156-.42.315-.63.472-.056.043-.007.136.056.1.235-.148.472-.3.7-.445.122.12.252.23.374.351l.026.027a5.5,5.5,0,0,0-.54.367c-.055.046.015.123.072.094a5.362,5.362,0,0,0,.569-.355h0c.111.11.216.223.326.332-.011.01-.023.019-.034.027-.031.024.009.076.042.054l.043-.03c.169.169.333.342.5.512-.31.262-.625.518-.929.787-.05.045.023.114.072.072.314-.258.638-.5.954-.758.178.18.357.36.531.543-.6.575-1.195,1.152-1.807,1.709-.049.046.023.114.072.073.643-.53,1.258-1.085,1.863-1.652.077.081.157.157.234.239.053.057.134-.027.084-.086-.071-.084-.146-.166-.217-.25.228-.215.46-.427.682-.647.169.169.321.354.482.531-.023.023-.045.049-.069.072a6.475,6.475,0,0,0-.678.677c-.059.078.052.16.123.123a3.422,3.422,0,0,0,.765-.624c.015-.015.029-.032.044-.046.148.167.3.328.444.5-.327.333-.656.663-.982.995-.091.092.043.217.139.139.351-.284.686-.591,1.011-.906.249.318.5.637.721.971A.077.077,0,0,0,63.9,6.59c-.213-.362-.453-.7-.694-1.044.247-.245.482-.5.715-.761.131.132.267.258.395.392-.073.081-.147.161-.218.244a.634.634,0,0,0-.208.371.074.074,0,0,0,.092.07.661.661,0,0,0,.342-.258c.065-.075.131-.148.2-.223.126.135.245.278.366.417a6.625,6.625,0,0,0-.7.848c-.069.108.079.206.168.129a6.262,6.262,0,0,0,.705-.785c.159.184.325.363.485.545a1.935,1.935,0,0,0-.363.544.086.086,0,0,0,.126.1,2.434,2.434,0,0,0,.415-.441c.06.066.115.134.177.2.089.093.257-.029.182-.139-.058-.087-.131-.163-.193-.246.1-.117.2-.235.308-.348a11.988,11.988,0,0,1,.969-.919c.013-.011.01-.024.018-.036.2.185.384.382.577.572L67.6,6.02q-.433.563-.864,1.128l-.432.564a2.352,2.352,0,0,0-.359.539c-.047.116.112.166.186.108a2.5,2.5,0,0,0,.42-.5l.425-.568q.423-.569.848-1.138l.116-.156c.089.089.18.176.268.264-.194.263-.388.525-.577.792-.231.327-.439.666-.658,1-.05.076.068.17.127.1.237-.28.482-.551.709-.837.216-.271.422-.548.633-.824.105.11.219.212.325.323-.43.589-.882,1.172-1.257,1.8-.071.117.1.261.2.15.459-.55.856-1.155,1.264-1.744.076.08.145.165.22.246a.087.087,0,0,0,.035.039c.143.154.279.313.42.468-.009.01-.015.02-.024.029a24.777,24.777,0,0,0-1.976,2.471c-.043.067.052.135.108.083a24.314,24.314,0,0,0,2.043-2.414c.167.185.333.37.5.556.014.031.027.061.043.091l-.371.439a6,6,0,0,0-.867,1.161c-.037.079.048.2.135.135a5.713,5.713,0,0,0,.951-1.014c.108-.132.216-.262.324-.393a.112.112,0,0,0,.152-.009c.088.1.181.2.268.3q-.362.38-.7.785a13.106,13.106,0,0,0-1.268,1.75c-.039.068.059.123.1.061.422-.6.836-1.2,1.293-1.767.208-.259.438-.5.658-.749.1.076.273-.058.191-.177-.005-.008-.012-.014-.016-.022.2-.219.384-.449.585-.665a.013.013,0,0,0-.019-.019c-.219.192-.423.4-.626.6-.106-.151-.223-.294-.333-.443l.344-.417.477-.579c.2.323.415.636.622.954-.289.32-.569.648-.836.988a10.674,10.674,0,0,0-1.49,2.266.081.081,0,0,0,.14.082c.535-.719.972-1.506,1.517-2.22.249-.326.511-.64.781-.949.076.114.148.233.228.343-.2.18-.4.367-.59.566a7.587,7.587,0,0,0-.518.607,3.071,3.071,0,0,0-.445.668c-.042.1.1.161.172.1a5.935,5.935,0,0,0,.5-.593c.17-.2.342-.392.518-.582.194-.211.41-.4.617-.6a.154.154,0,0,0,.084-.067c.057.188.116.375.168.564-.285.309-.592.6-.868.918q-.518.606-1.01,1.235a8,8,0,0,0-.906,1.3c-.044.088.067.186.142.109a14.049,14.049,0,0,0,.941-1.213q.5-.658,1.034-1.291c.234-.278.5-.53.739-.8.061.23.116.462.172.693a25.14,25.14,0,0,0-2.849,2.891c-.021.025.014.061.037.036.906-.989,1.836-1.961,2.826-2.869.065.265.129.532.191.8l-.5.6c-.712.864-1.491,1.7-2.128,2.625-.07.1.084.217.168.131.779-.815,1.449-1.756,2.158-2.633l.362-.45.138.6a.1.1,0,0,0,.193-.026,8.69,8.69,0,0,0-.082-.887c.127-.156.252-.312.378-.468.053.364.094.733.14,1.1l-1.53,2.028c-.343.456-.688.91-1.03,1.367A8.69,8.69,0,0,0,70.8,16.935a.1.1,0,0,0,.148.114,8.265,8.265,0,0,0,1.067-1.311c.358-.468.71-.94,1.065-1.411l1.346-1.785c.018.151.039.3.057.453.01.086.139.09.137,0-.007-.216-.035-.432-.047-.648l.5-.661c.075.536.142,1.075.244,1.606,0,.014.014.021.022.031-.708.773-1.422,1.539-2.108,2.331q-.795.915-1.569,1.847a16.23,16.23,0,0,0-1.507,1.926.06.06,0,0,0,.094.072A21.715,21.715,0,0,0,71.8,17.649q.795-.961,1.611-1.907c.7-.81,1.425-1.594,2.145-2.384.024.126.049.251.074.377l.023.129q-1.137,1.608-2.39,3.127c-.418.5-.846.995-1.279,1.484a14.671,14.671,0,0,0-1.294,1.506c-.046.068.048.168.117.116a9.487,9.487,0,0,0,1.394-1.405c.461-.516.905-1.048,1.341-1.584.348-.429.683-.867,1.017-1.305a.112.112,0,0,0-.024.057q.008.708.015,1.413a39.8,39.8,0,0,0-4.786,5.676c-.042.06.054.112.1.056a56.427,56.427,0,0,1,4.23-5.023c-.044.375-.1.748-.15,1.122-.314.342-.629.686-.939,1.031a.2.2,0,0,0-.3.146c-.008.075-.022.147-.03.22-.246.274-.5.54-.744.816-1,1.135-2.013,2.283-2.922,3.495,0-.032.007-.064.007-.1a.1.1,0,0,0-.2-.027,14.532,14.532,0,0,0-.342,1.571c-.137.144-.27.294-.408.438a.047.047,0,0,0,.067.067c.1-.1.2-.21.307-.313-.012.072-.026.145-.038.217a17.33,17.33,0,0,0-1.681,1.9c-.072.1.083.211.169.129.509-.485.969-1.031,1.438-1.562-.075.479-.149.958-.241,1.426-.022.112-.049.224-.071.336-.642.693-1.285,1.384-1.915,2.086-.058.065.034.159.1.1.582-.58,1.154-1.173,1.728-1.762-.072.359-.154.716-.23,1.075-.5.558-1,1.113-1.481,1.684-.081.1.052.233.139.139q.615-.66,1.233-1.315c-.1.463-.19.929-.3,1.392-.036.159-.082.315-.121.474-.3.33-.6.653-.892.984a3.414,3.414,0,0,0-.016-.609c-.015-.1-.16-.066-.169.023-.03.309-.063.611-.11.913-.109.123-.223.241-.331.365-.065.075.042.183.109.11s.11-.117.163-.176c-.01.049-.016.1-.029.149-.015.03-.041.05-.042.091s-.007.072-.008.109a7.923,7.923,0,0,1-.5,1.294c-.091.186-.207.359-.31.54-.191.205-.384.408-.574.615.024-.07.052-.143.076-.212a11.683,11.683,0,0,0,.54-2.492c.031-.285-.416-.283-.445,0a11.092,11.092,0,0,1-.237,1.354c-.179.548-.361,1.095-.581,1.627-.279.674-.618,1.32-.872,2-.046.125.137.184.2.087s.107-.2.167-.3a.127.127,0,0,0,.113-.039,3.835,3.835,0,0,0,.394-.562.1.1,0,0,0,.158.018,7.1,7.1,0,0,0,.89-1.244c.093-.144.18-.293.268-.44.106-.1.212-.207.317-.31-.233.42-.463.842-.735,1.238q-.273.4-.574.781c-.211.268-.4.542-.587.825-.094.14.106.27.223.171.035-.03.065-.06.1-.091.005.036.011.061.041.079-.7.471-1.212.784-1.458.918ZM39.711,74.966c.318-.168.633-.34.953-.5.441-.226.887-.441,1.332-.661q.257.339.511.68c-.127.066-.251.136-.378.2-.7.358-1.407.7-2.117,1.045q-.14-.385-.3-.76m-5.832-.708c-.238-.262-.477-.521-.716-.782.181-.1.362-.194.544-.29.229.265.465.524.7.788-.176.092-.349.19-.523.284M31.545,71.7l.635-.231c.186.206.38.407.565.613.094.105.185.214.279.32-.194.1-.393.183-.587.28-.3-.325-.595-.655-.892-.982m4.794-2.731c.408-.172.811-.355,1.217-.53,0,.015,0,.031.016.044.374.407.735.824,1.1,1.24l-.491.227c-.279-.282-.553-.567-.833-.848-.084-.087-.219.047-.133.133.267.264.538.525.8.79-.354.163-.7.335-1.059.5-.189-.237-.382-.471-.577-.7.1-.047.205-.1.308-.143s.026-.188-.066-.157c-.128.043-.255.089-.382.134-.135-.158-.272-.313-.409-.467.137-.057.272-.12.409-.178l.738.847c.036.042.1-.019.06-.061l-.7-.827m4.4-.2-.134.061-.417-.51c.049-.018.1-.041.146-.057.138.166.269.338.4.506m6.458,1.6q.7.9,1.353,1.84c-.208.115-.422.222-.631.336-.363-.672-.761-1.324-1.186-1.957.15-.065.3-.136.448-.2.01,0,.01-.013.016-.019m.621,2.229c-.268.147-.54.286-.81.432-.109-.188-.24-.361-.357-.544.1-.06.212-.117.316-.179a.12.12,0,0,0-.121-.207c-.109.064-.219.123-.327.185-.106-.165-.211-.33-.323-.49l.02-.01c.125-.056.016-.241-.109-.184l-.029.013c-.134-.188-.27-.371-.409-.554.3-.136.607-.274.913-.407.436.633.849,1.28,1.234,1.945m-13.2.113c.248-.128.5-.252.749-.38.193.27.387.54.558.818-.231.128-.461.261-.693.387-.2-.281-.4-.556-.614-.826m-.16-.2c-.126-.157-.252-.314-.382-.467.268-.122.538-.241.805-.365.093.118.193.233.284.352.021.029.037.058.058.086-.255.134-.513.258-.766.395m-1.588-3.107c-.3.12-.6.235-.9.353-.163-.161-.337-.312-.5-.468.321-.114.642-.234.965-.338.148.149.292.3.438.453m3.095.629-.2.073c.108-.052.217-.1.325-.151.193.233.371.476.556.715-.1.047-.2.1-.306.146q-.283-.329-.569-.657l.208-.077c.031-.011.016-.06-.014-.049m.122.9c-.337.158-.671.323-1.008.482-.189-.235-.376-.471-.574-.7.2-.106.4-.214.609-.312.037-.018.076-.034.113-.053l.264-.1c.2.225.4.452.6.677m-2.548-.827c.163.176.321.355.48.535-.149.084-.3.163-.441.26l-.383.14c-.178-.2-.365-.385-.548-.577.3-.117.595-.239.892-.359m-.954.293c-.171-.179-.336-.363-.511-.538.293-.126.586-.254.878-.377.176.183.352.365.525.552-.3.121-.593.244-.892.363m.874.6c-.049.084,0,.223.113.174.219-.091.432-.2.644-.31.2.227.383.461.569.694-.265.126-.531.252-.8.381-.205-.24-.412-.478-.62-.711-.044-.05-.093-.1-.137-.145l.227-.083m1.561-.868c-.24.113-.487.227-.729.352-.148-.167-.3-.333-.449-.5.348-.142.7-.278,1.045-.421.134.151.262.306.4.456-.088.038-.178.069-.263.11m-1.243-.216c-.177-.188-.358-.37-.538-.553.358-.151.714-.307,1.07-.463.169.2.34.394.512.589-.348.146-.7.284-1.044.427m-2.021-.069c-.17.068-.336.144-.5.217-.163-.177-.324-.355-.487-.531.158-.059.319-.11.477-.167.17.161.347.315.512.48m.1.105c.173.176.336.362.5.541-.173.07-.346.144-.521.213q-.25-.276-.5-.551c.173-.067.348-.131.52-.2m.566.606c.179.191.362.378.535.574l-.545.2c-.169-.188-.343-.373-.513-.561.174-.069.348-.142.523-.212m.572.611c.056.064.116.121.172.184.2.228.38.471.569.706-.154.073-.308.145-.461.22l-.3-.339c-.173-.193-.352-.381-.525-.573l.546-.2m.824.992c.128.161.261.318.387.48-.135.075-.267.157-.4.231l-.448-.5.462-.21m1.669-.236c-.1-.132-.207-.255-.309-.384.34-.158.68-.32,1.019-.48.112.127.226.253.336.382-.34.171-.678.348-1.017.523l-.029-.041m.962-.983.3-.142c.1.127.2.251.292.38-.089.044-.177.092-.267.137l-.325-.375M38.5,69.105c.08.128.163.256.245.384q-.165-.188-.33-.373c.015,0,.029.02.044.012s.027-.016.042-.023m4.343-.329c.328.344.627.715.934,1.081-.463.249-.924.5-1.387.75q-.456-.625-.93-1.237c.456-.205.923-.394,1.383-.593m1.58,1.277c.033.038.063.08.1.118l-.038.019c-.089-.112-.192-.212-.283-.323l.038-.02c.061.069.127.135.188.205M39.82,69.34c.106.125.207.256.314.382-.257.116-.512.237-.769.355-.087-.132-.171-.264-.258-.4l.713-.341m1.511,1.843c-.263.143-.528.284-.79.428-.145-.179-.293-.354-.439-.531.257-.152.512-.306.774-.451.15.185.3.366.454.554m2.986-.685c.172.225.323.464.486.7q-.75.336-1.5.682c-.156-.229-.324-.449-.484-.675.5-.234.994-.473,1.494-.7m-.876,1.583q.745-.354,1.5-.694c.133.192.274.378.4.575q-.76.351-1.518.71c-.128-.2-.249-.4-.38-.59m-.076.163-.072-.091.008,0,.065.1m-.205-.3-.024.012q-.263-.329-.528-.656l.058-.027c.163.225.333.444.494.671m-.679-.8-.213-.264.077-.039.2.273-.066.031m-.139.067c-.167.079-.335.158-.5.238-.055-.069-.105-.14-.159-.21-.01-.012-.021-.024-.031-.037l.476-.249.214.258m-.723.343c-.268.129-.539.255-.806.384-.056-.069-.115-.137-.171-.206l.794-.416c.063.079.122.159.183.238m-1.354.206c-.067.036-.136.072-.2.11l-.478-.488.02-.012c.091-.057.186-.105.278-.161.127.184.255.369.384.552m-.258-.8c-.088-.106-.174-.213-.264-.319s-.16-.237-.239-.357c.262-.124.525-.25.789-.373.17.2.337.409.5.614-.265.139-.528.287-.789.434m-.378-.12c.055.08.112.158.166.237-.09.053-.183.1-.272.15-.018.011-.033.024-.052.035-.215-.219-.429-.439-.645-.657.146-.07.292-.138.438-.207.124.146.244.3.365.442m-.269.5c-.411.256-.808.53-1.2.821-.21-.312-.426-.62-.652-.924.388-.192.781-.374,1.17-.562l.678.665m.111.11.484.475c-.161.088-.324.173-.485.262-.078.043-.009.159.069.118.176-.091.35-.184.524-.274l.18.176c-.246.12-.495.23-.738.351q-.413.2-.828.406-.222-.365-.461-.722c.415-.271.836-.53,1.255-.792m.7.525.181-.094c.049.068.094.138.144.206l-.147.069-.178-.181m.76.114c.269-.129.541-.253.811-.382.172.222.342.444.512.667-.27.129-.543.253-.812.386-.171-.224-.337-.451-.511-.671m1.031-.486.51-.239c.179.217.359.433.539.651-.181.084-.361.171-.541.258-.169-.224-.336-.448-.508-.669m1.21.606.456.551-.577.278c-.139-.19-.286-.374-.428-.562.183-.089.365-.179.548-.267m.6.719c.088.1.172.21.259.313.007.008.013,0,.021,0,.07.1.143.207.212.312-.205.112-.414.217-.62.328-.155-.222-.3-.451-.46-.67l.588-.282m.169-.079q.76-.362,1.527-.713l.019.026c.109.173.2.357.3.536-.475.27-.949.541-1.429.8-.136-.219-.279-.434-.419-.652m1.86-.8L45.762,72l.156-.074c.123.163.245.328.367.493-.065.037-.129.072-.193.11-.1-.163-.2-.324-.3-.48m-.158-.226c-.124-.2-.267-.378-.4-.569l.113-.05c.144.184.292.364.433.55l-.149.07m-.531-.76c-.165-.234-.315-.477-.491-.7l.042-.02c.186.224.367.452.548.68l-.1.043m-.918-.731c-.5.231-.989.472-1.484.706l-.2-.281c.472-.247.943-.491,1.415-.74.088.107.186.205.271.315m-1.953.362-.082.045c-.332-.41-.661-.823-1-1.232.043-.019.084-.039.126-.058q.485.617.952,1.245m-.224.121-.471.256c-.15-.19-.306-.373-.459-.561.064-.038.007-.136-.061-.1l-.015.009c-.165-.2-.328-.4-.495-.6.163-.075.324-.156.486-.23.337.412.677.822,1.015,1.232M40.355,69.62c-.083-.1-.162-.2-.247-.3l-.07-.083L40.525,69c.108.131.213.261.319.392-.163.072-.326.152-.489.226m-.406-.488q-.227-.27-.46-.54c.173-.079.354-.139.531-.208l.423.519-.495.229m-.573-.672c-.173-.2-.359-.385-.541-.576.191-.084.383-.166.574-.25l.523.643c-.185.06-.376.105-.556.183m.353.774-.7.324c-.118-.182-.239-.362-.355-.546.09-.052.181-.1.272-.151s.212-.107.318-.16q.235.267.466.534m-.635.969c-.154.071-.307.14-.46.213-.113-.115-.225-.23-.339-.344l.478-.229c.105.121.215.239.32.361m-.61.282c-.38.18-.76.357-1.138.542q-.142-.186-.285-.369l1.078-.512.344.339M37.2,71.4c.035.049.076.094.112.145.37.516.711,1.047,1.028,1.587l-.021.01c-.452-.545-.914-1.082-1.373-1.613L37.2,71.4m1.574,1.74c.274-.138.545-.284.821-.419.26-.127.527-.244.787-.37.212.205.42.412.631.619-.6.3-1.213.6-1.825.905-.132-.248-.27-.493-.412-.735m1.709-.837.12-.056c.167.228.344.446.516.67l-.021.011c-.2-.21-.41-.417-.614-.625m1.366,1.336c-.068-.092-.133-.184-.2-.276.07.09.143.18.212.271l-.012.005m-.25-.663c.268-.134.54-.261.808-.393.144.188.291.373.433.563-.27.131-.539.268-.807.4-.142-.192-.29-.38-.434-.57m1.371.341c.165.218.326.44.489.66-.27.144-.54.289-.811.429-.162-.229-.319-.462-.485-.689.269-.134.536-.27.806-.4m.637.86.354.477c-.191.1-.377.206-.569.3-.089.046-.18.09-.27.135-.11-.161-.222-.321-.333-.483.274-.143.546-.289.818-.433m.168-.089c.206-.111.415-.216.62-.328.053.081.111.16.165.242.033.049.113,0,.081-.048-.049-.082-.105-.16-.156-.242.475-.26.944-.531,1.416-.8.1.183.212.359.315.54-.7.375-1.4.758-2.106,1.123-.11-.165-.223-.326-.335-.488m2.435-1.351.218-.123c.128.173.259.346.388.519l-.3.162c-.093-.189-.193-.375-.3-.558m-.685-1.858c-.179-.233-.358-.465-.543-.692.223-.1.442-.212.665-.314.125-.056.016-.241-.108-.184-.231.106-.46.222-.69.328-.037-.043-.069-.09-.105-.133-.058-.07-.124-.135-.183-.2.159-.084.319-.167.478-.25.127-.067.014-.26-.113-.193-.171.092-.341.186-.512.278-.3-.343-.6-.688-.913-1.018.354-.15.7-.309,1.06-.455a27.989,27.989,0,0,1,1.892,2.433c-.31.133-.619.27-.928.4m-1.435-1.189-.034.019c-.3-.357-.6-.72-.925-1.053l.012-.005c.321.339.635.689.947,1.04m-1.13-1.2c-.149-.149-.318-.279-.473-.421l.068-.033.427.444-.022.01m-.287.121c-.454.192-.91.375-1.361.573q-.16-.2-.321-.4c.415-.2.829-.395,1.245-.592.145.142.3.276.438.422m-1.541.651c-.044.019-.086.041-.128.059l-.321-.393.133-.063q.16.2.317.4m-1.028-1.041-.535-.657c.041-.018.081-.034.122-.053.189.22.383.436.568.658-.053.014-.1.036-.155.052m-.615-.754c-.045-.057-.091-.113-.137-.169l.137-.019.118.135-.118.053m-.336-.142c.058.071.116.142.173.213-.193.087-.388.169-.581.256-.117-.121-.228-.252-.351-.365Zm-.878.193.012.015,0,0c.087.114.184.223.275.336l-.47.206c-.113-.188-.226-.375-.337-.564l.521-.071a.058.058,0,0,0-.005.075m.367.449c.167.2.329.4.5.6a4.182,4.182,0,0,0-.562.312c-.145-.23-.283-.467-.426-.7l.486-.212m-.22,1.016c-.015.012-.035.02-.05.032s-.005.033,0,.05c-.208-.235-.414-.474-.625-.705l.242-.106c.146.244.289.487.438.729m-2.5.787c-.125.046-.247.1-.37.147-.135-.152-.281-.294-.418-.443.131-.055.263-.1.394-.159.131.151.264.3.394.455m-.86-.372c-.18-.2-.361-.391-.547-.58l.425-.183c.178.2.346.4.52.6-.132.056-.265.106-.4.162m-.581-.618c-.1-.1-.188-.207-.287-.3s-.219.043-.139.139.144.165.214.248c-.369.143-.738.284-1.106.432q-.508-.513-1.031-1.014l2.2-.3c.2.208.392.415.583.626l-.437.171M31.8,68.325q.285.285.568.57c-.325.106-.644.227-.965.343-.268-.252-.534-.506-.811-.749Zm-.619.993c-.156.057-.314.108-.47.167-.128-.138-.253-.28-.383-.418a1.048,1.048,0,0,1,.48-.1q.188.174.372.351m-.728.274c-.193.077-.382.162-.574.242-.067-.078-.137-.152-.2-.23-.09-.1-.241.048-.151.151.047.056.1.111.146.167-.094.041-.189.078-.282.12l-.306-.395q.352-.16.7-.324l.294-.139c.126.135.249.273.375.408m-.75.369q.775.9,1.57,1.79l-.435.159-1.423-1.834c.1-.039.193-.077.289-.115m.213-.086c.194-.078.387-.159.582-.234.166.178.329.359.494.538-.041.02-.086.035-.126.055s-.015.113.039.094.109-.045.165-.065l.508.553c-.168.066-.333.139-.5.205-.046.018-.026.092.021.074.18-.069.358-.146.538-.216.17.185.341.367.509.554l-.634.231q-.808-.885-1.594-1.789M33.1,72.492c.154.174.308.351.461.528-.179.1-.354.208-.532.31l-.521-.569.592-.269m.859.562.4-.212c.211.274.423.546.632.823l-.35.184c-.227-.267-.452-.533-.685-.8m1.113.713c.184.242.366.485.554.725-.109.056-.216.11-.324.167-.185-.234-.372-.467-.566-.7.112-.066.225-.131.336-.2m.719.64q-.232-.395-.493-.774c.224-.134.443-.275.665-.411.169.279.324.564.474.851-.216.11-.431.224-.646.335m.466-1.368c.3-.185.6-.365.9-.555.009-.007,0-.021-.009-.015-.3.177-.615.343-.923.516-.179-.275-.366-.543-.556-.8q.518-.267,1.039-.529c.453.535.893,1.083,1.337,1.628q-.64.311-1.277.63c-.159-.3-.327-.588-.508-.87m1.924.4c.182.223.371.441.558.659q-.762.387-1.505.8-.163-.4-.362-.793c.434-.226.872-.444,1.309-.668m.788.929c.032.036.061.076.094.111.077.157.149.315.222.474-.468.247-.939.489-1.4.743-.108.059-.219.117-.328.176-.053-.205-.114-.409-.184-.61q.8-.444,1.6-.893m.37-.207c.588-.327,1.178-.651,1.777-.953l.1-.048c.134.131.265.262.4.392.038.048.074.1.113.147-.388.194-.78.382-1.166.58-.314.16-.621.33-.932.494q-.137-.308-.289-.611m2.836.773c.162-.082.32-.171.483-.256.117.157.234.313.35.471-.724.367-1.45.733-2.18,1.089-.183.09-.373.176-.562.262q-.079-.273-.169-.54c.7-.336,1.39-.675,2.078-1.027M40.743,76.5q1.195-.587,2.378-1.2c.1.14.21.279.313.42l-1.516.774c-.483.246-.974.486-1.462.735-.038-.174-.086-.348-.133-.52.14-.072.281-.146.42-.214m2.787-.825c-.1-.145-.2-.284-.3-.428l.163-.082c.228-.117.451-.246.678-.363l.32.431-.068.034-.8.408m.991-.506c-.1-.151-.205-.294-.3-.444.7-.365,1.4-.747,2.092-1.122.087.148.166.3.262.442a.122.122,0,0,0,.064.045l-2.114,1.079M46.6,73.453c.437-.237.879-.465,1.314-.705.044.078.1.151.139.23.032.058.118.007.089-.052-.041-.079-.091-.152-.132-.23.213-.118.431-.227.644-.346.122.176.246.348.366.525l-2.23,1.139a.1.1,0,0,0,0-.059,4.528,4.528,0,0,0-.2-.5m-1.061-5.411c.466.5.919,1,1.345,1.532.216.27.41.552.612.829-.62-.814-1.27-1.6-1.957-2.362M47.07,70.2c-.155.065-.307.136-.462.2a25.233,25.233,0,0,0-1.877-2.44c.035-.014.069-.031.105-.045.121-.048.068-.248-.055-.2-.064.025-.127.054-.192.08-.331-.372-.685-.726-1.038-1.079l.112-.015c.1-.016.211-.015.315-.027A38.178,38.178,0,0,1,47.07,70.2m-3.73-3.451c.369.365.731.737,1.077,1.123-.36.147-.717.3-1.076.453-.152-.156-.32-.291-.477-.441l.185-.088c.055-.026.007-.108-.048-.081l-.214.1c-.268-.251-.527-.517-.808-.746-.122-.1-.289.057-.177.176.227.238.454.474.682.711l-.077.035c-.326-.3-.64-.611-.991-.883-.1-.079-.246.055-.146.146.306.273.592.567.886.853l-1.241.574c-.14-.172-.273-.35-.416-.52.009-.033,0-.066-.046-.058-.19-.228-.388-.45-.582-.675.228-.1.459-.2.686-.3Zm-3.552.581-.076-.087.395-.054c-.106.048-.213.092-.319.14m-2.222.205c.118.205.24.409.362.612-.554.245-1.107.493-1.662.732q-.392-.459-.781-.919c-.049-.059-.135.026-.084.084l.767.879c-.136.058-.271.121-.407.179q-.531-.6-1.076-1.174ZM18.232,52.288q.357.288.709.581c-.029.031-.054.064-.083.094a.034.034,0,0,0,.048.048c.033-.03.058-.066.09-.1.143.118.291.233.431.353-.1.154-.208.308-.3.468-.02.037.033.082.061.047.115-.142.219-.293.323-.445.091.078.185.152.276.231-.154.23-.308.459-.463.687q-.3-.275-.606-.545l-.1-.3.644.669c.023.024.059-.012.036-.036l-.724-.759Zm.867,2.529,1.064,1.228c-.075.118-.158.231-.23.351-.05.082.07.145.125.074.075-.1.142-.2.215-.3.2.234.4.466.607.7a3.829,3.829,0,0,0-.4.672c-.036.082.063.181.134.1a3.779,3.779,0,0,0,.431-.587c.151.174.3.35.455.524.025.03.067-.013.042-.042-.154-.18-.308-.359-.463-.539.068-.109.136-.218.2-.324l.12-.184c.15.157.31.306.46.464.054.057.136-.027.084-.084-.151-.169-.318-.324-.473-.49q.242-.37.482-.742c.193.2.37.415.556.621-.25.436-.5.871-.746,1.309-.144.255-.3.509-.452.768-.06-.084-.12-.169-.179-.254-.025-.035-.086,0-.059.035l.2.283c-.012.023-.024.045-.037.068-.454-.516-.927-1.015-1.4-1.509Zm3.736-2.705q-.306.438-.613.875c-.193-.2-.4-.4-.6-.6.178-.321.354-.642.53-.964.234.222.456.454.68.686m.024,4.013.1-.184.181-.33c.137.16.279.317.414.479-.1.156-.2.313-.3.47-.132-.146-.261-.292-.395-.434M20.7,55.58c.166-.228.332-.455.494-.687.2.192.408.369.6.566.008.008.013.016.021.024l-.494.74q-.308-.326-.622-.644m.547.755c-.037.055-.072.109-.109.163-.07.1-.145.21-.219.316l-.6-.7c.1-.136.2-.278.3-.415.212.211.423.423.632.637m1.314-1.967c-.021.03-.041.059-.06.09-.134-.15-.258-.308-.394-.457.151.123.3.242.454.367m-.53-.672.174-.258c.186.21.366.425.555.632-.033.048-.066.1-.1.146-.208-.177-.421-.348-.632-.52m.676.79c.186.156.367.318.552.476-.043.076-.086.15-.129.225q-.247-.293-.5-.58c.025-.041.052-.08.078-.121m.1-.152.083-.127c.163.179.333.353.5.53l-.046.079c-.179-.16-.354-.325-.538-.482m-.765-1.084c-.068.1-.135.192-.2.289-.2-.16-.4-.323-.6-.478.082-.147.172-.289.253-.436.18.211.364.417.547.625m-.436.621c-.137.2-.268.4-.4.6-.168-.158-.338-.313-.509-.467.131-.225.264-.448.393-.675.172.182.35.36.52.544m-.579.866c-.158.233-.309.468-.463.7-.149-.149-.29-.309-.441-.456.143-.234.273-.474.412-.71q.248.229.491.463m.351-.1c.135-.194.276-.383.409-.579.021.023.043.045.064.067.169.185.328.38.495.567l-.355.532c-.2-.2-.407-.393-.612-.587m1.1.205c.172.2.344.392.513.589l-.225.392c-.024.042-.047.084-.071.126-.186-.194-.372-.389-.559-.578l.342-.529m.805.519.142-.258c.165.144.33.285.494.43l-.212.328c-.136-.17-.283-.332-.423-.5m.22-.4.036-.066c.156.167.312.335.47.5l-.011.018c-.162-.154-.329-.3-.495-.451m.636.572.055.057c-.019-.018-.038-.034-.058-.052l0-.005m-2.917-3.217c.043.049.087.1.128.147-.09.159-.172.323-.262.483-.165-.168-.325-.34-.491-.506.1-.154.193-.307.287-.463.114.112.225.226.338.339m-.841.351c-.145.226-.285.454-.433.677-.091-.078-.186-.15-.279-.227.075-.114.148-.229.225-.341s.142-.208.213-.313c.092.067.182.136.274.2m.053.039.2.146c.11.112.216.226.325.339-.131.234-.256.47-.383.7-.19-.17-.378-.341-.573-.506.148-.227.291-.455.434-.683m-.011,1.462c-.129.241-.268.479-.393.723-.211-.2-.437-.388-.651-.586q.234-.341.463-.685c.2.176.385.369.58.547m-.468.862c-.026.052-.057.1-.083.151a.06.06,0,0,0,.1.06c.024-.038.045-.08.07-.12.149.145.291.3.438.443-.091.142-.186.28-.276.421L19.1,54.7c.065-.09.123-.184.186-.275.218.2.446.394.661.6m-.9-.361h0L18.82,54c.14.126.281.252.42.381-.065.093-.126.189-.191.282m2.411,4,.145.2-.035-.043c-.041-.046-.087-.089-.127-.135.005-.01.013-.018.018-.026m.625.773-.586-.833c.168-.3.325-.61.488-.9.233-.416.462-.834.691-1.252.125.14.252.278.375.419l-.629.979a9.97,9.97,0,0,0-.637,1.025c-.041.084.072.193.142.109a9.471,9.471,0,0,0,.631-.961l.631-1c.145.168.3.326.443.495q-.416.734-.816,1.477c-.142.262-.294.529-.434.8-.1-.118-.2-.236-.3-.354m1.3-2.727c.1-.157.2-.313.3-.468q.207.247.414.495c-.09.155-.191.3-.28.461-.14-.166-.286-.326-.43-.487m.835.174c.208.25.419.5.629.75-.044.066-.1.125-.139.191-.059.09-.115.183-.174.273-.192-.251-.382-.5-.585-.747.086-.158.182-.309.27-.467m.105-.181c.112-.2.231-.4.346-.6.23.276.466.547.692.828-.142.2-.294.387-.431.589-.193-.279-.4-.546-.607-.818m-.115-.156c-.133-.173-.254-.353-.391-.525l.233-.366c.049.044.1.086.149.129a.063.063,0,0,0,.1-.08c.019.02.036.039.056.059s.022,0,.032,0c.059.069.116.139.174.208-.115.193-.236.383-.35.576m.048-1.219c.092-.146.184-.293.278-.439.061-.1-.093-.188-.156-.091l-.241.375c-.151-.186-.306-.37-.461-.552l.528-.964c.341.419.666.848.979,1.288-.183.293-.36.59-.539.885-.129-.167-.254-.338-.387-.5m-.721-.864c-.155-.182-.316-.359-.475-.538l.273-.422c.06-.093-.087-.178-.148-.087-.082.124-.165.248-.248.371-.185-.207-.363-.423-.554-.627.2-.3.4-.595.6-.892.382.4.745.817,1.1,1.244l-.547.951m.6-1.176.049.053,0,0-.046-.057m-.973-1.276.029-.041c.076-.112-.1-.213-.18-.112l-.047-.048c-.219-.216-.457-.411-.682-.622.114-.21.23-.419.344-.629.708.614,1.4,1.248,2.056,1.916-.135.233-.269.466-.4.7q-.543-.6-1.117-1.164m-1.147-.726q-.275.474-.546.949c-.156-.155-.309-.312-.466-.465.03-.049.063-.1.091-.148a.03.03,0,0,0-.052-.03c-.026.045-.057.089-.084.134-.073-.071-.143-.146-.216-.216.188-.279.372-.559.557-.839.239.2.486.4.716.615m-1.183.641c-.094.156-.192.307-.289.461-.078-.079-.154-.161-.234-.239l.263-.386c.013-.019.024-.037.037-.056.076.071.147.148.222.22m-.325-.25-.271.4c-.082-.08-.168-.156-.25-.236.044-.053.1-.1.139-.15s-.034-.135-.079-.079-.093.1-.138.157c-.084-.082-.171-.162-.257-.244.1-.145.2-.285.3-.43.194.179.392.354.582.536-.01.015-.021.03-.031.044m-.89-.182-.428-.4c.029-.039.06-.078.09-.117l.217-.29c.142.128.286.253.427.383-.1.142-.2.286-.306.428m-.15.21-.03.043c-.163-.113-.329-.224-.494-.336l.091-.118c.145.136.29.273.432.411m.035.033.2.186c-.072-.052-.148-.1-.22-.15Zm.517.661c-.065.1-.129.193-.2.29-.08.118-.165.237-.248.355-.133-.11-.268-.217-.4-.325.18-.18.35-.37.519-.559.111.078.217.16.327.239m-.035,5.01c.389.408.784.813,1.158,1.236a4.543,4.543,0,0,0-.3.664c-.025.075.084.142.136.079a4.382,4.382,0,0,0,.355-.538c.022.024.046.047.068.072.3.351.6.711.89,1.072a4.746,4.746,0,0,0-.289.678c-.031.1.109.149.165.069a5.026,5.026,0,0,0,.3-.53c.244.3.486.608.729.912l.359.506c.02.026.064,0,.044-.026l-.045-.064c.058.024.138-.033.094-.1-.337-.487-.7-.957-1.076-1.417.162-.324.316-.653.477-.969.234-.461.476-.917.721-1.373l.579.7c-.159.247-.321.493-.475.744-.129.213-.257.428-.382.643a2.863,2.863,0,0,0-.349.694.1.1,0,0,0,.172.1,2.7,2.7,0,0,0,.36-.578c.128-.233.26-.463.393-.692s.293-.479.44-.719q.3.364.6.726-.4.61-.8,1.221a9.438,9.438,0,0,0-.782,1.269c-.025.057.046.128.094.072a8.894,8.894,0,0,0,.79-1.167q.4-.637.8-1.272l.251.3c.059.071.174-.021.127-.1-.08-.134-.174-.26-.26-.391q.762-1.2,1.526-2.406c.038-.06-.058-.115-.1-.056L25.248,59.1c-.181-.273-.362-.545-.558-.81.065-.1.126-.212.193-.315.036-.057.08-.11.117-.167l.025.031c.044.052.133-.016.094-.072-.014-.022-.032-.042-.046-.063.5-.768,1.025-1.524,1.584-2.252.059-.076-.073-.18-.134-.1-.385.483-.734.993-1.094,1.494-.216-.3-.452-.586-.677-.879.173-.3.344-.6.521-.9.165.235.341.461.5.7a.047.047,0,0,0,.081-.047c-.156-.269-.34-.516-.509-.774.172-.289.329-.586.5-.872.038-.061-.057-.116-.1-.057-.171.264-.323.539-.49.805-.3-.459-.622-.9-.962-1.332l.01-.018c.189.2.376.4.569.6.064.065.15-.03.1-.1-.18-.229-.383-.443-.578-.663.132-.239.262-.479.394-.719.817.837,1.6,1.71,2.331,2.624.013.018.037-.007.024-.024-.735-.916-1.518-1.792-2.339-2.632l.118-.215a.073.073,0,0,0-.126-.075l-.1.174c-.658-.667-1.348-1.3-2.056-1.915.17-.309.339-.621.51-.929a.073.073,0,0,0-.125-.073q-.255.446-.514.892c-.206-.178-.407-.363-.618-.536-.018-.013-.042.011-.025.025.214.174.417.361.626.541l-.354.614c-.228-.212-.456-.422-.689-.629.17-.258.342-.514.512-.772.019-.027-.025-.053-.044-.025l-.52.749c-.21-.184-.406-.384-.62-.565a.1.1,0,0,0-.159.057c-.037-.027-.069-.059-.106-.088-.089-.067-.172.082-.087.148.281.215.541.454.81.682q-.286.408-.568.819c-.192-.181-.389-.354-.584-.532.019-.027.039-.054.058-.081s-.021-.044-.037-.022l-.053.075c-.139-.128-.282-.252-.423-.377l.148-.2c.033-.044-.041-.088-.073-.044l-.137.184c-.287-.256-.567-.52-.86-.768-.11-.092-.268.065-.158.158.3.256.588.528.883.792l-.218.293c-.027.038-.055.078-.083.116-.194-.181-.385-.37-.58-.548-.117-.107-.294.068-.176.177.206.188.4.386.607.577-.033.043-.065.087-.1.131-.2-.133-.393-.273-.593-.4-.108-.07-.206.1-.1.17.2.126.384.263.577.393-.012.018-.026.033-.037.052a.03.03,0,0,0,.047.036c.015-.016.026-.036.041-.054.167.113.333.225.5.34-.11.156-.228.306-.333.466-.018.029.025.052.045.025.115-.15.218-.31.328-.464.083.057.168.112.25.17-.165.19-.328.38-.5.564q-.5-.392-1.014-.76l-.754-2.2,6.7-.5,8.379,14.95q-.413.689-.827,1.377c-.046.077.07.143.118.069l.825-1.238,1.1,1.961-.44.066c-.27-.275-.54-.548-.8-.817-.116-.117-.3.064-.181.182l.661.682-8.182,1.212c-.049-.036-.094-.076-.143-.112l1.222-.226.671-.123a3.7,3.7,0,0,0,.694-.145.078.078,0,0,0-.021-.151,3.426,3.426,0,0,0-.671.1l-.7.124-1.4.249c-.008,0-.009.007-.014.009-.061-.045-.122-.091-.183-.137l-.089-.066c-.128-.21-.256-.419-.369-.637-.072-.142-.134-.287-.2-.432a1.725,1.725,0,0,1-.067-.315,2.961,2.961,0,0,1,.1-.909c.02-.086-.106-.15-.148-.063a1.683,1.683,0,0,0-.144.659c-.064-.17-.131-.339-.185-.512-.033-.1-.2-.06-.165.046a10.3,10.3,0,0,0,.383,1.021,1.567,1.567,0,0,0,.252.7.1.1,0,0,0,.094.031c.023.044.048.086.071.128l-.329-.246c-.057-.043-.135.057-.077.1l.572.444a5.359,5.359,0,0,0,.367.53l-.663.1ZM24.379,67.7c-.038-.061-.075-.123-.112-.184.061.049.124.1.186.146l.031.022ZM4.137,63.82c-.029.049-.053.1-.082.148-.01.014.013.027.022.013.03-.047.054-.1.082-.146.143.105.287.206.426.316-.011.018-.02.034-.03.05a4.44,4.44,0,0,0-.278.5c-.019.044.047.061.07.03a4.609,4.609,0,0,0,.3-.518h0c.161.129.31.273.466.41-.136.23-.271.463-.391.7-.253-.213-.5-.44-.753-.649l-.008,0L3.5,63.382c.213.143.426.285.632.438m1.814-.6c-.176.291-.351.581-.522.874-.157-.137-.317-.272-.477-.4q.255-.451.512-.9c.163.143.328.285.487.432m1.022,2.657c-.008.019-.018.036-.026.055-.122-.135-.253-.261-.38-.394l.033-.061c.127.131.249.268.373.4m-.83.671c-.026-.024-.054-.045-.08-.069q.166-.308.33-.615c.128.14.26.279.384.423l-.285.591c-.117-.11-.233-.222-.349-.33m.189-.751c-.11.21-.22.419-.329.63-.1-.094-.213-.18-.316-.272l.252-.792c.138.138.26.291.393.434m.541.6c.054.064.116.121.169.186.1.121.185.249.276.374-.086.157-.163.317-.242.478-.157-.152-.316-.3-.475-.45l.272-.589m-1.22-1.786.019-.033c.121.111.234.228.351.342l-.014.044c-.118-.117-.234-.238-.355-.353m.2.66c.016.015.03.033.045.049-.083.267-.168.534-.252.8-.194-.174-.395-.342-.595-.513.15-.217.283-.448.414-.678.127.116.265.219.388.341m1.542,1.787c.1.144.213.281.315.425l-.194.409c-.116-.12-.223-.247-.341-.364.075-.156.142-.316.22-.47M6.5,65.47c-.15-.156-.3-.314-.45-.466l.014-.046c.156.15.315.3.466.453L6.5,65.47m-.365-.731.325-1.02c.205.2.418.4.617.6l.015.019c-.155.291-.3.585-.459.876-.163-.163-.33-.32-.5-.478m.276-1.066L6.092,64.7c-.106-.1-.207-.206-.315-.3.166-.286.328-.575.49-.863.049.047.1.1.147.145m-1.087.6-.018.029c-.155-.142-.309-.281-.467-.418l.01-.016c.159.134.319.268.475.406M4.1,65.043c.178.156.35.318.527.476-.012.024-.025.046-.036.07-.134-.1-.263-.2-.4-.293Zm.828.749c.086.078.171.154.256.231-.089-.07-.184-.133-.275-.2l.02-.03m2.476,2.32c0,.011-.01.022-.015.033-.1-.118-.213-.231-.317-.348.109.107.223.21.332.315m.03.029c.188.18.373.362.565.535-.025.046-.049.092-.075.139-.166-.216-.331-.432-.507-.638.007-.012.011-.024.016-.036m.106-.225.191-.406c.135.189.268.377.415.556.064.079.159.009.166-.072l.033.045q-.125.234-.253.467c-.173-.2-.364-.4-.551-.59m.383-.813.049-.1c.19.225.382.45.567.681l-.072.134c-.173-.244-.359-.476-.544-.712m-.024-.03c-.1-.126-.2-.25-.3-.374.016-.03.035-.058.053-.089.1.117.2.241.3.36l-.049.1m-.378-.467c-.161-.193-.313-.393-.482-.58l.024-.052c.17.182.341.363.506.551-.016.026-.032.054-.048.081m-.363-.837c.088-.191.177-.383.265-.574.03-.065-.066-.122-.1-.056l-.257.533c-.122-.131-.241-.262-.367-.389.152-.287.309-.574.462-.861.351.375.686.765,1.015,1.16-.174.247-.341.5-.5.76-.167-.2-.343-.384-.519-.573M7.4,64c-.294-.3-.608-.583-.918-.866.039-.074.081-.147.121-.22a15.354,15.354,0,0,1,1.15,1.46c-.117-.125-.234-.252-.352-.374M6.177,62.853c-.313-.275-.642-.534-.971-.792l.506-.041c.206.194.426.376.62.581-.053.082-.1.168-.155.251M4.661,62.1c.252.205.5.417.743.631l-.519.9c-.093-.076-.182-.158-.275-.234s-.239.06-.139.139.207.181.314.269l-.009.014c-.135-.117-.265-.245-.4-.36a9.872,9.872,0,0,0,.483-1c.01-.025-.032-.036-.041-.011a9.808,9.808,0,0,1-.466.989c-.008-.005-.013-.012-.02-.018-.109-.091-.261.056-.169.152-.083-.059-.169-.114-.254-.172a1.517,1.517,0,0,0,.131-.26c.038-.089.078-.177.117-.265l.24-.539c.034-.076-.077-.14-.111-.066l-.245.55c-.042.092-.082.183-.123.275a1.757,1.757,0,0,0-.1.246c-.145-.1-.287-.2-.437-.3l-.292-.813Zm-.306,3.644.112.084c-.016.031-.032.063-.048.093Zm.213.591c.063-.1.127-.189.189-.285.341.27.672.553,1,.845-.08.155-.163.307-.242.462-.02.039.037.074.059.035.081-.148.158-.3.239-.446.15.135.306.263.453.4-.076.158-.152.316-.228.475a5.792,5.792,0,0,0-.382.885.048.048,0,0,0,.087.036,5.855,5.855,0,0,0,.446-.874c.064-.136.126-.273.19-.411.158.155.308.317.462.475-.081.188-.162.375-.231.567-.018.049.065.086.087.036.075-.172.16-.337.238-.507.114.117.233.231.343.352l-.245.513c-.012.025.025.047.037.022.079-.168.158-.337.238-.5.177.193.344.392.514.589q-.186.346-.374.689c-.021.039.038.074.059.035l.359-.672c.192.224.389.443.573.672.049.06.151-.019.109-.083-.183-.271-.385-.522-.58-.779.029-.054.056-.106.084-.159a.087.087,0,0,0,.108-.135l-.023-.024.248-.464q.239.316.472.634l-.023.038a4.75,4.75,0,0,0-.293.5c-.023.053.045.122.088.068a4.4,4.4,0,0,0,.3-.47l.015-.024c.111.151.226.3.337.453.048.065.152.009.111-.065-.108-.188-.239-.361-.354-.544.065-.1.128-.211.192-.316l.6-.991a.065.065,0,0,0-.112-.065q-.295.487-.591.974l-.168.279c-.149-.234-.293-.468-.453-.7l.075-.14a.342.342,0,0,1,.025.031c.055.068.172-.023.122-.094-.021-.029-.046-.056-.067-.086l.332-.624c.013-.024-.024-.046-.037-.022-.109.2-.218.4-.328.6-.275-.378-.563-.747-.866-1.1.152-.267.294-.54.466-.8.267.32.54.635.811.953.089.184.194.36.276.547.041.091.183.034.171-.057a.141.141,0,0,0,.169-.2,8.979,8.979,0,0,0-.69-1.063,12.41,12.41,0,0,0-2.88-3.823l.7-.056,3.543,5.543c-.011.007-.023.008-.032.02a3.727,3.727,0,0,0-.406.765,2.592,2.592,0,0,0-.2.839.073.073,0,0,0,.143.02,6.484,6.484,0,0,1,.228-.8,3.548,3.548,0,0,1,.372-.682l1.31,2.049-5.678.8Zm2.468,7.478c.16.143.321.287.48.431q-.523.247-1.039.513L5.97,74.3c.318-.2.64-.384.961-.573l.105.094m-.3,3.982a16.214,16.214,0,0,1,1.914-1.063c.325-.156.653-.3.984-.449.059-.026.121-.052.182-.077.055.043.105.091.161.133-.26.146-.514.3-.766.454-.471.287-.959.562-1.406.884a.1.1,0,0,0,.032.177c-.24.127-.479.258-.72.386l-1.537-.007-.282-.2c.262-.12.512-.258.765-.4l.974-.543,1.039-.58c.071.056.137.12.211.172.1.072.212-.083.131-.168-.041-.043-.088-.08-.131-.122l.733-.408c.087-.048.009-.181-.079-.134l-.779.425c-.066-.061-.131-.124-.2-.184.1-.047.2-.1.3-.144.022-.01.007-.048-.016-.039-.11.044-.214.1-.324.147-.136-.122-.268-.247-.407-.366.335-.182.666-.37,1.006-.541.384.336.78.653,1.18.965l-.1.047c-.325.154-.648.31-.969.475a16.524,16.524,0,0,0-1.913,1.134c-.013.01,0,.032.013.023m-3.011-1c-.032-.031-.059-.067-.091-.1.218-.161.432-.33.651-.475.05-.035.1-.066.155-.1.092.091.181.184.274.275-.3.159-.59.319-.885.48-.033-.03-.07-.054-.1-.084M1.946,73.47l0-.007c.022-.025.042-.053.065-.077.2.258.406.514.618.765l-.509.29a4.688,4.688,0,0,1-.17-.971m.918-.736c.22.3.443.606.677.9-.233.132-.466.263-.7.4-.23-.259-.462-.517-.689-.778a3.885,3.885,0,0,1,.711-.517m.792-.37c.254.257.512.51.77.762-.228.132-.455.262-.683.391-.235-.29-.456-.589-.678-.89a6.336,6.336,0,0,1,.591-.263M5.085,73.78l-.782.4c-.039-.046-.078-.093-.118-.139.045-.025.1-.042.138-.068s.013-.087-.029-.07-.11.048-.163.072c-.07-.081-.139-.162-.207-.245.239-.128.479-.259.717-.391.149.145.294.3.444.44m1.427,2.188.2-.1.363-.18.033-.016.06.055q-.457.239-.905.493c-.11-.1-.22-.205-.329-.31.3-.159.609-.315.907-.482l.042.038c.075.067.148.135.222.2l-.31.156-.251.125-.052.026.024-.011M4.549,77.476q.392-.247.78-.5c.086.079.168.159.252.237-.218.123-.443.236-.658.362a.039.039,0,0,0,.038.067c.224-.133.454-.247.681-.372.058.054.113.11.171.161.078.07.191-.041.115-.115-.043-.043-.083-.089-.127-.133.257-.139.508-.289.769-.419.054.046.1.1.158.143.088.073.215-.049.127-.127-.037-.033-.071-.069-.109-.1.319-.159.644-.309.968-.461.075.064.151.123.228.185l-.957.52-.947.516a9.753,9.753,0,0,0-.867.506c-.213-.151-.419-.312-.624-.471m-.636-3.405c-.143.071-.283.145-.423.215-.1.047-.2.094-.292.143-.071-.079-.14-.159-.212-.238.242-.118.49-.228.729-.354.065.08.132.157.2.235m-.395.3c.151-.072.3-.15.456-.224.039.047.079.1.12.143-.234.12-.47.24-.7.359-.046-.049-.09-.1-.135-.151l.263-.126m.687.049c.114.131.226.263.342.392-.228.121-.459.236-.686.358-.121-.129-.239-.261-.359-.393.234-.12.47-.236.7-.357m.445.5c.014.016.031.032.046.047-.214.135-.426.272-.637.41l-.093-.1q.346-.174.685-.36m.118.123c.136.145.275.288.416.43-.22.127-.439.259-.657.393-.128-.136-.261-.269-.388-.4q.313-.212.63-.418m.53.548c.114.114.225.23.34.341-.234.121-.471.235-.7.359l-.28-.292q.318-.207.642-.408m.438.429c.113.106.231.208.347.313-.236.137-.474.272-.7.418-.116-.118-.23-.24-.346-.359.237-.12.468-.249.7-.372m.466.42c.1.091.2.184.3.274-.259.132-.508.278-.761.418-.083-.083-.162-.172-.246-.256.233-.149.467-.292.7-.437m.484.188c-.106-.1-.207-.2-.312-.294.057-.034.113-.072.171-.106.238-.139.487-.258.728-.392.129.118.261.234.393.35-.329.143-.659.282-.981.442m-.847-.8c-.121-.118-.237-.239-.354-.359.046-.027.091-.059.137-.087.237-.143.48-.272.722-.409.139.129.278.26.418.388-.31.149-.617.308-.923.466M5.5,75.278c-.043.024-.083.052-.126.076-.142-.146-.282-.293-.419-.442.058-.037.115-.078.174-.116.2-.128.416-.244.621-.37.165.154.33.306.495.459-.248.131-.5.256-.745.394m-.464-.535-.15.1c-.012-.012-.024-.024-.035-.037.269-.151.534-.309.794-.474l.036.033c-.214.131-.434.248-.645.382M4.755,74.7c-.116-.128-.228-.259-.342-.388.265-.138.531-.272.8-.409.1.092.188.19.284.282.03.029.06.055.09.083-.279.138-.552.287-.827.432m-2-.4c.069.081.14.16.211.24l-.3.146c-.045.022-.005.088.038.066l.313-.149c.046.053.091.105.138.158l-.783.4a5.28,5.28,0,0,1-.208-.575c.2-.091.392-.191.588-.285m-.733.452c-.015-.023-.034-.043-.049-.066l-.005,0,.022-.011c.01.027.023.054.033.08m1.248.137c.12.133.237.267.358.4-.29.157-.582.309-.873.465-.114-.139-.213-.292-.32-.438.28-.14.557-.282.836-.425m.462.5c.035.038.073.076.11.114-.272.179-.533.371-.8.559-.071-.08-.152-.154-.222-.236.3-.143.61-.287.912-.438m.194.2c.126.132.252.263.382.394-.068.042-.138.08-.206.123-.205.129-.429.259-.646.4-.118-.121-.234-.245-.348-.371.272-.182.546-.36.818-.543m.885.9c.128.125.261.246.392.367-.26.169-.516.343-.765.524-.182-.143-.363-.287-.536-.443q.454-.222.909-.449m2.6-.9-.055-.047.472-.234s0-.01,0-.007l-.473.236c-.112-.1-.225-.191-.333-.288-.151-.136-.3-.276-.45-.412q.5-.28,1.015-.539c.287.26.575.52.867.777q-.52.25-1.038.514M5.9,74.231c-.092-.084-.185-.168-.276-.253-.066-.063-.128-.128-.194-.191.33-.173.663-.344.993-.517l.438.392c-.321.188-.643.376-.96.569m.009-1c.123-.022.247-.041.37-.061l-.973.5c-.152-.145-.3-.3-.451-.443a4.308,4.308,0,0,0,.874-.569l.3.263-.193.032c-.184.032-.106.314.078.282m-1.2-.263-.07.041q-.374-.364-.742-.729a8.218,8.218,0,0,1,1.094-.287l.589.527a5.5,5.5,0,0,0-.871.45M1.344,74.743a2.324,2.324,0,0,1,.417-1.057,4.929,4.929,0,0,0,.177.857c-.058.032-.114.066-.172.1l-.007,0-.126.072c-.069.037-.009.135.06.1l.011-.006c0,.011,0,.02.005.031.108.167.236.318.352.479l-.326.166a2.171,2.171,0,0,1-.291-.716c0-.005-.009,0-.008,0a2.183,2.183,0,0,0,.291.719c-.118.06-.237.12-.355.181a2.989,2.989,0,0,1-.029-.931m.634,2.22A2.626,2.626,0,0,1,1.4,75.841c.144-.069.284-.146.427-.216a2.243,2.243,0,0,0,.253.329s.011,0,.007-.005a2.286,2.286,0,0,1-.252-.328c.109-.054.215-.11.324-.163.109.147.21.3.325.442-.254.135-.507.275-.763.406-.014.008,0,.03.013.023q.4-.179.8-.363c.082.1.177.188.262.283-.174.128-.357.245-.525.378-.026.022.009.066.036.047.185-.117.365-.242.547-.363q.178.2.363.387a2.857,2.857,0,0,0-.385.3.091.091,0,0,0,.11.142,3.6,3.6,0,0,0,.436-.274c.048.047.09.1.138.147l.031.026-.416.226c-.029.016,0,.059.026.045.149-.072.3-.147.445-.22.11.1.222.2.336.3a.069.069,0,0,0,.024.073l.871.739a4.345,4.345,0,0,1-2.855-1.242M6.152,83.95c.083.487.152.976.19,1.47a20.011,20.011,0,0,1-.063,3.058l-.787.091Zm1.817-1.4c-.056.083-.115.166-.173.248,0-.058,0-.116,0-.174.049-.083.1-.166.147-.249.011.059.02.117.03.176m.03.181c.045.281.1.559.134.841-.108.15-.211.3-.316.451,0-.344-.009-.69-.018-1.034.065-.088.138-.167.2-.258m.188,1.452c.033.338.07.675.089,1.014-.163.25-.315.507-.473.761.016-.408.022-.817.027-1.223,0-.03,0-.059,0-.089.118-.157.245-.3.359-.463m.457,1.107c.12-.185.238-.372.357-.557-.01.159-.02.318-.033.477-.1.136-.207.272-.308.41-.005-.111-.009-.222-.015-.33m.664-1.038c.042-.068.086-.136.129-.2l.5-.794c-.008.211-.005.422-.026.632-.005.059-.021.115-.027.172-.2.24-.4.477-.6.723.008-.179.013-.355.019-.53m.835-2.7a.131.131,0,0,0-.053-.092c.02-.031.038-.061.058-.091,0,.14.011.281.01.421-.009-.079-.007-.159-.015-.238m-.244.2c.031.3.055.607.06.91-.217.325-.433.649-.652.974,0-.346,0-.69-.015-1.034.2-.283.407-.565.607-.85m-.857,2.283c-.151.226-.3.455-.453.682-.027-.326-.058-.652-.1-.976.172-.249.347-.5.52-.745l.019-.026c.011.354.024.71.014,1.065m-.755,1.785c0,.1,0,.2,0,.3-.2.278-.389.558-.576.845.015-.127.025-.256.036-.383.181-.255.365-.506.54-.767m0,.646c-.008.592-.01,1.184-.015,1.775l-1.18.137c.4-.633.789-1.28,1.2-1.912m.907,1.669-.6.07A13.489,13.489,0,0,0,8.672,85.9c.089-.129.183-.255.274-.382-.007.055-.005.111-.012.167-.059.54-.167,1.079-.2,1.621-.005.1.139.111.169.023a8.876,8.876,0,0,0,.369-2.264c.185-.25.377-.494.572-.737-.1.642-.239,1.27-.38,1.905-.016.076.1.135.134.056A6.1,6.1,0,0,0,10,84.974l.005-.007a11.884,11.884,0,0,0,.267-1.185c.045-.055.088-.113.134-.167s-.034-.144-.084-.086l-.015.018c.056-.357.1-.714.123-1.074l1-1.585c.083-.131-.122-.248-.207-.121l-.761,1.139q.015-.51-.009-1.023c.076-.122.162-.237.233-.361s-.114-.3-.222-.172c-.075.087-.137.183-.21.271a.137.137,0,0,0-.128.148v.019c-.306.391-.6.787-.885,1.2-.033-.418-.066-.835-.123-1.251-.023-.174-.287-.1-.264.072.07.506.116,1.014.147,1.523-.092.134-.185.269-.279.4-.1.15-.213.3-.321.452-.045-.291-.1-.578-.161-.867.1-.176.211-.349.3-.528.03-.059-.058-.111-.089-.053-.075.142-.163.271-.246.406-.013-.068-.023-.137-.038-.205.246-.444.484-.892.706-1.348.045-.093-.089-.174-.142-.082-.208.37-.427.734-.644,1.1a.146.146,0,0,0-.265.112c.018.089.027.179.044.267-.03.05-.059.1-.088.151l0,.005c0-.022,0-.045,0-.067-.005-.126-.2-.127-.2,0s0,.261,0,.392c-.093.155-.185.31-.281.464A2.055,2.055,0,0,0,6.9,83.7a.074.074,0,0,0,.11.064c.237-.134.386-.483.522-.708.02-.032.038-.065.057-.1,0,.039,0,.079,0,.118-.079.109-.155.219-.236.327-.032.043.038.1.073.057.06-.065.106-.142.162-.21,0,.372.011.745,0,1.117-.185.278-.376.553-.536.844-.068.124.1.269.2.156.115-.131.213-.276.323-.414-.019.489-.041.977-.061,1.466-.122.206-.256.406-.37.615a.116.116,0,0,0,.2.117c.055-.071.1-.148.155-.219,0,.116-.011.234-.011.35,0,.01.008.014.01.023a11.478,11.478,0,0,0-.617,1.1l-.134.015a12.186,12.186,0,0,0,.081-3.142,13.539,13.539,0,0,0-.5-2.589l.409-2.87.039.032c.033.029.081-.019.048-.048l-.075-.067.023-.166,5.781.1Zm1.332-9.88a6.681,6.681,0,0,0,2.219-1.085.06.06,0,1,0-.072-.094,6.9,6.9,0,0,1-2.317,1.177v0H10.2c.8-.459,1.619-.871,2.434-1.3.037-.02.011-.088-.03-.071A21.378,21.378,0,0,0,10,78.252l0,.007-.823,0c.425-.26.849-.519,1.28-.767q1.4-.81,2.868-1.5c.07-.033.009-.135-.06-.1q-1.5.68-2.942,1.478c-.509.283-1.028.578-1.534.892l-1.5-.007c.444-.238.893-.472,1.338-.71.035-.019.016-.052-.012-.064.249-.146.5-.3.744-.44a13.336,13.336,0,0,0,1.4-.9.086.086,0,0,0-.087-.148c-.173.079-.341.172-.51.263,0-.009,0-.019-.011-.026-.033-.037-.072-.069-.108-.105a5.68,5.68,0,0,0,.619-.289c.058-.033.019-.132-.046-.11a5.789,5.789,0,0,0-.682.291q-.531-.546-1.1-1.063c0-.008-.007-.007-.013-.012-.3-.271-.6-.538-.9-.8.176-.087.348-.18.524-.264.03-.014,0-.057-.026-.044-.186.081-.369.173-.554.258-.208-.182-.416-.367-.622-.551.269-.155.529-.324.8-.476A.043.043,0,0,0,8,72.985c-.28.156-.548.329-.825.489L6.756,73.1l.024-.013c2.715-.461,5.438-.857,8.162-1.252-.138.058-.285.1-.42.165-.083.039-.025.177.063.149.442-.139.88-.289,1.319-.434,1.281-.136,2.564-.291,3.844-.415,1.128-.11,2.258-.213,3.386-.316.157-.014.318-.025.478-.036-.88.154-1.769.26-2.624.369-.08.01-.083.137,0,.128,1.231-.127,2.446-.37,3.665-.573a10.525,10.525,0,0,0,1.659-.236l0-.016a.178.178,0,0,0-.045-.349,12.167,12.167,0,0,0-2.149.105c.839-.1,1.678-.192,2.513-.319.157-.024.121-.286-.037-.278-.1.005-.192.018-.287.024.323-.05.645-.106.969-.155.118-.016.092-.223-.029-.21-1.2.132-2.394.3-3.581.5q-1.292.1-2.575.29a.094.094,0,0,0-.083.076l-.541.058a.182.182,0,0,0-.089.049,20.408,20.408,0,0,0-2.872.562c-.134.036-.268.081-.4.118-1.394.142-2.79.3-4.164.538l0,.011a.154.154,0,0,0-.11.186c-1.739.246-3.472.522-5.2.814.134-.068.267-.139.4-.207.083-.043.01-.169-.073-.126l-.813.416-.675.114c-.346-.307-.689-.614-1.034-.923l24.908-3.393c.108.1.207.2.314.3a1.579,1.579,0,0,0-.444.114c-.064-.067-.123-.136-.186-.2-.116-.124-.3.064-.188.189.038.039.075.081.112.122l-.138.061c-.282.126-.546.281-.815.43l-.3-.385c-.031-.038-.086.016-.055.055l.287.364c-.1.059-.213.105-.317.167-.067.039-.008.136.061.1.114-.055.228-.106.343-.159l.306.391c-.114.05-.231.093-.344.146-.02.009,0,.037.018.03.117-.049.236-.093.353-.142l1.436,1.826c-.754.275-1.508.547-2.26.826-.025.009-.014.05.012.041.759-.273,1.518-.553,2.277-.829l1.1,1.4c.018.021.047-.009.031-.031l-1.073-1.384.439-.159c.3.339.618.665.928,1a.045.045,0,0,0,.05.074l.014-.007c.182.2.369.385.554.577-.686.394-1.378.777-2.048,1.195a.047.047,0,0,0,.047.081c.71-.384,1.423-.759,2.135-1.136.249.256.487.523.742.772-.193.105-.388.207-.576.32-.078.046-.01.154.069.117.214-.1.421-.214.631-.325a.077.077,0,0,0,.109-.057c.184-.1.367-.2.55-.3.2.224.4.443.6.661-.524.28-1.043.567-1.552.868-.072.043-.009.146.065.112.551-.259,1.09-.543,1.634-.817.115.123.223.253.34.374.066.068.194-.024.135-.1-.092-.124-.2-.238-.294-.361.369-.186.74-.363,1.108-.554.133.263.249.534.369.805-.619.353-1.228.72-1.8,1.122a.111.111,0,0,0,.113.192c.625-.3,1.238-.631,1.848-.966.08.191.151.388.225.582a21.121,21.121,0,0,0-2.145,1.24.081.081,0,0,0-.016.125c-2.425,0-4.855.1-7.28.2-.495-.092-1-.155-1.5-.207,1.773,0,3.545-.011,5.318-.052a.069.069,0,0,0,0-.137c-3-.068-6.008-.061-9.012-.041-1.371-.061-2.744-.1-4.116-.094-1.579,0-3.169.018-4.744.136-.214.016-.6,0-.677.264a.251.251,0,0,0,.2.328l-.168.015c-.222.022-.227.37,0,.351,2.972-.238,5.949-.37,8.918-.614,1.122.065,2.244.151,3.367.225-1.269.059-2.54.122-3.81.17a.2.2,0,0,0-.066.388l-11.045-.049m9.758-7.654a.154.154,0,0,0,.169.15l-.966.1c-.25.027-.5.052-.755.077q.773-.176,1.552-.324M13.4,77.472a.394.394,0,0,0,.407.072c.181-.005.362-.013.542-.023.271-.011.542-.023.813-.032q.948-.035,1.9-.048c.068,0,.137,0,.206,0-1.267.087-2.532.2-3.8.319a.156.156,0,0,0-.07-.29M27.958,98.657l-.839.063q.278-1.071.485-2.167c.256-.316.5-.642.75-.96l.612-.783c-.053.262-.1.524-.15.787-.018.08.1.115.123.034.1-.369.169-.745.257-1.116l.23-.294a.111.111,0,0,0-.122-.177c.086-.374.179-.745.258-1.121,0-.008.007-.015.005-.023q.374-1.792.64-3.609l.151-.188a.123.123,0,0,0-.1-.2c.029-.217.05-.436.078-.653l.261-.286c.1-.114-.065-.284-.17-.17l-.043.045c.042-.346.09-.69.125-1.037l.6-.69c-.075,1.267-.211,2.526-.38,3.789-.012.09.143.112.16.022.009-.043.012-.086.021-.128.011-.007.027,0,.032-.018a27,27,0,0,0,.687-5.136l1.942-2.309c.134-.159-.093-.389-.23-.23l-1.973,2.294a.1.1,0,0,0-.2.024c0,.07-.005.14-.007.21l-.535.622c.019-.248.032-.5.046-.744l3.239-3.587c.108-.118-.067-.294-.176-.176q-1.517,1.645-3.035,3.29c.013-.261.041-.523.048-.784,0-.09-.128-.087-.137,0-.03.331-.069.66-.1.992l-1.247,1.353-2.2,2.389a31.237,31.237,0,0,0-2.125,2.385c-.1.134.109.273.223.171A16.462,16.462,0,0,0,26.4,89.253c.008.31-.005.62,0,.929-.128.15-.257.3-.384.45-.509.6-1.072,1.189-1.582,1.81.008-.286.016-.573.015-.856a.065.065,0,0,0-.129,0c0,.34-.009.68-.024,1.02-.083.106-.16.215-.239.324,0-.057.009-.114.009-.171a.072.072,0,0,0-.145,0c0,.128-.013.255-.013.382-.07.1-.147.2-.212.3-.088.139.067.259.2.213,0,.113-.007.226-.011.339L23.872,94a.1.1,0,0,0,0,.114c-.013.257,0,.513-.025.769a10.728,10.728,0,0,0-1.1,1.305c-.07.1.078.193.161.125a8.722,8.722,0,0,0,.858-.829c-.06.522-.117,1.045-.219,1.563-.007.032.043.046.049.013.122-.557.2-1.122.275-1.687.049-.054.1-.109.147-.163-.075.437-.157.871-.238,1.309-.013.069.089.1.108.03A14.07,14.07,0,0,0,24.21,95c.218-.249.436-.5.653-.738q.4-.443.807-.887c-.079.441-.155.882-.235,1.322a14.063,14.063,0,0,0-1.315,1.7.108.108,0,0,0,.168.131,10.133,10.133,0,0,0,1.029-1.164c-.057.316-.112.632-.168.948-.268.285-.533.57-.8.855a.094.094,0,0,0,.133.134c.2-.186.4-.387.6-.579-.057.331-.122.663-.177.995,0,.022.029.031.033.009.068-.35.127-.7.193-1.052.3-.294.608-.588.9-.9-.059.442-.132.882-.2,1.322-.234.292-.48.573-.708.869-.047.061.056.139.109.082.188-.2.36-.417.544-.622-.053.308-.1.618-.154.924-.011.054.07.078.082.023.08-.364.136-.733.2-1.1.54-.608,1.081-1.213,1.6-1.839q-.114.6-.237,1.2c-.048.068-.1.134-.149.2a.1.1,0,0,0,.078.145q-.184.882-.369,1.764l-5.563.415,1.786-9.784a103.162,103.162,0,0,0,8.483-7.508c.068-.066-.035-.168-.1-.1-2.079,1.97-4.245,3.831-6.411,5.7.4-.4.783-.807,1.174-1.2l1.92-1.947L31.9,80.47a.043.043,0,0,0-.06-.06l-3.82,3.8L26.133,86.09c-.641.638-1.338,1.252-1.924,1.942-.037.046-.01.084.03.1q-.573.5-1.145.994l.642-3.516.009,0a12.114,12.114,0,0,0,.93-1.022q.467-.51.953-1c.179-.182.375-.346.558-.523.088-.066.18-.128.267-.194A18.826,18.826,0,0,0,28.041,81.5c.109-.1-.055-.267-.162-.163-.073.07-.158.128-.231.2a.119.119,0,0,0-.165-.008c-.483.42-.939.869-1.4,1.312-.491.357-1,.682-1.5,1.04a.086.086,0,0,0,.087.148c.163-.079.315-.182.471-.275-.222.23-.444.46-.66.7s-.467.5-.679.773l.962-5.269,10.179.249Zm-3.937-5.1c.079-.071.152-.149.228-.224,0,.063-.009.124-.014.186-.08.1-.154.2-.227.3,0-.089.01-.177.013-.265m2.493-4.317a.052.052,0,0,0-.054-.052c.3-.344.607-.693.91-1.029l.161-.178c-.043.341-.088.683-.133,1.026l-.883,1.036c0-.268.007-.535,0-.8m4.967-4.433q-.069,1.195-.23,2.376c.037-.446.064-.893.083-1.339l.035-.041a.1.1,0,0,0-.029-.157c.009-.231.013-.462.018-.693l.123-.146m-.355.96c-.191.216-.383.431-.575.647.016-.181.021-.362.036-.544l.556-.66c-.007.185-.008.372-.018.557m-.889,1-1.672,1.879c.008-.133.014-.267.022-.4l.2-.234,1.52-1.808c-.022.188-.047.374-.069.562m-.642,4.54a.09.09,0,0,0-.117.027c-.428.552-.869,1.09-1.317,1.621.058-.437.1-.875.146-1.313q.768-.953,1.539-1.905c-.077.524-.165,1.048-.25,1.57m-2.578,2.964c.058-.412.116-.825.167-1.24.054-.066.108-.132.16-.2L28,92.022c-.05.429-.086.859-.146,1.287-.276.323-.553.646-.837.963m.564-4.839.722-.851c-.008.127-.012.256-.021.383q-.37.416-.739.832c.012-.121.025-.242.038-.363m.151.562.525-.606c-.019.267-.029.534-.05.8l-.8.861q.041-.392.081-.783c.08-.091.161-.182.24-.273m.423.644c-.026.294-.068.587-.1.881l-.811.983c.038-.33.08-.66.116-.991Zm-1.068.762-.572.62-.025.027c.009-.223.023-.445.029-.668l.671-.767c-.034.262-.069.525-.1.788m-.315.759c.086-.094.172-.189.258-.284q-.064.518-.122,1.037l-.5.608c.026-.34.039-.681.057-1.022.1-.113.205-.226.308-.338m3.142-2.895q-.777.944-1.554,1.886c.029-.28.068-.558.093-.839L30,88.614c-.03.217-.054.436-.084.652m-1.418.612c.022-.271.027-.543.046-.815l1.643-1.893c-.042.341-.088.681-.133,1.022L28.5,89.878m.128-2.3c.012-.285.039-.569.048-.855q.438-.487.878-.973l.906-1c-.027.267-.053.532-.082.8l-1.75,2.034m-.284.33c-.228.267-.454.534-.682.8.035-.327.068-.653.1-.979l.627-.694c-.01.292-.035.581-.049.872M27.3,89.762l-.046.36c-.247.278-.493.557-.737.836,0-.09,0-.181,0-.271l.784-.925M26.394,91.1l-.715.812c-.412.469-.874.932-1.289,1.421,0-.049.008-.1.011-.147.71-.727,1.335-1.579,1.983-2.341l.011-.013c0,.09,0,.179,0,.269m-2.407,3.075a.116.116,0,0,0,.073-.026c.046-.041.089-.088.134-.131v.012c-.022.2-.057.389-.086.584-.052.054-.1.109-.154.161.021-.2.019-.4.033-.6m.365-.312c.543-.542,1.026-1.181,1.526-1.752.171-.2.341-.391.513-.586-.008.225-.03.449-.042.674L24.591,94.1c-.1.106-.2.212-.3.317.023-.185.046-.371.063-.558m1.97-1.209c-.021.349-.034.7-.064,1.045l-.667.807-.091.109c.079-.441.162-.882.242-1.324l.579-.637m-.507,2.075.386-.478c-.035.35-.078.7-.121,1.049q-.438.477-.88.951c.059-.324.118-.646.177-.97.146-.185.292-.371.438-.552m.546-.678c.161-.2.323-.4.483-.6-.039.373-.069.747-.1,1.121-.169.188-.339.373-.509.558.044-.36.094-.721.128-1.082m.338.992c-.009.11-.022.219-.03.328s.168.131.184.025c.034-.205.059-.411.089-.618.284-.317.562-.638.837-.962-.058.376-.12.753-.188,1.127-.556.648-1.09,1.312-1.627,1.976.077-.435.15-.871.21-1.308.178-.188.351-.377.524-.568m1.4-1.607c.49-.588.972-1.183,1.439-1.784-.07.421-.139.844-.214,1.265q-.689.813-1.388,1.621c.056-.369.111-.736.162-1.1m1.145-.1c-.061.332-.126.664-.191.995l-.88,1.122c-.16.2-.326.4-.488.608.063-.358.129-.715.185-1.074q.686-.826,1.373-1.651M21.926,78.311c2.112-.205,4.235-.293,6.355-.341,2.208-.049,4.453.093,6.652-.1a.09.09,0,0,0,0-.18l-.06,0c.629-.035,1.257-.067,1.885-.117a.094.094,0,0,0,0-.189c-.49-.011-.983,0-1.473,0,.714-.341,1.4-.751,2.1-1.15.066.18.138.354.2.538.025.072.154.067.144-.019a6.523,6.523,0,0,0-.113-.652c.124-.07.248-.145.372-.213.459-.249.921-.487,1.382-.731q.165.365.315.737c-.792.372-1.648.682-2.4,1.127a.107.107,0,0,0,.082.2,18.1,18.1,0,0,0,2.355-1.059l.06-.03c.067.171.131.344.193.518a14.886,14.886,0,0,0-1.907.959c-.067.043-.025.16.056.134a12.83,12.83,0,0,0,1.924-.872c.059.169.115.339.17.51-.264.139-.532.273-.784.428-.013.009-.016.023-.025.035h-.043c-.055,0-.056.047-.034.082l-.225.009q-1.631.038-3.26,0a.1.1,0,0,0,0,.205q1.66.063,3.324.047c.554-.007,1.108-.014,1.662-.039.206-.01.418-.015.629-.025-.191.093-.378.194-.57.286l-18.963-.083M39.9,77.826q.206-.092.411-.188c.02.063.043.122.061.184-.158,0-.316,0-.473,0m9.9-1.517,0,0a7.821,7.821,0,0,1-5.215,2.1L41.291,78.4c.255-.115.507-.24.76-.359.038-.005.077-.01.114-.016a6.761,6.761,0,0,0,1.394-.135c.093-.021.067-.155-.021-.16a8.463,8.463,0,0,0-.866.019c2.2-1.053,4.36-2.21,6.467-3.446a.116.116,0,0,0-.116-.2c-2.246,1.325-4.558,2.52-6.892,3.672-.227.016-.453.035-.678.043-.3.01-.59,0-.884.007-.016-.092-.036-.184-.054-.276,1.305-.623,2.578-1.353,3.857-2.007l4.787-2.456c.031.046.065.09.1.136.048.072.163.008.118-.069-.027-.045-.059-.088-.087-.132l.072-.037c.143-.074.018-.287-.125-.215l-.083.043c-.1-.159-.205-.313-.306-.47.054.035.132-.007.094-.075a20.065,20.065,0,0,0-1.9-2.723,26.283,26.283,0,0,0-2.292-2.5c-.053-.052-.11.009-.1.065-.145-.149-.292-.3-.438-.444,2.659-.225,5.766.941,6.711,3.777A5.679,5.679,0,0,1,49.8,76.309" transform="translate(0 0.001)" fill="#7db1c7"/>
      <path id="Path_4067" data-name="Path 4067" d="M22.068,57.293c.479-.678.873-1.422,1.311-2.128s.891-1.407,1.353-2.1c.049-.075-.068-.143-.118-.069q-.7,1.032-1.376,2.086a20.388,20.388,0,0,0-1.28,2.146.064.064,0,0,0,.111.065" transform="translate(2.129 5.137)" fill="#7db1c7"/>
      <path id="Path_4068" data-name="Path 4068" d="M23.137,56.767a8.461,8.461,0,0,0-.8,1.3c-.031.077.084.135.136.079A8.151,8.151,0,0,0,23.3,56.92q.431-.681.864-1.36.849-1.338,1.7-2.677c.066-.1-.1-.2-.163-.1l-1.715,2.667q-.423.657-.845,1.312" transform="translate(2.166 5.116)" fill="#7db1c7"/>
      <path id="Path_4069" data-name="Path 4069" d="M25.469,54.225q-.65,1.116-1.3,2.232l-.626,1.078a11.14,11.14,0,0,0-.645,1.17.056.056,0,0,0,.1.056,11.468,11.468,0,0,0,.69-1.144l.619-1.082q.642-1.122,1.282-2.242a.069.069,0,0,0-.118-.069" transform="translate(2.22 5.256)" fill="#7db1c7"/>
      <path id="Path_4070" data-name="Path 4070" d="M25.436,55.466l-1.181,1.853q-.295.462-.59.926a7.324,7.324,0,0,0-.556.947c-.025.057.046.128.094.072a6.931,6.931,0,0,0,.588-.861l.6-.962q.592-.946,1.185-1.892c.056-.089-.084-.17-.14-.082" transform="translate(2.241 5.376)" fill="#7db1c7"/>
      <path id="Path_4071" data-name="Path 4071" d="M24.5,58.015l-.289.494a2.053,2.053,0,0,0-.276.53.1.1,0,0,0,.172.1,2.1,2.1,0,0,0,.321-.5c.093-.166.188-.331.281-.5l.586-1.028q.594-1.045,1.189-2.091a.1.1,0,0,0-.17-.1L25.094,57q-.3.51-.6,1.019" transform="translate(2.321 5.322)" fill="#7db1c7"/>
      <path id="Path_4072" data-name="Path 4072" d="M25.262,58.215a6.469,6.469,0,0,0-.6,1c-.038.1.105.173.171.1a6.455,6.455,0,0,0,.626-.991c.213-.35.426-.7.633-1.052l1.244-2.116c.032-.053-.048-.1-.081-.047l-1.334,2.063c-.222.343-.439.691-.656,1.038" transform="translate(2.391 5.343)" fill="#7db1c7"/>
      <path id="Path_4073" data-name="Path 4073" d="M27.189,56.181q-.5.824-1,1.649c-.331.547-.691,1.088-.983,1.659a.1.1,0,0,0,.171.1c.362-.529.665-1.1.988-1.655l.972-1.664a.086.086,0,0,0-.148-.087" transform="translate(2.443 5.445)" fill="#7db1c7"/>
      <path id="Path_4074" data-name="Path 4074" d="M26.542,58.861l-.214.409a2.168,2.168,0,0,0-.208.442c-.023.09.1.173.165.1a4.417,4.417,0,0,0,.456-.83q.212-.411.426-.821.439-.849.882-1.7c.066-.127-.127-.239-.193-.112l-.885,1.7Z" transform="translate(2.533 5.46)" fill="#7db1c7"/>
      <path id="Path_4075" data-name="Path 4075" d="M26.511,59.624l-.263.419a1.493,1.493,0,0,0-.234.415.056.056,0,0,0,.093.054,1.517,1.517,0,0,0,.274-.391l.247-.391.546-.863,1.077-1.7c.056-.089-.086-.171-.142-.082l-1.072,1.7-.528.837" transform="translate(2.523 5.533)" fill="#7db1c7"/>
      <path id="Path_4076" data-name="Path 4076" d="M28.058,57.995a9.21,9.21,0,0,1-.6,1.234c-.226.387-.489.748-.745,1.116-.033.047.042.106.081.063a7.953,7.953,0,0,0,1.345-2.389c.02-.053-.061-.074-.082-.023" transform="translate(2.59 5.622)" fill="#7db1c7"/>
      <path id="Path_4077" data-name="Path 4077" d="M28.228,60.162a8.468,8.468,0,0,0,.4-.873l.388-.883c.037-.084-.088-.158-.126-.072q-.2.448-.4.9a8.394,8.394,0,0,0-.38.885.064.064,0,0,0,.117.048" transform="translate(2.726 5.654)" fill="#7db1c7"/>
      <path id="Path_4078" data-name="Path 4078" d="M21.623,79.779c2.237-1.784,4.323-3.764,6.457-5.669.106-.1-.05-.252-.158-.157-2.139,1.895-4.348,3.735-6.378,5.747-.052.052.024.123.079.079" transform="translate(2.088 7.17)" fill="#7db1c7"/>
      <path id="Path_4079" data-name="Path 4079" d="M25.877,75.337c.045-.041-.022-.107-.067-.067-1.3,1.177-2.625,2.328-3.892,3.538-.032.031.015.077.048.048,1.331-1.14,2.609-2.346,3.911-3.519" transform="translate(2.125 7.299)" fill="#7db1c7"/>
      <path id="Path_4080" data-name="Path 4080" d="M25,73.826a17.959,17.959,0,0,0-2.787,2.516c-.039.046.023.11.067.067a29.319,29.319,0,0,1,2.807-2.435c.088-.066,0-.214-.087-.148" transform="translate(2.153 7.159)" fill="#7db1c7"/>
      <path id="Path_4081" data-name="Path 4081" d="M22.678,75.545c.827-.733,1.6-1.532,2.385-2.307a.107.107,0,0,0-.151-.151c-.773.789-1.573,1.559-2.306,2.386a.051.051,0,0,0,.072.072" transform="translate(2.191 7.085)" fill="#7db1c7"/>
      <path id="Path_4082" data-name="Path 4082" d="M44.113,69.373a6.649,6.649,0,0,1,.969-.6c.121-.058.015-.229-.1-.178a10.917,10.917,0,0,0-1.935,1.243q-.977.7-1.944,1.412c-.047.035,0,.115.048.081q1.005-.648,2-1.31c.321-.214.647-.422.963-.644" transform="translate(3.984 6.651)" fill="#7db1c7"/>
      <path id="Path_4083" data-name="Path 4083" d="M45.288,69.173c-.5.353-1.026.678-1.538,1.017-.253.167-.509.33-.767.488s-.55.3-.8.483c-.037.026-.015.1.033.079A7.3,7.3,0,0,0,43,70.83q.411-.225.814-.465A17.686,17.686,0,0,0,45.362,69.3c.074-.055,0-.181-.073-.126" transform="translate(4.089 6.708)" fill="#7db1c7"/>
      <path id="Path_4084" data-name="Path 4084" d="M6.378,74.684a5.444,5.444,0,0,0,.3-.656c.1-.22.192-.442.289-.663.03-.07-.072-.132-.1-.06-.1.223-.2.446-.3.67a5.309,5.309,0,0,0-.285.666.056.056,0,0,0,.1.043" transform="translate(0.608 7.107)" fill="#7db1c7"/>
      <path id="Path_4085" data-name="Path 4085" d="M6.319,75.7a6.841,6.841,0,0,0,.975-2.073.056.056,0,0,0-.108-.03,7.611,7.611,0,0,1-1.016,2.017c-.064.089.086.177.148.086" transform="translate(0.597 7.134)" fill="#7db1c7"/>
      <path id="Path_4086" data-name="Path 4086" d="M25.259,79.094a23.989,23.989,0,0,0-2.847,2.749c-.011.013.008.031.018.019a24,24,0,0,1,2.432-2.4c-.767.74-1.546,1.486-2.244,2.292-.057.066.033.158.1.1.77-.744,1.5-1.535,2.255-2.292s1.53-1.5,2.316-2.228c.045-.042-.022-.108-.067-.067-.664.6-1.313,1.211-1.959,1.828" transform="translate(2.173 7.493)" fill="#7db1c7"/>
      <path id="Path_4087" data-name="Path 4087" d="M5.726,69.319c-.046,0-.094.039-.058.086a.056.056,0,0,0,.1-.033c0-.022.034-.043.068-.061a.166.166,0,0,1-.039.02c-.023,0-.048-.01-.069-.011" transform="translate(0.548 6.722)" fill="#7db1c7"/>
      <path id="Path_4088" data-name="Path 4088" d="M5.819,69.313a1.094,1.094,0,0,1,.1-.05l-.075.035-.03.015" transform="translate(0.564 6.718)" fill="#7db1c7"/>
      <path id="Path_4089" data-name="Path 4089" d="M9.5,70.116a12.689,12.689,0,0,0-1.409.977c-.069.053.022.173.093.121.455-.337.93-.635,1.414-.928s.969-.576,1.478-.823c.047-.023.013-.108-.036-.087a12.808,12.808,0,0,0-1.54.739" transform="translate(0.782 6.728)" fill="#7db1c7"/>
      <path id="Path_4090" data-name="Path 4090" d="M40.734,69.145a5.867,5.867,0,0,0-1.142.584.039.039,0,0,0,.039.067c.189-.092.365-.207.551-.307s.362-.185.546-.27a10.076,10.076,0,0,1,1.191-.453c.021-.007.012-.039-.009-.033a9.906,9.906,0,0,0-1.177.412" transform="translate(3.838 6.666)" fill="#7db1c7"/>
      <path id="Path_4091" data-name="Path 4091" d="M20.9,85.629c-.2,1.479-.411,2.956-.588,4.438,0,.033.054.042.059.008.223-1.475.41-2.956.613-4.435a.043.043,0,1,0-.084-.011" transform="translate(1.97 8.301)" fill="#7db1c7"/>
      <path id="Path_4092" data-name="Path 4092" d="M20.831,84.713a15.382,15.382,0,0,1,.151,2.581c0,.089.128.086.137,0a11.384,11.384,0,0,0-.1-2.634c-.018-.124-.21-.072-.19.053" transform="translate(2.02 8.204)" fill="#7db1c7"/>
      <path id="Path_4093" data-name="Path 4093" d="M42.2,61.635c-.145-.126-.359.086-.212.212a14.071,14.071,0,0,1,3.9,5.679c.038.1.2.061.166-.046a12.655,12.655,0,0,0-3.85-5.845" transform="translate(4.067 5.974)" fill="#7db1c7"/>
      <path id="Path_4094" data-name="Path 4094" d="M44.543,64c.35.63.656,1.28.977,1.925.035.073.163.022.133-.056a20.919,20.919,0,0,0-2.07-3.81c-.07-.105-.241-.007-.171.1q.6.9,1.131,1.841" transform="translate(4.208 6.015)" fill="#7db1c7"/>
      <path id="Path_4095" data-name="Path 4095" d="M44.009,62.4a20.219,20.219,0,0,1,2.081,4.8.073.073,0,0,0,.14-.038,17.629,17.629,0,0,0-2.051-4.86c-.065-.109-.236-.009-.17.1" transform="translate(4.267 6.038)" fill="#7db1c7"/>
      <path id="Path_4096" data-name="Path 4096" d="M24.787,60.5c-.747.143-1.49.294-2.232.463-.192.044-.111.347.082.3.071-.019.14-.041.212-.058h0l1-.123c.327-.041.652-.108.975-.163.067-.011.052-.123-.015-.117q-.349.025-.7.055c.238-.067.478-.128.717-.2a.082.082,0,0,0-.044-.157" transform="translate(2.177 5.868)" fill="#7db1c7"/>
      <path id="Path_4097" data-name="Path 4097" d="M54.011,30.387a16.958,16.958,0,0,0,1.626,6.462c.076.166.317.022.245-.144a25.157,25.157,0,0,1-1.694-6.343c-.015-.1-.179-.076-.177.024" transform="translate(5.238 2.939)" fill="#7db1c7"/>
      <path id="Path_4098" data-name="Path 4098" d="M53.052,31.259c.328.724.692,1.43,1.016,2.157.332.743.636,1.5.917,2.26.045.123.245.069.2-.055a25.725,25.725,0,0,0-2.005-4.435.073.073,0,0,0-.126.073" transform="translate(5.144 3.021)" fill="#7db1c7"/>
      <path id="Path_4099" data-name="Path 4099" d="M57.7,34.976c.091-.252.181-.507.25-.767a9.523,9.523,0,0,0,.307-1.948.067.067,0,0,0-.06-.076c0-.025.009-.049.012-.073.025-.2-.325-.249-.353-.048q-.176,1.213-.449,2.408c-.088.384-.188.765-.286,1.145-.033.128-.069.258-.105.387.009-.046.018-.092.026-.136.063-.308.12-.616.173-.926q.155-.885.263-1.778c.013-.1-.142-.1-.154,0q-.115.923-.276,1.841-.079.446-.169.891c-.034.17-.074.341-.11.513a7.243,7.243,0,0,0,.034-.845c.008-.343-.012-.685-.02-1.028q-.026-1.028,0-2.057c.007-.215-.324-.214-.333,0q-.048,1.028-.042,2.057c0,.343,0,.686.039,1.028a4.3,4.3,0,0,0,.15.97.078.078,0,0,0,.145.009c-.011.064-.026.127-.033.191s.1.081.126.016a2.748,2.748,0,0,0,.083-.314,2.652,2.652,0,0,0-.059.372.138.138,0,0,0,.256.069,4.325,4.325,0,0,0,.406-1.149c.066-.249.118-.5.174-.753" transform="translate(5.471 3.098)" fill="#7db1c7"/>
      <path id="Path_4100" data-name="Path 4100" d="M62.838,31.481a2.525,2.525,0,0,0,.346-.372c.111-.135.222-.271.33-.407q.324-.4.641-.813a.193.193,0,1,0-.3-.234q-.3.42-.613.834c-.1.135-.2.271-.307.406a2.741,2.741,0,0,0-.3.43.129.129,0,0,0,.2.156" transform="translate(6.073 2.867)" fill="#7db1c7"/>
    </g>
  </g>
</svg>
