<svg id="Group_504" data-name="Group 504" xmlns="http://www.w3.org/2000/svg" width="100" height="99.999" viewBox="0 0 100 99.999">
  <path id="Path_4536" data-name="Path 4536" d="M23.022,31.651l.082.038c-.053-.041-.109-.078-.162-.117l.081.08" transform="translate(0.468 0.644)" fill="#7db1c7"/>
  <path id="Path_4537" data-name="Path 4537" d="M27.762,33.276l-.055-.055c.027.055.055.108.082.162Z" transform="translate(0.565 0.678)" fill="#7db1c7"/>
  <path id="Path_4538" data-name="Path 4538" d="M26.872,32.84c.034.06.072.119.11.179q-.17-.41-.308-.831l-.242-.242c.026.057.045.117.072.173.117.242.237.485.367.72" transform="translate(0.54 0.652)" fill="#7db1c7"/>
  <path id="Path_4539" data-name="Path 4539" d="M54.135,54.215c-.007,0-.011-.006-.018-.008-.038-.008-.078,0-.116-.005.031.009.061.017.092.028,0,0,0-.008.008-.01s.022,0,.035,0" transform="translate(1.102 1.106)" fill="#7db1c7"/>
  <path id="Path_4540" data-name="Path 4540" d="M55.89,77.635a5.212,5.212,0,0,0-.86-3.973,5.267,5.267,0,0,0-4.379-2.234l-2.572.078,9.757-9.757a5.163,5.163,0,0,0-1.68-8.416l-1.087-.447.6-1.013a5.16,5.16,0,0,0-7.058-7.058l-1.013.6-.448-1.089a5.159,5.159,0,0,0-8.415-1.679l-3.893,3.893-.608-1.343a5.159,5.159,0,0,0-8.345-1.517l-1.669,1.669c.074.083.147.166.227.243.113.11.283.224.316.387a.19.19,0,0,1-.182.237c-.186,0-.345-.162-.473-.285a4.406,4.406,0,0,1-.394-.422c-.038-.045-.067-.095-.1-.141l-.9-.9a.138.138,0,0,1-.183.022,2.964,2.964,0,0,1-.743-.873c-.031-.049-.055-.1-.084-.152l-3.653-3.632a4.864,4.864,0,0,1-.82-1.138.208.208,0,0,1-.3.017,2.377,2.377,0,0,1-.5-1.487,4.734,4.734,0,0,1,.174-1.564,4.467,4.467,0,0,1,.239-.628,7,7,0,0,1,.174-1.276c.055-.228.387-.138.358.082.028-.044.047-.092.076-.136l-.006-.006c-.09-.078.034-.2.126-.139.064-.088.139-.17.21-.255a.1.1,0,0,1,.109-.134c.056-.061.1-.133.158-.193a4.839,4.839,0,0,1,.485-.4.25.25,0,0,1-.031-.433,3.588,3.588,0,0,1,2.116-.561h.005c0-.006,0-.012,0-.019s.016-.017.021-.028l-.267-.229c-.073-.063.035-.17.107-.107.095.082.188.164.282.246a.151.151,0,0,1,.082-.01l.445.138c.062,0,.121-.017.185-.017.151,0,.3.024.446.039-.208-.149-.407-.31-.619-.453-.128-.086-.008-.292.12-.206.34.228.663.48.993.721a4.75,4.75,0,0,1,.636.17c-.048-.047-.093-.1-.142-.144a.08.08,0,0,1,0-.114c-.112-.08-.219-.167-.334-.245s-.009-.261.108-.186a18.937,18.937,0,0,1,2.351,1.763,14.407,14.407,0,0,1,2.029,2.122.088.088,0,0,1-.015.12l2.538,2.538a.968.968,0,0,0,1.4-1.335.2.2,0,0,1-.281.156,1.458,1.458,0,0,1-.443-.457,3.933,3.933,0,0,1-.332-.533c-.079-.145-.146-.3-.212-.447l-.516-.517c.022.054.041.11.064.164a10.7,10.7,0,0,1,.584,1.239c.058.192-.173.282-.306.178a2.893,2.893,0,0,1-.758-1.12.221.221,0,0,1-.269.055,1.526,1.526,0,0,1-.532-.68c-.058-.109-.105-.222-.159-.333a.163.163,0,0,1-.266.065A3.991,3.991,0,0,1,26.6,32.7a8.27,8.27,0,0,1-.411-1.155l-.008-.007a.134.134,0,0,1-.166.008,3.634,3.634,0,0,1-.981-1.156L22.671,28.03c.108.261.218.522.329.787.079.191-.205.267-.306.13a6.185,6.185,0,0,1-.879-1.861.231.231,0,0,1-.106-.072,5.311,5.311,0,0,1-.755-4.118,4.357,4.357,0,0,1,2.04-2.9.221.221,0,0,1,.339.155,4.805,4.805,0,0,1,5.894.728l.668.668c.139.1.282.188.415.293a7.179,7.179,0,0,1,1.285,1.169.191.191,0,0,1-.007.234l.826.828a.1.1,0,0,1,.077.032c.17.173.329.36.494.54L41.1,32.771a.13.13,0,0,1,.172.052l.172.294,2.816,2.82a.972.972,0,1,0,1.372-1.376l-1.883-1.889a8.108,8.108,0,0,1-1.082-1.085l-1.137-1.141c.118.184.218.378.349.554a9.964,9.964,0,0,0,1,1.155c.177.176.353.35.537.516a7.1,7.1,0,0,1,.555.494.116.116,0,0,1-.14.182,3.3,3.3,0,0,1-.63-.46,7.488,7.488,0,0,1-.579-.531,10.455,10.455,0,0,1-.98-1.173,10.067,10.067,0,0,1-.891-1.519L38.82,27.726a.089.089,0,0,1-.091,0,6.312,6.312,0,0,1-1.313-1.177A12.036,12.036,0,0,1,36.6,25.5l-1.42-1.424A12.17,12.17,0,0,0,37.4,27.371a.088.088,0,0,1-.123.124,9.957,9.957,0,0,1-2.684-4.009l-.455-.457a4.821,4.821,0,0,1,.178-6.295,2.41,2.41,0,0,1,.246-.348,11.531,11.531,0,0,0-.941-.817c-.162-.121-.005-.4.161-.276a12.623,12.623,0,0,1,1.009.858,2.864,2.864,0,0,1,1.015-.594c.069-.023.143-.034.214-.051a4.794,4.794,0,0,1,5.031.813c.007-.091.089-.172.181-.1l.4.3a.189.189,0,0,1,.317-.031c.155.2.309.409.463.613l.193.145.083.061c-.086-.127.122-.245.214-.12.149.2.291.406.44.607a4.1,4.1,0,0,1,.61.488.123.123,0,0,1-.108.206c.511.7,1.028,1.392,1.521,2.1l.146.145a.973.973,0,0,0,1.376-1.376L42.7,15.171A6.786,6.786,0,0,0,31.343,18.22l-.381,1.434-1.2-.868a6.791,6.791,0,0,0-9.476,9.48l.865,1.2-1.433.38A6.769,6.769,0,0,0,16.667,31.6a6.839,6.839,0,0,0-.42,9.143l1.011,1.215-1.526.42a6.786,6.786,0,0,0-2.982,11.343L14.3,55.272l-.6.715A21.173,21.173,0,0,0,8.757,69.731l0,3.723L.285,81.932a.972.972,0,0,0,.688,1.66.964.964,0,0,0,.688-.285L6.929,78.04,6.961,78a6.365,6.365,0,0,1,.787-.868.2.2,0,0,1,.137-.045L10.2,74.772c.055-.379.116-.757.174-1.137.029-.188.054-.383.081-.581a9.342,9.342,0,0,1-.074-1.655,6.157,6.157,0,0,1,.26-1.806.2.2,0,0,1,.074-.091,19.515,19.515,0,0,1,1.179-6.477,7.52,7.52,0,0,1,.358-1.432,12.575,12.575,0,0,1,.809-1.754,7.774,7.774,0,0,1,1.04-1.53.12.12,0,0,1,.132-.023,9.458,9.458,0,0,1,1.941-2.2.186.186,0,0,1,.1-.031c.053-.054.1-.113.151-.167l6.3-6.3c.169-.209.331-.426.511-.624a.135.135,0,0,1,.105-.047q.366-.514.763-1c.16-.2.323-.4.492-.6a7.67,7.67,0,0,1,.531-.869,7.918,7.918,0,0,1,.813-.957,5.387,5.387,0,0,1,.966-.728.164.164,0,0,1,.2.256c-.286.274-.546.573-.817.861a9.207,9.207,0,0,0-.722.858c-.008.01-.014.022-.022.034l1.721-1.721a3.2,3.2,0,0,1,.765-.551,1.381,1.381,0,0,1,.784-.357,1.117,1.117,0,0,1,.266.011,3.194,3.194,0,0,1,3.666,3.167,3.1,3.1,0,0,1-.427,1.58,2.329,2.329,0,0,1-.314.965c-.068.107-.252.04-.211-.089.032-.1.059-.191.091-.286l-2.55,2.55a.98.98,0,0,0,1.386,1.387l3.767-3.777c-1.315,1.177-2.592,2.4-3.789,3.689-.137.148-.353-.071-.219-.219q1.394-1.557,2.914-2.993a35.1,35.1,0,0,1,3.164-2.615.1.1,0,0,1,.08-.016l3.471-3.481a3.19,3.19,0,0,1,1.272-.766c.062-.052.117-.113.182-.164a3.537,3.537,0,0,1,.98-.608.2.2,0,0,1,.194.333,3.776,3.776,0,0,1-.34.268,3.194,3.194,0,0,1,1.211.241,2.028,2.028,0,0,1,1.182.7,2.422,2.422,0,0,1,.39.729,3.269,3.269,0,0,1-.364,3.628l-.49.491a1.9,1.9,0,0,1-.122.149c-.014.015-.032.014-.048.021l-8.9,8.924a.973.973,0,0,0,1.376,1.377L48.942,46.994a3.2,3.2,0,0,1,2.271-.94c.1,0,.2.02.305.03A1.888,1.888,0,0,1,52.6,46.2a1.438,1.438,0,0,1,.5.436,1.5,1.5,0,0,1,1.036,1.087,1.45,1.45,0,0,1,.01.259,3.184,3.184,0,0,1,.269,1.25.211.211,0,0,1,.218.264,5.52,5.52,0,0,1-.844,1.816,5.8,5.8,0,0,1-.646.758,3.064,3.064,0,0,1-.805.616h-.01L41.143,63.856a.972.972,0,1,0,1.376,1.374l1.264-1.261c.143-.213.286-.427.44-.633A15.579,15.579,0,0,1,45.542,61.8a5.82,5.82,0,0,1,1.52-1.25.2.2,0,0,1,.16,0l4.965-4.949a3.211,3.211,0,0,1,1.542-.66,2.071,2.071,0,0,1,.545-.314,1.8,1.8,0,0,1,2.241.75,1.861,1.861,0,0,1,.213.791,3.184,3.184,0,0,1-.268,4.214l-.319.318c-.04.048-.078.1-.119.146a.108.108,0,0,1-.052.026l-.418.419c-.014.024-.022.054-.038.079a.2.2,0,0,1-.138.1L51.74,65.093c-.508.589-1.031,1.165-1.586,1.7a.1.1,0,0,1-.13.011L43,73.829a1.6,1.6,0,0,0,1.111,2.721,1.592,1.592,0,0,0,.437-.063.259.259,0,0,1,.036-.219,4.94,4.94,0,0,1,2.135-1.683,5.209,5.209,0,0,1,1.338-.405,4.282,4.282,0,0,1,.485-.048l.471-.286a3.3,3.3,0,0,1,3.552,5.568l-.745.5a6.95,6.95,0,0,1-.283.738,6.422,6.422,0,0,1-3.8,3.481.2.2,0,0,1-.157-.371,7.74,7.74,0,0,0,3.185-3.138l-1.916,1.285c-.1.072-.2.148-.3.22l-1.494,1.08a.107.107,0,0,1-.132-.008l-3.76,2.521c-.238.159-.484.3-.728.45l-.005,0h0A19.494,19.494,0,0,1,32.26,89.031l-1.7,0c-.2.048-.4.1-.6.149a.215.215,0,0,1-.259-.15l-3.829-.006a.965.965,0,0,0-.689.286l-5.429,5.429c-.2.272-.41.539-.6.816a.178.178,0,0,1-.195.068,15.59,15.59,0,0,0-1.13,2.092c-.095.219-.478.055-.386-.163.13-.309.272-.616.421-.922l-1.2,1.2c-.178.352-.34.71-.5,1.071a.953.953,0,0,0,.256.545.972.972,0,0,0,1.376,0l8.478-8.478,6.014.009a21.4,21.4,0,0,0,11.96-3.639l4.308-2.89,5.1-3.418a5.208,5.208,0,0,0,2.237-3.395m-32.1-46.3,1.827,1.538c.607.511,1.23,1.012,1.806,1.558.078.073-.03.216-.116.151-.631-.479-1.226-1.007-1.827-1.521l-1.842-1.573c-.106-.09.047-.241.152-.152M17.742,52.873a.124.124,0,0,1-.033.243,2.039,2.039,0,0,1-1.02-.243L15.67,53.891l-1.544-1.544a4.844,4.844,0,0,1-1.318-4.387,2.956,2.956,0,0,1,.179-.927,2.719,2.719,0,0,1,.8-1.124,4.844,4.844,0,0,1,.34-.416,4.8,4.8,0,0,1,1.926-1.159,3.021,3.021,0,0,1,.456-.254,2.272,2.272,0,0,1,1-.222,2.3,2.3,0,0,1,.524.085c.147-.016.294-.026.44-.028a4.845,4.845,0,0,1,.994.078,3.044,3.044,0,0,1,.937.277.189.189,0,0,1-.095.349,4.234,4.234,0,0,1-.764-.091,5.222,5.222,0,0,1,1.147.7L22.51,47.05l-5.535,5.536a5.018,5.018,0,0,0,.766.287m21.513,2.805c-.741.965-1.5,1.909-2.293,2.835-.169.2-.456-.09-.288-.288q1.172-1.371,2.412-2.678c.083-.087.244.034.168.131M49.343,81.944a.227.227,0,0,1,0,.454.227.227,0,0,1,0-.454" transform="translate(0 0.269)" fill="#7db1c7"/>
  <path id="Path_4541" data-name="Path 4541" d="M41.151,17.044l-.354-.271.577.577c-.073-.1-.148-.2-.222-.305" transform="translate(0.833 0.342)" fill="#7db1c7"/>
  <path id="Path_4542" data-name="Path 4542" d="M54.462,54.358l.018.029c.038.018.073.04.11.059a1.361,1.361,0,0,0-.129-.088" transform="translate(1.111 1.109)" fill="#7db1c7"/>
  <path id="Path_4543" data-name="Path 4543" d="M42.245,17.883l-.07-.054q.445.6.879,1.208l.7.7q-.637-.825-1.263-1.658c-.081-.064-.161-.131-.242-.192" transform="translate(0.861 0.364)" fill="#7db1c7"/>
  <path id="Path_4544" data-name="Path 4544" d="M75.977,96.139a.145.145,0,0,1-.128-.059c-.031-.042-.051-.093-.079-.137a.164.164,0,0,1-.082-.055c-.023-.03-.04-.066-.062-.1l-1.269-1.27c.009.05.021.1.031.15.044.224-.294.321-.346.095-.056-.25-.126-.495-.185-.744l-8.286-8.287a.972.972,0,0,0-.689-.286l-5.783.008a27.437,27.437,0,0,1-8.178-1.273c-.462.289-.94.553-1.414.821-.263.148-.524.3-.78.46a.412.412,0,0,1-.035.023A29.806,29.806,0,0,0,59.14,87.4l5.34-.008L74.9,97.813a.973.973,0,0,0,1.377-1.376Z" transform="translate(0.994 1.718)" fill="#7db1c7"/>
  <path id="Path_4545" data-name="Path 4545" d="M97.066,73.916a.972.972,0,1,0,.686.283.978.978,0,0,0-.686-.283" transform="translate(1.961 1.509)" fill="#7db1c7"/>
  <path id="Path_4546" data-name="Path 4546" d="M88.2,64.806l.011-8.483a29.38,29.38,0,0,0-5-16.465L74.446,26.776a6.867,6.867,0,0,0-4.478-2.948,6.976,6.976,0,0,0-1.29-.12,6.862,6.862,0,0,0-3.95,1.254A6.992,6.992,0,0,0,62.1,32.723l.12.382-1.532.93L55.2,28.543a.971.971,0,0,0-1.659.687.949.949,0,0,0,.046.234.153.153,0,0,1,.236,0,20.109,20.109,0,0,1,1.622,2.074l.68.68c-.235-.434-.477-.862-.707-1.3a.175.175,0,0,1,.3-.177c.493.831.965,1.673,1.441,2.513l1.787,1.787C58.36,33.979,57.8,32.9,57.27,31.81c-.066-.138.138-.259.207-.121.4.791.812,1.571,1.238,2.348a.122.122,0,0,1,.189.03c.471.8.962,1.591,1.45,2.382l.88.881c-.295-.444-.579-.895-.883-1.334-.077-.11.1-.211.179-.1.55.766,1.076,1.549,1.6,2.333l1.984,1.985q-.421-.745-.844-1.49a.1.1,0,0,1,.172-.1q.646,1.1,1.291,2.209l.281.28a1.82,1.82,0,0,0,1.29.548,1.74,1.74,0,0,0,.347-.06,8.311,8.311,0,0,1-.676-1.257c-.046-.108.144-.186.19-.08a7.829,7.829,0,0,0,.724,1.3,1.894,1.894,0,0,0,.549-.3,1.809,1.809,0,0,0,.435-2.388l-.613-1.011.287.789c.107.3.23.59.308.895.02.082-.1.138-.139.058-.135-.287-.23-.591-.337-.889l-.326-.909c-.028-.077.051-.118.112-.1l-.99-1.632a2.309,2.309,0,0,1-.805-1.14c-.044-.122-.071-.251-.112-.374l-.814-1.343a4.987,4.987,0,0,1,.055-5.232,7.166,7.166,0,0,1,.755-2.194c.134-.246.493-.03.371.217-.06.123-.108.25-.16.377a.684.684,0,0,1,.265-.163.7.7,0,0,1,.539.059,2.859,2.859,0,0,1,2.457-.769,3.49,3.49,0,0,1,.756.223c.043.006.086,0,.13.011a4.94,4.94,0,0,1,3.218,2.12l5.3,7.9c-.466-1.131-.96-2.25-1.509-3.344-.128-.256.253-.482.386-.226a50.226,50.226,0,0,1,2.129,4.677c.118.3.231.6.343.9l2.127,3.17c.339.506.653,1.024.957,1.548.116-.058.263-.039.29.124.032.2.068.391.1.588A27.384,27.384,0,0,1,86.2,54.3a4.724,4.724,0,0,1,.122.577c.007.065-.044.1-.1.1.021.446.048.892.048,1.341l-.011,8.405c.16.481.341.952.532,1.419L90.249,69.6a.188.188,0,0,1,.345-.1q.432.655.862,1.309l.432.431a.972.972,0,0,0,1.374-1.376ZM67.151,39.4a.012.012,0,0,1,.023,0v.363a.012.012,0,1,1-.023,0Z" transform="translate(1.093 0.484)" fill="#7db1c7"/>
  <path id="Path_4547" data-name="Path 4547" d="M49.921,25.521a.972.972,0,1,0-.692-.287.993.993,0,0,0,.692.287" transform="translate(0.999 0.481)" fill="#7db1c7"/>
  <path id="Path_4548" data-name="Path 4548" d="M67.419,51.408l-.869.869a8.537,8.537,0,0,0,0,12.056.973.973,0,0,0,1.376-1.376,6.59,6.59,0,0,1-1.171-7.713c.006-.042.007-.085.014-.127.133-.835.562-2.146,1.644-2.018.019,0,.027.018.044.023l.34-.34a.973.973,0,0,0-1.377-1.376" transform="translate(1.307 1.043)" fill="#7db1c7"/>
  <path id="Path_4549" data-name="Path 4549" d="M92.484,10.547a5.819,5.819,0,0,0-3.043.866l-.534.328-.535-.328a5.816,5.816,0,0,0-3.042-.866,5.967,5.967,0,0,0-5.9,6.022c0,1.914,1.485,4.32,4.537,7.356a49.173,49.173,0,0,0,4.345,3.819.961.961,0,0,0,.591.2.972.972,0,0,0,.592-.2,50.515,50.515,0,0,0,4.344-3.819c3.052-3.036,4.536-5.442,4.536-7.356a5.967,5.967,0,0,0-5.895-6.022M92.9,22.984a5.848,5.848,0,0,1-2.591,2.229c-.068.029-.112-.084-.05-.116a6.432,6.432,0,0,0,2.489-2.2c.061-.095.213-.007.152.088m1.312-2.3c-.012.013-.026.012-.04.018a39.671,39.671,0,0,1-4.612,4.506l-.631.526c.007.011.016.022.023.035a.112.112,0,0,1-.176.135,4.565,4.565,0,0,1-.609-.746c-.011-.016-.02-.034-.033-.05-.669-.562-1.448-1.256-2.236-2.018a.092.092,0,0,1-.074-.013,5.169,5.169,0,0,1-1.35-1.435c-.564-.608-1.1-1.23-1.557-1.838l.007.018a12.9,12.9,0,0,0,.964,1.572c.123.184-.137.334-.282.217A5.487,5.487,0,0,1,81.88,18.2a3.9,3.9,0,0,1-.487-1.514,4.929,4.929,0,0,1-.131-.689,4.555,4.555,0,0,1,.163-1.816.155.155,0,0,1,.3.083,4.327,4.327,0,0,0-.146,1.1,4.092,4.092,0,0,1,.573-1.186c.034-.086.06-.174.1-.259a.155.155,0,0,1,.182-.092,3.845,3.845,0,0,1,5.76-.061.975.975,0,0,0,1.431,0A3.891,3.891,0,0,1,91.3,12.7a2.357,2.357,0,0,0-1.166.067c-.242.08-.338-.293-.1-.377a2.857,2.857,0,0,1,2.166.133c.1-.007.188-.03.286-.03a4.02,4.02,0,0,1,3.95,4.078c0,1.039-.879,2.462-2.074,3.908-.051.067-.094.142-.15.205" transform="translate(1.621 0.215)" fill="#7db1c7"/>
  <path id="Path_4550" data-name="Path 4550" d="M8.885,17.2a.968.968,0,0,0,1.179,0,50.217,50.217,0,0,0,4.344-3.819c3.052-3.036,4.536-5.442,4.536-7.357A5.967,5.967,0,0,0,13.048,0a5.813,5.813,0,0,0-3.043.867l-.534.328L8.937.866A5.812,5.812,0,0,0,5.9,0,5.966,5.966,0,0,0,0,6.021c0,1.915,1.484,4.321,4.537,7.357A48.579,48.579,0,0,0,8.885,17.2M2.281,3.788A3.45,3.45,0,0,1,4.173,2.37,3.805,3.805,0,0,1,5.9,1.945a3.854,3.854,0,0,1,2.86,1.267.975.975,0,0,0,1.431,0,3.877,3.877,0,0,1,1.857-1.118c-.132-.186-.017-.495.243-.4a4.126,4.126,0,0,1,.531.272c.078-.005.152-.024.231-.024A4.019,4.019,0,0,1,17,6.021a4.944,4.944,0,0,1-.982,2.445c-.017.034-.027.071-.044.105a6.837,6.837,0,0,1-.63,1.023,3.187,3.187,0,0,1-.8.842c-.018.011-.036.005-.055.01a40.542,40.542,0,0,1-4.361,4.213l-.652.543-.652-.542C6.614,12.83,3.1,9.445,2.176,7.065c-.008-.011-.022-.011-.031-.023a3.187,3.187,0,0,1,.136-3.254" fill="#7db1c7"/>
  <path id="Path_4551" data-name="Path 4551" d="M7.689,75.865a6.431,6.431,0,0,0-.787.868l-.033.043c-.242.288-.469.586-.7.884q-.735.963-1.439,1.947-.683.96-1.323,1.946c-.276.428-.831,1.126-.252,1.54a.181.181,0,0,0,.263-.2c-.123-.309.136-.611.3-.852q.294-.433.595-.862c.4-.572.794-1.148,1.2-1.714.1-.137.2-.269.3-.406a4.134,4.134,0,0,0-.41,1.039.092.092,0,0,0,.167.07A10.791,10.791,0,0,0,6.2,79.031q.317-.589.681-1.15a23.757,23.757,0,0,1,1.537-2.1c-.653,1.11-1.258,2.246-1.864,3.384-.087.162.157.307.247.145.742-1.328,1.5-2.644,2.156-4.016a.112.112,0,0,0-.193-.112c-.1.162-.188.332-.286.5.036-.112-.09-.23-.19-.129s-.209.238-.317.353a.185.185,0,0,0-.143-.086.207.207,0,0,0-.137.046" transform="translate(0.059 1.533)" fill="#7db1c7"/>
  <path id="Path_4552" data-name="Path 4552" d="M9.35,75.059a8.567,8.567,0,0,0-1.011,1.655,14.045,14.045,0,0,0-.747,1.793c-.044.132.162.187.208.057a13.508,13.508,0,0,1,.757-1.757c.29-.56.648-1.073.962-1.617.059-.1-.089-.227-.169-.131" transform="translate(0.155 1.531)" fill="#7db1c7"/>
  <path id="Path_4553" data-name="Path 4553" d="M14.049,57.43a.119.119,0,0,0-.131.023,7.753,7.753,0,0,0-1.04,1.529,12.629,12.629,0,0,0-.809,1.754,7.53,7.53,0,0,0-.358,1.433c-.005.036-.013.072-.018.109-.042.133-.09.263-.129.4a.2.2,0,0,0,.084.229,5.349,5.349,0,0,0,.057.909c-.054.274-.095.551-.129.829-.047.185-.1.369-.133.552a10.066,10.066,0,0,0-.2,2.414c-.14.518-.256,1.045-.357,1.576-.01-.131-.023-.26-.029-.393a.2.2,0,0,0-.33-.146.207.207,0,0,0-.074.091,6.129,6.129,0,0,0-.26,1.806,9.447,9.447,0,0,0,.073,1.656c-.027.2-.051.393-.081.581-.058.38-.118.757-.173,1.136-.017.119-.029.239-.044.358-.155.435-.3.874-.441,1.311Q9.17,76.7,8.809,77.811c-.058.177.217.25.277.077l.741-2.179c.056-.166.113-.335.171-.5a.093.093,0,0,0,.079-.065c.044-.166.077-.336.115-.5a11.183,11.183,0,0,0,.314-1.127.111.111,0,0,0-.051-.113c.038-.2.078-.4.115-.595.019-.1.044-.212.066-.318a.124.124,0,0,0,.084-.091,10.482,10.482,0,0,0,.207-1.416q.087-.528.186-1.054a10.9,10.9,0,0,0,.02,1.39.1.1,0,0,0,.2,0,17.843,17.843,0,0,1,.18-2.354c.024.034.08.038.079-.015,0-.1,0-.195,0-.293a.112.112,0,0,0,.021-.063c-.005-.064,0-.13-.008-.194.153-.786.384-1.549.563-2.33.023-.105-.129-.182-.183-.077-.043.085-.076.176-.114.263a12.534,12.534,0,0,1,.168-1.661c.253-.794.6-1.544.911-2.326.054-.135-.152-.256-.246-.151.1-.262.206-.521.323-.776a5.413,5.413,0,0,0,.647-1.473.136.136,0,0,0-.2-.116,1.593,1.593,0,0,0-.429.47c.222-.46.459-.914.723-1.355a18.964,18.964,0,0,1,1.171-1.738c.434-.567.923-1.094,1.347-1.669.111-.151-.048-.274-.195-.258a.19.19,0,0,0-.1.032,9.438,9.438,0,0,0-1.942,2.2M10.655,70.492l0,.008,0,.006,0,.014c0-.026.007-.051.01-.077,0,.016,0,.032,0,.048M11.6,66.97c.005-.074.015-.148.021-.222.015,0,.028.015.043.015-.022.068-.043.138-.064.207" transform="translate(0.18 1.126)" fill="#7db1c7"/>
  <path id="Path_4554" data-name="Path 4554" d="M25.984,45.251c.271-.288.532-.587.817-.861a.164.164,0,0,0-.2-.256,5.424,5.424,0,0,0-.966.728,7.918,7.918,0,0,0-.813.957,7.82,7.82,0,0,0-.531.869c-.168.195-.331.4-.492.6q-.4.49-.763,1a.139.139,0,0,0-.105.047c-.181.2-.342.415-.511.624a18.6,18.6,0,0,0-1.2,1.639,14.79,14.79,0,0,0-1.981,2.232c.026-.048.056-.094.082-.142a.119.119,0,0,0-.206-.12c-.23.312-.448.636-.663.958a.146.146,0,0,0-.245-.089,11.562,11.562,0,0,0-2.01,2.349,15.491,15.491,0,0,0-1.494,2.755c-.082.195.2.367.289.168a18.031,18.031,0,0,1,1.49-2.656A25.1,25.1,0,0,1,18.2,53.906c-.235.357-.465.717-.695,1.077-.52.815-1.038,1.632-1.541,2.458-.119.194.179.364.3.177.483-.733.952-1.473,1.42-2.215-.158.315-.309.633-.449.952-.079.181.185.341.268.157a19.934,19.934,0,0,1,2.728-4.257q-.328.591-.635,1.186c-.107.209.2.393.316.185.454-.829.949-1.635,1.465-2.426a.177.177,0,0,0,.327.048,28.3,28.3,0,0,1,1.549-2.519c.15-.217.3-.433.453-.649a.215.215,0,0,0,.417.048,9.063,9.063,0,0,1,1.111-1.984c.007-.01.013-.023.021-.034a9.207,9.207,0,0,1,.722-.858" transform="translate(0.3 0.9)" fill="#7db1c7"/>
  <path id="Path_4555" data-name="Path 4555" d="M31.5,49.249a2.313,2.313,0,0,0,.313-.965c.014-.111.022-.222.028-.33a3.443,3.443,0,0,0-.023-.447c.014-.057.034-.113.044-.171A2.365,2.365,0,0,0,31.7,46.01a2.845,2.845,0,0,0-.048-.308.107.107,0,0,0-.207.057c0,.017,0,.035.007.051A.145.145,0,0,0,31.39,46a1.976,1.976,0,0,1,.141.469c0,.027-.008.052-.008.079a.09.09,0,0,0-.089.12c.026.078.034.159.053.238-.01.077-.006.154-.022.23a4.271,4.271,0,0,1-.205.642l-.01.021a3.446,3.446,0,0,0,.02-.422,3.753,3.753,0,0,0-.144-.957.114.114,0,0,0-.165-.071A11.512,11.512,0,0,0,30.937,45c-.011-.137-.223-.14-.215,0a11.5,11.5,0,0,1-.009,1.286c-.007-.047-.013-.093-.02-.139-.033-.188-.079-.373-.129-.558.007-.009.022-.005.026-.018a1.38,1.38,0,0,0-.113-.778,1.523,1.523,0,0,0-.451-.572l0-.005c0-.008-.012-.008-.016-.013s-.022-.024-.036-.034a1.979,1.979,0,0,0-.823-.377,1.251,1.251,0,0,0-.579-.255,1.106,1.106,0,0,0-.265-.011,1.375,1.375,0,0,0-.784.357,2.691,2.691,0,0,0-.439.5c-.015.009-.034.013-.049.023a5.49,5.49,0,0,0-.92.749,5.586,5.586,0,0,0-1.269,1.98c-.087.232.281.328.369.1a5.135,5.135,0,0,1,1.2-1.785c.109-.107.24-.188.358-.284a.2.2,0,0,0,.335-.011c.093-.152.2-.32.319-.484.092-.062.183-.126.277-.182.157-.095.333-.166.48-.273a.15.15,0,0,0,.044-.167c.017,0,.031-.016.049-.019a.868.868,0,0,1,.1.007.155.155,0,0,0,.152.061,1.1,1.1,0,0,1,.154-.007.764.764,0,0,1,.173.09.469.469,0,0,1,.241.462c-.029.219.3.24.367.05a.748.748,0,0,0,.016-.416,1.71,1.71,0,0,1,.253.173,2.276,2.276,0,0,1,.351.409,6.175,6.175,0,0,1,.241.7,6.017,6.017,0,0,1,.138.63c.037.218.046.441.093.657a.087.087,0,0,0,.13.061c-.007.094-.011.188-.021.282-.026.241-.067.481-.086.721-.008.1.144.115.171.023a5.565,5.565,0,0,0,.2-1.164,3.507,3.507,0,0,1,.049.612,3.27,3.27,0,0,1-.035.435c-.011.072-.029.144-.04.217a2.072,2.072,0,0,0-.014.24.1.1,0,0,0,.062.1c-.007.013-.015.027-.021.04a.093.093,0,0,0,.084.137.058.058,0,0,0,.078.019,1.644,1.644,0,0,0,.469-.511,4.3,4.3,0,0,1-.195.819c-.031.095-.059.189-.09.286-.041.129.143.2.211.089" transform="translate(0.507 0.888)" fill="#7db1c7"/>
  <path id="Path_4556" data-name="Path 4556" d="M32.782,49.444q-1.521,1.433-2.914,2.993c-.134.148.083.367.219.219,1.2-1.29,2.473-2.512,3.789-3.689.734-.656,1.478-1.3,2.235-1.927.093-.077.013-.215-.085-.229a.1.1,0,0,0-.08.016,34.959,34.959,0,0,0-3.164,2.615" transform="translate(0.609 0.955)" fill="#7db1c7"/>
  <path id="Path_4557" data-name="Path 4557" d="M41.9,41.893a3.552,3.552,0,0,0-.98.608c-.063.051-.118.112-.181.164a8.7,8.7,0,0,0-.666.6c-.033.035-.059.073-.091.108a8.133,8.133,0,0,0-.977.87,13.332,13.332,0,0,0-.96,1.157c-.166.224-.306.465-.456.7-.062.061-.121.126-.183.188a21.8,21.8,0,0,0-3.056,2.679q-1.529,1.515-2.906,3.174c-.171.207.123.507.3.3q1.367-1.627,2.884-3.119c.238-.233.492-.45.739-.673q-.551.747-1.047,1.536c-.115.184.173.35.289.169a25.76,25.76,0,0,1,2.283-3.026c-.116.234-.245.461-.348.7-.09.21.218.393.31.182a12.522,12.522,0,0,1,1.2-2.136c.233-.239.472-.469.71-.7a.208.208,0,0,0,.341-.033A8.346,8.346,0,0,1,40.41,43.61a8.477,8.477,0,0,1,.8-.712c.178-.14.364-.269.546-.4a3.637,3.637,0,0,0,.34-.268.2.2,0,0,0-.194-.333" transform="translate(0.641 0.855)" fill="#7db1c7"/>
  <path id="Path_4558" data-name="Path 4558" d="M43.5,48.263a2.493,2.493,0,0,0,.484-.9.144.144,0,0,0,.177-.067,2.878,2.878,0,0,0,.315-.969,3.363,3.363,0,0,0,0-1.07c-.005-.043-.017-.084-.022-.127a2.123,2.123,0,0,0-.1-.987,2.428,2.428,0,0,0-.39-.73,2.021,2.021,0,0,0-1.182-.7,2.216,2.216,0,0,0-2.306.894.276.276,0,0,0,.476.279,1.689,1.689,0,0,1,2.167-.441,1.605,1.605,0,0,1,.683.937,2,2,0,0,1,.079.565,3.611,3.611,0,0,0-.166-.361c-.112-.2-.417-.022-.31.181a3.192,3.192,0,0,1,.347,1.766,4.4,4.4,0,0,1-.592,1.705.135.135,0,0,0,.17.19.106.106,0,0,0,.048-.02c.047-.045.08-.1.123-.15" transform="translate(0.825 0.871)" fill="#7db1c7"/>
  <path id="Path_4559" data-name="Path 4559" d="M42.186,48.345c-.082.112.074.253.186.186a2.506,2.506,0,0,0,.9-1.191,3.517,3.517,0,0,0,.263-1.476.155.155,0,0,0-.31,0,3.219,3.219,0,0,1-.286,1.335,4.764,4.764,0,0,1-.329.585c-.128.2-.289.37-.426.561" transform="translate(0.86 0.933)" fill="#7db1c7"/>
  <path id="Path_4560" data-name="Path 4560" d="M42.571,46.866c-.245.362-.491.723-.734,1.088a12.487,12.487,0,0,0-.7,1.105c-.057.11.095.246.183.14.279-.34.512-.717.757-1.083s.488-.742.732-1.113c.1-.147-.137-.281-.234-.137" transform="translate(0.839 0.955)" fill="#7db1c7"/>
  <path id="Path_4561" data-name="Path 4561" d="M38.354,54.7q-1.241,1.309-2.411,2.678c-.169.2.117.487.287.288.791-.926,1.552-1.87,2.294-2.835.074-.1-.087-.217-.169-.131" transform="translate(0.732 1.116)" fill="#7db1c7"/>
  <path id="Path_4562" data-name="Path 4562" d="M36.007,60.561c1.468-1.8,3.044-3.5,4.568-5.256a.136.136,0,0,0-.192-.192c-.6.564-1.168,1.159-1.729,1.764.185-.235.366-.473.555-.706.71-.878,1.507-1.682,2.222-2.553a.135.135,0,0,0-.191-.192,19.062,19.062,0,0,0-2.411,2.5,31.522,31.522,0,0,0-2.069,2.746.192.192,0,0,0,.061.281c-.371.44-.736.883-1.1,1.327-.161.2.119.481.283.282" transform="translate(0.728 1.09)" fill="#7db1c7"/>
  <path id="Path_4563" data-name="Path 4563" d="M52.3,51.411a5.8,5.8,0,0,0,.647-.758,5.544,5.544,0,0,0,.843-1.817.211.211,0,0,0-.218-.264.192.192,0,0,0-.212.146,5.225,5.225,0,0,1-.442,1.107A4.542,4.542,0,0,0,53,48.31a1.606,1.606,0,0,0,.3-.989,1.555,1.555,0,0,0-.011-.259,1.5,1.5,0,0,0-1.036-1.086,1.448,1.448,0,0,0-.5-.437,1.9,1.9,0,0,0-1.085-.114,7.65,7.65,0,0,0-.917.2,3.805,3.805,0,0,0-1.715.847,2.029,2.029,0,0,0-.62,1.221l-.072.071a7.8,7.8,0,0,0-.6.523,11.577,11.577,0,0,0-.836.924,16.116,16.116,0,0,0-1.31,1.836l-.2.188c-.376.351-.731.724-1.079,1.1a29.071,29.071,0,0,0-1.912,2.333c-.134.181.174.421.313.242.6-.782,1.248-1.53,1.92-2.254.332-.357.676-.7,1.015-1.053.034-.035.07-.068.105-.1a.191.191,0,0,0,.1-.072c.018-.029.04-.056.058-.086.145-.141.285-.287.428-.431.016-.013.037-.013.05-.035s.031-.042.044-.063c.09-.093.183-.182.266-.279a.162.162,0,0,0,.029-.145,14.56,14.56,0,0,1,1.6-2c.065-.066.14-.12.206-.185.123.051.281.007.269-.165,0-.03.006-.054.005-.083.613-.556,1.26-1.066,1.894-1.6a.14.14,0,0,0,.032-.181,3.857,3.857,0,0,1,1.464-.228c.009,0,.017.005.027.006a1.486,1.486,0,0,0-.412.19.23.23,0,0,0-.081.305.227.227,0,0,0,.306.081,1.131,1.131,0,0,1,.92-.137,1.957,1.957,0,0,1,.149.4c.005.019.027.018.038.033a4.038,4.038,0,0,1,.4,1.421,1.827,1.827,0,0,1-.167.224c-.085.093,0,.29.137.233.021-.008.035-.029.055-.039a5.275,5.275,0,0,1-.713,2.564c-.19.174-.39.337-.574.517-.144.139.03.335.2.269,0,0,.007,0,.011,0a3.094,3.094,0,0,0,.8-.615m-3.829-4.646c-.033.026-.066.05-.1.076.032-.027.065-.051.1-.076m4.114.013a.906.906,0,0,1,.155.315,1.417,1.417,0,0,1,.039.17c0,.016.014.07.022.113a4.459,4.459,0,0,0-.264-.651.687.687,0,0,1,.048.052" transform="translate(0.844 0.927)" fill="#7db1c7"/>
  <path id="Path_4564" data-name="Path 4564" d="M50.536,51.124c.221-.284.409-.587.6-.89l.577-.911c.11-.173-.167-.336-.276-.161q-.279.452-.558.9c-.186.3-.377.6-.533.916-.055.113.1.259.188.145" transform="translate(1.027 1.002)" fill="#7db1c7"/>
  <path id="Path_4565" data-name="Path 4565" d="M46.218,59.6a5.82,5.82,0,0,0-1.52,1.25,15.579,15.579,0,0,0-1.319,1.542c-.154.205-.3.418-.44.633a15.163,15.163,0,0,0-1.5,2.89c-.082.208.276.361.364.154a15.692,15.692,0,0,1,1.95-3.342,14.863,14.863,0,0,1,1.283-1.468c.224-.226.457-.446.687-.666a7.659,7.659,0,0,0,.729-.692.189.189,0,0,0-.072-.3.2.2,0,0,0-.16,0" transform="translate(0.846 1.216)" fill="#7db1c7"/>
  <path id="Path_4566" data-name="Path 4566" d="M54.64,60.533c.015-.023.023-.053.038-.079a3.361,3.361,0,0,0,.236-.5.138.138,0,0,0,.183.079c.018-.008.037-.008.052-.027.042-.048.08-.1.119-.145a3.1,3.1,0,0,0,.451-.65,5.79,5.79,0,0,0,.363-.962,6.488,6.488,0,0,0,.241-2,.207.207,0,0,0-.414,0,6.069,6.069,0,0,1-.272,1.848,6.7,6.7,0,0,1-.342.87c-.04.088-.079.174-.116.262q.208-.553.415-1.105a.24.24,0,0,0-.166-.294.2.2,0,0,0-.092.012c.022-.131.06-.259.077-.393.032-.269.042-.539.051-.809a1.645,1.645,0,0,0,.377-.842,2.238,2.238,0,0,0,.016-.466,1.857,1.857,0,0,0-.213-.791,1.8,1.8,0,0,0-2.241-.75,2.068,2.068,0,0,0-.545.313,1.674,1.674,0,0,0-.5.614.243.243,0,0,0,.023.236c-.266.244-.528.495-.78.748-.479.481-.917,1-1.346,1.524a.2.2,0,0,0-.264-.074,13.921,13.921,0,0,0-2.028,1.542q-.992.854-1.9,1.795a29.944,29.944,0,0,0-3.258,4c-.152.221.206.428.357.209a29.5,29.5,0,0,1,3.265-3.932q.877-.886,1.828-1.695c.545-.465,1.119-.895,1.67-1.352a.228.228,0,0,0,.057.116L47.8,59.945c-.107.1.056.267.163.163l2.4-2.328c.8-.771,1.647-1.515,2.384-2.344a.088.088,0,0,0-.124-.124c-.286.239-.553.5-.824.759.021-.021.039-.047.061-.068.581-.577,1.22-1.083,1.812-1.645a.147.147,0,0,0,.047-.115,1.41,1.41,0,0,1,.509-.03,1.1,1.1,0,0,1,.116.005c.007,0,.011.006.018.008-.012,0-.023,0-.035,0s-.005.008-.008.01a.244.244,0,0,0-.081.328,2.947,2.947,0,0,1,.555,1.6,3.611,3.611,0,0,1-.029.846,8.006,8.006,0,0,1-.259.841.168.168,0,0,0,.28.162c.011-.011.015-.028.026-.039-.021.133-.037.266-.062.4a6.419,6.419,0,0,0-.16.989l0,.005a4.755,4.755,0,0,0-.345,1,.223.223,0,0,0,.255.263.2.2,0,0,0,.138-.1m.079-6.133-.018-.029a1.192,1.192,0,0,1,.129.088,1.364,1.364,0,0,1,.467.69.264.264,0,0,0-.192-.024,3.252,3.252,0,0,0-.386-.724" transform="translate(0.873 1.095)" fill="#7db1c7"/>
  <path id="Path_4567" data-name="Path 4567" d="M17.478,96.4a15.77,15.77,0,0,1,1.13-2.092.178.178,0,0,0,.195-.068c.193-.278.4-.544.6-.816a35.189,35.189,0,0,1,2.238-2.785c.377-.417.77-.817,1.164-1.216a.193.193,0,0,0,.346.08,7.589,7.589,0,0,1,3.569-2.716,4.844,4.844,0,0,1,.558-.154.178.178,0,0,0,.049.316c.088.035.184.058.273.09-.229.1-.106.492.184.452s.582-.1.871-.146c.25.057.5.113.752.154a.2.2,0,0,0-.059.217.215.215,0,0,0,.259.15c.2-.046.4-.1.6-.149l.332-.083c.272.022.545.043.811.051a17.386,17.386,0,0,0,4.072-.375c.29-.059.163-.488-.12-.438a17.678,17.678,0,0,1-2.876.249c.343-.1.688-.194,1.029-.3q.949-.306,1.885-.649c.132-.048.27-.1.407-.146a17.226,17.226,0,0,0,3.174-.849,14.022,14.022,0,0,0,2.049-.96l.02,0a.258.258,0,0,0,.191-.119A7.247,7.247,0,0,0,42,83.512a.108.108,0,0,0,.029-.138,12.241,12.241,0,0,0,2.626-1.283h0c-.457.378-.92.749-1.394,1.105q-1.384,1.041-2.861,1.949c-.209.129-.018.459.193.331.382-.232.755-.476,1.128-.719a.228.228,0,0,0,.357.111h0l.006,0,3.046-2.485,1.48-1.206a8.663,8.663,0,0,0,1.47-1.283.135.135,0,0,0,.005-.165,16.689,16.689,0,0,0,2.34-1.973c.223-.227-.126-.576-.349-.349A17.491,17.491,0,0,1,42.4,81.775a.187.187,0,0,0,.1.361,13.17,13.17,0,0,0,1.946-.527A11.492,11.492,0,0,1,40.43,83.2a15.008,15.008,0,0,1-4.539.049c-.236-.027-.263.334-.054.4a8.083,8.083,0,0,0,1.042.244c-1.235-.019-2.477-.166-3.708-.139a.22.22,0,0,0-.058.431,16.739,16.739,0,0,0,3.893.276c.914-.005,1.826-.058,2.736-.133-.363.17-.723.345-1.1.494-.477.19-.961.349-1.45.495a.228.228,0,0,0-.264-.309,13.15,13.15,0,0,0-1.871.677q-.9.335-1.814.637c-.805.265-1.617.512-2.432.747-.166-.012-.333-.022-.5-.039.351-.079.7-.149,1.051-.24.588-.152,1.173-.318,1.75-.512a6.668,6.668,0,0,0,1.6-.706.168.168,0,0,0-.129-.306,11.415,11.415,0,0,0-1.748.5c-.026.009-.052.015-.079.023.006-.005.015-.008.02-.013a.209.209,0,0,0-.091-.347,1.31,1.31,0,0,0-.5.022c-.18.023-.352.064-.529.1q-.487.109-.979.2-1.022.185-2.056.283c-.022,0-.031.019-.05.026a4.386,4.386,0,0,0-1.848.218,7.012,7.012,0,0,0-1.965,1.065.179.179,0,0,0-.247-.108,4.072,4.072,0,0,0-.827.681c-.285.255-.554.526-.82.8q-.822.84-1.591,1.731c-.1.114-.19.235-.289.351a13.192,13.192,0,0,0-3.474,4.521c-.15.305-.293.612-.422.921-.092.218.291.383.386.163m23.544-12.7c-.012,0-.016-.011-.029-.01l-.079.006c.078-.018.156-.04.234-.061l-.127.065m5.323-2.923-.019.017-.278.229a.117.117,0,0,0-.085.018A12.021,12.021,0,0,0,45,81.8a.28.28,0,0,0-.153-.338,14.366,14.366,0,0,0,1.494-.681M30.76,86.32c.2-.033.406-.074.609-.112-.071.019-.141.045-.212.063-.422.115-.85.211-1.278.308a1.432,1.432,0,0,0-.149-.135c.344-.042.689-.068,1.03-.124m-2.25.241a2.461,2.461,0,0,1,.635.179c-.136.028-.271.048-.407.073-.434-.067-.868-.138-1.307-.206a3.554,3.554,0,0,1,1.08-.046" transform="translate(0.349 1.578)" fill="#7db1c7"/>
  <path id="Path_4568" data-name="Path 4568" d="M18.72,92.595a22.024,22.024,0,0,1,1.878-2.06c.7-.677,1.493-1.263,2.192-1.944a.168.168,0,0,0-.2-.263,10.694,10.694,0,0,0-2.272,1.82,20.8,20.8,0,0,0-1.94,2.18,21.562,21.562,0,0,0-2.92,5.123c-.068.17.227.3.3.126.031-.071.067-.14.1-.211.157-.36.32-.719.5-1.07a20.909,20.909,0,0,1,2.372-3.7" transform="translate(0.315 1.802)" fill="#7db1c7"/>
  <path id="Path_4569" data-name="Path 4569" d="M46.118,81.856l1.494-1.079c.1-.073.2-.148.3-.22.147-.106.295-.209.437-.32.119-.095.248-.184.362-.286s.211-.221.314-.333a.108.108,0,0,0-.131-.169c-.136.069-.28.132-.407.213s-.249.182-.372.271c-.246.18-.481.374-.719.563q-.721.574-1.442,1.146c-.076.06-.036.159.033.205a.107.107,0,0,0,.132.008" transform="translate(0.937 1.621)" fill="#7db1c7"/>
  <path id="Path_4570" data-name="Path 4570" d="M48.36,81.023a.227.227,0,0,0,0-.454.227.227,0,0,0,0,.454" transform="translate(0.982 1.644)" fill="#7db1c7"/>
  <path id="Path_4571" data-name="Path 4571" d="M14.821,50.915a5.616,5.616,0,0,1-.46-1.071,5.3,5.3,0,0,1-.179-2.316c.039-.259-.355-.376-.4-.11a5.782,5.782,0,0,0,.124,2.514,4.253,4.253,0,0,0,1.24,2.18c.154.121.4-.03.289-.222-.195-.332-.428-.636-.614-.973" transform="translate(0.28 0.965)" fill="#7db1c7"/>
  <path id="Path_4572" data-name="Path 4572" d="M15.568,51.047a2.835,2.835,0,0,1-.552-2.148c.093.193.191.382.294.562.131.229.47.027.351-.205a5.562,5.562,0,0,1-.7-2.941c.063.208.4.211.374-.029a2.258,2.258,0,0,1,1.4-2.181,2.94,2.94,0,0,1,.683-.21,3.866,3.866,0,0,0,.651.014.158.158,0,0,0,.116-.085c.053,0,.106,0,.158,0,.28.007.558.043.837.072.034,0,.068.012.1.017A4.425,4.425,0,0,0,20.05,44a.189.189,0,0,0,.094-.349,3,3,0,0,0-.937-.278,4.906,4.906,0,0,0-.994-.078c-.146,0-.293.012-.439.028a2.309,2.309,0,0,0-.524-.085,2.256,2.256,0,0,0-1,.223,2.945,2.945,0,0,0-.457.254,3.13,3.13,0,0,0-.992,1.085,2.01,2.01,0,0,0-1.272.491,2.708,2.708,0,0,0-.8,1.124,2.943,2.943,0,0,0-.178.926,5.135,5.135,0,0,0,.879,2.866.176.176,0,0,0,.32-.136c-.227-1.069-.8-2.174-.537-3.293a2.047,2.047,0,0,1,1.406-1.553,4.635,4.635,0,0,0,.3,3.448.144.144,0,0,0-.224.092,3.165,3.165,0,0,0,.574,2.478,3.406,3.406,0,0,0,1.161,1.011,2.043,2.043,0,0,0,1.021.243.124.124,0,0,0,.032-.243,5.287,5.287,0,0,1-.766-.287,3.205,3.205,0,0,1-.3-.146,3.019,3.019,0,0,1-.853-.78" transform="translate(0.256 0.883)" fill="#7db1c7"/>
  <path id="Path_4573" data-name="Path 4573" d="M22.147,44.026A.137.137,0,0,0,22.328,44a.155.155,0,0,0,.031-.189c-.18-.3-.421-.564-.605-.866-.011-.016-.019-.035-.03-.052a.721.721,0,0,0,.059.043.169.169,0,0,0,.23-.229,3.028,3.028,0,0,0-.491-.635c-.115-.137-.218-.282-.326-.424a5.214,5.214,0,0,1-.226-1.769c.014-.241-.358-.239-.374,0a5.573,5.573,0,0,0,.024.95c-.2-.312-.4-.629-.567-.96a10.978,10.978,0,0,1-1.081-3.319.17.17,0,0,0-.188-.151c0-.112-.019-.224-.013-.338.011-.227-.339-.226-.351,0a6.755,6.755,0,0,0,.327,2.486,6.848,6.848,0,0,0,.479,1.11,3.733,3.733,0,0,0,.69,1,8.9,8.9,0,0,0,.652,1.011c.1.137.217.266.327.4.01.028.016.057.027.084a5.565,5.565,0,0,0,.4.851c.03.051.053.1.084.153a2.98,2.98,0,0,0,.744.873" transform="translate(0.376 0.732)" fill="#7db1c7"/>
  <path id="Path_4574" data-name="Path 4574" d="M23.651,45.347c.129.122.288.287.474.285a.191.191,0,0,0,.181-.238c-.034-.161-.2-.276-.316-.386-.08-.077-.152-.161-.227-.244-.042-.046-.088-.089-.128-.138a5.054,5.054,0,0,1-.573-.863,4.553,4.553,0,0,1-.521-2,.2.2,0,0,0-.4,0,5.049,5.049,0,0,0,.505,2.208,4.7,4.7,0,0,0,.508.81c.035.046.065.095.1.14a4.685,4.685,0,0,0,.394.423" transform="translate(0.452 0.848)" fill="#7db1c7"/>
  <path id="Path_4575" data-name="Path 4575" d="M23.716,43.786a.127.127,0,0,0-.061.181l.223.34a.08.08,0,0,0,.146-.061l-.137-.377a.14.14,0,0,0-.058-.077.124.124,0,0,0-.113-.006" transform="translate(0.482 0.893)" fill="#7db1c7"/>
  <path id="Path_4576" data-name="Path 4576" d="M20.43,31.089c-.094-.082-.187-.165-.282-.247-.072-.063-.181.044-.107.107l.267.229c-.005.011-.018.016-.021.029s0,.012,0,.018h-.005a3.6,3.6,0,0,0-2.116.561.25.25,0,0,0,.031.433.2.2,0,0,0,.1.013,1.874,1.874,0,0,0-.559.715l-.12-.116a.1.1,0,0,0-.06-.021.1.1,0,0,0-.11.134c.005.013,0,.028.017.04l.181.167c-.08.069-.158.136-.233.21-.055-.052-.107-.109-.164-.159l-.01,0c-.092-.064-.215.061-.126.139l.006.007c.06.051.1.115.162.168a4.235,4.235,0,0,0-.3.339c.02-.118.035-.238.061-.354,0-.007,0-.011,0-.018.029-.219-.3-.309-.358-.082a7.012,7.012,0,0,0-.174,1.276,4.466,4.466,0,0,0-.239.628,4.737,4.737,0,0,0-.174,1.564,2.375,2.375,0,0,0,.5,1.487.208.208,0,0,0,.3-.017.173.173,0,0,0,.051-.13c-.022-.434-.154-.856-.188-1.291a5.313,5.313,0,0,0,1.2,2.3.152.152,0,0,0,.238-.184,9.067,9.067,0,0,1-1.16-2.626,6.382,6.382,0,0,1-.131-.931,4.324,4.324,0,0,1,.79-1.524,8.365,8.365,0,0,1,.785.974,2.5,2.5,0,0,0,.151.756.183.183,0,0,0,.353-.023.058.058,0,0,0,.092-.069c-.036-.073-.081-.143-.118-.214a2.27,2.27,0,0,1,0-1c.54.5,1.076,1.008,1.621,1.5.068.062.168-.036.1-.1-.547-.536-1.1-1.059-1.657-1.588a2.177,2.177,0,0,1,.3-.58,12.28,12.28,0,0,1,3.091,2.433c.063.068.158-.032.1-.1a10.157,10.157,0,0,0-2.664-2.256,6.429,6.429,0,0,1,.795.266c.722.568,1.446,1.136,2.185,1.682.017.013.036,0,.046-.013.077.091.154.182.232.271s.223-.026.162-.126a12.171,12.171,0,0,0-1.9-2.313c-.237-.233-.489-.449-.737-.669.035-.007.067-.024.1-.031a2.776,2.776,0,0,1,.452-.014,1.207,1.207,0,0,0,.443.118.177.177,0,0,0,.128-.054c.079.018.157.038.238.052a.2.2,0,0,0,.19-.065l.123.105a14.317,14.317,0,0,1,1.685,1.735c.152.19.287.391.429.587a9.79,9.79,0,0,0-2.662-2.167c-.077-.042-.145.074-.068.117a10.69,10.69,0,0,1,3.471,3.209.045.045,0,0,0,.074,0c.132.2.262.392.4.587.059.086.226.036.183-.077a9.038,9.038,0,0,0-1.5-2.421A14.3,14.3,0,0,0,22.22,32.4a.15.15,0,0,0-.183,0,1.311,1.311,0,0,0-.253-.129l-.27-.237c.19.077.377.158.569.228a.129.129,0,0,0,.144-.188,1.676,1.676,0,0,0-.408-.388.115.115,0,0,0-.051-.187c-.207-.077-.413-.159-.623-.229-.062-.02-.126-.039-.188-.058l-.445-.139a.162.162,0,0,0-.082.011m-2.043,2.174a.3.3,0,0,0,.069-.074c.109.048.217.1.324.151-.164-.007-.328,0-.491.009.034-.027.062-.06.1-.086m.877-.38a2.33,2.33,0,0,0-.251.331c-.167-.082-.337-.158-.508-.232a.314.314,0,0,0-.1-.193,1.591,1.591,0,0,1,.741-.421,1.882,1.882,0,0,1,.519-.032c.058.048.12.093.178.141a2.513,2.513,0,0,0-.577.406M18.5,34.625A7.611,7.611,0,0,0,18,33.974a.183.183,0,0,0,.087-.209.9.9,0,0,1-.024-.212l.008-.008c.176.165.354.328.53.492a2.725,2.725,0,0,0-.094.589m-.2-1.134c.166,0,.332-.006.5.005a2.582,2.582,0,0,0-.132.347c-.122-.116-.245-.235-.367-.352m1.329-.056c-.052-.01-.105-.009-.158-.018a1.89,1.89,0,0,1,.13-.157c.029-.026.065-.039.095-.062l.491.386c-.187-.052-.373-.113-.557-.148m1.54.253c.563.57,1.077,1.184,1.594,1.793-.565-.463-1.141-.916-1.72-1.364.094.042.188.08.283.123a.08.08,0,0,0,.08-.138,3.822,3.822,0,0,0-.963-.451l-.658-.51a2.109,2.109,0,0,1,.51-.27c.3.265.595.533.876.817m.014-1.512-.138-.057a4.339,4.339,0,0,0-.726-.246,3.353,3.353,0,0,0-.743-.088,3.3,3.3,0,0,1,.674-.044,4,4,0,0,1,.909.167c.117.1.237.2.355.3a2.287,2.287,0,0,0-.333-.036" transform="translate(0.328 0.629)" fill="#7db1c7"/>
  <path id="Path_4577" data-name="Path 4577" d="M25.556,31.328a.135.135,0,0,0,.167-.008l0,0,0,.01a8.317,8.317,0,0,0,.411,1.155,3.985,3.985,0,0,0,.953,1.418.163.163,0,0,0,.266-.065c.053.11.1.223.158.333a1.534,1.534,0,0,0,.532.68.22.22,0,0,0,.269-.055,2.9,2.9,0,0,0,.758,1.121c.133.1.365.014.306-.179A10.77,10.77,0,0,0,28.8,34.5c-.024-.054-.042-.11-.065-.164a8,8,0,0,1-.417-1.236,7.3,7.3,0,0,1-.105-2.91c.046-.279-.376-.4-.431-.118a7.928,7.928,0,0,0,.005,3.078c.021.107.054.212.08.318l.027.108c-.027-.054-.055-.108-.082-.162-.036-.073-.076-.144-.11-.218a11.1,11.1,0,0,1-.988-5.255c.018-.33-.488-.326-.51,0a11.674,11.674,0,0,0,.331,3.685c.063.246.139.488.218.729q.138.421.308.831c-.038-.059-.078-.118-.11-.179-.131-.236-.25-.478-.367-.72-.028-.056-.047-.116-.072-.173a7.459,7.459,0,0,1-.546-4.482c.046-.245-.326-.352-.377-.1a8.025,8.025,0,0,0,0,3.27c-.088-.123-.18-.246-.261-.372-.148-.231-.279-.47-.411-.71a7.818,7.818,0,0,1-.667-1.593,7.449,7.449,0,0,1-.189-3.379c.052-.295-.4-.423-.454-.126a8.033,8.033,0,0,0,.064,3.246,10.011,10.011,0,0,1-.437-1.145,8.169,8.169,0,0,1-.349-2.593c.007-.247-.374-.246-.383,0a8.56,8.56,0,0,0,.357,2.741,6.108,6.108,0,0,0,1.246,2.372c.1.238.205.473.328.7.041.077.091.158.138.239a3.641,3.641,0,0,0,.981,1.155" transform="translate(0.459 0.489)" fill="#7db1c7"/>
  <path id="Path_4578" data-name="Path 4578" d="M29.672,35.678a1.45,1.45,0,0,0,.444.457.194.194,0,0,0,.28-.156.149.149,0,0,0,0-.06,2.023,2.023,0,0,0-.282-.455c-.111-.164-.223-.329-.323-.5a5.307,5.307,0,0,1-.476-1.063,5.4,5.4,0,0,1-.217-2.3c.026-.221-.36-.276-.392-.053a5.814,5.814,0,0,0,.17,2.471,6,6,0,0,0,.251.678c.066.151.134.3.212.448a3.986,3.986,0,0,0,.332.532" transform="translate(0.584 0.641)" fill="#7db1c7"/>
  <path id="Path_4579" data-name="Path 4579" d="M32,23.933a.112.112,0,0,0-.082.189c.06.064.114.133.174.2q-.97-.871-1.951-1.73a.128.128,0,0,0-.024-.123c-.1-.109-.214-.213-.324-.318.012.009.026.017.038.028.387.31.733.689,1.148.959a.137.137,0,0,0,.195-.029.19.19,0,0,0,.008-.234A7.151,7.151,0,0,0,29.894,21.7c-.133-.105-.276-.2-.414-.293a6.052,6.052,0,0,0-1.017-.584,4.5,4.5,0,0,0-1.13-.3,6.9,6.9,0,0,0-1.641-.491,3.21,3.21,0,0,0-3.279,1.215,3.137,3.137,0,0,0-.758.418,3.84,3.84,0,0,1,1.173-1.381.238.238,0,0,0,.089-.271.221.221,0,0,0-.339-.155,4.357,4.357,0,0,0-2.04,2.9,5.311,5.311,0,0,0,.755,4.118.231.231,0,0,0,.106.072,6.161,6.161,0,0,0,.879,1.861c.1.138.385.061.305-.13-.109-.264-.219-.526-.328-.787a11.878,11.878,0,0,1-.722-2.191,9.626,9.626,0,0,1-.118-3.021,2.445,2.445,0,0,1,.438-.467,2.54,2.54,0,0,1,.4-.23.188.188,0,0,0,.281-.1c.011-.032.031-.054.044-.086a3.538,3.538,0,0,1,.786-.206,4.723,4.723,0,0,1,.757-.037c.007.006.007.015.017.019a12.668,12.668,0,0,1,5.221,4.193c.442.611.769,1.284,1.183,1.909.064.1.238.038.2-.084A7.517,7.517,0,0,0,29.6,25.628,13.045,13.045,0,0,0,28.1,23.917a12.82,12.82,0,0,0-3.462-2.34c.158.008.315.016.476.02.278.007.3-.376.062-.461a4.025,4.025,0,0,0-2.056-.1l-.01,0a3.247,3.247,0,0,1,2.8-.447,3.173,3.173,0,0,0-.55.179c-.233.109-.031.452.2.344a2.806,2.806,0,0,1,1.2-.25c.092.035.186.063.277.1a.152.152,0,0,0,.037.174,35.318,35.318,0,0,1,4,4.6c.568.79,1.086,1.61,1.592,2.442.532.876.963,1.82,1.51,2.683.1.151.356.057.3-.127a14.945,14.945,0,0,0-1.285-2.67,25.016,25.016,0,0,0-1.732-2.649,28.286,28.286,0,0,0-3.645-4.087,15.366,15.366,0,0,1,2.078,1.3c1.015.905,2.032,1.811,3.08,2.679q.481.588.917,1.211t.813,1.266c.073.123.143.249.213.374l-.849-.918c-.069-.076-.181.037-.112.113l1.461,1.632q.354.4.709.792a8.505,8.505,0,0,0,.773.818c.066.058.19-.018.132-.1a8.38,8.38,0,0,0-.691-.795L35.59,28.9a1.476,1.476,0,0,0-.244-.589q-.19-.338-.392-.668-.416-.68-.885-1.324a20.757,20.757,0,0,0-1.5-1.813c-.165-.18-.323-.366-.494-.54A.1.1,0,0,0,32,23.933" transform="translate(0.417 0.405)" fill="#7db1c7"/>
  <path id="Path_4580" data-name="Path 4580" d="M40.209,34.1a.1.1,0,0,0,.116-.15c-.467-.593-1.04-1.09-1.511-1.68a10.725,10.725,0,0,1-1.221-1.924c-.065-.131-.251-.016-.193.112.134.3.289.589.449.874-.049-.069-.1-.136-.141-.2q-.28-.427-.565-.851l-1.177-1.756c-.082-.122-.279-.01-.2.117q.557.9,1.116,1.791.269.433.543.864c.1.153.193.308.293.459a1.093,1.093,0,0,0,.309.355c.066.04.18-.01.168-.1a.8.8,0,0,0-.062-.212c.145.231.288.463.45.682A5.545,5.545,0,0,0,40.209,34.1" transform="translate(0.729 0.581)" fill="#7db1c7"/>
  <path id="Path_4581" data-name="Path 4581" d="M40.28,32.379a.133.133,0,0,0-.074.2q.372.646.746,1.292a10.72,10.72,0,0,0,.761,1.261c.077.1.261-.009.213-.124a10.734,10.734,0,0,0-.719-1.286l-.582-.993c-.057-.1-.114-.2-.172-.295a.129.129,0,0,0-.172-.051" transform="translate(0.82 0.661)" fill="#7db1c7"/>
  <path id="Path_4582" data-name="Path 4582" d="M38.032,27.547a.093.093,0,0,0,.092,0,.111.111,0,0,0,.039-.173c-.363-.407-.779-.769-1.146-1.176a12.394,12.394,0,0,1-2.581-4.387c-.052-.154-.295-.091-.246.067a11.81,11.81,0,0,0,1.494,3.158c.067.1.152.187.222.285a12.024,12.024,0,0,0,.812,1.045,6.341,6.341,0,0,0,1.313,1.177" transform="translate(0.698 0.443)" fill="#7db1c7"/>
  <path id="Path_4583" data-name="Path 4583" d="M38.206,26.427c-.01-.011-.028.006-.016.016l.363.364c.011.011.028-.006.016-.017l-.363-.363" transform="translate(0.779 0.539)" fill="#7db1c7"/>
  <path id="Path_4584" data-name="Path 4584" d="M39.168,24.683a15.42,15.42,0,0,0,2.3,4.546q.243.331.5.648a2.245,2.245,0,0,0,.6.613.145.145,0,0,0,.2-.2,2.616,2.616,0,0,0-.476-.6c-.19-.22-.374-.447-.551-.679a15.376,15.376,0,0,1-.928-1.361,15.673,15.673,0,0,1-1.424-3.031c-.049-.14-.268-.082-.223.061" transform="translate(0.799 0.501)" fill="#7db1c7"/>
  <path id="Path_4585" data-name="Path 4585" d="M42.98,32.458a6.16,6.16,0,0,0,.638.476c.095.059.189-.072.116-.15a20.992,20.992,0,0,1-2.548-3.046,12.176,12.176,0,0,1-.705-1.316c.238.348.477.7.731,1.034.053.071.174.006.123-.072q-.655-1.01-1.293-2.027a12.51,12.51,0,0,1-.389-1.276c-.05-.21-.371-.121-.322.089,0,.016.009.033.013.05-.493-.821-.971-1.652-1.414-2.505-.045-.088-.174-.011-.131.077.543,1.081,1.123,2.148,1.752,3.186a12.51,12.51,0,0,0,1.34,3,12.752,12.752,0,0,0,1.007,1.4,7.989,7.989,0,0,0,1.082,1.085" transform="translate(0.771 0.483)" fill="#7db1c7"/>
  <path id="Path_4586" data-name="Path 4586" d="M41.82,32.056a7.487,7.487,0,0,0,.579.531,3.3,3.3,0,0,0,.63.46.116.116,0,0,0,.14-.182,7.1,7.1,0,0,0-.555-.494c-.184-.166-.36-.341-.537-.516a10.071,10.071,0,0,1-1-1.155c-.13-.177-.23-.37-.348-.554a10.118,10.118,0,0,1-1.06-2.11c-.055-.154-.3-.09-.247.067a10.405,10.405,0,0,0,.529,1.26,10.067,10.067,0,0,0,.891,1.519,10.454,10.454,0,0,0,.98,1.173" transform="translate(0.804 0.57)" fill="#7db1c7"/>
  <path id="Path_4587" data-name="Path 4587" d="M43.287,18.237a4.1,4.1,0,0,0-.61-.488c-.149-.2-.291-.406-.44-.607-.092-.124-.3-.006-.214.12L41.94,17.2l-.193-.145c-.154-.2-.308-.409-.463-.613a.189.189,0,0,0-.317.031l-.4-.3c-.092-.068-.173.013-.181.105a.133.133,0,0,0,.048.122l.528.4.354.271.222.305c.4.547.793,1.095,1.178,1.651-.076-.061-.152-.123-.224-.185-.268-.226-.544-.439-.818-.655a.123.123,0,0,0-.038-.163,5.348,5.348,0,0,0-.8-.491c-.686-.531-1.376-1.059-2.073-1.573a.154.154,0,0,0-.236.051.243.243,0,0,0-.239-.035,5.027,5.027,0,0,0-1.441-.527h-.01a3.479,3.479,0,0,0-1.481.012c-.071.017-.145.028-.214.051a2.879,2.879,0,0,0-1.015.594,12.623,12.623,0,0,0-1.009-.858c-.166-.121-.323.154-.161.276a11.531,11.531,0,0,1,.941.817,2.364,2.364,0,0,0-.246.349,2,2,0,0,0-.277,1.063.2.2,0,0,0,.391,0,1.655,1.655,0,0,1,.489-1.1c.016.016.035.029.051.044.1.1.195.214.292.322a4.019,4.019,0,0,0-1.663,4.223.169.169,0,0,0,.33-.044c.006-.173.02-.348.04-.521a11.024,11.024,0,0,0,.626,2.765,9.967,9.967,0,0,0,2.684,4.009.088.088,0,0,0,.123-.124,12.17,12.17,0,0,1-2.219-3.295,10.825,10.825,0,0,1-1-4.457,4.16,4.16,0,0,1,1.417-2.18l.083.1c.131.206.261.411.391.617.008.012.029,0,.02-.012l-.3-.477c.116.138.233.278.353.413s.31-.036.226-.173a7.728,7.728,0,0,0-1.184-1.414c-.005-.006-.013-.011-.019-.017.042-.033.086-.063.131-.093q.98,1.07,1.98,2.12c.72.759,1.434,1.539,2.212,2.238a.147.147,0,0,0,.208-.208c-.658-.815-1.4-1.568-2.121-2.328-.549-.58-1.106-1.153-1.663-1.726a.145.145,0,0,0,.042-.264l-.169-.087a2.726,2.726,0,0,1,.334-.1c.056-.012.11-.014.165-.023.264.187.5.4.745.61a.158.158,0,0,0,.127.242c.063,0,.127.014.19.017a12.934,12.934,0,0,1,2.945,4.09c.049.105.229.031.189-.08A10.021,10.021,0,0,0,37.1,16.865a10.142,10.142,0,0,1,1.473.238c.07.056.138.116.208.173.691,1.071,1.362,2.156,1.993,3.264.4.7.781,1.4,1.164,2.1a23.282,23.282,0,0,0,1.249,2.233c.094.134.329.057.277-.117a13.54,13.54,0,0,0-1-2.238c-.376-.739-.771-1.464-1.186-2.183-.337-.585-.69-1.16-1.044-1.735a16.948,16.948,0,0,1,1.828,2.163,20.515,20.515,0,0,1,2.82,6.672c.057.215.418.181.4-.053a14.613,14.613,0,0,0-2.812-6.96,16.724,16.724,0,0,0-2.658-2.934c.213.085.432.159.64.253.2.159.411.313.613.474.393.313.782.633,1.176.944s.757.644,1.17.907c.319.488.632.981.928,1.484a29.152,29.152,0,0,1,2.419,5.508c.044.128.27.117.251-.034a14.876,14.876,0,0,0-2.144-5.469c-.5-.848-1.049-1.665-1.618-2.467q-.433-.611-.88-1.209l.071.054c.081.062.161.128.242.192q.624.834,1.262,1.659c.235.3.459.614.7.914.05.064.159-.019.112-.087-.015-.023-.034-.045-.05-.068-.494-.711-1.01-1.405-1.521-2.1a.123.123,0,0,0,.108-.206m-6.606-1.731q-.373-.309-.767-.585a3.685,3.685,0,0,1,1.306.209c.25.163.5.326.74.5a10.737,10.737,0,0,0-1.279-.124m2.492.389-.038-.008c-.071-.109-.141-.218-.213-.327.188.142.371.289.558.432-.1-.032-.205-.067-.307-.1" transform="translate(0.669 0.311)" fill="#7db1c7"/>
  <path id="Path_4588" data-name="Path 4588" d="M57.828,84.688a6.373,6.373,0,0,0,1.935.207c.134-.009.184-.226.034-.251a17.6,17.6,0,0,1-3.168-.707,10.43,10.43,0,0,1-2.93-1.659c-.157-.128-.385.094-.226.226a10.963,10.963,0,0,0,2.462,1.523c-.227-.047-.452-.1-.678-.148-.343-.138-.688-.264-1.023-.373a13.59,13.59,0,0,0-1.6-.413,2.364,2.364,0,0,0-.581-.126A.113.113,0,0,0,51.97,83c-.31-.046-.619-.1-.933-.129-.251-.019-.248.368,0,.391.444.042.884.116,1.32.2a7.685,7.685,0,0,0,.913.366q.721.263,1.461.462c.249.067.5.13.759.186.477.216.926.489,1.4.7.161.069.372-.134.208-.269-.1-.084-.216-.152-.326-.229a7.4,7.4,0,0,0,.985.038.13.13,0,0,0,.064-.028" transform="translate(1.038 1.678)" fill="#7db1c7"/>
  <path id="Path_4589" data-name="Path 4589" d="M55.094,82.891q1.71.631,3.472,1.1.882.233,1.772.421a11.249,11.249,0,0,0,1.7.294.133.133,0,0,0,.035-.259c-.581-.163-1.195-.231-1.785-.355q-.86-.181-1.71-.4-1.731-.45-3.414-1.065c-.169-.061-.242.208-.074.269" transform="translate(1.123 1.686)" fill="#7db1c7"/>
  <path id="Path_4590" data-name="Path 4590" d="M62.759,83.629a.179.179,0,0,0-.223.094c-.138-.034-.277-.065-.412-.1l-3.377-.863a.219.219,0,0,0-.116.422l3.439.89c.5.13,1.008.279,1.518.415.591.286,1.173.587,1.739.92.436.258.861.534,1.284.812,1,1.212,1.948,2.467,2.951,3.682.079.1.23-.027.168-.13a22.9,22.9,0,0,0-1.974-2.8c.048.031.095.063.144.094a.168.168,0,0,0,.2-.263,12.529,12.529,0,0,0-1.412-1.1c-.259-.3-.518-.595-.78-.887-.146-.163-.358.031-.293.205-.1-.059-.207-.11-.309-.167.044.006.088.017.132.022.2.024.2-.265.044-.329-.118-.049-.244-.086-.366-.129l-.563-.958a.024.024,0,0,0-.041.023l.494.9c-.5-.17-1.017-.31-1.539-.434-.237-.105-.472-.217-.708-.316" transform="translate(1.193 1.689)" fill="#7db1c7"/>
  <path id="Path_4591" data-name="Path 4591" d="M53.586,29.35a.18.18,0,0,0-.011.249,21.643,21.643,0,0,1,2.02,2.786c.289.474.583.952.849,1.439.276.5.506,1.027.772,1.533a.108.108,0,0,0,.2-.084,13.192,13.192,0,0,0-1.481-3.143c-.152-.243-.326-.469-.488-.7a19.991,19.991,0,0,0-1.621-2.074.153.153,0,0,0-.237,0" transform="translate(1.092 0.598)" fill="#7db1c7"/>
  <path id="Path_4592" data-name="Path 4592" d="M55.38,30.78c.23.437.472.866.707,1.3.43.794.858,1.589,1.294,2.379.332.6.661,1.2,1,1.8a8.964,8.964,0,0,0,1.066,1.719.145.145,0,0,0,.24-.14,8.939,8.939,0,0,0-.907-1.813c-.335-.6-.674-1.195-1.011-1.792-.211-.374-.43-.745-.641-1.118-.477-.841-.948-1.683-1.441-2.513a.175.175,0,0,0-.3.177" transform="translate(1.13 0.623)" fill="#7db1c7"/>
  <path id="Path_4593" data-name="Path 4593" d="M58.64,33.878c-.426-.776-.841-1.557-1.238-2.347-.069-.139-.273-.017-.207.12.528,1.094,1.091,2.169,1.679,3.233.173.316.341.637.522.95q.582,1.007,1.2,1.994a11.892,11.892,0,0,0,1.29,1.881.087.087,0,0,0,.115.015c.07.11.14.221.211.333a3.781,3.781,0,0,0,.561.767c.1.093.3,0,.247-.144a9,9,0,0,0-1.046-1.688q-.531-.817-1.048-1.644c-.219-.35-.428-.707-.645-1.058-.488-.792-.979-1.581-1.45-2.382a.122.122,0,0,0-.189-.031" transform="translate(1.167 0.642)" fill="#7db1c7"/>
  <path id="Path_4594" data-name="Path 4594" d="M60.214,35.753c.3.438.588.89.883,1.333.4.594.8,1.182,1.183,1.786q.493.779.967,1.567a13.045,13.045,0,0,0,.969,1.528.1.1,0,0,0,.173-.1,10.077,10.077,0,0,0-.888-1.577q-.487-.781-.992-1.552c-.166-.255-.347-.5-.517-.755-.524-.784-1.05-1.567-1.6-2.334-.077-.106-.255-.005-.179.105" transform="translate(1.229 0.727)" fill="#7db1c7"/>
  <path id="Path_4595" data-name="Path 4595" d="M65.78,40.041a8.361,8.361,0,0,0,.676,1.257,6.823,6.823,0,0,0,1.133,1.366,2.6,2.6,0,0,1-.732.257,2.511,2.511,0,0,1-.833-.041c-.052-.011-.1-.035-.15-.05-.139-.263-.293-.52-.442-.772-.242-.409-.481-.82-.72-1.232l-.173-.3q-.646-1.1-1.291-2.209a.1.1,0,0,0-.172.1l.844,1.489q.294.519.587,1.037c.235.414.47.827.7,1.242.086.154.171.313.259.47a1.8,1.8,0,0,1-.77-.788c-.1-.211-.4-.027-.309.181a2.273,2.273,0,0,0,1.495,1.237c.022.029.039.063.062.091.048.055.122.008.134-.054a2.152,2.152,0,0,0,.851.007,1.571,1.571,0,0,0,.9-.455s0-.01.005-.014c.126.1.241.216.373.307a.08.08,0,0,0,.1-.126,10.965,10.965,0,0,1-1.349-1.4c-.094-.122-.172-.256-.258-.385a7.707,7.707,0,0,1-.724-1.295c-.046-.107-.236-.029-.19.08" transform="translate(1.287 0.781)" fill="#7db1c7"/>
  <path id="Path_4596" data-name="Path 4596" d="M68.943,42.132a2.224,2.224,0,0,0-.217-.417c-.078-.136-.153-.272-.23-.408l-.467-.83c-.047-.086-.178-.009-.13.077q.228.416.459.834.112.205.226.41a2.142,2.142,0,0,0,.24.4.072.072,0,0,0,.119-.069" transform="translate(1.386 0.825)" fill="#7db1c7"/>
  <path id="Path_4597" data-name="Path 4597" d="M66.782,37.519l.326.909c.107.3.2.6.337.889.038.08.16.022.139-.058-.079-.305-.2-.6-.308-.895-.095-.263-.191-.526-.287-.789l-.037-.1a.083.083,0,0,0-.057-.052c-.061-.019-.14.022-.112.1" transform="translate(1.363 0.764)" fill="#7db1c7"/>
  <path id="Path_4598" data-name="Path 4598" d="M66.9,39.088a.012.012,0,0,0-.023,0v.363a.012.012,0,1,0,.023,0Z" transform="translate(1.365 0.798)" fill="#7db1c7"/>
  <path id="Path_4599" data-name="Path 4599" d="M66.053,26.239a.66.66,0,0,0-.8.1c.052-.126.1-.253.16-.377.12-.246-.239-.463-.372-.217a7.188,7.188,0,0,0-.754,2.195,11.125,11.125,0,0,0,.081,3.844,19.827,19.827,0,0,0,.679,2.73c.04.123.068.253.112.374a2.294,2.294,0,0,0,.805,1.14.838.838,0,0,0,.189.089,4.931,4.931,0,0,0,.885,1.344c.115.12.3-.033.226-.173-.211-.4-.448-.776-.649-1.178l.016,0a.2.2,0,0,0,0-.377,1.293,1.293,0,0,1-.223-.084,8.859,8.859,0,0,1-.435-1.321,8.01,8.01,0,0,1-.083-3.27c.046-.251-.337-.359-.384-.106a8.5,8.5,0,0,0-.024,2.941c-.009-.031-.017-.062-.027-.093a23.405,23.405,0,0,1-.566-2.389c.007-.016.02-.028.021-.047.028-.477.085-.95.12-1.427.037-.493.09-.98.155-1.469a11.234,11.234,0,0,1,.243-1.364.794.794,0,0,1,.233-.452.313.313,0,0,1,.1-.024,2.072,2.072,0,0,0-.312,1.11.279.279,0,0,0,.558,0,1.73,1.73,0,0,1,.906-1.466,2.331,2.331,0,0,1,1.9-.135,4.858,4.858,0,0,1,2.033,1.414,8.863,8.863,0,0,0-2.379-1.132c-.232-.069-.329.288-.1.361a8.469,8.469,0,0,1,1.145.467.192.192,0,0,0-.038.235c.107.2.2.4.3.595a3.619,3.619,0,0,0-2.194-.057.2.2,0,0,0,.108.392,3.133,3.133,0,0,1,2.388.258,80.036,80.036,0,0,1,4.757,11.638.14.14,0,0,0,.269-.074,50.061,50.061,0,0,0-4.246-11.056,7.961,7.961,0,0,1,.872.813.151.151,0,0,0-.064.214,39.778,39.778,0,0,1,4.558,12.449c.034.163.268.09.247-.068a31.985,31.985,0,0,0-2.3-8.139A26.962,26.962,0,0,1,78,43.566a.09.09,0,0,0,.14.042c.192.835.37,1.672.554,2.51.027.118.193.065.178-.048a39.717,39.717,0,0,0-2.715-9.461c-.055-.137-.279-.077-.222.061s.1.268.152.4a24.793,24.793,0,0,0-2.111-3.406.143.143,0,0,0-.173-.044q-.713-1.563-1.561-3.051c.384.467.734.947,1.053,1.379.119.161.382.021.276-.16a13.8,13.8,0,0,0-1.094-1.682,8.47,8.47,0,0,0-.6-.679q.557.387,1.07.828a8.808,8.808,0,0,1,.59,1.014c.182.364.327.744.471,1.124a10.573,10.573,0,0,0,.354,1.064c.073.142.262.059.274-.074a3.509,3.509,0,0,0-.226-1.2,5.74,5.74,0,0,0-.32-.82,13.393,13.393,0,0,1,1.171,1.445,17.121,17.121,0,0,1,2.12,4.773c.029.094.194.083.18-.024a11.4,11.4,0,0,0-2.11-4.935,13.593,13.593,0,0,0-1.8-2.073,9.322,9.322,0,0,0-1.072-1.507c-.138-.156-.3-.291-.445-.436a6.448,6.448,0,0,0-2.857-2.911,3.479,3.479,0,0,0-.755-.222,2.856,2.856,0,0,0-2.457.768m6.292,3.247c-.264-.194-.528-.389-.806-.563a.1.1,0,0,0-.155.081c-.111-.092-.211-.195-.33-.279a4.826,4.826,0,0,0-.631-.376q-.22-.416-.445-.831a9,9,0,0,1,2.269,1.841c.035.04.062.086.1.127" transform="translate(1.309 0.519)" fill="#7db1c7"/>
  <path id="Path_4600" data-name="Path 4600" d="M85.18,62.291a.2.2,0,0,0-.264-.159l-.005-.041a18.816,18.816,0,0,1,.171-4.072.2.2,0,0,0-.19-.23c.051-.73.1-1.458.152-2.187a.134.134,0,0,0-.159-.145c.034-.988.024-1.98.016-2.968.055.21.1.423.16.633a7.314,7.314,0,0,0,.591,1.644.107.107,0,0,0,.108.047c.055,0,.107-.039.1-.1a4.541,4.541,0,0,0-.122-.577c-.093-.376-.205-.75-.308-1.111q-.242-.857-.444-1.722c-.277-1.178-.492-2.366-.656-3.563-.019-.143-.2-.157-.3-.084V47.6a.235.235,0,0,0-.47,0c.006.382,0,.763,0,1.145-.052-.233-.11-.465-.157-.7-.34-1.664-.641-3.336-.917-5.012-.032-.2-.068-.392-.1-.588-.026-.163-.173-.183-.29-.124a.23.23,0,0,0-.141.243c.185,1.19.392,2.377.607,3.561-.123-.018-.249.041-.231.2.071.658.119,1.318.178,1.979-.294-1.064-.616-2.121-.895-3.186q-.7-2.68-1.262-5.391c-.059-.276-.481-.159-.424.116.153.743.316,1.483.483,2.221q-.167-.473-.332-.947a14.353,14.353,0,0,0-.519-1.944c-.167-.528-.353-1.049-.547-1.567-.112-.3-.223-.605-.343-.9a49.707,49.707,0,0,0-2.129-4.677c-.132-.256-.512-.031-.385.226.549,1.094,1.042,2.213,1.508,3.344.194.468.394.933.573,1.407.287.765.549,1.538.811,2.312.234.694.43,1.422.728,2.095q.306.885.609,1.769.334,3.52.545,7.05c.149,2.576.169,5.167.377,7.738a.136.136,0,0,0,.271,0c.1-2.569-.083-5.172-.239-7.738-.111-1.837-.259-3.67-.42-5.5.087.245.2.48.3.716a36.7,36.7,0,0,0,1.455,4.811c.078,1.142.142,2.285.177,3.43.079,2.459-.055,4.919.014,7.376a.162.162,0,0,0,.25.139c-.105,1.164-.232,2.334-.249,3.5,0,.207.324.261.367.05a53.55,53.55,0,0,0,.728-8.458c.046-1.135.064-2.271.081-3.407.076.213.138.432.226.638.044.105.223.052.215-.058a18.019,18.019,0,0,0-.429-2.572c0-.892,0-1.783-.022-2.673.147,1.029.329,2.052.558,3.066a.161.161,0,0,0-.074.142c0,1.692-.068,3.4.062,5.092a.115.115,0,0,0,.072.1q-.22,2.9-.444,5.807a67.689,67.689,0,0,0-.4,6.816c0,.095.155.124.172.023.057-.337.1-.679.14-1.019a27.785,27.785,0,0,0,.512,3.929c.01.046.077.026.069-.019a35.691,35.691,0,0,1-.479-4.73c.157-1.518.223-3.054.322-4.57a11.405,11.405,0,0,0,.717,3.348.143.143,0,0,0,.24.055.13.13,0,0,0-.028.079c.055.744.135,1.485.223,2.226,0,.044.007.089.011.133q.089.951.208,1.9a9.749,9.749,0,0,0,.3,1.78.12.12,0,0,0,.109.084,6.493,6.493,0,0,0,.32,1.219c.058.147.322.149.3-.042a15.423,15.423,0,0,0-.346-1.715q-.188-.906-.34-1.817c-.086-.523-.156-1.048-.226-1.573-.067-.721-.118-1.444-.16-2.167a17.9,17.9,0,0,0,.778,1.7c-.069-.041-.174-.017-.164.084.126,1.161.3,2.317.523,3.462q.171.868.383,1.726a6.414,6.414,0,0,0,.509,1.661.14.14,0,0,0,.259-.07,8.287,8.287,0,0,0-.4-1.557q-.234-.851-.428-1.713c-.259-1.146-.465-2.305-.619-3.47a15.162,15.162,0,0,0,1.569,2.409c.128.157.376-.045.276-.213a33.492,33.492,0,0,1-2.239-4.4c-.191-.467-.371-.939-.532-1.419a19.929,19.929,0,0,1-.617-2.267m-1.734-6.132c-.011.253-.032.505-.045.758-.009-1.085-.044-2.168-.083-3.237-.063-1.85-.2-3.7-.377-5.538l.007.031c.2,1.01.382,2.056.621,3.081-.012,1.636-.049,3.27-.124,4.905m2.087,10.047v0m-.01-.234c-.078-.444-.161-.886-.244-1.326.065.216.138.431.21.645.01.228.022.454.034.681" transform="translate(1.554 0.651)" fill="#7db1c7"/>
  <path id="Path_4601" data-name="Path 4601" d="M90.119,70.577c-.135-.2-.272-.4-.409-.6l0-.542a.139.139,0,0,0-.279,0c0,.042,0,.083,0,.124-.026-.038-.052-.076-.078-.114l-1.513-2.234c-.166-.244-.566-.013-.4.234l1.534,2.273c.15.223.3.446.452.669l0,.531,0,.728c0,.117,0,.233.008.349a1.338,1.338,0,0,0,.038.379.109.109,0,0,0,.208,0,1.213,1.213,0,0,0,.037-.349c.006-.127.01-.252.01-.379,0-.242,0-.485,0-.728,0-.033,0-.066,0-.1a8.81,8.81,0,0,0,.818,1.107c.15.156.362-.042.283-.218a8.713,8.713,0,0,0-.7-1.127" transform="translate(1.784 1.369)" fill="#7db1c7"/>
  <path id="Path_4602" data-name="Path 4602" d="M89.515,68.689a.149.149,0,0,0,.015.092q.565.871,1.131,1.742a11.892,11.892,0,0,0,1.163,1.689c.127.136.3-.037.238-.184a5.946,5.946,0,0,0-.515-.881l-.562-.853q-.132-.2-.261-.4l-.863-1.309a.188.188,0,0,0-.345.1" transform="translate(1.827 1.398)" fill="#7db1c7"/>
  <path id="Path_4603" data-name="Path 4603" d="M66.717,55.079c-.007.042-.009.085-.015.127a11.22,11.22,0,0,0-.13,1.85,7.077,7.077,0,0,0,.284,1.989.188.188,0,0,0,.368-.05c.012-.572-.018-1.148-.009-1.722a15.081,15.081,0,0,1,.118-1.618c.072-.573.191-2.031,1.028-2.018.358.005.347-.463.043-.551-.016-.005-.024-.02-.043-.023-1.083-.128-1.512,1.184-1.644,2.018" transform="translate(1.358 1.083)" fill="#7db1c7"/>
  <path id="Path_4604" data-name="Path 4604" d="M67.411,55.789a8.119,8.119,0,0,0-.058,2.929,5.615,5.615,0,0,0,1.055,2.7.165.165,0,0,0,.273-.159c-.151-.432-.366-.841-.523-1.273a7.894,7.894,0,0,1-.346-1.295,7.5,7.5,0,0,1,.037-2.778c.058-.285-.38-.407-.438-.12" transform="translate(1.373 1.135)" fill="#7db1c7"/>
  <path id="Path_4605" data-name="Path 4605" d="M77.607,38.245A63.65,63.65,0,0,1,80.256,54.02a.072.072,0,0,0,.144,0,57.339,57.339,0,0,0-2.569-15.837c-.044-.142-.266-.082-.223.061" transform="translate(1.583 0.778)" fill="#7db1c7"/>
  <path id="Path_4606" data-name="Path 4606" d="M88.743,69.392c-.02-.181-.305-.185-.287,0q.1,1.018.206,2.037a16.28,16.28,0,0,0,.233,1.993.132.132,0,0,0,.258-.035,16.256,16.256,0,0,0-.19-2l-.22-2" transform="translate(1.805 1.413)" fill="#7db1c7"/>
  <path id="Path_4607" data-name="Path 4607" d="M89.171,70.365a.092.092,0,0,0,0,.184.092.092,0,0,0,0-.184" transform="translate(1.818 1.436)" fill="#7db1c7"/>
  <path id="Path_4608" data-name="Path 4608" d="M50.786,61.287a27.219,27.219,0,0,1-4.447,4.159c-.139.109.038.321.183.239A17.452,17.452,0,0,0,50.409,62.7,50.189,50.189,0,0,1,46.478,67.2c-.14.147.05.426.227.295a21.675,21.675,0,0,0,4.752-5.082,25.435,25.435,0,0,0,3.245-6.3c.095-.279-.363-.479-.481-.2-.179.418-.367.832-.558,1.244a4.526,4.526,0,0,0,.138-1.248.216.216,0,0,0-.4-.108l-.07.131a.189.189,0,0,0-.017.139,18.823,18.823,0,0,1-.884,2.654,12.838,12.838,0,0,1-1.644,2.564" transform="translate(0.945 1.136)" fill="#7db1c7"/>
  <path id="Path_4609" data-name="Path 4609" d="M49.155,65.834c.555-.539,1.078-1.115,1.586-1.7.993-1.15,1.914-2.37,2.788-3.6.084-.118-.109-.227-.193-.112C51.979,62.25,50.47,63.94,49,65.676a.109.109,0,0,0,.028.168.1.1,0,0,0,.13-.01" transform="translate(1 1.232)" fill="#7db1c7"/>
  <path id="Path_4610" data-name="Path 4610" d="M46.691,82.548a.2.2,0,0,0,.157.371,6.428,6.428,0,0,0,3.8-3.481,6.942,6.942,0,0,0,.282-.738,7.163,7.163,0,0,0,.352-2.064c0-.093-.005-.2-.006-.3l.006,0c.093-.105.185-.209.267-.323s.152-.211.229-.317l.051-.071a2.435,2.435,0,0,1-.092.366c-.044.132-.074.267-.126.4s-.123.257-.174.392a.169.169,0,0,0,.246.189,1.978,1.978,0,0,0,.7-1.589,3.726,3.726,0,0,0,.128.529.16.16,0,0,0,.313-.043,2.117,2.117,0,0,0-.082-.7,4.6,4.6,0,0,0-.211-.673,5.72,5.72,0,0,0-.667-1.246.192.192,0,0,0-.335.045.245.245,0,0,0-.234.279c-.087-.079-.165-.165-.259-.236a3.56,3.56,0,0,0-2.577-.727.279.279,0,0,0-.232.189,1.95,1.95,0,0,0-.246.028,1.639,1.639,0,0,0-.215.1c-.039,0-.078,0-.116,0a4.529,4.529,0,0,0-.485.048,5.233,5.233,0,0,0-1.338.405A4.945,4.945,0,0,0,43.7,75.055a.256.256,0,0,0-.037.219.317.317,0,0,0,.5.139c.309-.266.6-.545.934-.783a6.209,6.209,0,0,1,1.069-.62c.161-.072.338-.117.508-.179-.157.209-.305.424-.439.635-.191.3.282.571.476.278a3.085,3.085,0,0,1,1.276-1.3c.116-.029.232-.055.348-.079a1.208,1.208,0,0,1,.427.038,1.072,1.072,0,0,1,.318.163c.1.068.173.155.267.232a.2.2,0,0,0,.334-.139.625.625,0,0,0-.161-.435,3.111,3.111,0,0,1,.817.356.257.257,0,0,0-.173.3c.064.426.24.831.323,1.254a6.937,6.937,0,0,1,.121,1.431,6.36,6.36,0,0,1-.61,2.649c-.034.071-.084.132-.12.2a7.744,7.744,0,0,1-3.184,3.138m4.75-7.9a4.124,4.124,0,0,1,.288.511c-.083.115-.164.232-.246.347s-.147.205-.219.308l0,.005a4.467,4.467,0,0,0-.55-1.98,3.4,3.4,0,0,1,.731.808" transform="translate(0.891 1.481)" fill="#7db1c7"/>
  <path id="Path_4611" data-name="Path 4611" d="M32.613,26.915A65.106,65.106,0,0,1,37.146,35.1c.046.093.2.028.167-.07a31.265,31.265,0,0,0-3.463-6.693c-.2-.3-.4-.6-.609-.894-.147-.211-.286-.43-.435-.638a.108.108,0,0,0-.066-.042,31.419,31.419,0,0,0-2.36-2.844c-.06-.063-.155.033-.1.1a30.629,30.629,0,0,1,2.322,2.808.086.086,0,0,0,.007.094" transform="translate(0.618 0.488)" fill="#7db1c7"/>
  <path id="Path_4612" data-name="Path 4612" d="M42.082,23.51a23.218,23.218,0,0,0-4.541-6.573c-.08-.081-.2.044-.124.124A26.227,26.227,0,0,1,42,23.558c.028.056.107.007.083-.048" transform="translate(0.763 0.345)" fill="#7db1c7"/>
  <path id="Path_4613" data-name="Path 4613" d="M26.63,34.672A14.347,14.347,0,0,0,24.6,32.55a19.127,19.127,0,0,0-2.352-1.763c-.116-.076-.221.108-.108.186s.221.165.334.245a.079.079,0,0,0,0,.114c.048.046.093.1.141.144a15.273,15.273,0,0,1,1.089,1.192q-.837-.713-1.723-1.362c-.331-.242-.653-.493-.994-.721-.128-.086-.248.121-.12.207.212.143.411.3.619.452a28.9,28.9,0,0,1,2.9,2.329l.047.046q.324.464.613.945a.064.064,0,0,0,.11-.064c-.073-.135-.157-.26-.234-.392.338.33.681.654,1,1,.506.545.963,1.133,1.469,1.677.083.088.239-.029.169-.131a20.113,20.113,0,0,0-3.044-3.295c-.058-.053-.121-.1-.18-.153a12.7,12.7,0,0,0-1.278-1.533c-.026-.028-.052-.053-.079-.081.052.041.108.078.16.118.44.341.87.693,1.289,1.063.719.637,1.357,1.345,2.027,2.031a.108.108,0,0,0,.154-.01.087.087,0,0,0,.015-.12" transform="translate(0.425 0.624)" fill="#7db1c7"/>
  <path id="Path_4614" data-name="Path 4614" d="M25.011,32.7c.6.514,1.2,1.043,1.828,1.52.086.066.193-.077.115-.15-.577-.547-1.2-1.048-1.805-1.559l-1.827-1.537c-.105-.089-.258.061-.153.152L25.011,32.7" transform="translate(0.472 0.632)" fill="#7db1c7"/>
  <path id="Path_4615" data-name="Path 4615" d="M92.165,13.166c.064.056.116.123.178.182a5.317,5.317,0,0,0-1.592.109c-.318.058-.182.539.134.484a3.979,3.979,0,0,1,1.616-.046,1.27,1.27,0,0,1,.593.341,5.579,5.579,0,0,1,.408.7c.014.047.036.089.047.138a6,6,0,0,1-.332,3.761.108.108,0,0,0,.186.109,5.639,5.639,0,0,0,.513-1.077c-.023.423-.056.845-.079,1.257a.119.119,0,0,0,.021.059c-.052.191-.1.381-.158.574a.164.164,0,0,0,.3.126,4.962,4.962,0,0,0,.435-3.258,5.232,5.232,0,0,0-.806-2.742,4.022,4.022,0,0,0-1.639-1.4,2.857,2.857,0,0,0-2.166-.133c-.234.084-.138.456.1.377a2.357,2.357,0,0,1,1.166-.068,2.955,2.955,0,0,1,1.022.4.13.13,0,0,0,.049.1" transform="translate(1.831 0.249)" fill="#7db1c7"/>
  <path id="Path_4616" data-name="Path 4616" d="M94.876,13.733a.14.14,0,0,0-.269.074c.428,1.5.815,3.347.208,4.831.017-.086.04-.172.052-.257a5.043,5.043,0,0,0-.242-2.436c-.065-.182-.358-.1-.292.081a4.6,4.6,0,0,1-.165,3.606,3.218,3.218,0,0,1-.25.283c-.065.058-.026.13.036.156-.071.135-.145.269-.224.4a.118.118,0,0,0,.149.163c.014-.006.028-.005.04-.018.056-.063.1-.138.15-.206a3.7,3.7,0,0,0,.461-.8c1.4-1.58.9-4,.347-5.884" transform="translate(1.913 0.278)" fill="#7db1c7"/>
  <path id="Path_4617" data-name="Path 4617" d="M93.247,19.091a7.7,7.7,0,0,1-.888,1.358,11.825,11.825,0,0,1-1.132,1.141c-.076.069.024.2.11.144a5.95,5.95,0,0,0,1.185-1.152,8,8,0,0,0,.9-1.386c.061-.119-.117-.223-.179-.105" transform="translate(1.861 0.389)" fill="#7db1c7"/>
  <path id="Path_4618" data-name="Path 4618" d="M92.167,20.286a.14.14,0,0,0,.1-.092c.005-.013.007-.029.012-.042l.242-.291a.109.109,0,0,0-.1-.178,7.135,7.135,0,0,0-.313-4.105,2.884,2.884,0,0,0-1.132-1.523,1.622,1.622,0,0,0-1.693-.023c-.206.133-.016.463.193.331a1.3,1.3,0,0,1,1.545.219,3.324,3.324,0,0,1,.846,1.592,8.036,8.036,0,0,1,.3,1.932,10.807,10.807,0,0,1-.181,2.01c0,.017.007.029.009.044l-.073.087a.1.1,0,0,0-.078.028l-1.07.984c.077-.231.152-.461.229-.692.054-.165-.209-.238-.262-.071l-.355,1.119c-.306.277-.611.555-.89.857a.079.079,0,0,0,.112.112c.22-.17.431-.355.637-.544-.038.112-.069.224-.105.338-.17.208-.342.415-.5.631-.065.088.077.195.15.116s.15-.173.226-.259c-.01.1.138.181.188.07a5.381,5.381,0,0,0,.192-.506c.259-.308.514-.619.771-.93l1.009-1.213m-1.589,1.555.024-.079c.009-.028.018-.056.029-.085.058-.055.117-.109.177-.163l.2-.188c-.01.013-.022.026-.033.039l-.4.476" transform="translate(1.82 0.282)" fill="#7db1c7"/>
  <path id="Path_4619" data-name="Path 4619" d="M92.529,22.649a6.423,6.423,0,0,1-2.489,2.2c-.062.033-.018.145.049.116a5.835,5.835,0,0,0,2.591-2.228c.061-.095-.09-.184-.151-.089" transform="translate(1.837 0.461)" fill="#7db1c7"/>
  <path id="Path_4620" data-name="Path 4620" d="M82.776,19.181c-.126-.35-.279-.683-.4-1.035-.011-.065-.034-.13-.044-.2a6.26,6.26,0,0,1,.559-3.735.218.218,0,0,0-.318-.279.214.214,0,0,0-.181-.182.154.154,0,0,0-.182.092c-.038.085-.064.172-.1.259a6.04,6.04,0,0,0-.432,2.344,3.78,3.78,0,0,1-.132-.577,4.257,4.257,0,0,1-.01-.582,4.282,4.282,0,0,1,.146-1.1.155.155,0,0,0-.3-.084,4.56,4.56,0,0,0-.163,1.817,4.887,4.887,0,0,0,.131.688,3.144,3.144,0,0,0,.439,1.017c.008.105,0,.209.017.313.008.061.021.123.031.185a5.482,5.482,0,0,0,1.726,3.411c.145.117.405-.034.282-.217a12.811,12.811,0,0,1-.964-1.571l-.007-.018c-.062-.132-.105-.272-.158-.408a.131.131,0,0,0,.054-.148" transform="translate(1.657 0.281)" fill="#7db1c7"/>
  <path id="Path_4621" data-name="Path 4621" d="M85.873,22.779a8.774,8.774,0,0,1-1.841-2.51,6.942,6.942,0,0,1-.6-3.1c.007-.185-.28-.185-.287,0a7.229,7.229,0,0,0,.617,3.2,7.752,7.752,0,0,0,.632,1.135,5.181,5.181,0,0,0,1.349,1.435.092.092,0,0,0,.074.013.109.109,0,0,0,.052-.177" transform="translate(1.697 0.348)" fill="#7db1c7"/>
  <path id="Path_4622" data-name="Path 4622" d="M87.739,24.044c-.1-.155-.177-.324-.271-.484.016.016.028.036.044.052a2.443,2.443,0,0,0,.944.621.093.093,0,0,0,.09-.154c-.236-.264-.518-.472-.777-.712a.141.141,0,0,0,0-.134,1.992,1.992,0,0,0-.484-.478c-.1-.09-.195-.188-.291-.284a5.711,5.711,0,0,1-.874-1.908c-.049-.2-.355-.115-.308.085a5.973,5.973,0,0,0,.236.69c-.056-.084-.118-.163-.17-.249a7.143,7.143,0,0,1-.983-2.721c-.031-.215-.412-.167-.384.052a7.5,7.5,0,0,0,1.9,4.084,5.83,5.83,0,0,0,.479.46c.205.416.406.835.649,1.232.157.256.32.508.494.753.011.016.021.034.033.049a4.572,4.572,0,0,0,.609.747.112.112,0,0,0,.176-.136c-.007-.011-.016-.022-.024-.035-.156-.259-.358-.495-.537-.741s-.372-.52-.547-.79" transform="translate(1.725 0.372)" fill="#7db1c7"/>
  <path id="Path_4623" data-name="Path 4623" d="M12.618,2.553a2.879,2.879,0,0,0-1.094-.106.739.739,0,0,0-.656.4.366.366,0,0,0,.186.551c.186.076.286-.153.2-.3l.038-.018c.04-.01.072-.053.114-.064a1.286,1.286,0,0,1,.37-.009,2.734,2.734,0,0,1,.736.133,2.794,2.794,0,0,1,1.261.833,2.266,2.266,0,0,1,.131.206c.046.1.1.2.142.3a4.349,4.349,0,0,1,.281,1.576c-.005.257-.058.508-.07.762a6.243,6.243,0,0,1-.169.819.193.193,0,0,0,.035.139c-.019.043-.032.09-.053.132-.122.245-.27.479-.408.714-.154.263-.377.473-.547.723-.09.132.085.288.213.212a2.133,2.133,0,0,0,.4-.312.187.187,0,0,0,.261.082,1.273,1.273,0,0,0,.386-.326c-.154.281-.329.548-.476.833a2.325,2.325,0,0,0-.354.5.17.17,0,0,0,.19.246,1.054,1.054,0,0,0,.373-.193.2.2,0,0,0,.157.018c.018-.005.036,0,.054-.011a3.16,3.16,0,0,0,.8-.842,6.822,6.822,0,0,0,.629-1.022c.017-.035.028-.071.044-.106a7.524,7.524,0,0,0,.687-2.148.279.279,0,0,0-.189-.334.275.275,0,0,0-.156.01,6.89,6.89,0,0,0-1.671-3.467c-.118-.131-.305.06-.192.191a6.452,6.452,0,0,1,1.207,2.092A7.233,7.233,0,0,1,15.765,5.9c.008.047.009.094.016.141-.123-.087-.31-.081-.349.107-.006.029-.016.057-.022.086-.011-.063-.032-.126-.046-.188a4.679,4.679,0,0,0-.3-1.684.2.2,0,0,0-.212-.127,5.086,5.086,0,0,0-.711-1.545c-.134-.191-.448-.013-.316.186.043.064.069.137.109.2A4.411,4.411,0,0,0,12.6,1.935a4.188,4.188,0,0,0-.531-.271c-.261-.1-.374.211-.243.4a.246.246,0,0,0,.105.1,3.365,3.365,0,0,1,.689.39m3.213,3.934c0,.047.009.093.012.14a7.046,7.046,0,0,1-.419,1.27c0-.019,0-.039.006-.059a10.482,10.482,0,0,0,.4-1.351" transform="translate(0.221 0.033)" fill="#7db1c7"/>
  <path id="Path_4624" data-name="Path 4624" d="M2.526,6.822a3.53,3.53,0,0,1-.168-1.4A3.528,3.528,0,0,1,2.8,4.1l0,0A8.016,8.016,0,0,0,4.191,9.149c.114.165.241.336.374.5A4.064,4.064,0,0,0,6.158,11.2a.115.115,0,0,0,.071.006,9.415,9.415,0,0,0,1.611,1.91.06.06,0,0,0,.084-.085A11.341,11.341,0,0,1,5.379,9.087c-.043-.114-.228-.065-.185.051a10.812,10.812,0,0,0,.752,1.574c-.108-.091-.212-.188-.316-.283a.123.123,0,0,0,.011-.158C5.3,9.81,4.878,9.416,4.546,8.941c-.068-.1-.126-.206-.19-.309A5.03,5.03,0,0,1,3.951,6.38c.007-.139-.2-.137-.215,0a5.1,5.1,0,0,0,.054,1.19c-.036-.083-.081-.16-.113-.243a7.783,7.783,0,0,1-.532-3.506.139.139,0,0,0-.038-.109,2.947,2.947,0,0,1,1.82-.978c.347-.042.363-.586,0-.558a3.6,3.6,0,0,0-.788.15A3.442,3.442,0,0,0,2.246,3.743,3.184,3.184,0,0,0,2.111,7c.008.012.021.012.031.023a.223.223,0,0,0,.385-.2" transform="translate(0.035 0.044)" fill="#7db1c7"/>
  <path id="Path_4625" data-name="Path 4625" d="M8.614,13.43a4.207,4.207,0,0,0,.517,1.022c.056.078.182.01.132-.077a8.158,8.158,0,0,1-.416-.814.092.092,0,0,0,.081-.154l-.207-.2c-.054-.15-.119-.3-.16-.454a.08.08,0,0,0-.153.043c.012.051.036.1.049.151a7.093,7.093,0,0,1-.988-1.133,6.017,6.017,0,0,1-.848-1.987c-.041-.181-.317-.1-.277.077a6.246,6.246,0,0,0,.885,2.084A4.85,4.85,0,0,0,8.614,13.43" transform="translate(0.129 0.198)" fill="#7db1c7"/>
  <path id="Path_4626" data-name="Path 4626" d="M74.018,94.686c-.01-.05-.021-.1-.032-.149-.127-.642-.263-1.285-.4-1.929.014.018.027.038.041.056.221.279.454.593.714.868.1.292.2.586.314.876a6.821,6.821,0,0,0,.605,1.4c.021.032.039.068.062.1a.165.165,0,0,0,.081.054c.028.044.049.095.079.137a.148.148,0,0,0,.129.059.132.132,0,0,0,.141-.172,6.506,6.506,0,0,0-.342-.871c-.1-.279-.229-.552-.332-.82-.044-.116-.087-.234-.131-.351a.131.131,0,0,0,.037-.153,2.754,2.754,0,0,0-.246-.411c-.208-.586-.41-1.174-.576-1.773a.152.152,0,0,0-.068-.085c-.235-.695-.478-1.387-.688-2.09a.176.176,0,0,0-.339.093c.27.969.572,1.929.89,2.884-.2-.253-.384-.512-.574-.768a.123.123,0,0,0-.006-.054c-.013-.027-.032-.05-.045-.077a42.652,42.652,0,0,0-2.141-6.839c-.076-.177-.357-.05-.306.129.508,1.787,1.051,3.557,1.565,5.337q-.438-.643-.873-1.286l-.221-.327a14.209,14.209,0,0,0-1.821-5.108.14.14,0,0,0-.241.141,25.332,25.332,0,0,1,1.47,3.937c.021.082.037.163.056.244l-1.086-1.6c-.127-.186-.431-.01-.3.178l1.315,1.941c0,.01,0,.019,0,.03.1.174.2.343.3.516q.148.793.226,1.595a23.778,23.778,0,0,0-1.705-2.661q-1.125-1.606-2.351-3.138c-.183-.229-.5.095-.32.321q1.217,1.537,2.337,3.149c.691,1,1.314,2.079,2.09,3.016.01.189.027.379.031.568a.124.124,0,0,0,.247,0c0-.171-.008-.347-.012-.52a.089.089,0,0,0,0-.078l0-.008c-.012-.491-.039-.984-.092-1.479.36.593.733,1.177,1.131,1.745.08.115.168.224.25.338q.326,1.188.613,2.389c.06.249.129.495.186.745.051.226.39.129.346-.1" transform="translate(1.364 1.701)" fill="#7db1c7"/>
  <path id="Path_4627" data-name="Path 4627" d="M69.048,86.869q-.276-.545-.549-1.089c0-.005-.009,0-.007,0l.542,1.093c.005.009.018,0,.014-.008" transform="translate(1.398 1.75)" fill="#7db1c7"/>
</svg>
