<svg xmlns="http://www.w3.org/2000/svg" width="100.632" height="92.006" viewBox="0 0 100.632 92.006">
  <g id="Group_451" data-name="Group 451" transform="translate(0 0)">
    <path id="Path_1293" data-name="Path 1293" d="M96.687,59.528a9.27,9.27,0,0,0,3.945-7.231c-.73-.957-2.354-1.019-3.692-1.366-1.64-4.712-3.405-9.475-5.006-14.362a61.767,61.767,0,0,1-2.124-7.584c-.485-2.534-1.955-4.806-2.377-7.332a2.852,2.852,0,0,0,.506-2.782c-.156-.42-.553-.568-.658-.91a3.594,3.594,0,0,0,.152-1.062c.482-.142,1.091-.426,1.466-.506a2.234,2.234,0,0,0,1.466,3.085c1.047.068,1.765.351,2.528,0a2.8,2.8,0,0,0,1.213-1.265,3.879,3.879,0,0,0,.2-.961c.053-.271.182-.534.2-.758a3.7,3.7,0,0,0-.3-1.719c-.19-.46-.567-.814-.657-1.264-3-1.359-7.039-.813-9.759.1-1.408.473-2.636,1.324-4.047,1.718-.72.2-1.566.345-2.376.506a21.3,21.3,0,0,1-2.478.4,16.676,16.676,0,0,1-4.652-.506,16.534,16.534,0,0,1-2.732-.505c-.5-.2-.922-.557-1.416-.809a16.812,16.812,0,0,0-1.568-.657c-1.078-.417-2.071-.96-3.084-1.366a18.818,18.818,0,0,0-5.007-1.669c-.665-.075-1.349.094-2.174,0-.387-.044-.7-.3-1.163-.2-.262-.244-.356-.656-.709-.81.191-.76-.238-1.787-.049-2.377.095-.3.663-.453.808-.758a6.056,6.056,0,0,1,.152-.708c.1-.232.245-.263.3-.557C54.026,3.2,52.879.779,51.478.313c-.234-.078-.552-.046-.808-.1a6.559,6.559,0,0,0-.709-.2,2.754,2.754,0,0,0-2.428,1.01,8.082,8.082,0,0,0-.808.81A4.043,4.043,0,0,0,48.445,7.7V9.769c-.447.007-.475.436-.759.607a11.475,11.475,0,0,0-3.49.657c-.782.207-1.568.343-2.325.557-1.484.419-2.852,1.06-4.247,1.568-2.071.752-4.029,1.788-6.22,2.478a12.916,12.916,0,0,1-2.277.657,18.924,18.924,0,0,1-4.247-.2c-1.142-.136-2.167-.657-3.236-.86-.4-.075-.889-.01-1.264-.1-1.112-.269-2.151-1.094-3.39-1.517A14.916,14.916,0,0,0,13.1,12.551a13.124,13.124,0,0,0-5.916.96c-.161.457-.625.68-.809,1.264-.412,1.3-.18,3.277.809,4.1a3.17,3.17,0,0,0,1.212.456c.35.1.652.273.861.3a2.458,2.458,0,0,0,2.679-1.669,3.5,3.5,0,0,0-.3-1.821c.68-.038,1.208.073,1.871.051-.287.6,0,1.265-.2,1.922-.093.294-.4.521-.506.86a2.949,2.949,0,0,0,.354,2.578,31.791,31.791,0,0,0-2.073,5.512c-.642,1.839-1.483,3.627-2.123,5.461-.815,2.333-1.589,4.8-2.529,6.928-.471,1.069-.749,2.355-1.213,3.438-.083.193-.347.5-.153.507.026-.105.177-.525.2-.3-.966,2.623-2.091,5.089-2.933,7.838A13.251,13.251,0,0,0,.1,52.045c.22.35-.1.467-.1.96a4.511,4.511,0,0,0,.556,1.668A12.553,12.553,0,0,0,9.1,61.956a23.354,23.354,0,0,0,6.877.708,20.876,20.876,0,0,0,3.287-.556,28.029,28.029,0,0,0,3.085-.809,11.484,11.484,0,0,0,5.564-4.551,10.445,10.445,0,0,0,.605-.86,7.633,7.633,0,0,0,.709-3.338c-.106-.424-.482-.607-.91-.911a3.751,3.751,0,0,0-2.226-1.112c-3.68-9.3-6.648-19.308-10.467-28.47.092-.8.793-1.176.759-1.922-.027-.612-.782-1.219-.859-1.971a5.886,5.886,0,0,1,.2-1.265c3.493,1.713,6.986,4.346,11.53,5.006.949.139,1.867.185,2.781.354a18.027,18.027,0,0,0,8.244-.657c1.664-.453,3.237-.919,4.8-1.467a29.372,29.372,0,0,1,4.653-1.669c.187.083.156.383.252.557-.024.293.4.14.4.4-.116,6.114.22,12.26.1,18.255a45.445,45.445,0,0,0-.05,6.018c.024.2.131.406.152.607.092.939-.051,1.953-.051,2.932,0,.918-.036,1.854,0,2.782.132,3.308.2,6.626.2,10.063,0,4.551.009,8.791-.1,13.047a6.794,6.794,0,0,0-2.68,5.966,35.212,35.212,0,0,0-4.955,1.72,4.735,4.735,0,0,0-.759.2c-.4.238-.406.84-.657,1.163a36.475,36.475,0,0,0-7.029,1.669c-.163.237-.31.205-.557.3.007.284-.332.453-.4.759-.2.838.271,1.457.354,1.972.046.293-.055.5,0,.657.316.923,2.33,1.492,3.64,1.871,1.475.425,2.987.717,4.5,1.011a55.948,55.948,0,0,0,14.968.961c1.715-.137,3.39-.295,4.956-.557a30.263,30.263,0,0,0,4.6-.91,19.722,19.722,0,0,0,1.973-.81,7.3,7.3,0,0,0,1.82-.96,3.609,3.609,0,0,0,.3-4c-.282.031-.4-.261-.606-.355a10.1,10.1,0,0,0-1.669-.4c-1.759-.4-3.617-.76-5.36-1.012a5.315,5.315,0,0,0-.253-.962,26.652,26.652,0,0,0-6.17-2.527A7.892,7.892,0,0,0,53.1,74.4c-.281-.412-.773-.739-.859-1.163a20.234,20.234,0,0,1,0-3.388c0-5.81.074-11.478-.1-17.093-.07-2.263.076-4.471,0-6.674-.3-8.721-.059-17.684-.1-27.053a2.623,2.623,0,0,0,.607-.2,5.529,5.529,0,0,0,.455-.354,23.412,23.412,0,0,1,5.612,1.113,22.969,22.969,0,0,1,2.631.758,34.782,34.782,0,0,0,4.9,1.669,15.969,15.969,0,0,0,2.629.606A18.9,18.9,0,0,0,80.1,20.135c1.367-.765,2.528-2.038,4.349-2.325a3.18,3.18,0,0,0,.4,1.214,2.058,2.058,0,0,0-.152,1.769c.144.5.669.863.709,1.215a9.524,9.524,0,0,1-.455,1.769c-.164.651-.341,1.283-.457,1.769-.873,3.669-2.039,7.044-2.831,10.569C80.557,41.057,79,45.63,77.824,50.122c-1.884.1-3.181.8-4.8,1.164-.407.382-1.082.393-1.314.859-.447.894.115,2.22.354,2.832a12.365,12.365,0,0,0,3.894,4.955,10.84,10.84,0,0,1,1.768.96,13.542,13.542,0,0,0,2.124.759,20.491,20.491,0,0,0,4.6,1.012,32.306,32.306,0,0,0,4.1-.1,17.8,17.8,0,0,0,4.5-1.061,12.1,12.1,0,0,0,3.641-1.973M24.98,50.375c-1.274-.207-2.628-.339-3.995-.455-1.838-8.646-3.9-17.066-5.461-25.992q4.817,13.135,9.455,26.447M15.726,28.783c1.344,6.895,2.541,14.02,3.995,20.884-5.623-.129-12.037-.277-16.484.96,3.574-9.555,6.989-19.271,10.619-28.771.145.005.33-.028.4.05a33.244,33.244,0,0,1,.709,3.489c.206,1.136.535,2.252.758,3.388m73.679,2.326c2.011,6.406,4.214,12.857,6.118,19.518-3.244-.784-7.216-.839-11.125-.96.6-8.969,1.574-18.011,2.426-26.9.044-.009.049.02.052.051.936,2.508,1.692,5.629,2.528,8.293M79.493,46.835c.3-1.046.488-2.174.86-3.186.295-.8.678-1.872.962-2.883.651-2.318,1.155-4.757,1.82-7.129.879-3.141,1.917-6.2,2.529-9.355-.074,1.757-.268,3.6-.456,5.462-.184,1.813-.225,3.707-.556,5.41a5.175,5.175,0,0,1-.051,2.175c-.345,4-.545,8.511-.909,12.338a35.941,35.941,0,0,0-5.058.354c.207-1.078.551-2.112.859-3.186" transform="translate(0 0)" fill="#7db1c7"/>
    <path id="Union_14" data-name="Union 14" d="M49.661,88.644h.151a3.6,3.6,0,0,1-.051.961C49.46,89.537,49.648,88.877,49.661,88.644Zm1.01.91a4.845,4.845,0,0,0-.051-.86c.852.058,1.765.057,2.681.05-.06.315.107.611,0,.81Zm-.506-.91h.2c-.033.286.066.707-.051.91C50.129,89.388,50.21,88.952,50.165,88.644Zm-1.061,0h.151c-.06.294.04.747-.151.91C49.215,89.254,49.093,88.983,49.1,88.644Zm-.86,0c.193.094.108.734.051.91C48.1,89.464,48.322,88.957,48.243,88.644Zm-.657.91a3.484,3.484,0,0,1-.051-.91l.077,0c.112,0,.224-.005.277.052-.071.275,0,.515-.051.86Zm-4.7-.254v-.959a35.3,35.3,0,0,0,4.247.3V89.5c-.2.01-.4.014-.6.014C45.336,89.517,44.049,89.373,42.884,89.3Zm12.036-.555c.275-.025.174.7.05.759C54.8,89.437,54.848,88.885,54.92,88.744Zm-.557,0c.165.037.165.722,0,.759C54.417,89.21,54.271,88.914,54.363,88.744ZM53.6,89.5a5,5,0,0,0-.1-.759h.506V89.5ZM48.7,88.644c.059-.008.09.011.1.051a1.1,1.1,0,0,1-.05.454,1.3,1.3,0,0,1-.022.33A4.371,4.371,0,0,1,48.7,88.644Zm6.725.1h.3c-.053.234.131.7-.152.707C55.385,89.358,55.494,88.961,55.424,88.744Zm.606-.051c1.6-.066,3.035-.3,4.5-.506.186.051.086.387.153.556a26.37,26.37,0,0,1-4.654.658Zm-13.654-.455a.176.176,0,0,1,.152.025.178.178,0,0,0,.152.026,2.425,2.425,0,0,1-.1.961C42.182,89.243,42.46,88.561,42.376,88.239Zm-.506-.051h.253c-.06.345.075.883-.2,1.011C41.779,89.087,41.922,88.531,41.871,88.188Zm-.4-.05h.152a2,2,0,0,0,0,.961.136.136,0,0,1-.049.011C41.36,89.11,41.514,88.408,41.468,88.138Zm-.557-.1h.153a2.865,2.865,0,0,1-.051,1.011C40.786,88.9,40.973,88.347,40.911,88.037Zm-.605-.1h.2c.151.315-.044.685,0,1.061C40.216,88.867,40.4,88.26,40.305,87.936Zm-.53.931a.382.382,0,0,0-.229-.022,8.98,8.98,0,0,0,.051-1.01c.134,0,.289-.019.354.05V88.9h-.027A.427.427,0,0,1,39.776,88.867Zm-.835-1.183a.257.257,0,0,1,.117.029.26.26,0,0,0,.186.02,3.034,3.034,0,0,1-.152,1.011C38.777,88.655,39.013,88.014,38.941,87.684Zm21.945.454a.423.423,0,0,0,.173-.029.389.389,0,0,1,.232-.021v.506a2.129,2.129,0,0,1-.353.1C60.964,88.464,60.848,88.378,60.886,88.138Zm-22.472.475a.379.379,0,0,0-.233-.02c.255-.15.208-.6.2-1.012a.129.129,0,0,1,.112.029.143.143,0,0,0,.141.023,7.32,7.32,0,0,0-.05,1.011h-.023A.426.426,0,0,1,38.413,88.614Zm-.839-1.133c.119-.1.339.035.506.049.033.306-.067.741.051.962a.45.45,0,0,1-.164.036C37.6,88.527,37.6,87.886,37.574,87.481Zm24.07,1.011v-.5h.2c-.042.211.068.421,0,.5Zm-24.981-.2c-.035-.389.086-.622.051-1.012a1.572,1.572,0,0,1,.556.1,5.074,5.074,0,0,0,.152,1.063A3.84,3.84,0,0,0,36.663,88.289Zm25.638.051c.04-.208-.077-.26-.05-.456h.2c-.023.17.073.458-.121.458Zm.556-.152v-.405c.109-.03.165.086.165.2s-.044.208-.132.208A.129.129,0,0,1,62.858,88.188Zm-26.6-1.011h.151c-.109.277.064.838-.151,1.011C36.211,87.99,36.291,87.524,36.259,87.178Zm-.5-.1h.15a4.185,4.185,0,0,0-.05.961C35.628,87.91,35.813,87.37,35.754,87.076Zm27.812.1c-.057.244.122.729-.1.809C63.56,87.682,63.229,87.252,63.566,87.178Zm-28.4.686a.249.249,0,0,0-.118-.029c.011-.22-.053-.6-.05-.962.14.027.262.073.4.1a4.315,4.315,0,0,0-.051.911.315.315,0,0,1-.069.008A.265.265,0,0,1,35.163,87.864Zm28.807-.837h.2c-.028.29.094.734-.152.808C63.9,87.664,64,87.28,63.97,87.027Zm-7.837.4c1.476-.4,3.246-.5,4.3-1.315a.793.793,0,0,0-.548.031,1.327,1.327,0,0,1-.413.069A4.37,4.37,0,0,1,58.712,85c.093-.159.33-.176.506-.253.136.489.537.712.809,1.063.432-.416-.382-.762-.454-1.164a7.994,7.994,0,0,0,1.213-1.011c1.264.473,2.454,1.02,3.742,1.466-.632.413-1.764.326-2.478.657.141.146.393.116.637.087.281-.034.55-.068.627.167.788-.191,1.665-.291,2.427-.506-1.551,1.062-3.845,1.2-6.017,1.519-2.2.318-4.486.626-6.675.808A19.761,19.761,0,0,1,56.133,87.43Zm8.6-.556c-.006.348.029.735-.253.811C64.415,87.467,64.277,86.742,64.729,86.873Zm-30.29-.1h.2a5.375,5.375,0,0,1-.051.911C34.3,87.618,34.5,87.07,34.439,86.773Zm28.368.606h.2c.022.121-.048.186-.114.186S62.776,87.506,62.807,87.379Zm-11.176.1a7.672,7.672,0,0,1-.151-1.669h.151a4.493,4.493,0,0,0,.506,1.669Zm-1.263,0a6.341,6.341,0,0,1,0-1.72,4.732,4.732,0,0,0,.808.051,10.272,10.272,0,0,0,0,1.669Zm-5.916-.1c.15-.724.383-1.371.557-2.074-.415,0-.467.558-.557.861a7.365,7.365,0,0,0-.253,1.162,1.148,1.148,0,0,1-.38-.051,1.135,1.135,0,0,0-.38-.05c.183-.678.443-1.278.657-1.923-1.956-.352-3.953-.966-4.8-2.577h.1c1.02.746,2.55.989,3.64,1.669,5.325.758,12.762,1.022,16.892-1.062a.949.949,0,0,1,.1-.4c.238.135.023.531-.1.708-.951,1.338-3.742,1.576-5.867,1.87-.193.042-.2-.108-.254-.2a.792.792,0,0,1-.691.173,1.9,1.9,0,0,0-.573.03c-.112-.191-.136-.472-.353-.557-.115.071-.02.353-.051.506-.3.007-.31.051-.657.051-.075-.111,0-.377-.152-.4-.182,0-.041.331-.153.4-.421,0-.921.079-1.011-.253a.532.532,0,0,1-.5.353c.026.161.288.083.353.2v1.669C48.183,87.424,46.25,87.469,44.451,87.379Zm20.632-.657c.281-.03.165.649.05.708C64.945,87.4,65.024,86.833,65.083,86.722ZM53,87.379a4.99,4.99,0,0,1-.4-1.517H53c0,.571.162.984.2,1.517Zm.354-1.517h.3c.1.474.188.959.3,1.415-.072,0-.143-.008-.151.051C53.448,87.046,53.494,86.358,53.352,85.862Zm12.236,1.366c.021-.232-.051-.558.051-.709.161.035.185.71-.035.71ZM54.06,85.862a.414.414,0,0,1,.174.029.4.4,0,0,0,.23.023c.008.467.275.93.253,1.264a.566.566,0,0,1-.061,0c-.067,0-.135-.005-.142.052A2.72,2.72,0,0,1,54.06,85.862ZM42.782,87.126c.2-.528.485-.964.709-1.466a7.389,7.389,0,0,1-.456,1.518A.327.327,0,0,0,42.782,87.126Zm-1.214,0a.545.545,0,0,0-.172,0c-.1.011-.21.02-.232-.051-.13,0-.062-.038-.051-.1.218-.279.428-.584.657-.859.21-.249.407-.612.76-.709-.238.537-.479,1.072-.76,1.568h-.605a2.975,2.975,0,0,0,.516.173Zm-3.338-.4c.244-.531.851-.7,1.417-.91-.177.362-.635.444-.91.708.083.1.3.069.353.2.9-.451,1.968-.728,2.832-1.214.13,0,.063.037.051.1a7.383,7.383,0,0,0-.962,1.467C40.065,86.978,39.181,86.818,38.231,86.722Zm16.941.3a10.259,10.259,0,0,1-.353-1.113,2.079,2.079,0,0,1,.606-.051,3.183,3.183,0,0,0,.254,1.112,3.913,3.913,0,0,1-.4.06A.791.791,0,0,1,55.171,87.027Zm-13.047-.053c.147-.561.483-.931.657-1.466a.826.826,0,0,1,.355.051c-.2.506-.464.951-.658,1.468a.47.47,0,0,1-.077.007A1.637,1.637,0,0,1,42.124,86.974Zm9.861-1.162c.493.047.238.839.454,1.162C52.228,86.849,52.111,86.191,51.986,85.812Zm14.16.506c.1-.082.028.44.051.607a.032.032,0,0,1-.019.008C66.1,86.933,66.166,86.471,66.145,86.318Zm-10.063.555c-.159-.263-.195-.648-.354-.91.1-.117.437-.035.555,0a7.147,7.147,0,0,0,.254.86.416.416,0,0,0-.215.027.466.466,0,0,1-.157.031A.439.439,0,0,1,56.082,86.873Zm.911-.152c-.285-.257-.205-.875-.608-1.011.1-.149.357-.15.556-.2a2.681,2.681,0,0,0,.405,1.162.254.254,0,0,0-.164.028.275.275,0,0,1-.121.032A.314.314,0,0,1,56.993,86.722ZM32.972,85.407c-.42-.226-1.088-.592-1.011-1.062.088-.542,1.06-.648,1.465-1.011-.213.19,0,.939-.253,1.264.986,1.254,3.229,1.743,5.21,1.669-.035.2-.223.249-.3.4C36.622,86.346,34.393,86.174,32.972,85.407Zm24.273,0a3.433,3.433,0,0,1,.455-.1,1.678,1.678,0,0,0,.506,1.115.443.443,0,0,1-.262.1C57.563,86.524,57.391,85.775,57.245,85.407ZM58,85.2c.166,0,.193-.143.4-.1a3.132,3.132,0,0,0,.556,1.214l-.067,0C58.367,86.321,58.119,85.746,58,85.2Zm-21.34.658A31.921,31.921,0,0,1,39.85,84.4c.1.022.126.109.253.1a17.613,17.613,0,0,0-2.882,1.315c.851.008,1.551-.573,2.377-.759a2.265,2.265,0,0,1-1.9,1.025A2.683,2.683,0,0,1,36.664,85.862ZM67.258,84.8a2.64,2.64,0,0,1-.051,1.264C67.05,85.672,67.258,85.2,67.258,84.8Zm-25.437.455c-.545.246-1.187.4-1.719.658A1.464,1.464,0,0,1,41.821,85.255Zm-1.213-.506a1.507,1.507,0,0,1-1.012.759C39.9,85.224,40.105,84.837,40.608,84.749Zm-5.765.658c1.379-.559,3.15-.726,4.5-1.315.126-.008.157.078.253.1-1.211.334-2.076,1.07-3.387,1.165a.287.287,0,0,0,.05-.2,1.154,1.154,0,0,0-.619.166,1.1,1.1,0,0,1-.494.167A.656.656,0,0,1,34.843,85.407Zm31.048-.05c-.02-.206.215-.157.253-.3.049.037-.028.31-.205.311A.188.188,0,0,1,65.892,85.357ZM38.687,83.536a.141.141,0,0,1,.1.153c-.752.235-1.479.531-2.224.808a9.725,9.725,0,0,1-2.175.708C35.786,84.615,37.3,84.137,38.687,83.536Zm-4.754.86c1.195-.376,2.934-.95,3.994-1.367.18-.069.292-.016.457.154-1.363.591-2.813,1.1-4.147,1.718C34.027,84.841,33.922,84.676,33.932,84.4Zm29.178-.3a10.73,10.73,0,0,1-2.122-.81c-.01-.058.01-.09.049-.1a45.185,45.185,0,0,1,4.6,1.364.631.631,0,0,1-.566.288A6.891,6.891,0,0,1,63.11,84.092Zm-27.356-.909c.746-.195,1.226-.351,1.921-.558h.15c-1.3.491-2.614.956-3.893,1.467C34.07,83.452,34.911,83.4,35.754,83.184Zm10.87.656c.079-.409.4-.155.608-.151a41.288,41.288,0,0,0,4.905-.153c.219-.033.017.354.152.405.193-.009.031-.374.152-.456.466-.2.469.241.354.556-.892.017-1.811.045-2.713.045A19.391,19.391,0,0,1,46.625,83.839Zm6.676.152c.038-.22-.062-.468,0-.556h.3v.556Zm.808-.606a1.2,1.2,0,0,0,.39-.024,1.182,1.182,0,0,1,.369-.026c.053.22-.1.232-.152.355.271.134.679-.11,1.012-.2.054-.189-.189-.079-.152-.253a1.914,1.914,0,0,0,.355-.038c.237-.043.432-.087.606.089a.273.273,0,0,0,.3-.3c.075,0,.088.063.1.127s.024.128.1.127a7.3,7.3,0,0,1-3.033.709C54.123,83.838,53.995,83.488,54.109,83.385Zm-8.14.455c0-.119.087-.149.05-.3a.177.177,0,0,1,.151.025.177.177,0,0,0,.152.026v.254Zm-.506-.051c-.094-.09.041-.128,0-.3h.2c-.049.115-.02.3-.182.3Zm-.759-.1c-.025-.161.091-.18.051-.355a.254.254,0,0,1,.165.027.26.26,0,0,0,.189.023c0,.134.02.288-.05.354C44.94,83.722,44.869,83.659,44.7,83.689Zm-.506-.051c-.229-.008-.2-.269-.2-.507a.8.8,0,0,1,.4.1c.015.216,0,.405-.2.405Zm-.86-.051a2.546,2.546,0,0,0,.1-.608h.2v.608Zm-1.112-.252a.958.958,0,0,0,.355-.558,1.881,1.881,0,0,0,.555.1,3.19,3.19,0,0,0,.05.657C42.852,83.482,42.581,83.365,42.225,83.335Zm.1-.658c-.076.188-.23.412-.152.607C41.774,83.282,42.154,82.732,42.327,82.676Zm-.859.4c.094-.21.121-.485.4-.506-.095.174-.129.526-.319.526A.211.211,0,0,1,41.468,83.081Zm3.641-.455a17.044,17.044,0,0,1-2.377-.454c-.426-.15-.817-.408-1.214-.557s-.92-.235-1.062-.658c.819-.243,1.61-.513,2.427-.759-.162,1.683,1.1,1.889,2.376,1.922.24-.023.075.044.1.2C46.53,81.738,47.545,81,48.8,80.5c-.032.48-.226.689-.2,1.113-.351.12-.859.085-1.112.3.153.22.365.177.592.134a1.332,1.332,0,0,1,.318-.033c.143.008.208.132.354.152a3.737,3.737,0,0,0,.4-.1,5.657,5.657,0,0,1,.859.152,10.818,10.818,0,0,0,6.371-1.062c-.032-.317.367-.509.4-.91V80.1a9.72,9.72,0,0,1,1.466.757c-1.084,1.369-3.724,1.6-5.866,1.922a20.02,20.02,0,0,1-2.917.187A26.781,26.781,0,0,1,45.109,82.626Zm-3.742-.151c-.112.157-.132.408-.354.456A.474.474,0,0,1,41.367,82.475Zm18.711.3c-.036-.2.048-.288.253-.252.029.173-.026.261-.168.261A.482.482,0,0,1,60.077,82.777Zm-19.419-.2c-.038-.155.138-.1.1-.253.163.019.064.254-.086.254Zm18.154-.354c.088.046.113.158.1.3-.059-.009-.091.011-.1.051C58.664,82.5,58.879,82.378,58.813,82.221Zm-7.585-.2c-.072-.071.012-.245.049-.353.165.029.236-.035.355-.051a1.4,1.4,0,0,1-.151.4Zm.759-.4a.3.3,0,0,1,.228-.038.221.221,0,0,0,.226-.062c.035-.236-.227-.177-.3-.3.1-.425.223-.823.3-1.266a4.653,4.653,0,0,0,1.366-1.011,20.056,20.056,0,0,1,2.578,1.011c-.662,1.513-2.564,1.786-4.5,2.024A.853.853,0,0,0,51.986,81.615Zm-1.518.354c-.021-.223.2-.206.353-.253v.253Zm-.506-.152a.389.389,0,0,1-.243.111C49.6,81.927,49.613,81.819,49.963,81.817Zm-4.7.1a8.208,8.208,0,0,1,1.669-1.063,3.755,3.755,0,0,1,1.922-.708,2,2,0,0,1-.859.506c-.323.15-.609.3-.911.455a4.118,4.118,0,0,1-1.805.811Zm1.82-1.468c-.517.26-1.489.938-2.275,1.265A11.472,11.472,0,0,1,47.081,80.451Zm.05-.556c-.54-.075-1.114.4-1.668.707-.266.149-.551.314-.808.457s-.537.334-.759.3c.407-.171.95-.574,1.567-.91.779-.425,1.368-.915,2.276-.606-1.193.527-2.275,1.163-3.389,1.77A27.324,27.324,0,0,1,47.131,79.894Zm2.429.253h.3a5.628,5.628,0,0,1-.555,1.417C49.116,81.216,49.533,80.615,49.559,80.147Zm1.162,0c-.271.419-.148,1.234-.758,1.315C50.2,81.01,49.917,80.035,50.721,80.147Zm.355,0h.152c-.183.389-.027,1.12-.507,1.214C50.863,80.98,50.944,80.537,51.076,80.147Zm.253,1.164c.123-.383.151-.86.3-1.213a.52.52,0,0,0,.253-.026.505.505,0,0,1,.254-.026c-.163.395-.262.852-.4,1.265Zm-7.384-.355a1.259,1.259,0,0,1-.454.254A.815.815,0,0,1,43.946,80.956ZM48.7,79.036a3.42,3.42,0,0,1,.81,0c.025,0,.074,0,.128,0,.154-.006.346-.012.125.055a1.151,1.151,0,0,1-.325.04A3.918,3.918,0,0,1,48.7,79.036Zm.4-.455h-.3c-.092-.039.031-.056.1-.051.263-.011.54-.007.818,0a4.482,4.482,0,0,0,2.014-.25c-1.026-.239-2.534.006-3.54-.253a6.744,6.744,0,0,1,1.266-.054,3.136,3.136,0,0,0,1.871-.3,4.413,4.413,0,0,0-1.288-.054,8.553,8.553,0,0,1-1.04,0h-.454c-.264-.03.1-.072.2-.05h.91c.524-.116,1.261-.02,1.568-.355a2.787,2.787,0,0,0-1.22-.03,2.833,2.833,0,0,1-1.41-.071c.563-.172,1.894.106,2.276-.4a1.743,1.743,0,0,0-.98-.033,2.279,2.279,0,0,1-1.044-.017.772.772,0,0,1,.1-.4,3.017,3.017,0,0,0,1.769-.153c-.37-.24-1.087-.052-1.668-.253.333-.241,1.14-.006,1.417-.3-.112-.132-.372-.115-.631-.1s-.525.033-.634-.1c.081,0,.164,0,.247,0a1.79,1.79,0,0,0,.815-.1c.017-.134-.069-.166-.2-.153.073-.144.275-.162.354-.3a1.055,1.055,0,0,0-.613-.038,1.018,1.018,0,0,1-.5-.011c.329-.43,1.4-.114,1.82-.456a6.726,6.726,0,0,1,1.367,4.046,4.045,4.045,0,0,1-1.866.346A15,15,0,0,1,49.1,78.58Zm-3.085-.607c.06.009.09-.012.1-.05.194.054.2.506.049.606A.924.924,0,0,1,46.019,77.974Zm.657.253a1.8,1.8,0,0,1,.051-.506,6.837,6.837,0,0,1,1.062-.4c-.179.258-.242.632-.657.657-.035.155.051.183.051.3a.785.785,0,0,1-.107.008C46.923,78.284,46.817,78.238,46.675,78.227Zm-.457-1.508c0,.1.112.925-.148.952A3.472,3.472,0,0,1,46.218,76.719Zm.61.193a9.01,9.01,0,0,0,1.365-.557c.193.6-.9.781-1.417,1.012C46.743,77.164,46.826,77.079,46.828,76.912Zm-.608-.2,0,.009C46.218,76.709,46.218,76.706,46.22,76.71ZM48.547,75.6c.131.64-1.158.727-1.669,1.061C47.029,75.9,48.057,76.016,48.547,75.6Zm2.982-1.568c.5.278.812,1.177,1.065,1.871A12.849,12.849,0,0,0,51.529,74.029ZM47.08,75.546c.6-.136,1.26-.717,1.821-.555-.45.462-1.286.534-1.821.909C46.927,75.824,47.123,75.679,47.08,75.546ZM48.9,74.383c-.529.263-1.1.482-1.67.706A2.115,2.115,0,0,1,48.9,74.383Zm-.759-.4a1.173,1.173,0,0,1-.657.3C47.558,74,47.9,73.651,48.143,73.979Zm1.415,0c.048-.1.194-.11.355-.1-.041.085-.146.1-.271.1Zm-1.163-.3c.075-.226.226.029.355.051a.118.118,0,0,1-.11.062A.413.413,0,0,1,48.4,73.675Zm1.315-1.67a2.221,2.221,0,0,1,.556-.2.744.744,0,0,1-.488.2Zm-.759-5.611c.06-.008.09.01.1.05-.053,1.746.112,4.135-.1,5.512A42.074,42.074,0,0,1,48.952,66.394Zm1.263,4.8c.114.023.02.249.051.354a2.3,2.3,0,0,0-.758.151C49.554,71.345,50.029,71.415,50.215,71.2Zm.1-.808c-.132.323-.571.338-.859.506C49.549,70.564,50.09,70.414,50.317,70.389Zm-.05-.506c.058.008.043.092.049.151-.171.251-.528.315-.859.405C49.4,69.927,50.078,70.149,50.267,69.882Zm-.86-2.782c.166-.3.571-.371.757-.657a17.036,17.036,0,0,1,.2,3.137c-.349.122-.553.389-.91.506C49.364,69.167,49.423,68.1,49.408,67.1Zm-.051-.959a5.478,5.478,0,0,0,.809-.557c.116.087.02.386.051.557-.335.135-.519.423-.86.555Zm.86-1.012c-.123.4-.568.478-.86.708A1.347,1.347,0,0,1,50.216,65.129Zm0-.758c-.061.543-.584.628-.909.91C49.281,64.684,49.937,64.495,50.215,64.371Zm-1.263-.608c.11.043.022.719.05,1.012C48.891,64.733,48.98,64.057,48.952,63.764Zm1.213-.3c.115.054.021.318.051.456-.27.235-.594.416-.859.658C49.132,63.91,49.925,63.826,50.165,63.46Zm-.859-.253a4.724,4.724,0,0,0,.859-.607c.116.07.02.352.051.506-.355.15-.552.457-.909.608Zm0-.86a4.427,4.427,0,0,0,.86-.608c.2-.019.056.315.1.457a5.508,5.508,0,0,0-.91.657C49.241,62.782,49.338,62.5,49.306,62.348Zm-.354-.759c.1-.11.032.369.051.506-.01.011-.018.016-.025.016C48.918,62.111,48.968,61.712,48.952,61.589Zm1.264-.708c.115.038.02.284.051.4-.292.249-.62.46-.91.707C49.111,61.293,49.969,61.256,50.216,60.881Zm-36-.3c.181.072.226.282.2.558C14.211,61.085,14.236,60.806,14.211,60.577Zm-.606-.454c0-.072.087-.062.171-.052a.369.369,0,0,0,.132,0c-.061.4.094.849.05,1.063C13.587,61.05,13.8,60.379,13.605,60.123Zm-.355-.051H13.5a2.525,2.525,0,0,0,0,1.063C13.272,60.927,13.354,60.408,13.25,60.071Zm-.4-.05H13.1a4.639,4.639,0,0,0,.051,1.113C12.845,60.966,12.955,60.384,12.846,60.022Zm-.3.86H12.7a.334.334,0,0,1,.05.254C12.6,61.125,12.53,61.046,12.543,60.881Zm-.811,0c.158-.023.227.044.2.2a.27.27,0,0,1-.055.006C11.762,61.09,11.749,60.985,11.733,60.881Zm4.451-.2c.389-.191.559.242.86.3a1.455,1.455,0,0,1-.42.064C16.364,61.047,16.121,60.964,16.183,60.679Zm-.335.354a.561.561,0,0,0-.171,0c-.1-.033.013-.281-.1-.3.191-.14.349.187.506.253-.016.045-.065.057-.127.057C15.923,61.04,15.886,61.036,15.848,61.033Zm-7.4-.456a.282.282,0,0,1-.05-.2h.1c.472.09.985.213,1.516.3a3.717,3.717,0,0,1,1.467.3,4.04,4.04,0,0,1-.661.051A6.9,6.9,0,0,1,8.446,60.577Zm41.77-.454c.05,0,.041.062.051.1-.144.411-.727.654-.961.808C49.415,60.534,49.986,60.5,50.216,60.123Zm-33.375.556c.274-.187.512.091.707.151-.042.111-.26.043-.3.153A3.294,3.294,0,0,0,16.841,60.679Zm-2.174-.151c.148.208.148.384.109.384S14.693,60.806,14.667,60.528Zm2.983.151c.1-.141.324.009.4.051a.162.162,0,0,1-.144.094A.424.424,0,0,1,17.65,60.679Zm-5.258-.657h.3a1.485,1.485,0,0,0,0,.759h-.028C12.321,60.781,12.475,60.282,12.392,60.022Zm-.405-.051h.1c.222.065.044.528.1.759C12.008,60.589,12.006,60.272,11.986,59.971Zm6.271.606a.249.249,0,0,1,.184.021.262.262,0,0,0,.12.031.592.592,0,0,1-.24.092C18.265,60.721,18.229,60.687,18.257,60.577Zm-6.828-.657.077,0c.112,0,.223-.005.277.052a2.6,2.6,0,0,0,.051.708h0C11.445,60.679,11.516,60.222,11.429,59.92Zm37.522-.1c.108-.035.025.546.051.759l-.009,0C48.9,60.579,48.976,60.025,48.952,59.819Zm-40.658.2a4.509,4.509,0,0,0-.1-.506c-.115.053-.021.317-.051.455-.189-.1-.112-.461-.2-.657a22.987,22.987,0,0,0,3.285.557,1.121,1.121,0,0,0,.1.657l-.128,0A18.089,18.089,0,0,1,8.294,60.022Zm6.778.455v-.406c.094-.016.152.094.159.2s-.033.205-.13.205Zm-.961-.406a.425.425,0,0,1,.3.051c.024.16-.091.179-.051.355C14.245,60.376,14.076,60.326,14.111,60.071Zm65.232-.555c.408.217.57.678,1.012.86a.531.531,0,0,1-.08.006C79.832,60.383,79.624,59.794,79.343,59.517Zm3.743.4c.368-.2.509.264.707.4a.357.357,0,0,1-.175.054C83.372,60.378,83.279,60.007,83.086,59.92Zm1.214-.05c.452-.065.479.3.708.454a.412.412,0,0,1-.19.051C84.555,60.376,84.412,60.05,84.3,59.871Zm6.27.4a.684.684,0,0,1-.4.1C90.169,60.211,90.471,60.19,90.569,60.275Zm-41.264-.506a7.785,7.785,0,0,0,.859-.556c.205-.02.057.315.1.455-.3.235-.629.451-.911.708C49.24,60.272,49.339,59.956,49.306,59.769Zm33.123.152c.335-.183.46.279.657.4a.287.287,0,0,1-.127.031C82.732,60.355,82.577,60.045,82.429,59.92Zm1.365-.05c.315.02.328.346.555.454a.253.253,0,0,1-.117.031C84.02,60.355,83.888,60.035,83.794,59.871Zm1.163.05c.014-.071.107-.061.2-.051a.491.491,0,0,0,.152,0c.038.212.27.234.3.454a.6.6,0,0,1-.122.014C85.175,60.338,85.188,60.006,84.957,59.92Zm-77.8.3a.39.39,0,0,0-.18-.052c-.063-.165.163-.038.1-.2.045,0,.075.049.1.1.042.078.078.156.148.051.044-.01.048.02.051.051s.02.048.051.051a.13.13,0,0,1-.106.053A.445.445,0,0,1,7.161,60.225Zm8.417.05a.187.187,0,0,1,.3-.2v.2Zm.605-.254c.226-.136.314.063.456.152a.206.206,0,0,1-.182.1A.265.265,0,0,1,16.183,60.022Zm65.689-.2c.311-.005.271.338.506.406a.229.229,0,0,1-.118.036C82.07,60.261,81.951,59.966,81.872,59.819Zm8.8.355a.256.256,0,0,1,.405-.051.4.4,0,0,1-.261.125A.168.168,0,0,1,90.67,60.173Zm-12.187-.809c.506-.067.549.766,1.063.861a.52.52,0,0,1-.074.005C79.015,60.231,78.842,59.584,78.484,59.364Zm7.484.454c.23.04.222.318.405.406l-.016,0C86.25,60.227,86.021,59.992,85.968,59.819Zm-4.8-.05c.277.026.337.27.454.456C81.342,60.2,81.282,59.954,81.164,59.769Zm5.259.1c.023-.072.128-.062.232-.052a.341.341,0,0,1,.426.3.31.31,0,0,1-.168.054C86.712,60.176,86.557,59.95,86.423,59.871Zm-69.632.151c.1-.177.238-.021.353.05-.035.06-.068.081-.1.081C16.968,60.152,16.891,60.05,16.791,60.022Zm61.644-.151c.047-.078.245.121.253.252C78.53,60.11,78.53,59.94,78.435,59.871ZM17.3,59.92c.075-.135.278.02.253.151C17.443,60.042,17.385,59.964,17.3,59.92Zm69.887-.152c.285-.066.251.187.4.253a.17.17,0,0,1-.114.046C87.335,60.068,87.2,59.894,87.182,59.769Zm4.2.152c.007-.111.127-.109.252-.1.005.091-.062.108-.051.2a.164.164,0,0,1-.042.006C91.451,60.028,91.468,59.921,91.38,59.92Zm-3.691-.152c.012-.07.106-.06.2-.051a.491.491,0,0,0,.152,0c-.039.155.139.1.1.252a.469.469,0,0,1-.1.012C87.853,59.983,87.816,59.83,87.688,59.769ZM7.637,59.213a.155.155,0,0,1,.1.025.156.156,0,0,0,.106.025,2.145,2.145,0,0,0,.051.608C7.65,59.808,7.738,59.416,7.637,59.213Zm80.606.506c.087-.133.355-.023.405.05-.027.073-.065.1-.108.1C88.447,59.868,88.328,59.742,88.243,59.719Zm3.843-.1h.253a.129.129,0,1,1-.253,0Zm-3.286.051c.069-.149.329-.112.4,0a.277.277,0,0,1-.209.091A.237.237,0,0,1,88.8,59.668Zm-40-9.608c0-3.59-.278-7.159-.1-10.518.04-.043.138-.03.152-.1.042-.01.048.02.051.05.117,6.548.2,13.461,0,20.229C48.7,56.692,48.8,53.347,48.8,50.06ZM7.385,59.111c.158.094.115.389.15.608A1.305,1.305,0,0,1,7.385,59.111Zm-1.82.3c.143-.008.145.124.152.253C5.611,59.637,5.524,59.59,5.564,59.416Zm83.741.152c.109-.061.349-.141.454-.051a.4.4,0,0,1-.283.1A.259.259,0,0,1,89.305,59.567Zm3.642-.1c.021.139-.189.047-.2.152C92.565,59.51,92.853,59.315,92.947,59.466Zm-16.234-.657c.371-.051.514.565.81.759C77.209,59.56,77.005,59.007,76.714,58.809Zm-61.037.708c.108-.653.2-1.32.3-1.971a.323.323,0,0,0,.2-.027.321.321,0,0,1,.2-.026c-.186.642-.238,1.414-.457,2.024Zm-.86,0a7.625,7.625,0,0,0,.1-1.82c.169-.085.489-.018.658-.1.135.46-.308,1.206-.253,1.922ZM7.13,59.062c.131.055.1.271.1.455A.743.743,0,0,1,7.13,59.062ZM5.361,57.948a10.476,10.476,0,0,1-2.478-1.162,8.777,8.777,0,0,1-2.528-3.54c-.06-.008-.042-.092-.05-.152a13.01,13.01,0,0,0,2.78,1.112A23.54,23.54,0,0,0,8.7,55.318c1.083.055,2.249.013,3.338.1a38.064,38.064,0,0,0,5.572-.094c1.343-.088,2.654-.177,3.884-.16-.008.138-.156.137-.3.137s-.28,0-.3.117c-.011.245.152.2.317.152.114-.032.229-.064.289,0-.02.379-.546.432-.81.506-.952.269-2.092.5-3.084.759-.129.044-.144-.025-.158-.094s-.023-.112-.094-.107a1.448,1.448,0,0,1-.405.3,10.474,10.474,0,0,1-2.731.3c-3.995.181-8.344-.507-10.821-1.82-.362-.192-.629-.565-1.011-.506A3.768,3.768,0,0,0,4.2,56.128a24.838,24.838,0,0,0,7.889,1.518,21.306,21.306,0,0,0,2.427.051,7.11,7.11,0,0,0,.1,1.769q-.562.032-1.115.031A23.151,23.151,0,0,1,5.361,57.948Zm9-1.921c.408.018,1.057.267,1.163-.2-1.06-.118-2.376.02-3.389-.151v.253a5.361,5.361,0,0,0,1.438.1l.381,0C14.094,56.019,14.231,56.021,14.362,56.028Zm1.872.049a1.092,1.092,0,0,1,.455-.049,1.1,1.1,0,0,1,.1-.3h-.759A.781.781,0,0,0,16.234,56.077Zm1.112-.049c.429-.214,1.619.122,1.719-.405a2.972,2.972,0,0,0-.959.012,4.189,4.189,0,0,1-.862.038A.458.458,0,0,0,17.346,56.028Zm-5.816-.051v-.355a3.974,3.974,0,0,1-.468-.03,3.3,3.3,0,0,0-.645-.021c.071.161.012.171,0,.355.075-.006.148-.008.218-.008C10.953,55.918,11.223,55.967,11.53,55.977Zm-1.87-.1c.083-.067.017-.286.1-.354a2.4,2.4,0,0,1-.547-.021,2.731,2.731,0,0,0-.412-.029c0,.134-.02.288.051.352.056-.005.109-.008.16-.008C9.247,55.816,9.434,55.865,9.66,55.875Zm9.759-.354c0,.119.087.148.05.3.306-.032.6-.078.91-.1,0-.119-.087-.149-.05-.3C20.015,55.443,19.753,55.518,19.42,55.521ZM1.064,54c-.027.1-.241.014-.1.153A21.382,21.382,0,0,0,4.3,55.166a12.98,12.98,0,0,0,3.692.456.28.28,0,0,1,.051-.2A20.844,20.844,0,0,1,.71,53.649C.732,53.864.956,53.875,1.064,54Zm81.314,5.464c-.088-.165-.253-.253-.3-.456.588-.006,1.232,0,1.9.014a35.455,35.455,0,0,0,5.075-.166c-2-.243-4.349-.134-6.473-.252a10.588,10.588,0,0,1-1.315-1.872,6.812,6.812,0,0,0,.96.052c.158.6.69.827,1.063,1.214.06-.438-.594-.853-.658-1.164a33.193,33.193,0,0,0,9.507-.808c.312.106.266.513.253.759a13.716,13.716,0,0,1-.454,1.77c-.14.054-.436.1-.506-.051-.118.052-.109.23-.254.253a36.3,36.3,0,0,1-7.628.725C83.146,59.482,82.755,59.477,82.378,59.466Zm.354-1.366a1.758,1.758,0,0,0-.759-.96A.911.911,0,0,0,82.732,58.1Zm-75.853.86a.824.824,0,0,1,.1.506A.807.807,0,0,1,6.879,58.96Zm74.387,0c.392-.038.488.22.606.456a.733.733,0,0,1-.1.007C81.447,59.423,81.384,59.165,81.266,58.96ZM49.2,40.3a2.874,2.874,0,0,1-.05-.86c.089-.3.335-.226.506-.506a.36.36,0,0,0-.251.09c-.094.065-.176.131-.255.063-.188-.931.66-.823,1.011-1.214-.018,2.989.182,6.661.151,9.809-.021,2.253-.05,5.743-.05,8.6a12.956,12.956,0,0,1,0,2.427c-.117.343-.743.53-.961.709C49.119,53.374,49.454,46.208,49.2,40.3ZM6.374,58.809c.206.045.046.457.151.607C6.367,59.32,6.41,59.026,6.374,58.809Zm74.183.1c.235-.131.356.284.456.456h-.021C80.695,59.365,80.716,59.046,80.557,58.908Zm13.3.2a1.312,1.312,0,0,1-.607.253C93.307,59.136,93.6,59.138,93.856,59.111Zm-77.522.152a12.338,12.338,0,0,1,.3-1.82.4.4,0,0,0,.174-.029.386.386,0,0,1,.231-.022,15.623,15.623,0,0,0-.354,1.872ZM6.121,58.757c.21-.007.053.352.1.506C6.113,59.171,6.114,58.966,6.121,58.757Zm73.728.051c-.005-.07.067-.061.14-.052a.281.281,0,0,0,.112,0,.943.943,0,0,0,.253.456.23.23,0,0,1-.123.042C80.043,59.256,79.975,58.91,79.849,58.809ZM17.4,57.292a2.825,2.825,0,0,1-.253,1.922C16.982,58.726,17.326,57.88,17.4,57.292ZM5.716,58.656h.2v.558C5.753,59.125,5.8,58.828,5.716,58.656Zm-1.213.2a.273.273,0,0,1,.251.3C4.653,59.077,4.52,59.026,4.5,58.858Zm.859-.252c.009-.059.093-.042.153-.05.1.123.014.423.1.555H5.607C5.357,59.112,5.5,58.721,5.362,58.606ZM17.9,57.24a.448.448,0,0,1,.355-.1c0,.689-.1,1.288-.152,1.922-.165-.029-.236.034-.355.05C17.682,58.428,18.146,57.764,17.9,57.24ZM78.586,58.5c.069-.132.262.036.353.051,0,.172-.015.352.1.4a.174.174,0,0,1-.088.028C78.776,58.988,78.732,58.594,78.586,58.5Zm-2.833-.1c.314-.077.579.333.759.557H76.5C76.249,58.96,75.992,58.562,75.753,58.4Zm-56.94-1.365c.01-.06.093-.042.153-.051a6.486,6.486,0,0,1-.254,1.973C18.482,58.488,19.045,57.678,18.813,57.038Zm.3,1.82c.038-.636.069-1.279.05-1.971.2,0,.3-.1.506-.1-.071.685-.131,1.385-.251,2.023a.177.177,0,0,0-.153.024.182.182,0,0,1-.1.031A.238.238,0,0,1,19.116,58.858ZM77.878,58.3c.312-.142.438.337.557.555h0C78.062,58.858,78.052,58.5,77.878,58.3Zm-73.072.051c.149.069.116.322.152.5A1.11,1.11,0,0,1,4.806,58.354Zm-.556-.1c.1-.128.315.054.4.1v.4C4.389,58.72,4.33,58.475,4.25,58.251Zm15.677-1.566c.572-.085.976-.34,1.517-.455a15.367,15.367,0,0,1-.355,2.173.26.26,0,0,0-.164.028.258.258,0,0,1-.189.023c.043-.523.3-1.34.05-1.82-.333.461-.1,1.485-.4,1.971-.207-.254.173-1.028,0-1.417-.4.272-.075,1.272-.506,1.518C19.667,58.208,19.977,57.363,19.926,56.685ZM3.592,58.354c.071-.087.294.106.353.2a.067.067,0,0,1-.052.026C3.8,58.582,3.689,58.386,3.592,58.354ZM81.67,58.5c-.344-.6-.706-1.182-1.061-1.771.012-.07.106-.06.2-.051a.471.471,0,0,0,.152,0c.186.807.752,1.236,1.112,1.871A.953.953,0,0,0,81.67,58.5Zm10.569-.051c.237-.857.452-1.739.657-2.629a2.1,2.1,0,0,0,.454-.151c.051-.008.1.011.1.051.016.783-.628,1.792-.71,2.629a2.885,2.885,0,0,1-.467.1ZM79.9,56.634c0-.071.088-.062.172-.052a.369.369,0,0,0,.132,0c.306.655.675,1.246,1.011,1.871C80.42,58.2,80.407,57.172,79.9,56.634Zm-3.388,1.112c.325-.088.553.356.657.657C76.8,58.339,76.732,57.963,76.512,57.746Zm2.832-1.214c.009-.059.092-.042.152-.05.246.649.595,1.193.86,1.82A8.864,8.864,0,0,1,79.343,56.532Zm14.21-.2a1.724,1.724,0,0,1-.4,1.922A13.2,13.2,0,0,1,93.553,56.329ZM21.392,58.2c.115-.7.205-1.413.3-2.124a1.013,1.013,0,0,0,.353-.151A5.654,5.654,0,0,1,21.7,58.1a.2.2,0,0,0-.152.051.206.206,0,0,1-.132.051Zm57.749-.86c-.171-.342-.342-.66-.506-.961,0-.052.052-.031.118-.009a.263.263,0,0,0,.186.009c.24.6.651,1.3.809,1.82C79.342,58.142,79.289,57.636,79.141,57.342Zm-7.383-4.248c1.4.352,2.587,1.171,4.146,1.416.549.086,1.121.032,1.719.1.782.089,1.551.415,2.428.5.854.088,1.774.162,2.681.2.279.012.577,0,.874,0a5.221,5.221,0,0,1,1.6.106c2.519-.188,5.46-.27,7.839-.608a6.43,6.43,0,0,1,1.669-.2c-.072.306-.494.25-.709.3a31.511,31.511,0,0,1-9.153,1.011,52.362,52.362,0,0,1-6.472-.5,10.735,10.735,0,0,0-1.872-.354c-.106-.046-.164-.141-.254-.2a8.621,8.621,0,0,1-2.374-.607,2.487,2.487,0,0,0,1.162.709,13.189,13.189,0,0,0,.86,2.123c.141.134-.039.129-.1.2.32.136.466.445.659.708A8.909,8.909,0,0,1,71.758,53.094Zm22.1,4.451c.112.138.124.346-.051.4C93.664,57.85,93.875,57.684,93.857,57.545ZM77.422,56.128c.008-.06.091-.043.151-.051a12.225,12.225,0,0,1,.962,1.872C77.862,57.641,77.858,56.669,77.422,56.128ZM22.4,55.774c.085-.084.226-.111.3-.2a4.23,4.23,0,0,1-.555,2.276C22.108,57.231,22.4,56.517,22.4,55.774Zm54.411.254c-.059-.011-.042-.093-.05-.152a.328.328,0,0,0,.253.051c.328.548.5,1.248.86,1.771C77.224,57.641,77.16,56.559,76.814,56.028Zm1.266.252c.388.038.475.986.758,1.315A12.991,12.991,0,0,1,78.08,56.28Zm-1.971-.555c.007-.061.091-.043.149-.051.337.576.567,1.254.86,1.872C76.7,57.015,76.476,56.3,76.108,55.724Zm-.71-.3c.009-.06.091-.044.152-.051a16.012,16.012,0,0,1,1.062,2.022C75.828,57.114,75.838,56.042,75.4,55.42ZM23.01,54.763a5.221,5.221,0,0,1,1.011-.3,14.117,14.117,0,0,1-.657,2.578,13.148,13.148,0,0,0,.2-2.377c-.46.722-.243,2.116-.81,2.73A11.427,11.427,0,0,0,23.01,54.763Zm71.908,1.567c.212.371-.063.669-.153,1.012C94.545,57.055,94.879,56.667,94.918,56.329Zm-.707-.1a1.314,1.314,0,0,1,0,1.112C93.932,57.053,94.153,56.6,94.211,56.23ZM18.459,57.292c-.011-.145-.006-.277.152-.254-.044.084,0,.255-.133.255Zm55.121-.76c.178-.075.368.272.555.355a.215.215,0,0,1-.11.033C73.838,56.921,73.715,56.625,73.58,56.532Zm21.945-.2c.134.12-.091.311-.1.457a.045.045,0,0,1-.021.008C95.343,56.794,95.519,56.456,95.525,56.329ZM24.274,55.066a2.76,2.76,0,0,1-.353,1.568A3.617,3.617,0,0,1,24.274,55.066Zm68.269.86c.2.031-.1.353-.051.556C92.366,56.354,92.513,56.068,92.543,55.926Zm1.212-.355a.824.824,0,0,1,.355-.1c.143.334-.142.57-.152.909A1.07,1.07,0,0,1,93.755,55.571Zm.605-.253c.689-.388.423.718.153.912C94.5,55.892,94.378,55.657,94.36,55.318Zm-69.429-.506c-.221.42-.068,1.214-.5,1.418C24.631,55.793,24.41,54.931,24.932,54.812Zm70.34.3c.3.223.079.73,0,1.012C95.009,55.86,95.209,55.451,95.272,55.116Zm.455.759c-.015-.2.117-.254.1-.455.1.091.058.455-.1.455Zm-70.29-1.466a2.668,2.668,0,0,1-.354,1.366C25.189,55.308,25.153,54.7,25.437,54.409Zm-3.185.909c.024.345-.331.31-.557.406C21.627,55.335,21.984,55.37,22.252,55.318Zm74.134-.1c.149.119-.062.3-.051.454C96.184,55.554,96.4,55.367,96.386,55.218Zm-73.931-.253c.054-.1.232-.072.3-.153.3.229-.019.676-.251.709C22.39,55.341,22.538,55.194,22.454,54.966Zm-.759.15c.071-.181.406-.1.606-.151.055.177-.153.269-.342.269C21.837,55.234,21.724,55.2,21.7,55.116Zm73.882-.252c.057.008.088-.011.1-.051.143.069-.039.226-.051.3h-.008C95.522,55.117,95.6,54.936,95.578,54.864Zm-69.634-.707c.174.138-.17.6-.152.91A1.544,1.544,0,0,1,25.944,54.157Zm70.088.656c.035-.1.135-.135.252-.151-.057.127-.024.347-.2.355C96.076,54.936,96.105,54.823,96.031,54.812Zm.708-.253c-.068.117-.085.288-.152.406C96.482,54.872,96.564,54.541,96.739,54.56Zm-72.516-.05h.251c.054.238-.114.254-.2.354C24.162,54.842,24.253,54.615,24.224,54.51Zm70.694.152v-.2a.178.178,0,0,0,.152-.026.174.174,0,0,1,.151-.026.206.206,0,0,1-.207.28A.164.164,0,0,1,94.917,54.661Zm.607-.353h.153v.2c-.073,0-.144-.008-.153.05C95.406,54.547,95.5,54.339,95.524,54.308Zm.407.049c.009-.042-.021-.047-.051-.049.1-.189.331-.131.506-.051-.056.131-.327.045-.405.152l-.015,0C95.936,54.41,95.932,54.385,95.931,54.357ZM9.61,54.308A18.093,18.093,0,0,1,5.16,53.8c1.309.123,2.951.353,4.451.455a.552.552,0,0,0,.169,0c.1-.011.21-.02.234.052Zm4.519-.2a.566.566,0,0,0-.171,0c.47-.779,1.007-1.488,1.468-2.275a.75.75,0,0,0-.451-.052,1.679,1.679,0,0,1-.308,0,19.453,19.453,0,0,1-1.719,2.326,18.712,18.712,0,0,0,1.517-2.275c-.014-.072-.109-.062-.2-.052a.476.476,0,0,1-.15,0A12.073,12.073,0,0,0,12.7,54.105a4.7,4.7,0,0,1-.962-.05c.5-.682.929-1.432,1.367-2.174-.07-.133-.31-.012-.4,0C12.2,52.532,11.82,53.3,11.38,54c-3.488-.355-7.287-.4-9.911-1.617.13-.36-.065-1.042.152-1.315.164.161-.081.814.152,1.113.214.045.216-.122.2-.3a22.841,22.841,0,0,1,4.449-.709c.184-.032.063.24.2.253.162-.006.222-.114.2-.3,1.153-.094,2.27-.225,3.439-.3-.173.282-.353.557-.506.861.462-.081.522-.559.709-.911a1.355,1.355,0,0,0,.406-.026,1.355,1.355,0,0,1,.4-.026c-.159.3-.364.547-.506.86.549-.008.555-.558.759-.91A3.977,3.977,0,0,0,12,50.636a3.189,3.189,0,0,1,.645-.02c-.1.291-.308.467-.4.759.6-.075.586-.763.909-1.113h.506c-.158.365-.442.606-.608.962.014.07.108.06.2.05a.446.446,0,0,1,.152,0c.4-.262.275-1.041.96-1.012-.179.36-.485.594-.657.962.386.012.51-.237.635-.485.134-.269.269-.537.731-.477-.182.325-.425.587-.607.911.013.071.107.061.2.051a.424.424,0,0,1,.152,0c.175-.063.13-.344.3-.406.242.047-.111.266-.1.406h.708c.183-.088.113-.429.4-.406.232.035-.122.254-.1.406.392.239.423-.317.658-.406-.033.171-.159.248-.2.406.005.038.076.022.165.005a.539.539,0,0,1,.24-.005c.165-.086.123-.383.353-.406-.044.159-.19.215-.2.406a.3.3,0,0,0,.417-.193c.058-.109.116-.219.29-.213.239.044-.147.229-.1.406.469.115.342-.368.657-.406-.011.192-.159.246-.2.406a.292.292,0,0,0,.379-.2c.055-.106.111-.213.278-.209.123.159-.164.248-.15.456.383.081.343-.263.5-.4.253.069-.117.294-.1.454a.237.237,0,0,0,.231-.028c.062-.037.1-.073.122-.022.094.125.053.386.153.506C19,52.47,18.642,53.329,18.1,54a21.766,21.766,0,0,1,1.214-2.122c-.123-.1-.4-.035-.557-.1-.537.693-.909,1.551-1.414,2.276a14.188,14.188,0,0,1,1.214-2.225c-.555-.048-.718.651-.961,1.06-.265.446-.469,1.032-.962,1.165.432-.783.926-1.5,1.366-2.276-.57.073-.719.714-.961,1.112a6.091,6.091,0,0,1-.86,1.214c.46-.787.962-1.532,1.417-2.326-.509-.06-.86.749-1.113,1.163-.285.464-.427.994-.81,1.163.412-.786.894-1.5,1.316-2.275-1.318-.474-1.46,1.4-2.125,1.971-.036.154.053.184.051.3h-.5c.749-.532,1.061-1.5,1.618-2.224-.051-.085-.216-.056-.3-.1a12.232,12.232,0,0,0-1.365,2.276c-.015.046-.065.057-.126.057C14.2,54.113,14.166,54.109,14.129,54.106ZM13.3,51.83A12.6,12.6,0,0,0,12.189,53.8c.688-.441.971-1.286,1.466-1.921-.005-.063-.014-.12-.1-.1,0,.069-.067.06-.14.051a.6.6,0,0,0-.07-.006A.115.115,0,0,0,13.3,51.83Zm-3.236,1.313a2.739,2.739,0,0,0,.759-1.163.254.254,0,0,0-.162.028.256.256,0,0,1-.192.023C10.389,52.43,9.984,52.753,10.065,53.144Zm1.315-.1a4.775,4.775,0,0,0,.81-1.113C11.613,51.963,11.416,52.643,11.38,53.043Zm-.657,0a2.648,2.648,0,0,0,.707-1.063C10.9,52.012,10.752,52.686,10.722,53.043Zm-1.416-.4c.293-.062.268-.441.454-.608-.031,0-.06-.008-.051-.051h-.1C9.515,52.208,9.327,52.341,9.306,52.64Zm2.174-1.164c.411-.01.45-.394.556-.708C11.676,50.829,11.623,51.2,11.481,51.476Zm4,2.124c.015.1-.106.5-.355.506A2.344,2.344,0,0,0,15.476,53.6Zm65.158.356a3.477,3.477,0,0,0-.582-.054c.057-.11.334,0,.353-.151a14.057,14.057,0,0,1-3.64-.3,20.614,20.614,0,0,1,.605-2.478,31.559,31.559,0,0,1,3.239-.354,14.133,14.133,0,0,0-.862,1.415,9.854,9.854,0,0,0,1.062-1.466h.506A14.861,14.861,0,0,0,80.1,52.335c.67-.424.943-1.248,1.466-1.821h.454c-.485.829-1.253,1.376-1.566,2.377a19.349,19.349,0,0,0,1.87-2.426h.455a27.507,27.507,0,0,0-1.769,2.528c.522-.116.739-.767,1.061-1.213s.728-.886,1.012-1.315c.072,0,.143.008.152-.051.042-.008.048.021.051.051-.345.548-.789,1.006-1.165,1.516a5.3,5.3,0,0,0-1.011,1.669c.392-.061.512-.488.708-.759.574-.786,1.236-1.6,1.77-2.478h.456c-.436.609-.944,1.149-1.416,1.72A6.462,6.462,0,0,0,81.367,54c-.059,0-.115.006-.17.006A3.637,3.637,0,0,1,80.634,53.956Zm-1.442-1.771c.258-.075.39-.415.555-.658.153-.224.466-.493.355-.657A7.025,7.025,0,0,0,79.192,52.184ZM97.345,53.8a.33.33,0,0,1,.253-.051c-.029.1-.106.164-.152.252A.226.226,0,0,1,97.345,53.8ZM82.479,54c.26-.253.3-.848.81-.706-.123.264-.347.428-.456.706Zm-.911,0c.888-1.236,1.86-2.388,2.781-3.59h.506c-.725.71-1.109,1.756-2.073,2.227-.038.112.042.106.122.1a.4.4,0,0,1,.079,0c-.288.437-.612.839-.91,1.263ZM19.522,52.184c.133.629-.626,1.223-.911,1.769C18.716,53.366,19.308,52.829,19.522,52.184ZM98.509,53.4c.11.114-.106.331-.1.5C98.287,53.779,98.484,53.543,98.509,53.4Zm-.657.152H98c.034.185-.109.194-.1.353A.249.249,0,0,1,97.852,53.549Zm-78.128-.86a1.636,1.636,0,0,1-.809,1.213A7.312,7.312,0,0,1,19.724,52.689Zm0,.3a1.849,1.849,0,0,1,.2.759,4.613,4.613,0,0,1-.709.1A8.736,8.736,0,0,1,19.724,52.992Zm63.614.81c.174-.309.31-.593.809-.455a.638.638,0,0,1-.628.47A1.169,1.169,0,0,1,83.338,53.8Zm4.147-.051c.074-.111.134-.238.353-.2-.038.156-.1.227-.213.227A.513.513,0,0,1,87.485,53.751Zm-2.276,0c.029-.307.272-.4.657-.354a.461.461,0,0,1-.5.366A1.118,1.118,0,0,1,85.21,53.751Zm1.568,0c.027-.208.189-.284.455-.254-.073.134-.151.262-.358.262A.621.621,0,0,1,86.777,53.751Zm-2.378,0c.1-.22.194-.447.557-.4a.424.424,0,0,1-.456.411A.9.9,0,0,1,84.4,53.751Zm1.72,0a.363.363,0,0,1,.4-.3c-.094.13-.143.305-.366.305Zm2.023,0c0-.1.138-.064.1-.2H88.4a.2.2,0,0,1-.218.2ZM0,53.3c.151.034.169.2.151.405A.487.487,0,0,1,0,53.3Zm89.96-.911c.183-.583.826-1.083,1.216-1.618,1.292.1,2.608.189,3.791.4a8.458,8.458,0,0,1,.253,1.061,4.781,4.781,0,0,0-1.768-.151c.337.269.974.238,1.465.353a1.447,1.447,0,0,1-.709-.035,1.452,1.452,0,0,0-.808-.014c.122.248.575.166.859.254a1.281,1.281,0,0,1-.9.029,1.631,1.631,0,0,0-.771-.029c.121.231.583.125.81.251a2.038,2.038,0,0,1-1.073.075,2.96,2.96,0,0,0-.6-.024c-.066.2.186.123.051.253a4.723,4.723,0,0,0-.759.1c.306-.552.936-.784,1.163-1.415-.832.483-.953,1.676-2.326,1.617.586-.863,1.373-1.526,1.922-2.426a11.62,11.62,0,0,0-2.326,2.478c-.231.024-.415.091-.658.1A4.283,4.283,0,0,1,89.962,52.386Zm-69.38-1.365a1.4,1.4,0,0,1,.34.029,1.326,1.326,0,0,0,.42.022c.152.085.2.274.3.4.141-.028.143-.2.2-.3a.925.925,0,0,1,.759.2c.18-.138.652-.168.707.1.176-.075.343-.262.454,0,.34-.048.289-.488.4-.759.207.015.352.087.557.1-.021.312-.2.693-.1.962.212.06.09-.214.2-.253a6.933,6.933,0,0,1,.759.355c-.842,1.231-2.883,1.261-4.551,1.668C20.946,52.646,20.713,51.886,20.582,51.021Zm68.37,1.87a1.482,1.482,0,0,1-.454.506A.54.54,0,0,1,88.952,52.891ZM87.89,53.3c.112-.192.171-.436.454-.456a.475.475,0,0,1-.434.456Zm-.568-.08a.136.136,0,0,0-.14-.022c.128-.175.184-.421.555-.354-.039.195-.208.264-.3.4l-.029,0A.138.138,0,0,1,87.322,53.217ZM72.416,52.134a1.93,1.93,0,0,1-.051-.657,11.08,11.08,0,0,1,4.4-1.315,1.727,1.727,0,0,1-.152.5c-1.267.367-2.92.349-3.488,1.416.325.333.515-.15.759-.3s.457-.094.757-.152a18.816,18.816,0,0,1,1.872-.454,18.828,18.828,0,0,1-.607,2.073A19.511,19.511,0,0,1,72.416,52.134Zm14.16,1.01c.149-.12.141-.4.454-.352-.12.13-.143.357-.392.357A.484.484,0,0,1,86.575,53.144Zm-2.833-.454a.619.619,0,0,1-.606.454C83.248,52.9,83.338,52.638,83.743,52.689Zm1.922.4c.148-.208.266-.442.709-.354a.4.4,0,0,1-.445.389A1.141,1.141,0,0,1,85.664,53.094Zm-1.771,0c.083-.324.334-.477.81-.4a.663.663,0,0,1-.608.425A1.1,1.1,0,0,1,83.894,53.094Zm1.011,0c.135-.233.248-.475.606-.354-.137.142-.187.37-.467.37A.685.685,0,0,1,84.9,53.094Zm4.148-.454c.035-.168.108-.3.353-.254-.091.1-.134.254-.328.254Zm-.555-.052a.189.189,0,0,1,.3-.2c-.068.087-.105.2-.26.2Zm-.76-.05c-.006-.243.189-.284.456-.252-.023.178-.145.259-.348.259A.941.941,0,0,1,87.737,52.538Zm-.605-.051a.292.292,0,1,1,.015,0ZM84,51.93c.09.047.147.123.253.152a.639.639,0,0,1-.607.4C83.691,52.231,83.888,52.126,84,51.93Zm.4.506c.03-.317.423-.449.759-.3a.531.531,0,0,1-.558.317A1.484,1.484,0,0,1,84.4,52.436Zm1.063,0a.318.318,0,0,1,.5-.251.438.438,0,0,1-.393.261A.68.68,0,0,1,85.463,52.436Zm.938,0c-.062,0-.125,0-.181,0,.03-.223.374-.344.608-.2.007.178-.137.206-.308.206ZM1.216,51.323c-.13.251-.006.633,0,.91C.824,52.206.7,51.337,1.216,51.323Zm88.243.81c.013-.155.225-.112.251-.252.084-.006.083.063.038.132a.29.29,0,0,1-.222.133A.184.184,0,0,1,89.458,52.133Zm7.382-.051a3.332,3.332,0,0,1-.152-.4c.212.056.3.238.506.3-.04.085-.145.1-.27.1Zm-12.793-.2c.057-.112.168-.169.2-.3.065.071.239.032.3.1a.249.249,0,0,0-.051.152.418.418,0,0,0-.241.023.464.464,0,0,1-.158.032A.427.427,0,0,1,84.047,51.881Zm1.037-.051a.924.924,0,0,0-.229,0c.054-.072.189-.062.325-.052a.985.985,0,0,0,.231,0,.229.229,0,0,1-.187.059C85.18,51.838,85.132,51.834,85.084,51.83Zm5.789-1.114c-.343.373-.647,1.029-1.164,1.063C90.084,51.411,90.152,50.737,90.873,50.716Zm-88.9.962a3.915,3.915,0,0,0,.049-.81c.3-.24.4.063.352.365-.038.226-.159.452-.342.452A.238.238,0,0,1,1.975,51.679Zm88.291-1.013c-.328.364-.525.86-1.062,1.013C89.541,51.325,89.627,50.719,90.266,50.666Zm-65.334.608a1.3,1.3,0,0,1,.961.354l-.043,0C25.583,51.63,25.26,51.329,24.932,51.273Zm63.514.3c.386-.338.392-1.056,1.213-.96-.358.318-.517.97-1.085.97A.829.829,0,0,1,88.445,51.576Zm.405-1.011c-.3.344-.447.835-.961.962C88.205,51.2,88.306,50.661,88.851,50.565Zm-1.82.911c.362-.364.4-1.046,1.213-.962-.058.336-.55.659-.758,1.012C87.319,51.525,87.234,51.44,87.03,51.476Zm-1.468-1.063c-.368.374-.445,1.039-1.163,1.063C84.755,51.09,84.807,50.4,85.562,50.413Zm1.821.051c-.2.323-.469,1.011-1.164,1.011C86.542,51.073,86.6,50.408,87.383,50.464Zm-.86,0a5.812,5.812,0,0,1-.758.961,3.087,3.087,0,0,0-.607.051C85.483,51.028,85.672,50.221,86.523,50.464Zm-83.588.152c-.118.286.019.828-.353.86C2.716,51.208,2.5,50.581,2.935,50.616Zm.151.707c.088-.233.069-.571.152-.809.072,0,.143.009.152-.05.109.1.043.859-.293.859Zm.709-.909c.84-.119,1.838-.249,2.832-.354a2.869,2.869,0,0,0-.1.81q-1.46.156-2.882.355A3.446,3.446,0,0,0,3.794,50.414Zm19.822.252c.234.051-.04.371,0,.558C23.461,51.08,23.67,50.873,23.616,50.666Zm-.757.355a1.147,1.147,0,0,1,.1-.506c.065.07.239.032.3.1,0,.166-.086.252-.05.455l-.145,0A.286.286,0,0,1,22.859,51.021Zm-1.012-.2a1.109,1.109,0,0,0,.05-.456,4.507,4.507,0,0,1,.657.1,2.258,2.258,0,0,1-.1.506C22.285,50.887,22,50.919,21.847,50.818Zm-14.87,0c-.051,0-.1,0-.149,0-.045-.31.121-.522,0-.759h.506a2.571,2.571,0,0,0-.05.708.3.3,0,0,1-.209.053Zm13.5-.152c.174-.363-.064-.177-.1-.5a11.3,11.3,0,0,1,1.165.151c0,.167-.086.252-.051.455h-.075C21.071,50.769,20.806,50.689,20.481,50.667ZM7.637,50.009c.579-.276.207.482.457.657-.081.1-.355.017-.457.1Zm.658-.049a1.654,1.654,0,0,1,.657-.1,1.962,1.962,0,0,0-.1.81,1.711,1.711,0,0,0-.608.051A2.5,2.5,0,0,0,8.295,49.959Zm6.928.657c.1-.165.127-.414.4-.405-.1.163-.126.405-.392.405Zm-5.967-.76a.494.494,0,0,1,.326-.051,1.57,1.57,0,0,0,.179,0c.017.287-.091.452-.051.76a1.774,1.774,0,0,0-.506.051C9.176,50.317,9.294,50.166,9.256,49.857Zm6.926.658c.034-.2.126-.346.405-.3-.029.179-.1.311-.31.312A.607.607,0,0,1,16.183,50.515Zm2.63,0c.1-.123.09-.348.353-.3.031.221-.069.31-.258.31A.775.775,0,0,1,18.813,50.515Zm-1.011,0a.343.343,0,0,1,.454-.3.345.345,0,0,1-.365.309A.713.713,0,0,1,17.8,50.515Zm-7.788,0c-.039-.293.074-.432.051-.709.064-.068.218-.048.352-.048.045.211-.226.11-.3.2.073.2.325.214.354.454.243.058.178-.192.3-.252.152,0,.127.177.152.3a1.951,1.951,0,0,0-.511.02,2.426,2.426,0,0,1-.345.03Zm8.394,0c.038-.182.1-.339.353-.3-.078.132-.116.3-.328.3Zm-1.568,0c.033-.153.08-.292.253-.3-.087.1-.061.3-.242.3Zm60.733-.506c1.962-.13,3.946-.235,5.867-.4,0,.3-.583.518-.811.252-.131.021-.152.152-.3.152a29.846,29.846,0,0,0-4.8.506C77.391,50.4,77.544,50.135,77.573,50.009ZM17.3,50.261c-.092-.06.078-.055.231-.051a1.668,1.668,0,0,0,.174,0c-.107.112-.143.294-.353.3C17.324,50.376,17.58,50.231,17.3,50.261Zm-5.027.181a2.029,2.029,0,0,0-.282-.029c.051-.247.26-.208.5-.169a1.142,1.142,0,0,0,.411.016c-.025.167-.16.211-.326.211A2.2,2.2,0,0,1,12.269,50.442Zm-.774-.029a1.267,1.267,0,0,0-.268,0v-.1c.044-.186.674-.152.658.05a.325.325,0,0,1-.225.059C11.608,50.421,11.551,50.418,11.495,50.414Zm76.648-.454c.351,0,.359.11.242.11A.389.389,0,0,1,88.143,49.959Zm-.86,0c.1-.212.5,0,.709,0a.4.4,0,0,1-.24.06A3.608,3.608,0,0,1,87.283,49.959Zm-.671,0a1.006,1.006,0,0,0-.291,0c.017-.248.242-.214.462-.178a1.341,1.341,0,0,0,.246.024c0,.133-.105.163-.24.163C86.734,49.969,86.673,49.964,86.612,49.959ZM83.946,49.6c-.1.171-.2.341-.456.355C83.513,49.713,83.626,49.553,83.946,49.6Zm.05.3c.021-.132.151-.152.151-.3h.659a.584.584,0,0,1-.6.317A1.693,1.693,0,0,1,84,49.908Zm.81,0c.122-.266.238-.311.606-.254-.011.216-.2.26-.425.26C84.928,49.915,84.867,49.912,84.805,49.908Zm.922,0a1.6,1.6,0,0,0-.217,0c.091-.308.3-.217.659-.2.005.177-.138.207-.31.207C85.817,49.912,85.772,49.911,85.728,49.909Zm-75-.152a.33.33,0,0,1,.251-.051c.045.095-.064.162-.153.162C10.76,49.868,10.707,49.836,10.723,49.757Zm.783.049a.965.965,0,0,0-.229,0c0-.193.472-.1.556-.048a.222.222,0,0,1-.182.057C11.606,49.814,11.556,49.81,11.506,49.806ZM48.6,38.783c.346-.362.272.118.355.405-.045.14-.2.167-.355.2Zm.355-.961c.044.315-.087.451-.354.455C48.572,37.983,48.679,37.82,48.952,37.823Zm1.162-.86c.21-.007.054.353.1.506-.411.109-.656.389-1.06.506C49.118,37.281,49.835,37.341,50.114,36.962ZM48.6,34.94c.577-.38.374.728.1.808.007.112.128.111.253.1.108.5-.163.613-.253.91.058.172.06.12.253.1a.511.511,0,0,1-.253.607A12.377,12.377,0,0,1,48.6,34.94Zm1.567.96c.116.119.018.454.051.657a2.932,2.932,0,0,0-1.011.607C48.98,36.4,49.9,36.344,50.165,35.9ZM49.1,35.749a5.7,5.7,0,0,0,1.011-.706c.206-.02.057.315.1.454-.432.174-.668.543-1.112.708Zm0-1.011a5.916,5.916,0,0,0,1.011-.759c.22.036.047.46.1.658-.4.209-.691.522-1.112.709Zm-.556-3.894a4.5,4.5,0,0,0,1.567-.556,20.885,20.885,0,0,1,.1,3.287c-.27.352-.755.493-1.06.808-.12-.386,0-1.014-.1-1.415-.251.473.213,1.663-.455,1.719C48.62,33.367,48.509,32.182,48.547,30.844Zm.152-.91a.2.2,0,0,0,.151-.051A.2.2,0,0,1,49,29.833c0,.119-.086.149-.05.3.171-.016.142-.229.152-.4a8.291,8.291,0,0,1,1.112-.455v.657c-.45.24-.982.4-1.465.607A3.452,3.452,0,0,1,48.7,29.934Zm0-.354c.128-.226-.1-.8.3-.759.009.357.061.759-.289.759Zm.506-.86a5.208,5.208,0,0,0,.909-.405c.217.02.049.424.1.608-.411.078-.655.32-1.061.4A1.692,1.692,0,0,1,49.205,28.721Zm-.657-10.114a1.915,1.915,0,0,0,.246,0,.716.716,0,0,1,.411.052.651.651,0,0,1-.2.657c-.035.2.212.125.2.3-.174.663.145,2.182-.253,2.781a7.668,7.668,0,0,1,.1,2.225A16.9,16.9,0,0,0,49,26.6c.072.256-.232.14-.2.354a.515.515,0,0,1,0,.809c.142.137.417.749-.051.759C48.626,25.27,48.472,22.052,48.548,18.606Zm.657,9.255c.3-.174.658-.285.96-.455.116.087.02.386.051.556-.325.146-.661.282-1.011.4Zm.05-.911a3.148,3.148,0,0,0,.91-.4c.115.07.02.351.05.5-.368.069-.59.287-.96.355Zm0-.757a4.088,4.088,0,0,0,.91-.355c.114.038.02.284.05.4-.364.072-.586.291-.96.354Zm0-.961a10.3,10.3,0,0,0,.961-.557c.118.17.018.556.051.809a4.268,4.268,0,0,0-.961.354C49.19,25.736,49.288,25.419,49.254,25.232Zm.051-1.012c.278-.228.633-.378.909-.608.117.137.018.488.051.709a5.336,5.336,0,0,0-.91.4C49.241,24.656,49.338,24.372,49.306,24.22Zm.76-1.365c-.268.1-.5.248-.759.354C49.42,22.951,49.778,22.939,50.066,22.855Zm-.709-.355c.368-.02.583-.192.961-.2-.023.466-.661.315-.961.5Zm0-.556a6.713,6.713,0,0,1,.961-.253v.3c-.333.072-.632.176-.961.254Zm.96-.708c-.037.351-.759.285-.909.354C49.479,21.413,50,21.358,50.316,21.236Zm-.909-.4c.153.14.322.05.511-.04a.834.834,0,0,1,.4-.112c0,.506-.7.311-.86.657C49.343,21.268,49.439,20.986,49.408,20.832Zm0-.4c.286.1.606-.159.86-.253.068.015.042.126.05.2a2.165,2.165,0,0,0-.86.355C49.346,20.725,49.435,20.516,49.407,20.427Zm16.082-.4c-.661-.159-1.35-.3-1.974-.456-1.482-.38-2.612-1.393-3.994-1.568-.088-.048-.111-.158-.152-.253-1.157-.24-2.042-.755-3.286-.909.166-.559.428-1.023.606-1.569a60.364,60.364,0,0,0,7.029,2.377c-.068.392-.448.725-.3,1.164.464-.109.208-.937.605-1.112.249.328-.517.962-.2,1.365.435-.22.235-1.078.707-1.264.155.346-.377.867-.4,1.366a9.217,9.217,0,0,0-1.365-.254c.814.484,1.94.657,2.833,1.062.236-.138.342-.054.555.051,3.33.1,7.171.276,9.658-.809a19.567,19.567,0,0,1-6.776,1.315q-.216.01-.417.01A12,12,0,0,1,65.489,20.023Zm-35.854.455c.843-.146,2.28-.093,3.488-.152a9.548,9.548,0,0,1-2.163.211C30.5,20.537,30.051,20.516,29.635,20.478Zm-3.892-.354a17.475,17.475,0,0,1,3.842.3c-.211.02-.422.029-.633.029C27.86,20.456,26.773,20.223,25.743,20.124Zm59.635.051a.592.592,0,0,0-.22,0v-.2a.4.4,0,0,0,.247.044c.106,0,.211,0,.259.058,0,.089-.062.111-.149.111A1.316,1.316,0,0,1,85.378,20.175ZM13.1,20.124a.356.356,0,0,0,0-.3,1.042,1.042,0,0,0,.506.253c-.028.074-.151.108-.272.108A.414.414,0,0,1,13.1,20.124Zm36.308-.2c.348-.038.561-.214.909-.252-.04.431-.631.312-.909.506Zm-35.551.2c-.051-.389.3-.374.405-.607a.425.425,0,0,1-.4.607ZM25.45,20.05a.256.256,0,0,0-.164-.027c.012-.073.415-.118.355.051a.32.32,0,0,1-.069.008A.277.277,0,0,1,25.45,20.05Zm60.518-.179c-.135-.135.19-.341.253-.607.1-.411.045-.93.152-1.316.272.535.267,1.9-.3,2.074C86.052,19.957,85.98,19.943,85.968,19.871ZM84.7,19.517a3.647,3.647,0,0,0,.4.3c-.032.1-.255.014-.2.2C84.743,19.95,84.679,19.778,84.7,19.517Zm-52.742-.81a5.178,5.178,0,0,1,.86-.152c0,.5.187.825.2,1.316-.457.05-.921.088-1.366.152A11.324,11.324,0,0,1,31.961,18.707Zm-.454.051h.15c-.214.377-.1,1.08-.506,1.264A6.14,6.14,0,0,1,31.507,18.759Zm-.608.051h.2c-.192.381-.156.99-.506,1.214C30.634,19.555,30.827,19.243,30.9,18.809Zm-.909,1.162c.235-.371.128-1.084.656-1.162-.077.429-.255.755-.353,1.162Zm-.759,0c.391-.3.09-1.291.91-1.162-.147.392-.316.762-.455,1.162Zm-.311-.04a.35.35,0,0,0-.2-.011c.3-.318.063-1.185.709-1.162-.085.42-.343.666-.353,1.162a.092.092,0,0,1-.069.031A.347.347,0,0,1,28.92,19.932Zm-.3-1.224h.152c-.081.408-.233.743-.3,1.164C28.341,19.5,28.614,19.1,28.623,18.707Zm4.349-.254c.706-.354.419.851.657,1.264-.017.048-.085.047-.151.046s-.142,0-.153.057A10.851,10.851,0,0,1,32.972,18.454Zm-4.8.152h.153a5.345,5.345,0,0,1-.3,1.214C27.8,19.543,28.167,19,28.167,18.606Zm-.5-.051h.1c.128.222-.162.878-.253,1.214C27.3,19.5,27.671,18.959,27.662,18.556Zm-.455-.1a.16.16,0,0,1,.1.026.156.156,0,0,0,.106.026c-.228.345-.136,1.009-.454,1.263A3.8,3.8,0,0,1,27.207,18.455ZM12.795,19.769c-.267-.236-.269-.742-.251-1.263a13.074,13.074,0,0,0,.5,1.263C13.017,19.741,12.808,19.652,12.795,19.769Zm57.984-.051c-.217,0-.434-.008-.639,0a9.025,9.025,0,0,0,.4-1.162c-.414.21-.328.922-.706,1.162-.111-.35.405-.938.453-1.466.125,0,.25,0,.376,0a6.207,6.207,0,0,0,1.8-.152c.081.389-.5.977-.555,1.568a3.871,3.871,0,0,1-.739.055C71.042,19.724,70.91,19.722,70.779,19.719Zm.928-.4c-.005-.16.223-.344.1-.455C71.814,19.019,71.585,19.206,71.707,19.314Zm-1.82-1.062h.3c-.341.434-.481,1.071-.86,1.466C69.539,19.252,69.716,18.756,69.886,18.252Zm-.5,0h.251c-.34.468-.246,1.371-.961,1.466A5.718,5.718,0,0,0,69.382,18.252Zm-1.771,1.466c.162-.511.322-1.026.456-1.566h.253c-.085.425-.434.84-.253,1.365.357-.284.332-.951.556-1.365a1.289,1.289,0,0,0,.506.051,11.92,11.92,0,0,1-.86,1.516Zm-.1-1.617h.3a9.391,9.391,0,0,0-.3.911c-.086.253-.13.688-.455.706C67.161,19.135,67.415,18.7,67.51,18.1ZM26.7,18.4a.129.129,0,0,1,.111.029.14.14,0,0,0,.142.022c-.211.364-.138,1.009-.456,1.263C26.289,19.382,26.647,18.807,26.7,18.4Zm45.523,1.223-.013.042A.051.051,0,0,1,72.226,19.627Zm-5.676.042c-.006-.091.061-.106.05-.2.134-.015.131.106.152.2ZM33.729,18.2h.152c-.05.5.482,1.226.051,1.466C33.807,19.29,33.526,18.58,33.729,18.2Zm39.294-.254c.072.415-.554.995-.558,1.669a.274.274,0,0,1-.111,0c-.053-.007-.105-.014-.129.009A6.186,6.186,0,0,1,73.023,17.949Zm-47.5,1.64a.138.138,0,0,0-.14-.022c.224-.386.063-1.414.607-1.315-.116.457-.245.9-.353,1.366l-.027,0A.14.14,0,0,1,25.527,19.589Zm.669-1.235h.2c-.079.3-.1,1.075-.455,1.265C25.978,19.145,26.178,18.843,26.2,18.353Zm47.23-.556a28.785,28.785,0,0,1-8.951-.555,21.681,21.681,0,0,1-4.8-1.467c-1.534-.553-2.994-1.307-4.552-1.82a17.084,17.084,0,0,1,1.164-1.77c5.34,1.1,6.939,4.441,12.794,4.8a31.362,31.362,0,0,0,4.651,0,24.913,24.913,0,0,0,6.524-1.921c2.032-.782,3.865-1.768,6.525-1.922a14.137,14.137,0,0,1,2.476-.152c1.282.136,2.9.879,3.085,2.074a4.3,4.3,0,0,1-.3,1.77,1.984,1.984,0,0,1-2.074.758,3.14,3.14,0,0,1-.353-1.77c.68.015.866-.273,1.264-.455.142-.6-.859-.264-.708-.707a7.03,7.03,0,0,1-1.143-.067,4.4,4.4,0,0,0-1.285-.035c.287-.355,1.063-.22,1.619-.3-3.252-.856-6.885.569-9.153,1.719a3.816,3.816,0,0,0,1.719-.457c.062.317-.286.659-.354,1.012A15.867,15.867,0,0,1,77.118,18.3a5.217,5.217,0,0,0,.556-1.164c-.552.125-.6,1.18-1.263,1.366a13.218,13.218,0,0,0,.657-1.568c.185-.151.531-.143.606-.4a6.153,6.153,0,0,0-2.174.657c.017.12.165.11.313.1a.917.917,0,0,1,.193,0,6.08,6.08,0,0,0-.608,1.568c-.213.108-.5.143-.707.253,0-.392.608-.875.454-1.415-.479.214-.562,1.257-1.112,1.568-.063-.426.6-1.075.658-1.72-.66.2-.669,1.488-1.316,1.871a2.638,2.638,0,0,1,.353-.909,2.661,2.661,0,0,0,.4-1.062,4.6,4.6,0,0,0-1.011,1.568c-.083.187-.024.52-.3.555C72.718,19.076,73.348,18.446,73.427,17.8Zm-7.079.355c-.657.152-.454,1.163-1.063,1.365A5.23,5.23,0,0,0,65.843,18c-.494.19-.684.924-.658,1.466-.425-.033-.15-.451-.051-.707.118-.3.331-.593.253-.81-.552.174-.448,1-.86,1.316-.14-.35.333-.946.405-1.417.561.079,1.171.11,1.769.152-.282.509-.358,1.226-.809,1.568A6.236,6.236,0,0,0,66.348,18.152ZM50.316,19.264c-.14.229-.612.131-.808.3C49.5,19.424,50.123,19.206,50.316,19.264Zm-25.487.253c.078-.5.284-.866.355-1.365h.3a6.666,6.666,0,0,1-.4,1.365ZM34.086,18.1a.846.846,0,0,1,.353-.1c-.008.548.177.9.2,1.416-.072,0-.144-.008-.153.051C34.208,19.157,34.23,18.546,34.086,18.1Zm-9.408.051h.152a7.582,7.582,0,0,1-.354,1.263C24.247,19.094,24.638,18.538,24.678,18.152Zm-1.466,1.011c.043-.46.332-.9.254-1.316-.579.063-.319.962-.709,1.214-.076-.389.177-.863.152-1.365.571.019.87.311,1.415.353-.041.482-.242.8-.3,1.264C23.734,19.281,23.487,19.209,23.212,19.163ZM34.893,17.8c-.05.483.62,1.365,0,1.467C34.969,18.78,34.313,17.979,34.893,17.8Zm.2-.1c.673-.5.456.829.709,1.213-.045.123-.2.134-.355.152C35.34,18.6,35.216,18.149,35.1,17.7Zm14.463.961c.177.005.013.073.1.2a2.056,2.056,0,0,0,.759-.3c.048,0,.037.063.05.1-.152.3-.667.243-1.011.354C49.466,18.868,49.414,18.665,49.558,18.658Zm-12.1.3c-.062.019-.125.036-.187.05Zm2.291-.658c.1-.013.014-.223.1-.254,1.135-.213,2.159-.538,3.387-.657-1.7.628-4.1,1.125-5.779,1.569C38.255,18.718,39.014,18.128,39.748,18.3ZM22.2,18.91a11.266,11.266,0,0,1,.2-1.315c.164-.029.235.035.353.051A8.281,8.281,0,0,0,22.4,18.91Zm13.856-.051c-.128-.463-.211-.971-.355-1.415.078-.074.236-.068.3-.152.192.415.192,1.022.354,1.467-.094.025-.135.1-.254.1A.316.316,0,0,1,36.058,18.859ZM76.309,17.19c.162-.008.222-.115.4-.1-.391.554-.369,1.519-1.111,1.72C75.836,18.267,76.1,17.759,76.309,17.19ZM21.757,18.736a.131.131,0,0,0-.112-.029c.076-.411.163-.815.2-1.263a.263.263,0,0,1,.118.029.254.254,0,0,0,.185.022,6.818,6.818,0,0,0-.253,1.263.207.207,0,0,1-.056.009A.135.135,0,0,1,21.757,18.736Zm14.5-1.546a6.654,6.654,0,0,0,1.516-.707,9.244,9.244,0,0,1,.3,1.669,9.024,9.024,0,0,1-1.062.4c-.14-.331.026-.97-.3-1.112-.195.364.168.873,0,1.214C36.424,18.307,36.432,17.658,36.259,17.19ZM67,18.05h.3c-.081.223-.392.214-.354.556C66.812,18.462,67.079,18.3,67,18.05Zm-46.068.1c-.19,0-.035.228-.254.1-3.242-1.592-5.678-4.614-10.922-4.1a3.488,3.488,0,0,0-1.871.758c.016.321-.2.558-.051.86a2.142,2.142,0,0,0,.772.034,2.97,2.97,0,0,1,.8.017,3.128,3.128,0,0,1-.355,1.771,4.886,4.886,0,0,0-.515,0,1.915,1.915,0,0,1-.7-.051c-.767-.27-1.136-2.344-.709-3.338a3.7,3.7,0,0,1,2.63-1.263,25.328,25.328,0,0,1,2.579.252c6.082.422,8.944,4.145,15.625,3.894a24.5,24.5,0,0,0,5.006-.606,13.911,13.911,0,0,0,3.793-1.771,22.422,22.422,0,0,1,3.793-1.82,13.939,13.939,0,0,1,6.168-1.263c.022.66-.018,1.261-.051,1.87a17.114,17.114,0,0,0-2.223.3c-.561.115-1.34.3-2.023.5a2.8,2.8,0,0,1-1.315.2c-.3.359-.8.4-1.214.558-2.794,1.035-5.654,2.78-9.153,3.034a8.123,8.123,0,0,1-2.58-.152,2.288,2.288,0,0,1-.96.051,6.941,6.941,0,0,1-.708-.3,4.678,4.678,0,0,0-1.163-.087,5,5,0,0,1-1.062-.066c-.562-.118-1.125-.3-1.668-.4a12.1,12.1,0,0,1-2.428-.555c-1.452-.619-2.847-1.266-4.3-1.822a24.266,24.266,0,0,0,3.136,1.721,7.015,7.015,0,0,0,2.629.961c-.049.337-.163.611-.2.96-.015.041-.039.057-.068.057C21.259,18.462,21.053,18.2,20.937,18.152ZM85.21,18.3c.041-.054.365-.213.353,0a.237.237,0,0,0-.152-.051c-.045.043-.074.1-.12.1A.125.125,0,0,1,85.21,18.3ZM13.25,17.7a2.219,2.219,0,0,0,.659-.506c.073.361-.283.729-.506.962C13.288,18.065,13.283,17.866,13.25,17.7ZM38.13,16.28a5.721,5.721,0,0,1,.3,1.77A3.592,3.592,0,0,1,38.13,16.28ZM84.957,17.9c.166-.272.579-.3.758-.556.226.055-.031.417-.051.556a.741.741,0,0,0-.3.045.882.882,0,0,1-.231.049A.185.185,0,0,1,84.957,17.9Zm-46.525-1.77a.248.248,0,0,0,.254-.1,10.927,10.927,0,0,1,.355,1.82c-.1-.021-.134.035-.2.051A3.583,3.583,0,0,1,38.432,16.129Zm.509-.355h.15c.013.7.265,1.419.253,1.973A4.659,4.659,0,0,1,38.941,15.775Zm50.264.051a3.808,3.808,0,0,0,.354,1.771.774.774,0,0,1-.111.008C88.544,17.6,88.218,15.948,89.2,15.825Zm-49.861-.2c.072,0,.143.008.152-.051.059-.008.089.011.1.051.045.28.112.746.2,1.162.06.277.324.767-.051.81C39.407,17.145,39.464,16.3,39.344,15.624Zm-29.532.2a.14.14,0,0,1,.14.022.133.133,0,0,0,.112.029c.229.63.057,1.653-.607,1.72A3.736,3.736,0,0,0,9.812,15.825Zm3.337,1.112c.3-.152.666-.513.962-.506-.194.448-.666.617-.91,1.012C13.084,17.373,13.18,17.091,13.149,16.938Zm26.9-.353c-.09-.369-.17-.734-.253-1.011-.029-.112.1-.072.1-.152h.152c.023.718.351,1.4.354,1.973h-.015C40.105,17.394,40.125,16.886,40.053,16.584Zm44.852.4a.9.9,0,0,0,.433-.2c.292-.2.565-.4.528.154a10.062,10.062,0,0,1-.962.455Zm-44.449-.555c-.094-.4-.265-.962-.1-1.164h.152a14.285,14.285,0,0,0,.506,1.922c-.007.094-.171.031-.2.1C40.6,17.18,40.536,16.778,40.456,16.433Zm.2-1.214a1.159,1.159,0,0,1,.454-.1c.162.666.3,1.351.456,2.023a.294.294,0,0,1-.112,0c-.074-.009-.148-.018-.143.052A17.012,17.012,0,0,1,40.659,15.219Zm1.162,1.82c-.137-.639-.377-1.442-.454-1.972a.428.428,0,0,1,.3-.051c.181.662.368,1.318.556,1.973a.391.391,0,0,0-.174.029.421.421,0,0,1-.148.031A.414.414,0,0,1,41.821,17.039Zm.1-1.922v-.152a.432.432,0,0,1,.3-.051c.085.674.364,1.423.4,1.973C42.178,16.562,42.221,15.633,41.923,15.117Zm7.484,1.669c.033-1.922-.068-3.978.051-5.815h.91c-.081,1.875-.045,3.867-.051,5.815a.627.627,0,0,1-.291.059C49.819,16.845,49.591,16.789,49.407,16.786Zm1.112-5.765a.382.382,0,0,1,.152-.1h.05a26.9,26.9,0,0,1,.051,5.26c-.014.181.125.569-.152.657C50.632,14.853,50.57,12.943,50.519,11.021Zm-8.09,3.793c.071,0,.143.008.153-.051a6.879,6.879,0,0,1,.454,2.074A8.493,8.493,0,0,1,42.429,14.815Zm6.422.657V10.919h.1c.4.142.165.809.152,1.114-.066,1.454-.07,3.226-.1,4.753C48.724,16.462,48.851,15.91,48.851,15.471Zm7.433-.4a.238.238,0,0,0,.151.051,5.092,5.092,0,0,1-.757,1.669C55.843,16.178,56.126,15.685,56.284,15.067Zm-.4-.152c.059-.008.089.012.1.051.064.195-.122.593-.253.91a2.784,2.784,0,0,1-.456.86C55.439,16.092,55.715,15.559,55.879,14.915Zm-12.945-.1c-.014-.082.048-.088.051-.152h.152c.106.688.339,1.517.4,2.073C43.146,16.486,43.158,15.4,42.934,14.815Zm12.137,1.011a5.889,5.889,0,0,0,.4-1.062h.2a9.529,9.529,0,0,1-.86,1.922C54.7,16.45,54.936,16.128,55.071,15.825ZM44,14.51h.3c-.033.768.38,1.6.2,2.176C44.106,16.186,44.155,15.245,44,14.51Zm9.457-.3a1.963,1.963,0,0,1,.558.051,11.869,11.869,0,0,1-.658,1.315c-.193.381-.3,1.081-.86,1.112C52.664,15.913,53.225,15.094,53.452,14.207Zm-9.81,1.518a10.035,10.035,0,0,1-.253-1.113.255.255,0,0,1,.11,0c.073.01.147.019.143-.051a10.237,10.237,0,0,1,.4,2.125C43.7,16.57,43.721,16.054,43.642,15.725Zm10.366.91a9.027,9.027,0,0,0,.809-2.023,9.786,9.786,0,0,0-1.165,2.023h-.4c.338-.776.731-1.5,1.063-2.276a6.974,6.974,0,0,1,.961.253c-.151.368-.325.777-.506,1.163-.143.307-.25.862-.71.862Zm-8.9-2.276h.355c.04.349.133.8.2,1.214.059.362.312.924-.051,1.062A10.513,10.513,0,0,1,45.109,14.359Zm-.1,2.276A10.64,10.64,0,0,1,44.5,14.46a.173.173,0,0,0,.15-.026.176.176,0,0,1,.153-.025c.151.725.3,1.457.4,2.225Zm.706-2.325h.3a13.554,13.554,0,0,1,.2,2.175A9.821,9.821,0,0,1,45.714,14.309ZM14.06,15.775c-.177.312-.571.407-.81.658C12.969,15.864,13.717,15.887,14.06,15.775Zm68.065-.3c.121-.1.342-.1.457-.2-.112.312-.269,1.014-.76,1.113A2.928,2.928,0,0,0,82.124,15.471ZM35.5,14.258c.165.089.209.3.254.5a11.978,11.978,0,0,1-5.109,1.619C32.292,15.7,33.879,14.962,35.5,14.258ZM7.03,13.347c.1.438-.6.833-.657,1.467-.042.484.187.98.152,1.568C5.719,15.677,6.317,13.778,7.03,13.347Zm39.242.962h.152c.315.442.137,1.381.252,2.023A8.119,8.119,0,0,1,46.272,14.309ZM62.4,14.258a23.581,23.581,0,0,0-5.814-2.326c-.251,0,.051-.235-.1-.3-.227.037-.383.26-.658.1-.037-.127.223-.208.05-.3,4.751.846,8.39,3.239,12.49,4.905A12.011,12.011,0,0,1,62.4,14.258Zm-9.658-.152a.591.591,0,0,1,.223.029.574.574,0,0,0,.281.022c-.288.639-.654,1.2-.909,1.872A6.556,6.556,0,0,1,52.745,14.106Zm30.392,1.011c-.149.289-.32.557-.454.86C82.726,15.785,82.786,15.172,83.137,15.117Zm5.36-2.68c2.328.151,4.551.672,4.246,3.288C92.946,12.982,90.682,12.88,88.5,12.437ZM84.5,14.763c-.226.2-.3.544-.608.657a.928.928,0,0,0,.254-.506c-.58.026-.457.757-1.011.81A1.271,1.271,0,0,1,84.5,14.763Zm-32.92.152c.233.151-.3.363-.354.556C51.067,15.209,51.528,15.133,51.582,14.915Zm-38.381-.2a7.263,7.263,0,0,1,.961.3.751.751,0,0,1-.077,0A1.342,1.342,0,0,1,13.2,14.713Zm-4.349-.051c-.114.189-.416.191-.557.353C8.191,14.81,8.672,14.753,8.852,14.663Zm76.711-.153c-.155.133-.2.369-.4.456C85.3,14.824,85.321,14.554,85.563,14.51Zm-33.931-.2c.163.3-.344.362-.4.606C51.045,14.6,51.516,14.5,51.632,14.309Zm-3.716.567a.35.35,0,0,0-.228-.011v-.2a1.307,1.307,0,0,0,.4.2.06.06,0,0,1-.06.038A.458.458,0,0,1,47.915,14.876Zm36.839-.011v-.2a.387.387,0,0,1,.059,0c.067,0,.136.005.143-.052.079.036-.049.254-.185.254Zm1.113-.4c.407-.03.826-.051,1.214-.1-.059.112-.169.168-.2.3-.155-.251-.429.012-.608.051.046-.09.162-.148.051-.254a.851.851,0,0,0-.454.355C85.636,14.808,85.959,14.647,85.867,14.46Zm-74.842.1a3.257,3.257,0,0,1,1.77.152C12.2,14.669,11.658,14.569,11.026,14.561Zm-.96-.1a3.366,3.366,0,0,1-1.113.2A2.133,2.133,0,0,1,10.066,14.46Zm77.471-.1c-.034.117-.168.136-.2.253C87.228,14.551,87.356,14.3,87.537,14.359Zm-51.732-.2a.235.235,0,0,0,.157-.053.229.229,0,0,1,.2-.048c.025.162.16.212.152.4-.182-.013-.187.152-.354.152C35.948,14.417,35.785,14.378,35.8,14.156Zm12.1.283c-.07-.032-.127-.064-.168.02-.11.01-.023-.179-.051-.253.155.063.4.042.4.253a.165.165,0,0,1-.065.013A.294.294,0,0,1,47.906,14.439Zm4.586-.384a.831.831,0,0,0-.1.354C52.31,14.375,52.267,13.951,52.492,14.055Zm-.962-.1c-.043.16-.26.144-.3.3C51.086,14.126,51.395,13.816,51.53,13.954ZM36.462,13.9c.168.012.253.276.2.354C36.5,14.231,36.481,14.069,36.462,13.9Zm.4-.152a.133.133,0,0,0,.112-.029.139.139,0,0,1,.14-.022c.016.118.1.21,0,.3a.331.331,0,0,1-.05,0C36.915,14.01,36.891,13.879,36.865,13.752Zm10.994.1a.54.54,0,0,0-.171,0v-.2a1.317,1.317,0,0,1,.4.152c-.015.045-.063.057-.124.057C47.933,13.86,47.9,13.857,47.859,13.853Zm6.717-.073a.259.259,0,0,0-.165-.028c.3-.673.829-1.128,1.164-1.769a.258.258,0,0,1,.191.022.256.256,0,0,0,.162.028A15.736,15.736,0,0,1,54.766,13.8a.315.315,0,0,1-.068.008A.277.277,0,0,1,54.576,13.78ZM51.632,13.2c.177.312-.346.362-.4.608C51.032,13.471,51.5,13.373,51.632,13.2Zm-14.209.354h.2c.022.106-.035.134-.051.2l-.029,0C37.436,13.754,37.408,13.672,37.422,13.55ZM53.6,13.6c.372-.674.913-1.178,1.316-1.82.14.026.263.074.4.1-.424.588-.892,1.131-1.265,1.77C53.893,13.649,53.808,13.565,53.6,13.6Zm-.1-.91c.234-.346.455-.665.658-1.011h.352a4.361,4.361,0,0,1-.707,1.011c-.249.326-.442.738-.759.86C52.975,13.285,53.3,12.992,53.5,12.69Zm0-1.061h.353c-.24.322-.472.669-.707,1.011-.223.325-.4.775-.809.91C52.577,12.759,53.165,12.319,53.5,11.629ZM37.927,13.5c-.014-.133.071-.166.2-.152.013.115-.048.155-.149.155Zm9.962-.177a.317.317,0,0,0-.2-.025v-.3c.248.005.469.036.4.354a.345.345,0,0,1-.066.007A.34.34,0,0,1,47.889,13.322Zm-9.252-.177c.008.143-.125.146-.253.152C38.366,13.143,38.548,13.192,38.637,13.145Zm13-.708c.274.253-.254.545-.4.708C51.018,12.765,51.509,12.653,51.632,12.437Zm-11.529.1c-.229.343-.8.343-1.162.555A5.761,5.761,0,0,1,40.1,12.539Zm12.44-.152a2.594,2.594,0,0,1,.608-.758c-.245.378-.539.706-.759,1.112-.033.027-.053.038-.063.038C52.281,12.779,52.452,12.524,52.542,12.387Zm-40.3.2c.06,0,.082.011.079.025s-.035.03-.079.025a28.875,28.875,0,0,0-3.54.1C9.633,12.254,11.035,12.528,12.239,12.59Zm74.856.05c-.127,0-.254-.008-.369,0a3.344,3.344,0,0,1,1.112-.1.935.935,0,0,1-.522.1C87.244,12.644,87.17,12.642,87.1,12.639Zm-39.408-.152a1.172,1.172,0,0,0,.136,0c.146-.007.294-.014.268.152C47.935,12.611,47.707,12.653,47.687,12.488Zm-7.029-.253c-.007.091.062.106.051.2a1.2,1.2,0,0,1-.3.1C40.365,12.312,40.5,12.257,40.659,12.235Zm10.973-.5c.331.368-.248.555-.4.758C50.993,12.067,51.531,11.984,51.632,11.73Zm-3.771.685a.412.412,0,0,0-.174-.029v-.252c.22.014.458.013.4.3a.422.422,0,0,1-.081.008A.437.437,0,0,1,47.861,12.415Zm-6.95-.331c.187-.048.092.266.051.3C40.894,12.316,40.853,12.137,40.911,12.084Zm.354.151v-.252a.141.141,0,0,0,.14-.023.133.133,0,0,1,.112-.029c.025.185-.005.314-.165.314A.423.423,0,0,1,41.265,12.235Zm.556-.151c-.037-.19.057-.248.2-.254.018.152-.008.26-.142.26A.335.335,0,0,1,41.821,12.084Zm.556-.354h.152v.2c-.072,0-.143-.008-.152.051C42.259,11.969,42.349,11.76,42.377,11.73Zm.455-.152a.222.222,0,0,0,.2-.1c.068-.018.06.042.051.1s-.018.119.051.1c.024.159-.232.037-.253.152h-.007C42.778,11.831,42.86,11.649,42.832,11.577Zm4.855-.051a.4.4,0,0,1,.4,0v.253h-.056C47.836,11.78,47.665,11.75,47.687,11.527Zm3.437-.1c.066-.069.22-.051.355-.051-.1.117-.168.271-.355.3Zm-7.786-.1h.2c.015.169.008.312-.1.355A.46.46,0,0,1,43.339,11.324Zm11.832.254c-.009-.4.4-.294.659-.2a.583.583,0,0,1-.436.243A.708.708,0,0,1,55.171,11.578Zm-11.326-.355H44.1v.3a.424.424,0,0,1-.088.01C43.849,11.538,43.818,11.409,43.844,11.224Zm10.518.2c.045-.325.278-.316.608-.254-.017.168-.152.22-.253.3C54.6,11.46,54.526,11.4,54.362,11.427Zm-9.911,0v-.3c.072.005.142.009.152-.051.165.04.142.375-.059.375A.243.243,0,0,1,44.451,11.427Zm8.7-.507c-.046.24-.248.327-.354.507C52.748,11.291,52.88,10.905,53.149,10.919Zm.556.456a.375.375,0,0,1,.556-.3.388.388,0,0,1-.429.312A1,1,0,0,1,53.7,11.375Zm-.1-.4a.673.673,0,0,1-.355.4C53.34,11.211,53.367,10.986,53.6,10.971Zm-7.99.4a.487.487,0,0,1,.152-.456c.183.034-.014.243.051.456Zm-.506,0a.313.313,0,0,1,0-.354h.2c-.029.165.035.235.05.354Zm6.016-.506a1.14,1.14,0,0,1,.506-.1.736.736,0,0,1-.506.506Zm-3.386,0v-.2c.117.067.377-.008.353.2Zm2.117-.82a1.37,1.37,0,0,0,.257.011c.363-.037.783-.291,1.012-.051a1.952,1.952,0,0,1-1.079.177,4.827,4.827,0,0,0-.639.026C49.441,10.005,49.646,10.028,49.856,10.05Zm-1.965.011c.052-.194.5-.2.555,0Zm2.15-.86a2.17,2.17,0,0,0-.28,0,10.291,10.291,0,0,1-.2-2.123,3.591,3.591,0,0,0,.911-.2h.1c-.046.759.075,1.608,0,2.225a.438.438,0,0,1-.356.106C50.157,9.206,50.1,9.2,50.041,9.2Zm-.987-2.124h.3A17.641,17.641,0,0,0,49.408,9.1C48.811,8.9,49.249,7.672,49.054,7.077Zm-.406,1.011a4.963,4.963,0,0,1-.051-.91V7.026c.164-.03.236.035.355.051-.131.543.036,1.384-.1,1.922C48.531,8.908,48.668,8.412,48.648,8.088Zm.507-2.426a.946.946,0,0,1,.606-.253.722.722,0,0,1-.571.253Zm-1.821-.354c.118-.211.525-.592.658-.2-.2.04-.336.276-.5.276A.233.233,0,0,1,47.334,5.308Zm.353-.506c-.13.138-.315.223-.455.353C47.069,4.943,47.541,4.709,47.687,4.8Zm.962.1c.149-.274.57-.275.607-.658.126-.008.246-.009.254.1-.225.187-.369.581-.707.581A.522.522,0,0,1,48.648,4.9Zm2.072,0a6.464,6.464,0,0,0,.76-.556c.041.27-.311.557-.719.557Zm1.115-1.87c-.2,1.2-1.347,1.451-2.327,1.87A19.4,19.4,0,0,1,51.836,3.032ZM48.193,4.7c.275-.118.424-.559.759-.456-.158.2-.425.284-.506.558H48.43C48.318,4.8,48.285,4.721,48.193,4.7Zm0-.657a.16.16,0,0,1,.1.026.164.164,0,0,0,.106.026c-.156.146-.227.38-.506.4C47.949,4.3,48.26,4.362,48.193,4.043Zm-.606-.253c.215.021.328.143.5.2a.568.568,0,0,1-.431.208C47.449,4.2,47.316,4.055,47.587,3.79Zm-.355-1.011a2.527,2.527,0,0,0,1.266-.86c-.583.1-.95.664-1.417.709V2.172c.449-.209.9-.414,1.315-.658A1.485,1.485,0,0,1,50.619.2c.195.464.706.554.811,1.011a2.773,2.773,0,0,1-1.416,2.731C48.763,3.877,47.646,3.68,47.232,2.779Zm1.011-.2a.945.945,0,0,0-.5.3,1.766,1.766,0,0,0,.514-.307ZM47.131,3.841c-.132-.154-.152-.159-.05-.354-.017-.062-.1-.058-.179-.055s-.155.007-.176-.046a.438.438,0,0,1,.05-.3c.33.11.389.488.709.607a.466.466,0,0,1-.347.152Zm4.451-2.428a1.2,1.2,0,0,1-.354,1.771A2.933,2.933,0,0,0,51.582,1.413Zm-3.338-.3c.229-.005-.022.153.051.3-.519.107-.781.466-1.266.607C47.158,1.441,47.92,1.493,48.244,1.11ZM48.5.655c-.382.344-.989.462-1.366.809C47.2,1.015,48.044.893,48.5.655ZM48.648.2C48.2.444,47.7.637,47.282.908,47.331.466,48.134.343,48.648.2Z" transform="translate(0.858 0.821)" fill="#fff" stroke="rgba(0,0,0,0)" stroke-width="1"/>
  </g>
</svg>
