<svg id="Group_474" data-name="Group 474" xmlns="http://www.w3.org/2000/svg" xmlns:xlink="http://www.w3.org/1999/xlink" width="89.92" height="90" viewBox="0 0 89.92 90">
  <defs>
    <clipPath id="clip-path">
      <rect id="Rectangle_231" data-name="Rectangle 231" width="89.92" height="90" fill="none"/>
    </clipPath>
  </defs>
  <g id="Group_473" data-name="Group 473" transform="translate(0 0)" clip-path="url(#clip-path)">
    <path id="Path_3184" data-name="Path 3184" d="M89.9,55.056a5.552,5.552,0,0,0-9.624-3.24L70.794,62.155v-7.91A10.262,10.262,0,0,0,62.551,44.2l-8.166-1.622a6.491,6.491,0,0,1-3.936-2.475l-1.1-1.457,1.693-.673a16.373,16.373,0,0,0,10.4-15.293l.037-4.056.074-.171a2.391,2.391,0,0,0,.19-.933V15.677a11.9,11.9,0,0,0-7.433-10.96l-.365-.146-.236-.315A10.6,10.6,0,0,0,45.245,0H41.336A13.81,13.81,0,0,0,27.542,13.794v3.037a3.146,3.146,0,0,0,.709,2l.307.384v3.471a16.374,16.374,0,0,0,10.4,15.293l1.693.673-1.1,1.458a6.5,6.5,0,0,1-3.937,2.474L27.453,44.2A10.261,10.261,0,0,0,19.21,54.244v3.762l-.791.38A22.168,22.168,0,0,0,12.3,62.729L.123,74.9a.42.42,0,0,0,0,.595.428.428,0,0,0,.594,0l.769-.769q.4-.277.805-.551c-.04.046-.086.087-.125.135-.06.071.034.169.1.1l.688-.674c.412-.275.821-.554,1.24-.817.19-.119.383-.229.575-.342q-1.585,1.445-3.078,2.991c-.174.182.1.457.277.277,1.5-1.523,3.081-2.964,4.724-4.33l1.21-.628c-.1.148-.2.292-.3.441-.644.587-1.278,1.19-1.891,1.813a.119.119,0,0,0,.169.169A50.919,50.919,0,0,1,21,62.895c.07-.032.019-.156-.053-.125A46.381,46.381,0,0,0,8.086,70.911c.046-.061.091-.124.138-.186l.125-.065a.082.082,0,0,0,.018-.128c.2-.271.4-.546.607-.817,2.214-1.671,4.558-3.122,6.875-4.647a.176.176,0,0,0-.169-.307c.349-.161.705-.306,1.059-.459a.136.136,0,0,0,.16-.01c.073-.056.151-.1.225-.157,1.325-.561,2.665-1.085,4.036-1.521,1.964-.625,3.966-1.037,5.963-1.531.144-.035.118-.279-.035-.263a32.556,32.556,0,0,0-6.142,1.416c-.69.215-1.367.47-2.045.717A24.767,24.767,0,0,1,23.434,60.8c1.832-.345,3.683-.553,5.512-.929a.116.116,0,0,0,.084-.073c1.613.012,3.22.1,4.832.179.1.006.132-.17.025-.185a34.023,34.023,0,0,0-3.726-.3.173.173,0,0,0-.13-.225c-.03,0-.059-.007-.088-.011a.116.116,0,0,0-.127-.119c-.461.023-.919.072-1.375.123l-.282.007a.279.279,0,0,0-.115.03c-.488.062-.971.15-1.453.244-1.154.062-2.3.165-3.445.3.686-.212,1.378-.4,2.081-.56a26.084,26.084,0,0,1,3.524-.528c1.087-.088,2.174-.077,3.261-.113,1.855.729,3.7,1.48,5.559,2.2.046.028.091.062.138.09.073.043.159-.061.093-.12l-.013-.009,0-.006-.017-.008a11.813,11.813,0,0,0-1.486-1.063l.341.123a14.915,14.915,0,0,1,1.868,1.566.43.43,0,0,0,.3.123H49.8a3.019,3.019,0,0,0-.993.48c-.181.136-.018.443.183.313a2.793,2.793,0,0,1,2.192-.378,2.759,2.759,0,0,1,.91.432c.055.038.109.084.162.125a4.875,4.875,0,0,0-1.675-.631c-.109-.019-.157.142-.045.167a4.866,4.866,0,0,1,2.232,1.216.155.155,0,0,0,.062.131,3.519,3.519,0,0,1,.978,1.3,3.415,3.415,0,0,1,.134.434c.028.148.07.294.088.444.043.346.024.706.1,1.047a.155.155,0,0,0,.22.1l0,.457c0,.155.011.309.019.464,0,.02,0,.041.006.061s0,.026,0,.039.007.018.011.027a2.118,2.118,0,0,0,.032.333.124.124,0,0,0,.238,0,3.181,3.181,0,0,0,.044-.46c.008-.155.019-.309.019-.464v-.034l.025-.115a.123.123,0,0,0-.024-.1c0-.2,0-.4,0-.6.027.251.05.5.076.753a.062.062,0,0,0,.123,0,6.213,6.213,0,0,0-.142-1.651,3.165,3.165,0,0,0-.034-.523,2.187,2.187,0,0,0-.289-.8c-.047-.084-.1-.164-.161-.245l-.011-.032a.063.063,0,0,0-.031-.032,1.952,1.952,0,0,0-1-.753.135.135,0,0,0-.159.1h0c-.015-.013-.032-.007-.048-.015a.153.153,0,0,0,.072-.191,2.158,2.158,0,0,0-.744-.955,2.929,2.929,0,0,0-.344-.2,4.567,4.567,0,0,1,1.821,1.068c.212.289.413.583.616.877a.09.09,0,0,0,.1.031,4.5,4.5,0,0,1-.84,5.765q-.642-.21-1.272-.452c.1-.117.2-.233.3-.35a9.362,9.362,0,0,1,.8.542c.117.089.271-.109.158-.205-.237-.2-.483-.4-.739-.593.169-.2.336-.394.5-.592a.083.083,0,0,0-.118-.118c-.2.182-.4.374-.586.572-.1-.071-.2-.141-.3-.209a3.959,3.959,0,0,0,.516-.56c.071-.1-.068-.233-.168-.169a3.181,3.181,0,0,0-.609.555c-.1-.063-.212-.112-.319-.169.361-.356.719-.714,1.063-1.087a.076.076,0,0,0-.108-.108c-.408.341-.79.707-1.161,1.085-.154-.076-.312-.142-.471-.2.137-.15.28-.3.41-.451.035-.043-.02-.1-.061-.062-.161.151-.31.315-.464.474-.127-.045-.253-.095-.385-.128q.5-.532,1.018-1.057c.044-.045-.02-.1-.067-.067a20.386,20.386,0,0,0-2.378,2.35c-.146-.057-.3-.1-.44-.164.071-.072.133-.152.2-.225.65-.658,1.363-1.247,2.021-1.9.045-.045-.017-.132-.071-.091a17.535,17.535,0,0,0-2,1.886c-.09.095-.168.2-.257.294a.081.081,0,0,0-.084.1c-.1.109-.2.226-.3.338-.174-.077-.341-.166-.516-.239l-.067-.027c.159-.166.3-.345.466-.508.746-.748,1.557-1.419,2.346-2.119.028-.025-.013-.064-.041-.041a31.29,31.29,0,0,0-2.334,2.13c-.171.165-.323.348-.49.516-.159-.066-.318-.128-.478-.191.033-.032.064-.065.1-.1q.544-.518,1.1-1.023c.2-.177.391-.354.588-.531a2.387,2.387,0,0,0,.513-.528c.062-.1-.057-.2-.153-.153a2.17,2.17,0,0,0-.548.434q-.291.269-.577.542-.56.53-1.108,1.072c-.059.058-.114.12-.174.178-.025-.01-.05-.021-.076-.031.245-.234.489-.469.737-.7.186-.172.373-.342.56-.513a5.533,5.533,0,0,0,.582-.55c.067-.083-.019-.229-.123-.16a9.016,9.016,0,0,0-1.107,1.016q-.43.415-.857.831c-.18-.066-.361-.128-.542-.189l.419-.371.531-.47a4.423,4.423,0,0,0,.578-.547c.072-.094-.018-.249-.136-.176a8.014,8.014,0,0,0-1.1.945l-.581.522-.373-.122.612-.539c.071-.062-.023-.186-.1-.131-.256.181-.493.392-.733.6-.111-.036-.222-.072-.334-.106a10.143,10.143,0,0,0,.956-1.043c.048-.063-.046-.155-.109-.109a10.946,10.946,0,0,0-1.206,1.059,4.63,4.63,0,0,0-.533-.1c.321-.312.642-.624.95-.948.049-.051-.017-.148-.079-.1a14.26,14.26,0,0,0-1.653,1.487c-.009,0-.019,0-.029-.008.044-.046.09-.09.133-.138a.083.083,0,0,0-.118-.118c-.075.061-.141.134-.212.2-.073-.02-.146-.046-.219-.064-.153-.039-.267.195-.112.264l.079.034c-.277.273-.543.557-.8.84-.087.095-.166.2-.251.293-.2-.067-.407-.126-.612-.186.228-.225.447-.46.68-.68.577-.545,1.2-1.044,1.774-1.585.039-.035-.013-.107-.057-.073a20.892,20.892,0,0,0-1.758,1.571c-.251.239-.485.5-.73.741-.146-.041-.291-.084-.438-.121.3-.34.59-.682.868-1.036a.078.078,0,0,0,.016-.063c.1-.122.209-.241.308-.366a12.408,12.408,0,0,0,.941-1.229c.107-.174-.13-.338-.274-.211a12.393,12.393,0,0,0-1.034,1.138c-.349.4-.678.816-1.015,1.224-.119.145-.238.29-.357.435-.1-.018-.195-.044-.293-.057-.007,0-.012,0-.019,0,.18-.233.354-.47.537-.7q.71-.891,1.449-1.758c.248-.29.5-.576.727-.88a8.179,8.179,0,0,0,.695-.9c.1-.174-.11-.422-.292-.292A9.162,9.162,0,0,0,41.3,65.628q-.754.9-1.478,1.824c-.394.506-.785,1.017-1.164,1.537-.084-.007-.166-.02-.25-.023a.11.11,0,0,0-.029.214c.042.009.084.017.125.027-.056.077-.106.158-.161.236a11.375,11.375,0,0,0-2.039-.63.116.116,0,0,0-.062.224c.624.258,1.271.464,1.91.685-.035.05-.069.1-.1.152-.65-.164-1.3-.349-1.936-.56-.072-.024-.125.094-.053.126.588.264,1.191.5,1.8.706-.122.185-.257.363-.376.551H36.9a.42.42,0,1,0,0,.841h.417a.15.15,0,0,0,.054,0H51.041a27.973,27.973,0,0,0,13.045-3.248c-.072.057-.148.11-.22.168-.018.014.008.039.026.025.14-.109.286-.211.428-.317a27.972,27.972,0,0,0,3.943-2.574l.029-.016a.217.217,0,0,0,.36.14c.269-.276.553-.526.833-.785q.965-.5,1.956-.949c.013.076.1.135.165.061s.1-.141.154-.21q1.454-.647,2.955-1.206c.06-.022.036-.118-.027-.1a28.64,28.64,0,0,0-2.714,1.013c.075-.1.154-.2.227-.309q1.233-.785,2.462-1.579c.358-.114.716-.227,1.064-.365a.1.1,0,0,0-.052-.189c-.09.019-.18.05-.271.072.75-.492,1.495-.988,2.229-1.5.06-.042.006-.139-.058-.1-.923.565-1.834,1.154-2.742,1.751-.091.029-.181.063-.272.095l.076-.044c.042-.021.006-.084-.036-.062-.16.08-.312.173-.47.256-.381.143-.759.3-1.13.455.151-.236.3-.475.442-.714.22-.112.443-.22.663-.328a.12.12,0,0,0,.178,0c.045-.048.084-.1.127-.154.267-.128.527-.272.8-.394.861-.39,1.784-.694,2.609-1.152a.116.116,0,0,0-.089-.212,13.072,13.072,0,0,0-2.528,1c-.1.046-.194.1-.294.149.074-.1.148-.195.225-.29Q76.5,59.1,77.9,58.306c.09-.05.01-.182-.081-.137q-1.177.572-2.3,1.241c.095-.131.189-.261.278-.4.194-.107.386-.217.582-.321,1.3-.693,2.628-1.339,3.913-2.056.067-.037.008-.131-.058-.1-1.339.61-2.638,1.324-3.937,2.014l-.3.16c.041-.064.084-.127.124-.191.062-.1.119-.205.18-.306q1.7-.874,3.4-1.751a.154.154,0,0,0,.281.113c.1-.134.192-.271.289-.406l.263-.135c.066-.034.007-.134-.059-.1l-.058.031q.585-.821,1.156-1.651c.527-.246,1.05-.5,1.551-.792a.109.109,0,0,0-.084-.2,10.589,10.589,0,0,0-1.058.4q.379-.548.763-1.094c.413-.273.835-.533,1.257-.792a5.906,5.906,0,0,1,1.152.009.163.163,0,0,0,.141.106c.013,0,.023.006.035.007a.185.185,0,0,0,0,.135,12.225,12.225,0,0,1,.985,4,12.8,12.8,0,0,1,.012,1.4c-.006-.117-.009-.235-.02-.35-.023-.253-.079-.5-.123-.748a.151.151,0,0,0-.02-.12,13.21,13.21,0,0,0-1.158-3.3c-.1-.33-.224-.654-.357-.968-.058-.136-.281-.039-.238.1a14.61,14.61,0,0,1,.711,4.017,13.055,13.055,0,0,1-.1,1.858c-.255.462-.521.916-.8,1.366a12.641,12.641,0,0,0,.785-3.778c.008-.184-.266-.179-.283,0a15.47,15.47,0,0,1-2.772,7.159q-.731.981-1.5,1.927c-1.039,1.275-2.129,2.506-3.245,3.714-.61.661-1.28,1.306-1.918,1.977l-.225.15c-.483.321-.949.659-1.419,1a.147.147,0,0,0,0,.238c-.181.184-.364.367-.534.56-.3.155-.613.3-.914.461-.093.049-.184.1-.277.151.127-.166.257-.329.377-.5.1-.144-.12-.3-.239-.185-.38.381-.737.79-1.086,1.205a5.447,5.447,0,0,0-.914.566.139.139,0,0,0,.135.23c.071-.027.136-.069.205-.1l-.072.091-.509.2.132-.119a.087.087,0,0,0-.1-.136c-.254.167-.5.346-.742.534a10.15,10.15,0,0,0-.977.39c-.107.052-.031.212.078.186s.22-.07.329-.106c-.037.032-.076.061-.113.094a.1.1,0,0,0-.117,0c-.128.091-.246.2-.371.3l-.683.258c-.143.055-.3.106-.445.157.03-.032.065-.061.093-.095.115-.138-.032-.382-.206-.267a6.387,6.387,0,0,0-.978.855,6.361,6.361,0,0,0,.623-.772.186.186,0,0,0-.252-.253,9.712,9.712,0,0,0-1.5,1.332q-.727.735-1.449,1.474c-.069.071-.135.143-.2.213-.158.049-.316.1-.471.151a.112.112,0,0,0,.06.216c.027-.007.054-.017.081-.023-.094.1-.187.195-.279.291-.665.066-1.331.106-2,.161a.138.138,0,0,0,0,.276,8.752,8.752,0,0,0,1.629-.047l-.185.192c-.784.053-1.573.085-2.353.172-.082.009-.086.131,0,.131.712,0,1.426-.045,2.138-.078-.16.169-.324.332-.482.5a.124.124,0,0,0-.118.049c-.056.075-.113.148-.17.223-.3.083-.587.181-.886.256a.42.42,0,0,0-.305.509.425.425,0,0,0,.513.306c.1-.024.187-.057.283-.082a.242.242,0,0,0,.276-.05c.015-.013.028-.029.043-.042.332-.09.662-.187.99-.287a.1.1,0,0,0,.114-.023l.011-.013a33.9,33.9,0,0,0,14.872-9.291L86.733,61.177a.1.1,0,0,0,.09-.026,4.256,4.256,0,0,0,.489-.6l1.116-1.2a5.552,5.552,0,0,0,1.469-4.3M54.485,66.067c0-.092-.015-.181-.024-.272a.188.188,0,0,0,.189-.013c.02.141.045.281.06.422a.173.173,0,0,0-.225-.137M54.056,64.3a.227.227,0,0,0-.05,0c-.057-.11-.116-.218-.183-.322a2.277,2.277,0,0,1,.233.326m33.96-10.339c.013.023.027.047.039.071l-.034-.05,0-.021m-.361,4.993-.613.657q.174-.22.335-.449c.013,0,.027.006.036-.008.086-.122.148-.257.224-.386.026-.034.055-.067.081-.1-.023.1-.035.194-.062.288M71.415,74.874c.016-.018.032-.035.046-.054l.035-.013a.089.089,0,0,0,.056-.089q.536-.608,1.069-1.217l.132-.058q-.61.763-1.179,1.556a.176.176,0,0,0-.159-.125m-2.4,2.215c-.252.045-.5.1-.753.153q.575-.682,1.151-1.362.425-.135.85-.266c-.416.492-.833.983-1.247,1.475m-3.4,1.735.015-.019c.1-.016.2-.032.3-.046-.579.273-1.163.534-1.758.773.187-.19.38-.374.567-.564.213-.043.428-.084.641-.121a.164.164,0,0,0,.24-.022m-1.351-.352c.073-.077.15-.151.225-.227.219-.068.44-.131.659-.2-.221.22-.436.445-.653.669-.194.046-.386.092-.574.132.116-.124.225-.254.344-.378m4.316-2.925.172-.065.8-.3c-.062.076-.123.153-.186.228l-.012.015-1.013.38-.04.015c.095-.09.187-.182.283-.271m2.314-1.291c.286-.117.565-.249.848-.37q-.142.164-.283.329h0l-.894.339.22-.251.113-.045m-5.362,2.931c.276-.094.548-.2.818-.3l-.209.192-.694.194c.029-.028.056-.058.084-.086m5.621-2.618-.195.226-.029.033-.9.339.22-.254.906-.344m-6.31,2.785h0c-.04.041-.078.083-.119.123l-.006,0,.123-.125m.326.2c.076-.023.153-.047.229-.069l.437-.124c-.058.056-.12.109-.178.164-.1.1-.2.21-.3.311l-.6.134c.136-.139.273-.277.411-.416m-1.036,1.531c-.161.169-.33.331-.491.5-.137,0-.275.011-.412.017.122-.138.249-.273.373-.409l.53-.109m.991-.509c.247-.247.487-.5.742-.739.052-.014.1-.025.157-.039-.19.238-.38.475-.561.717-.112.018-.225.037-.338.06m.9-.882.292-.266c-.068.081-.127.164-.193.246l-.1.02m1.12-.7.976-.277a.091.091,0,0,0-.048-.174l-.69.192c.09-.095.174-.2.265-.289.175-.058.35-.119.526-.176.212-.071.428-.132.641-.2l-1.066,1.278c-.38.076-.76.149-1.139.231.172-.2.356-.389.534-.584m6.057-4.108c-.029.034-.054.07-.082.1l-.068.03c.155-.174.309-.348.459-.525l.038-.019c-.116.137-.234.275-.348.411m1.014-1.277c-.053.071-.112.139-.163.211l-.02.01c.049-.066.1-.126.152-.194l.032-.027M87.632,56.15c0-.177-.013-.354-.024-.531.007-.008.015-.013.019-.025a2.728,2.728,0,0,0-.014-1.245,3.724,3.724,0,0,0-.175-.58c.118.148.231.3.338.457h0a15.449,15.449,0,0,1,.2,2.5c0,.026,0,.05-.006.075l0,.006a3.157,3.157,0,0,1-.293,1.139,4.984,4.984,0,0,1-.422.564,7.814,7.814,0,0,0,.377-2.36m-.521,2.765c.017-.044.032-.089.047-.134.043-.039.084-.08.124-.121-.057.085-.111.172-.172.254m-1.045.942c-.007.055-.017.109-.022.163-.035.06-.068.122-.1.181.042-.111.082-.223.116-.337l.011-.007m2.281-4.441a.088.088,0,0,0-.03.068c0,.184-.024.366-.04.547-.025-.374-.061-.747-.113-1.118a3.2,3.2,0,0,1,.183.5m-2.806,4.717-.419.3c-.034.024,0,.081.032.057l.353-.245a9.867,9.867,0,0,1-.445,1.013c-.473.472-.955.935-1.429,1.411a.1.1,0,0,0-.018.108c-.01.006-.021.006-.03.017-.293.379-.564.776-.83,1.177-.194.157-.39.311-.581.47L80.2,66.091c.423-.433.848-.866,1.264-1.306a29.007,29.007,0,0,0,4.358-5.594,7.912,7.912,0,0,1-.277.942m-2.071,3.309-.064.044c.115-.189.229-.379.332-.573a.087.087,0,0,0,.007-.068c.007,0,.013,0,.019,0a10.331,10.331,0,0,0,1.023-.81Zm3.747-10.467a.149.149,0,0,0-.251.043,3.305,3.305,0,0,0-.624-.941,5.6,5.6,0,0,1,.917.365,4.971,4.971,0,0,1,.36,1.009c-.135-.164-.27-.324-.4-.475m-2.849-2.119c.153,0,.3.021.453.035-.14.017-.281.032-.42.058-.182.035-.365.08-.545.134.046-.061.09-.125.137-.187.125-.01.248-.039.375-.039m-.8.618c.135-.04.27-.076.405-.113l-.315.2-.168.021c.027-.035.052-.071.078-.107M82.215,52.5c-.442.3-.884.6-1.313.92l-.18.135q.3-.381.6-.762c.137-.051.271-.11.408-.16.169-.06.339-.115.509-.171l-.028.037m.61-.794c-.234.044-.47.078-.7.131-.118.028-.069.209.05.182.158-.036.318-.058.476-.089l-.006.009c-.123.058-.251.1-.37.17a.077.077,0,0,0-.008.133c-.213.073-.428.148-.64.225-.019.007-.037.016-.057.022q.434-.546.867-1.093a.179.179,0,0,0,.039-.136,4.706,4.706,0,0,1,.936-.3c-.2.247-.39.5-.585.747m-1.148.02a5.279,5.279,0,0,0-.8.853c-.032.043.04.1.074.058s.087-.1.129-.148l-.228.278c-.161.063-.322.123-.482.189l.521-.569a4.574,4.574,0,0,1,.782-.662M80.1,53.256c.013,0,.023.006.037,0,.155-.066.314-.121.47-.184l-.562.684c-.239.291-.486.583-.732.876-.471.377-.923.774-1.349,1.19-.155.094-.311.184-.466.28a.055.055,0,0,0,.056.094l.089-.042a.112.112,0,0,0-.018.052c-.1.063-.208.124-.31.189.042-.081.086-.16.127-.241Zm-4.144,4.656c-.2.151-.382.318-.57.483L76.2,57.5c-.084.135-.167.271-.249.408m-3.81,4.815c-.265.168-.536.328-.8.5q-.856.586-1.7,1.2c.452-.4.888-.826,1.314-1.259.421-.208.844-.412,1.275-.6l-.1.15M68.348,49.009a.127.127,0,0,0,.019.108,8.066,8.066,0,0,1,.863,1.606,17.548,17.548,0,0,1,.5,1.73.105.105,0,0,0,.056.066,9.312,9.312,0,0,1,.161,1.665c-.032-.238-.059-.475-.11-.714a14.717,14.717,0,0,0-.633-2.153.136.136,0,0,0-.235-.032c-.016-.048-.028-.1-.045-.147l0,0c.047.021.106,0,.093-.064a4.557,4.557,0,0,0-.392-.969,6.094,6.094,0,0,0-.573-.909,9.157,9.157,0,0,0-.74-.878c-.031-.051-.062-.1-.095-.151.084.038.165.085.251.122a.1.1,0,0,0,.1-.175c-.217-.164-.444-.316-.675-.462-.015-.022-.027-.046-.042-.069a.092.092,0,0,0-.119-.028c-.187-.114-.376-.225-.568-.331-.014-.02-.025-.043-.039-.064a.123.123,0,0,0-.157-.041c-.1-.052-.191-.106-.288-.156A13.424,13.424,0,0,0,63.97,45.9c-.612-.34-1.244-.646-1.885-.929l.3.06a9.388,9.388,0,0,1,5.959,3.98m-.036,2.143a23.481,23.481,0,0,0-1.56-2.974,8.4,8.4,0,0,1,.753.8A15.227,15.227,0,0,1,69,52.889c-.1-.279-.212-.556-.33-.825s-.271-.546-.414-.816a.069.069,0,0,0,.059-.1m.3-.091q-.221-.647-.5-1.269c.089.142.185.28.274.423.171.271.308.563.473.836a.2.2,0,0,0-.244.01M61.78,44.909c0,.009,0,.021.008.028q1.058.5,2.063,1.093c.039.023.076.049.115.072-.1-.047-.2-.1-.3-.146a5.017,5.017,0,0,0-1.314-.534c-.077-.011-.157.081-.084.146.019.017.044.031.064.046-.188-.08-.375-.162-.564-.239.189-.239-.148-.577-.354-.34l-.135.157c-.647-.253-1.3-.5-1.955-.718.007-.017.007-.033.014-.05Zm2.144,2.507c.039.042.072.088.11.13-.148-.113-.3-.225-.445-.331-.338-.24-.692-.455-1.05-.662a.1.1,0,0,0-.038-.122c-.031-.018-.063-.031-.094-.049a.187.187,0,0,0-.3-.158c-.24-.132-.483-.26-.729-.38l.208-.244.019.007c.109.044.215.091.324.135a.134.134,0,0,0,.056.2,8.085,8.085,0,0,1,1.927,1.29.151.151,0,0,0,.017.184M61.6,46.8c-.244-.124-.49-.242-.738-.356.087-.1.176-.206.264-.309.249.11.491.235.732.361-.087.1-.172.2-.258.3m-8.646-3.2,0-.006a.626.626,0,0,0-.181.145l-.362-.135.4-.568.939.255c.071.019.143.033.214.05l.083.057a2.332,2.332,0,0,0-.832-.176.17.17,0,0,0,0,.341,2.5,2.5,0,0,1,1.073.291c-.094.121-.186.243-.28.364-.293-.118-.587-.236-.882-.347a.6.6,0,0,0,.028-.161.13.13,0,0,0-.2-.109m6.2,1.1c.177.059.351.133.529.195,0,0-.007,0-.01.006l-.083.108-.146-.066c-.119-.054-.239-.1-.358-.156.022-.03.045-.058.069-.086m-4.026-.113c.057-.084.115-.168.172-.252l.392.186-.141.189-.423-.122m-.175-1.036.319.063q.384.219.765.442c-.009.014-.02.028-.031.042-.051-.022-.1-.041-.155-.063-.106-.047-.2-.108-.309-.157a.217.217,0,0,0-.31-.157c-.1-.048-.191-.095-.286-.145,0-.008.006-.018.006-.025m2.382,1.426a6.932,6.932,0,0,0,.833.192l-.145.172q-.338-.191-.688-.364m-1-.749,0,0,.015.008-.017-.006m-1.685-.2.239.114c-.073.1-.146.211-.219.315-.095-.026-.189-.056-.285-.083l.264-.346m3.859,1.49c.071-.09.144-.179.215-.27.061.014.12.037.182.049a.123.123,0,0,0,.148-.123c.1.046.2.1.3.142-.1.128-.2.254-.3.382-.182-.066-.367-.119-.55-.18m1.154.068c.333.1.658.225.981.353l-.251.292c-.308-.134-.621-.255-.934-.375.068-.092.138-.179.205-.27m.307-.4c.019-.025.038-.048.056-.073s.013-.052.018-.079c.351.127.7.252,1.05.388l-.168.195c-.317-.148-.636-.289-.956-.431m-1.554-.3a12.967,12.967,0,0,1-2.077-.989c.689.339,1.386.659,2.082.983l-.006.006m-2.136-1.023-.122-.068.079.016a.11.11,0,0,0,.043.052m-.369.956.1-.139.771.378-.009.01c-.286-.086-.575-.165-.862-.249m2.745-.214q-.66-.292-1.324-.576l1.55.308c-.077.088-.15.179-.226.268M41.318,38.743l.095.016c-.075.072-.148.148-.222.225Zm.023-.907c.073.012.145.032.217.043.205.032.415.063.628.091.135.032.273.055.409.083.024.014.047.028.072.041-.449-.068-.891-.152-1.327-.257m1.645.306-.039-.019a7.985,7.985,0,0,0,1.037.112c-.336-.022-.669-.051-1-.094m1.235-.045c-.18-.032-.362-.061-.543-.091.074-.008.149-.009.222-.022a.122.122,0,0,0,.026-.221c.252.078.507.148.762.214-.13.022-.176.22-.025.249.127.025.255.038.383.058l-.045,0c-.264,0-.522-.026-.783-.039.071-.019.088-.135,0-.15m6.488-.907a15.68,15.68,0,0,1-3.621.936c-.21.01-.419.021-.63.019-.052,0-.1-.008-.154-.009a30.6,30.6,0,0,1-3.238-.85c-.11-.038-.158.136-.048.174q.418.148.844.281c-.368-.063-.754-.075-1.126-.1-.272-.021-.541-.058-.81-.093a11.369,11.369,0,0,1-1.278-.917c-.024-.02-.06.015-.035.036a11.021,11.021,0,0,0,1.115.857c-.051-.007-.1-.009-.155-.018-.187-.03-.371-.075-.557-.112-.315-.1-.627-.216-.935-.341a.1.1,0,0,0-.137.084c-.219-.061-.44-.117-.656-.187a.147.147,0,0,0-.169.051q-.405-.248-.794-.508a7.241,7.241,0,0,1-1.312-.985.139.139,0,0,0-.125-.154,1.717,1.717,0,0,1-.171-.27c.224.149.446.3.675.443a.056.056,0,0,0,.062,0c.538.464,1.1.9,1.679,1.314.06.043.137-.056.08-.1a35.236,35.236,0,0,1-3.143-2.809c-.1-.1-.251.054-.153.154.174.178.364.338.544.51a.175.175,0,0,0-.038,0c-.256-.2-.517-.4-.772-.606q-.882-.708-1.709-1.48a.133.133,0,0,0-.2.024,9.291,9.291,0,0,1-.675-.838.127.127,0,0,0-.157-.042,8.954,8.954,0,0,1-.929-1.9c-.058-.172-.331-.1-.273.075a9.454,9.454,0,0,0,.476,1.137c-.208-.345-.39-.7-.565-1.065-.1-.225-.2-.452-.3-.677-.135-.319-.273-.637-.383-.967-.009-.028-.031-.04-.049-.057-.114-.288-.231-.574-.326-.872a17.059,17.059,0,0,1-.6-2.616c-.021-.143-.238-.082-.217.059a17.182,17.182,0,0,0,.45,2.1.093.093,0,0,0-.058.124c.156.412.32.823.485,1.232.01.027.019.054.029.081s-.007.019,0,.032c.04.121.1.235.139.354.014.034.027.07.042.1a13.909,13.909,0,0,0,1.085,2.31c.011.018.024.033.034.05.045.088.085.178.131.266a15.514,15.514,0,0,1-2.651-8.246c.042.172.071.346.126.512a.109.109,0,0,0,.211-.058l0-.027c.043.171.094.338.145.506a13.942,13.942,0,0,0,1.262,4.467c.048.1.217.03.178-.075a22.793,22.793,0,0,1-.878-2.978.082.082,0,0,0,.133-.081c-.128-.47-.263-.937-.392-1.406a15.964,15.964,0,0,1-.152-1.862.138.138,0,0,0-.274-.02c-.056-.321-.1-.642-.139-.967a.139.139,0,0,0-.057-.1c.01-.349.033-.7.072-1.044l1.119-.015a3.178,3.178,0,0,0,2.641-1.46l1.113-1.726a10.4,10.4,0,0,1,3.079-3.079c.324-.134.648-.264.97-.4-.322.208-.636.427-.936.665a.119.119,0,0,0-.074.021,10.3,10.3,0,0,0-2.373,2.6,3.809,3.809,0,0,0-.467.855c-.008.019-.016.038-.025.058l-.007.018h0c-.078.175-.15.354-.212.534-.022.066.08.108.113.047.073-.135.153-.265.228-.4a.123.123,0,0,0,.125-.036c.4-.458.684-1.017,1.058-1.5a11.948,11.948,0,0,1,1.212-1.332,12.414,12.414,0,0,1,3-2.1.115.115,0,0,0,.063-.141c.3-.12.591-.243.889-.357.19-.039.379-.08.572-.109A13.173,13.173,0,0,0,39.4,13.587c-.152.114-.016.37.154.263a16.649,16.649,0,0,1,1.59-.868,4.727,4.727,0,0,0-.508.494c-.1.117.058.28.169.17a6.543,6.543,0,0,1,2.259-1.486c.08-.029.158-.061.238-.089.027-.009.056-.013.084-.021h.585c-.169.1-.341.188-.507.289-.124.075-.243.165-.367.244a7.473,7.473,0,0,0-1.623,1.148.073.073,0,0,0,0,.1c-.054.05-.118.092-.17.144-.07.071.027.207.11.142.41-.315.814-.637,1.222-.955A10.956,10.956,0,0,1,45.1,12.049h1.589c.068,0,.134-.009.2-.011A9.163,9.163,0,0,0,44,13.429a16.374,16.374,0,0,0-1.414,1.115,10.719,10.719,0,0,0-1.371,1.327c-.071.091.021.255.136.176a16.98,16.98,0,0,0,1.324-1.129c.471-.405.952-.8,1.46-1.161a8.659,8.659,0,0,1,3.25-1.49c.138-.029.144-.167.08-.258a7.732,7.732,0,0,0,2.4-.631l.969-.43a3.223,3.223,0,0,0-.328.319c-.059.07-.116.141-.171.213a1.534,1.534,0,0,0-.122.227,1.749,1.749,0,0,0-.192.495.124.124,0,0,0,.225.095c.092-.131.166-.273.259-.4.045-.065.106-.117.152-.183s.085-.119.132-.175c.017-.02.037-.037.055-.057l.048.075q.061.319.124.639c.032.161.061.323.094.483s.087.33.133.494c.021.08.158.068.149-.02-.033-.337-.08-.667-.139-1,0-.018-.006-.035-.009-.053.068.1.138.2.209.3.015.045.032.089.046.135-.026.05-.062.09-.086.142a.083.083,0,0,0,.144.084c0-.007.01-.013.014-.019.024.072.05.144.075.215a.077.077,0,0,0-.007.057,7.6,7.6,0,0,0,.323.826A8.84,8.84,0,0,0,52.494,15c.031.052.121.018.1-.042,0-.016-.012-.031-.018-.046a4.552,4.552,0,0,0,.431.51c.047.048.139-.017.1-.075a10.134,10.134,0,0,1-.75-1.126c-.1-.175-.18-.357-.259-.54-.016-.041-.032-.081-.048-.122-.124-.332-.23-.671-.339-1.009.033-.048.071-.093.106-.14a11.114,11.114,0,0,0,1.844,3.663.716.716,0,0,0,.251.383.071.071,0,0,0,.067.014,11.181,11.181,0,0,0,4.513,3.28,2.389,2.389,0,0,0,.778.159l.5.019a33.011,33.011,0,0,1-4.637,6.023.113.113,0,0,0,.16.159,24.235,24.235,0,0,0,4.823-6.169l.453.017c-.276.54-.434,1.153-.7,1.7-.157.329-.333.649-.52.962-.028-.013-.064-.009-.067.033l-.008.084c-.128.212-.258.422-.4.626-.408.6-.851,1.167-1.3,1.731-.037-.019-.085-.015-.091.041,0,.029-.006.058-.009.086q-.369.463-.735.932c0-.092.009-.185.008-.277a.072.072,0,0,0-.145,0c-.009.164-.023.328-.033.493-.03.039-.061.076-.092.116a.151.151,0,0,0,.069.23q-.052.809-.122,1.613c-.2.247-.409.49-.615.733.075-.536.138-1.074.173-1.611.007-.117-.186-.146-.206-.028-.126.7-.242,1.41-.367,2.115l-.58.68a13.475,13.475,0,0,0,.107-2.687.091.091,0,0,0-.181,0c-.076,1.061-.172,2.125-.344,3.177-.344.405-.685.814-1.018,1.229-.146.182.085.431.261.262.2-.189.389-.388.583-.582-.014.064-.023.13-.038.194a19.2,19.2,0,0,1-.573,2.026c-.024.068-.047.141-.071.216q-1.37,1.606-2.845,3.132M36.581,34.716l0-.012.058.055-.054-.043M31.74,13.507c.01-.068.021-.135.031-.2.114-.245.235-.486.364-.726-.017.121-.042.24-.051.361-.12.186-.232.376-.343.567M34.485,2.822a4.489,4.489,0,0,0-.592.626,4.973,4.973,0,0,0-.772,1.228.152.152,0,0,0,.049.163c-.187.149-.365.305-.533.468.374-.674.759-1.344,1.155-2.022.225-.162.456-.315.692-.463m-2.262,2.1a18.513,18.513,0,0,0-1.284,2.7c-.109.206-.219.412-.317.624-.063.077-.128.151-.19.229.008-.032.015-.065.024-.1a14.544,14.544,0,0,1,1.768-3.456m-2.19,5.458c.058-.171.121-.34.182-.509-.079.292-.161.583-.226.877.006-.059.006-.12.013-.18s.023-.125.032-.187m-.417,2.464a.135.135,0,0,0,.023.045c-.014.123-.027.247-.038.37,0-.138.009-.277.015-.415m1.256-3.684c.174-.526.374-1.033.59-1.528.175-.188.334-.392.517-.572a17.357,17.357,0,0,1,1.378-1.213,14.013,14.013,0,0,0-2.736,4.433c-.1.266-.194.536-.283.808.152-.65.324-1.3.534-1.928m4.87-4.278a29.673,29.673,0,0,0-1.711,2.771c-.4.74-.811,1.533-1.158,2.354-.2.261-.4.521-.584.792.152-.54.317-1.076.515-1.6a19.052,19.052,0,0,1,1.48-3.052,10.621,10.621,0,0,1,1.458-1.264M38.581,3.39c-.7.979-1.357,1.986-1.952,3.029-.245.172-.493.341-.729.526A21.164,21.164,0,0,1,37.5,4.122c.109-.157.227-.306.342-.459.239-.1.488-.186.734-.273m2.569-.617a30.23,30.23,0,0,0-2.142,2.262c-.314.141-.624.292-.932.463-.177.1-.346.212-.52.317.548-.914,1.138-1.8,1.755-2.672a12.8,12.8,0,0,1,1.838-.37m4.064.036c.279.043.554.116.831.174-.111.133-.222.267-.329.4a10.291,10.291,0,0,0-1.314.921c-.17-.028-.339-.058-.511-.078l-.079-.006c.429-.487.878-.956,1.33-1.422.024,0,.048,0,.072.007m3.175-1.43a9.534,9.534,0,0,1,.984.4c-.353.35-.695.709-1.043,1.063-.109-.038-.219-.075-.328-.111a.178.178,0,0,0-.205-.24c-.092.024-.174.066-.264.094-.132-.04-.263-.079-.394-.116a5.748,5.748,0,0,1,1.19-1.008.143.143,0,0,0,.061-.083m-9.472,8.3a7.126,7.126,0,0,1,.66-1.43c.082-.132.179-.254.265-.384.244-.086.49-.169.739-.244-.108.152-.225.3-.329.45-.316.462-.667.944-.974,1.442-.122.05-.239.112-.36.166m-.993.48a11.041,11.041,0,0,0-1.151.74,10.639,10.639,0,0,1,.448-1.818A14.93,14.93,0,0,1,39,8.2c-.014.046-.027.093-.04.138A5.594,5.594,0,0,0,38.266,10c-.112.058-.23.1-.341.164m-1.153-2.95a14.3,14.3,0,0,1,1.211-.821c-.071.106-.152.2-.22.31a11.374,11.374,0,0,0-.883,1.7c-.333.195-.656.4-.971.622.168-.4.336-.791.526-1.177.106-.214.226-.42.338-.631m1.593-.466c.211-.32.444-.623.678-.923a10.41,10.41,0,0,1,1.171-.474,15.654,15.654,0,0,0-.891,1.9c-.221.081-.443.153-.661.244-.332.139-.658.294-.979.457a10.542,10.542,0,0,1,.681-1.206m3.114-1.724c-.245.277-.491.553-.726.839q-.391.473-.766.963.4-.849.873-1.666c.205-.053.412-.1.619-.135m5.84.573c-.17.107-.348.2-.516.312.156-.11.315-.218.474-.322l.042.01m.582-.388c.231-.134.462-.267.7-.388-.226.125-.441.269-.662.4l-.04-.012m-.367,1.2c-.219-.029-.438-.048-.656-.07.061-.042.119-.088.181-.13.258-.174.533-.324.8-.489q.308.068.615.132c-.312.175-.626.362-.937.557m-1.8-.144h-.01c.253-.287.508-.571.764-.855l.293.067a12.55,12.55,0,0,0-1.047.789m-.581-.02c-.318,0-.636.013-.954.029.27-.388.531-.781.813-1.16l0,0c.331.058.662.124.991.195-.285.313-.572.623-.853.94m-.387-1.872c.129-.1.268-.177.4-.268l-.227.3c-.058-.011-.116-.025-.174-.036m-.286.654q-.473.635-.93,1.286c-.289.026-.576.058-.863.1a12.727,12.727,0,0,1,1.164-1.271c.066-.06.138-.112.2-.172.143.016.283.04.425.059M42.33,6.459c-.135.022-.269.053-.4.078.114-.151.216-.311.333-.46.315-.4.656-.786.986-1.177.153.007.3.022.457.035A15.516,15.516,0,0,0,42.33,6.459m-.478-.571c-.2.251-.374.517-.564.772-.242.056-.482.126-.723.193.253-.329.513-.656.778-.974s.582-.635.87-.955c.158-.014.315-.024.474-.028-.277.332-.568.651-.835.992m-1.3,2.544c.228-.341.482-.663.721-1,.132-.034.262-.07.393-.1-.4.566-.776,1.142-1.113,1.715v0c-.168.052-.33.122-.5.179.161-.273.324-.545.5-.8m1.473-1.179q.5-.1,1.007-.182-.514.781-.958,1.6c-.437.093-.869.2-1.3.328.417-.583.824-1.169,1.247-1.743M43.7,6.992c.289-.035.578-.074.871-.1q-.675.775-1.337,1.563c-.21.032-.417.075-.624.113.363-.526.73-1.049,1.089-1.579m2.489-.158c.228,0,.457.009.685.016a8.1,8.1,0,0,0-.8.644.138.138,0,0,0,.166.216c.457-.271.9-.556,1.354-.834.042,0,.083.009.125.012a14.06,14.06,0,0,0-1.186,1.165c-.036.041-.073.084-.11.125q-1.045.035-2.09.145c.613-.5,1.224-1.01,1.858-1.489m2.1.136c.011-.008.023-.016.034-.025.2.02.4.031.592.058.228.031.337-.308.1-.356-.078-.017-.157-.025-.235-.041q.391-.289.8-.557c.109.018.217.038.327.053.2.027.3-.265.087-.315l-.008,0c.032-.019.061-.041.092-.059a8.8,8.8,0,0,1,1.07-.568h0l.053-.019a16.4,16.4,0,0,0-2.2,2.115c-.247.292-.478.6-.7.911q-.656-.008-1.319,0a14.236,14.236,0,0,1,1.306-1.2m.784-1.421c-.213-.059-.427-.12-.639-.183q.938-.551,1.916-1.026c.248.106.49.219.735.33a18.175,18.175,0,0,0-2.012.879m-1.654-.489-.484-.146c.418-.46.842-.915,1.267-1.369q.686.223,1.358.483a13.371,13.371,0,0,0-2.142,1.031m-.935-.275c-.332-.095-.665-.186-1-.265.28-.367.562-.732.852-1.091.192-.094.381-.189.58-.268.29.074.575.168.862.254q-.654.679-1.293,1.37m-3.188-.6c-.131-.006-.261-.009-.39-.01.482-.5.986-.979,1.5-1.448l.216.022c-.452.47-.9.946-1.326,1.436m-1.045.008c-.285.019-.566.056-.845.1q.562-.85,1.2-1.639c.4-.01.791-.016,1.189.006q-.8.738-1.544,1.529m-1.486.233q-.355.088-.7.2c.62-.675,1.274-1.319,1.934-1.951l.025,0a17.192,17.192,0,0,0-1.254,1.753m-3.7-.364A12.122,12.122,0,0,0,35.361,7.4q-.583.5-1.123,1.04.2-.392.414-.778A29.646,29.646,0,0,1,36.962,4.11l.091-.048M32.48,8.573c-.053.132-.115.26-.166.392a18.194,18.194,0,0,0-.809,2.716c-.046.223-.1.457-.146.694-.119.227-.244.452-.351.685s-.215.481-.316.727A16.543,16.543,0,0,1,32.48,8.573m.661,2.371c.26-.366.531-.722.819-1.062A17.986,17.986,0,0,1,35.792,8.01c-.254.527-.484,1.067-.695,1.614a14.226,14.226,0,0,0-2.232,2.22q.121-.455.276-.9m2.263-.6c.349-.289.712-.557,1.084-.807a6.6,6.6,0,0,0-.226,1.782,13.039,13.039,0,0,0-1.476,1.406,15.365,15.365,0,0,1,.362-1.64c.073-.251.173-.494.257-.74m-1.048,4.141a.157.157,0,0,0,.125-.125c0-.019.007-.039.012-.058a13.07,13.07,0,0,1,1.854-2.068c0,.022,0,.045.008.066.034.166.279.12.285-.038,0-.1.014-.191.02-.287a10.775,10.775,0,0,1,1.592-1.121.177.177,0,0,0,.316-.056c.013-.046.026-.09.04-.135.05-.026.1-.047.153-.073.024.139.222.234.325.11s.2-.269.3-.408a15.653,15.653,0,0,1,3.12-.966q-.848,1.047-1.614,2.155a11.215,11.215,0,0,0-7.075,4.894L32.709,18.1a2.34,2.34,0,0,1-.932.824c.477-.7.821-1.535,1.229-2.265a24.719,24.719,0,0,1,1.35-2.173m9.9-2.439-.039.012.02-.012Zm12.368-3.74c.155.255.3.512.454.768-.33.078-.661.162-.989.256q-.166-.342-.358-.661a8.789,8.789,0,0,1,.894-.364m2.087,4.263c.079.24.143.485.211.728a5.02,5.02,0,0,0-.823,1.1c-.122-.4-.251-.784-.379-1.151l-.009-.025a4.907,4.907,0,0,1,.88-.977c.039.108.085.211.121.32m-.57,6.09a10.46,10.46,0,0,1-1.676-1.015.1.1,0,0,0,.108-.123,5.091,5.091,0,0,1,.639-3.441c.155.514.292,1.033.407,1.556a3.967,3.967,0,0,0-.058,1.679,2.1,2.1,0,0,0,.564,1.268c.006.025.009.05.015.075m-2.026-7.589c.041.1.078.192.118.288-.293.277-.572.566-.843.863-.064-.184-.133-.366-.2-.547.12-.084.236-.172.358-.252.187-.123.38-.237.571-.352m.066,4.865a12.122,12.122,0,0,0-.225-1.658,4.355,4.355,0,0,1,.461-.681,4.69,4.69,0,0,1,.484-.485c.038.111.083.222.12.334.019.056.033.113.052.17-.021.036-.045.071-.066.109a6.93,6.93,0,0,0-.827,2.212M57.5,12.656a5.693,5.693,0,0,1,.563-.33,5.362,5.362,0,0,0-.483.541c-.026-.071-.053-.14-.08-.211m-1.383.809c-.088.109-.173.225-.252.346-.1-.441-.235-.877-.378-1.308.269-.315.556-.612.849-.9.161.393.311.79.455,1.189a5,5,0,0,0-.674.677m.655-2.6c-.019-.042-.035-.084-.053-.126.168-.089.335-.182.507-.264-.14.111-.277.228-.41.35l-.044.041m-1.838,1.872a7.18,7.18,0,0,0-.7,1.053c-.052-.145-.109-.289-.158-.434-.07-.206-.126-.417-.187-.625.053-.051.1-.1.157-.154.21-.192.431-.372.657-.546.079.234.156.47.227.706m-1.233.724c.086.284.19.561.3.839-.047.115-.1.229-.138.348-.016.047-.033.1-.05.155a9.773,9.773,0,0,1-.517-.918,1.387,1.387,0,0,1,.157-.61,1.623,1.623,0,0,1,.15-.206c.036.13.064.262.1.392m.325,1.7c.038-.147.081-.29.13-.426a4.119,4.119,0,0,0,.436.906A.171.171,0,0,0,54.9,15.5a10.133,10.133,0,0,0-.422-1.046c-.034-.087-.063-.177-.1-.265a6.66,6.66,0,0,1,.662-1.108c.012.041.027.08.039.121.135.472.241.95.349,1.429a3.594,3.594,0,0,0-.24,1.924,10.41,10.41,0,0,1-1.168-1.4m1.551.1c.1.491.206.983.316,1.472a.16.16,0,0,0,.272.067,2.327,2.327,0,0,0,.222.789,10.389,10.389,0,0,1-.977-.823,5.141,5.141,0,0,1,.167-1.5m2.657-.406a4.578,4.578,0,0,1,.786-1.23c.018.07.035.139.052.209a9.322,9.322,0,0,0-.825,1.07c0-.017-.008-.032-.013-.048m-.844-2.489q-.251-.644-.524-1.28a6.564,6.564,0,0,1,.9-.761c.25.489.47.994.672,1.509a6.317,6.317,0,0,0-1.048.533m-.821-1.975q-.161-.372-.332-.749.5-.157,1-.291c.116.2.224.412.334.618q-.514.188-1.006.422m-1.137-.85c-.341.114-.676.242-1,.388-.058-.12-.115-.241-.174-.359.243-.18.49-.354.751-.509.062-.037.129-.069.192-.1.069.2.148.391.232.585m.143.322c.13.281.26.559.381.83a10.618,10.618,0,0,0-.925.57c-.139-.34-.287-.674-.44-1,.321-.147.649-.277.984-.4m-1.01,1.729a7.719,7.719,0,0,0-.813.668c-.1-.373-.19-.749-.276-1.125-.034-.152-.3-.122-.278.037a13.137,13.137,0,0,0,.267,1.394c-.014.015-.03.029-.043.045a2.475,2.475,0,0,0-.4.683,10.248,10.248,0,0,1-.534-1.639A7.237,7.237,0,0,1,54.12,10.5c.152.362.308.722.44,1.091m-2.993.546a.094.094,0,0,0-.15-.045c-.081-.131-.161-.262-.244-.391-.028-.159-.055-.318-.084-.478a2.915,2.915,0,0,1,.323-.251l.321,1.175c-.036.057-.071.113-.1.171-.019-.061-.043-.121-.061-.182m7.394,17a.156.156,0,0,0-.247-.025c-.087.106-.163.219-.249.326.137-.544.265-1.094.38-1.65.145-.245.286-.492.426-.74-.065.461-.135.92-.218,1.378a.085.085,0,0,0,.073.106c-.057.2-.1.4-.166.6m-4.28,2.05c.174-.18.343-.366.514-.549-.08.41-.151.821-.247,1.229-.06.254-.136.5-.2.758-.2.254-.416.5-.624.753.107-.34.208-.681.3-1.025.1-.386.187-.776.262-1.166m.952-1.024c.235-.261.464-.525.692-.792-.05.474-.112.947-.177,1.419-.3.407-.606.807-.915,1.206.154-.608.286-1.218.4-1.833m.939-1.081c.152-.181.3-.361.452-.544-.093.5-.2.987-.324,1.476-.1.14-.2.28-.3.419.068-.45.122-.9.171-1.352m.153-2.354c.011-.006.024,0,.033-.013.211-.21.418-.426.624-.646-.048.425-.1.848-.165,1.27q-.264.345-.539.683c.031-.431.038-.863.047-1.294m1.781-1.965c-.019.276-.031.551-.055.826-.315.484-.642.963-.99,1.431.049-.38.073-.762.1-1.144.328-.359.642-.731.946-1.113M58.3,26.865c-.043.324-.085.647-.139.969q-.589.934-1.22,1.838c.122-.478.231-.958.322-1.442.2-.248.4-.494.588-.745.154-.2.3-.413.449-.62m-2.072,4.823c-.021.067-.036.135-.058.2s.082.094.1.029c.057-.162.1-.328.155-.491.506-.68.987-1.379,1.449-2.089-.1.433-.212.862-.328,1.291q-.856,1.152-1.626,2.37c.092-.419.186-.839.265-1.262.013-.017.026-.032.038-.049m1.813-2.6c.195-.3.392-.6.579-.911-.088.482-.183.965-.3,1.447-.212.265-.414.537-.617.807.122-.445.238-.892.336-1.343m1.377-2.295c.058-.106.122-.209.179-.315q-.132.75-.316,1.491.07-.589.137-1.177m.148-1.345c.022-.211.037-.422.058-.633.085-.151.171-.3.252-.457-.019.212-.043.425-.066.637-.082.151-.162.3-.244.453m-.121.223c-.1.185-.206.369-.312.551.036-.236.052-.473.081-.71.1-.166.2-.332.3-.5-.022.22-.045.44-.07.659m-.59,1.018c-.173.29-.341.584-.52.869.045-.292.07-.588.1-.881.179-.253.351-.51.52-.77-.031.261-.069.521-.1.782M58.565,25.4c.017-.252.022-.5.032-.758.2-.255.392-.516.575-.779-.02.222-.04.444-.062.666-.174.294-.36.583-.545.871m-5.97,10.431a.1.1,0,0,0,.071,0,1.73,1.73,0,0,0,.942-1.043c.266-.283.533-.568.791-.859-.151.516-.323,1.025-.494,1.535a15.58,15.58,0,0,1-2.361,1.364c.359-.324.705-.662,1.05-1m1.651-.61c.207-.59.4-1.19.584-1.794q.582-.683,1.131-1.394c-.073.43-.158.858-.247,1.287-.056.09-.119.174-.174.264-.112.187.167.341.288.168q1.559-2.231,3.154-4.441c.006-.01,0-.02.006-.03a.1.1,0,0,0,.134-.013,15.659,15.659,0,0,1-4.875,5.951m4.927-6.066a21.018,21.018,0,0,0,.752-3.312c.172-.328.349-.654.513-.985a15.453,15.453,0,0,1-1.265,4.3M60.534,24.1a.2.2,0,0,0-.292.089c-.055.108-.115.21-.171.316.013-.186.01-.372.018-.558.185-.377.359-.758.511-1.149,0,.439-.027.872-.066,1.3m.071-2.283a.156.156,0,0,0-.086.073c-.245.507-.5,1-.766,1.5,0-.049.01-.1.013-.148s-.075-.05-.08,0c-.009.107-.02.213-.03.319q-.154.281-.314.558c.009-.171.008-.341.013-.511l.007-.009a12.473,12.473,0,0,0,.972-1.717c.092-.2.185-.419.271-.644Zm.3-4.29a1.529,1.529,0,0,1-.675,1.28,1.569,1.569,0,0,1-.9.27l-.195-.014-.341-.092c-.116-.045-.221-.109-.334-.158a.171.171,0,0,0,.064-.094,7.266,7.266,0,0,0-.154-3.329,7.089,7.089,0,0,1,.788-1.162q.127.56.232,1.123A4.2,4.2,0,0,0,59,17.987c.032.154.27.116.27-.037a6.557,6.557,0,0,1,.233-1.909.124.124,0,0,0,.007-.017c.025.15.046.3.07.452a3.515,3.515,0,0,0,.035,1.915c.029.089.175.079.171-.023-.006-.121,0-.24,0-.36a.076.076,0,0,0,.12-.04c.1-.457.165-.921.272-1.378a13.314,13.314,0,0,1,.4-1.35.088.088,0,0,0-.057-.116,4.237,4.237,0,0,1,.33-.461c.032.336.063.673.063,1.014Zm-.678-1.866c-.073.237-.148.473-.208.714,0-.053,0-.106,0-.159a4.677,4.677,0,0,1,.206-.555m-.409,1.616c0,.031,0,.06-.009.09,0-.03,0-.06.006-.091h0m1-3a4.859,4.859,0,0,0-.839,1.153c-.01-.119-.023-.237-.038-.354a4.755,4.755,0,0,1,.506-.722c.144-.165-.095-.406-.24-.241a5.241,5.241,0,0,0-.336.425,13.12,13.12,0,0,0-.341-1.43.119.119,0,0,0-.047-.152c-.07-.23-.134-.462-.214-.69-.045-.124-.1-.247-.146-.371.054-.017.1-.04.159-.056a.118.118,0,0,0,.086-.089,3.2,3.2,0,0,1,.392-.191c.135-.046.08-.258-.06-.217a3.675,3.675,0,0,0-.682.287,15.8,15.8,0,0,0-.707-1.566,1.8,1.8,0,0,1,.21-.072.055.055,0,0,0,.04-.064c.123-.044.244-.094.369-.133a.12.12,0,0,0-.064-.231c-.242.061-.482.138-.722.213-.108-.193-.219-.383-.337-.57.165-.042.333-.085.5-.125s.095-.286-.069-.251c-.191.039-.386.083-.58.124-.182-.272-.379-.531-.583-.785.187-.055.377-.107.568-.148.033-.007.045-.03.066-.047a10.927,10.927,0,0,1,3.113,6.3M57.424,7.7a8.376,8.376,0,0,0-1.932.624c-.041-.058-.076-.122-.12-.176-.142-.178-.39.019-.351.2.013.062.037.124.053.187-.107.058-.216.109-.321.172a6.313,6.313,0,0,0-2.167,1.966c-.078.128.095.247.2.154.353-.313.672-.655,1.045-.946l.026-.019c.045.1.078.194.121.289a6.291,6.291,0,0,0-1.558,1.126c-.056-.293-.119-.585-.148-.888L52.209,9.8l.391-.454c.085-.1.149-.212.229-.314a.1.1,0,0,0,.134,0c.956-.972,2.422-1.119,3.691-1.349.2-.037.154-.362-.047-.356a7.4,7.4,0,0,0-2.093.307c.011-.023.018-.049.029-.073a4.778,4.778,0,0,1,.31-.55,3.135,3.135,0,0,1,.718-.742l.411.273A11.013,11.013,0,0,1,57.424,7.7m-3.544-.432L54.566,5.6l.764.507a3.5,3.5,0,0,0-.734.733,2.792,2.792,0,0,0-.45.939,3.148,3.148,0,0,0-.774.483,7.792,7.792,0,0,0,.508-.991M53.216,5l.438.628-.547,1.307a6.911,6.911,0,0,1-3.815,3.753c.1-.174.2-.348.3-.518q.412-.679.878-1.325a19.889,19.889,0,0,1,2.06-2.407c.069-.047.132-.1.2-.148.216-.146.009-.5-.205-.351a15.833,15.833,0,0,0-2.43,2.071,15.118,15.118,0,0,0-1.916,2.535c-.058.093.083.171.144.084a17.187,17.187,0,0,1,2.928-3.2c-.339.389-.663.79-.971,1.2s-.614.865-.9,1.314c-.148.238-.291.478-.429.722l-.109.191a6.958,6.958,0,0,1-2.152.347h-.911c.058-.028.114-.06.173-.088s.007-.1-.044-.075c-.114.05-.223.111-.336.163h-.32a.2.2,0,0,0-.206-.088c-.123.023-.242.062-.365.088H43.3a11.269,11.269,0,0,0-1.887.177c.57-.677,1.146-1.351,1.705-2.038a.08.08,0,0,0,.145.032c.057-.077.121-.148.179-.225.791-.128,1.591-.218,2.395-.291a5.6,5.6,0,0,0-.7,1.066c-.064.135.109.3.222.172.365-.414.688-.862,1.036-1.29.511-.042,1.022-.079,1.532-.116-.034.052-.071.1-.1.153-.135.21-.265.428-.394.646a7.917,7.917,0,0,0-1.065,1.335c-.093.162.112.294.245.188.1-.084.195-.19.292-.285a.113.113,0,0,0,.164-.025c.063-.1.12-.206.18-.309.232-.254.456-.517.685-.764.316-.338.636-.674.954-1.009l.161-.012a.221.221,0,0,0,.172-.341l.029-.031c.886-.919,1.782-1.832,2.7-2.717.156-.15-.075-.374-.237-.236-.983.847-1.934,1.721-2.839,2.652-.04.04-.076.083-.115.123.161-.21.325-.419.5-.623a16.231,16.231,0,0,1,2.553-2.431c.125.06.256.115.38.177a.247.247,0,0,0,.249-.426l-.019-.011a.136.136,0,0,0-.117-.213c-.047,0-.092.011-.138.013a.121.121,0,0,0-.186-.051c-.318-.179-.64-.354-.968-.52.119-.115-.028-.341-.21-.261l-.037.018a.128.128,0,0,0-.149-.059c-.046.013-.091.032-.136.045-.572-.271-1.155-.52-1.749-.74.332-.349.658-.7.995-1.048A9.712,9.712,0,0,1,53.216,5M45.245.841a9.708,9.708,0,0,1,2.792.428,5.916,5.916,0,0,0-1.406,1.07q-.429-.106-.862-.19c.082-.082.157-.169.239-.25.191-.187-.1-.477-.292-.292-.149.145-.287.3-.434.45-.045-.007-.091-.012-.135-.019.09-.078.173-.166.264-.243.208-.175-.09-.469-.3-.3-.18.15-.353.308-.529.461-.439-.054-.88-.086-1.32-.1.2-.232.4-.463.6-.692a.134.134,0,0,0-.19-.189,11.924,11.924,0,0,0-.92.867,14.173,14.173,0,0,0-2.682.242c.157-.225-.212-.432-.377-.214-.085.113-.168.229-.253.342-.008,0-.019,0-.027.006-.17.041-.328.106-.495.153.2-.217.4-.434.611-.645a1.926,1.926,0,0,1,.964-.663c.085-.015.064-.15-.02-.149-.681.006-1.217.591-1.672,1.036-.211.2-.405.424-.6.644l-.031.009c.194-.225.38-.457.582-.677.228-.251-.144-.626-.375-.374q-.672.736-1.3,1.515a11.82,11.82,0,0,0-1.545.881.3.3,0,0,0-.448.019c-.171.225-.327.459-.487.69-.056.046-.112.091-.167.138A15.74,15.74,0,0,0,31.8,6.931c.147-.305.29-.612.448-.912A8.375,8.375,0,0,1,33.3,4.9a.141.141,0,0,0,.122-.051c.285-.354.512-.756.831-1.084a11.19,11.19,0,0,1,.973-.926A8.53,8.53,0,0,1,37.606,1.49a.114.114,0,0,0,.079-.117A12.9,12.9,0,0,1,41.336.841ZM28.384,16.831V13.794a12.877,12.877,0,0,1,2.281-7.325,15.12,15.12,0,0,0-1.027,2.479c-.1.33-.189.671-.272,1.016-.029.045-.062.09-.091.135a.091.091,0,0,0,.032.13,11.176,11.176,0,0,0-.013,5.368.162.162,0,0,0,.191.113,17.937,17.937,0,0,0,.049,2.623.341.341,0,0,0,.288.317c0,.04,0,.08.009.119.029.212.335.311.427.109a.136.136,0,0,0,0,.019c.006.157.251.206.284.039a16.515,16.515,0,0,1,1.613-4.587c.022.138.03.277.064.416a.168.168,0,0,0,.328-.045,8.286,8.286,0,0,1,.019-1.1,13.1,13.1,0,0,1,1.974-2.5c.021-.021.045-.04.068-.061a11.648,11.648,0,0,0-.5,2.5c-.084.11-.178.213-.261.327a20.3,20.3,0,0,0-1.484,2.389,11.42,11.42,0,0,0-1.191,2.645.264.264,0,0,0,.024.195,2.294,2.294,0,0,1-2.807-2.293M33.6,33.305c.062.058.117.125.184.178a.111.111,0,0,0,.168-.045,3.837,3.837,0,0,0,.762.647.12.12,0,0,0,.145-.188c-.045-.048-.1-.091-.144-.137a4.425,4.425,0,0,0,.424.3.09.09,0,0,0,.127-.052c.082.067.158.141.241.208.255.2.519.392.784.577a1.818,1.818,0,0,0,.441.843.8.8,0,0,0,.07.3,15.683,15.683,0,0,1-3.2-2.631m5.412,8.572a7.4,7.4,0,0,0,.964-.957.118.118,0,0,0,.174-.018c.234-.35.455-.707.695-1.053a8.177,8.177,0,0,1,.8-.974.107.107,0,0,0,.028-.072l.637.1a16.544,16.544,0,0,0,5.385,0l.992-.164.468.888a7.321,7.321,0,0,0,1.834,2.245l1.079.888-.387.467a.106.106,0,0,0-.055-.087.125.125,0,0,0-.169.044l-.022.05a1.769,1.769,0,0,0-.159-.686.094.094,0,0,0-.128-.033.1.1,0,0,0-.034.129,1.545,1.545,0,0,1,.122.63,1.476,1.476,0,0,1-.036.313c-.018.083-.027.166-.04.25l0,.008a.125.125,0,0,0,0,.018,8.027,8.027,0,0,1-12.324-.026l-.545-.659.087-.095.273-.294.545-.587a.152.152,0,0,0-.215-.215l-.547.585-.266.284-.076.082-.146-.176Zm1.4,4.586c.03.051.07.095.1.144-.174-.124-.343-.251-.506-.393a7.484,7.484,0,0,1-.669-.682c.1.084.208.161.313.239a7.082,7.082,0,0,0,.76.686v.006M15.609,63.28c.206-.111.409-.225.617-.335a.1.1,0,0,0,.026.121c-.331.192-.655.4-.974.609.113-.129.224-.26.331-.394M6.381,70.039c-.259.178-.506.372-.76.556L6.8,69.418q.722-.486,1.45-.958,1.088-.675,2.19-1.329c-.145.21-.284.424-.428.635-.508.275-1,.585-1.488.881-.727.441-1.44.907-2.141,1.392M9.4,66.813q1.164-.806,2.361-1.557l-.058.083c-.859.553-1.708,1.123-2.536,1.716-.08.056,0,.188.076.131q1.083-.77,2.2-1.479c-.223.318-.453.632-.674.951-.128.079-.254.161-.381.239q-1.427.849-2.822,1.751Zm2.174-.635c.228-.318.447-.642.674-.961.276-.169.551-.338.828-.5q-.281.436-.531.886c-.325.189-.648.383-.971.577m.942-1.344.043-.061c.261-.159.525-.312.789-.467l-.015.022c-.276.163-.545.337-.817.506m1.624-2.088c.169-.093.343-.174.512-.265-.1.134-.2.262-.3.4-.292.177-.572.379-.86.563.175-.252.355-.5.53-.755a.079.079,0,0,0,.117.061m2.266-1.96a.14.14,0,0,0,.131.045c-.08.039-.161.075-.242.115.038-.053.074-.107.111-.16m4.573-1.937-.01,0L20.7,58.9a.052.052,0,0,0-.043.045l-.114.039c.017-.028.034-.055.051-.082.1-.173.217-.337.331-.5-.019.077-.043.154-.055.232a.212.212,0,0,0,.11.217m-2,1.306c-.194.084-.382.178-.575.264.058-.084.115-.171.173-.256.164-.069.335-.125.5-.193l-.1.185M16.73,62.123l-.41.208c.108-.148.22-.291.326-.442.012-.017.022-.035.034-.053.122-.065.238-.139.361-.2-.106.162-.209.326-.311.489m-1.988,1.05c.095-.139.194-.277.289-.415.233-.136.47-.264.705-.394-.1.144-.2.291-.311.434-.229.123-.457.248-.684.375m2.364-1.825c-.059.031-.114.066-.173.1.04-.06.079-.122.118-.183.114-.054.231-.1.345-.154-.033.048-.066.1-.1.146-.063.032-.129.063-.192.095m.147-.4c.054-.087.113-.172.165-.26.134-.062.264-.129.4-.188-.038.051-.078.1-.115.152s-.058.087-.087.13c-.121.057-.243.109-.362.166m3.093-2.179a3.247,3.247,0,0,0-.176.338l-.188.063c.132-.229.255-.462.391-.689.072-.028.147-.052.22-.079-.083.122-.169.241-.246.367m-4.332,2.583c.2-.1.411-.191.615-.29-.058.089-.114.178-.174.267-.228.114-.45.241-.677.359.079-.111.157-.225.236-.336m.226.306c-.066.095-.135.186-.2.281-.238.131-.477.263-.714.4.075-.107.15-.213.225-.321.231-.119.458-.242.691-.357m-2.245,1.714-.267.381c-.259.151-.517.3-.772.457l.205-.292c.278-.182.552-.371.834-.547m.387.322c.058-.033.115-.071.174-.1.153-.085.312-.16.466-.243l-.04.054c-.213.116-.428.232-.64.352.014-.019.027-.04.04-.059m1.529-.81c.171-.089.341-.181.513-.268-.008.014-.018.028-.026.043-.165.082-.334.156-.5.24l.011-.015m2.324-1.181a.245.245,0,0,0,.06.051l0,.011c-.458.2-.907.423-1.358.64l.079-.1c.406-.2.815-.406,1.223-.606m-1.543,1c.524-.274,1.049-.547,1.58-.811a.146.146,0,0,0,.077.118,19.611,19.611,0,0,0-1.8.87c.048-.058.1-.119.144-.177m1.579-1.333c-.015.008-.013.022-.025.032-.275.123-.547.249-.819.379.133-.173.262-.347.391-.522.27-.129.54-.261.813-.382-.06.133-.118.267-.171.4-.062.033-.127.06-.188.093m-.149-.527c.021-.03.04-.06.061-.09.213-.1.426-.2.642-.288l-.027.056c-.227.106-.452.212-.676.322m1.292-.641.012-.006c.273-.112.552-.21.827-.318q-.434.181-.864.374c.009-.017.017-.033.025-.05m.24-.454c.114-.045.228-.09.343-.133a.1.1,0,0,0,.153,0c.015-.025.032-.05.046-.075.239-.087.472-.192.714-.275.5-.169.995-.315,1.495-.453l-.476.172c-.8.284-1.582.593-2.362.919.028-.052.059-.1.087-.153m5.2-1.519c.092-.015.184-.032.277-.045.254-.007.509-.018.764-.021q-.544.05-1.087.111a.108.108,0,0,0,.046-.045m8.284-.1a.114.114,0,0,0-.1-.07c-.3-.021-.6-.032-.9-.047a4.017,4.017,0,0,0-.891-.189,2.78,2.78,0,0,0-.64.037l-.292-.109c-.1-.037-.148.087-.095.158q-1.421-.057-2.843-.035c.321-.042.643-.083.967-.128a.073.073,0,0,0,.041-.025c.43-.039.861-.084,1.292-.143.129-.018.1-.236-.031-.228-1.723.1-3.454.081-5.179.016a21.28,21.28,0,0,1,3.535-.3A14.794,14.794,0,0,1,33.709,58.2c-.19-.025-.381-.046-.573-.069m-9.664-.571a.168.168,0,0,0,.142.123c.56.064,1.117.1,1.675.123-.315.052-.629.108-.943.178-.162.009-.326.017-.487.027a.105.105,0,0,0-.1.114c-.15.038-.3.071-.451.112-.36.084-.722.169-1.073.258s-.676.187-1.014.286h0c.137-.237.248-.485.363-.732.619-.194,1.25-.351,1.886-.489m-2.016-.509c-.023.055-.048.111-.073.167l-1.331.382v-.046a.212.212,0,0,0,.221-.053,3.676,3.676,0,0,0,.438-.772c.144-.277.288-.553.434-.828.3-.55.623-1.081.96-1.606.154-.239.315-.494.485-.746q.1.555.208,1.111c.007.044.083.034.078-.01-.045-.423-.107-.845-.17-1.267a7.071,7.071,0,0,1,.729-.9,14.8,14.8,0,0,1,.156,1.784,9.652,9.652,0,0,0-1.268,1.375,7.05,7.05,0,0,0-.868,1.409m.206-8.028c.013.053.025.107.038.161-.031.038-.056.081-.084.12,0-.02-.006-.041-.008-.061a.114.114,0,0,0-.047-.073c.032-.05.069-.1.1-.146m.868.131c.1.246.215.487.3.74q-.333.356-.642.733c-.058-.265-.114-.531-.177-.794.109-.146.2-.3.316-.443.065-.082.135-.156.2-.236m.546.476c-.089-.259-.187-.516-.293-.771.175-.2.355-.4.54-.586.1.29.19.585.28.88a5.011,5.011,0,0,0-.527.478m-1.023,1.154c-.076.095-.142.2-.215.293-.032-.285-.07-.569-.107-.853.053-.074.106-.149.16-.224.057.261.109.522.162.783m-1.929,2.376c.044.18.091.359.13.54-.063.139-.137.272-.2.413a9.516,9.516,0,0,1,.066-.953m.651,2.011c-.023-.247-.059-.5-.1-.74.128-.273.255-.547.4-.813,0,.071.009.142.013.212a.047.047,0,0,0,.094,0c0-.128-.008-.256-.01-.384.153-.283.309-.565.475-.841.017-.027.035-.052.052-.078.028.327.066.65.109.974l-.184.267a16.023,16.023,0,0,0-.843,1.4m1.24-1.972c-.011-.355-.029-.71-.064-1.065.1-.146.187-.294.289-.437.062.32.122.641.184.962-.142.175-.277.357-.408.54m-.662-3.522c-.118.171-.246.334-.357.509l0-.018c.1-.214.222-.421.341-.627.006.045.011.091.018.135m.12.908c.035.28.077.56.11.839-.1.146-.218.285-.317.433-.049.073-.088.152-.136.226-.014-.3-.039-.6-.059-.9.128-.2.268-.4.4-.6m-.482,1.73c-.184.3-.359.608-.518.922q-.082-.383-.185-.758c.2-.355.417-.7.632-1.049q.039.443.071.885m-.532,2.575c.01.077.026.153.036.23.018.164.032.329.045.494-.115.227-.225.457-.327.691-.032-.193-.071-.385-.106-.578.109-.283.228-.56.351-.837m-.339,1.627-.069.164v-.455c.024.1.045.194.069.29m2.44-4.02c-.058-.332-.114-.664-.181-1,.209-.286.423-.568.653-.838l.011-.013c.1.369.2.738.273,1.114a5.265,5.265,0,0,0-.756.732m.737-2.155c.149-.184.315-.38.493-.565.136.5.254,1,.357,1.506a3.324,3.324,0,0,0-.568.3,12.654,12.654,0,0,0-.282-1.236m.2-2.25c.246-.248.5-.491.752-.728a11.481,11.481,0,0,1,.555,1.395,1.553,1.553,0,0,0-1.007.26c-.095-.311-.19-.621-.3-.926m-.249-.64c-.023-.059-.045-.119-.069-.178a9.252,9.252,0,0,1,.731-.6c.026.047.046.1.071.147-.252.2-.5.408-.734.63M23,47.437c.026.065.05.13.075.195-.2.2-.4.4-.592.608a.165.165,0,0,0-.238.211c.007.015.012.032.019.046-.151.175-.306.349-.449.528-.014-.053-.026-.106-.04-.159A9.52,9.52,0,0,1,23,47.437M19.461,58.85c.128-.056.251-.124.379-.177-.143.223-.272.455-.405.683-.139.049-.277.1-.417.153.146-.221.3-.437.443-.659m-.627.3c-.155.2-.305.409-.459.611-.186.073-.373.141-.558.218.088-.159.182-.314.266-.474.245-.129.5-.236.751-.355m-1.462.765c-.078.122-.158.243-.236.366-.183.081-.367.158-.547.241a.147.147,0,0,0,0-.134c.259-.165.522-.32.788-.473m-2.713,1.842c.4-.323.815-.627,1.236-.918-.342.432-.664.881-1,1.321-.265.145-.538.277-.8.426.181-.265.372-.523.553-.79.009-.015,0-.026.007-.04m-1.766,1.57c.217-.217.454-.408.678-.615-.307.422-.6.853-.906,1.277-.317.212-.647.408-.959.629-.113.08,0,.268.11.187.164-.116.339-.217.506-.331l-.174.245q-.942.593-1.859,1.211ZM2.057,74.159l2.584-2.585q.973-.732,1.983-1.416c.044-.029.088-.055.132-.084-.6.458-1.189.951-1.751,1.438a29.821,29.821,0,0,0-2.214,2.133c-.244.172-.493.338-.734.513m2.1-1.453c-.165.108-.323.226-.487.336.474-.457.957-.9,1.459-1.332,1-.854,2.081-1.59,3.112-2.4.063-.05.025-.13-.034-.159.149-.093.294-.193.445-.285.33-.2.671-.39,1.01-.579-.134.2-.265.4-.4.593-.313.237-.629.47-.937.709-.877.679-1.726,1.393-2.561,2.12-.548.322-1.086.66-1.608,1m3.471-1.94c.262-.21.521-.422.786-.628-.1.143-.193.284-.288.427-.168.06-.333.133-.5.2m7.424-6.243c-.275.127-.036.536.238.407.115-.055.235-.1.35-.152A38.333,38.333,0,0,0,10.024,68.3c.1-.139.205-.276.307-.414.174-.1.354-.2.523-.312a.1.1,0,0,0-.1-.175c-.032.013-.061.03-.092.043.189-.259.385-.514.573-.774.36-.21.719-.422,1.08-.629-.03.06-.066.119-.095.179-.075.158.135.36.262.2.207-.258.392-.535.584-.806q1.076-.607,2.157-1.205a.065.065,0,0,0-.032-.122l.107-.06c.085-.047.009-.178-.077-.132-.595.32-1.183.653-1.77.986.219-.323.437-.644.652-.969.2-.113.4-.222.6-.334-.1.143-.207.288-.315.429s.122.31.238.185.241-.263.361-.394a.059.059,0,0,0,.063,0,20.616,20.616,0,0,1,5.936-2.616,24.212,24.212,0,0,0-3.712,2.2c-.747.3-1.494.61-2.226.949m9.632-4.541q-.944.269-1.863.612c-.4.1-.81.193-1.207.3a24.271,24.271,0,0,0-3.055,1.039c.047-.087.088-.178.133-.265a26.623,26.623,0,0,1,2.927-1.311q1.527-.232,3.067-.374M25.2,58.81a26.506,26.506,0,0,0-4.25,1.327l-.205.03a.116.116,0,0,0-.1.1q-.825.344-1.627.741c.06-.125.123-.249.183-.374,1.193-.513,2.4-.983,3.616-1.465.114-.045.072-.225-.052-.189-.384.111-.765.244-1.145.378.123-.045.243-.1.367-.141.676-.239,1.367-.445,2.049-.67,1.563-.173,3.128-.266,4.7-.3a28.528,28.528,0,0,0-3.532.564m10.416.726c.412.264.815.548,1.221.827-1.432-.648-2.888-1.241-4.357-1.8a.174.174,0,0,0,.03-.155c.315.1.626.219.935.321.663.22,1.321.45,1.979.683l.192.122m-.265-.4a3.61,3.61,0,0,0-1.906-.679c-.006,0-.009,0-.015.006l-.212-.074c.344.022.688.043,1.033.066a14.537,14.537,0,0,1,1.6.867c-.166-.061-.332-.125-.5-.186M53.52,69.676a4.539,4.539,0,0,1-1.9.919.2.2,0,0,0-.091-.218l-.076-.043c.141-.195.294-.379.442-.569.036.012.071.027.107.038.213.067.3-.242.124-.335.042-.051.08-.1.122-.155q.626.209,1.27.363m-3.747-.71c.163.073.326.148.49.216-.1.108-.192.219-.289.328-.16-.084-.321-.166-.482-.247l.282-.3m-.372.255c-.1-.049-.2-.092-.3-.14l.262-.3c.107.05.213.1.32.147q-.139.149-.279.3m2.462.151c-.147-.044-.293-.093-.44-.137.041-.047.076-.1.118-.147.007-.009.017-.018.024-.027.138.055.275.113.415.164l-.117.147m-.741-.23c-.152-.048-.305-.093-.457-.143.053-.055.1-.113.154-.168l.06-.06c.132.063.269.113.4.171-.056.064-.1.135-.16.2m-.433-.441c-.072.078-.14.161-.212.239-.17-.057-.336-.124-.5-.185l.109-.115.191-.2c.145.081.288.165.435.238l-.019.019m-.251.547c.154.061.313.109.469.166-.115.14-.226.284-.339.426-.148-.083-.3-.168-.445-.248.106-.115.209-.231.315-.344m.761.269c.143.05.285.1.43.152-.135.179-.267.359-.4.539-.134-.078-.27-.148-.4-.225.122-.157.245-.314.373-.467m1-.565-.392-.153c.129-.141.257-.284.389-.422.114.063.227.13.341.2-.113.125-.228.25-.337.379m-.272-.719c-.139.148-.276.3-.41.449-.13-.053-.261-.1-.391-.159.153-.154.305-.308.46-.46.114.056.228.111.341.17m-.539-.269c-.152.16-.305.319-.457.481l-.47-.2c.162-.167.322-.336.483-.5.148.071.294.148.444.22m-.56-.278c-.16.173-.32.344-.478.517L50,68.056c.164-.18.329-.358.5-.536.109.059.224.111.335.166m-.974.526,0,0c.1.065.215.115.321.176-.056.059-.11.122-.166.181l-.138.148c-.117-.043-.234-.087-.35-.131.11-.125.219-.253.331-.378m-1.125.262.416.2c-.087.1-.175.2-.262.307-.144-.068-.287-.136-.431-.2.095-.1.182-.208.277-.307M48,70.085c-.153-.1-.313-.195-.468-.294.184-.214.379-.418.568-.626.151.068.3.139.452.209-.188.234-.37.473-.552.712m-.344-1.125c.123.053.245.115.368.17-.182.209-.371.411-.548.624-.184-.116-.365-.236-.551-.347.163-.182.329-.362.5-.54.078.032.158.059.235.093m-.3-.117c-.167.174-.334.348-.5.524-.153-.091-.311-.173-.466-.259.156-.154.31-.31.468-.462.165.066.332.128.5.2M46.383,70.7c-.384-.149-.773-.285-1.158-.43.069-.071.141-.137.212-.209l.24.121c.239.121.478.238.723.346.121.054.247.116.377.172Zm-2.707-.018c-.149-.084-.306-.153-.458-.233a.1.1,0,0,0,.052-.018l.311-.275c.256.091.509.189.765.282-.031.032-.063.063-.094.1-.074.078.043.2.118.118.049-.05.1-.1.149-.148.177.064.354.13.53.2H43.691c-.006-.007-.006-.013-.014-.018m-1.783-1.105.335.11c-.044.042-.087.084-.13.126a.132.132,0,0,0-.038.092c-.112-.047-.226-.09-.341-.134.057-.066.117-.129.174-.195m-.4.1-.051-.019c.052-.061.1-.122.158-.183l.056.019c-.053.062-.109.122-.162.184m1.758-1.6.432.189L42.612,69.31l-.369-.128c.269-.3.523-.614.8-.9.067-.069.136-.133.2-.2m1.02.453c-.1.1-.2.195-.3.3-.224.238-.434.489-.642.74l-.08-.03c-.108-.037-.216-.076-.325-.115L43.983,68.4c.1.042.189.088.285.131m1.062.491c.091.045.177.1.267.145l-.4.407c-.205-.111-.415-.205-.626-.3l.45-.4c.1.049.208.092.31.143m-.449,1.118c.079-.08.161-.16.24-.239l.118.058c-.073.078-.151.152-.225.231l-.134-.05m-.547-.653c.2.122.411.225.622.331-.084.085-.17.17-.253.256-.243-.089-.484-.182-.728-.269l.36-.318m1.025.175.405-.4.1.056c-.133.136-.267.271-.4.408l-.11-.059m-1.038-.5,0,0c-.11-.039-.174.06-.162.152l-.44.394c-.063-.022-.126-.047-.19-.071.2-.238.4-.473.611-.7.1-.111.22-.211.328-.318.1.046.2.095.306.142Zm-1.775.626c.159.052.318.1.475.158-.074.095-.146.192-.218.288-.16-.077-.317-.159-.479-.23l.222-.215m.67.228c.037.013.072.028.109.04-.074.068-.149.135-.225.2a.1.1,0,0,0-.023.115l-.1-.049c.078-.1.155-.206.235-.307m2.589-.115-.136-.074c.135-.135.272-.268.408-.4.161.087.325.169.482.261-.127.141-.266.271-.392.413-.121-.065-.24-.134-.363-.2m.376-.912-.1-.052c.145-.142.285-.289.431-.431l.1.039c-.146.147-.288.3-.432.444m.141-.559c-.138.135-.272.277-.409.414-.135-.071-.267-.15-.405-.219-.043-.022-.088-.042-.132-.064l.116-.1.278-.247c.186.07.367.147.552.218m-.833-.316-.148.133-.216.195c-.109-.051-.214-.1-.324-.151.106-.1.205-.2.311-.3.127.04.252.082.377.124m-.607-.2c-.1.094-.19.193-.288.289-.094-.041-.187-.083-.282-.122l.283-.272c.1.033.189.073.287.1m-1.045-.42c.011.013.017.03.034.039.128.061.268.1.4.154L44,67.959c-.152-.058-.3-.118-.458-.169.1-.1.2-.2.3-.3m-1.7,1.362c.28-.3.575-.593.864-.889l.017.007c-.036.037-.074.072-.109.109-.315.326-.6.677-.9,1.016l-.062-.021c.066-.072.127-.15.193-.223m-.728.557c-.049.058-.1.116-.148.174-.042-.014-.08-.034-.122-.047-.179-.059-.361-.115-.543-.17.06-.062.123-.122.185-.184.208.077.417.155.628.226m-.711-.257c-.061.064-.125.125-.186.189-.13-.038-.262-.071-.393-.1l.205-.234c.124.051.248.1.374.149m-1.062-.485a.1.1,0,0,0,.046.052c.062.031.127.054.19.084q-.131.157-.261.316c-.094-.019-.188-.036-.283-.053.1-.133.2-.266.307-.4m-.246.727c-.095.117-.182.24-.275.359-.079-.032-.156-.071-.236-.1.08-.106.162-.21.242-.315l.268.058m-.7.508c.081.03.161.067.241.1l-.042.054c-.09-.019-.181-.037-.271-.058.023-.032.047-.062.071-.093m-.186.79h-.421c.1-.13.2-.259.3-.39l.259.078c-.043.059-.09.114-.132.173a.123.123,0,0,0,0,.139m.528-.195c.266.072.534.135.8.195h-.971l.168-.195m1.24.044c.123.052.249.1.372.151h-.453a.233.233,0,0,0,.081-.151m.846.151c-.523-.274-1.056-.525-1.6-.763.122-.141.242-.282.365-.423.125.028.248.064.373.094-.056.059-.116.114-.172.174-.032.034.019.085.052.051.066-.07.137-.135.2-.2.226.056.455.1.678.17l.048.017c-.076.093-.158.18-.233.273s.055.219.128.128c.094-.115.2-.223.291-.336l.049.017c-.084.1-.175.19-.258.29s.07.279.164.163.224-.245.33-.371c.385.13.766.271,1.141.428-.073.1-.151.192-.222.292Zm1.749-.212c.161.07.323.137.482.212H42.7c.053-.072.109-.141.162-.212m4.3.212a4.4,4.4,0,0,0-.623-.4c-.092-.054-.187-.1-.281-.153.122-.142.257-.274.381-.415.19.111.374.235.561.352-.013.016-.027.029-.039.045s.017.07.041.041.033-.035.048-.054c.166.1.335.2.5.312-.081.115.11.225.195.111l.031-.039a.215.215,0,0,0,.14-.18c.216-.286.435-.57.662-.846.093.044.187.084.278.129l-.584.622c-.039.041.022.1.061.062l.61-.644c.171.082.341.16.509.244-.238.273-.483.537-.717.813Zm2.768,0h-.811c.221-.25.452-.49.675-.737.163.082.322.172.483.256-.109.143-.229.277-.335.422-.015.02-.009.039-.012.058m.751,0h-.418c.086-.118.186-.226.274-.343.188.1.379.2.566.3-.141.013-.277.043-.422.043m4.072-.124.977-2.485a5.4,5.4,0,0,0-1.166-5.752.157.157,0,0,0,.091-.035c.971-.918,1.812-2.01,2.7-3.012q1.377-1.56,2.747-3.123,2.708-3.086,5.374-6.2c.226-.264-.152-.65-.384-.385q-2.743,3.13-5.453,6.29Q58.313,57.4,57,58.945c-.878,1.032-1.849,2.033-2.631,3.14-.015.02-.009.039-.013.059a5.472,5.472,0,0,0-1.036-.759c.743-.9,1.421-1.87,2.134-2.795q1.336-1.736,2.694-3.455c1.726-2.177,3.467-4.343,5.248-6.476.235-.28-.167-.688-.4-.4-1.78,2.118-3.528,4.262-5.211,6.457q-1.25,1.63-2.466,3.285c-.775,1.061-1.606,2.115-2.308,3.229a5.379,5.379,0,0,0-2.334-.535h-11.7l-.4-.364A15.611,15.611,0,0,0,28,56.224a22.406,22.406,0,0,0-3.644.309c.21-.28.428-.554.66-.817a8.883,8.883,0,0,1,1.656-1.47c.221-.15.02-.508-.212-.363a9.236,9.236,0,0,0-1.811,1.465,6.926,6.926,0,0,0-.734.9,3.438,3.438,0,0,0-.224.4q-.76.149-1.508.351c.209-.327.414-.653.649-.965a12.68,12.68,0,0,1,2.231-2.273c.223-.177-.066-.545-.3-.392a9.093,9.093,0,0,0-1.007.758,12.205,12.205,0,0,0-.075-1.872,3.313,3.313,0,0,1,.574-.4c.074.41.147.82.2,1.234.009.071.122.076.116,0-.029-.444-.086-.884-.149-1.322.022-.01.042-.024.065-.034.264-.112.108-.531-.151-.51-.1-.546-.219-1.086-.364-1.619a1.719,1.719,0,0,1,.92-.5,10.933,10.933,0,0,1,.374,1.923c.008.083.134.085.131,0a8.907,8.907,0,0,0-.327-2.062.134.134,0,0,0-.032-.133,8.765,8.765,0,0,0-.65-1.591c.323-.3.649-.592.978-.886.174-.157-.049-.432-.246-.319a9.134,9.134,0,0,0-1.013.688c-.025-.042-.044-.087-.07-.129a9.3,9.3,0,0,1,3.578-1.558l8.166-1.622c.161-.032.322-.07.48-.112l.938-.255.564.8a8.509,8.509,0,0,0,.564.706.123.123,0,0,0,.007.122,7.608,7.608,0,0,0,1.495,1.769,5.767,5.767,0,0,0,.926.687c.1.057.214.1.32.148a3.9,3.9,0,0,0,.63.469c-.247-.1-.495-.205-.734-.325A8.68,8.68,0,0,1,38.75,45.85c-.1-.116-.2-.235-.3-.356a1.447,1.447,0,0,0-.3-.345c-.052-.033-.106.021-.1.073a.52.52,0,0,0,.045.1.107.107,0,0,0-.036.169c.129.139.274.263.411.394.027.038.054.077.082.114.047.061.1.114.15.174-.482-.426-.958-.856-1.4-1.324-.064-.068-.168.035-.1.1a15.767,15.767,0,0,0,1.927,1.73c.006,0,.009,0,.015,0l.032.038a7.32,7.32,0,0,0,.688.637,8.061,8.061,0,0,0,.8.534c.075.046.17-.069.1-.125-.247-.191-.473-.4-.7-.61l-.058-.054a9.294,9.294,0,0,0,.86.495,5.331,5.331,0,0,0,1.083.436.093.093,0,0,0,.108-.109c.042.02.081.046.123.066a7.819,7.819,0,0,0,2.689.621.084.084,0,0,0,.022-.164,15.391,15.391,0,0,1-2.552-.663,4.371,4.371,0,0,1-.457-.239.068.068,0,0,0-.031-.085c-.19-.095-.361-.216-.538-.327-.063-.055-.119-.115-.177-.174a7.506,7.506,0,0,0,1.485.7c.054.019.075-.065.023-.084a7.483,7.483,0,0,1-1.8-.965c-.028-.039-.056-.078-.083-.118a8.9,8.9,0,0,0,2.395.881,11.273,11.273,0,0,0,3.934.887c.047,0,.045-.069,0-.072a16.332,16.332,0,0,1-2.272-.339,12.591,12.591,0,0,1-1.344-.418,8.218,8.218,0,0,0,2.579.084,5.452,5.452,0,0,0,.846.146,4.327,4.327,0,0,0,1.442-.085.047.047,0,0,0-.013-.092,7.46,7.46,0,0,1-1.4.016c-.128-.015-.253-.047-.38-.071a8.839,8.839,0,0,0,5.7-3.591v0c.116.046.229.1.344.145-.034.053-.068.106-.1.154-.158.229-.305.468-.457.7-.285.438-.576.873-.856,1.315-.578.911-1.14,1.836-1.671,2.776-.094.165.143.3.251.146.633-.877,1.24-1.776,1.827-2.684.283-.439.557-.884.836-1.327.148-.236.3-.469.445-.708.04-.066.084-.135.126-.2l.557.234a.144.144,0,0,0,.109.137l.1.028c-1.049,1.357-2.1,2.716-3.068,4.133-.076.111.1.248.187.145,1.151-1.34,2.218-2.751,3.287-4.16l.188.055.1.045c-.492.7-.985,1.406-1.468,2.116q-.519.766-1.036,1.532a12.016,12.016,0,0,0-1,1.623c-.062.135.1.286.215.167a11.965,11.965,0,0,0,1.15-1.507q.53-.757,1.057-1.519c.511-.735,1.01-1.479,1.51-2.221l.366.169L53.769,47.1a37.93,37.93,0,0,0-2.19,3.127c-.058.1.082.211.16.122a38.008,38.008,0,0,0,2.323-3.008q.753-1.036,1.507-2.072c.244.115.493.216.739.324-.623.73-1.232,1.473-1.809,2.241a18.19,18.19,0,0,0-2.206,3.421c-.045.1.085.236.171.132.831-1.01,1.512-2.147,2.285-3.2.612-.836,1.262-1.641,1.93-2.432.1.039.19.087.289.123.149.057.235-.173.107-.251-.064-.039-.135-.067-.2-.1l.049-.059c.019.006.038.011.058.017.241.074.482.153.722.232-.421.5-.85.984-1.26,1.488-.393.485-.787.973-1.167,1.469-.411.534-.842,1.07-1.215,1.633-.1.15.122.312.245.189.455-.45.859-.952,1.292-1.423s.864-1.006,1.283-1.515c.454-.549.889-1.113,1.331-1.672l.554.182q-2.245,2.909-4.511,5.8c-.109.14.077.34.2.2,1.671-1.889,3.23-3.852,4.736-5.868.254.079.51.151.766.219.065.028.132.053.2.082-.66.762-1.32,1.522-1.975,2.288-1.049,1.228-2.126,2.454-3.094,3.748-.115.154.132.335.262.2,1.137-1.157,2.187-2.412,3.248-3.64.683-.791,1.359-1.588,2.037-2.383.246.116.489.239.731.365-1.369,1.591-2.7,3.212-4.024,4.843-.766.947-1.505,1.917-2.253,2.878a31.417,31.417,0,0,0-2.159,2.857.12.12,0,0,0,.187.145A36.209,36.209,0,0,0,55.438,55c.771-.94,1.556-1.868,2.322-2.811,1.331-1.638,2.674-3.268,3.994-4.914.289.157.579.346.879.5-1.391,1.513-2.762,3.042-4.1,4.6a65.446,65.446,0,0,0-4.123,5.1c-.1.149.128.324.251.193,1.5-1.6,2.878-3.336,4.3-5Q61,50.3,63.076,47.964a.131.131,0,0,0,.129-.148c.035-.039.07-.079.1-.119.191-.214-.12-.532-.317-.317-.038.041-.073.084-.111.125a7.74,7.74,0,0,0-.9-.509c.082-.1.166-.2.248-.307a12.759,12.759,0,0,1,1.175.754c.391.282.746.611,1.14.884a.1.1,0,0,0,.137-.019c.05.063.108.122.158.186.29.371.543.77.842,1.133.1.122.276-.034.211-.163-.057-.112-.131-.215-.2-.322a.068.068,0,0,0,.006-.075c-.192-.37-.423-.712-.645-1.063a4.935,4.935,0,0,0-.848-.928,8.48,8.48,0,0,0-.958-.759,7.059,7.059,0,0,0,.841.355.1.1,0,0,0,.122-.058l.014.006a.167.167,0,0,0,.006.239,12.66,12.66,0,0,1,1.653,1.95,17.176,17.176,0,0,1,.914,1.512.227.227,0,0,0-.122.072c-3.536,4.038-7.145,8.036-10.5,12.227-.068.085.044.206.123.123,3.711-3.865,7.2-7.956,10.735-11.979.04.079.087.155.124.235.06.128.284.036.232-.1-.156-.4-.328-.8-.508-1.2a7.712,7.712,0,0,0-.687-1.117,13.2,13.2,0,0,0-1.389-1.669l.015.008c.438.232.872.475,1.31.708A31.733,31.733,0,0,1,68,50.85s0,.007,0,.01c.215.389.413.788.588,1.2s.319.855.482,1.281c0,.013.016.011.026.014.012.07.032.137.043.207.132.805.191,1.609.251,2.422a.116.116,0,0,0,.232,0,10.335,10.335,0,0,0-.32-3.586q.157.527.274,1.066c.093.434.172.875.239,1.318a.137.137,0,0,0-.1.161,9.019,9.019,0,0,1,.155,1.292c.009.214.011.43.007.644a3.2,3.2,0,0,0,0,.625.09.09,0,0,0,.084.079V62.99c-.765.5-1.518,1.022-2.251,1.57-.118.088,0,.289.117.2.249-.182.509-.343.761-.521a27.225,27.225,0,0,1-11.238,5.71Zm16.753-7.3c.163-.114.335-.214.5-.325-.084.136-.158.278-.238.417q-.661.443-1.323.88c-.173.085-.341.179-.513.267A18.522,18.522,0,0,1,71.5,63.276m.058.449c-.153.069-.3.142-.455.212.175-.112.351-.226.526-.338-.023.042-.049.083-.071.125M74,61.873q-.8.53-1.593,1.064.146-.219.29-.439c.156-.1.311-.2.469-.294.278-.11.552-.23.833-.331m-1.4.137c-.055.084-.109.172-.164.257l-.127.055c-.323.141-.637.3-.956.452.095-.1.193-.194.286-.3l.369-.4c.214-.121.42-.256.637-.373.082-.045.167-.08.249-.123-.1.144-.2.285-.294.431m1.665-1.468c-.171.085-.339.173-.508.259.007-.014.017-.028.025-.042.189-.12.381-.235.573-.354l-.09.136m.654-1c-.08.135-.169.263-.256.392q-.308.193-.613.392l.024-.039c.084-.136-.123-.253-.212-.124-.121.174-.238.351-.358.525-.2.136-.4.276-.6.415l.9-.976c.388-.22.778-.435,1.167-.653-.014.023-.03.045-.044.068m-.669.089.7-.761a.158.158,0,0,0,.266.1c.058-.06.122-.109.181-.168-.074.113-.147.228-.22.343-.308.161-.616.326-.925.489M79.767,56.3q-1.687.873-3.372,1.748c.038-.063.075-.125.111-.188a10.5,10.5,0,0,1,2.528-1.371c.085-.032.053-.167-.038-.14a9.238,9.238,0,0,0-2.169.965c.123-.225.24-.453.359-.68l0,0c.169-.106.341-.2.512-.3a.091.091,0,0,0,.1-.011c.084-.062.165-.131.249-.195.073-.042.145-.087.217-.129-.089.131-.182.259-.264.393a.142.142,0,0,0,.222.171,11.821,11.821,0,0,0,1.022-1.126l.086-.049c.032-.016.061-.034.093-.05v0l.066-.038c.288-.134.577-.266.862-.405.1-.051.21-.1.315-.147-.32.51-.624,1.03-.9,1.563m1.292-2.162c-.281.136-.56.275-.839.412-.165.082-.321.174-.483.261l.019-.024c.457-.365.915-.73,1.392-1.072.118-.084.24-.161.359-.245-.155.219-.3.444-.448.668m3.563-2.694.081-.051a.176.176,0,0,0,.088-.175,5.294,5.294,0,0,1,.831-.019.142.142,0,0,0,.152-.123,4.617,4.617,0,0,1,.555.223c.05.031.1.058.152.091a5.373,5.373,0,0,1,.692.562,5.5,5.5,0,0,0-2.552-.508m1.1.642A3.251,3.251,0,0,1,86.861,54a7.293,7.293,0,0,1,.268,2.567,7.784,7.784,0,0,1-.431,2.055,9.717,9.717,0,0,0,.112-1.573c.007-.015.013-.029.019-.045a.1.1,0,0,0-.021-.109c-.007-.322-.025-.641-.053-.946a12.059,12.059,0,0,0-1.031-3.867m-.405,2.172a11.071,11.071,0,0,1,.554,2.1c-.114.237-.246.462-.366.7a11.588,11.588,0,0,0-.188-2.8m-.485,5.974a9.89,9.89,0,0,0,.572-2.2c.188-.372.372-.747.546-1.128,0,.056.019.11.024.166a7.378,7.378,0,0,1-.032,1.325,26.906,26.906,0,0,1-4.971,6.524c-.2.21-.412.413-.617.621.191-.23.391-.455.579-.688a40.023,40.023,0,0,0,3.924-5.775q-.1.554-.229,1.1a.105.105,0,0,0,.2.056M72.376,73.05c.047-.024.1-.045.143-.07l-.079.09-.3.351c-.327.147-.652.3-.982.435.077-.09.152-.182.227-.273q.494-.271.993-.534m-2.845,1.745c.16-.061.318-.127.477-.189l-.182.225-.809.306.275-.248.239-.094m-2.187,1.222c-.122.1-.253.192-.373.3l-.171.064c-.2.075-.411.143-.622.213.067-.06.125-.126.191-.187.33-.112.656-.263.974-.387m-2.877,1.711.008,0c-.127.131-.255.261-.379.394l-.026.007.4-.4m-.911.924.188-.191.076-.021c-.146.163-.281.335-.423.5l-.143.024.3-.313m-.454.64c-.092.11-.187.219-.278.33l-.212.008.29-.3.2-.038m-1.167,1.039.478-.5c.083,0,.164-.013.247-.018-.107.131-.221.254-.326.386-.133.045-.266.084-.4.127m.919-.318c.066-.076.137-.148.2-.224.138-.009.276-.018.413-.029l-.039.04c-.192.071-.383.144-.577.212M66.5,78.474a3.373,3.373,0,0,0-.612,0c.207-.268.413-.535.631-.793.392-.1.783-.192,1.177-.279L67,78.229c-.166.085-.336.162-.5.245m1.279-.666.441-.521c.253-.054.507-.11.761-.161l0,0c-.393.238-.8.458-1.2.679m2.174-1.3q.494-.554.991-1.105c.148-.044.293-.094.44-.137-.127.181-.261.357-.386.54-.342.243-.693.473-1.045.7m6.12-5.129a33.194,33.194,0,0,1-4.345,3.882c.508-.7,1.034-1.394,1.588-2.061.046-.021.093-.039.138-.06a.115.115,0,0,0,.052-.171c.249-.292.509-.572.768-.854.121-.057.238-.121.36-.177a.153.153,0,0,0,.071-.223c.28-.243.553-.5.817-.765-.552.625-1.09,1.264-1.614,1.9-.041.049.028.122.071.071.658-.754,1.34-1.487,2.025-2.217s1.4-1.429,2.089-2.162a.076.076,0,0,0-.108-.108q-.558.494-1.085,1.025c.222-.251.444-.5.664-.74l.017-.018c.853-.688,1.7-1.387,2.534-2.086L81.88,65.15Zm12.18-13.443c.125-.175.257-.346.379-.523.021-.032-.029-.059-.05-.03-.1.146-.212.284-.316.428q.039-.362.047-.723c.048-.122.1-.242.134-.367a.07.07,0,0,0,.063-.054c0-.017.006-.034.01-.051h0a2.089,2.089,0,0,0,.146-.495.056.056,0,0,0,.058-.054,3.879,3.879,0,0,0-.064-1.013c-.014-.283-.038-.566-.08-.846a.121.121,0,0,0-.185-.088,5.073,5.073,0,0,0-.249-.527.137.137,0,0,0-.22-.027,6.047,6.047,0,0,0-.289-.891c.095.059.191.115.282.18.061.094.127.186.181.284a.116.116,0,0,0,.193.02c.076.066.151.131.224.2a4.7,4.7,0,0,1,.538,1.776,4.635,4.635,0,0,1-.867,3.185c.023-.129.045-.257.062-.386" transform="translate(0 0)" fill="#7db1c7"/>
    <path id="Path_3185" data-name="Path 3185" d="M49.925,31.53a2.27,2.27,0,0,1-3.211,0,.423.423,0,0,0-.6,0,.422.422,0,0,0-.123.3.417.417,0,0,0,.123.3,3.2,3.2,0,0,0,4.4,0,.425.425,0,0,0,0-.595.43.43,0,0,0-.595,0" transform="translate(-3.317 -2.265)" fill="#7db1c7"/>
    <path id="Path_3186" data-name="Path 3186" d="M45.178,87.912h-.955l.385-.392a.029.029,0,0,0-.042-.041l-.441.432h-.688c.684-.645,1.365-1.3,1.987-2a.08.08,0,0,0-.112-.113c-.676.553-1.307,1.161-1.933,1.773-.15-.047-.3-.1-.446-.149l.691-.61c.418-.369.852-.73,1.238-1.134.059-.062-.021-.181-.1-.125-.45.332-.863.714-1.283,1.082l-.8.7c-.14-.046-.281-.093-.421-.141.666-.6,1.333-1.192,1.959-1.828.06-.061-.028-.143-.093-.093-.728.582-1.42,1.212-2.113,1.838q-.587-.2-1.172-.418c.772-.611,1.536-1.232,2.259-1.9.074-.069-.024-.2-.109-.142-.859.6-1.68,1.25-2.491,1.913l-.242-.089,1.083-.949a8.156,8.156,0,0,0,1.127-1.093c.1-.128-.089-.288-.213-.212a7.237,7.237,0,0,0-1.087.885l-1.069.971-.266.242-.023-.008c-.258-.1-.511-.211-.767-.315.152-.136.3-.277.454-.41.868-.746,1.816-1.4,2.675-2.156.136-.119-.037-.328-.188-.244a16.928,16.928,0,0,0-2.746,2.075c-.21.183-.409.376-.615.563-.233-.1-.469-.19-.7-.29.056-.045.109-.094.165-.138a7.4,7.4,0,0,0,1.193-1c.07-.085.008-.251-.12-.206a4.69,4.69,0,0,0-1.27.839c-.132.1-.251.222-.38.33l-.5-.212c.681-.592,1.4-1.135,2.106-1.7.082-.064-.023-.2-.109-.142A16.354,16.354,0,0,0,36.8,85.057c-.164-.07-.328-.142-.494-.21-.1-.043-.17.125-.075.179.125.07.26.126.387.194l-.153.136c-.335.3-.651.622-.965.944a.118.118,0,0,0-.095.092c-.058.06-.119.119-.176.18-.218-.058-.436-.114-.656-.165.174-.206.348-.413.536-.608a16.946,16.946,0,0,1,1.678-1.48c.042-.032-.012-.1-.057-.073a11.076,11.076,0,0,0-2.332,2.124c-.156-.034-.313-.068-.469-.1q.189-.193.38-.385l.7-.711a4.628,4.628,0,0,0,.681-.758.073.073,0,0,0-.1-.1,4.491,4.491,0,0,0-.73.669l-.721.732-.489.5c-.135-.025-.271-.044-.405-.066.639-.635,1.275-1.273,1.892-1.928a.083.083,0,0,0-.118-.118c-.7.652-1.377,1.324-2.052,2-.163-.024-.328-.044-.492-.062l.264-.251a12.075,12.075,0,0,0,1.006-.979c.072-.086-.026-.251-.132-.171a11.54,11.54,0,0,0-.96.9l-.485.469c-.095-.009-.189-.023-.284-.031-.02,0-.032.011-.046.017-.359-.137-.716-.277-1.078-.4a.121.121,0,0,0-.093.219c.38.192.779.352,1.178.51l-.2.194-.416.4c-.433-.074-.875-.144-1.32-.2.209-.236.419-.47.613-.717.061-.078-.036-.185-.113-.112-.269.253-.522.525-.776.8a10.479,10.479,0,0,0-1.717-.062c-.126.007-.173.215-.032.235.478.067.956.115,1.434.163l-.538.6a6.54,6.54,0,0,0-1.331.121c.112-.134.232-.261.342-.394.059-.071-.034-.17-.1-.1-.192.19-.374.389-.561.583a4.567,4.567,0,0,0-.624.218.079.079,0,0,0-.088.026c-.008.008-.015.018-.023.027-.118.055-.238.1-.353.167a.1.1,0,0,0,.058.178c-.026.031-.051.061-.078.092-.228.093-.461.175-.681.287-.172.086-.367.18-.554.285.368-.445.753-.878,1.161-1.291.083-.084-.042-.206-.128-.128A17.694,17.694,0,0,0,22.5,91.6c-.18.3-.346.6-.509.9a.565.565,0,0,0-.053.027.038.038,0,0,0-.009.058l-.135.075a6.759,6.759,0,0,0-1.074.64.1.1,0,0,0,.1.17,5.055,5.055,0,0,0,.933-.511c-.154.306-.307.613-.444.926l-.006.015-.174.117a1.962,1.962,0,0,0-.392.291c-.05.055,0,.161.077.134a1.809,1.809,0,0,0,.366-.2l-.006.014-.251.726-.006.007a.056.056,0,0,0-.016.059l-.083.238a.591.591,0,0,0,.1-.041l-.034.034a.423.423,0,0,0,0,.594.429.429,0,0,0,.595,0L28.6,88.754H45.178a.421.421,0,0,0,0-.842m-1.995-.149-.155.149h-.521c-.028-.013-.054-.029-.082-.043l.286-.251c.157.047.315.1.471.145m-.73-.224-.251.221s0,.008-.006.012c-.134-.055-.269-.106-.407-.15.079-.071.158-.143.238-.213.142.045.285.087.427.131m-.912,0c-.2-.058-.407-.108-.612-.155l.259-.205c.017-.014.008-.03,0-.045.2.066.391.132.586.195l-.234.211m-.41-.425h-.009l-.309.245c-.214-.048-.429-.094-.642-.138l.39-.306c.19.067.379.136.571.2m-1.331.026-.024-.006c-.072-.016-.145-.03-.217-.046.143-.125.287-.249.43-.375.077.029.155.054.232.082l-.42.345M39,87.8l-.175-.064c.035-.033.076-.073.109-.1.065-.056.129-.114.195-.17l.214.052L39,87.8m-2.172-.225c-.3-.075-.606-.157-.907-.238.03-.03.06-.058.091-.087.3.075.607.15.909.232l-.093.094m-1.807.3c-.168-.057-.34-.1-.508-.155.1-.122.213-.241.319-.363.168.051.336.107.5.157-.1.121-.212.238-.315.361m-3.566.037q-.4-.068-.817-.13c.184-.175.368-.35.552-.523.109.018.219.031.328.052.068.013.134.032.2.045l-.2.2a.105.105,0,0,0,.148.148l.3-.291c.686.142,1.364.311,2.038.5Zm2.284-.427c.09-.132.188-.256.283-.384.191.063.384.122.576.182-.106.122-.218.24-.321.366-.18-.055-.358-.112-.538-.163m-.168-.051c-.212-.058-.426-.106-.64-.159l.4-.405.356.125c.056.019.114.034.171.054-.1.128-.2.254-.288.385m-.482-.65-.394.4c-.011.011-.008.024-.014.037-.142-.033-.284-.064-.427-.095l.475-.469.36.127m1.969.313.06-.068.528.127-.077.089c-.171-.047-.341-.1-.511-.148m1.319-.2.108-.1c.294.08.587.162.881.238l-.137.139q-.424-.142-.852-.274m1.44.248c.293.074.587.145.881.216l-.181.168c-.02.019-.046.047-.069.07q-.4-.145-.8-.284l.171-.17m1.754-.584-.475.431c-.309-.067-.618-.134-.928-.2.2-.192.408-.375.613-.561.264.109.523.225.79.327m-1.206-.5c-.224.209-.447.419-.666.634-.309-.062-.621-.117-.931-.175.051-.046.1-.1.148-.142.244-.218.5-.422.752-.629.231.109.464.212.7.313m-1.8-.535c.078-.073.163-.135.242-.206q.235.121.474.238c-.191.168-.39.328-.575.5-.131.122-.25.253-.376.38-.188-.034-.375-.072-.564-.106.264-.272.525-.546.8-.806m-1.007,1.017c.175.049.352.094.527.143-.032.033-.066.065-.1.1-.174-.05-.346-.1-.521-.149.029-.032.061-.061.091-.092m-.69.429-.047.054c-.2-.061-.407-.122-.611-.187,0-.006.007-.011.012-.016l.646.148m-.82-.182c-.03-.01-.061-.019-.091-.028l.1.021,0,.006M31.775,86.7l.3-.284c.141.055.281.1.423.156L32,87.071c-.154-.031-.306-.074-.461-.1l-.04-.006c.091-.085.183-.172.273-.258m-.858.51c-.181.176-.364.352-.545.527-.429-.058-.863-.1-1.3-.113.179-.192.359-.384.536-.577q.653.067,1.3.163m-3.5.874c-.118.027-.235.059-.352.091l.019-.02c.11-.024.222-.052.333-.071m-.948.238c.085-.027.17-.059.255-.084-.01.012-.021.022-.032.033-.054.018-.111.025-.165.043-.027.009-.051.023-.077.032l.019-.025m-1.035,1.318q.392-.5.782-1c.071-.027.136-.063.208-.089-.325.352-.643.71-.958,1.069l-.032.017m-.989-.1c.3-.149.579-.356.871-.509.14-.073.29-.121.433-.187-.316.372-.628.747-.932,1.13a12.066,12.066,0,0,0-1.236.8c-.05.039,0,.125.051.088.339-.227.676-.454,1.019-.673q-.589.754-1.152,1.531l-.591.327-.282.157c.328-.565.673-1.121,1.049-1.653.245-.346.508-.677.769-1.01m-2.317,4.5-.138.1c.22-.3.446-.6.673-.894l.76-.507Zm.277-.866q-.228.153-.458.3c.059-.121.108-.247.17-.366.1-.188.209-.369.312-.555L23,92.216l.246-.148c-.243.341-.486.682-.724,1.028l-.123.081m-.625.664.44-.292c-.181.267-.366.533-.545.8-.009.014,0,.024,0,.036-.078.06-.153.123-.231.185.1-.248.224-.486.337-.729m2.356-1.806s-.007,0-.011,0l-1.069.708c.347-.4.7-.8,1.056-1.193l1.109-.665a.051.051,0,0,0-.051-.087l-.767.424c.521-.584,1.029-1.177,1.549-1.761.219-.114.431-.241.654-.346.018-.007,0-.032-.015-.025-.176.077-.352.161-.528.243.267-.3.53-.609.794-.914.148-.045.3-.079.446-.116a12.438,12.438,0,0,0-1.449,2.013Zm3.3-3.764c.2-.045.392-.095.593-.127L26.36,89.806c.335-.513.688-1.011,1.072-1.494.01-.014,0-.027,0-.041m7.9-.359c.1-.108.219-.206.326-.313.349.1.7.2,1.05.286a.229.229,0,0,0,.008.027Zm1.722,0c.1-.106.209-.205.312-.31.271.077.54.165.81.249a.766.766,0,0,1-.077.061Zm3.09,0h-.845l.4-.313.637.146-.192.152c-.006,0,0,.01,0,.015m.308-.141c.207.047.414.1.621.141h-.8l.178-.141" transform="translate(-1.492 -5.999)" fill="#7db1c7"/>
    <path id="Path_3187" data-name="Path 3187" d="M55.829,88.152a.542.542,0,0,0-.383.925.567.567,0,0,0,.769,0,.552.552,0,0,0,.156-.38.542.542,0,0,0-.158-.382.549.549,0,0,0-.384-.16" transform="translate(-3.988 -6.358)" fill="#7db1c7"/>
    <path id="Path_3188" data-name="Path 3188" d="M29.156,89.226l-.331.33c-.042.043.023.109.065.066l.331-.33c.043-.043-.024-.109-.065-.066" transform="translate(-2.078 -6.435)" fill="#7db1c7"/>
    <path id="Path_3189" data-name="Path 3189" d="M63.285,66.494c2.757-3.039,5.239-6.344,7.695-9.626.241-.321-.3-.632-.538-.315C68,59.82,65.423,62.993,63.017,66.287c-.114.157.139.349.268.207" transform="translate(-4.543 -4.07)" fill="#7db1c7"/>
    <path id="Path_3190" data-name="Path 3190" d="M70.644,59.008c-3.039,3.747-6.144,7.481-8.973,11.39-.087.12.106.267.205.158C65.1,66.994,68.084,63.2,71.1,59.465c.259-.32-.194-.779-.456-.457" transform="translate(-4.447 -4.248)" fill="#7db1c7"/>
    <path id="Path_3191" data-name="Path 3191" d="M68.563,66.213q1.9-2.322,3.789-4.65c.276-.338-.206-.823-.482-.482q-1.917,2.367-3.83,4.739c-.6.74-1.173,1.49-1.752,2.243-.632.82-1.332,1.614-1.884,2.491a.167.167,0,0,0,.262.2c.7-.679,1.3-1.474,1.936-2.219.655-.774,1.318-1.539,1.961-2.324" transform="translate(-4.643 -4.397)" fill="#7db1c7"/>
    <path id="Path_3192" data-name="Path 3192" d="M72.7,63.645c.264-.414-.4-.8-.657-.384C71.2,64.6,70.3,65.89,69.374,67.17s-1.9,2.5-2.822,3.774c-.148.2.17.432.341.264A33.563,33.563,0,0,0,69.97,67.6c.97-1.273,1.868-2.6,2.728-3.954" transform="translate(-4.797 -4.55)" fill="#7db1c7"/>
    <path id="Path_3193" data-name="Path 3193" d="M72.926,65.707q-.376.505-.768,1c-.259.324-.547.631-.8.963-.124.166-.235.336-.369.5s-.263.311-.4.465c-.282.326-.572.645-.852.971a.134.134,0,0,0,.189.19c.325-.284.63-.585.932-.893.149-.153.3-.308.446-.464s.312-.3.459-.451c.286-.3.539-.643.8-.968q.411-.518.8-1.049c.2-.267-.25-.523-.444-.26" transform="translate(-5.028 -4.731)" fill="#7db1c7"/>
    <path id="Path_3194" data-name="Path 3194" d="M91.294,65.9a.046.046,0,0,0,0,.093.046.046,0,0,0,0-.093" transform="translate(-6.581 -4.753)" fill="#7db1c7"/>
    <path id="Path_3195" data-name="Path 3195" d="M73.036,59.931c.027.109.209.089.2-.027a13.552,13.552,0,0,0-1.146-4.253c-.05-.116-.246-.033-.205.087.236.684.452,1.38.639,2.079s.337,1.409.512,2.114" transform="translate(-5.184 -4.01)" fill="#7db1c7"/>
    <path id="Path_3196" data-name="Path 3196" d="M73.975,60.3a.065.065,0,0,0,.131,0,8.571,8.571,0,0,0-.688-3.257,12.835,12.835,0,0,0-.507-1.638c-.059-.15-.305-.084-.245.068a14.64,14.64,0,0,1,.949,4.742.065.065,0,0,0,.131,0,10.585,10.585,0,0,0-.108-2.03c.016.067.038.133.053.2.138.634.2,1.272.283,1.914" transform="translate(-5.24 -3.99)" fill="#7db1c7"/>
    <path id="Path_3197" data-name="Path 3197" d="M74.025,64.836c-.053-.143-.283-.082-.231.063a6.865,6.865,0,0,1,.3,1.1c.069.373.1.75.154,1.124.015.1.155.063.163-.022a4,4,0,0,0-.078-1.146,6.887,6.887,0,0,0-.31-1.118" transform="translate(-5.322 -4.671)" fill="#7db1c7"/>
    <path id="Path_3198" data-name="Path 3198" d="M73.263,56.091a25.227,25.227,0,0,1,.769,2.539.09.09,0,0,0,.069.062c.126.908.228,1.82.285,2.734.014.216.017.433.025.65a.089.089,0,0,0-.049,0c-.028-.386-.048-.772-.09-1.157-.019-.184-.31-.186-.289,0q.1.967.146,1.94c.027.647-.008,1.3.049,1.946a.115.115,0,0,0,.188.088c0,.092,0,.183,0,.274v.014a2.416,2.416,0,0,0,.01.567c0,.154,0,.309.008.463a.072.072,0,0,0,.145,0c.012-.094.009-.189.016-.284,0,0,.007,0,.008,0s.009-.039.018-.058c-.009.114-.018.229-.025.344-.006.019-.012.036-.017.055a.081.081,0,0,0,.016.077,2.386,2.386,0,0,0,0,.282c.007.091.151.126.172.023a3.019,3.019,0,0,0,.046-.442,2.78,2.78,0,0,0,.3-.99,3.16,3.16,0,0,0-.1-1.178c0-.017-.016-.023-.025-.033.019-.117.035-.234.044-.35.017-.266.022-.534.021-.8a14.227,14.227,0,0,0-.1-1.6c-.017-.14-.238-.143-.225,0q-.145-1.635-.431-3.255a.1.1,0,0,0-.138-.079,10.616,10.616,0,0,0-.518-1.958c-.158-.413-.333-.82-.526-1.218a4.083,4.083,0,0,0-.7-1.151.084.084,0,0,0-.139.082,7.332,7.332,0,0,0,.518,1.155c.19.417.366.838.52,1.269m1.547,8.764a.087.087,0,0,0-.12-.048v-.014a.108.108,0,0,0,.039-.071c.012-.1.014-.2.022-.3.019.02.031.029.058.022a4.011,4.011,0,0,1,0,.409" transform="translate(-5.209 -3.863)" fill="#7db1c7"/>
    <path id="Path_3199" data-name="Path 3199" d="M39.419,46.99l-1.531.329a10.738,10.738,0,0,0-1.521.366c-.1.04-.1.225.03.213a10.618,10.618,0,0,0,1.531-.322l1.55-.369c.141-.034.082-.248-.059-.217" transform="translate(-2.618 -3.389)" fill="#7db1c7"/>
    <path id="Path_3200" data-name="Path 3200" d="M36.188,47.982c-.706.124-1.411.26-2.116.392a.148.148,0,0,0-.2-.139l-1.452.443A13.988,13.988,0,0,0,30,49.25c-.079.029-.075.163.021.157.065,0,.132-.018.2-.024a8.853,8.853,0,0,0-.845.328c-.142.068-.034.262.1.238.377-.066.746-.193,1.116-.289s.766-.236,1.143-.361l1.457-.484q1.534-.3,3.072-.574c.17-.031.1-.289-.071-.259" transform="translate(-2.114 -3.461)" fill="#7db1c7"/>
    <path id="Path_3201" data-name="Path 3201" d="M32.541,48.33a.116.116,0,0,0-.061-.224l-2.117.548a19.123,19.123,0,0,0-2.1.614.1.1,0,0,0,.052.189,19.051,19.051,0,0,0,2.121-.531l2.1-.6" transform="translate(-2.034 -3.47)" fill="#7db1c7"/>
    <path id="Path_3202" data-name="Path 3202" d="M42.932,44.822c.182-.235.34-.487.5-.734l.5-.755c.034-.051-.047-.1-.082-.047l-.5.741c-.166.246-.341.489-.49.747-.022.038.033.085.062.048" transform="translate(-3.092 -3.121)" fill="#7db1c7"/>
    <path id="Path_3203" data-name="Path 3203" d="M52.037,43.01a9.433,9.433,0,0,0,1,1.53c.079.09.211-.025.16-.123-.2-.385-.452-.74-.68-1.111-.114-.185-.225-.371-.333-.56-.051-.088-.1-.176-.151-.264l-.084-.151c-.013-.025-.027-.05-.041-.074.013-.012.029-.021.035-.039.083-.217-.347-.285-.319,0a1.174,1.174,0,0,0,.187.392q.11.2.224.4" transform="translate(-3.724 -3.031)" fill="#7db1c7"/>
    <path id="Path_3204" data-name="Path 3204" d="M53.833,45.165l.294.5a2.61,2.61,0,0,0,.305.48.092.092,0,0,0,.152-.088,2.662,2.662,0,0,0-.275-.5l-.3-.5-.6-1a.091.091,0,0,0-.156.092l.587,1.01" transform="translate(-3.839 -3.175)" fill="#7db1c7"/>
    <path id="Path_3205" data-name="Path 3205" d="M54.647,45.791l.156.368a1.9,1.9,0,0,0,.19.366.065.065,0,0,0,.119-.05,1.8,1.8,0,0,0-.135-.383c-.055-.126-.111-.252-.168-.379l-.336-.756c-.044-.1-.186-.013-.145.084l.319.751" transform="translate(-3.918 -3.24)" fill="#7db1c7"/>
    <path id="Path_3206" data-name="Path 3206" d="M48.317,51.719a10.517,10.517,0,0,1-1.836-.57c-.168-.071-.256.219-.077.279a14.125,14.125,0,0,0,1.924.518,8.265,8.265,0,0,0,1.938.191.076.076,0,0,0,0-.152c-.654-.084-1.3-.126-1.949-.266" transform="translate(-3.34 -3.689)" fill="#7db1c7"/>
    <path id="Path_3207" data-name="Path 3207" d="M41.868,51.283c-.309-.343-.617-.689-.893-1.061a11.34,11.34,0,0,1-.735-1.112c-.11-.192-.22-.386-.323-.583-.051-.1-.1-.2-.148-.3-.027-.056-.095-.3-.143-.312a.16.16,0,0,0,.123-.291.331.331,0,0,0-.481.185c-.079.225.085.5.171.7a9.078,9.078,0,0,0,.835,1.525,9.667,9.667,0,0,0,1.06,1.312,6.627,6.627,0,0,0,1.318,1.086.142.142,0,0,0,.172-.223c-.315-.313-.659-.595-.956-.925" transform="translate(-2.831 -3.432)" fill="#7db1c7"/>
  </g>
</svg>
