<svg id="Group_514" data-name="Group 514" xmlns="http://www.w3.org/2000/svg" width="100" height="100" viewBox="0 0 100 100">
  <path id="Path_4788" data-name="Path 4788" d="M48.827,33.948a.965.965,0,0,0,.7,0c2.291-.887,6.577-5.3,8.082-10.2a8.663,8.663,0,0,0-.865-7.705,4.519,4.519,0,0,0-3.655-2.123,4.305,4.305,0,0,0-3.159,1.5l-.752.82-.753-.821a4.306,4.306,0,0,0-3.16-1.5,4.52,4.52,0,0,0-3.655,2.122,8.659,8.659,0,0,0-.866,7.706c1.505,4.9,5.792,9.315,8.082,10.2m-5.615-16.8a3.087,3.087,0,0,1,1.208-1.067c.109-.269.216-.54.324-.809.01-.024.05-.015.041.011-.086.252-.18.5-.267.753a1.973,1.973,0,0,1,.749-.172,2.494,2.494,0,0,1,1.912,1.113c.021,0,.024.024.037.044.035.045.072.08.105.128a2.151,2.151,0,0,0,3.715,0,2.285,2.285,0,0,1,4.109,0,5.682,5.682,0,0,1,.773,1.636.135.135,0,0,1,.194.149c-.017.124-.043.247-.061.37.083-.247.154-.5.239-.744.042-.12.233-.069.193.053-.127.382-.236.769-.357,1.152a8.246,8.246,0,0,1-.373,3.412,14.96,14.96,0,0,1-1.519,3.286c-.062.168-.114.34-.179.508a.13.13,0,0,1-.179.076,20.076,20.076,0,0,1-3.219,3.8c-.168.777-.331,1.555-.5,2.332-.028.124-.24.1-.223-.03q.118-.94.233-1.881c-.129.105-.265.224-.383.309l-.6.442-.6-.441c-.117-.086-.255-.205-.385-.311-.031.14-.059.279-.09.418-.02.093-.18.072-.167-.023.022-.182.046-.364.069-.546a18.709,18.709,0,0,1-5.4-7.943,6.7,6.7,0,0,1,.607-6.029" transform="translate(0.821 0.284)" fill="#7db1c7"/>
  <path id="Path_4789" data-name="Path 4789" d="M46.87,2.673a3.509,3.509,0,0,1,.356-.253c.009-.039.015-.079.026-.117a1.433,1.433,0,0,0-.382.37" transform="translate(0.957 0.047)" fill="#7db1c7"/>
  <path id="Path_4790" data-name="Path 4790" d="M49.76,8.7c.005,0,.008-.006.013-.008l-.024.008s.007,0,.011,0" transform="translate(1.015 0.177)" fill="#7db1c7"/>
  <path id="Path_4791" data-name="Path 4791" d="M49.109,10.913a5.457,5.457,0,1,0-5.456-5.456,5.463,5.463,0,0,0,5.456,5.456M45.847,3.654a.129.129,0,0,1,.25.028,3.16,3.16,0,0,1,.216-.326c.024-.135.044-.27.076-.4a.064.064,0,0,1,.081-.048c0-.017-.006-.034,0-.053a1.863,1.863,0,0,1,.958-.884,5.124,5.124,0,0,1,.187-.512c.056-.122.231-.016.18.1-.044.1-.072.208-.109.312a2.527,2.527,0,0,1,1.779.11,3.487,3.487,0,0,1,1.271,6.567c-.293.437-.676.783-1.179.686a1.558,1.558,0,0,1-.626-.284A3.484,3.484,0,0,1,47.2,8.4c.031.065.057.132.09.2a.044.044,0,0,1-.076.045c-.077-.124-.14-.255-.207-.385a3.524,3.524,0,0,1-.337-.278c.159.3.329.6.512.892.145.227.341.63.657.616.282-.013.459-.291.615-.491.061-.081.169.022.131.1-.221.459-.693.928-1.2.528a2.7,2.7,0,0,1-.546-.737c-.19-.31-.368-.628-.528-.955a7.883,7.883,0,0,1-.426-1.071,3.479,3.479,0,0,1-.3-1.4c0-.056.014-.109.016-.164a4.567,4.567,0,0,1,.233-1.639" transform="translate(0.891)" fill="#7db1c7"/>
  <path id="Path_4792" data-name="Path 4792" d="M47.6,2.139c-.039.011-.069.032-.106.046-.008.033-.012.066-.02.1a3.437,3.437,0,0,1,.47-.191,1.17,1.17,0,0,0-.344.046" transform="translate(0.969 0.043)" fill="#7db1c7"/>
  <path id="Path_4793" data-name="Path 4793" d="M23.719,33.393a13.656,13.656,0,0,0,.761,2.433c.067-.521.124-1.043.16-1.565a7.354,7.354,0,0,1-.921-.867" transform="translate(0.484 0.681)" fill="#7db1c7"/>
  <path id="Path_4794" data-name="Path 4794" d="M20.421,31.122a8.659,8.659,0,0,0,4.837,6.061,19.889,19.889,0,0,0,9.027,2.071,10.794,10.794,0,0,0,3.9-.571.963.963,0,0,0,.5-.5c.992-2.248.9-8.4-1.5-12.93a8.661,8.661,0,0,0-6.062-4.838,5.793,5.793,0,0,0-1.033-.094A4.259,4.259,0,0,0,27.036,21.5,4.306,4.306,0,0,0,25.864,24.8l.049,1.113L24.8,25.864c-.081,0-.16-.006-.241-.006A4.269,4.269,0,0,0,21.5,27.036a4.52,4.52,0,0,0-1.083,4.086m2.458-2.709a1.848,1.848,0,0,1,.237-.189c0-.1,0-.2,0-.3a.064.064,0,0,1,.128,0l.006.208a2.352,2.352,0,0,1,.964-.3.8.8,0,0,1,.082-.112.1.1,0,0,1,.172.047c0,.015.005.031.008.045.026,0,.049-.007.077-.007.1,0,.211.022.316.031-.035-.166-.076-.334-.109-.5a.133.133,0,0,1,.257-.07c.064.2.109.4.169.6.02,0,.037,0,.057,0a2.859,2.859,0,0,0,.512.048c.016,0,.031,0,.046,0-.119-.514-.245-1.03-.353-1.546a.163.163,0,0,1,.313-.087c.173.524.32,1.056.479,1.587a2.157,2.157,0,0,0,.431-.135c-.254-.968-.483-1.941-.639-2.926a.152.152,0,0,1,.292-.082q.39,1.374.791,2.745a1.835,1.835,0,0,0,.2-.163,1.988,1.988,0,0,0,.409-.641c-.262-.884-.5-1.777-.692-2.679a.1.1,0,0,1,.192-.052c.191.757.417,1.5.642,2.246a2.67,2.67,0,0,0,0-.937,3.145,3.145,0,0,1,.07-1.534c-.134-.441-.277-.88-.409-1.321-.035-.114.144-.161.179-.048.112.358.229.716.34,1.077a1.946,1.946,0,0,1,.365-.536,2.3,2.3,0,0,1,1.669-.61,3.723,3.723,0,0,1,.691.066c.059.009.114.031.172.043a.161.161,0,0,1,.14.034,5.689,5.689,0,0,1,1.9.838c-.022-.28-.057-.557-.069-.84-.008-.171.234-.184.284-.039.164.465.3.938.453,1.406a7.855,7.855,0,0,1,1.262,1.471c-.024-.465-.042-.93-.039-1.4,0-.153.239-.193.27-.038q.277,1.364.511,2.735a14.7,14.7,0,0,1,.859,2.235l.012-.46a.12.12,0,0,1,.222-.06,9.372,9.372,0,0,1,1.476,3.924c.008.063-.087.093-.1.028a10.7,10.7,0,0,0-1.365-3.471c-.005.295-.011.588-.015.881a19.006,19.006,0,0,1,.444,6.708l-.115.738-.737.114c-.283.044-.6.076-.939.1.006.206.029.409.031.615a.167.167,0,0,1-.328.044c-.047-.215-.1-.43-.15-.645-.184.006-.358.017-.551.017-.354,0-.989-.014-1.793-.088.1.6.187,1.2.243,1.8.005.066-.094.073-.111.015-.193-.622-.393-1.243-.588-1.864-.541-.061-1.142-.151-1.772-.277.035.19.077.379.111.569.021.118-.155.215-.21.088,0-.008-.007-.018-.011-.028h0v0c-.1-.235-.184-.476-.282-.71-.429-.095-.869-.207-1.313-.342a.174.174,0,0,1-.283-.063l-.011-.033c-.219-.07-.438-.147-.657-.23a2.585,2.585,0,0,1-.162.422.158.158,0,0,1-.285-.038c-.077-.216-.142-.435-.215-.652-.259-.112-.515-.232-.768-.362,0,.092.008.182.006.273a.136.136,0,0,1-.252.068c-.105-.213-.2-.433-.3-.649a9.673,9.673,0,0,1-.845-.555c-.043.63-.1,1.259-.187,1.887a.108.108,0,0,1-.195.026,13.245,13.245,0,0,1-1.009-3.236,5.738,5.738,0,0,1-1.173-2.565,2.583,2.583,0,0,1,.544-2.36" transform="translate(0.415 0.415)" fill="#7db1c7"/>
  <path id="Path_4795" data-name="Path 4795" d="M32.346,37.831c.01.034.05.15.088.27-.03-.216-.057-.462-.065-.52-.033-.236-.08-.469-.119-.7l-.194-.019.291.973" transform="translate(0.654 0.752)" fill="#7db1c7"/>
  <path id="Path_4796" data-name="Path 4796" d="M34.92,25.627v.012l0-.012" transform="translate(0.713 0.523)" fill="#7db1c7"/>
  <path id="Path_4797" data-name="Path 4797" d="M18.242,23.7a5.456,5.456,0,1,0-3.859-1.6,5.421,5.421,0,0,0,3.859,1.6m-2.483-7.94a3.465,3.465,0,0,1,5.553.811,2.608,2.608,0,0,0-2.146-1.827c-.152-.014-.154-.251,0-.24a2.72,2.72,0,0,1,1.885,1,2.579,2.579,0,0,1,.6,1.683l.013.024a5.611,5.611,0,0,1,.508,1.234,3.667,3.667,0,0,1,.142,1.354c-.016.136-.224.193-.258.036-.014-.069-.027-.138-.04-.206a.089.089,0,0,1-.078-.052c-.084-.181-.122-.379-.189-.566-.017-.049-.039-.1-.057-.145a3.439,3.439,0,0,1-.276.852,4.692,4.692,0,0,1-.3.918A2.962,2.962,0,0,1,18.985,22.5a.128.128,0,0,1-.064-.238,6.423,6.423,0,0,0,.666-.39,2.272,2.272,0,0,1-1.595.085,2.148,2.148,0,0,1-.59-.311,3.5,3.5,0,0,1-1.643-5.883" transform="translate(0.261 0.261)" fill="#7db1c7"/>
  <path id="Path_4798" data-name="Path 4798" d="M18.229,21.576a2.167,2.167,0,0,0,1.791-.547,3.489,3.489,0,0,1-1.791.547" transform="translate(0.372 0.429)" fill="#7db1c7"/>
  <path id="Path_4799" data-name="Path 4799" d="M20.316,20.831c.023-.037.044-.076.068-.112q-.058.049-.116.095a.1.1,0,0,1,.048.017" transform="translate(0.414 0.423)" fill="#7db1c7"/>
  <path id="Path_4800" data-name="Path 4800" d="M17.59,42.873c.041-.287.03-.547-.158-.551a3.066,3.066,0,0,0-.382.873c.011-.008.018-.017.031-.026a5.8,5.8,0,0,1,.509-.3" transform="translate(0.348 0.864)" fill="#7db1c7"/>
  <path id="Path_4801" data-name="Path 4801" d="M13.916,53.091a4.52,4.52,0,0,0,2.121,3.655,7.8,7.8,0,0,0,4.52,1.374,10.884,10.884,0,0,0,3.187-.508c4.9-1.505,9.316-5.792,10.2-8.084a.969.969,0,0,0,0-.7c-.887-2.29-5.3-6.576-10.2-8.081a10.853,10.853,0,0,0-3.187-.509,7.793,7.793,0,0,0-4.519,1.374,4.518,4.518,0,0,0-2.122,3.655,4.307,4.307,0,0,0,1.5,3.159l.822.754-.823.752a4.3,4.3,0,0,0-1.5,3.159m3.011-1.873c.088-.755.214-1.509.318-2.259.064-.461.131-.922.195-1.384-.055-.051-.111-.1-.171-.147-.147.528-.283,1.059-.441,1.584a.137.137,0,0,1-.264-.072q.162-.915.323-1.832a2.444,2.444,0,0,1-1.026-1.841,2.39,2.39,0,0,1,.927-1.758c.179-.5.36-1,.576-1.482a.135.135,0,0,1,.149-.061c.346.054.439.387.43.788a6.037,6.037,0,0,1,2.626-.571,8.924,8.924,0,0,1,2.606.423,13.852,13.852,0,0,1,2.18.909c.053-.166.089-.337.148-.5a.134.134,0,0,1,.262.036c.019.227.011.453.017.679A20.062,20.062,0,0,1,29.533,46.4c.021-.108.034-.218.056-.327.032-.156.3-.164.323,0,.04.254.059.508.087.763.167.16.327.316.477.471.009-.018.014-.037.023-.054a.157.157,0,0,1,.27,0,4.98,4.98,0,0,1,.2.582l.088.1a10.427,10.427,0,0,1,.544-1.53.139.139,0,0,1,.253.034,8.894,8.894,0,0,1,.06,2.6l.1.139-.147.2c-.044.27-.095.54-.165.808a.128.128,0,0,1-.246-.068c.022-.087.034-.172.053-.259-.152.2-.328.421-.536.656-.006.02-.007.042-.014.062a.144.144,0,0,1-.137.1,19.043,19.043,0,0,1-1.781,1.7c-.007.089-.021.177-.028.264-.021.2-.308.213-.334.033a20.2,20.2,0,0,1-2.074,1.466l-.141.994c-.022.16-.3.121-.283-.038.027-.246.043-.494.068-.74a14.766,14.766,0,0,1-3.083,1.4c-.282.087-.553.136-.828.2-.06.18-.105.364-.173.543s-.361.164-.345-.047l.031-.381a7.923,7.923,0,0,1-1.291.112,6.439,6.439,0,0,1-1.253-.135,2,2,0,0,1-.419.385.159.159,0,0,1-.238-.136c.008-.133.023-.264.032-.4a5.623,5.623,0,0,1-1.076-.477,3.07,3.07,0,0,1-.226.31c-.1.113-.252-.011-.233-.136s.044-.268.065-.4c-.024-.016-.052-.028-.077-.045a2.584,2.584,0,0,1-1.283-2.054,2.465,2.465,0,0,1,1.065-1.873" transform="translate(0.284 0.821)" fill="#7db1c7"/>
  <path id="Path_4802" data-name="Path 4802" d="M17.27,50.011c-.032.218-.106.527-.167.854A2.557,2.557,0,0,0,17.887,50c.088-.368.164-.739.242-1.11a2.11,2.11,0,0,0-.517-1.226q-.17,1.174-.341,2.348" transform="translate(0.349 0.973)" fill="#7db1c7"/>
  <path id="Path_4803" data-name="Path 4803" d="M31.344,48.6a7.948,7.948,0,0,0-.032-1.7,10.518,10.518,0,0,0-.371,1.184c.1.12.209.25.289.359Z" transform="translate(0.631 0.957)" fill="#7db1c7"/>
  <path id="Path_4804" data-name="Path 4804" d="M6.21,52.668a1.8,1.8,0,0,0,.21-.05,2.277,2.277,0,0,0,.983-.855,3.494,3.494,0,0,1-.758.432,2.506,2.506,0,0,1-.435.473" transform="translate(0.127 1.056)" fill="#7db1c7"/>
  <path id="Path_4805" data-name="Path 4805" d="M5.972,52.6c.061-.089.127-.173.191-.258a3.44,3.44,0,0,1-.806.1,3.309,3.309,0,0,1-.5-.051c.014.012.023.028.038.039.05.037.1.068.153.1a1.59,1.59,0,0,0,.938.185.1.1,0,0,1-.009-.118" transform="translate(0.099 1.068)" fill="#7db1c7"/>
  <path id="Path_4806" data-name="Path 4806" d="M5.456,43.652a5.457,5.457,0,1,0,5.457,5.457,5.463,5.463,0,0,0-5.457-5.457m3.052,7.482a.148.148,0,0,1-.24.058,3.616,3.616,0,0,1-.478.521,2.467,2.467,0,0,1-1.25,1.215,1.845,1.845,0,0,1-.841.091,3.883,3.883,0,0,0,.751.263c.083.018.065.155-.019.148a3.312,3.312,0,0,1-2.051-1,3.5,3.5,0,1,1,2.155-6.65,1.867,1.867,0,0,0-1.382-.538c-.186.014-.181-.268,0-.288a2.567,2.567,0,0,1,2.171,1.189,3.466,3.466,0,0,1,1.306,4.438,3.774,3.774,0,0,1-.123.548" transform="translate(0 0.891)" fill="#7db1c7"/>
  <path id="Path_4807" data-name="Path 4807" d="M23.771,63.253q-.179.828-.3,1.663c.107-.133.228-.26.348-.387-.015-.428-.031-.853-.049-1.277" transform="translate(0.479 1.291)" fill="#7db1c7"/>
  <path id="Path_4808" data-name="Path 4808" d="M24.795,71.221a1.808,1.808,0,0,0,.267-.93,3.729,3.729,0,0,1-.5.048c.067.3.15.59.237.882" transform="translate(0.501 1.435)" fill="#7db1c7"/>
  <path id="Path_4809" data-name="Path 4809" d="M38.187,59.694a10.831,10.831,0,0,0-3.9-.57A19.9,19.9,0,0,0,25.257,61.2a8.662,8.662,0,0,0-4.837,6.061A4.518,4.518,0,0,0,21.5,71.341a4.262,4.262,0,0,0,3.056,1.179c.08,0,.159,0,.239-.005l1.113-.049-.05,1.114a4.307,4.307,0,0,0,1.174,3.294,4.259,4.259,0,0,0,3.053,1.18,5.778,5.778,0,0,0,1.032-.1,8.657,8.657,0,0,0,6.061-4.836c2.4-4.529,2.493-10.684,1.5-12.931a.974.974,0,0,0-.5-.5m-1.506,9.29c.009.867,0,1.736-.046,2.606a.141.141,0,0,1-.282,0c-.033-.405-.063-.809-.1-1.214a13.423,13.423,0,0,1-.792,1.835c-.052.1-.108.181-.16.273-.016.138-.027.276-.045.413a.15.15,0,0,1-.252.095,8.6,8.6,0,0,1-.774,1.014c.005.177.01.353.016.53s-.256.167-.262,0c0-.08-.006-.16-.008-.24-.145.148-.3.281-.448.411-.013.2-.01.4-.029.6-.017.179-.286.242-.331.045-.023-.105-.043-.212-.067-.317a5.83,5.83,0,0,1-.512.331,2.5,2.5,0,0,1-.693,2.06.163.163,0,0,1-.269-.071c-.111-.484-.193-.971-.273-1.459a5.565,5.565,0,0,1-.585.145,3.818,3.818,0,0,1-.692.065,2.812,2.812,0,0,1-.719-.1c-.012.21-.011.42-.027.631-.009.135-.2.215-.274.074a7.663,7.663,0,0,1-.419-1.036,1.9,1.9,0,0,1-.23-.183,2.169,2.169,0,0,1-.573-1.324.147.147,0,0,1-.25-.092c-.1-.74-.173-1.481-.246-2.222-.043.379-.093.758-.153,1.136-.023.143-.246.131-.277,0q-.286-1.208-.489-2.43A2.408,2.408,0,0,0,26,70.485c-.056.409-.1.819-.182,1.227a.118.118,0,0,1-.226,0c-.067-.405-.12-.811-.179-1.216-.029,0-.059,0-.089.008a1.838,1.838,0,0,1-.418,1.218.092.092,0,0,1-.152-.04q-.168-.549-.293-1.112a2.255,2.255,0,0,1-1.582-.6,2.581,2.581,0,0,1-.547-2.361,5.742,5.742,0,0,1,1.048-2.392,22.715,22.715,0,0,1,.43-2.5c.02-.084.14-.059.145.02.031.567.053,1.142.076,1.718a7.807,7.807,0,0,1,.817-.7c0-.162-.012-.324-.016-.487a.105.105,0,0,1,.21,0c0,.113.009.227.013.34a10.091,10.091,0,0,1,1.111-.691,13.367,13.367,0,0,1,1.929-.828c.01-.374.016-.748.034-1.121a.13.13,0,0,1,.26,0c.031.332.062.663.093.995a18.712,18.712,0,0,1,2.748-.637q-.051-.543-.1-1.086c-.019-.213.3-.2.328,0,.045.344.074.69.116,1.034.314-.044.61-.078.891-.105a2.363,2.363,0,0,1,.387-.957.15.15,0,0,1,.27.036c.085.282.138.568.206.853l.274-.014c-.007-.239-.013-.478-.02-.716-.005-.157.232-.154.242,0,.016.236.036.47.052.706.21-.007.388-.009.522-.009.273,0,.529.012.783.024-.023-.476-.049-.952-.073-1.428-.008-.158.219-.173.264-.036a11.182,11.182,0,0,1,.366,1.5l.121.013c-.032-.407-.065-.813-.1-1.219-.013-.165.238-.16.255,0l.129,1.25c.058.007.13.011.186.019l.13.02c0-.1,0-.2,0-.3,0-.124.188-.19.246-.067l.15.314a.129.129,0,0,1,0,.111l.209.033.114.738a19.069,19.069,0,0,1-.5,6.94" transform="translate(0.415 1.207)" fill="#7db1c7"/>
  <path id="Path_4810" data-name="Path 4810" d="M32.676,60.656a2.494,2.494,0,0,0-.157.45l.261-.02c-.036-.143-.064-.287-.1-.43" transform="translate(0.664 1.238)" fill="#7db1c7"/>
  <path id="Path_4811" data-name="Path 4811" d="M35.147,61.011c0,.016,0,.033,0,.049h.01c0-.017-.009-.034-.012-.05" transform="translate(0.717 1.245)" fill="#7db1c7"/>
  <path id="Path_4812" data-name="Path 4812" d="M25.538,70.247c.02.136.04.27.061.406.021-.139.041-.278.059-.415h-.007c-.038,0-.076.008-.113.01" transform="translate(0.521 1.433)" fill="#7db1c7"/>
  <path id="Path_4813" data-name="Path 4813" d="M31.656,76.622a2.359,2.359,0,0,0,.374-1.4,5.751,5.751,0,0,1-.586.243c.063.386.129.771.211,1.155" transform="translate(0.642 1.535)" fill="#7db1c7"/>
  <path id="Path_4814" data-name="Path 4814" d="M28.9,75.663l0-.077-.046-.022c.013.034.03.065.043.1" transform="translate(0.589 1.542)" fill="#7db1c7"/>
  <path id="Path_4815" data-name="Path 4815" d="M27.626,72.854c.043-.256.085-.512.111-.769a2.19,2.19,0,0,0-.3-.9c.052.556.12,1.11.185,1.665" transform="translate(0.56 1.453)" fill="#7db1c7"/>
  <path id="Path_4816" data-name="Path 4816" d="M26.894,71.875q.073-.585.121-1.169a1.938,1.938,0,0,0-.416-.259c.083.479.191.953.295,1.429" transform="translate(0.543 1.438)" fill="#7db1c7"/>
  <path id="Path_4817" data-name="Path 4817" d="M18.005,83.487c-.115-.068-.23-.139-.341-.211-.006,0-.005-.009-.01-.013a3.769,3.769,0,0,1-.37-.072,1.8,1.8,0,0,0,.721.3" transform="translate(0.353 1.698)" fill="#7db1c7"/>
  <path id="Path_4818" data-name="Path 4818" d="M18.241,74.519a5.456,5.456,0,1,0,3.859,1.6,5.421,5.421,0,0,0-3.859-1.6m2.478,9.133A2.127,2.127,0,0,1,19.7,84.1a3.383,3.383,0,0,1-1.538.384,3.627,3.627,0,0,1-1.874-.471.12.12,0,0,1,.12-.207,3.382,3.382,0,0,0,1.727.432,3.427,3.427,0,0,0,.873-.131c.034-.009.065-.026.1-.037a2.712,2.712,0,0,1-.689-.237,1.886,1.886,0,0,1-1.665-.69,3.414,3.414,0,0,1-.386-.207c.113.215.238.426.359.643a.12.12,0,0,1-.188.145,3.363,3.363,0,0,1-.722-1.218c-.019-.018-.042-.032-.06-.05a3.5,3.5,0,0,1,.512-5.388,2.033,2.033,0,0,0-.271.153c-.051.037-.117-.05-.067-.088a2.376,2.376,0,0,1,1.147-.462,3.467,3.467,0,0,1,.589-.154c-.022-.1.076-.222.183-.145.048.034.087.079.134.114.087-.006.169-.026.256-.026a3.487,3.487,0,0,1,3.066,5.193.1.1,0,0,1,.14.108,1.233,1.233,0,0,1-.134.324.052.052,0,0,1,.1.029,1.1,1.1,0,0,1-.948.807,2.318,2.318,0,0,1-.762.327,2.361,2.361,0,0,1-.282.02,3.5,3.5,0,0,1-1.18.215c-.02,0-.04-.006-.06-.006.112.066.227.128.344.185a1.4,1.4,0,0,0,.192-.027c.054-.013.095.071.04.095-.013.006-.026.007-.039.012a2.1,2.1,0,0,0,.624.161,1.423,1.423,0,0,0,.209-.01l.3-.139a.122.122,0,0,1,.147.05,2.019,2.019,0,0,0,.685-.411,3.027,3.027,0,0,0,.806-1.3c.171-.505.227-1.033.356-1.548.028-.107.206-.086.2.028a4.356,4.356,0,0,1-1.326,3.071" transform="translate(0.261 1.521)" fill="#7db1c7"/>
  <path id="Path_4819" data-name="Path 4819" d="M21.075,82.053a2.25,2.25,0,0,1-.192.247.843.843,0,0,0,.192-.247" transform="translate(0.426 1.675)" fill="#7db1c7"/>
  <path id="Path_4820" data-name="Path 4820" d="M49.53,64.454a.976.976,0,0,0-.7,0,9.4,9.4,0,0,0-2.671,1.854l.009,0c.415.506.847.995,1.271,1.491a12.616,12.616,0,0,1,1.139-.979l.6-.442.6.441a18.621,18.621,0,0,1,5.972,8.405,6.7,6.7,0,0,1-.607,6.029,3.035,3.035,0,0,1-1.281,1.1l.111.14c.05.062-.032.151-.09.09s-.1-.114-.152-.169a1.937,1.937,0,0,1-.644.123,2.583,2.583,0,0,1-2.054-1.284A2.452,2.452,0,0,0,49.8,80.3c.174.308.347.617.5.939a.111.111,0,0,1-.173.134c-.4-.376-.776-.768-1.161-1.154a1.978,1.978,0,0,0-.644.184l.991,1.467a.126.126,0,0,1-.108.189c-.7.056-1.172-.669-1.59-1.137a2.769,2.769,0,0,0-.286.335,3.757,3.757,0,0,1-.509.592c.237.424.455.907.161,1.318a.08.08,0,0,1-.126.016c-.248-.282-.481-.578-.721-.866a1.991,1.991,0,0,1-.861.223c-.007,0-.014,0-.021,0,.031.156.066.311.09.469a.086.086,0,0,1-.156.065c-.14-.2-.266-.4-.4-.605a2.858,2.858,0,0,1-1.565-1.21,5.911,5.911,0,0,1-1.026-3.621c-.072-.171-.152-.339-.221-.512-.019-.05.066-.086.088-.037.047.109.1.215.149.323.007-.117.011-.234.023-.353-.405-.611-.8-1.227-1.191-1.845-.046-.072.056-.145.115-.089.413.4.8.817,1.18,1.25.027-.142.053-.284.087-.429A21.063,21.063,0,0,1,41.3,73.932a.1.1,0,0,1,.149-.115c.421.422.811.867,1.187,1.323.055-.172.129-.34.191-.511-.065-.1-.136-.2-.2-.3-.076-.117.1-.255.194-.15.042.048.077.1.118.147.105-.269.212-.535.334-.8-.19-.263-.391-.518-.577-.786-.085-.121.11-.23.2-.114.159.227.333.444.5.668a17.862,17.862,0,0,1,1.33-2.292l-.095-.133c-.07-.1.094-.194.165-.1l.048.064c.128-.182.254-.362.385-.536-.22-.255-.453-.5-.668-.76-.055-.066.033-.158.1-.1.232.23.449.476.677.71a20.593,20.593,0,0,1,1.854-2.116l-1.195-1.573a20.153,20.153,0,0,0-5.24,8.187,8.665,8.665,0,0,0,.865,7.706,4.519,4.519,0,0,0,3.655,2.122,4.308,4.308,0,0,0,3.16-1.5l.753-.822.753.823a4.3,4.3,0,0,0,3.158,1.5,4.518,4.518,0,0,0,3.655-2.121,8.661,8.661,0,0,0,.866-7.707c-1.506-4.9-5.792-9.315-8.083-10.2m5.656,7.735c-.874-.951-1.7-1.953-2.511-2.956-.486-.6-.969-1.2-1.445-1.805.321.529.647,1.055.968,1.583.028.044-.041.084-.068.04-.6-.934-1.178-1.879-1.8-2.8-.054-.081.071-.177.133-.1.82.973,1.6,1.983,2.408,2.965s1.639,1.957,2.432,2.955c.065.083-.044.2-.118.118" transform="translate(0.821 1.314)" fill="#7db1c7"/>
  <path id="Path_4821" data-name="Path 4821" d="M41.8,74.263c.218.385.436.771.671,1.143.03-.109.052-.216.086-.327q-.366-.421-.757-.816" transform="translate(0.853 1.516)" fill="#7db1c7"/>
  <path id="Path_4822" data-name="Path 4822" d="M47.816,80.56a2.947,2.947,0,0,0,.972.88c-.262-.429-.536-.851-.806-1.274a2.449,2.449,0,0,0-.31.232l.144.163" transform="translate(0.973 1.636)" fill="#7db1c7"/>
  <path id="Path_4823" data-name="Path 4823" d="M46.544,82.34c.05.063.1.126.149.189q.257-.113.149-.339a1.3,1.3,0,0,0-.235-.624,2.788,2.788,0,0,1-.46.337,2.185,2.185,0,0,0,.4.438" transform="translate(0.942 1.665)" fill="#7db1c7"/>
  <path id="Path_4824" data-name="Path 4824" d="M41.535,75.507q.347.522.7,1.04c.011-.08.028-.161.041-.242-.236-.273-.484-.54-.741-.8" transform="translate(0.848 1.541)" fill="#7db1c7"/>
  <path id="Path_4825" data-name="Path 4825" d="M49.609,80.41c-.082-.161-.156-.328-.243-.486a2.1,2.1,0,0,0-.276-.038c.173.174.344.351.518.523" transform="translate(1.002 1.63)" fill="#7db1c7"/>
  <path id="Path_4826" data-name="Path 4826" d="M45.006,82.281c-.007-.044-.015-.088-.022-.131l-.07-.01c.031.046.061.094.093.141" transform="translate(0.917 1.676)" fill="#7db1c7"/>
  <path id="Path_4827" data-name="Path 4827" d="M49.109,87.305a5.457,5.457,0,1,0,5.456,5.456,5.463,5.463,0,0,0-5.456-5.456m3.437,6.28a2.6,2.6,0,0,1-.515,1.118c-.014.022-.032.042-.046.063a2.75,2.75,0,0,1-.118.367c-.031.073-.145.047-.123-.035.005-.016,0-.034.008-.05a3.494,3.494,0,0,1-1.6,1.049c-.317.156-.637.3-.939.427-.121.052-.228-.124-.105-.179l.2-.093c-.066,0-.131.02-.2.02a3.5,3.5,0,0,1-1.377-.283,3.116,3.116,0,0,0,1.2.665.085.085,0,0,1-.022.165,2.659,2.659,0,0,1-1.987-1.335,3.535,3.535,0,0,1-.548-.55l-.042-.051c-.057-.074-.117-.146-.168-.226a3.181,3.181,0,0,1-.53-2.81,2.821,2.821,0,0,1,.46-.86,3.486,3.486,0,0,1,5.53-.67l.027.021c0-.018,0-.036-.005-.054-.007-.054.082-.063.094-.012s.016.12.029.181a2.211,2.211,0,0,1,.219.3c.015.022.032.043.046.064.027.045.051.089.073.136a3.471,3.471,0,0,1,.514,1.8,3.512,3.512,0,0,1-.088.759.079.079,0,0,1,.013.064" transform="translate(0.891 1.782)" fill="#7db1c7"/>
  <path id="Path_4828" data-name="Path 4828" d="M77.959,67.257a8.663,8.663,0,0,0-4.837-6.062,19.9,19.9,0,0,0-9.028-2.07,10.828,10.828,0,0,0-3.9.57.963.963,0,0,0-.5.5c-.992,2.247-.9,8.4,1.5,12.93a8.666,8.666,0,0,0,6.063,4.838,5.775,5.775,0,0,0,1.032.095,4.26,4.26,0,0,0,3.053-1.179,4.306,4.306,0,0,0,1.172-3.295l-.049-1.113,1.113.049.239.005a4.266,4.266,0,0,0,3.057-1.179,4.522,4.522,0,0,0,1.084-4.085m-2.46,2.71a2.286,2.286,0,0,1-1.627.606c0,.049-.01.1-.011.147a.131.131,0,0,1-.262,0l-.012-.166a3.9,3.9,0,0,1-.448-.043,2.856,2.856,0,0,0-.512-.047l-.029,0-.011.05q-.078,1.12-.239,2.238l0,.031h0c0,.012,0,.024,0,.037-.022.152-.277.113-.266-.037.04-.567.093-1.133.138-1.7a.123.123,0,0,1-.023-.058c0-.177.017-.35.023-.526a2.216,2.216,0,0,0-.688.243c-.039.646-.076,1.292-.136,1.937a.149.149,0,0,1-.18.133c-.031.424-.046.849-.088,1.272-.018.181-.288.189-.288,0q0-1.355,0-2.708a2.371,2.371,0,0,0-.326,1.76,2.584,2.584,0,0,1-.545,2.362,2.3,2.3,0,0,1-1.667.609,3.81,3.81,0,0,1-.692-.065,5.713,5.713,0,0,1-1.669-.592.158.158,0,0,1-.13-.07l0,0v.015c-.013.165-.264.22-.3.042-.019-.091-.035-.183-.053-.272a6.143,6.143,0,0,1-.565-.424c0,.124,0,.247,0,.371a.124.124,0,0,1-.248,0c-.027-.221-.043-.443-.067-.664a8.752,8.752,0,0,1-1.649-2.237,18.628,18.628,0,0,1-1.721-10.165l.115-.738.737-.114.016,0c.007-.045.011-.091.019-.137.011-.067.11-.038.1.029-.005.032-.007.064-.011.1.153-.021.322-.037.492-.053v-.1a.105.105,0,0,1,.21,0c0,.026,0,.052,0,.078.348-.024.717-.04,1.107-.04a21.393,21.393,0,0,1,3.464.307c.012-.268.014-.538.034-.806.011-.156.25-.16.247,0-.006.285-.005.57-.009.855.542.1,1.11.23,1.689.393.018-.366.038-.733.056-1.1a.137.137,0,0,1,.273,0c-.008.4-.012.791-.02,1.187a15.04,15.04,0,0,1,1.456.526c.007-.086.01-.171.017-.256a.128.128,0,0,1,.256,0c.01.128.013.255.022.384.25.112.5.23.743.359a8.125,8.125,0,0,1,2.756,2.259.124.124,0,0,1,.074.089l.005.021a5.726,5.726,0,0,1,1,2.324,2.59,2.59,0,0,1-.547,2.36" transform="translate(1.206 1.207)" fill="#7db1c7"/>
  <path id="Path_4829" data-name="Path 4829" d="M77.874,77.082a1.238,1.238,0,0,0-.7.68,3.453,3.453,0,0,1,.264-.321,3.532,3.532,0,0,1,.436-.358" transform="translate(1.575 1.573)" fill="#7db1c7"/>
  <path id="Path_4830" data-name="Path 4830" d="M79.977,74.519a5.458,5.458,0,1,0,3.857,1.6,5.422,5.422,0,0,0-3.857-1.6m3.513,7.613c-.022.142-.212.084-.229-.031-.018-.145-.021-.293-.032-.44a5.851,5.851,0,0,1-.489.862c-.053.074-.178,0-.124-.072a5.742,5.742,0,0,0,.569-1.064,3.5,3.5,0,0,1-6.545-2.465c.01-.914.435-2,1.422-2.141a.157.157,0,0,1,.177.157,3.437,3.437,0,0,1,4.058.422h0c.05.046.107.082.156.131a3.471,3.471,0,0,1,.752,1.116.111.111,0,0,1,.114.092c.019.139.028.279.045.417a3.487,3.487,0,0,1,.118.857c0,.043-.01.084-.012.127.007.092.023.182.031.273a5.819,5.819,0,0,0,.142-1.184.071.071,0,0,1,.142,0,5.809,5.809,0,0,1-.26,1.707,6.374,6.374,0,0,1-.039,1.234" transform="translate(1.521 1.521)" fill="#7db1c7"/>
  <path id="Path_4831" data-name="Path 4831" d="M84.486,45.267a4.52,4.52,0,0,0-2.121-3.655,7.8,7.8,0,0,0-4.52-1.376,10.887,10.887,0,0,0-3.187.509c-4.9,1.506-9.316,5.793-10.2,8.083a.969.969,0,0,0,0,.7c.887,2.29,5.3,6.578,10.2,8.083a10.884,10.884,0,0,0,3.187.508,7.793,7.793,0,0,0,4.519-1.374,4.519,4.519,0,0,0,2.122-3.655,4.306,4.306,0,0,0-1.5-3.159l-.823-.752.823-.753a4.3,4.3,0,0,0,1.5-3.16m-2.095.993c-.033-.03-.058-.065-.091-.095a2.5,2.5,0,0,1-.241.385c.042.131.094.258.131.392.031.11-.128.221-.206.12-.056-.071-.1-.149-.158-.221-.054.057-.124.109-.186.163.061.177.135.348.191.527a.1.1,0,0,1-.166.1c-.12-.114-.227-.241-.343-.358-.023.017-.041.037-.064.054a2.709,2.709,0,0,0-.315.27c.027.155.061.307.077.465a.115.115,0,0,1-.195.082c-.061-.07-.117-.145-.179-.215a2.3,2.3,0,0,0-.293.515c.064.212.131.423.182.642a.108.108,0,0,1-.18.1c-.049-.053-.093-.111-.142-.164-.005.055-.022.109-.022.164a2.282,2.282,0,0,0,1.067,1.851,2.287,2.287,0,0,1,0,4.109,5.891,5.891,0,0,1-3.423,1.032,8.95,8.95,0,0,1-2.606-.423,18.628,18.628,0,0,1-8.4-5.971l-.441-.6.441-.6a14.367,14.367,0,0,1,1.586-1.748c-.071-.115-.155-.222-.226-.339a.118.118,0,0,1,.185-.143c.087.093.165.192.251.286.28-.26.578-.519.9-.784a.129.129,0,0,1,.136-.111,19.9,19.9,0,0,1,1.747-1.28c-.064-.1-.138-.191-.2-.29-.076-.12.105-.217.187-.109.069.093.137.188.207.281.338-.214.68-.422,1.037-.616-.058-.093.09-.177.154-.086l.005.006A14.136,14.136,0,0,1,75.229,42.6c.117-.036.228-.049.344-.081-.026-.045-.053-.087-.078-.132a.087.087,0,0,1,.151-.088c.039.058.076.117.114.174.3-.076.605-.154.9-.2-.029-.051-.061-.1-.091-.152-.062-.11.095-.194.166-.1l.166.229a7.872,7.872,0,0,1,.936-.079,5.908,5.908,0,0,1,3.422,1.03,2.585,2.585,0,0,1,1.283,2.055,1.963,1.963,0,0,1-.132.664c.053.05.1.11.152.159.114.1-.056.272-.169.169" transform="translate(1.314 0.821)" fill="#7db1c7"/>
  <path id="Path_4832" data-name="Path 4832" d="M81.138,47.007l0-.006h0l0,.005" transform="translate(1.656 0.959)" fill="#7db1c7"/>
  <path id="Path_4833" data-name="Path 4833" d="M92.761,43.653a5.457,5.457,0,1,0,5.457,5.456,5.463,5.463,0,0,0-5.457-5.456m1.78,8.466c-.035.036-.065.077-.1.111a.07.07,0,0,1-.1,0,3.467,3.467,0,0,1-1.576.391c-.041,0-.079-.011-.118-.012a.1.1,0,0,1-.14.049c-.042-.021-.078-.052-.117-.076a3.5,3.5,0,1,1,2.482-6.264,2.04,2.04,0,0,1,1.395,1.6c.007.1-.141.111-.164.022a1.632,1.632,0,0,0-.346-.642,3.462,3.462,0,0,1-1.211,4.824" transform="translate(1.782 0.891)" fill="#7db1c7"/>
  <path id="Path_4834" data-name="Path 4834" d="M60.193,38.684a10.817,10.817,0,0,0,3.9.57,19.9,19.9,0,0,0,9.028-2.07,8.662,8.662,0,0,0,4.836-6.062,4.52,4.52,0,0,0-1.085-4.085,4.263,4.263,0,0,0-3.055-1.179q-.118,0-.239.006l-1.114.049.05-1.114A4.31,4.31,0,0,0,71.341,21.5a4.258,4.258,0,0,0-3.053-1.179,5.764,5.764,0,0,0-1.031.095,8.659,8.659,0,0,0-6.062,4.837c-2.4,4.529-2.491,10.683-1.5,12.93a.974.974,0,0,0,.5.5m5.194-17.173a.031.031,0,0,1,.052.021c-.028.252-.052.5-.084.755,0,.031-.05.032-.048,0,.016-.22.04-.442.062-.662a4.448,4.448,0,0,0-.745,1.043c-.021.041-.084.005-.062-.036a4.522,4.522,0,0,1,.824-1.121M60.541,36.036c.174-.384.352-.769.532-1.154a20.508,20.508,0,0,1,.3-3.967c-.051,0-.1-.04-.078-.1l.009-.02c.047-.129.11-.252.16-.381.047-.236.1-.473.156-.711-.047.114-.1.224-.149.338-.037.094-.187.057-.154-.042a13.535,13.535,0,0,1,.652-1.541,14.059,14.059,0,0,1,.946-2.288,9.181,9.181,0,0,1,1.3-1.878c.279-.458.547-.921.845-1.365a5.981,5.981,0,0,1,1.5-1.639.062.062,0,0,1,.091.037,1.158,1.158,0,0,1-.1.894c-.03.054-.11.006-.083-.049a.884.884,0,0,0,.115-.573c.023-.128-.007-.152-.093-.074a.346.346,0,0,0-.137.091,3.5,3.5,0,0,0-.418.406,8.52,8.52,0,0,0-.8,1.034c-.185.272-.344.56-.52.838a5.832,5.832,0,0,1,3-1.554,3.824,3.824,0,0,1,.691-.065,2.3,2.3,0,0,1,1.669.61,2.586,2.586,0,0,1,.545,2.36,2.294,2.294,0,0,0,.564,2.073,2.159,2.159,0,0,0,1.546.6,2.969,2.969,0,0,0,.515-.047,3.853,3.853,0,0,1,.694-.066,2.29,2.29,0,0,1,1.668.611,2.582,2.582,0,0,1,.545,2.36,6.7,6.7,0,0,1-3.834,4.693,14.823,14.823,0,0,1-3.354,1.246c-.045.063-.086.13-.133.192l-.016.024h0l-.01.016c-.054.069-.169-.021-.121-.094l.055-.083c-.705.166-1.382.283-2,.364l-.1.178a.117.117,0,0,1-.2-.118l.013-.023c-.626.073-1.172.111-1.609.131-.07.124-.145.247-.215.372s-.254.015-.193-.113c.04-.084.087-.165.128-.249-.186.005-.347.007-.469.007a12.957,12.957,0,0,1-1.935-.129l-.738-.114-.114-.738c-.046-.294-.08-.644-.1-1.03l-.395.822c-.051.105-.2.013-.156-.091m5.782-13.761a.012.012,0,0,1,0,.023.012.012,0,0,0,0-.023" transform="translate(1.206 0.415)" fill="#7db1c7"/>
  <path id="Path_4835" data-name="Path 4835" d="M79.976,12.785a5.456,5.456,0,1,0,3.859,1.6,5.417,5.417,0,0,0-3.859-1.6M81.922,21.9a1.674,1.674,0,0,1-1.093.3c-.031,0-.031-.051,0-.048a1.649,1.649,0,0,0,1.077-.276c.017-.012.033.015.016.027m.537-1.173a3.488,3.488,0,0,1-2.483,1.029,3.552,3.552,0,0,1-.781-.094c.074.111-.086.212-.176.135-.069-.061-.122-.141-.187-.208h0c-.041-.02-.074-.05-.114-.072a3.444,3.444,0,0,1-2.215-2.9c-.015.276-.032.551-.023.828a.012.012,0,0,1-.024,0A9.9,9.9,0,0,1,76.48,18.4c0-.051-.015-.1-.015-.153a3.484,3.484,0,0,1,1.029-2.484c.022-.023.051-.04.076-.062a1.077,1.077,0,0,1,.544-.423c.088-.055.181-.1.273-.146.027-.017.051-.04.078-.056a3.169,3.169,0,0,1,1.857-.433,2.3,2.3,0,0,1,2.66,1.42c.028.067-.085.113-.117.049a2.477,2.477,0,0,0-1.606-1.288.1.1,0,0,0-.017,0,3.252,3.252,0,0,1,.671.306.124.124,0,0,1,.01.194,3.542,3.542,0,0,1,.537.441,3.452,3.452,0,0,1,.967,3.112c.051-.068.114-.127.161-.2.029-.043.1,0,.069.04-.08.121-.183.221-.271.335a3.481,3.481,0,0,1-.927,1.676" transform="translate(1.521 0.261)" fill="#7db1c7"/>
  <path id="Path_4836" data-name="Path 4836" d="M49.019,39.518a.972.972,0,1,0,.974.972.973.973,0,0,0-.974-.972" transform="translate(0.98 0.806)" fill="#7db1c7"/>
  <path id="Path_4837" data-name="Path 4837" d="M41.463,49.017a.972.972,0,1,0-.972.973.974.974,0,0,0,.972-.973" transform="translate(0.807 0.98)" fill="#7db1c7"/>
  <path id="Path_4838" data-name="Path 4838" d="M49.018,56.576a.972.972,0,1,0,.972.972.974.974,0,0,0-.972-.972" transform="translate(0.98 1.155)" fill="#7db1c7"/>
  <path id="Path_4839" data-name="Path 4839" d="M57.548,48.047a.973.973,0,1,0,.972.972.974.974,0,0,0-.972-.972" transform="translate(1.155 0.98)" fill="#7db1c7"/>
  <path id="Path_4840" data-name="Path 4840" d="M43.853,16.551a.057.057,0,0,0-.1-.044,9.01,9.01,0,0,0-1.507,3.453c-.008.038.039.073.068.041a3.444,3.444,0,0,0,.626-.97c.011-.029-.029-.053-.042-.024a3.534,3.534,0,0,1-.519.786,9.465,9.465,0,0,1,1.313-2.979,16.318,16.318,0,0,1-.731,2.776c-.161.4-.324.805-.485,1.208-.02.05.065.087.088.037l0-.011v0q.219-.481.406-.974c-.03.085-.07.165-.1.25-.012.035.042.048.055.015.215-.519.414-1.045.616-1.568.212-.494.455-.973.7-1.45-.007.068-.015.136-.02.2,0,.02.031.019.032,0s.018-.158.042-.313c.043-.081.076-.165.118-.245a1.11,1.11,0,0,1,.159-.266l0,.021a3.817,3.817,0,0,0-.088.422c-.081.345-.169.689-.269,1.029-.431,1.469-1.005,2.893-1.576,4.312a.01.01,0,0,0,.018.008q.334-.658.665-1.316c.007-.013-.013-.026-.02-.011q-.211.418-.421.838c-.058.115-.117.263-.173.363a3.014,3.014,0,0,0,.148-.37c.237-.6.472-1.2.694-1.8a28.763,28.763,0,0,0,.989-3.243c-.033.216-.065.432-.1.648q-.171,1.145-.341,2.29-.352,2.369-.726,4.737a.076.076,0,0,0,.146.04c.834-2.491,1.591-5.009,2.38-7.514.017-.054-.066-.077-.085-.023-.726,2.22-1.471,4.437-2.173,6.665q.5-3.747,1.034-7.491c0-.019-.018-.037-.035-.02a1.6,1.6,0,0,0-.39.968c-.155.289-.312.577-.455.871.235-.626.458-1.256.679-1.887.088-.252.183-.5.268-.754.009-.026-.031-.036-.041-.011l-.324.81q-.464,1.148-.923,2.3a16.528,16.528,0,0,0,.4-1.8m.714-.309c.077-.041.081.006.031.12-.1.18-.189.368-.288.55.054-.323.144-.72.257-.67m-.453.631q.109-.279.216-.557c-.161.458-.321.917-.493,1.371-.156.412-.323.82-.488,1.23-.119.285-.242.568-.348.859L43,19.785c.059-.156.107-.315.161-.473q.479-1.22.956-2.439" transform="translate(0.862 0.311)" fill="#7db1c7"/>
  <path id="Path_4841" data-name="Path 4841" d="M46.573,19.364a60.142,60.142,0,0,1-1.746,6.228,51.578,51.578,0,0,1,.988-7.914c.017-.082-.106-.117-.127-.035q-1,4.009-1.99,8.02c-.03.123.161.177.191.053q.718-2.968,1.422-5.938a66.221,66.221,0,0,0-.739,6.606c-.007.127.168.133.207.029a43.032,43.032,0,0,0,1.3-4.163,37.625,37.625,0,0,0-.464,5.129.135.135,0,0,0,.264.036c.436-1.8.844-3.6,1.25-5.406-.346,2.248-.7,4.495-1.074,6.74a.128.128,0,0,0,.247.068c.354-1.183.668-2.381.964-3.585a32.6,32.6,0,0,0-.292,3.989.116.116,0,0,0,.227.031q1-4.03,1.949-8.078c-.376,3.3-.8,6.59-1.212,9.882-.022.182-.046.364-.068.547-.012.095.147.115.167.022.031-.139.059-.279.09-.417.685-3.138,1.339-6.282,2.009-9.421-.026.182-.051.363-.076.545-.122.877-.253,1.752-.382,2.628l-.805,5.5c-.02.133.173.2.208.057Q50.2,26,51.265,21.465q-.556,4.875-1.171,9.743-.116.94-.233,1.88c-.016.128.2.154.222.031.172-.777.335-1.555.5-2.333q1.094-5.039,2.162-10.084-.631,4.339-1.267,8.678c-.021.152.2.222.236.065a44.373,44.373,0,0,1,2.8-9.827,81.5,81.5,0,0,1-2.095,8.664.134.134,0,0,0,.257.071q.768-2.507,1.521-5.02a18.128,18.128,0,0,1,1.459-3.8c-.081.519-.165,1.038-.268,1.553-.6,1.9-1.168,3.815-1.656,5.753a.117.117,0,0,0,.074.146.132.132,0,0,0,.179-.077c.064-.167.116-.34.178-.508a36.226,36.226,0,0,0,1.567-5.647c.108-.351.214-.7.326-1.051.122-.383.232-.77.358-1.152.04-.122-.151-.173-.193-.053-.085.247-.156.5-.24.744.018-.123.045-.246.061-.369a.134.134,0,0,0-.194-.149.139.139,0,0,0-.057.043,12.566,12.566,0,0,0-1.591,3.6c.263-1.2.51-2.4.723-3.613.022-.126-.153-.223-.22-.093a30.361,30.361,0,0,0-2.463,7.129q.579-4.064,1.158-8.13c.018-.126-.168-.185-.2-.053-.941,4.4-1.914,8.793-2.851,13.193.415-3.654.837-7.308,1.3-10.956.015-.113-.169-.134-.2-.027-.724,2.88-1.417,5.768-2.1,8.658.364-2.747.724-5.494,1.109-8.238.01-.071-.1-.105-.111-.031-.7,3.22-1.415,6.437-2.11,9.657.4-3.395.793-6.791,1.255-10.177.014-.108-.14-.16-.169-.047-.733,2.837-1.426,5.685-2.106,8.535a38.238,38.238,0,0,1,.526-5.018c.3-1.395.582-2.795.819-4.2.021-.128-.171-.184-.2-.054-.484,2.5-1.073,4.972-1.7,7.436q.536-3.609,1.111-7.212c.02-.13-.17-.189-.2-.055-.557,2.346-1.13,4.69-1.671,7.039a45.932,45.932,0,0,1,.7-6.088c.214-1.005.41-2.013.569-3.024,0-.019-.017-.024-.026-.039s-.016-.04-.037-.044a.057.057,0,0,0-.074.045c-.155.8-.312,1.6-.462,2.407" transform="translate(0.892 0.345)" fill="#7db1c7"/>
  <path id="Path_4842" data-name="Path 4842" d="M66.178,22.236a.012.012,0,0,1,0,.023" transform="translate(1.351 0.454)" fill="none" stroke="#7db1c7" stroke-linecap="round" stroke-linejoin="round"/>
  <path id="Path_4843" data-name="Path 4843" d="M64.515,22.644A4.448,4.448,0,0,1,65.26,21.6c-.022.22-.045.442-.062.662,0,.032.044.03.048,0,.033-.251.056-.5.084-.755a.031.031,0,0,0-.052-.021,4.522,4.522,0,0,0-.824,1.121c-.021.041.041.077.062.036" transform="translate(1.315 0.438)" fill="#7db1c7"/>
  <path id="Path_4844" data-name="Path 4844" d="M61.408,30.862q.628-.94,1.254-1.879c-.424.72-.844,1.444-1.252,2.173a.12.12,0,0,0,.207.121Q62.772,29.24,64,27.247q.591-.957,1.2-1.9c.2-.314.408-.629.615-.941.134-.2.541-.988.876-1.142-1.182,3.472-3.87,6.115-5.335,9.45a.125.125,0,0,0,.215.126c.759-1.231,1.5-2.474,2.243-3.714L64.911,27.3q.272-.456.546-.91c.036-.057.081-.146.132-.244.082-.138.168-.272.247-.412a.773.773,0,0,1,.333-.3c-.124.331-.248.66-.4.98a.06.06,0,0,0,.1.06,7.281,7.281,0,0,0,.563-1.124.108.108,0,0,0-.074-.133.5.5,0,0,0-.264.017A13.358,13.358,0,0,0,67,23.151.124.124,0,0,0,66.915,23c-.326-.087-.583.155-.792.449a1.848,1.848,0,0,0,.051-.5.088.088,0,0,0-.132-.076,4.1,4.1,0,0,0-1.371,1.454q-.706.995-1.323,2.047c-.222.38-.414.778-.619,1.168l-.647.985c.508-1.134,1.049-2.253,1.66-3.334.256-.453.545-.887.823-1.326.177-.278.336-.565.521-.838a8.615,8.615,0,0,1,.8-1.034,3.655,3.655,0,0,1,.418-.406.361.361,0,0,1,.137-.091c.087-.078.117-.052.094.074a.889.889,0,0,1-.116.574c-.028.054.054.1.083.048a1.158,1.158,0,0,0,.105-.894.062.062,0,0,0-.091-.037,5.966,5.966,0,0,0-1.5,1.639c-.3.444-.567.907-.845,1.365-.19.312-.394.615-.577.931-.508.876-.967,1.774-1.4,2.688-.1.18-.184.364-.272.547a13.536,13.536,0,0,0-.652,1.541c-.034.1.116.136.154.043.046-.114.1-.224.149-.339.141-.344.3-.682.448-1.021.2-.3.39-.594.585-.891a27.8,27.8,0,0,0-1.19,2.623c-.049.129-.112.252-.16.381l-.008.02c-.022.061.026.1.078.1a.084.084,0,0,0,.081-.034m2-4.247q.566-.98,1.211-1.912a5.228,5.228,0,0,1,1.366-1.579,3.331,3.331,0,0,1-.6,1.489c-.39.594-.78,1.189-1.158,1.79Q63.5,27.565,62.8,28.745a.054.054,0,0,0-.1-.037l-.968,1.386a28.7,28.7,0,0,1,1.679-3.479" transform="translate(1.25 0.434)" fill="#7db1c7"/>
  <path id="Path_4845" data-name="Path 4845" d="M60.668,36c.132-.274.262-.549.395-.822l.559-1.164v0a38,38,0,0,1,4.132-7.012,1.007,1.007,0,0,1,.065.543,3.369,3.369,0,0,0-.416.5,24.723,24.723,0,0,0-1.326,2.436c-.945,1.8-1.922,3.586-2.83,5.405-.061.124.122.234.188.11q1.332-2.53,2.7-5.037c.457-.836.93-1.663,1.4-2.49a5.015,5.015,0,0,0,.329-.643,1.9,1.9,0,0,1,.99-.629c.136-.032.078-.233-.057-.207a1.789,1.789,0,0,0-.83.407.961.961,0,0,0-.133-.586.075.075,0,0,0-.118-.015,38.092,38.092,0,0,0-4.678,7.963q-.269.579-.532,1.155c-.048.1.105.2.156.091m4.277-6.644c-.1.184-.2.365-.3.548.205-.393.407-.788.619-1.178a6.119,6.119,0,0,1,.384-.615c-.2.461-.518.912-.7,1.245" transform="translate(1.235 0.546)" fill="#7db1c7"/>
  <path id="Path_4846" data-name="Path 4846" d="M65.617,29.761a24.184,24.184,0,0,0-1.408,2.083c-.656,1.064-1.247,2.166-1.826,3.274a.086.086,0,0,0-.141.032l-.569,1.328c-.055.128.123.242.191.112.766-1.472,1.535-2.947,2.395-4.367.414-.683.849-1.354,1.318-2a8.231,8.231,0,0,1,.794-.962c.265-.269.592-.465.852-.736a.073.073,0,0,0-.07-.12,3.493,3.493,0,0,0-1.536,1.358" transform="translate(1.258 0.58)" fill="#7db1c7"/>
  <path id="Path_4847" data-name="Path 4847" d="M66.335,30.051a22.866,22.866,0,0,0-1.221,1.986c-.476.848-.94,1.7-1.445,2.53a10.348,10.348,0,0,0-.935,1.412c-.071.131.115.3.216.167.007-.009.013-.019.021-.029h0l.005-.01a27.818,27.818,0,0,0,2.217-3.6c.35-.626.706-1.248,1.1-1.847A4.577,4.577,0,0,1,67.657,29.1l.053.129a.1.1,0,0,0,.192-.053c-.014-.107-.031-.213-.045-.32-.011-.08-.105-.108-.171-.1-.614.105-1.021.822-1.35,1.292" transform="translate(1.28 0.587)" fill="#7db1c7"/>
  <path id="Path_4848" data-name="Path 4848" d="M67.233,35.744q.478-.828.955-1.654a14.115,14.115,0,0,1,1.688-2.544,7.066,7.066,0,0,1-.9,2.2c-.086.149-.171.3-.254.45-.413.735-.864,1.448-1.319,2.158-.077.119.108.268.2.154a.251.251,0,0,0,.019-.027h0l.005-.008c1.094-1.374,1.685-3.067,2.924-4.329a1.213,1.213,0,0,1,.039.395c-.007.109.16.128.189.026a1.1,1.1,0,0,0-.04-.713.136.136,0,0,0-.223-.058,4.748,4.748,0,0,0-.6.594c.057-.134.117-.264.167-.4.108-.284.172-.658-.167-.8a.133.133,0,0,0-.135.036,7.259,7.259,0,0,0-.551.664l-.122-.427a.142.142,0,0,0-.208-.085,2.913,2.913,0,0,0-.315.3,7.9,7.9,0,0,0,.546-1.517.144.144,0,0,0-.21-.161,4.445,4.445,0,0,0-1.531,1.564,1.146,1.146,0,0,0-.055-.422.132.132,0,0,0-.218-.058,15.813,15.813,0,0,0-1.931,2.769c-.141.243-.283.485-.422.728a.088.088,0,0,0-.137.01c-.5.731-1,1.459-1.486,2.194a.118.118,0,0,0,.132.17c.481-.112.742-.664.985-1.046.333-.52.642-1.056.954-1.589A19.433,19.433,0,0,1,67.14,31.47a.891.891,0,0,1-.066.577.076.076,0,0,0-.005.047c-.208.362-.4.728-.6,1.067-.736,1.293-1.457,2.608-2.106,3.949-.041.084-.087.165-.127.25-.061.128.121.239.192.112s.145-.248.216-.372q.412-.716.831-1.43a.052.052,0,0,0-.028-.078c.364-.689.729-1.378,1.113-2.054.357-.627.719-1.254,1.111-1.861a4.5,4.5,0,0,1,1.062-1.206c-.636,2.1-2.155,3.782-3.119,5.732a.136.136,0,0,0,.235.137l1.61-2.5a12.685,12.685,0,0,1,1.459-2.071c.036.089.071.178.106.266a.117.117,0,0,0,.06.064c-.394.561-.737,1.159-1.077,1.756-.589,1.037-1.178,2.072-1.756,3.114l-.012.023a.117.117,0,0,0,.2.118l.1-.178.68-1.158c.006-.011,0-.02,0-.031" transform="translate(1.288 0.612)" fill="#7db1c7"/>
  <path id="Path_4849" data-name="Path 4849" d="M69.2,35.628c.005-.007,0-.014,0-.021A10.146,10.146,0,0,1,71.256,32.5a1.956,1.956,0,0,1-.315.823q-.219.438-.445.873c-.3.565-.59,1.131-.894,1.691a.1.1,0,0,0,.172.1c.653-1.046,1.284-2.09,2.032-3.07a2.463,2.463,0,0,1-.446,1.334c-.239.472-.483.943-.712,1.419a.076.076,0,0,0,.132.077q.856-1.341,1.709-2.682c.232.213-.027.7.264.911a.292.292,0,0,0,.46-.11c.034-.1-.12-.139-.154-.042s-.177.06-.229.011a.4.4,0,0,1-.079-.248c-.007-.114.008-.229-.008-.342a.461.461,0,0,0-.235-.368.082.082,0,0,0-.109.029q-.579.912-1.156,1.824c.109-.244.219-.488.338-.728a2.009,2.009,0,0,0,.377-1.373.119.119,0,0,0-.2-.052,13.849,13.849,0,0,0-.932,1.26c.132-.26.266-.519.4-.779a.974.974,0,0,0,.164-.743.077.077,0,0,0-.112-.046c-1.247.926-1.722,2.449-2.5,3.742l-.34.51-.055.084c-.048.071.067.162.121.093l.01-.016h0l.016-.024c.047-.062.089-.128.133-.192q.236-.337.44-.7Z" transform="translate(1.396 0.658)" fill="#7db1c7"/>
  <path id="Path_4850" data-name="Path 4850" d="M82.356,45.895a11.984,11.984,0,0,1-1.18-1.263,9.645,9.645,0,0,0-.991-1.424l0,0-.019-.024c-.091-.106-.259.031-.191.147a12.575,12.575,0,0,0,.985,1.414,9.146,9.146,0,0,1,.693,1.481c-.312-.419-.622-.839-.915-1.27a16.786,16.786,0,0,0-1.577-2.532c-.078-.1-.245-.015-.179.1.505.918,1.061,1.805,1.646,2.673a16.382,16.382,0,0,1,.8,1.907l0,.007-.005-.005c-.34-.342-.667-.694-.978-1.06a16.968,16.968,0,0,0-2.48-3.847c-.073-.093-.2.026-.153.117a17.6,17.6,0,0,0,2.415,3.772,7.332,7.332,0,0,1,.443,1.539c-.519-.6-1.014-1.224-1.492-1.859a32.464,32.464,0,0,0-2.332-3.542c-.056-.077-.11-.153-.166-.229-.071-.1-.229-.013-.166.1.03.051.062.1.092.151a36.579,36.579,0,0,0,2.519,3.808,12.415,12.415,0,0,1,1.028,2.6c-.79-.887-1.539-1.8-2.236-2.757-.714-1.164-1.445-2.316-2.209-3.449-.039-.058-.076-.117-.114-.174a.087.087,0,0,0-.15.088c.024.045.052.087.077.132a35.53,35.53,0,0,0,2.521,3.9,10.816,10.816,0,0,1,1.669,3.82c-.3-.311-.6-.631-.887-.954a34.7,34.7,0,0,0-4.272-6.14c-.082-.093-.214.024-.163.126a28.265,28.265,0,0,0,4.269,6.2c.289.539.55,1.094.81,1.649q-.883-.955-1.717-1.953a57.718,57.718,0,0,0-4.037-5.5c-.077-.092-.224.027-.163.126a47.6,47.6,0,0,0,4.311,5.9c.294.467.572.943.852,1.418-2.1-2.4-4.111-4.88-5.979-7.472l-.005-.006c-.064-.091-.212-.007-.153.085v0q3.141,4.316,6.131,8.745a39.21,39.21,0,0,1-4.736-4.831q-1.206-1.658-2.433-3.3c-.069-.093-.137-.188-.207-.281-.081-.108-.262-.011-.186.109.062.1.135.191.2.29a37.256,37.256,0,0,0,2.95,3.965q1.163,1.607,2.293,3.238a21,21,0,0,1-2.683-2.283l-2.941-3.751c-.072-.093-.218.027-.16.124a20.329,20.329,0,0,0,3.217,4.064l.028.035c.572.723,1.151,1.442,1.711,2.176a4.693,4.693,0,0,1,.383.505.5.5,0,0,1,.153.377q.15.377-.131.1a4.432,4.432,0,0,1-.843-.588c-.46-.338-.89-.713-1.315-1.092a62.509,62.509,0,0,0-4.337-5.554A.1.1,0,0,0,69.6,45.7a.129.129,0,0,0-.136.111.116.116,0,0,0,.008.078,19.881,19.881,0,0,0,1.732,2.75c-.539-.635-1.094-1.256-1.674-1.856-.1-.1-.239.028-.187.145a14.346,14.346,0,0,0,.836,1.577c-.514-.654-1.048-1.293-1.611-1.909-.086-.094-.164-.193-.251-.286a.118.118,0,0,0-.185.143c.07.116.154.223.227.339a30.254,30.254,0,0,0,3.657,4.722c.154.245.3.5.447.745q-.684-.628-1.309-1.308a34.765,34.765,0,0,0-2.82-3.777c-.088-.1-.249.029-.183.141a22.4,22.4,0,0,0,2.808,3.773c.22.342.434.689.644,1.038a21.947,21.947,0,0,1-1.644-1.774,12.963,12.963,0,0,0-1.983-2.841c-.081-.088-.222.024-.163.127a22.412,22.412,0,0,0,2.005,2.891c.142.279.266.567.387.858q-.415-.341-.795-.716A10.129,10.129,0,0,0,67.656,48.5c-.088-.082-.24.023-.171.133a12.079,12.079,0,0,0,1.705,2.12,10.633,10.633,0,0,1,.546,1.022A17.3,17.3,0,0,1,67.1,48.489a.079.079,0,0,0-.137.081,17.41,17.41,0,0,0,3.042,3.776c.073.069.222,0,.182-.105a9.233,9.233,0,0,0-.418-.94c.213.187.427.372.654.545.072.055.188-.037.156-.12-.083-.218-.184-.428-.278-.641a22.1,22.1,0,0,0,1.78,1.84.118.118,0,0,0,.185-.142c-.16-.286-.334-.563-.5-.844.371.365.749.724,1.146,1.063a.12.12,0,0,0,.188-.145c-.1-.184-.219-.359-.326-.542.682.672,1.388,1.32,2.132,1.928.1.08.254-.019.183-.141-.237-.4-.495-.795-.746-1.19.245.167.491.333.747.486a.139.139,0,0,0,.189-.189c-.233-.368-.48-.727-.72-1.089a17.32,17.32,0,0,0,1.831,1.289.123.123,0,0,0,.179-.072c.21-.541-.259-.968-.58-1.358-.371-.454-.73-.917-1.092-1.38a19.523,19.523,0,0,0,2.151,1.655c.093.06.222-.062.156-.156q-.836-1.174-1.679-2.342a34.487,34.487,0,0,0,3.726,3.464c.093.073.263-.022.182-.14-1.113-1.592-2.242-3.171-3.362-4.757,1.052,1.306,2.139,2.583,3.272,3.817.088.095.239-.027.177-.136-.283-.492-.581-.972-.876-1.455.4.452.8.905,1.223,1.343.1.108.247-.03.194-.15-.255-.577-.544-1.137-.831-1.7.192.2.369.409.568.6.067.065.211.023.2-.083a7.886,7.886,0,0,0-1.1-3.055c.407.505.832,1,1.267,1.477.049.054.093.112.143.165a.108.108,0,0,0,.18-.1c-.051-.218-.118-.43-.182-.642a12.378,12.378,0,0,0-.6-1.592c.29.364.589.722.891,1.077.061.07.117.145.179.214a.116.116,0,0,0,.2-.081c-.015-.159-.05-.311-.078-.465a6.8,6.8,0,0,0-.242-.974c.2.222.41.437.622.65.116.117.221.244.342.358a.1.1,0,0,0,.166-.1c-.056-.179-.129-.349-.191-.526-.1-.3-.207-.594-.327-.884.172.24.334.486.513.72.055.072.1.149.157.22.08.1.237-.009.207-.119-.038-.135-.089-.261-.131-.393a9.556,9.556,0,0,0-.417-1.074c.216.233.422.473.658.691.032.03.057.065.09.095.114.1.284-.066.169-.169-.055-.05-.1-.109-.152-.16m-9.481,4.291a19.271,19.271,0,0,1-2.405-3.1q1.255,1.514,2.405,3.1M69.3,47.791c.663.789,1.283,1.612,1.869,2.458A30.029,30.029,0,0,1,69.3,47.791m5.151,5.741a30.075,30.075,0,0,1-2.234-2.138c-.183-.291-.373-.574-.565-.859a14.34,14.34,0,0,0,2.179,2.01c.214.323.417.656.62.987m-4.528-5.958a38.342,38.342,0,0,1,3.41,4.244,13.991,13.991,0,0,1-3.41-4.244m4.753,5.233c-.247-.161-.487-.33-.721-.5-.559-.844-1.157-1.66-1.781-2.456A18.9,18.9,0,0,0,73.8,51.474c.3.439.592.885.884,1.332m.4-7.136c.254.332.494.672.74,1.009-.248-.336-.5-.667-.74-1.009m.1-1.437a33.3,33.3,0,0,1,2.8,4.05,28.542,28.542,0,0,1-2.8-4.05m3.321-1.016a15.311,15.311,0,0,1,1.363,2.105,17.46,17.46,0,0,1-1.363-2.105" transform="translate(1.366 0.856)" fill="#7db1c7"/>
  <path id="Path_4851" data-name="Path 4851" d="M74.213,67.046a10.871,10.871,0,0,0-.174,2.834c.011.154.264.215.291.04,0-.013,0-.027,0-.04h0v-.005a16.823,16.823,0,0,0,.165-2.743,10.63,10.63,0,0,1,.314-1.254,13.194,13.194,0,0,1,.193,3.8c-.018.194.285.193.3,0,.035-.37.07-.741.105-1.111a.118.118,0,0,0-.049-.114,13.508,13.508,0,0,0-.37-3.2l0-.021a.123.123,0,0,0-.076-.089.16.16,0,0,0-.212.089c-.1.271-.18.547-.259.822-.014-.179-.023-.357-.044-.536-.016-.143-.245-.207-.276-.038-.209,1.13-.343,2.266-.444,3.408q-.1-1.433-.2-2.864c-.008-.119-.189-.2-.249-.067-.053.114-.09.232-.139.347.023-.658.028-1.317-.006-1.979a.139.139,0,0,0-.279,0c-.093.8-.167,1.594-.249,2.391-.05-.92-.127-1.839-.26-2.755-.019-.138-.239-.128-.267,0-.19.84-.331,1.687-.452,2.536-.013-1.323-.063-2.648-.159-3.972-.008-.129-.012-.256-.022-.384a.128.128,0,0,0-.256,0c-.007.085-.01.17-.017.256-.053.621-.092,1.243-.13,1.864-.063-.57-.116-1.142-.2-1.711-.022-.152-.246-.128-.285,0-1.076,3.579-.069,7.4-.932,10.991-.037-3.891.015-7.78.092-11.669.007-.4.011-.791.019-1.187a.137.137,0,0,0-.273,0c-.017.366-.038.733-.056,1.1q-.237,4.772-.488,9.543-.135-4.707-.271-9.413c0-.143-.229-.187-.258-.036-.8,4.087.268,8.277-.392,12.36q-.112-1.88-.182-3.76c.024-1.674-.051-3.356-.112-5.038q-.015-2.025.014-4.049c.005-.285,0-.569.009-.855,0-.16-.235-.156-.246,0-.019.268-.021.538-.034.806-.063,1.4-.041,2.812.007,4.219q.018,2.3.1,4.606a25.55,25.55,0,0,1-.408,4.48,12.947,12.947,0,0,1-.173-2.771c.02-1.184.02-2.365-.028-3.549a54.78,54.78,0,0,0-.708-6.769.131.131,0,0,0-.251,0c-.646,4.127.393,8.3-.038,12.423-.016-.174-.033-.349-.048-.523a60.338,60.338,0,0,0-.5-10.981v-.008h0c0-.013,0-.028,0-.041-.024-.171-.3-.126-.3.041,0,3.633.173,7.261.5,10.879-.01.25-.023.5-.037.749a55.754,55.754,0,0,1-.75-6.228c-.074-1.928-.176-3.854-.277-5.782-.008-.163-.26-.165-.256,0q.026.9.055,1.807c-.029-.215-.044-.432-.076-.647v-.005h0c0-.012,0-.023,0-.035-.021-.149-.255-.108-.256.035q-.04,4.437.337,8.859c-.014.22-.029.44-.046.66a29.877,29.877,0,0,1-.779-5.838c0-1.547-.014-3.094-.065-4.641a.125.125,0,0,0-.249,0c-.01,1.69-.01,3.389.08,5.079,0,1.142-.043,2.283-.076,3.423-.194-1.9-.283-3.8-.308-5.706a39.094,39.094,0,0,0-.012-4c0-.027,0-.053,0-.079a.1.1,0,0,0-.209,0c0,.034,0,.067,0,.1-.011,1.45-.01,2.9.012,4.35-.058,1.088-.174,2.171-.324,3.252a40.35,40.35,0,0,1,.021-4.187c.1-.854.179-1.71.219-2.57,0-.109-.153-.1-.166,0-.122.964-.2,1.932-.247,2.9-.094.742-.218,1.48-.358,2.215-.022-.695-.029-1.39-.006-2.085.078-1.278.185-2.553.357-3.823.005-.033.007-.065.011-.1.009-.066-.091-.1-.1-.029-.007.046-.011.092-.018.137-.016.1-.027.193-.041.289a.85.85,0,0,0-.019.136,31.521,31.521,0,0,0-.313,3.317c-.029.371-.07.743-.093,1.115a.063.063,0,0,0,.059.068q0,.825.037,1.651c0,.081.128.106.146.02q.162-.758.29-1.519c-.019,1.158.005,2.317.086,3.474.007.1.165.136.184.026.136-.817.241-1.638.326-2.459a51.37,51.37,0,0,0,.434,5.246v.007h0l0,.032c.018.134.221.093.227-.031.043-.964.05-1.929.071-2.893a24.721,24.721,0,0,0,.773,4,.13.13,0,0,0,.253-.012c.026.262.05.526.08.788.023.221.041.443.066.664a.124.124,0,0,0,.248,0c0-.123,0-.247,0-.37q.034-1.376.028-2.75.21,1.593.538,3.173c.019.09.034.182.053.272.039.179.291.123.3-.041v-.021l0,.007a.165.165,0,0,0,.131.071.112.112,0,0,0,.122-.1c0-.012,0-.026.005-.038h0c.767-4.205-.341-8.452.064-12.668a53.709,53.709,0,0,1,.556,6.2c.064,2.155-.3,4.479.34,6.569a.144.144,0,0,0,.276,0,19.618,19.618,0,0,0,.37-2.368c.04.779.074,1.558.124,2.337a.132.132,0,0,0,.258.035c.966-3.927-.015-7.965.37-11.932.1,3.869.189,7.74.3,11.609a.15.15,0,0,0,.3,0c.094-1.958.194-3.915.289-5.872-.015,1.8-.019,3.606.007,5.409a.153.153,0,0,0,.3.041c1.289-3.637.2-7.56,1.026-11.263q.194,1.474.294,2.954-.1,2.5-.1,5.01-.006,1.355,0,2.708a.144.144,0,0,0,.288,0c.043-.423.057-.848.088-1.272a.148.148,0,0,0,.18-.132c.06-.646.1-1.292.137-1.937.02-.345.043-.69.057-1.035a42.763,42.763,0,0,1,.6-4.739,29.658,29.658,0,0,1,.2,3.91,11.587,11.587,0,0,0-.168,1.619c-.006.176-.026.349-.023.526a.115.115,0,0,0,.024.058c-.045.567-.1,1.133-.138,1.7-.011.151.244.189.266.037,0-.012,0-.024,0-.037l0-.031q.162-1.117.239-2.238c0-.016.007-.034.011-.05a22.478,22.478,0,0,0,.489-3.271c.064-.185.143-.366.216-.549q.144,1.955.283,3.908l.012.166a.131.131,0,0,0,.262,0c0-.049.009-.1.011-.147a35.762,35.762,0,0,1,.388-3.749c0,.083,0,.165,0,.248M65.6,70.176c-.1-1.552-.172-3.105-.21-4.659.135,1.55.2,3.1.21,4.659m-.991,2.678c-.019-.214-.046-.428-.064-.643.021-.309.051-.618.065-.928.005.523,0,1.047,0,1.57m-.388-7.212c.119,1.347.159,2.7.149,4.048q-.118-2.022-.149-4.048m7.043-1.448c.068,1.509.073,3.02.024,4.531-.012-.872-.055-1.745-.118-2.615q.037-.958.094-1.915" transform="translate(1.256 1.233)" fill="#7db1c7"/>
  <path id="Path_4852" data-name="Path 4852" d="M44.774,70.651c-.071-.1-.237-.005-.165.1.031.045.063.089.095.133,2.039,2.927,4.178,5.848,6.495,8.591a2.826,2.826,0,0,1,.529,1.24,33.031,33.031,0,0,1-3.572-4.076c-1.3-1.558-2.583-3.127-3.9-4.669-.067-.08-.207.027-.146.113,1.1,1.542,2.165,3.1,3.245,4.655a37.311,37.311,0,0,1,2.174,3.38c.087.159.162.324.244.486-.174-.172-.346-.349-.518-.522a60.011,60.011,0,0,1-5.882-6.905c-.163-.224-.337-.442-.5-.668-.085-.115-.281-.007-.2.114.187.267.387.522.578.786.4.557.805,1.114,1.227,1.655,1.26,1.733,2.479,3.5,3.633,5.3.27.423.544.846.806,1.274a2.947,2.947,0,0,1-.972-.88l-.144-.163c-.213-.238-.426-.476-.634-.717q-.768-.889-1.495-1.813c-.121-.155-.235-.315-.354-.471a22.353,22.353,0,0,0-2.4-3.388c-.041-.048-.076-.1-.117-.147-.092-.105-.269.033-.194.15.064.1.135.2.2.3q1.177,1.817,2.5,3.533a20.817,20.817,0,0,1,1.037,2.136c-.292-.28-.583-.56-.859-.851-.15-.269-.3-.541-.455-.807a27.042,27.042,0,0,0-2.41-3.5c-.376-.456-.765-.9-1.188-1.323-.079-.079-.194.021-.148.115A21.063,21.063,0,0,0,42.4,75.818a22.61,22.61,0,0,0,3.377,4.156c.315.59.62,1.185.913,1.778.006.012.014.027.021.039a1.3,1.3,0,0,1,.234.624q.109.225-.148.339c-.05-.063-.1-.127-.149-.189a2.192,2.192,0,0,1-.4-.439c-.151-.205-.293-.423-.428-.6-.269-.344-.53-.695-.795-1.043a17.3,17.3,0,0,0-2.715-4.241c-.376-.433-.766-.853-1.181-1.25-.058-.056-.16.016-.114.089.387.618.786,1.234,1.191,1.845.136.205.276.407.413.611-.091-.092-.177-.188-.27-.276-.05-.045-.146,0-.12.07.089.248.205.481.309.721-.121-.256-.241-.514-.355-.774-.048-.108-.1-.214-.149-.323-.021-.049-.107-.013-.088.037.069.173.149.341.221.512a28.31,28.31,0,0,0,2.591,4.832c.135.2.26.407.4.605a.085.085,0,0,0,.155-.065c-.022-.158-.058-.313-.089-.469q-.07-.346-.165-.685c.149.145.284.3.441.439.061.053.174,0,.146-.086-.086-.264-.185-.523-.284-.783.242.3.5.6.744.894s.474.585.721.866a.081.081,0,0,0,.127-.016c.293-.411.076-.894-.161-1.318-.081-.144-.163-.282-.229-.407q-.312-.594-.631-1.185c.231.222.45.459.69.671.085.073.258,0,.208-.121-.219-.555-.464-1.1-.724-1.632.481.589.967,1.174,1.474,1.74l.005.007c.418.467.888,1.193,1.591,1.137a.126.126,0,0,0,.108-.189L48.3,80.276q-1.1-1.632-2.212-3.255c.909,1.062,1.868,2.08,2.857,3.071.386.386.763.779,1.16,1.154a.111.111,0,0,0,.173-.134c-.152-.321-.324-.631-.5-.939-.688-1.218-1.516-2.352-2.308-3.507q-1.024-1.5-2.046-2.994,1.326,1.609,2.652,3.214a24.831,24.831,0,0,0,3.717,4.139c.058.045.14-.017.141-.082a1.953,1.953,0,0,0-.217-.876c.653.756,1.316,1.5,2,2.221.053.055.1.115.153.169s.14-.028.09-.09c-.037-.047-.074-.093-.112-.14-3.04-3.821-6.159-7.556-9.027-11.515-.015-.021-.033-.042-.048-.064m-3.229,4.956c.257.258.505.524.741.8A16,16,0,0,1,44.579,79.9c-.137-.183-.28-.362-.415-.545-.661-.888-1.295-1.794-1.918-2.708q-.352-.517-.7-1.039m2.423,3.851a8.753,8.753,0,0,1,.789,1.728,11.271,11.271,0,0,1-2.247-3.564,9.043,9.043,0,0,1,.656.7c.264.38.53.759.8,1.133m1.093,2.928c.008.044.016.088.023.131-.032-.047-.062-.094-.093-.141a35.082,35.082,0,0,1-1.872-3.16,11.414,11.414,0,0,0,1.741,2.308c.081.283.147.57.2.862m.294-.612c-.133-.122-.259-.251-.386-.38a9.638,9.638,0,0,0-.546-1.333c.187.249.372.5.563.747q.2.475.368.965M42.49,75.48c-.236-.371-.452-.758-.671-1.143q.393.4.757.816a24.275,24.275,0,0,1,2.757,4.012A25.132,25.132,0,0,1,42.49,75.48" transform="translate(0.837 1.441)" fill="#7db1c7"/>
  <path id="Path_4853" data-name="Path 4853" d="M50.635,72.664q1.176,1.547,2.342,3.1a13.393,13.393,0,0,1,1.534,2.41c-1.21-1.185-2.4-2.379-3.537-3.64-.178-.234-.349-.472-.528-.705-1.234-1.611-2.514-3.185-3.781-4.769-.094-.117-.29.036-.208.16a48.021,48.021,0,0,0,5.868,7.331,5.112,5.112,0,0,1,.984,1.761,60.277,60.277,0,0,1-4.246-4.351l-2.633-3.324c-.067-.084-.211.027-.15.115.482.708.988,1.409,1.515,2.1q-1.255-1.385-2.555-2.726c-.228-.235-.445-.481-.677-.71-.063-.063-.151.03-.1.095.214.26.448.506.668.761.156.181.315.359.473.539-.041.017-.071.061-.041.1,2.506,3.381,5.206,6.64,7.911,9.861.049.058.153-.02.107-.082-2.151-2.813-4.333-5.623-6.61-8.343.679.737,1.361,1.469,2.036,2.207,1.527,1.67,3.057,3.335,4.618,4.973.067.071.17-.035.107-.107-.669-.762-1.359-1.505-2.038-2.258.552.51,1.118,1,1.707,1.462a.08.08,0,0,0,.133-.077,4.143,4.143,0,0,0-.707-1.495c.642.63,1.3,1.24,1.974,1.815a.143.143,0,0,0,.224-.171c-.948-2.238-2.692-4.12-4.142-6.043l-2.1-2.787a82.256,82.256,0,0,0,7.12,7.385.071.071,0,0,0,.1-.1c-2.95-3.082-5.89-6.148-8.66-9.387-.424-.5-.856-.985-1.271-1.491l-.009,0c-.089-.087-.26.044-.18.15l.009.012,1.195,1.573,3.54,4.658" transform="translate(0.907 1.352)" fill="#7db1c7"/>
  <path id="Path_4854" data-name="Path 4854" d="M49.051,67.158a30.015,30.015,0,0,0,4.827,6.108c.061.064.153-.031.1-.1a54.75,54.75,0,0,1-4-4.951q2.328,2.614,4.443,5.41c.006.007.019,0,.013-.008-1.66-2.259-3.431-4.43-5.237-6.573-.068-.082-.191.022-.143.11" transform="translate(1.001 1.368)" fill="#7db1c7"/>
  <path id="Path_4855" data-name="Path 4855" d="M52.671,69.081c-.809-.983-1.589-1.992-2.408-2.965-.061-.073-.187.022-.134.1.62.918,1.2,1.863,1.8,2.8.029.043.1,0,.069-.04-.322-.528-.647-1.054-.968-1.583.476.606.959,1.207,1.444,1.805.814,1,1.637,2.005,2.512,2.956.074.081.184-.037.118-.118-.794-1-1.621-1.97-2.432-2.955" transform="translate(1.023 1.349)" fill="#7db1c7"/>
  <path id="Path_4856" data-name="Path 4856" d="M36.7,68.583q-.011-3.617-.023-7.235a.142.142,0,0,0,.133-.083.129.129,0,0,0,0-.111l-.15-.314c-.058-.122-.246-.057-.246.067,0,.1,0,.2,0,.3q0,1.644,0,3.289c-.09-1.11-.2-2.22-.311-3.33l-.129-1.249c-.016-.161-.268-.165-.255,0,.032.406.065.812.1,1.219q.248,3.17.505,6.339c.014.418.04.836.044,1.254q-.133-1.7-.267-3.391c-.11-1.394-.156-2.829-.4-4.215a11.03,11.03,0,0,0-.366-1.5c-.045-.139-.272-.123-.264.036q.038.713.073,1.428a68.971,68.971,0,0,1-.1,10.768A99.776,99.776,0,0,1,33.82,61.064c-.016-.235-.036-.47-.052-.705-.01-.154-.247-.157-.242,0,.007.239.013.478.02.716.017.566.032,1.133.049,1.7-.082-.565-.191-1.127-.323-1.685-.068-.285-.121-.571-.206-.854a.15.15,0,0,0-.27-.035,2.363,2.363,0,0,0-.387.957,9.239,9.239,0,0,0-.03,2.1c.058,1.346.21,2.686.368,4.022a42.531,42.531,0,0,1,.455,6.7c-.484-2.489-.852-4.992-1.148-7.506q-.222-2.611-.537-5.213c-.042-.345-.071-.69-.116-1.034-.026-.2-.347-.213-.328,0q.049.542.1,1.086c.2,2.136.4,4.277.657,6.409.032.416.076.833.1,1.25q.141,2.129.214,4.262c.026.727.059,1.456.057,2.184,0,.041,0,.083-.005.124a2.359,2.359,0,0,1-.374,1.4c-.083-.384-.148-.769-.211-1.156a57.349,57.349,0,0,1-.563-7.128c-.053-1.372-.117-2.745-.265-4.11-.088-.816-.046-2.051-.856-2.523a.148.148,0,0,0-.216.088c-.649,4.285.562,8.587.018,12.871a2.358,2.358,0,0,1-.379-.644c0-1.864-.123-3.728-.292-5.586-.205-2.268-.422-4.536-.636-6.8-.031-.332-.062-.663-.093-.995a.13.13,0,0,0-.26,0c-.017.373-.023.748-.035,1.121a55.359,55.359,0,0,0,.211,6.9q.178,1.861.48,3.708a10.074,10.074,0,0,0,.342,1.665c-.006.523-.029,1.045-.055,1.567l0,.078c-.014-.034-.031-.066-.043-.1a15.2,15.2,0,0,1-.793-4.438,50.79,50.79,0,0,0-.346-5.966c-.038-.979-.07-1.957-.084-2.936a.146.146,0,0,0-.292,0,24.179,24.179,0,0,0,.086,2.926c.059,1.56.139,3.119.264,4.676.032.4.059.808.089,1.219-.012.317-.038.635-.07.952-.027.256-.068.512-.111.769-.064-.555-.133-1.11-.185-1.666-.041-.441-.066-.883-.1-1.324a62.575,62.575,0,0,0-.162-7.331.144.144,0,0,0-.289,0,68.836,68.836,0,0,0,.165,7.385c-.015.257-.036.514-.057.771q-.047.586-.121,1.169c-.1-.476-.212-.95-.295-1.429a35.009,35.009,0,0,1-.461-4.241q.006-1.511-.039-3.022a.129.129,0,0,0-.258,0c-.042,1.1-.014,2.2.047,3.3a29.538,29.538,0,0,1-.252,3.75c-.018.138-.038.277-.059.415-.021-.136-.041-.27-.061-.406q-.351-2.383-.5-4.787Q25.043,64.638,25,63.6c-.005-.113-.01-.227-.014-.34a.105.105,0,0,0-.21,0c0,.162.012.324.016.487.019.829.06,1.655.115,2.481.018.4.035.792.053,1.189q.046,1.007.09,2.015c.015.343.057.719.04,1.084a1.814,1.814,0,0,1-.266.929c-.087-.291-.169-.585-.238-.881a32.952,32.952,0,0,1-.611-6.114c-.022-.577-.045-1.151-.076-1.719a.074.074,0,0,0-.145-.019,22.715,22.715,0,0,0-.43,2.5A23.381,23.381,0,0,0,23.2,69.67c0,.041.065.041.063,0a23.486,23.486,0,0,1,.217-4.678q.119-.834.3-1.663.026.635.049,1.277a32.569,32.569,0,0,0,.579,5.956c.085.374.181.745.294,1.112a.091.091,0,0,0,.151.04,1.833,1.833,0,0,0,.418-1.218c0-.019,0-.036,0-.055,0-.206-.007-.414-.013-.621.03.223.066.445.1.668.058.405.111.811.179,1.216a.118.118,0,0,0,.227,0c.081-.407.124-.817.181-1.227.079-.579.142-1.158.182-1.74.068.608.142,1.216.242,1.82.136.814.3,1.624.489,2.43.031.131.253.143.277,0,.06-.379.109-.757.153-1.136.073.741.149,1.483.246,2.222a.147.147,0,0,0,.249.092.137.137,0,0,0,.037-.053,11.621,11.621,0,0,0,.216-1.15,13.045,13.045,0,0,0,.551,2.71A7.662,7.662,0,0,0,29,76.709c.07.14.265.06.274-.074.015-.21.015-.42.026-.631.018-.36.037-.719.044-1.079a2,2,0,0,0,.394.465c.067.058.21.051.226-.059.626-4.282-.576-8.584,0-12.862a2.9,2.9,0,0,1,.465,1.6c.078.641.135,1.284.18,1.928.09,1.29.129,2.583.174,3.876A47.851,47.851,0,0,0,31.3,75.89c.081.488.163.976.273,1.459a.163.163,0,0,0,.269.071,2.5,2.5,0,0,0,.693-2.06c0-.3-.016-.593-.023-.869-.024-.949-.078-1.9-.121-2.845q.283,1.7.657,3.383c.024.106.044.212.067.318.046.2.313.133.331-.045.018-.2.015-.4.029-.6a38.075,38.075,0,0,0-.368-6.932c-.147-1.216-.295-2.433-.381-3.655a10.171,10.171,0,0,1-.015-2.984,2.494,2.494,0,0,1,.157-.45c.04.143.068.287.1.43a30.979,30.979,0,0,1,.686,6.162q.133,3.51.265,7.017c0,.08.006.159.008.239.006.168.267.169.262,0s-.01-.353-.016-.529q-.126-4.09-.245-8.18a63.373,63.373,0,0,0,.984,7.109.124.124,0,0,0,.036.056.151.151,0,0,0,.253-.095c.017-.138.028-.276.044-.413a68.306,68.306,0,0,0,.146-11.386c0-.016,0-.033,0-.049,0,.017.008.033.012.05a42.7,42.7,0,0,1,.421,4.494q.187,2.392.376,4.783c.032.4.062.809.095,1.213a.141.141,0,0,0,.282,0c.045-.869.055-1.738.046-2.605,0-.092,0-.183,0-.274a.125.125,0,0,0,.071-.118M28.891,72q-.286-1.875-.442-3.765c-.145-1.755-.2-3.514-.176-5.273.357,3.424.757,6.883.795,10.327-.076-.448-.118-.9-.178-1.288" transform="translate(0.472 1.215)" fill="#7db1c7"/>
  <path id="Path_4857" data-name="Path 4857" d="M17.249,52.882a.121.121,0,0,0,.177-.072c.121-.387.215-.782.321-1.173q-.283,1.76-.568,3.518c-.021.135-.043.269-.065.4s.131.249.233.135a3.058,3.058,0,0,0,.226-.309,5.4,5.4,0,0,0,.788-2.034c.251-1.173.48-2.353.718-3.53q.21-1.038.42-2.076c-.369,2.695-.682,5.4-.851,8.114-.008.133-.023.264-.032.4a.159.159,0,0,0,.238.137,2.026,2.026,0,0,0,.419-.385,3.442,3.442,0,0,0,.624-1.342c.284-1.048.508-2.115.732-3.177.07-.335.128-.673.194-1.009q-.259,2.634-.422,5.279a.173.173,0,0,0,.293.121,3.608,3.608,0,0,0,.823-2.142q.282-1.759.56-3.517.213-1.329.424-2.659-.343,4.234-.684,8.467c-.011.127-.02.254-.032.382-.016.211.279.216.345.046s.113-.362.173-.543c1.121-3.342.856-6.962,1.751-10.356a61.145,61.145,0,0,1-.564,9.556c-.021.2.283.192.308,0q.4-3.032.8-6.062a35.4,35.4,0,0,1,.876-5.18c.038,3.65-1.362,7.214-.774,10.881.028.176.286.15.331,0A54.892,54.892,0,0,0,26.769,46.4a23.781,23.781,0,0,1-.169,3.733c-.1,1.4-.242,2.795-.386,4.191-.026.246-.042.493-.068.739-.016.16.26.2.283.039l.141-.995q.4-2.8.794-5.6c-.094,1.6-.208,3.2-.367,4.795-.018.192.311.239.34.046a35.574,35.574,0,0,1,1.345-6.278,19.848,19.848,0,0,1-.048,5.536c0,.014.01.019.011.033.026.18.312.169.334-.033.006-.089.02-.177.028-.264a50.764,50.764,0,0,1,.67-5.072,15.432,15.432,0,0,1,.024,1.991,8.9,8.9,0,0,0-.249,2.2c0,.19.306.246.343.047a16.09,16.09,0,0,0,.241-2.191,8.818,8.818,0,0,1,.545-1.593,4.157,4.157,0,0,1,.238,1.034,10.557,10.557,0,0,0-.192,1.746.137.137,0,0,0,.16.14.146.146,0,0,0,.137-.1c.007-.02.008-.041.014-.061a4.555,4.555,0,0,0,.186-1.732q.054-.286.124-.567A10.389,10.389,0,0,1,31.618,47a7.938,7.938,0,0,1,.032,1.7,8.285,8.285,0,0,1-.178,1.129c-.019.087-.031.173-.053.26a.128.128,0,0,0,.246.067c.07-.268.121-.538.165-.808.018-.112.031-.226.045-.34a8.86,8.86,0,0,0-.06-2.6.14.14,0,0,0-.253-.034,10.427,10.427,0,0,0-.544,1.53l-.023.085c-.016-.063-.046-.123-.064-.186a5,5,0,0,0-.2-.583.157.157,0,0,0-.27,0c-.008.017-.014.037-.023.054-.145.289-.272.584-.387.882q-.017-.677-.09-1.353c-.028-.254-.047-.508-.087-.763-.026-.164-.292-.156-.323,0-.022.108-.035.218-.056.328-.124.624-.223,1.253-.324,1.882a11.065,11.065,0,0,0-.28-1.9.175.175,0,0,0-.335,0,21.318,21.318,0,0,0-.929,3.233c.089-1.438.158-2.877.2-4.316.005-.167-.276-.214-.3-.041q-.272,1.952-.546,3.9a11.019,11.019,0,0,0-.067-3.874c-.05-.19-.3-.13-.321.044a54.824,54.824,0,0,1-1.651,8.482c-.3-3.372.9-6.7.8-10.084-.006-.227,0-.452-.017-.679a.134.134,0,0,0-.262-.036c-.059.164-.095.336-.148.5a29.317,29.317,0,0,0-.922,4.988,34.7,34.7,0,0,0-.059-3.908.165.165,0,0,0-.323-.043c-1.154,3.356-.858,7-1.749,10.4L23.2,43.141c.016-.192-.309-.24-.34-.046q-.52,3.266-1.04,6.532-.26,1.633-.519,3.266a7.308,7.308,0,0,1-.516,2.269q.324-5.189,1.035-10.344c.029-.206-.285-.3-.317-.088-.307,1.99-.643,3.974-1.04,5.949q-.291,1.449-.629,2.889a4.886,4.886,0,0,1-.879,2.327c.272-4.485.929-8.932,1.6-13.371.029-.186-.25-.271-.289-.08q-.686,3.4-1.373,6.8-.335,1.671-.673,3.341a7.736,7.736,0,0,1-.742,2.419q.66-4.146,1.306-8.293.256-1.561.482-3.123c.018-.12-.163-.173-.185-.051-.286,1.669-.56,3.34-.834,5.011-.031.152-.066.3-.1.453-.078.37-.154.741-.242,1.11-.192.813-.407,1.621-.658,2.423a2.053,2.053,0,0,1-.126-1.557c.061-.328.136-.636.167-.854q.17-1.176.341-2.349c0-.015.005-.031.007-.047q.347-2.4.69-4.791c.024-.177-.236-.259-.274-.076-.233,1.106-.495,2.206-.778,3.3l.331-1.888a9.167,9.167,0,0,0,.291-1.56c.009-.4-.084-.734-.43-.787a.136.136,0,0,0-.149.06c-.215.487-.4.984-.576,1.482-.185.516-.342,1.042-.486,1.571a.109.109,0,0,0-.171.079c-.023.267-.046.534-.069.8-.01.122.185.146.212.029a20.2,20.2,0,0,1,.715-2.393c.019-.052.067-.193.124-.357a3.085,3.085,0,0,1,.382-.872c.189,0,.2.263.158.55s-.13.593-.15.709q-.308,1.742-.616,3.484-.161.915-.323,1.831a.137.137,0,0,0,.264.073c.158-.526.294-1.056.441-1.585.13-.467.269-.933.39-1.4q-.109.776-.218,1.55-.1.692-.194,1.384c-.105.75-.232,1.505-.319,2.259-.018.154-.044.307-.058.46a1.251,1.251,0,0,0,.422,1.24" transform="translate(0.327 0.856)" fill="#7db1c7"/>
  <path id="Path_4858" data-name="Path 4858" d="M24.462,36.536a.108.108,0,0,0,.195-.026c.089-.628.144-1.257.187-1.887.034-.494.042-.987.047-1.481a21.085,21.085,0,0,0,.8,2.036c.1.216.193.436.3.649.062.126.25.058.253-.068,0-.092-.007-.182-.006-.273.007-.8-.028-1.588-.094-2.377q.4,1.378.861,2.739c.073.216.14.436.215.652a.158.158,0,0,0,.286.038,2.579,2.579,0,0,0,.161-.422,3.4,3.4,0,0,0,.088-1.347c.186.527.368,1.055.569,1.577a.291.291,0,0,0,.012.032.174.174,0,0,0,.283.064.157.157,0,0,0,.039-.107,22.2,22.2,0,0,0-.878-5.492c.637,2.007,1.344,3.992,2.152,5.941.1.235.181.476.282.709v0h0l.011.028c.055.128.231.031.21-.088-.035-.191-.077-.38-.112-.57q-.643-3.476-1.5-6.887A39.075,39.075,0,0,0,31.607,35.6c.161.514.324,1.029.486,1.543.195.621.395,1.242.587,1.864.018.057.117.051.111-.015-.055-.605-.14-1.206-.243-1.8-.777-4.539-2.717-8.872-2.991-13.483,1.567,4.363,3.047,8.724,4.217,13.217.046.176.271.115.292-.04a12.062,12.062,0,0,0-.135-3.661q.508,2.011.961,4.037c.048.215.1.43.149.645a.168.168,0,0,0,.329-.044c0-.206-.024-.41-.032-.615-.166-4.609-1.672-9.038-2.092-13.616A69.4,69.4,0,0,1,36.055,36.05c.028.2.338.219.332,0-.012-.4-.041-.8-.071-1.2a.144.144,0,0,0,.284-.034c.039-1.743.062-3.486.088-5.23,0-.294.01-.587.014-.881a10.7,10.7,0,0,1,1.366,3.47c.013.066.108.036.1-.028a9.382,9.382,0,0,0-1.476-3.923.12.12,0,0,0-.222.06c-.005.153-.008.306-.012.459q-.047,1.72-.09,3.441-.292-2.85-.77-5.674-.233-1.371-.51-2.735c-.032-.155-.269-.116-.27.037,0,.466.013.932.039,1.4.109,2.059.45,4.1.744,6.141a66.937,66.937,0,0,0-2.006-7.612c-.153-.468-.29-.941-.453-1.406-.051-.146-.293-.134-.285.039.013.282.048.56.07.84.342,4.317,1.676,8.5,2.024,12.81a136.732,136.732,0,0,0-3.861-13.58.138.138,0,0,0-.06-.068.158.158,0,0,0-.14-.035.145.145,0,0,0-.106.188c.683,2.382,1.365,4.763,2,7.157a21.412,21.412,0,0,1,1.056,6.353A101.659,101.659,0,0,0,29.519,23c-.039-.095-.207-.1-.2.027.295,4.086,1.691,7.9,2.644,11.855.184.76.337,1.528.467,2.3.039.235.087.467.119.7.008.058.036.3.064.52-.038-.12-.078-.237-.088-.27q-.145-.487-.29-.973c-.084-.281-.168-.562-.252-.844-.245-.822-.5-1.641-.748-2.462.266.821.541,1.641.807,2.463,0,.014.028.008.022-.006q-2.057-6.461-4.077-12.932c-.112-.359-.229-.717-.34-1.077-.036-.113-.213-.065-.179.049.132.442.276.88.409,1.321,1.13,3.717,2.3,7.421,3.47,11.126a48.613,48.613,0,0,1-3.546-8.656c-.224-.744-.45-1.489-.641-2.246a.1.1,0,0,0-.192.053c.195.9.43,1.794.691,2.679q.332,1.12.731,2.221c.639,2.46,1.17,4.95,1.6,7.446-1.127-2.9-2.068-5.873-2.941-8.864q-.4-1.371-.791-2.744a.151.151,0,0,0-.292.081,29.808,29.808,0,0,0,.639,2.927,42.293,42.293,0,0,1,1.66,7.541q-.474-1.324-.9-2.663c-.052-.25-.1-.5-.155-.75-.289-1.346-.649-2.674-1.041-3.994-.157-.53-.305-1.062-.478-1.587a.163.163,0,0,0-.313.086c.108.518.233,1.033.353,1.548q.574,2.47,1.338,4.893c.052.264.115.528.163.793A5.523,5.523,0,0,1,27.376,36q-.808-2.343-1.451-4.733a26.026,26.026,0,0,0-.8-3.441c-.06-.2-.105-.4-.169-.6a.133.133,0,0,0-.257.07c.033.168.073.334.108.5q.4,1.916.9,3.807a25.187,25.187,0,0,1,.243,3.488A21.258,21.258,0,0,1,24.9,32.332a26.048,26.048,0,0,0-.487-4.563c0-.015,0-.03-.007-.045a.105.105,0,0,0-.173-.046.848.848,0,0,0-.082.112,1.738,1.738,0,0,0-.167,1.36,20.46,20.46,0,0,0,.389,2.193c.095.41.205.817.327,1.22.006.642,0,1.283-.048,1.924-.036.522-.093,1.044-.16,1.565a13.74,13.74,0,0,1-.761-2.433,30.476,30.476,0,0,1-.542-5.528l-.006-.207a.064.064,0,0,0-.128,0c0,.1,0,.2,0,.3a29.985,29.985,0,0,0,.392,5.114,13.292,13.292,0,0,0,1.01,3.236M35.161,25.7l0,.012q.7,3.9,1.028,7.842c-.3-2.62-.84-5.215-1.029-7.845V25.7m-10.8,4.452c-.1-.522-.428-1.584-.117-2.143a25.1,25.1,0,0,1,.416,3.448c-.108-.434-.218-.866-.3-1.305" transform="translate(0.471 0.454)" fill="#7db1c7"/>
  <path id="Path_4859" data-name="Path 4859" d="M46.28,7.859c.159.328.338.646.528.956a2.715,2.715,0,0,0,.545.736c.5.4.974-.068,1.2-.527.038-.08-.069-.182-.132-.1-.155.2-.333.479-.615.491-.315.014-.512-.39-.656-.615q-.276-.435-.512-.892c-.116-.222-.229-.447-.324-.679a5.124,5.124,0,0,1-.249-3.574c.006-.017,0-.028,0-.043a.128.128,0,0,0-.249-.028,4.548,4.548,0,0,0-.233,1.639,5.941,5.941,0,0,0,.28,1.567,7.74,7.74,0,0,0,.426,1.07" transform="translate(0.93 0.071)" fill="#7db1c7"/>
  <path id="Path_4860" data-name="Path 4860" d="M45.986,4.084a4.247,4.247,0,0,0,.54,3.142,7,7,0,0,0,.438,1c.067.13.131.26.207.385a.044.044,0,0,0,.076-.045c-.032-.064-.058-.131-.09-.2-.095-.2-.184-.4-.263-.607a2.532,2.532,0,0,0,1.309.891,1.59,1.59,0,0,0,.42.038,2.179,2.179,0,0,0,.265.232,1.554,1.554,0,0,0,.624.284c.5.1.886-.248,1.18-.686a6.778,6.778,0,0,0,.546-1.063c.06-.138-.135-.261-.206-.12A6.539,6.539,0,0,1,50.367,8.4a1.091,1.091,0,0,1-.515.448c-.005,0-.007.006-.013.008s-.007,0-.01,0a.858.858,0,0,1-.661-.156c-.04-.026-.067-.064-.105-.092a1.314,1.314,0,0,0,.485-.318.983.983,0,0,0,1.083-.495.084.084,0,0,0-.144-.085,1.031,1.031,0,0,1-1.5.023,3.869,3.869,0,0,1-.972-1.341,5.045,5.045,0,0,1-.348-3.31c.04-.169-.22-.242-.261-.071-.036.145-.04.294-.062.44A5.586,5.586,0,0,1,47.5,2.3c.008-.034.012-.067.02-.1.037-.013.067-.035.106-.046a1.17,1.17,0,0,1,.344-.046,1.7,1.7,0,0,1,1.082.5,5.783,5.783,0,0,0-.741-.091c-.093,0-.092.139,0,.143a5.754,5.754,0,0,1,.943.137c.156.154.3.314.44.457.067.07.2-.023.138-.106S49.722,3,49.66,2.922a6.125,6.125,0,0,1,.95.374,7.275,7.275,0,0,1,.677,1.039c.047.088.168.01.131-.077a6.98,6.98,0,0,0-.376-.739,6.492,6.492,0,0,1,.941.665c.054.047.131-.028.08-.079a5.226,5.226,0,0,0-1.206-.876A3.445,3.445,0,0,0,49.42,1.954,2.638,2.638,0,0,0,49,1.809a2.57,2.57,0,0,0-1.361.035c.036-.1.065-.209.108-.312.052-.12-.123-.227-.179-.1a5.132,5.132,0,0,0-.188.512,1.869,1.869,0,0,0-.957.884c-.009.019,0,.036,0,.053a.063.063,0,0,0-.081.048c-.032.134-.052.269-.077.4-.04.217-.07.435-.093.654a.138.138,0,0,0-.188.1m3.265,4.134c.021.008.046.007.068.014a1.146,1.146,0,0,1-.476.18,3.933,3.933,0,0,1-.869-1.5,2.9,2.9,0,0,0,1.277,1.305M47.246,2.439a8.422,8.422,0,0,0,.559,4.923,4.768,4.768,0,0,0,.561,1.024,1.7,1.7,0,0,1-.348-.109,2.946,2.946,0,0,1-1.188-1.093,3.871,3.871,0,0,1-.309-.595A8.274,8.274,0,0,1,46.3,4.508a.111.111,0,0,0,.127-.108,3.113,3.113,0,0,1,.466-1.707,1.419,1.419,0,0,1,.382-.37c-.01.039-.016.079-.026.117m2.205.239a2.851,2.851,0,0,0-.843-.654,2.263,2.263,0,0,1,.441.087,3.062,3.062,0,0,1,1.252.833,5.821,5.821,0,0,0-.85-.265" transform="translate(0.937 0.028)" fill="#7db1c7"/>
  <path id="Path_4861" data-name="Path 4861" d="M76.593,17.164a9.784,9.784,0,0,0-.151,1.143,9.89,9.89,0,0,0-.028,1.044.012.012,0,0,0,.024,0c-.008-.277.007-.552.023-.828a9.881,9.881,0,0,1,.161-1.351c0-.019-.027-.029-.031-.008" transform="translate(1.56 0.35)" fill="#7db1c7"/>
  <path id="Path_4862" data-name="Path 4862" d="M77.938,18.985a5.247,5.247,0,0,1,.322-2.917c.08-.189-.23-.271-.307-.085a5.54,5.54,0,0,0-.34,3.048,6.037,6.037,0,0,0,.153.661,4.262,4.262,0,0,1-.3-1.23c-.017-.216-.01-.435-.006-.654a.179.179,0,0,0,.067-.179,1.916,1.916,0,0,1-.018-.555c.007-.058.012-.115.02-.172a2.413,2.413,0,0,1,1.151-1.6,2.512,2.512,0,0,1,.561-.233,2.459,2.459,0,0,0-.247.188c-.078.076.04.193.118.118a2.316,2.316,0,0,1,.612-.4,4.5,4.5,0,0,1,2.046.339.093.093,0,0,0,.1-.024.124.124,0,0,0-.01-.194,3.252,3.252,0,0,0-.671-.306h.017a2.483,2.483,0,0,1,1.606,1.289c.033.063.145.018.117-.049a2.3,2.3,0,0,0-2.66-1.42,3.169,3.169,0,0,0-1.857.433c-.028.016-.051.038-.078.056-.054.036-.106.074-.157.114a1.023,1.023,0,0,0-.116.032,1.08,1.08,0,0,0-.545.423,4.75,4.75,0,0,0-.463,2.51,3.867,3.867,0,0,0,1.611,3.307c.04.022.073.052.114.072h0c.064.067.116.147.187.208.09.078.25-.023.176-.136a6.75,6.75,0,0,1-1.206-2.639" transform="translate(1.572 0.297)" fill="#7db1c7"/>
  <path id="Path_4863" data-name="Path 4863" d="M80.7,21.967c-.031,0-.031.045,0,.048a1.68,1.68,0,0,0,1.093-.3c.016-.011,0-.039-.016-.028a1.644,1.644,0,0,1-1.077.277" transform="translate(1.646 0.443)" fill="#7db1c7"/>
  <path id="Path_4864" data-name="Path 4864" d="M83.472,18.62c-.048.069-.11.128-.161.2a5.729,5.729,0,0,1-.74.808q0-.291-.028-.579l.559-1.011c.017-.031-.032-.059-.049-.028l-.518.947c-.014-.15-.022-.3-.045-.449a2.906,2.906,0,0,0-.367-1.759c-.014-.161-.029-.321-.051-.48-.017-.128-.244-.1-.227.031,0,.012,0,.024,0,.037a2.812,2.812,0,0,0-1.01-.817c-.093-.043-.173.095-.081.138a2.722,2.722,0,0,1,1.1.954,9.5,9.5,0,0,1-.542,3.883,5.487,5.487,0,0,1-1.149.444.024.024,0,0,0,.012.046,5.55,5.55,0,0,0,1.1-.393c-.059.171-.108.344-.173.514-.035.09.106.144.153.064a5.99,5.99,0,0,0,.37-.774,5.477,5.477,0,0,0,.847-.584c0,.132.012.263.009.395,0,.047.069.046.072,0,.009-.157,0-.312.005-.468a5.407,5.407,0,0,0,.7-.74c.088-.113.192-.214.271-.335.029-.043-.041-.083-.069-.04m-1.2-1.11c-.013-.043-.029-.087-.041-.131.013.044.029.087.041.131m-.59,2.773a7.632,7.632,0,0,0,.481-2.644,8.624,8.624,0,0,1,.2.843,2.68,2.68,0,0,1-.066.431.06.06,0,0,0,.115.032c0-.014,0-.029.008-.043.01.074.02.149.029.224q-.193.351-.384.7a.024.024,0,0,0,.041.024l.353-.64c.014.163.021.327.028.49a5.724,5.724,0,0,1-.8.582" transform="translate(1.636 0.316)" fill="#7db1c7"/>
  <path id="Path_4865" data-name="Path 4865" d="M92.556,52.435a5.7,5.7,0,0,1-1.91-2.39c.223-.776.177-1.627.41-2.406a2.506,2.506,0,0,1,.194-.459.882.882,0,0,1,.423-.035c.129.02.187-.164.054-.2a1.065,1.065,0,0,0-.319-.028,1.536,1.536,0,0,1,.61-.5,1.806,1.806,0,0,1,1.634.35c.081.046.172-.065.1-.132a2.609,2.609,0,0,0-.256-.2,2.069,2.069,0,0,1,2.044,1.559,2.909,2.909,0,0,1,.042,1.042c-.008.086.116.092.141.019a2.17,2.17,0,0,0-.588-2.1,2.3,2.3,0,0,0-1.814-.632,1.834,1.834,0,0,0-.58-.222,3.971,3.971,0,0,1,1.161.167,3.776,3.776,0,0,1,1.8.986,1.61,1.61,0,0,1,.345.642c.023.089.171.073.164-.022a2.04,2.04,0,0,0-1.394-1.6,6.319,6.319,0,0,0-.879-.319,2.8,2.8,0,0,0-3.193.824c-.109.163.153.314.261.153a1.77,1.77,0,0,1,.53-.507,2.1,2.1,0,0,0-.456.558,1.407,1.407,0,0,0-.638.46,1.686,1.686,0,0,0-.169.283c0-.016,0-.033,0-.049.02-.2-.3-.2-.319,0a5.013,5.013,0,0,0,.019,1.07c-.017.106-.034.212-.047.314a2.731,2.731,0,0,0,1.1,2.956c.091.05.2-.079.116-.15a2.358,2.358,0,0,1-.744-1.241c.022-.041.047-.081.067-.122a4.629,4.629,0,0,0,1.865,2.035c.041.023.076.054.117.076a.1.1,0,0,0,.14-.049.1.1,0,0,0-.035-.131m-.949-6.057c-.022.016-.048.028-.069.046.023-.014.045-.033.069-.046m-.729,1.053a18.544,18.544,0,0,0-.364,2.3,4.941,4.941,0,0,1-.192-.78,2.886,2.886,0,0,1,.556-1.518m-.537,2.88c-.012-.073-.034-.145-.042-.219.021.054.044.108.066.162-.007.019-.016.038-.025.057" transform="translate(1.834 0.935)" fill="#7db1c7"/>
  <path id="Path_4866" data-name="Path 4866" d="M95.613,50.32a3.3,3.3,0,0,0,.236-.7c.014-.059-.075-.1-.1-.043-.1.216-.215.424-.315.641-.072.158-.159.31-.244.462-.015-.011-.035-.016-.045,0a1.883,1.883,0,0,1-.66.726,1.664,1.664,0,0,1-.947.243c-.051,0-.051.078,0,.08a1.735,1.735,0,0,0,1-.26,1.836,1.836,0,0,0,.321-.265,6.53,6.53,0,0,1-.648.8.076.076,0,0,0,.107.107c.036-.036.066-.076.1-.111a6.341,6.341,0,0,0,1.2-1.68" transform="translate(1.908 1.011)" fill="#7db1c7"/>
  <path id="Path_4867" data-name="Path 4867" d="M76.819,80.085a3.577,3.577,0,0,0,.233,1.107,3.816,3.816,0,0,0,.739,1.166,2.625,2.625,0,0,0,1.153.8c.1.026.208-.117.112-.194a10.148,10.148,0,0,1-.966-.749,3.469,3.469,0,0,1-.733-1.089c-.013-.033-.017-.067-.03-.1a2.755,2.755,0,0,0,.619.6c.033.123.057.249.094.371s.211.064.177-.049c-.018-.062-.03-.126-.047-.188a2.361,2.361,0,0,0,.226.117c.1.039.177-.108.1-.173-.16-.139-.305-.274-.446-.415a10.8,10.8,0,0,1-.254-1.414,5.338,5.338,0,0,1,.024-1.765,1.4,1.4,0,0,1,1.08-1.144,1.928,1.928,0,0,1,.654,0l-.019.01a2.921,2.921,0,0,0-.5.089.076.076,0,0,0,.041.146c.044-.012.089-.012.134-.021a2.235,2.235,0,0,0-.774,1.183c-.056.219.285.313.338.094a1.9,1.9,0,0,1,1.1-1.307c.028-.011.058-.012.086-.022a2.906,2.906,0,0,1,.421.057c.183.071.361.147.531.222a.091.091,0,0,0,.1-.016c.07.032.144.054.211.091a3.135,3.135,0,0,1,.845.668,3.366,3.366,0,0,1,.338.448c.079.129.138.266.206.4,0,.046,0,.091,0,.137a.073.073,0,0,0,.142.019c.008-.034,0-.069.009-.1,0-.01.016-.014.014-.027s-.006-.02-.008-.031a2.013,2.013,0,0,0-.049-.815,2.3,2.3,0,0,0-.46-.869h0c-.083-.1-.223.045-.14.141a2.053,2.053,0,0,1,.426.792,1.723,1.723,0,0,1,.046.285,2.769,2.769,0,0,0-.36-.5,3.259,3.259,0,0,0-.933-.715,3.3,3.3,0,0,0-.6-.233l-.082-.045a2.338,2.338,0,0,1,1.112.3c.1.057.216-.083.126-.163a2,2,0,0,0-1.8-.4,2.238,2.238,0,0,0-1.1-.144,1.574,1.574,0,0,0-.746.314.123.123,0,0,0,0-.058.157.157,0,0,0-.177-.156c-.988.137-1.411,1.227-1.422,2.14a2.98,2.98,0,0,0,.015.349,3.727,3.727,0,0,0,.205.857m1.066-2.994a1.074,1.074,0,0,1,.214-.068c.01,0,.011-.009.019-.012a1.668,1.668,0,0,0-.47.688,4.14,4.14,0,0,0-.107,1.888,13.206,13.206,0,0,0,.24,1.4,3.676,3.676,0,0,1-.261-.326,3.376,3.376,0,0,1-.423-.983,3.557,3.557,0,0,1,.326-1.377c.08-.171-.173-.321-.254-.149a3.844,3.844,0,0,0-.195.548,2.525,2.525,0,0,1,.212-.926,1.238,1.238,0,0,1,.7-.68" transform="translate(1.563 1.564)" fill="#7db1c7"/>
  <path id="Path_4868" data-name="Path 4868" d="M82.561,81.2a4.417,4.417,0,0,1-.328.52,2.225,2.225,0,0,1-.457.435,2.169,2.169,0,0,1-1.161.4c-.148.006-.149.238,0,.231a2.377,2.377,0,0,0,1.287-.448,1.985,1.985,0,0,0,.812-1.078.084.084,0,0,0-.153-.064" transform="translate(1.643 1.656)" fill="#7db1c7"/>
  <path id="Path_4869" data-name="Path 4869" d="M83.485,79.111a5.688,5.688,0,0,1-.142,1.184c-.006-.092-.022-.183-.03-.274-.028-.329-.064-.656-.105-.983-.018-.139-.026-.28-.045-.418a.112.112,0,0,0-.115-.091c-.08-.007-.169.035-.159.129.06.558.1,1.117.124,1.679.014.3.02.611.032.918l-.02.052a5.71,5.71,0,0,1-.569,1.064c-.053.077.071.148.124.072a5.787,5.787,0,0,0,.489-.861c.01.146.013.294.033.439.014.115.205.173.227.032a6.375,6.375,0,0,0,.04-1.234,5.85,5.85,0,0,0,.261-1.707.072.072,0,0,0-.144,0" transform="translate(1.683 1.603)" fill="#7db1c7"/>
  <path id="Path_4870" data-name="Path 4870" d="M50.475,91.735c-.02-.1-.161-.054-.147.041.02.122.024.247.039.37-.024-.077-.039-.156-.065-.232s-.156-.049-.131.037a5.911,5.911,0,0,1,.224,1.51c-.042.531-.168,1.046-.235,1.572-.006.052.041.083.089.086,0,.022-.005.045-.009.067a.084.084,0,0,0,.161.044,4.586,4.586,0,0,0,.227-1.693c0-.035,0-.07.005-.1a7.366,7.366,0,0,0-.158-1.7" transform="translate(1.023 1.871)" fill="#7db1c7"/>
  <path id="Path_4871" data-name="Path 4871" d="M52.355,93.495a3.162,3.162,0,0,1-.312.647,4.412,4.412,0,0,0-.056-1.028c.024-.1.052-.2.076-.3a4.5,4.5,0,0,0,.159-.746c0-.041-.032-.063-.068-.068a4.544,4.544,0,0,0-.305-.48c0-.168,0-.337-.019-.5a3.292,3.292,0,0,1,.218.442.1.1,0,0,0,.193-.053,1.849,1.849,0,0,0-.169-.494c-.022-.047-.048-.091-.074-.136-.012-.023-.032-.042-.046-.064a2.214,2.214,0,0,0-.218-.305c-.013-.06-.015-.121-.03-.181s-.1-.042-.094.012c0,.018,0,.037.005.054-.008-.007-.018-.013-.027-.021a2.491,2.491,0,0,0-.87-.544,2.442,2.442,0,0,0-2.012.228,2.454,2.454,0,0,0-.312.063c-.014.005-.027.014-.041.019a.119.119,0,0,0-.109-.154,2.622,2.622,0,0,0-2.184,1.058,2.847,2.847,0,0,0-.461.86,3.186,3.186,0,0,0,.53,2.811c.055.077.109.153.168.226.015.016.029.034.042.05a3.821,3.821,0,0,0,.308.321.073.073,0,0,0,.1,0c.045.076.09.151.141.226a2.653,2.653,0,0,0,1.986,1.335.084.084,0,0,0,.022-.164,3.118,3.118,0,0,1-1.2-.666,4.129,4.129,0,0,1-.968-1.276,3.981,3.981,0,0,1-.315-3.367.107.107,0,0,0-.064-.146,2.474,2.474,0,0,1,1.774-1.01,3.07,3.07,0,0,0-1.5,3.42c.037.192.328.11.292-.081a2.7,2.7,0,0,1,1.539-3.129.108.108,0,0,0,.049-.014c.007-.006.017-.009.024-.015s.039-.018.06-.024a2.438,2.438,0,0,1,1.964.414,3.783,3.783,0,0,1,.4.311q.191.559.385,1.117c.086.251.178.5.263.75a7.182,7.182,0,0,1-.192.876.064.064,0,0,0,.123.034c.06-.2.1-.413.149-.622a1.336,1.336,0,0,1,.052.26c-.005.028-.011.053-.017.08l-.282,1.369a7.83,7.83,0,0,1-2.166,1.315c-.067.031-.136.063-.2.093-.121.054-.015.232.105.18.3-.13.621-.271.94-.427a5.979,5.979,0,0,0,1.608-1.081c0,.01,0,.021-.005.032s0,.034-.007.05c-.022.082.093.107.122.034a2.75,2.75,0,0,0,.118-.367l.005-.015c.013-.016.029-.031.041-.047a2.6,2.6,0,0,0,.515-1.119.077.077,0,0,0-.013-.063.079.079,0,0,0-.141.021M46.5,94.756l.014.029a3.388,3.388,0,0,1-.576-2.813,2.391,2.391,0,0,1,.16-.41,4.44,4.44,0,0,0,.4,3.195m5.085-3.079c.036.04.072.08.108.12,0,.055,0,.111,0,.166-.035-.1-.07-.192-.108-.287m.407.46a.085.085,0,0,0,.051.024c-.056.173-.1.353-.136.531-.029-.115-.056-.23-.089-.343.012-.121.033-.243.039-.365.045.051.089.1.135.153m-1.34-2.161a2.192,2.192,0,0,1,1.006.794c.015.185.027.369.033.553a4.538,4.538,0,0,0-.711-.709c-.055-.066-.114-.127-.174-.187-.022-.053-.044-.106-.065-.159-.009-.023-.047-.014-.039.01l.027.076a1.879,1.879,0,0,0-.984-.483,2.161,2.161,0,0,1,.908.105m.455,1.2.035.034a4.171,4.171,0,0,1,.285.686c.02.066.037.137.057.2l-.377-.922m.442,3.6c.077-.283.152-.565.23-.849.01,0,.023.006.032,0h0a4.22,4.22,0,0,1-.02.591c-.076.092-.158.178-.242.262" transform="translate(0.928 1.829)" fill="#7db1c7"/>
  <path id="Path_4872" data-name="Path 4872" d="M20.537,82.4a2.237,2.237,0,0,1-.384.251c-.065.01-.134.026-.2.031a4.871,4.871,0,0,1-.88-.018,3.945,3.945,0,0,0,.113-.468,3.43,3.43,0,0,0,.021-1.042c-.008-.064-.11-.067-.1,0a3.313,3.313,0,0,1-.05,1.023,3.38,3.38,0,0,1-.135.469l-.006.013a5.2,5.2,0,0,1-1-.232.067.067,0,0,0-.084.033,2.184,2.184,0,0,1-.289-.233c-.12-.127-.313.066-.192.191a2.5,2.5,0,0,0,1.369.7l0,.01c-.031.076.083.111.123.052.007-.011.01-.026.017-.037a2.394,2.394,0,0,0,.468,0,2.181,2.181,0,0,0,.283-.019,2.381,2.381,0,0,0,.762-.327,1.1,1.1,0,0,0,.947-.808.051.051,0,0,0-.1-.028,1.236,1.236,0,0,0,.135-.324.1.1,0,0,0-.141-.109.1.1,0,0,0-.042.033,3.412,3.412,0,0,1-.636.842m-2.316.29a5.4,5.4,0,0,0,.628.135c-.008.017-.015.035-.022.052a2.213,2.213,0,0,1-.605-.187m.752.214c.008-.018.018-.036.026-.054a4.636,4.636,0,0,0,.49.03,2.033,2.033,0,0,1-.515.024m1.982-.582a2.132,2.132,0,0,0,.192-.247.826.826,0,0,1-.192.247" transform="translate(0.354 1.655)" fill="#7db1c7"/>
  <path id="Path_4873" data-name="Path 4873" d="M21.795,80.517c-.13.515-.185,1.042-.356,1.548a3.027,3.027,0,0,1-.806,1.3,2.034,2.034,0,0,1-.685.411.121.121,0,0,0-.147-.05c-.1.045-.2.093-.3.139a1.423,1.423,0,0,1-.209.01,2.1,2.1,0,0,1-.624-.161c.013-.006.026-.006.039-.012.055-.024.014-.108-.04-.095a1.578,1.578,0,0,1-.192.027c-.117-.057-.232-.118-.344-.185s-.218-.134-.324-.2-.192.084-.11.158c0,0,0,.01.009.014.112.071.226.142.342.21a1.8,1.8,0,0,1-.721-.3,2.937,2.937,0,0,1-.837-.89,4.864,4.864,0,0,1-.688-2.067c0-.04,0-.081.005-.12.066.032.174,0,.162-.093a3.932,3.932,0,0,1,0-.863A4.659,4.659,0,0,1,16.53,78V78c.01-.01.015-.023.026-.033a1.342,1.342,0,0,1,1.769-.014c.048.053.143-.017.1-.078a1.235,1.235,0,0,0-.656-.464,1.191,1.191,0,0,0-.272-.019,1.316,1.316,0,0,1,.74-.321c.13.115.27.218.392.342-.126-.083-.25-.17-.38-.243a.1.1,0,0,0-.1.165,5.543,5.543,0,0,1,1.076.795c.106.137.229.26.326.4a8.078,8.078,0,0,1,.643,1.149c.1.212.176.431.252.65-.006.016-.011.034-.017.05a4.273,4.273,0,0,0-.772-1.194c-.047-.054-.087-.114-.138-.164-.006-.006-.013,0-.019-.008-.027-.026-.047-.055-.073-.081-.074-.07-.188.043-.112.112l.033.038a.089.089,0,0,0,.027.085,2.8,2.8,0,0,1,.778,1.86c-.051.1-.094.2-.15.3a.031.031,0,0,0,.054.032c.038-.061.066-.129.1-.192a3.014,3.014,0,0,1-.352,1.426.068.068,0,0,0,.117.068,2.755,2.755,0,0,0,.436-1.877c.017-.039.038-.076.055-.114a4.886,4.886,0,0,1,.221.676c.013.056.093.032.085-.022a3.945,3.945,0,0,0-.24-.834c.005-.013.009-.027.014-.039.058.163.113.327.183.486a.115.115,0,0,0,.168.037c0,.151-.006.3-.005.455,0,.087.138.111.157.021a3.5,3.5,0,0,0-.217-1.852c-.005-.013-.013-.024-.018-.038a4.1,4.1,0,0,0,.115-1.041.052.052,0,0,0-.1,0c-.019.3-.05.589-.093.879-.02-.047-.046-.091-.068-.137a2.755,2.755,0,0,0-.037-.55,2.724,2.724,0,0,0-.516-1.169,2.027,2.027,0,0,0-1.714-.757c-.02-.007-.039-.019-.058-.026-.119-.1-.231-.211-.357-.305-.047-.036-.086-.081-.134-.114-.107-.078-.205.042-.183.145a.133.133,0,0,0,.05.082c.027.019.047.045.073.064a2.683,2.683,0,0,0-.712.008,2.376,2.376,0,0,0-1.147.462c-.05.038.016.125.067.088a2.031,2.031,0,0,1,.271-.153,2.377,2.377,0,0,1,1.566-.22c.048.009.093.029.14.041a1.519,1.519,0,0,0-.823.572,1.846,1.846,0,0,0-.212.049,1.9,1.9,0,0,0-1.129,1.494c-.011.064-.008.129-.016.193a4.606,4.606,0,0,0-.149.538.1.1,0,0,0-.058.091c0,.043.006.087.006.131a4.96,4.96,0,0,0-.083.921,5.081,5.081,0,0,0,.306,1.628,3.367,3.367,0,0,0,.722,1.219.12.12,0,0,0,.188-.146c-.121-.216-.246-.427-.359-.642a4.252,4.252,0,0,1-.291-.663c-.043-.132-.066-.266-.1-.4a4.7,4.7,0,0,0,.471.9,3.131,3.131,0,0,0,.3.369,1.886,1.886,0,0,0,1.665.69,2.712,2.712,0,0,0,.689.237c-.033.011-.064.028-.1.037a3.472,3.472,0,0,1-.873.131,3.382,3.382,0,0,1-1.727-.432.12.12,0,0,0-.12.207,3.637,3.637,0,0,0,1.874.471,3.384,3.384,0,0,0,1.538-.385,2.116,2.116,0,0,0,1.014-.451,4.357,4.357,0,0,0,1.326-3.072c.01-.112-.168-.134-.2-.027m-1.459.142c-.014-.091-.033-.182-.055-.271.029.06.06.119.087.181-.012.03-.019.061-.032.091m.493-.134c0,.012,0,.023,0,.036a4.066,4.066,0,0,0-.172-.552l0-.012c.011-.037.016-.077.027-.114a3.992,3.992,0,0,1,.14.643m-.234-.667c-.009-.02-.017-.042-.027-.062.011-.077.019-.153.028-.23.01.029.029.054.039.084-.014.069-.023.139-.04.208m-1.121-2.483a2.215,2.215,0,0,1,.758,1.151c.009.031.011.064.02.1a4.141,4.141,0,0,0-.476-.584.052.052,0,0,0-.073.073,4.075,4.075,0,0,1,.627.877,4.2,4.2,0,0,1,.061.437c-.039-.079-.09-.151-.131-.229a.066.066,0,0,0,.008-.078,4.041,4.041,0,0,0-.4-.6c-.04-.06-.066-.128-.107-.187a8.355,8.355,0,0,0-.609-.732c.064.069.129.137.193.21s.17-.02.131-.1a1.605,1.605,0,0,0-.515-.579,1.669,1.669,0,0,1,.512.248" transform="translate(0.315 1.557)" fill="#7db1c7"/>
  <path id="Path_4874" data-name="Path 4874" d="M15.577,78.62c.05-.095-.092-.18-.145-.085a3.1,3.1,0,0,0-.37,1.179,2.774,2.774,0,0,0,.171,1.236c.026.071.137.044.115-.032a3.13,3.13,0,0,1,.229-2.3" transform="translate(0.307 1.602)" fill="#7db1c7"/>
  <path id="Path_4875" data-name="Path 4875" d="M7.99,47.26a6.523,6.523,0,0,0-.716-1.139A2.569,2.569,0,0,0,5.1,44.933c-.181.018-.186.3,0,.288a1.863,1.863,0,0,1,1.382.538,5.323,5.323,0,0,1,1.242,1.814,2.855,2.855,0,0,0-.265-.327c-1.041-1.064-2.606-.931-3.949-.7-.213.036-.121.355.089.322,1.195-.183,2.634-.313,3.556.637a2.941,2.941,0,0,1,.787,1.734,7.079,7.079,0,0,1-.3.68c-.005-.031-.008-.062-.013-.094-.036-.216-.08-.433-.134-.646l0-.008a4.457,4.457,0,0,0-.113-.588.1.1,0,0,0-.089-.079c-.072-.205-.152-.408-.24-.607-.079-.179-.341-.024-.262.152a7.637,7.637,0,0,1,.424,1.232c.01.044.016.088.027.131a4.341,4.341,0,0,1-.147,1.364c-.022.031-.039.066-.062.1a2.505,2.505,0,0,1-.768.689.725.725,0,0,1-.4-.181c-.059-.056-.149.034-.09.09a.829.829,0,0,0,.294.174.87.87,0,0,1-.907-.19c-.073-.079-.191.04-.117.118a1.039,1.039,0,0,0,1.006.272A1.345,1.345,0,0,0,6.4,51.7a1.208,1.208,0,0,0,.339-.052c-.032.063-.048.134-.083.195-.007.013-.017.024-.026.038a2.209,2.209,0,0,1-.881.38,2.271,2.271,0,0,1-1.116-.11,2.657,2.657,0,0,1-.386-.191A7.058,7.058,0,0,1,3.1,50.091c-.068-.155-.3-.021-.228.133a8.69,8.69,0,0,0,.655,1.205,6.392,6.392,0,0,1-.742-.857c-.1-.14-.337-.005-.235.137a5.071,5.071,0,0,0,1.577,1.5c.065.07.132.137.2.2a3.308,3.308,0,0,0,2.051,1c.085.007.1-.13.019-.148a3.82,3.82,0,0,1-.751-.264,1.831,1.831,0,0,0,.841-.09,2.467,2.467,0,0,0,1.25-1.215,3.651,3.651,0,0,0,.164-.358.074.074,0,0,0,.065-.046,4.752,4.752,0,0,0,.23-.709c-.005.165-.006.329-.016.5a.121.121,0,0,0,.035.095.148.148,0,0,0,.24-.058,3.8,3.8,0,0,0,.123-.548,5.779,5.779,0,0,0-.59-3.3m-.245,2.895c-.019.064-.042.128-.061.192,0-.03,0-.058,0-.088.02-.035.043-.068.063-.1m-.372.777c.022-.086.034-.174.052-.261.017-.024.037-.048.053-.073a.107.107,0,0,0,.106.036,1.856,1.856,0,0,1-.264.461c.015-.054.039-.11.053-.162m-.728.609a2.623,2.623,0,0,0,.227-.2c-.021.051-.041.1-.064.151a1.1,1.1,0,0,1-.162.049M5.091,52.684c-.051-.034-.1-.066-.153-.1-.014-.011-.024-.028-.038-.039s-.042-.044-.064-.065a2.34,2.34,0,0,0,1.458-.1c-.029.037-.055.076-.084.112-.064.086-.131.169-.191.258a.1.1,0,0,0,.009.118,1.59,1.59,0,0,1-.938-.185M7.478,51.9a2.277,2.277,0,0,1-.983.855,1.8,1.8,0,0,1-.21.05,2.506,2.506,0,0,0,.435-.473,4.043,4.043,0,0,0,.5-.933,1.817,1.817,0,0,0,.484-.681,3.566,3.566,0,0,0,.265-.917c0-.022-.013-.033-.027-.045l.032-.071a6.061,6.061,0,0,1-.186,1.518.094.094,0,0,0,.032.089,3.951,3.951,0,0,1-.34.608" transform="translate(0.052 0.917)" fill="#7db1c7"/>
  <path id="Path_4876" data-name="Path 4876" d="M20.05,15.824a.083.083,0,0,0-.088-.087c-.174,0-.35,0-.524,0-.088-.048-.172-.1-.263-.145a.115.115,0,0,0-.155.152,7.068,7.068,0,0,0-2.034.309,5.054,5.054,0,0,1,.93-.82c.108-.074.009-.251-.105-.179a5.5,5.5,0,0,0-.607.454.119.119,0,0,0-.179.015,3.947,3.947,0,0,0-.214.349c-.115.12-.224.247-.329.377A3.194,3.194,0,0,0,14.833,17.8a.119.119,0,0,0,.206.12,3.373,3.373,0,0,1,.994-1.021,5.142,5.142,0,0,0-.474,1.063,3.373,3.373,0,0,0-.2,1.256c.013.138.222.19.259.035.089-.382.116-.768.231-1.147a5.651,5.651,0,0,1,.463-1.1c.017-.032.039-.06.057-.091a3.148,3.148,0,0,0-.127,1.213.079.079,0,0,0,.071.067,5.756,5.756,0,0,0,.11,1.706,2.1,2.1,0,0,0,.023.213,1.94,1.94,0,0,1-.262-1.67c.045-.142-.18-.2-.222-.061a2.174,2.174,0,0,0,.363,1.965,2.129,2.129,0,0,0,.265.26,2.353,2.353,0,0,0,.256.469l.005.013c0,.005.008.005.012.009a2.305,2.305,0,0,0,.5.5,2.158,2.158,0,0,0,.589.312,2.281,2.281,0,0,0,1.6-.086,6.335,6.335,0,0,1-.667.39.129.129,0,0,0,.065.238,2.956,2.956,0,0,0,2.13-1.857,4.586,4.586,0,0,0,.3-.918c.028-.123.037-.249.056-.373a1.668,1.668,0,0,0,.135-.257.093.093,0,0,0-.078-.128c.014-.144.022-.289.029-.434.048.112.092.227.134.341.018.048.04.1.056.144.066.188.106.386.19.566a.089.089,0,0,0,.078.053c.013.068.024.137.04.205.034.157.242.1.258-.035a3.671,3.671,0,0,0-.142-1.355,5.632,5.632,0,0,0-.508-1.234l-.013-.023a2.576,2.576,0,0,0-.6-1.684,2.717,2.717,0,0,0-1.884-1c-.154-.011-.152.224,0,.239a2.61,2.61,0,0,1,2.146,1.827c.015.045.019.092.032.138a1.833,1.833,0,0,0-1.253-.849m1.287,1.605c0,.01,0,.02,0,.031-.062-.092-.119-.187-.187-.274A5.537,5.537,0,0,0,20.017,16.1c.637.1,1.052.778,1.319,1.324M18.3,21.71a1.777,1.777,0,0,1-.253-.036,1.938,1.938,0,0,1-.991-.752,1.954,1.954,0,0,0,1.07.189c.089-.01.095-.143,0-.144a2.178,2.178,0,0,1-1.253-.409c-.013-.03-.03-.056-.041-.086-.038-.121-.069-.243-.1-.364a1.958,1.958,0,0,1-.056-.428.111.111,0,0,0-.057-.1,5.222,5.222,0,0,1-.084-.742,5.785,5.785,0,0,1,.367-2.209.1.1,0,0,0-.068-.135,8.827,8.827,0,0,1,2.512-.526,5.216,5.216,0,0,1,1.546,1.416,6.209,6.209,0,0,1,.4.648c-.01.109-.022.218-.035.329a3.057,3.057,0,0,0-.32-.57,4.357,4.357,0,0,0-1.969-1.561c-.095-.038-.165.128-.07.167a4.181,4.181,0,0,1,1.849,1.526c.151.228.258.479.4.71a.092.092,0,0,0,.077.044c-.034.232-.082.46-.136.687a3.267,3.267,0,0,1-.306.381,3.478,3.478,0,0,1-.74.586,3.567,3.567,0,0,1-1.826.534.08.08,0,0,0,0,.159,3.548,3.548,0,0,0,1.98-.478,3.836,3.836,0,0,0,.7-.543c-.041.112-.068.229-.117.338a4.1,4.1,0,0,1-.28.508c-.023.037-.044.076-.068.112a.083.083,0,0,0-.047-.017.076.076,0,0,0-.061.024,2.8,2.8,0,0,1-.229.2,2.167,2.167,0,0,1-1.791.547" transform="translate(0.303 0.295)" fill="#7db1c7"/>
</svg>
