<svg xmlns="http://www.w3.org/2000/svg" width="101.517" height="68.707" viewBox="0 0 101.517 68.707">
  <path id="Arrow" d="M98.518,33.38c-.536.627-1.033,1.294-1.615,1.876Q82.289,49.895,67.657,64.516a2.533,2.533,0,0,1-2.329,1.052,1.977,1.977,0,0,1-1.362-3.022,6.186,6.186,0,0,1,.877-1.014Q77.7,48.669,90.555,35.813c.243-.244.476-.5.9-.943h-1.4q-43.487,0-86.973-.005a7.684,7.684,0,0,1-1.525-.126,1.982,1.982,0,0,1,0-3.872,7.678,7.678,0,0,1,1.525-.127q43.438-.008,86.876-.005h1.488c-.395-.417-.637-.686-.892-.941Q77.7,16.935,64.845,4.075a6.677,6.677,0,0,1-.877-1.014A1.987,1.987,0,0,1,64.231.587,2.018,2.018,0,0,1,66.7.293a5.138,5.138,0,0,1,.885.732Q82.521,15.951,97.446,30.892a15.491,15.491,0,0,1,1.071,1.333Z" transform="translate(1.499 1.609)" fill="#ff8843" stroke="#ff8843" stroke-width="3"/>
</svg>
