<?xml version="1.0" encoding="utf-8"?>
<!-- Generator: Adobe Illustrator 23.0.5, SVG Export Plug-In . SVG Version: 6.00 Build 0)  -->
<svg version="1.1" id="Layer_1" xmlns="http://www.w3.org/2000/svg" xmlns:xlink="http://www.w3.org/1999/xlink" x="0px" y="0px"
	 viewBox="0 0 559.7 131.98" style="enable-background:new 0 0 559.7 131.98;" xml:space="preserve">
<style type="text/css">
	.st0{fill:#FFFFFF;}
	.st1{fill-rule:evenodd;clip-rule:evenodd;fill:#FFFFFF;}
	.st2{clip-path:url(#SVGID_2_);fill:#FFFFFF;}
	.st3{clip-path:url(#SVGID_4_);fill:#FFFFFF;}
	.st4{clip-path:url(#SVGID_6_);fill:#FFFFFF;}
	.st5{clip-path:url(#SVGID_8_);fill:#FFFFFF;}
</style>
<path class="st0" d="M278.88,65.97L278.88,65.97L278.88,65.97z"/>
<path class="st0" d="M278.88,65.97L278.88,65.97L278.88,65.97z"/>
<path class="st0" d="M278.88,65.97L278.88,65.97L278.88,65.97z"/>
<polygon class="st1" points="61,25.47 0,25.47 0,46.47 19,46.47 19,106.47 40,106.47 40,46.47 61,46.47 "/>
<polygon class="st0" points="0,25.47 0,46.47 19,46.47 19,106.47 40,106.47 40,46.47 61,46.47 61,25.47 "/>
<polygon class="st0" points="0,25.47 0,46.47 19,46.47 19,106.47 40,106.47 40,46.47 61,46.47 61,25.47 "/>
<polygon class="st1" points="123,46.47 123,25.47 90.05,25.47 68,25.47 68,47.28 68,59.39 68,77.54 68,87.63 68,106.47 
	90.05,106.47 123,106.47 123,86.47 89,86.47 89,73.47 117,73.47 117,58.47 89,58.47 89,46.47 "/>
<polygon class="st0" points="90.05,25.47 68,25.47 68,47.29 68,59.39 68,77.55 68,87.63 68,106.47 90.05,106.47 123,106.47 
	123,86.47 89,86.47 89,73.47 117,73.47 117,58.47 89,58.47 89,46.47 123,46.47 123,25.47 "/>
<polygon class="st0" points="90.05,25.47 68,25.47 68,47.29 68,59.39 68,77.55 68,87.63 68,106.47 90.05,106.47 123,106.47 
	123,86.47 89,86.47 89,73.47 117,73.47 117,58.47 89,58.47 89,46.47 123,46.47 123,25.47 "/>
<polygon class="st1" points="248.17,25.47 248.17,58.47 225.97,58.47 225.92,25.47 205.04,25.47 205.04,106.47 225.97,106.47 
	225.92,73.47 248.13,73.47 248.13,106.47 269.04,106.47 269.04,25.47 "/>
<polygon class="st0" points="248.17,25.47 248.17,58.47 225.97,58.47 225.92,25.47 205.04,25.47 205.04,106.47 225.97,106.47 
	225.92,73.47 248.13,73.47 248.13,106.47 269.04,106.47 269.04,25.47 "/>
<polygon class="st0" points="248.17,25.47 248.17,58.47 225.97,58.47 225.92,25.47 205.04,25.47 205.04,106.47 225.97,106.47 
	225.92,73.47 248.13,73.47 248.13,106.47 269.04,106.47 269.04,25.47 "/>
<g>
	<defs>
		<path id="SVGID_1_" d="M130.34,65.97c0,22.41,18.03,40.57,40.27,40.57c10.39,0,19.83-4,26.97-10.51l-13.5-12.56
			c-3.73,2.92-8.39,4.68-13.46,4.68c-12.14,0-22.01-9.95-22.01-22.18c0-12.23,9.87-22.18,22.01-22.18c5.28,0,10.12,1.89,13.91,5.02
			l13.46-12.52c-7.19-6.74-16.79-10.89-27.38-10.89C148.36,25.4,130.34,43.57,130.34,65.97"/>
	</defs>
	<use xlink:href="#SVGID_1_"  style="overflow:visible;fill:#FFFFFF;"/>
	<clipPath id="SVGID_2_">
		<use xlink:href="#SVGID_1_"  style="overflow:visible;"/>
	</clipPath>
	<rect x="-98.86" y="-63.35" class="st2" width="764.25" height="251.4"/>
	<rect x="125.31" y="20.37" class="st2" width="77.7" height="91.2"/>
</g>
<g>
	<defs>
		<path id="SVGID_3_" d="M422.58,43.47h17.32c6.65,0,10.62,5.29,10.62,10.73c0,5.48-4.63,9.27-10.62,9.27h-17.32V43.47z
			 M422.49,25.47h-17.25h-3.72v81h21.15v-26h7.76l16.45,26h22.15L451.2,78.42c10.61-3.51,18.12-11.28,18.12-24.25
			c0-18.22-12.88-28.7-29.55-28.7H422.49z"/>
	</defs>
	<use xlink:href="#SVGID_3_"  style="overflow:visible;fill:#FFFFFF;"/>
	<clipPath id="SVGID_4_">
		<use xlink:href="#SVGID_3_"  style="overflow:visible;"/>
	</clipPath>
	<rect x="-101.81" y="-61.53" class="st3" width="760" height="250"/>
	<rect x="396.52" y="20.47" class="st3" width="77.8" height="91"/>
</g>
<g>
	<defs>
		<polygon id="SVGID_5_" points="476.04,25.47 476.04,106.47 496.04,106.47 496.04,81.47 496.04,58.47 496.04,25.47 		"/>
	</defs>
	<use xlink:href="#SVGID_5_"  style="overflow:visible;fill:#FFFFFF;"/>
	<clipPath id="SVGID_6_">
		<use xlink:href="#SVGID_5_"  style="overflow:visible;"/>
	</clipPath>
	<rect x="-103.3" y="-61.53" class="st4" width="760" height="250"/>
	<rect x="471.04" y="20.47" class="st4" width="30" height="91"/>
</g>
<g>
	<defs>
		<polygon id="SVGID_7_" points="526.75,25.63 486.57,63.9 530.91,106.32 559.7,106.32 514.32,62.66 553.35,25.63 		"/>
	</defs>
	<use xlink:href="#SVGID_7_"  style="overflow:visible;fill:#FFFFFF;"/>
	<clipPath id="SVGID_8_">
		<use xlink:href="#SVGID_7_"  style="overflow:visible;"/>
	</clipPath>
	<rect x="-104.3" y="-63.01" class="st5" width="760" height="250"/>
	<rect x="481.57" y="20.96" class="st5" width="83.13" height="90.69"/>
</g>
<path class="st0" d="M326.1,94.59c17.73-9.91,36.8-17.68,56.89-22.97l0.01-0.01c-0.02-0.04-0.03-0.08-0.05-0.12
	C372.54,45.12,357.69,20.98,339.34,0c-33.25,35.64-56.02,81.18-63.41,131.71c-0.01,0.09-0.03,0.18-0.04,0.27
	c12.91-12.46,27.19-23.52,42.58-32.93L326.1,94.59z"/>
<path class="st0" d="M394.68,110.46c-5.42-0.36-10.88-0.54-16.39-0.54c-33.26,0-64.97,6.61-93.9,18.6c0.04-0.05,0.07-0.08,0.11-0.1
	l0.01-0.01c28.13-25.12,62.08-43.86,99.58-53.94h0.01c0.21,0.56,0.42,1.13,0.63,1.69c0.33,0.89,0.66,1.78,0.97,2.67
	c0.11,0.29,0.21,0.57,0.31,0.86c0.1,0.27,0.19,0.53,0.28,0.8c0.2,0.58,0.41,1.16,0.6,1.74c0.27,0.76,0.53,1.53,0.77,2.3
	c0.07,0.2,0.14,0.41,0.2,0.61c0.29,0.85,0.57,1.7,0.84,2.56c0.25,0.8,0.5,1.6,0.73,2.4c0.18,0.57,0.35,1.14,0.51,1.71
	c0.19,0.6,0.36,1.2,0.53,1.8c0.22,0.75,0.44,1.5,0.64,2.26c0.08,0.27,0.16,0.55,0.23,0.83c0.12,0.41,0.23,0.83,0.33,1.25
	c0.02,0.06,0.04,0.11,0.05,0.17c0.05,0.17,0.1,0.35,0.14,0.53c0.24,0.86,0.46,1.73,0.68,2.6c0.32,1.26,0.63,2.52,0.91,3.79
	c0.08,0.31,0.16,0.63,0.23,0.95C394.03,107.47,394.36,108.96,394.68,110.46"/>
</svg>
