<svg xmlns="http://www.w3.org/2000/svg" xmlns:xlink="http://www.w3.org/1999/xlink" width="925.801" height="577.204" viewBox="0 0 925.801 577.204">
  <defs>
    <clipPath id="clip-path">
      <rect id="Rectangle_9" data-name="Rectangle 9" width="925.801" height="577.204" fill="none"/>
    </clipPath>
  </defs>
  <g id="Group_35" data-name="Group 35" transform="translate(34.199 -20)" opacity="0.23">
    <g id="Group_3" data-name="Group 3" transform="translate(-34.199 20)" clip-path="url(#clip-path)">
      <path id="Path_55" data-name="Path 55" d="M53.342,125.934c-1.7.286,2.834,1.7,3.963,1.7-.571-1.7-2.83-1.134-3.963-1.7" transform="translate(187.224 445.162)" fill="#dcb584"/>
      <path id="Path_56" data-name="Path 56" d="M127.246,83.237a1.524,1.524,0,0,1-.168.381c.113-.023.177-.145.168-.381" transform="translate(449.206 294.233)" fill="#dcb584"/>
      <path id="Path_57" data-name="Path 57" d="M127.148,83.229l-.036-.009.014.082c0-.018.027-.063.023-.073" transform="translate(449.326 294.173)" fill="#dcb584"/>
      <path id="Path_58" data-name="Path 58" d="M94.272,1.755a8.837,8.837,0,0,0,1.66.612,4.7,4.7,0,0,0-1.66-.612" transform="translate(333.24 6.204)" fill="#dcb584"/>
      <path id="Path_59" data-name="Path 59" d="M923.77,458.985c1.814-3.261-4.558-3.964-1.129-6.231-5.374.535-9.677-2.7-14.167-5.1,1.043-1.483-2.476-2.608-3.4-2.834.408-1.333,5.528-.844,3.4-2.263-1.27-.853-3.664.154-4.812.844-4.576-5.9-16-6.476-22.661-9.913-6.444-3.31-4.036,3.433-6.517,6.521-4.639-.327-6.784-5.6-10.48-7.65-.372-2.884,3.533-2.744,5.378-2.553,2.032-4.3,9.02-2.676,9.07-8.5.009-1.5-.4-4.771-2.553-4.53-.6-2.907-19.11-1.165-20.112-4.816-.762,4.943-4.689-1.025-5.383-2.549-2.395,3.605-5.573-5.029-8.494-4.53-.163-.064-.476-.358-.476-.191l.476,1.038c-2.934-.689,1.814,3.814-1.7,3.963-2.218-3.02-3.174-4.979-.857-8.494.667.1,6.612.9,3.12,0-.6-1.492-5.056-1.419-3.12-3.682,8.512,2.866,3.628-3.469,7.66-3.4-.272-2.485-4.331-1.719-5.95-1.7,2.372-2.884-3.832-3.447-5.378-3.116-2.7-2,1.778-.9,2.549-2.263-.249-1.95-3.469-1.451-3.116-3.4l.522-2.109c1.542-5.41,1.578,4.458,5.986,2.957l-3.115-3.964c.326-5.328-3.814.308-6.8-1.419-6.285,5.623-7.759-4.925-11.9,1.419-2.186-.716-4.526-.739-6.517-1.986-2.113,4.834-7.741-2-8.78,3.963-5.487-2.735-10.938.522-16.144,2.272.295,6.825-4.639,5.052-9.074,6.8-5.324,7.859-14.249,17.042-16.43,26.343-2.875,1.025-11.646-.018-10.476-3.4-2.4.766-4.925-3.279-5.95.848-4.285-3.206-9.514-2.58-14.444-1.7-1.179-4.1-11.2-1.954-5.954-7.932-3.918,3.252-3.283-4.013-6.231-3.963l.562.875c1.623,2.771-3.555-1.515-3.4.825-3.029-4.68-.952-7.959,4.249-9.065l.943.762c1.274,1.025.39-.635,1.039-2.181l2.834.848a10.569,10.569,0,0,1,.848,9.351c2.857,1.306,10.5,6.925,8.784-.853,2.694-1.941,10.521,3.134,12.747,0,.531-8.775,7.405,4.018,11.042-3.111,1.637-3.188,3.156-6.195,1.138-9.637-6.807-2.68,2.285-6.186-3.111-10.194.531-2.172,2.734-2.657,4.53-3.4,4.163-6.934-2.218-11.8-2.839-18.412l1.7-.281.286-2.267c4.317-.776,2.725-4.045,3.968-7.084,2.925-1.193,1.306,1.465,2.267,2.834,5.492,7.814,35.345,7.741,43.626,3.964,6.571-2.993,12.326,7.251,18.969-3.115-.925-.7-2.245-2.286-1.125-3.4,3.351-.322.1-1.465-.853-1.7-2.263-3.084-7.283-2.7-9.065-6.236.553-3.4-4.263-3.256-4.245-6.8,3.319-2.063,6.847-5.36,11.047-3.682.594,1.732,4.2,1.583,5.664,1.419l1.134,2.263c-.553,2.821.05,5.673-.281,8.5,4.145,2.363,9.093,2.4,13.591,3.682,1.079-1.914,3.864.023,5.1-1.982-1.347-1.311,3.07-3.574-.281-3.687-1.143-5.437-9-6.276-13.033-8.775-2.249-4.92,10.276-3.261,3.4-6.517-.39-3.768,3.274.385,4.811-1.419-1.456-1.846-4.276-2.921-4.811-5.383,1.029-1.669,3.279-2.6,5.1-3.116.063-2.571,3.4-7.047-2.834-5.659-.408-.612-.993-2.408.567-1.986,2.553.685.408.258-1.419-1.134l-2.254-.068c-6.6-.5,4.485-4.2,2.254-7.863.041-4.335-6.866-2.911-9.346-5.1-3.678-.526-23.482-6.226-23.228-9.628-7.7,1.778-14.262.132-21.808-1.134-2.794-.472-5.936,4.018-8.5,1.415a14.3,14.3,0,0,0-9.922,5.669c-1.991-.8-8.013-5.918-7.922-.571-2.435-.907-2.739,1.4-2.276,3.115-2,1.791-1.914,5.61-4.24,6.8.354-9.519-24.062-3.977-28.611-4.816-3.456-3.256-4.938,3.365-8.5,3.115-3.6-3.587-1.7-7.736-.572-11.895,1.429.753,2.118-1.605,2.268-2.553-2.045,1.057-3.764-4.2-6.8-3.963,1.515-3.474,9.791-2.834,6.8-7.083,2.852-2.725-2.54-3.161-1.982-5.664-.494-.834-.816-2.644.848-2.267-1.46-.721-1.111-3.664,0-4.53,6.92-5.41,1.125,10.675,12.466,9.346,1.927-8.4,6.013,5,8.494-3.682,1.333,1.991,3.111.522,2.834-1.419,2.9-3.673,4.694,3.651-.558,5.669.39,1.6,1.4,4.462,3.392,4.53.893-1.828,1.66-4.208,3.682-5.1-.009,1.429.744,3.855,2.549,2.267l1.134.848c.213-6.566,5.936.97,9.07-.567a16.4,16.4,0,0,0,16.149,7.931c1.288-2.15,4.235-2.422,3.111-5.664-5.256-2.363-2.2-11.936-7.932-12.466-1.22-2.875-5.723-9.156-.848-11.328-.4-.163-14.394-16.453-16.144-18.416,5.4-2.091,11.392-.535,16.992-1.41-1.193,3.519-3.61,6.322-3.682,10.194-.245,12.045,35.481,8.693,39.939,2.267,3.075-4.421-7.147-11-9.065-14.167,2.023-1.451,1.166-4.485.853-6.512-5.9-.585-20.616,9.569-24.933,5.945,2.567-3.687-1.932-7.619-4.811-9.346-8.752.6-2.222-8.467-6.8-11.614-3.954,1.147-8.045,3.628-12.181,1.7-1.465.789-2.862,3.4-4.816,2.553-1.478-2.766-4.916.236-5.383-3.4,3.456-1.333-.517-2.984-1.986-3.4.372-.558,1.714-1.71,1.986-.281l1.134-2.553c-3.768,1.687-2.526-2.472-4.258-4.249,1.066-5.827,5.809-.358,9.07-1.134,7.233,5.492,16.707,6.526,25.5,6.8,3.224-2.2,9.764-.785,8.5-6.8-1.247-5.982-8.031-4.911-11.328-8.78,1.052-2.871,4.39-3.855,5.378-6.8,3.787.018,4.916,3.46,9.632,3.12,12.716-.912,15.142-8.743,2.558-12.466-6.653-1.968-1.746-5.333-4.254-9.351-5.845,3.9-10.938-2.63-16.711-.848-3.569,1.107,1.156,3.918-1.134,3.968a8.632,8.632,0,0,1-2.267-4.249c-2.744-1,.059-3.809.567-5.378-3.709-2.92-10.426-11.623-11.052-11.618-2.254-2.535-.549-6.009.848-8.5-2.077-2.884-5.578-2.063-7.927,0-1.333-.395-.59-1.909,0-2.544-.245-7.514-7.428-1.809-8.5-6.8-3.56,3.274-8.566,4.544-13.314,4.245-1.242.6-2.413,2.05-1.419,3.4l-1.415,1.7-1.415-1.419.667-.871c3.406-4.576-3.6,1.85-5.2-1.673-.762-1.682-.889-5.338.286-6.8-.49-6.362-4.988,1.292-7.927-.853-2.8,3.32-12.19-1.029-9.351,6.512,2.716-1.732,5.918,2.816,7.932-.567.649,1.138,5.759,2.272,2.834,3.968-2.644,1.537-7.025,5.5-9.637,6.235-3.537-2.381,2.435-5.387,1.419-8.5-1.646-1.107-3.3,1.891-5.383.848-2.091-3.714.748-6.793-1.7-10.194-8.19,3.433-17.455,3-25.209,7.641-.24,2.3.785,4.512.281,6.8.612,1.243,2.317,3.746,3.968,2.549,2.644.236,4.9-4.217,7.36-2.549a15.961,15.961,0,0,1-9.628,6.8c-1.056,3.038-3.782,1.147-5.945,1.7-2.086,2.689-3.152,6-4.535,9.065-2.821-2.857-13.3-10.766-17.282-10.766-.893-1.655-3.6-4.077.286-4.249-4.095.263-7.56-2.54-11.614-2.549-.535-4.158-6.29-2.984-6.8-5.95-.422-2.408,5.528-1.828,6.8-1.982,9.124,5.7,19.613,10.081,30.311,11.614,2.145-1.841.544-6.594-.281-9.065,3.954-.082-.463-3.029-1.71-3.4-2.222-.662-5.8-.336-8.208-.567-1.573-1.3-2.984-3.637-1.991-5.669-5.877.54-6.956-6.245-12.176-6.8,0-4.471,4.707-6.34,6.521-9.913-2.408-1.465-1.9-6.276-4.821-6.517,5.582-.363,9.745-.254,15.015-2.549,2.422-1.057,9.251-2.744,7.079-7.084-4.308-8.625-24.928-2.594-31.726-.848-6.013,1.542-.97-6.517-6.8-3.968.549-2.517-1.941-4.571-3.678-5.945l3.392-2.267c-.875-9.469-10.675-3.546-1.7-15.3-5.578-3.292,5.27-7.138-2.834-8.5-.553-8.7-14.457-6.957-14.162-16.43-5.328-2.97-8.276,4.92-12.462,5.669a17.03,17.03,0,0,0,.281,5.1c5.7,5.106,11.586,10.321,18.416,13.886-4.4,15.577-14.321-4.1-23.232-1.424-2.712-2.363.8-3.914.571-6.512-11.083-.063-1.787-4.562,2.263-5.1-1.288.086-4.476-.231-1.7-1.986-5.7-.059-7.274-10.294-13.314-8.78-5.319,1.333-3.392,10.253,1.415,11.047-1.85,7.074-11.373.608-1.129,18.412-3.469,4.041-12.489,4.186-12.471-2.267,2.471-2.875-2.553-6.975-3.963-9.628-3.125-5.877-11.682,6.993-12.748,0-2.662.372-5.718,3.787-7.083,5.95,4.281,6.979-5.573,4.657-6.512,5.945-1.12-7.233-4.9-13.6-6.517-20.679-.785-3.424,19.645-6.272,22.661-11.614,4.249-1.918-.236-5.419,0-8.213-3.741-.744-7.587-.467-11.324-1.134-3.388,3.147-6.013-2.013-9.351-1.134-1.637-4.009-7.192,3.945-8.494,5.1-3.555-3.215-9.369-4.154-13.89-2.83-4.149-2.943-12.816.082-17.559.567-3.256-4.372-3.079,3.732-9.918.848.326,3.6-3.388,2.472-1.986-.848-4.118-3.5,2.585-2.839,1.71-7.369-1.156-5.936-6.272-4.83-10.2-7.646-4.526,1.614-6.526-4.24-10.766-4.249-1.038.9-2.372,2.476-1.977,3.968-.585,1.093-1.941,2.14-3.12,1.134-3.2,2.027-7.174,2.013-10.757,2.834l-.036,2.059c-.413,5.732-4.934-2.775-8.467-.644l3.111,2.544c-.286,2.789-2.172,4.957-3.4,7.369-2.494-3.868-7.8-3.963-10.48-7.936-1.873-2.775.39-2.73,2.549-2.263.249-.653.793-3.247-.848-2.549L421.246,9.71a7.628,7.628,0,0,1,6.263-1.75,4.12,4.12,0,0,1-2.3-2.218c2.481-2.848-4.571-.558-4.249-3.682-3.592,3.959-4.281-2.83-7.641-1.986-1.555,3.691-5.229,5.891-6.235,9.918-4.068,1.605-1.551,6.9-4.539,9.351a5.594,5.594,0,0,0,3.4,3.963c-1.85.621-4.331,1.292-6.231.567-3.12.821-1.156,4.453-2.834,6.231-4.154-4.163-9.46-6.145-15.287-4.816-1.71-1.292-4.49-4.662-6.807-4.53-2.667.145-9,12.144-2.267,12.181,1.882,7.247,7.211,12.512,11.052,18.7l-3.968,1.7c-.472,1.628,2.748,3.537-.281,4.245-.5-3.982-6.281-1.6-6.235-5.1,2.948-4.095-3.211-6.87-2.263-10.48l-3.12-1.415.29-1.419c-4.113-4.716-7.732-13.577-15.582-10.766,3.347,8.82-8.961.807-11.895,4.535,3.959,4.707-6.576,3.3-7.655,6.512-1.6,4.766-6.394,8.489-7.084,13.033-.9.975-4.095,3.723-3.678.286-6-5.469-11.637-12.475-20.117-13.886-13.21,21.346-3.406,17.718-3.4,35.98l-1.7-.286c-.023-3.6-8.086-6.136-4.249-9.632-1.061-.372-6.725-10.793-9.065-5.383L284.7,60.7c-1.256,3.242,4.789,4.689-.281,6.231-.54-1.474-2.834-1.864-2.553-3.678-6.371-3.66-11.981-12.716-20.393-8.217-1.542,3.07-2.812,6.421-2.549,9.913-9.414,1.474-22.833-2.376-23.795,11.333,5.338,3.555,13.854,3.578,20.112,6.517,7.451,3.5-1.079,6.993,2.267,12.462l1.7.286c1.986-2.335,3.41-5.106,5.1-7.65,1.016,1.682-.313,4.422-1.129,5.95-2.4,1.283-.009,3.61-1.134,5.383-3.483-.821-5.582-4.526-9.346-4.535-1.37-4.92-6.045-7.578-10.485-9.346-6.113,3.714-15.4,3.147-20.393,8.5-2.145,2.3.8,5.7-1.419,7.936a12.446,12.446,0,0,0,9.918,2.263c6.888,3.256-4.222,3.941-3.682,8.213-1.075,2.163-2.626,7.655.848,8.5,6.2-3.233,12.013,3.619,17.564.286,6.031,4.653,15.682-4.05,19.26,5.1,2.512,6.4-9.247,9.664-7.079,15.582,1.723,4.707,10.1-.7,13.881,2.83,3.46,3.238-5.047,3.147-3.968,7.083,1.415.222,3.379.952,3.682,2.553h-.848c-1.487-1.669-7.006,7.7-9.065,8.494-1.052-.921-2.317-.249-2.834.853-3.619-2.331-8.013-.535-11.895-1.986-3.682,2.236-9.94.136-9.632,6.517-1.016,1.22,2.993,2.812.571,3.115-4.911-4.694-3.161,4.589-7.936,3.4-2.689-.667-10.983-3.106-11.047-1.415l-1.415-1.419c-2.843-.517-14.2-.127-10.2,5.669-3.143,2.136-3.968-.082-6.793-1.138,1.088-2.93-6.984-3.837-2.834-6.231-9.986-1.909,2.122-7.605-1.134-13.029l-3.12,2.267c-2.417-.853-6.181,1.5-7.927-1.134-3.533-.213-4.8,13.963-7.083,5.669,1.9-1.868,1.583-4,.567-6.24-6.1-3.093-4.367,4.585-7.369,7.088,4.281-.209.014,3.973-1.129,4.816,4.272-7.9-6.476-3.143-9.346-5.664-1.338,1-4.825,2.1-1.986,3.959-.29,3.886,3.034,6.984,5.664,9.351a22.078,22.078,0,0,0-4.816,3.4c1.4,5.582,8.9,5.347,11.337,10.2-5.678,2.39,2.83,8.04-3.682,9.628l-.853-2.834c-2.8-2.227-7.238-1.351-10.48-.848-.59.091-5.133,2.267-2.267,1.986l.286,2.263c2.68,1.229,3.9,4.8,7.079,5.1.05,3.338-5.134,1.442-4.816,4.816,3.682,4.163-2.462,4.453-3.682,7.365-2.4.1-1.025-3.719-1.415-5.1a4.735,4.735,0,0,0-5.664.848c-1.778-2.771-3.655-5.569-4.535-8.78-2.88,1.932-3.329,8.176-6.8,5.387.322-3.369-4.358-1.755-5.1-4.539-3.061-.063-6.562-7.115-9.07-1.7,2.594,8.317-16.661,13.056-4.53,23.79,9.092-.041.227,15.419,23.228,14.453,1.229,2.05,3.755-.517,5.387,1.129,9.863-2.3,7.473,9.306,11.895,14.729,3.478,4.276,7.483,2.979,10.766,6.235.168,1.279,10.535,9.5,3.4,10.48-.531,1.955-1.95,4.344,1.129,4.816-.435,3.669-3.868-.036-5.66.286-2.363.426-.73,3.832-3.115,4.245-3.846.671-6.158-1.5-5.1-5.383-2.349-.726-2.562-5.873-5.383-4.245-1.3-.34-.612-1.705,0-2.267-2.331-.871-3.329-4.907-5.945-5.95,1.5-3.2,4.462,2.086,5.1-.848l.848-5.383c-1.692,3.932-6.353,3.2-9.632,4.535l-1.7-1.982c-1.9-.3-1.66,2.576-1.419,3.678l3.4-1.415c2.227,2.662-2.825,3.551-3.682,5.383a5.726,5.726,0,0,1-5.664-.853c-1.546,2.245-4.476,3.374-6.517,5.1-1.292-1.887-1.188-5.977-4.249-5.95.975,2.508-1.692,5.646-.286,7.65,1.515.517.522,1.973-.281,2.544-.372,4.748,2.644-.472,4.53.853,3.106,8.376-6.83,3.492-7.65,9.351-1.283.3-3.288,1.211-3.111,2.83-2.281-.014-4.412-1.574-5.954-3.116.336-4.068-2.871-2.068-4.807-3.963h2.263c1.406-2.816,5.5-1.6,7.36-3.968-.667-2.6,2.385-5.156.286-7.931-1.51-2-17-9.138-19.827-9.918-8.916-2.44-20.647,7.029-28.044,11.052-4.444,2.417-18.965,1.537-17.849,5.664-2.993,3.1-3.846-3.152-6.8-2.549-.884.181-3.129,3.487-.853,4.53-1.687,1.728-2.317,4.539-4.816,5.383-2.3-1.261,1.619-2.376.286-3.682-2.082-2.036-7.179.349-9.628.571-.277,3.233,2.834,6.526,4.812,8.775,5.147,5.868-3.95,6.421-3.963,11.618-4.966.254-4.195,5.342-5.1,8.779,12.462,5.392,24.212,14.149,38.243,14.729-.843,1.2-1.71,3.143-.848,4.53-2.653.009-17.459.05-11.9,4.254-3.134,1.193,1.374,2.821,1.419,4.816-6.14-.3-9.872-8.349-14.167-11.9l1.134-1.7c-9.41-2.49-6.748,2.784-11.333,7.083-3.619,3.4-1.374-2.725-3.682-4.245-6.721-4.435-11.5-9.206-20.393-8.222.993,2.685-2.072,3.945-.853,6.8,6.616,3.174,12.657,7.9,20.4,7.365-4.476,10.834,8.716,8.195,13.6,13.314-.594,4.086-3.782.426-4.816-1.134-4.34,1.279.98,4.2-.853,6.8.363.821,1.773,2.834,2.553,1.134,1.016,2.49,6.19,4.616.853,6.517-1.76-2.345-6.39,3.351-8.5,3.963-.834,3.392.313,6.793,0,10.2a9.172,9.172,0,0,1-7.083,1.7c.512,2.562-2.784,3.669-2.267,6.231-3.573.893-2.676-2.558-4.245-4.249-2.013,2.267-3.252,4.639-1.986,7.65a5.583,5.583,0,0,0,5.1,0c-.458,2.1,2.476,6.031,0,7.365-4.027-2.4-2.848,3.533-5.1,4.249,2.458-1.057,5.179,4.743,5.383-.567l2.549.848c4.585-3.791,9.251,4.6,13.314-1.134-.925-5.551,7.927.1,8.784-9.061.154-1.705,3.5.5,2.263-1.138l-1.7-1.982c1.6-4.78,3.378.186,5.383,1.134a16.435,16.435,0,0,0-5.383-10.761c1.542-.907,1.705-3.519,1.7-5.1,4.748-.036,1.528,8.254,6.8,8.5,1.111,2.2,6.19,3.3,8.5,3.963,6.29,1.809.218,5.7,2.83,7.65,3.27,2.431,2.725,2.286-1.125,3.682,1.619,1.918,7.347,9.333,6.512,9.918,1.923,2.689-3.9,4.7-.281,7.079,4.467,2.934,12-1.2,15.292,5.1,2.1-5.129,6.571,2.322,10.2-.286-2.317-7.061,5.084-3.075,8.208-2.263,2.6-2.354,5.936.4,8.784-1.138,1.388,1.973.3,4.344.567,6.517.771-1.3,2.911-3.941,4.53-2.263l3.4-1.419,1.986.567,1.7,1.986c1.664-4.812,7.274-.562,10.485-2.272,2.39,2.385,6.3,1.719,9.346,1.7a6.481,6.481,0,0,0,4.249,1.7l.281,1.419c1.828-2.943,4.39.168,6.517-1.705.775-4.916,6.875.113,7.65-4.53l5.66,1.986c-4.734,4.412,1.755,6.988,3.4,10.766-6.022-1.655-10.589-.395-11.895,6.231a14.687,14.687,0,0,0-5.1-2.83c-.494-2.862-5.528-3.483-3.682-6.8-1.678-2.077-5.165-2.394-7.65-2.268-3.809,4.911-10.512-.258-14.167,3.968-2.2,2.553,1.243,4.136,1.134,6.231-.159,3.065-3.206,1.964-4.816.848-1.311,4.2-6.571,6.394-8.5,10.48-13.478-2.531-6.657,3.787-16.711,3.4-1.651-.064-3.564-2.707-4.53-1.415,3.247.558.8,3.229-.567,4.249a10.475,10.475,0,0,1-3.406-3.4c.721.259,6.249,2.045,2.839-.567.862-5.4-5.614-7.21-9.351-9.065-5.369,3.238-8.312-3.623-13.6-2.83-1.909,2.585-3.9,6.784-7.646,6.8-2.807,3.161-5.732,12.684-6.807,12.462a8.783,8.783,0,0,1-4.807,8.5c2.349,2.88,8.8,2.059,7.641,7.365.925.726,3.9,2.381,3.973,0,3.333-.73-.78,3.188.843,3.968l1.986-.567c2.277,8.458,4.666.884,8.217,1.134,4.707,3.451,6.294,2.131,11.328,3.682-1.71,6.657,10.135.431,5.1,6.8,1.542,5.419,23.427,9.7,15.582.567a7.947,7.947,0,0,0,7.079-1.419l1.415,3.4c1.955.862,1.229-4.013,3.682-4.249l1.134,2.267c1.32-2.608-3.084-4.358-1.415-6.8,2.793.748,5.827-.19,8.5,1.134-1.823,9.056-14.43,21.328-.286,22.661,6.331-3.859,7.859-12.376,15.015-15.3,2.7-3.574,7.528-4.444,10.766-7.365,2.358,1.034,2.839,3.41,1.982,5.664-7.079,4.435-7.22,14.838-13.314,20.393,1.918,2.494,1.651,5.818,3.115,8.5,2.521.576,6.24,1.129,7.65-1.7,9.165-2.091,23.808-17.187,32.86-7.65-1.8,6.721,1.51,5.6,4.816,9.346.345-1.655,1.438-3.932,3.4-3.963-.045-7.161,23-2.426,27.477-10.2,4.689.907.685-5.732,4.53-6.236l.848,4.54c-2.594,1.342-2.231,5.342-5.1,6.512-.259,1.873.1,4.689,1.982,5.664-.277,2.925-6.086,5.85-2.549,8.5,1.8-.19,3.877,2.177,5.383.286,3.07-3.864,4.526-7.383,8.78-10.485,2.3,2.7,2.884-5.533,7.65-2.83.132,3.891,4.775.9,6.235-.286,2.494.168,3.066,2.775,2.544,4.816.467-.726,2.045-2.118,2.267-.281,7.564.417-4.857,17.759,3.12,23.794h3.682c-1.038-2.961,3.778-2.589,1.415-5.1,2.494-.966,1.147-5.106,3.964-5.95,4.24,3.156,5.587-3.17,8.494-4.53.766-6.186,16.634-10.1,21.822-9.07,2.472-5.632,8.172.154,13.31-3.4-.834-3.623,5.093-2.063,4.535-5.668-1.936-1.506,2.481-2.462.848-4.53.825-1.578,7.732-11.219,7.927-5.383,4.081,2.621,9.464.349,11.618-3.682-2.24-7.161,7.21-2.78,9.632-6.793,2.072,3.233-4.884,1.991,1.415,9.628,3.1-4.3,9.623-8.254,7.65-14.448,4.626-3.487,5.387-10.766,11.333-12.748-.1-12.494,28.933,18.779,32.86,21.527.494,2.3,1.274,5.632,3.959,6.236,9.052,20.3,5.582,43.127.571,64.019-2.608,10.87-5.442-3.5-8.784-4.816-9.124-3.578-2.7,14.144-1.419,16.711-20.548,5.868-23.3-11.881-29.74-9.346-.308,3.011,1.311,4.059,1.7,6.517.576,3.673-1.751-1.288-1.982-1.982l-3.116-.852c2.766,5.242,6.036,12.661,11.9,15.015-.9-1.034-6.181-15.659-5.95-16.144a85.748,85.748,0,0,0,14.444,11.9l.562-1.134c3.623,2.585,33.862,7.428,37.4,5.669-1.76-4.118-8.2-1.107-10.195-5.1,1.333-.916,4.961-1.823,5.374.567,5.782.571,4.952-5.478,7.936-8.5,12.675,7.945,30.969,6.045,45.317,9.065-7.061,2.168-14.326.018-21.522.567l.571,1.7c10.97.3,25.613,3.823,34.556-4.535-.939-3.487-2.812,1.859-4.816,1.134-2.24.971-6.285,2.472-7.65-.567-10.222-1.746-20.665-1.828-30.878-3.682l1.991-3.116c10.652.272,20.924-2.825,31.436-3.964V559.26c-3.415-1.039-7.056-.367-10.48-1.415,2.118-6.24,10.748-3.873,8.5-11.895,2.494-1.587,2.44,3.315,5.1,2.544-7.056-12.875-10.657-23.391-14.444-37.386-.562-2.059.4-4.285-.281-5.95,3.71-7.21-.517-21.835,11.324-22.38,9.156-7.365,27-5.759,38.247-5.383,10.43.354,21.622-3.079,31.726-1.419,1.955.327,3.065,4.349,4.82,1.134,2.331.639,4.97-.893,7.079-1.7.952,2.567,2.825.957,3.682-.567.281,1.678,2.317,4.5.562,5.95.3,2.462-7.152,7-9.632,8.217s-3.016-2.05-4.526-3.12c-5.333.345-.326-7.709-4.821-7.932-3.791,8.553-1.728,16.552-3.682,24.928-.848,3.66-6.594,4.3-5.383,9.061,7.641,1.646,12.367-2.821,18.412-6.512.558-2.521,4.875-.934,4.535-4.249,1.791-.957,2.013,1.075,1.7,2.267a14.966,14.966,0,0,0,7.65,4.816c1.565,2.363,7.292-.562,9.913.277,4.326-2.462,9.065-4.313,13.033-7.36-.036,3.492,5.233,2.372,6.231,5.383,2.984-.218,6.716,1.256,9.637,1.977,7.342,1.841-.571,7.818,1.977,11.9,1.814.281,3.809,1.243,5.664.848,8.974-1.9,2.984-9.768,5.106-11.895,3.823,1.433,1.592-1,3.4-2.834,1.809.295,1.868-1.646,1.415-2.834,2.68,1.106,3.256-4.762,5.669-1.129,1.36-.1,3.32-.853,3.12-2.553,2.558-.775,5.827-1.778,8.208,0-.617,1.628-7.741,1.4-10.2,7.936,2.653,1.728,6.6-.739,8.5,2.544,2.308.064,2.149-1.342,3.4-2.834,2.013,1.95,7.537-6.929,7.365-7.36h2.834c.889-7.142,6.195-6.417,4.531-1.7,4.725,1.506,9.546,1.152,14.448,1.134.716-1.923,3.4-2.14,3.4-4.535,2.467.73,4.748-4.362,6.517-1.7,5.374-2.911-.258,7.927-.571,9.351,4.553,1.515,4.235,7.728,8.789,9.061.295,3.791,4.58,5.691,5.374,9.351,3.17,2.24,6.272,5.533,10.489,3.687,3.773-5.932,11.827-3.628,16.43-8.222,2.648,2.131,5.841,2.032,9.061,2.268,3.315-1.968,12.815-1.75,13.31-6.793.585-5.918,2.571-1.365,6.517-.571,1.3-1.116,2.059-3.973,4.254-3.4-.853.97,12.063,7.133,3.4,5.383-1.959,1.9-5.691,1.936-5.669,5.378,2.091,1.832,6.09,3.818,8.494,1.419,3.623,3.714,3.419-3.32,6.24-4.254,4.893-1.61,18.04-.494,20.675-5.093,1.143-1.986,1.714-6.226-.848-7.369,7.147-.7-.131-3.542-2.267-4.245,1.687-3.419-6.317-.585-7.088-3.687l1.424-.567c.15.036,6.979,1.37,4.249-.286,2.335-1.288,4.485,1.324,6.793.286,8.916-4,9.932,9.6,23.232,1.419,3.365-2.072-2.381-1.483-.286-3.687l-1.7.286c1.61-2.8,1.537-8.009,1.982-8.5l1.415.281c.508,3.066,2.172,3.057,4.539,1.705l.512-1.088c.463-1.519-2.317.657-2.5.8l-.567-3.115,2.272.848c.78-.839,2.549-3.6,0-3.4,1.946.032,1.4-2.861,3.4-2.549-1.378,3.619,2.961-1.433,3.4,2.263,2-.227,2.884,1.95,4.812,1.7.757.4,2.335,1.673,1.133,2.549l2.045.676,1.351.5c4.1,1.673-6.657-.1-2.685,3.274l1.274.925c-.313.245-2.8,2.666-.852,2.553,1.555-.676,3.592.517,4.816,1.415,4.889-1.723,11.092-1.932,15.01,1.986-.4-5.347,4.739-2.857,1.7.567l2.834,1.134c1.161-2.145,3.918-1.215,5.945-2.839,1.823,2.648,5.238-.3,7.655,1.138-1.664-2.227,4.344-.939,5.1-3.12,3.61,1.256.767,3.973-1.129,5.106,3.174,1.469,4.866,2.621,8.494,1.977.821,2.032,3.156,1,4.535.286-6.553-2.794,2.843-2.585,1.982-6.236l.943.626c2.3,1.456-.825-1.787-.376-3.737,1-4.344,5.2-.036,4.812-3.687,3.224-1.7,2.417,2.852,5.1,2.553,3.152-4.3,3.129,2.925,6.517-.281,2.086.975,4.517-1.991,7.36,0,1.043-2.394,4.227-1.85,6.235-2.834l-1.129-1.986c.59-3.4-3.623-3.147-3.968-5.664-.793-.916-2.53-2.258-3.682-1.134-2.58-1.968-7.95.295-9.07-3.682,2.444.123-.476-2.843,2.558-2.267,1.959.376,5.061,4.948,6.793,3.4-2.889-4.449-8.634-4.344-11.328-8.217,1.782-.009,3.646-.286,5.383.286l2.544-3.687c1.61,0,3.8.313,4.816,1.7,1.623-.952,8.5,4.113,5.383-1.129,3.016-.259,5.809,1.111,8.779,1.129,1.148-.739,17.94-.3,10.2-6.512M736.244,188.171c.281,2.267,1.7,3.4,3.4,5.1-3.115.567-4.24,1.7-7.36,0,2.834-1.415-.567-4.53,3.964-5.1m-20.96,68.268c1.7-3.115,7.079-.848,5.945,1.415-2.263-2.263-6.793,1.419-5.945-1.415M71.679,374a2.28,2.28,0,0,1-2.549-1.129c.848-2.267-2.267-3.682-3.687-4.53-.281-1.419,3.968-6.517-.281-3.968-1.982-2.267-5.945-4.535-5.945-7.365,2.83-.848,3.111,1.134,4.249,2.83-.857,3.12,3.963.286,4.812,2.834.567-.281,0-.848.286-1.7,1.415,3.115,4.816,4.245,8.78,5.1.853,3.963-4.816,3.682-5.664,7.927m8.5-74.78a5.561,5.561,0,0,0-6.8,3.4v-.567l-1.415.848c.8.644,1.6,1.968.562,2.83-2.009-.889-3.628,1.546-4.249,3.12,3.46,2.83-3.229,3.505-1.134,7.079-2.172.018-3.442,2.231-5.66,1.982v-1.415c-5.392-4.526-12.612-5.909-18.135-10.194,7.854.848,13.342,8.39,21.813,5.378,2.072-3.12-4.757-18.235,5.1-11.333-.766-2.277-2.331-4.821-4.53-5.945,2.263-1.5,6.167,6.009,7.546,1.955a10.729,10.729,0,0,0,.385-1.955c1.12-5.084,9.106-.676,12.176-4.254.376-2.131,2.716-4.934,0-6.512,5.437,2.984,11.7-.68,17.287,1.7-2.308,8.5-12.149-3.388-16.149,6.517-1.274,3.17-5.691,3.764-6.8,7.369M100.852,413.1c-1.129-.571-2.834-1.986-2.834-3.12,1.419-.848,2.834.567,4.539,0-.29.848-.571,2.549-1.705,3.12m9.918-29.463c-1.682,1.415-3.174,3.678-5.664,3.4a7.894,7.894,0,0,0,.848,6.226l-3.4.853c-1.22-1.229-.354-3.183-2.553-3.4l-.848,2.263c-.648-1.093-2.127-2.494-3.4-1.415a42.033,42.033,0,0,0-4.53-3.682c2.218-1.469,7.274-1.551,8.5-3.968-.9-1.809-3.515-1.311-4.816-.281-.943,5.279-3.623-7.383-5.1-2.267H88.676v2.549c-4.9-1.2-3.22-8.53.286-7.646,1.542,1.8,4.2,1.057,5.945,2.549,2.277-1.283,3.492-5.61,6.517-2.834,2.526-1.143,1.655-5.328,4.53-5.383,1.492-.023,13.464.44,12.748,2.834-5.161.553-.58,10.788-7.932,10.2m-1.7-31.44c-.848-.286-5.945,1.129-4.249-1.986-1.7-2.549,3.968-.571,4.249,1.986m9.346-20.117c-2.263,1.134-1.415,3.968-2.263,5.664-2.549-1.129-6.8,3.682-5.383-1.129,3.4-1.138,4.249-5.664,7.365-5.383-3.968-.281-8.5,1.41-11.895,2.263a2.478,2.478,0,0,0-.245.122,2.135,2.135,0,0,1-1,1.306c-.413,1.9,1.038,4.734-2.159,4.521,1.982,1.982-.853,2.267-1.986,2.834-7.36,2.544-.848-3.687-1.415-5.664.857-3.2,3.8-.784,5.56-1.691a1.819,1.819,0,0,1,1-1.306,5.081,5.081,0,0,0,.245-.975c-2.553-3.963,7.365-.848,1.982-4.245-2.834-.286,3.963-1.134,4.249.853-.286,0-.286.281-.567.281,1.415,1.419,10.761-2.834,6.512,2.549m21.817-11.9c-3.614.018-4.317,9.9-8.217,3.968-4.172,2.013-2.05-4.122-2.267-5.95,3.41-.7,6.653-3.047,10.2-1.415,4.118-2.227-6.526-2.825-5.383-5.388,5.945-1.079,8.058,7.551,14.167,5.954,3.274,6.322-7.025,1.125-8.5,2.83m15.015-36.823c-2.553-1.134-8.5.281-7.083-3.4,0-2.549,6.8-3.115,2.834-.567,1.41,1.982,5.1.567,4.249,3.968m-4.821,211.326a1.873,1.873,0,0,1-1.7.277c-.281-1.982,1.982-3.959,1.415-5.664,3.682,1.419-.567,3.12.281,5.387m-5.664-24.366c-.263-1.809,2.195-1.886,3.4-1.7,2.186-9.487,5.061-1.95-1.134-14.444.118.172,8.834,4.249,4.812,8.208,1.034,8.87,3.206,7.977-7.079,7.931m240.5,82.149h1.419c-.281,3.968,6.231,6.231,3.4,9.918.281,1.415.848,3.115,2.263,3.682.567-.286,1.415-.286,1.7.281-1.7,1.419-4.812.567-7.079-.281-3.115-3.968-4.254-9.065-1.7-13.6m-4.245,19.831c2.549-1.419,7.646-2.267,10.2.567-3.4.286-6.8-.281-10.2-.567m9.632-3.115a4.74,4.74,0,0,1,6.226,3.682c-1.977-.281-5.1-1.419-6.226-3.682m66.282-24.647c-.281,1.705,2.549,3.12,1.138,3.964a4.389,4.389,0,0,1-1.138-3.964m-4.249-15.858c.567,5.1,3.968,9.628,3.968,15.01-.848-.848-3.4-3.115-.848-4.249-.848-1.7-4.249-4.249-2.267-6.231-.567-1.419-1.134-3.964-.853-4.53M711.32,320.748c1.41-.571,5.378,1.7,1.7,2.544-1.415,3.12,3.964,1.986-.572,3.4-2.544-.567-1.406-4.249-1.125-5.945m-5.891-35.263c.113.159.4.526,1.07,1.265,0,1.415-1.977,5.383,1.987,4.535-2.553,1.134-3.964,5.378-5.669.848-7.088-.848,0-3.968,1.705-5.1,1.623-.163,1.111-1.238.907-1.551-.091-.127-.068-.1,0,0m-6.576-76.916c-.281-3.12,2.549,0,3.682-2.267,2.381.526,2.29,3.029,2.036,5.433a.69.69,0,0,1-.032.816.273.273,0,0,1-.263.245,1.98,1.98,0,0,1-.326.3c0-.249.168-.277.326-.3a2.34,2.34,0,0,0,.263-.245.5.5,0,0,0-.018-.3c.018-.172.032-.345.05-.517-.526-.9-2.775-1.619-3.17-2.6-1.129.562-.567,2.263-3.115,1.7-1.42-1.982-3.968-5.664.567-2.263m-13.6,5.669c5.619,1.655,1.51,4.961-1.415,3.111-.784-1.551-.163-2.594,1.415-3.111m-3.4,11.609c1.809.58,5.437,3.079,5.1-.848,1.351.49,3.165,1.388,3.682,2.83-5.061,4.145-11.949-1.814-12.181-5.383,1.061,1.837,5.351.118,3.4,3.4m-4.535,60.337c.29.853-.562,1.982-.562,2.834,0,.567,1.419.286.562,1.129a2.77,2.77,0,0,1-1.134,2.558c-1.134-2.558-1.134-5.669-3.963-7.65,1.982-1.419,3.678,1.7,5.1,1.129M630.3,147.661c1.973,1.134,5.941,1.419,5.941,2.549-2.83,1.419-10.194,2.834-5.941-2.549m-7.65,24.08c-1.138-.848-2.558-3.4-.286-4.535,2.549,1.415.562,2.834.286,4.535m.277-6.231c-3.111.848-8.77,1.7-10.761-.567,1.991-1.7,7.079-.281,10.761.567M610.754,294.4l-.848-3.115h-1.138l-1.125,2.263c-.635-1.859-1.66-4.3,0-5.945,2.97.744,4.653-4.567,6.517-.286-2.018,2.58,2.023,4.639-3.406,7.083m3.682,1.415c-1.129,1.134-.848,3.115-1.129,3.968-.857.562-1.138-.567-1.7-.853.281-1.415,1.415-3.4,2.83-3.115M598.574,128.687c2.834,2.263,7.646,1.982,11.047,3.964,0,.562-1.129,1.419-.286,1.982,2.834,1.134,2.834-2.263,4.825-1.982-3.12,2.83,1.973,8.5-4.539,7.932.853-1.134,1.986-2.553,1.134-3.968-6.8-.567-12.747,2.834-18.7.853,0-4.535,4.816-5.1,6.517-8.78m-20.96-32.864c1.129.567,1.415,1.419,2.549,2.267-.853,1.415-1.134,3.4-1.986,4.535-1.129-1.7-2.553-4.254-.562-6.8m4.807,30.6c2.558,4.53,0,4.53-1.415,9.061-2.83,2.267-3.392-2.83-6.226-2.267a10.291,10.291,0,0,0,7.641-6.793M558.349,88.172c1.2,1.27,5.247,4.725,5.093.571-.127-3.333-5.533-4.666-2.263-8.5,3.029,1.832,3.388,6.217,6.8,7.646,1.846,3.528-4.118,1.329-4.825,2.834-.971,2.082,4.285.177,5.673,1.134-1.283,1.274-2.812,2.984-3.12,4.812-8.648,1.868-4.544-9.292-7.646-2.83-2.861-2.2-8.789-.576-12.181-.567,2.771-4.435,8.748-2.254,12.466-5.1m9.913,105.663c-1.7-.567-3.4,3.682-4.254.567,1.7-.848,2.553-3.678,4.821-2.83-1.986,0-1.415,2.263-.567,2.263m-11.047-29.459c2.83-1.419,6.226-.562,8.494-2.267.567.848-2.268,2.553.567,3.12,0,1.415-3.12,1.415-4.812,1.415-1.138-.286-2.272-1.982-4.249-2.267m1.415,53.82s-3.4-2.267,0-3.678c2.263.848.562,2.549,0,3.678M540.219,335.473c-2.268.853-2.83,3.4-3.968,3.968.853-1.982-1.419-5.664,2.267-5.664,1.415,0,1.982.281,1.7,1.7m-5.388-199.426c-2.027.345-4.784-1.592-5.945,1.138a7.877,7.877,0,0,0,6.235.843c-.916.263-4.644,1.828-1.991,2.839-3.356,6.3,7.464,2.422,3.687,4.812,2.308,1.342,2.562,1.778,2.263,4.53-2.866-.848-2.707,2.857-4.526,3.973,3.51,2.6,0,4.059-.281,7.074-3.519,1.8,1.288,4.431-1.419,5.95-5.279-.78-10.661,1.438-15.868,0,1.41-4.725,6.539-7.342,7.088-12.457l-2.834-.286c.372-1.923,4.145-6.1,0-6.517-5.17,14.63-16.752,25.581-26.915,36.823,1.465-10.208,7.056-19.192,10.194-28.892,3.587-.372,6.39-3.977,10.2-3.115,3.505-4.988,10.553-6.979,11.609-13.6,1.574-1.814,5.084-5.061,4.821-7.65,1.138.381,9.278,3.583,3.678,4.53M532.854,341.99c-1.134.286.848-3.682-1.7-3.4-1.986,3.12-3.115-3.682-3.682,1.134-1.705-1.7-4.535-1.134-5.95-3.4-2.267.567-1.977,6.517-4.254,5.1-.558-2.834,2.553-2.834,1.986-6.231,2.267,1.419,2.834-2.267,3.973-.286,0-3.678,3.959-1.129,5.1-3.678,1.41,4.53,9.627,1.134,6.8,7.646.567,1.986-1.134,2.549-2.267,3.115m-20.112,58.922c.848.286,2.549.567,2.549,1.986.558,1.415-1.41,3.115-2.549,1.982,1.138-1.415-1.982-3.115,0-3.968m-8.222,17.849c-14.375,16.04-10.321-4.417-16.139,2.83-1.007,1.252-1.374,3.972-3.4,3.968-3.442-2.893-16.96,5.886-23.228,2.267-4.1-2.372-9.927,2.018-13.314,3.963,1.428,2.8-2.154,4.4-3.968,5.664-2.027-.653,3.379-2.676.286-4.526,3.388-1.8-.186-5.791,4.53-6.8-1.927-5.392,6.757-3.338,4.811-7.65.884-2.032,3.95-1.569,5.669-2.263,4.644,2.843-2.045-3.179-3.406-3.687,2.381-.93,6.489-1.51,7.088-4.53l1.415-.567c-2.712-2.1-6.362-2.335-9.628-2.834,4.394.571,8.68-3.773,11.9-3.4,2.063.24,2.9,3.079,3.959,4.53,3.555,4.871,6.576-3.351,8.5,2.834l2.544-1.982c-.6-1.111-2.521-1.936-1.7-3.4,2.957.254,5.41-.59,7.079-3.115l.857,2.549c-1.583.766-4.24,1.465-4.821,3.4-2.258,7.605-11.346,3.161-13.6,10.48,6.625,14.779,29.245-1.243,37.961-8.213-.957-2.354,1.741-5.691,3.963-3.4-.531,2.072,1.669,5.147-.843,6.517-1.85-.83-2.141,3.678-3.406.562-.7,2.571-5.134,3.415-3.12,6.8m-14.443,19.264c-1.419-.571-3.116-2.834-2.553-4.82.571,1.419,5.664,3.4,2.553,4.82M447.589,542.549c-1.134,2.549-2.553,1.7-2.553-.562,1.134-1.705,1.419,0,2.553.562M444.469,474c0-.567.286-5.106,1.134-1.415-.848.277-.848.848-1.134,1.415m1.134,52.686c2.263,1.7,2.263,4.821,2.834,6.8-1.415-1.138-3.968-4.249-2.834-6.8m.853-22.946c.281-1.129.848-2.549,1.134-3.964-.286,1.415-.853,2.834-1.134,3.964m1.41,42.5c1.134,0,1.986,2.544,1.419,2.83-1.134-.286-1.7-1.415-1.419-2.83m.571-51.281a14.159,14.159,0,0,0,1.134-3.678,14.159,14.159,0,0,1-1.134,3.678m-10.766-277.04c1.134-1.986-1.7-2.549-2.268-4.249-.844.571-1.7,4.816-2.263,1.7.281-2.267,2.83-2.267,4.53-2.267.98,1.955,1.755,4.322,3.95,4.757a1.739,1.739,0,0,1,1.152.059,3.948,3.948,0,0,1-1.152-.059c-1.787.521-1.628,4.462-4.517,3.741,2.553-.848-2.544-3.4.567-3.682m-3.963,8.217c-1.705,1.977-2.549-1.419-2.834-1.7,1.982-.853,7.932-.281,2.834,1.7m1.977,40.787c2.267.853,1.419-3.4,3.682-1.129a143.7,143.7,0,0,0-8.775,26.343c-4.816-11.047-3.973-23.795-1.986-35.975.848,5.1,7.65,4.53,7.079,10.761m5.1,12.466c2.834.281,5.95-.567,8.5.567-2.83,0-2.263,5.378.853,2.549-5.1,5.383,5.1,3.682,1.134,9.346,2.825,5.954-1.134,10.485-2.834,16.149-4.526-1.982-1.7,3.682-4.249,4.816a32.291,32.291,0,0,0-1.986,4.535c-3.116-3.115-1.415-9.065-4.249-11.9-.562-9.913-.848-17.845,2.834-26.062m8.5-103.114c1.134-2.263,7.365-3.4,3.964-7.65,0-2.544-.848-6.512-3.111-8.779,0-1.982-2.549-3.4-1.138-5.378,1.982,2.83,5.954,5.378,10.194,4.245.571,9.637-1.125,22.384-3.959,32.3-1.986.848-3.682,2.263-5.383,3.115-1.134-6.517-.281-12.748-.567-17.849m15.3-84.693c2.263.281,5.664-1.986,8.775-1.705-2.267,1.705-9.061,5.95-10.48,3.4-5.1.848.567-1.7,1.705-1.7m1.977-12.185c-1.973,1.419.857,5.7-3.4,3.682-1.025-1.524,3.093-3.764,3.4-3.682m21.817,74.789c4.83.848,12.53-10.616,8.779,0-4.422,12.494-8.081,25.5-11.9,38.238-3.519-5.383-9.936-8.92-11.333-15.577-5.052-1.433-.925-5.437.567-7.931,3.968-6.616,3.428-16.58,13.886-14.729m-.286-16.153a4.747,4.747,0,0,0,2.054-.227c3.143-1.964,2.263-11.491,5.873-4.022.857,1.138,3.12-.281,3.4,1.986-1.415,2.834-2.834-.848-5.1,0-1.623.4-2.676,1.533-4.177,2.036a2.391,2.391,0,0,1-2.054.227m8.494,57.507c-3.383-1.846-3.383,3.8-6.793,1.415.653-6.054,7.192-4.335,6.793-1.415m-1.691-3.682c2.4.009,1.392-5.691,5.378-4.816-.068,3.424-2.376,4.177-5.378,4.816m-13.6,84.136c-2.839.281-.571-1.134-.857-2.553-1.419-.848-2.834-2.263-3.964-2.83,2.263-3.115,7.36,1.415,7.079-3.968-2.549-3.678,3.687-1.134,4.821-3.678-6.8-1.419,4.245-4.249.848,0,1.7.848,5.1-.567,6.512.848-3.406,2.263-11.047.848-11.614,6.517,1.982,4.53-1.134,2.263-2.825,5.664m-9.641,40.791c-2.766,1.841-5.655-4.068-8.213.853-3.256,1.959-2.685-3.682-5.664-2.558-1.578-1.565-4.231-.98-5.95,0-.358.73-3.909,6.177-1.982,2.272,3.542-7.174,4.811-17.069,13.6-9.632,3.778.481,9.41-3.02,11.333,1.986,2.735-.526,3.324,2.059,5.383,3.111.925,1.814,2.88,4.417,1.7,6.517-1.927-.141-12.448,3.265-9.632-1.419Zm0-154.671c-.943,4.254-4.045,8.888-6.036,12.453a5.1,5.1,0,0,1-1.038,2c.277-.612.644-1.292,1.038-2,1.469-5.138-2.621-13.437,6.036-12.453m-1.982-17.564c1.982-.567,4.249-.281,5.95-1.129-4.245,1.982-5.664,6.517-8.78,9.061-1.705-3.682,1.419-5.378,2.83-7.932m17,111.046c3.12-2.195,10.856-1.46,4.821,2.83-1.977,0-4.217-.73-4.821-2.83M471.661,82.227c3.682-3.4,7.083-.848,11.9-1.134a62.13,62.13,0,0,1-11.9,1.134m-3.392-9.351c1.7-1.415,3.392.567,3.678,1.986-1.7.567-3.964.567-3.678-1.986M462.6,243.41c-1.977,2.263-2.549-1.134-4.526-1.415.281-.567-.848-3.115,1.125-3.4,4.254-1.7,1.424,3.682,3.4,4.816M513.88,391.284c-1.025,1.873-4.44-3.6-6.8-2.553-.576-1.624,1.773-1.134,2.549-.848.345-2.567,2.771-4.879,0-7.083a17.029,17.029,0,0,0-5.669,1.415c1.909-2.218,4.775-3.374,7.088-5.1.544,1.832,5.365,2.644,4.245,4.816,7.687,6.988-2.4,5.913-1.41,9.351m7.079-89.233c-1.759-2.4-9.428-2.735-7.079-7.369l5.093.853c-.295-3.505.821-6.78,2.267-9.913,1.66.676,6.843-1.832,6.8,1.129-1.737.458-3.147,2.163-3.964,3.682l.848,3.4c1.1-1.569,3.243-1.578,4.381-2.508.186-.286.381-.562.585-.834a2.8,2.8,0,0,0,.132-1.474l-.857-.082c-1.483-.159.29-.653.857-1.333-.263,1.347.268,1.818.993,1.723a4.564,4.564,0,0,1,1.555-.875,2.82,2.82,0,0,1-1.555.875,6.837,6.837,0,0,0-1.125,1.165,1.888,1.888,0,0,1-.585.834c-.979,1.506-1.832,3.143-3.537,3.923l-1.41-.567c-.707,1.524,7.174,6.335-3.4,7.369m-2.834-122.1c3.4-.848,6.8-1.415,8.208-4.245,1.138,0,1.419.286,1.705,1.134-2.272,2.549-6.8,2.83-9.913,3.111m9.346-7.641,1.7,1.125c-3.007,2.077-7.469-.431-10.194,2.272v1.134c-3.329-1.791-7.288,3.764-9.918,0,1.292-3.188,4.285-5.437,6.517-7.931,5.873.508,11.7-.585,17.559-.29a16.614,16.614,0,0,1-5.659,3.691M522.088,216.5c-5.283.023-5.056,5.351-10.2,1.134-1.678-.041-1.17,2.44-.843,3.4,2.589,1.506-5.959,2.911-3.968-.281,2.453-3.95,11.238-8.639,15.01-4.249m8.784-90.648c0,2.549,2.83-.853,2.549,1.982-4.816-3.682-1.7,5.378-5.95-.286,4.811-1.129-.853-5.1.567-5.664-1.134-.562-.853-2.267.286-2.267,3.115.853,6.231,4.254,2.549,6.235m-3.4-35.98h.136a.371.371,0,0,1,.431,0h-.431c-.168.122-.245.395-.422.571.853,1.415,4.254.562,2.834,2.83-3.687.848-1.134,4.53-3.687,6.517-4.245,1.134-5.374-.848-9.065-2.267,1.986,1.419-2.263,1.7-1.7,2.553-1.129-1.134-3.963-3.406-5.945-1.134,0-.571-.571-.853-.857-1.419-.558,0-.844.567-1.129.848,2.553,2.267,0,1.986-1.986,1.986-1.7-.567.571-1.134.286-1.986-1.419-2.263-.848-5.664.853-6.793-.567,2.83,3.4,1.7,4.254,2.263,3.678-4.249,14.162.567,16.425-3.968m-70.54-47.022c3.687-.567,3.687,5.383,7.655,3.4,1.129-2.267,3.111-4.816,3.4-6.8,2.83,0,7.084,1.986,8.78-1.977,1.138.562,2.834,1.7,3.968.281,0-2.553-.848-3.968.571-6.8.839,1.138,2.539.853,1.973,2.834,6.236,9.918,19.269,0,27.772.567a9.845,9.845,0,0,0-3.406,5.383c4.249-1.419,0,6.231,4.816,5.1,1.424.281,1.986-1.7,3.392-1.7-2.825,4.816.572,10.2,1.138,15.3-6.793,3.4-9.909-9.065-14.444-1.134,0,1.415.567,6.231-2.267,3.682-.562-1.419-.286-3.12-.286-4.535,1.705,1.134,2.267-1.7,2.834-2.549-1.41-1.129-.848-2.549-1.982-4.53-4.254,1.415-7.369-4.821-12.185-3.115-1.7-3.115-5.383-2.267-7.927-3.968-2.553,1.419-.286,6.231-3.4,6.8-4.821,1.415-12.743,3.115-16.144-2.553-1.991,0-5.383-.281-4.254-3.682m-5.95,40.224c2.553-1.129,6.24-2.549,8.784,0,.281.567-.571,0-.571.567,2.558.567.286,2.553-.558,3.12-3.4-.286-9.065,2.263-11.047-1.986,3.964,3.115.277-4.53,3.392-1.7M428.606,22.453c-.567,0-.848,2.553.286,2.834,1.415-.281,0,.286-.286.567,2.839,2.267,5.383,2.549,8.784.848.853-1.415,1.977-4.249,3.4-2.549-2.834,4.535,2.834,8.5,4.249,11.333-2.549-1.7-8.78-1.7-9.632-5.1-3.959,0-8.5-5.945-13.31-8.494-11.333-7.365,4.24.562,6.512.562M420.4,96.671c-1.682-1.691-3.56-3.927-6.235-3.4,2.086-1.469,4.83-2.449,5.1-5.383,1.818,1.211,4.843,2.92,7.074,1.982,2.576,3.882,5.651.3,8.226,3.4l-.571,2.549a11.571,11.571,0,0,0,4.344.263c.159-.376.494-.635,1.324-.544a3.371,3.371,0,0,1-1.324.544c-.413.98.467,2.825-2.077,2-1.678,2.784-6.535.395-5.95,5.1-3.116-.648-5.977-5.66-9.061-1.7,2.045,2.594,9.65,1.138,8.208,6.226,4.6-1.424,2.707,3.043,1.419,5.1-3.578-.313-6.934-3.32-10.475-1.134,2.626-2.24-1.415-4-3.669-4.136-.385.1-.766.2-1.116.3.313,1.025.571,3-1.174,1.283-.009-.775.5-1.079,1.174-1.283l-.036-.136a2.124,2.124,0,0,1,1.152-.168c.916-.24,1.8-.612,1.959-1.809.662-4.78-5.519-.19-5.941-10.766,2.63.009,5.016,2.277,7.65,1.7m-10.2,84.7c9.287,2.358,3.41-11.718,7.079-14.448,16.312,16.326,12.7.789,15.868-6.517l1.134.571c6.757,11.5,8.6,17.75,10.48,30.873-3.982,1.347,1.206,7.859,4.816,5.664-1.918.422,1.057,2.7-1.419,2.834-.934-2.426-5.029-3.27-7.074-4.53-.558,3.351-4.757,3.41-7.369,3.115-2.413-4.195-8.3-5.374-12.752-5.1l1.415-1.129c-1.329-1.773-.989-8.521-2.744-7.936l-4.05,8.784c-1.769.345-7.215.83-5.664-2.549-1.483-3.043.259-8.807-4.539-9.346-.041-2.367-6.308-5.292-2.834-7.083.49,3.12,4.762,6.068,7.655,6.8m-.853,141.919c-3.564-.571-6.249-5.954-10.194-3.964-5.428-3.873-10.4-8.349-15.868-12.181-.181-2.775,11.528-9.854,10.761-14.729,2.109-1.261,6.834-4.14,7.65-6.517.748-2.136-4.793-4.453-1.415-6.8-6.349-3.17-.476-7.823-4.821-14.158l-1.306-.014c-2.426-.258,1.719-2.326,2.163-2.535,2.63-1.265.585,3.274,2.267,4.245l-.567,2.267c5.315,3.827,13.786,43.694,11.9,48.727,3.61.367-1.469,3.56-.571,5.66m4.535,134.273c-1.429-3.451-1.4-7.31-2.834-10.766,1.5-4.158,2.186,1.986,2.272,3.12-.1.127.649,6.358.562,7.646m0,30.878c-3.964-10.48-8.5-20.674-13.029-31.159-.571-4.249,5.093-3.682,6.8-6.512h2.267c4.249,13.024,4.249,26.057,3.964,37.671m-1.129,32.3c-.571-4.816,0-11.051-1.705-15.868,1.134,0,1.982.848,2.834,1.134.852,5.664,1.977,11.9,0,18.13-.562-1.419,1.129-2.834-1.129-3.4m0,6.793c-.286,1.705-.571,3.4-.853,5.1.281-1.7.567-3.4.853-5.1m-3.973-42.773c3.4,4.821,1.419,11.9,3.973,17,.567,1.419-.853,1.134-.853,1.982-.852-7.079-3.687-12.181-3.12-18.979m-.286,23.232c-1.61-1.614-1.179-5.274-1.868-8.263a15.451,15.451,0,0,0-.68-1.936,7.42,7.42,0,0,1,.68,1.936c.839,2.789,1.188,5.972,1.868,8.263M391.779,320.177c2.68,2.376,5.959,3.977,8.5,6.517-.934,3.324-11.237-2.685-8.5-6.517m7.931,125.775c.286,1.419-1.415.848-1.129,1.7-4.821,1.134,2.549-8.5,1.129-1.7M387.815,328.675c1.415-2.263,5.378-1.7,2.549,1.134-2.834.567-2.263,3.4-5.664,2.83-1.134-4.53,5.1,1.7,3.115-3.963m.848-53.253a2.43,2.43,0,0,1,.744.485c2.258,1.252,6.036,1.61,3.505,4.9-.29-.567.567-1.986-.848-1.986-1.982-.281-.848,4.249-3.4,1.7.245-1.243,2.013-3.342.744-4.612a4.679,4.679,0,0,1-.744-.485m11.047-15.015c-1.333-1.837.807-3.483.567-5.387,4.19,3.673,9.628,3.864,14.729,5.387-6.195,7.65-6.585,18.262-13.029,1.7.49-1.456-1.247-1.823-2.268-1.7m.857-37.676c-.612.726-4.63,4.045-.571,3.115l-1.138,1.415c-1.846-5.65-5.056,3.442-8.494-.567,3.832.667-.354-5.623-.567-5.945,2.422-2.213,3.787,2.24,5.95,2.549,1.17-1.936,9.306-5.927,4.82-.567m8.494,58.355c-4.948-5.691,5.446-5.546,7.777-10.893.109-.916.249-1.818.435-2.7a5.684,5.684,0,0,1-.435,2.7c-1.524,12.825,4.276,28.248,2.422,41.2-10.2-6.512-5.945-19.545-10.2-30.307m-9.913-151.27a11.288,11.288,0,0,0,2.83-1.129c-1.877,2.821,3.832.943,4.816,3.4-5.2-1.243-9.111,4.861-13.314,1.692,8.435-.907-1.388-8.376,5.669-3.963m-4.249,9.065c.871,4.857-7.115,5.678-10.2,7.079-2.544-.912-1.4-4.358-4.249-4.811,2.24-7.378,7.2,2.34,7.931,1.7,2.122-1.855,2.73-4.721,6.517-3.968m-10.485,41.072c0,2.272-5.664,1.419-7.65.571-.848-1.419.286-2.549,1.138-3.682,2.549-.848,2.834,5.383,6.512,3.111M379.6,63.249c.853-1.134,1.991,0,2.549,0,.281,3.963-4.245.567-5.383,3.4-.848-1.129,1.138-3.4,2.834-3.4m.853,3.678.848,3.968c-1.519,3.827-3.85,2.526-6.517.567,1.782-1.778,4.648-1.973,5.669-4.535m-4.186,18.121c1.506.036,2.93-.381,1.918-2.254.2-4.068,3.818,2.417,5.383-.848l-3.4-4.254,2.54-.848c-4.526-.785,1.714-3.75-.844-5.383,2.617,1.787,4.245,9.088,8.5,7.083a13.283,13.283,0,0,1,0,5.383l-3.115,1.415c2.367,3.22-7.505,1.9-8.5,1.7a5.769,5.769,0,0,0-2.485-2,9.9,9.9,0,0,1-2.045-.272,3.456,3.456,0,0,1,2.045.272M371.1,66.926c-.571,2.549-.286,5.1-1.7,6.8,1.129-2.267-3.4-3.115-1.705-5.669-5.383,1.7-8.5-6.226-12.743-1.415,0-1.982-2.267-3.682,0-5.1,2.267,2.834,6.517,0,7.927,3.682,3.12.562,4.816,2.267,8.222,1.7m-18.135-20.96c1.705,4.249,17.564,7.369,5.106,11.614.844-3.963-3.12-1.415-4.254-3.115,1.134-3.115-2.549-6.231-.853-8.5m6.231,81.583c1.419-1.415-1.125-2.263,1.419-3.4,2.834-1.7,3.687,3.682,5.1-1.134,1.415,0,4.249-1.415,5.95,0,1.415-1.415,1.134-6.517,4.249-4.53-.286-.853-1.134-1.134-.843-2.267.843,0,1.125.281,1.125,1.134,3.4.562,5.95-4.535,10.485-3.4.281,1.7-1.7,1.134-2.267,1.7-5.1,0-4.816,5.669-9.342,6.8-1.991,2.549,5.1,3.968.843,7.079-.843,2.267,4.254,6.517.567,7.936-3.4-1.7-4.816-6.517-7.079-8.213v-1.138c-1.982-2.544-8.784-3.682-6.235,1.7-7.932,2.272,10.485,4.535,1.982,10.766-3.678.567-.843-5.664-5.1-5.95-3.4-2.834,1.982-3.682-2.267-4.816-1.982.853-5.1.286-7.927.567.848-.853-1.419-5.1.848-1.7,3.4,1.415,5.95-2.834,8.494-1.138m-10.485,32.86c-4.44,1.116-7.4-3.374-9.913-6.226,3.483-.594,4.621-4.571,6.8-6.8-.041,5.007,8.594-.281,13.314,1.134-5.732,4.113-13.963.685-10.2,11.895m-11.89-80.73c-3.945-.789-4.58-4.639-6.231-7.65,2.993,2.812,6.29-3.918,8.208-5.95,1.991-2.086-1.841-4.4.857-6.517,1.474,2.721-.127,5.836,2.263,8.217,1.261-.766,3.537-2.521,2.834-4.249l2.549,4.53c-2.159,4.571,4.1,7.8,2.553,12.466l.648.83c2.7,3.5-2.249-1.642-4.331-.263-3.732,2.467-3.088,7.274-5.1,10.766l-2.553,1.134c-1.546-3.084,4.87-5.528.281-7.369-2.1,1.782-7.342,4.589-4.521,7.932,2.281.522-.068,3.655,1.692,4.535,4.458-3.945,4.39-.875,1.705.567-1.057,5.36,8.335,1.673,3.27,4.3l-1.574.794c-.535,2.054-.844,3.324,0,5.383a12.018,12.018,0,0,0,0,5.1s-3.728-4.88-1.982-3.4a30.544,30.544,0,0,1-.567-8.5c-2.689-1.057-6.313-.227-7.369-3.682,6.929-5.174-2.617-14.058,7.369-18.978M330.308,282.5c-1.134,0-2.834-2.263-4.811-2.549.562-4.53-7.65-1.982-2.834-6.231,3.111-.286,6.512-1.415,9.061,1.134-1.129,1.982-2.549,5.383-1.415,7.646M327.193,61.262c.848.286,0,.853,0,1.415-1.7-1.129-4.816,2.553-5.664-.843,0-4.254,3.968-1.138,5.664-.571m-6.231,157.5c5.759,6.1-4.276,2.8-.571,7.65,1.569.127,3.592.635,4.539,1.982a8.355,8.355,0,0,1-3.4,3.115c1.655,2.626,5.251.077,5.945,3.12,1.682,7.279-.871-.6-5.664,1.982l-1.977.848c1.95-1.415-1.093-4-2.272-4.816l-.281-1.415h1.982L307.4,221.307l-.032.009-3.687-3.12,3.719,3.111c2.209-.617,4.6-1.066,5.632-3.392l-.667-3.655c2.843,12.2,4.617.29,8.6,4.5M303.4,99.791c2.834,1.134,5.66-4.535,4.535,1.134-3.12,1.129,1.7,0,.848,1.7,0,3.115,1.7,4.53,1.986,6.793a15.409,15.409,0,0,0-9.637-2.549c-1.415-1.7,1.419-5.093,2.267-7.079M275.069,81.946c1.419-.567,5.1.562,4.535-2.267,3.115-1.419,4.53,2.267,7.36,1.7,6.8,5.383-6.508-.853-5.66,5.383-2.834,1.41-3.115-3.968-6.517-1.705-.281-.848-.848-2.549.281-3.111m3.12,64.014c3.778-.512,7.7-2.657,9.346-6.226-6.195-7.156,18.706,1.642,22.661.848,2.744,1.252-.036,2.367,0,4.249.041,1.973,8.367,8.231,1.7,9.632l-2.834.286c-2.589-3.17.794-6.494-5.093-7.088-5.764-.576-9.142-6.022-15.863-3.115-2.875,1.247-.875,8.263-4.816,3.968-3.478.526-5.873-3.075-9.346-2.553.054-1.569,3.1.163,4.249,0M302.265,187.6c-1.982,3.12-3.682-3.4-6.8-3.968-1.415,1.655-.88-.018-1.311-.463-.132-.032-.249-.073-.39-.1a.36.36,0,0,1,.39.1,7.388,7.388,0,0,0,3.573.463c0-2.263,1.986-2.544,3.968-1.7-.848,1.982,1.419,3.968.567,5.664m-15.863,83c-3.116.848-4.535-5.664-7.932-1.982-2.263-.286-.848-2.553-1.134-3.682a3.619,3.619,0,0,0,3.4,0c0-.853.853-1.134,0-1.705,1.986.853,3.4,3.4,5.669,3.4,1.982-1.415-.848-2.549.286-4.53,2.549,3.115-1.705,5.383-.286,8.5m0-61.185c-2.268.277-3.964-1.419-5.1-2.558,1.7-1.977,2.83,1.138,4.535,1.705-.286.281.281.567.562.853m-9.632,188.093c0-1.7-2.83-3.687-.843-5.383,1.7,1.415,4.245,3.968,5.1,4.249a2.154,2.154,0,0,1-1.419-.567c-2.267,1.986.853,2.549-2.834,1.7M274.216,189.3c-1.125,2.268.853,4.53.29,6.517a52.225,52.225,0,0,0-5.106-3.4c2.272,0,1.991-5.1,4.816-3.116m-8.2,135.974c-.857,4.249,2.254,8.5-1.71,11.895-4.816-.562,1.138-5.664-2.83-6.8,1.134-1.982,3.115-3.4,4.539-5.1M222.1,229.534c-1.134,1.41-1.415,2.83-3.115,4.53-3.963.848-1.419-3.968-3.682-4.816,1.982,1.134,5.1-.853,6.8.286M196.888,344.819c0-3.4,3.4,3.4,6.8,1.986.848,1.415,4.249,2.553,2.553,5.1-3.687-2.834-7.369,2.83-11.333.286.848-2.834-1.7-6.521,1.982-7.374m-1.982-167.41c1.982.848,3.4,1.129,4.53,3.115-.286,3.678-2.549.567-4.249,0-.567-.853-1.7-2.267-.281-3.115m-.286,7.646a11.106,11.106,0,0,1,2.834,2.267c-1.419,1.415,0,4.53-2.834,4.816,1.986-2.834-2.549-3.968,0-7.083m-.286,222.939c-1.27,7.442-9.36,4.567-14.444,5.664,1.229-2.857-4.739-4.326-1.986-5.1,5.052,2.793,11.305,1.047,16.43-.567M171.959,246.521c-3.4,2.553-7.936,1.138-11.333-.277-.281-1.7-2.267-3.4-.567-4.53a5.159,5.159,0,0,0,5.664,0c1.415-2.834,1.138-5.387,3.968-6.8,0-1.134-1.134-4.53,1.419-5.1,3.4,0,0,5.1,3.678,4.816a6.818,6.818,0,0,0,.15-3.986,3.824,3.824,0,0,1-1.279-2.535,6.636,6.636,0,0,1,1.279,2.535c2.544,2.331,7.891,1.991,7.22,6.249,1.134.853,3.115-.567,4.245.567-1.982.286-4.245.286-5.1,2.549-.848-3.4-4.249.853-6.8.286.853,1.7,1.982,3.964,1.982,6.226,8.5,3.12-2.549,1.986-1.7,6.521-6.512-.286,3.115-6.8-2.83-6.521m-1.7,144.762c6.412,3.519,3.678-4.866,7.079-1.419-2.091,1.034-2.068,2.263,0,3.4-2.517.562-5.061-.535-7.079-1.977m5.95,37.1c2.168-.381,6.39-.517,4.249,3.12,1.061,3.646-9.283-2.227-4.249-3.12m24.076,58.359c-2.231.395-4.276,1.374-3.4,3.964-1.107-4.53-9.219,1.329-9.346,2.549-2.068-.209.091-2.39-2.553-2.549-1.188-.073-3.528.1-3.4-1.7.236-3.306,7.115-.023,5.1-4.539,2.295-1.129.186-4.122,1.7-5.664,2.612,7.941,6.961-3.954,9.632,4.535.49,1.574,3.469,1.1,2.263,3.4m-.562-86.684c-2.267.567.281,3.115-1.986,3.115-1.7-4.535,5.669-4.535,5.95-1.7,2.553,5.387.281,1.986-2.553.848.853-.848-.848-1.7-1.41-2.263m6.517,81.3c-1.138-1.138-5.106-7.65-1.138-2.267.853-.567,3.115,0,2.834,1.7-.567.286-1.419,0-1.7.567m3.678-29.744c.853-1.986,3.4-6.8,4.816-2.553-1.415.853-2.83,2.834-4.816,2.553M230.6,291c-3.138,1.374-6.825.308-9.918,1.982-2.608-.3-5.061,1.034-7.65,0,.218-1.7-.231-4.172-2.549-2.834-1.6,4.948-3.791-1.5-5.95-2.263a3.869,3.869,0,0,1,2.267-2.553c-2.009,4.326,2.567,1.551,1.415-3.4-3.056-2.571-1.741,4.549-5.1.567,2.186-.839-.444-2.843-1.415-3.4-2.023.753,1.2-1.832,1.415-1.977l-1.415-3.968c.431-1.837,2.7.658,3.4-1.134.295,1.8,1.347,5.047,3.687,4.816,1.265-2-2.372-3.628-.286-5.383,1.025.762,3.215,1.569,3.115-.567,1.692,1.02,4.453,1.5,4.816-1.134-2.113-.472-.15-3.206-1.986-3.964l1.134-5.1c2.494,1.705,12.915-2.331,8.5,3.968-1.691-.966-3.347,1.587-3.963,2.834,1.347,2.857-4.807,4.948-1.419,6.517l2.549.848c.744-2.739.862-5.428,2.834-7.646,3.1,7.9,13.373,4.911,19.831,6.512-3.991,7.079,6.453,6.653,7.932,11.609-4.657,2.834-13.591-5.088-12.462,4.254-2.39-2.68-7.165-1.537-8.779,1.415m11.328,33.145c-.567,2.549-2.267.286-3.115-.567-1.419-5.1,6.8-4.53,6.512-1.7-1.7,1.415-.848,1.986-3.4,2.267m3.4,47.875c-1.714-3.134,2.979-3.206,3.968-1.42a80.405,80.405,0,0,1,13.314,4.535c-4.213-.295-1.673,6.408-6.512,3.4,9.641-2.376-9.115-3.492-10.77-6.512M262.607,450.2c-1.7.853-9.351,7.365-5.664,1.419,2.83-1.138,3.682-4.535,5.1-6.8-3.115-3.4,2.263-1.7,1.982.286-.848,1.419-3.4,4.254-1.415,5.1m1.415-89.8c.853-2.83-3.682-6.231,1.419-7.36,2.825-.567,3.4,4.249,5.1,5.378-3.964.853-1.986,3.115-6.517,1.982m10.194,77.624c-.567.281-1.125.281-1.41.848-1.134-1.419-1.134-3.115-1.134-4.816.562,1.415,3.682,1.7,2.544,3.968m-2.825-31.445c1.7-1.134-1.419-2.834,1.7-2.553,3.115,1.7,6.231-.848,8.775,1.986-4.245.853-7.65-3.115-10.476.567m16.992,92.063c-3.111-.286-2.83,7.932-5.378,2.549-4.535-2.549,3.4-1.982,3.682-5.383,2.267-.281,1.977,1.415,1.7,2.834m-4.249-36.261c2.83-5.378-.567,3.968,3.968,2.834-.286.848-.286,1.7-.567,2.267-1.7-1.419-2.263-5.1-3.4-5.1m22.1-159.764c-.5,3.446-2.308,6.371-3.4,9.628-5.5,2.331-8.444-9.7-14.171-5.669l1.134,3.406c-2.435.268-4.322-1.877-6.512-2.553,3.56-6.739-6.567-1.814-6.8-7.646a49.661,49.661,0,0,0,13.31-6.235c2.712,1.714,11.305,4.893,14.167,2.553,3.247,3.007,7.179-.721,10.2,2.83,6.19.73,8.834-4.281,13.6,1.982.943,1.256,11.455-.381,5.66,3.968-1.828,1.374-10.521-4.258-15.3-5.95-1.383.644-1.546,2.394-1.129,3.687-3.592-1.8-7.052-.281-10.766,0m11.895,182.425a1.253,1.253,0,0,1-1.7-.567c-.286-.562.277-.562.567-1.129-3.4-.567-.567-1.419.281-2.549,3.4-.853.848,3.115.848,4.245M322.1,480.8c-1.415,1.7.281-1.7-1.134-1.7-3.4,0-3.682-2.553-5.664-4.535,4.245-1.415,13.877-.848,6.8,6.235m15.582-76.2c1.274-5.564-9.718-2.911-12.181-1.7l1.129-3.968c5.052-1.415,11.1-2.186,13.886,3.4Zm3.116,13.314c3.115.281,9.065-1.134,12.176,1.419-4.254,1.7-8.213-.853-12.176-1.419m11.895-1.7c.571-1.419,1.7-.571,3.115-.853a1.65,1.65,0,0,1-3.115.853m10.194-109.064c-2.263,2.553-2.263,1.986-5.1,2.553-1.41-1.705-1.7-1.986-.562-3.973-1.7-3.111-6.517-.848-7.365-4.526,2.83,3.111,5.1-4.821,5.945.277.286.853,1.134.286,1.7.571-1.415-2.553.852-1.138,1.986,0,1.982-1.705,3.115,3.111,3.964-.571,1.134,0,2.549,1.7,3.4,0-1.134-3.111-4.245-.848-5.378-1.982,2.263.286,5.95-.567,9.632-.281.843-6.512,8.494,1.7,8.494-6.236-1.7-1.134-4.249,1.138-5.945-.562a7.19,7.19,0,0,1,1.129-6.236c3.12,1.7,7.646,1.7,10.48-1.129,1.7,0,3.12,1.982,4.535.277,1.134,4.254-3.687,5.388-3.116,9.918-3.115,1.134-3.4,9.065-6.8,3.968-2.544,1.415-1.7,5.945-6.226,3.963-1.138,2.267-3.687-.848-3.687,2.267-3.4-1.982-3.682,5.1-7.084,1.7m33.994,179.033c.29.281.567.567,1.138,1.129.567,4.535-5.669-6.226-1.138-1.129M371.1,460.967c-1.379-1.8-6.222-2.979-3.682-5.95.476-4.48,6.526-.617,5.66-5.95,1.8-.458,4.875.2,5.387-2.267-2.218-.209-2.218-2.335,0-2.544l1.7,2.83c.717-.78,2.018-1.256,2.83-.286-3.574.54.612,1.814,1.415,1.986,1.655-.63,4.607-.844,4.53,1.7-3.134.794-3,6.235-3.682,8.784,3.319.444,5.877,5.469,9.637,2.549,6.82,5.356,5.95,16.131,10.761,22.947-12.131-6.993-20.87-19.414-34.556-23.795M407.646,569.75c-3.719-2.866-5.75-7.138-6.8-11.618,2.041-3.2,1.574-14.267,5.945-20.393,0,8.19-3.283,16.58-3.682,24.924,2.494,3.95,5.982-21.74,7.65-25.214-.825,8.448-1.624,16.965-3.682,25.214,3.265,1.592,2.608,4.771.567,7.088m5.95-9.07c-6.517,5.95,1.134-4.249-2.834-4.53.852-6.521,1.7-14.448,4.245-20.112h1.138c-2.267,5.378.848,14.162-3.968,17.559-2.549,3.4,3.116,3.968,1.419,7.084m1.982-118.7c-.286-.848,2.83-.281,1.415,1.138-.29,1.7-1.415-.567-1.415-1.138m1.7,77.9a54.936,54.936,0,0,0-1.129-13.881c2.263,3.682,1.419,8.5,1.129,13.881m4.821-46.174a10.834,10.834,0,0,1-.132-1.347c-.281-2.93-.6-6.471.132-9.419.739,2.716-.24,6.294-.132,9.419.045.453.091.93.132,1.347m.567-11.333c-.549-4-2.258-8.226-.567-12.181,2.435,1.256,1.111,9.872.567,12.181m-.29-42.773,3.682.281c-.413,4.036-2.249,23.6-3.959,25.781-1.964-4.757-.44-10.067-1.419-15.015,3.564-.757-1.6-2.109,1.419-3.4-.5-2.077-3.306-2.458-4.821-1.129-2.027,1.787,1.705,2.884,1.705,4.249V441.7c-2.88-.957-2.4-5.152-5.664-5.383.4-2.2-1.6-7.415,1.692-7.931,0-3.487-.132-5.224-3.111-7.365,2.88-1.311,5.356,1.814,8.5.848-1.537-3.324-6.018-3.778-8.222-6.512-.331-.073-6.848-1.492-4.567-2.072l1.732-.19,2.553.562c2.159-1.5-2.2-2.462-1.134-4.249.744.939,3.623,3.963,4.53,1.7-9.392-7.083,11.627-6.712,3.968-17.849-1.542.363-3.841.608-5.1-.562,1.084-3.224,4.29-4.53,6.235-7.084,2.471.531.381,4.567,3.959,3.682,1.769,1.483-1.705,5.084.286,7.083,4.6-.05,1.247,4.258,2.83,6.231-3.056,1.583-1.973-4.78-4.811-1.546l-.567.7L419.26,402.9c-.776,2.616-1.243,5.451-3.682,7.079,1.859,3.669,6.5,4.689,6.793,9.632m5.669,83.283c1.129-.848-.567-3.4,1.415-3.4.567.562.567,7.36-1.415,3.4m3.963,6.8c-1.129-.848.286-2.263.571-3.4,1.7,1.41-.571,2.258-.571,3.4m1.986-88.385c-2.263,0-1.134,5.95-2.544,3.4.281-1.415,1.41-2.834.558-4.245-2.549-.571-3.678-3.687-4.816-5.669,3.972-3.4,2.553,7.646,8.5,4.535,3.12-3.968,3.682,2.825,7.088.562,1.7,4.816-4.254,4.816-4.53,7.936-.571-4.535-4.254-2.549-4.254-6.521m3.682,110.765s1.986,5.95-.567,2.267c-.848-.567-.281-1.7.567-2.267m1.134,8.784c.853.277,2.549,5.664-.562,2.83-1.138-.848,0-1.7.562-2.83m12.748,19.826c-4.53,0-8.5,1.415-12.748,1.415,4.245-2.549,7.932-1.134,12.748-1.415m-1.982-107.926c-3.116-1.7,2.83-4.535.281-7.369,0-1.129,1.129-2.83,1.7-.567-1.7,2.267-.571,5.664-1.982,7.936m11.895,24.357c-4.245,0-2.549,7.931-4.816,4.254-1.415-7.65,3.4-1.986,6.512-6.517,5.664-1.134-.567.848-1.7,2.263m2.267,1.986c2.263-1.134,3.964-3.4,6.517-3.4a23.744,23.744,0,0,1-6.517,3.4m4.535-11.9c3.959-.848,7.36,1.419,11.614,1.419-3.968.567-9.07.567-11.614-1.419m13.31,7.365h0Zm3.4-.281a7.127,7.127,0,0,1,5.95-.567c.567,1.982,2.83.286,3.968,1.134a19.557,19.557,0,0,1-9.918-.567m16.149-.567c2.476.227,5.3,1.329,7.637,1.351.63-.086,1.229-.168,1.71-.218a5.362,5.362,0,0,1-1.71.218c-3.084.422-7.4,1-7.637-1.351m-5.387-3.963,17-1.134c-4.344,1.333-12.766,3.084-17,1.134m20.108,4.811c-2.258.286,1.138,0,1.419-1.415,5.959,1.415.857.853-1.419,1.415m13.038-8.5c-12.643.281-25.318.608-37.957,1.134-8.707.363-17.981-5.2-26.343-1.7-1.691-1.143-2.335-3.174-3.4-4.816-1.41,1.95-2.53,4.961-3.115.286-.277-2.177,4.3-4.444.567-5.669l-1.61,1.351c-4.372,3.315-.05-4.444-1.047-7.224a7.215,7.215,0,0,1-1.025-.921,1.3,1.3,0,0,1,1.025.921c6.861,5.333,27.359,3.986,34.383,1.628-1.682,3.27,2.757,4.526,4.535,6.231,2.884-1.764,6.585-2.34,7.36-6.231,2.1-.258,3.469-3.1,5.669-2.549l0,0a2.76,2.76,0,0,1-.844-1.415l.844,1.415c2.258,2.009,7.691-.363,9.346,1.982.5-1.882,5.387-1.17,4.254-3.111,2.435-3.161,8.308.88,5.95-7.365,1.125.979,2.032-.875,2.263-1.7.372,1.438,1.6,2.19,2.549.567l-.562-3.968,2.553-1.419v-.558c2.349,1.936,6.893,3.056,5.945,4.526,2.077,3.061,1.383,3.782-.567,6.517.871,2.413-3.061,5.351-2.834,8.217,1.519,2.041,5.365,2.449,5.664,5.378-3.129,4.834-10.09,4.14-13.6,8.5m14.448-223.5c.848-2.267,3.964-3.682,1.977-6.235-.562-.567-2.258,0-1.7-1.7,0-5.383,3.682.281,3.968,1.415-.848,1.977,1.7,2.267,2.268,3.115.848,1.7,1.125,3.682,1.977,5.383-2.549,1.7-6.793-.286-8.494-1.982M552.962,372.3l-.848-1.134-1.138.853.852,2.549a9.8,9.8,0,0,0-2.549-4.249c-1.492,3.07-5.406-2.431-2.83-3.682l1.134,1.982c1.991-1.007,3.519-3.392,5.95-3.4l.358-1.7-.082,4.821c1.637.231,1.61,3.084,3.406,2.544,2.512,3.469-2.784,1.959-4.254,1.419m3.115-48.156c1.986-1.986-1.7-1.419.848-3.4.571.567,2.549,1.977,1.424,3.4.091.567.889-.045,1.714-.875,3.36-4.1,1.628-1.633,0,0l-.018.023c2.83,2.834-1.415,1.138.567,4.535-1.138-3.115-5.106.848-4.535-3.682m5.95,41.358c.281,2.267,6.8,2.834,3.4,5.378.281,1.7-1.134,4.254-.562,5.387-4.539-.567.281-7.083-4.254-6.8-.286.281,1.7-1.986,1.415-3.968M576.475,487.6c-3.968,3.963-10.2,1.7-13.6,6.512.567,1.419-2.549.286-2.263-1.134,0-3.959,0-6.793,4.535-6.512.848-1.7,3.964-1.986,3.964-3.682,3.111,2.263,7.646-3.4,8.217,2.263h1.134c-1.134,2.553.567,1.986-1.986,2.553M582.139,374c-2.707,1.288-.766-2.367-2.83-1.977-4.022.757,2.394,5.165-1.7,5.378.172,1.17.032,3.678-1.705,1.7-.113-.345.168-.862.372-1.247-.168.036-.453-.15-.934-.735l1.093.277c-.136-1.769-3.011-7.614-4.775-4.526-5.238.59-1.3-7.043-2.553-9.632,2.9-1.628,2.576,2.58,5.1,2.834,2-2.843,5.383,6.149,6.1,1.12l.127-1.687,1.134-1.415c-.272,1.723.526,3.61,2.553,3.4-4.626,1.592,1.642,4.8-1.986,6.512m13.886,27.481c-.848-3.4-5.95-2.263-8.5-.848.286-1.138-1.134-2.83,1.134-2.267,1.415-1.134-4.535-3.12,0-2.263-2.267-1.986.848-2.553,1.7-3.687,2.54.848,1.415,10.2,4.816,4.249.277-.562.848-.562,1.7-.562-2.549,1.7,3.115,5.1-.848,5.378m1.415-40.506c-2.263-1.7-1.986,2.83-1.986,4.245a6.768,6.768,0,0,1-1.986,2.553c-1.125,4.812-.848,1.7,0-.286.571-3.4.286-5.664-3.959-7.365-2.834-.286-1.982,3.4-1.134,4.249,4.816,1.7.286,1.134-1.134-.281.571-2.553-2.549-2.834-2.263-5.669,4.245,2.267,2.263-5.945,7.365-4.53,1.125-1.7,0-2.267,2.263-3.116,3.968,1.7-1.705,8.213,2.549,8.213,0,.848,1.138,3.4.286,1.986m-11.9-106.234c.041-2.63,6.276-3.719,3.12-6.8.73-3.642,5.269.5,6.517-2.834l1.7,1.138c-3.365,1.519-1.279,3.12-2.549,5.664,1.3,1.279,10.009,2.753,6.8,6.8-5.528.281-10.394-2.657-15.586-3.973m32.293,217.556c-1.419-.848-3.4-1.415-3.673-2.83,2.544,1.415,7.356-2.834,7.074.286-1.415.562-2.267,1.977-3.4,2.544m47.875-9.628c-.848,2.267-4.53,1.129-5.954,1.129.567-.848-.562-1.7-1.125-2.544-4.535-.286-7.088,3.682-11.9,3.116-.853-1.138-2.263-3.116-3.968-2.267-1.411,1.986-2.549,2.549-5.1,2.267,0-1.986,2.83-2.553,2.263-5.1,3.12.286.567-5.95,4.539-3.682,1.7-.567,0-2.267.567-3.116,6.226-2.267,5.374,15.3,10.48,3.116,2.268,0,3.678.286,4.526-1.7,2.272.562,4.82,1.41,5.95,3.115-4.249,3.4,5.669,5.945-.281,5.664m12.181-5.1c.444,6.158-1.85,3.451-4.49,3.383a6.409,6.409,0,0,1-2.308.866,3.131,3.131,0,0,1,2.308-.866c1.3-.73,2.453-1.705,3.36-2.249.281-3.4-2.553-1.982.853-3.682a8.4,8.4,0,0,0,4.526-.567c-.281,2.553-3.678.848-4.249,3.116m14.448,8.5c-1.129,0-2.268-1.129-3.116,0,.848.286,2.268.567,1.134,1.705-.567.277-3.682-.572-3.12,1.7-.744-1.224-1.179-1.587-1.447-1.5l-.254.317c-.426,1.1-.014,4.467-1.7,2.032.553-.617,1.111-1.32,1.7-2.032a.482.482,0,0,1,.254-.317c2.032-2.481,4.422-5.084,8.244-5.3.286,1.129-2.263,1.982-1.7,3.4m1.419-7.365c1.3-.258,1.873,1.37,2.4,2.082.091.054.145.113.145.186a1.638,1.638,0,0,1-.145-.186c-.6-.345-2.9-.354-2.4-2.082m7.646-52.405c-1.578.4-2.127,2.231-1.977,3.682-1.678.5-5.138-2.49-3.973,1.419-1.623-.757-2.612-.195-1.7,1.7-3.061-2.553-6.077-3.043-9.918-2.272l-1.7-1.415c.925-1.252,7.083-3.855,3.079-5.029l-1.664-.354c-6.022-.272-10.652,1.841-16.144-2.549-.807,5.36-6.567-.834-7.369,1.134-7.523-3.369-4.648,7.115-9.918,8.5l1.138,2.263c-1.165.925-2.716-.521-3.4-1.415l-1.129,3.116c-3.9-1.95-5.75,9.442-8.213,10.485-1.093.458-3.991-.027-3.682,2.267-3.115-.481-5.918-1.864-6.8-5.1,4.489-.231-3.129-8.326-7.936-7.365l.739,1.066c2.267,3.505-4.444-3.038-4.422,2.335-2.4.884-4.63-1.927-7.079-.571.594,6.3-6.87,1.12-7.927,1.138.213-2.979,6.508,1.247,5.1-1.7-6,.286-2.467-6.807-7.646-6.517v-1.134l3.392-1.982c-1.687-.281-2.671-2.512-3.116-3.968.676-.39,2.635-1.324,3.388-.612-.345-1.406,1.832-2.349,1.147-3.923-1.3.009-3.456-.267-3.964-1.691,3.143-2.077-1.773-5.786,1.134-6.8-.009,3.7,3.247,5.188,4.812,8.217,1.442,2.762.726,11.224,4.254,10.761-.884-4.14,1.179-8.693-2.549-11.9,1.17-1,2.512.041,3.116,1.138l.567-3.687c.621,1.859,2.526,4.535,4.811,3.963,1.283.617,2-.571,1.982-1.691,1.664,1.41,4.1.948,4.821,3.4,5.365,2.19,4-12.267,0-13.6l2.263.286c.553,2.748,2.825,4.53,4.249,6.8-1-3.678-1.46-7.478-2.834-11.047,1.442.267,1.46-1.333,1.138-2.267-1.565.961-.948-3.71-.857-4.249-.875-1.95-5.9-4.308-1.977-6.235l-2.834-.848c2.249.3,2.512-3.587,4.249.567,1.714-1.954,9.383,1.955,8.217-2.83-1.22,1.392-3.474,1.4-5.1.848-.526-2.712-5.115-.118-4.249-3.682-1.873-1.841-5.342-2.948-3.4-6.231-5.469-2.222-.762,3.016-3.116,5.383-1.542-3.682-6.322-6.34-10.194-6.517-3.165-.145-.535,3.079-2.272,4.249,2.757,2.481,1.583,6.163,2.272,9.346-2.753,1.134-3.22-2.648-4.249-4.249l.281-1.415c-.122.88.245,2.168,1.415,1.7,3.3-1.3-3.932-6.331-.844-9.913L603.1,355.3c-.73,1.751-2.716,4.662-4.245,1.7,1.143-3.007-2.562-8.344.848-9.628,2.023.671,3.723,1.964,5.669,2.83l.277-3.115c.236,1.741.508,3.932,2.267,4.816.549-1.769,3.211-2.512,4.816-2.834.444,2.617,1.728.181,1.7,2.834,3.011-3.342,3.528,5.882,8.217,2.263.739.15,2.068.907.277,1.134-.952,2.077,1.587,2.14,1.986,3.968a3.891,3.891,0,0,1,1.982-2.834c1.1,1.773,3.823,6.358,5.95,6.8,2.385.49,2.349-2.8,1.986-4.249,1.569,1.107,6.852,5.274,8.779,3.682-1.814,1.678,10.911.349,12.181-.281l.1.707c.508,2.308,2.589-1.465,3.011.141,2.784.3,6.8.576,7.936,3.682-1.052,2.208,0-.93-1.7-.281v3.682a82.484,82.484,0,0,0-8.217-2.834c-1.945,2.7,3.619,1.524.562,4.249l-2.263-1.134c-.217,2.023-3.855,1.152-5.383,1.42,1.061,1.506,3.7,1.705,5.383,1.7a14.024,14.024,0,0,0,1.7,7.365c4.961-1.682,3.057,7.328,4.812,9.637,1.347-.454,3.274.6,4.249,1.415,1.143,3.959,6.526,4.621,7.369,8.779-.027-7.99,5.179.1,7.932-1.419.181-1.156,1.043-3.183,2.549-2.263.059.39,1.011,5.514,1.982,3.4-.358-1.66-.843-6.317,2.272-4.816.966,1.809,6.231,3.442,1.415,5.1l4.249.286c-.023-2.2,3.3-2.916,4.53-1.419,3.056,3.741,4.285-2.295,5.664,1.134,1.818.893,4.018.1,5.95.567-3.283,2.517-8.253-1.111-8.5,4.816m7.084-58.074a14.332,14.332,0,0,1-3.683-4.53c-1.986,1.982-5.1,1.982-4.254,5.945a3.521,3.521,0,0,0,1.138,2.272c5.378-4.816.286,1.982-2.263,1.982-3.124.848,1.7-2.553-2.834-2.267-1.705-5.378,4.53-4.816,4.811-9.346,4.812,2.544,3.687-2.272,5.95-4.249-3.12-2.553,0-5.387-2.83-7.079a3.688,3.688,0,0,1,3.115-3.973c4.249,1.134,1.982,9.637,8.208,5.1,2.272,0-.843,1.982-1.7,1.7-1.705,0-11.9-.853-6.512,4.249,1.982,1.7,7.074,4.53,5.659,8.217-1.7,3.678-2.83-1.138-4.811,1.977m29.735,135.693c.045,3.578-5.188,2.127-7.074,3.964,1.37,6.739-5.836.884-3.12,6.8-4.481.748.789,5.419-4.53,5.378.567,4.961-4.036.739-5.1-.562-1.864,1.324-4.032.381-5.95-.286-2.485-4.05,6.725-3.855,3.687-6.517,2.757-.744,1.828-3.936,5.383-3.4.807-1.025,2.644-2.385,3.682-.848,9.469-2.834-7.133-5.115,2.549-7.079,2.177.988,1.424,6.009,5.1,3.111-.363,2.118,2.494,1.066,3.4.567-2.952-2.875,2.1-.381,2.267-3.678.1-1.968-3.528-2.834-1.986-3.968,0,3.737,7.306,2.921,1.7,6.517m62.042-38.528c-.848,1.415-2.548.286-3.678,1.415.276-1.982,1.982-1.982,2.83-3.678,1.133,0,.848,1.415.848,2.263m8.217-9.065c-3.682,1.415-3.682.567-3.963-2.549,1.7.571,5.378-1.134,3.963,2.549m2.834-18.13-3.4,1.7c.558.535,1.615,2.222,0,2.263-2.626-2.05,1.293-4.322.567-6.793,3.446-.5,4.526-8.1,7.932-6.231-.544,6.43-9.151,5.36-5.1,9.061m54.668,60.622c-.852-2.521,2.358-3.628,3.963-4.811,2.685,1.791,1.864,5.641,3.12,8.213-4.553,2.44-3.134-3.678-7.084-3.4" transform="translate(-0.001 -0.001)" fill="#dcb584"/>
      <path id="Path_60" data-name="Path 60" d="M129.507,121.188c-1.714-.122-3.605-.263-5.65-.426,1.9.218,3.791.372,5.65.426" transform="translate(437.82 426.879)" fill="#dcb584"/>
      <path id="Path_61" data-name="Path 61" d="M169.106,124.46c-21-3.605-41.213-2.512-62.037-5.383,2.83.9,50.832,5.65,76.132,7.641-5.079-.58-10.131-1.578-14.094-2.258" transform="translate(378.476 420.923)" fill="#dcb584"/>
      <path id="Path_62" data-name="Path 62" d="M134.535,122.273l.857-1.7a27.745,27.745,0,0,1-10.29,1.265c5.016.358,8.48.531,9.433.431" transform="translate(442.221 426.225)" fill="#dcb584"/>
      <path id="Path_63" data-name="Path 63" d="M230.813,135.71l2.544-2.263c-23.971-3.093-47.516,3.914-71.388,4.526,5.932-1.156,26.03-5.687,28.334-10.761-6.535-4.916-59.5,3.365-77.052-2.834a16.573,16.573,0,0,1,7.931-2.549c-4.1-1.333-8.136.893-11.614,2.834,11.809,8.521,60.677-.721,78.748,3.4-1.705,3.578-22.148,7.473-26.348,7.083,1.692-7.224-6.757-1.079-7.927-.281l-.286-1.7c-2.209-2-2.875,2.227-2.83,3.4l-3.682-3.678-1.419,2.83c-4.172,8.226.449-3.569-4.249-2.83-.05,3.7-.635,10.036,2.834,12.466l2.834-3.973c25.1-2.258,50.065-7.079,75.352-6.8-3.256,2.213,2.866,1.592,3.116,3.687,21.645.9,43.045-3.9,64.59-5.1-19.935-1.56-39.612,5.342-59.489,2.549" transform="translate(387.31 429.219)" fill="#dcb584"/>
      <path id="Path_64" data-name="Path 64" d="M54.838,125.883c.649.041,1.292.113,1.941.177-1.565-.367-3.147-.658-4.734-.893.744.218,1.655.453,2.793.717" transform="translate(183.973 442.447)" fill="#dcb584"/>
      <path id="Path_65" data-name="Path 65" d="M168.14,134.285c-5.669,1.419-10.485,2.267-15.582,4.249-3.678-.848-13.881,3.964-9.346-2.549,5.1,1.134,4.249-4.816,7.646-5.945,1.138,1.977-2.549,2.83.281,4.526,1.138,0,2.272-.281,2.558-1.415-1.991-1.982,1.134-4.53-1.138-6.8-3.4,0-4.249,1.7-5.1,4.53-3.682,1.7-.567-5.378-.848-7.927-5.95-2.834-3.682,6.8-5.669,8.779-3.111-2.834-1.7-8.5-6.8-9.913-1.125-1.419.571-3.682-1.7-3.682.571,7.927,5.387,14.444,6.512,21.523-16.425,1.705-33.989,3.687-50.986,3.4-5.1-1.415-8.5-3.678-14.162-3.678-1.134-1.419,1.415-4.821-.848-4.535-2.272,1.134-1.705,6.231-1.138,8.784,3.12,1.986.286,11.609,6.521,7.932.281.567.848,1.982-.286,1.982-8.154.526-16.552-1.855-24.969-2.657a48.681,48.681,0,0,1,8.825,2.939c23.79,5.1,46.737-4.816,71.384-3.111a4.734,4.734,0,0,0,1.134-1.986c-12.752-.848-25.5-3.111-37.395-5.1,21.813-.571,43.626-1.986,64.586-5.387,2.272-1.415,5.1-2.544,6.517-3.963M76.354,148.733c-1.129-1.419-.567-3.682-1.7-5.383a23.875,23.875,0,0,1,4.249,1.134,9.552,9.552,0,0,0-2.553,4.249m29.182-1.7a65.567,65.567,0,0,1,7.083.848c1.134,1.415,3.678-.286,4.53,1.129-11.9,1.419-24.08,4.249-36.547,4.249-2.544-17,16.716-5.1,24.933-6.226" transform="translate(187.667 417.614)" fill="#dcb584"/>
      <path id="Path_66" data-name="Path 66" d="M105.673,126.129c-.853-.286.281-1.7-.853-1.134-22.661,6.235-42.211-4.812-65.153.29v1.129c17.473,5.673,37.494.458,56.128,3.247-8.916-2.6,8.308-2.227,9.877-3.533M52.7,126.7c2.857-.916,5.95.254,8.784-.857,3.229,1.8,9.151.59,13.029,1.134-7.074,1.769-14.738,1.193-21.813-.277" transform="translate(140.222 437.952)" fill="#dcb584"/>
      <path id="Path_67" data-name="Path 67" d="M102.508,118.962c5.551,6.861-2.834,28.121,3.12,25.214,1.587-3.2,1.755-6.911,3.111-10.2l-.349-.8c-1.229-2.394-1.039,3.2-2.762.8,1.084-4.2-.852-9.029.286-11.9-.54-1.306-1.741-3.311-3.406-3.116" transform="translate(362.354 420.471)" fill="#dcb584"/>
      <path id="Path_68" data-name="Path 68" d="M106.2,133.265c-1.379-3.9,2.331-10.43-1.419-13.314.453,2.4-2.553,19.3,2.267,16.716,1.406-2.494,4.258-5.056,3.4-8.217-2.082.816-2.036,4.83-4.245,4.816" transform="translate(368.577 424.013)" fill="#dcb584"/>
    </g>
  </g>
</svg>
