<svg xmlns="http://www.w3.org/2000/svg" xmlns:xlink="http://www.w3.org/1999/xlink" width="239.801" height="149.508" viewBox="0 0 239.801 149.508">
  <defs>
    <clipPath id="clip-path">
      <rect id="Rectangle_9" data-name="Rectangle 9" width="239.801" height="149.508" fill="#232323"/>
    </clipPath>
  </defs>
  <g id="Group_57" data-name="Group 57" opacity="0.3">
    <g id="Group_3" data-name="Group 3" transform="translate(0 0)" clip-path="url(#clip-path)">
      <path id="Path_55" data-name="Path 55" d="M53.063,125.934c-.44.074.734.44,1.027.44-.148-.44-.733-.294-1.027-.44" transform="translate(9.249 21.991)" fill="#232323"/>
      <path id="Path_56" data-name="Path 56" d="M127.122,83.237a.4.4,0,0,1-.043.1c.029-.006.046-.038.043-.1" transform="translate(22.191 14.535)" fill="#232323"/>
      <path id="Path_57" data-name="Path 57" d="M127.121,83.222l-.009,0,0,.021s.007-.016.006-.019" transform="translate(22.197 14.532)" fill="#232323"/>
      <path id="Path_58" data-name="Path 58" d="M94.272,1.755a2.288,2.288,0,0,0,.43.159,1.218,1.218,0,0,0-.43-.159" transform="translate(16.462 0.306)" fill="#232323"/>
      <path id="Path_59" data-name="Path 59" d="M239.275,118.886c.47-.845-1.181-1.027-.293-1.614-1.392.139-2.507-.7-3.669-1.321.27-.384-.641-.675-.88-.734.106-.345,1.432-.218.88-.586-.329-.221-.949.04-1.246.218-1.185-1.529-4.144-1.677-5.87-2.568-1.669-.857-1.045.889-1.688,1.689-1.2-.085-1.757-1.449-2.715-1.982-.1-.747.915-.711,1.393-.661.526-1.115,2.336-.693,2.349-2.2,0-.389-.1-1.236-.661-1.173-.155-.753-4.95-.3-5.209-1.247-.2,1.28-1.215-.265-1.394-.66-.62.934-1.444-1.3-2.2-1.173-.042-.016-.123-.093-.123-.049l.123.269c-.76-.179.47.988-.442,1.027-.574-.782-.822-1.29-.222-2.2.173.027,1.713.234.808,0-.155-.386-1.31-.368-.808-.954,2.2.742.94-.9,1.984-.881-.07-.644-1.122-.445-1.541-.44.614-.747-.993-.893-1.393-.807-.7-.517.46-.234.66-.586-.065-.505-.9-.376-.807-.881l.135-.546c.4-1.4.409,1.155,1.551.766l-.807-1.027c.085-1.38-.988.08-1.761-.368-1.628,1.457-2.01-1.276-3.081.368a7.127,7.127,0,0,1-1.688-.514c-.547,1.252-2.005-.517-2.274,1.027-1.421-.708-2.833.135-4.182.588.076,1.768-1.2,1.309-2.35,1.761-1.379,2.036-3.691,4.414-4.256,6.823-.745.265-3.016,0-2.713-.88-.623.2-1.276-.849-1.541.22a4.619,4.619,0,0,0-3.741-.44c-.305-1.061-2.9-.506-1.542-2.054-1.015.842-.85-1.04-1.614-1.027l.146.227c.421.718-.921-.392-.88.214-.785-1.212-.247-2.061,1.1-2.348l.244.2c.33.265.1-.164.269-.565l.734.22a2.738,2.738,0,0,1,.22,2.422c.74.338,2.72,1.794,2.275-.221.7-.5,2.725.812,3.3,0,.137-2.273,1.918,1.041,2.86-.806.424-.826.818-1.6.295-2.5-1.763-.694.592-1.6-.806-2.641.137-.563.708-.688,1.173-.881,1.078-1.8-.574-3.055-.735-4.769l.44-.073.074-.587c1.118-.2.706-1.048,1.028-1.835.758-.309.338.379.587.734,1.422,2.024,9.155,2.005,11.3,1.027,1.7-.775,3.193,1.878,4.913-.807-.24-.182-.581-.592-.291-.881.868-.083.027-.379-.221-.439-.586-.8-1.886-.7-2.348-1.615.143-.88-1.1-.843-1.1-1.761.86-.534,1.774-1.388,2.861-.954.154.449,1.088.41,1.467.368l.294.586c-.143.731.013,1.469-.073,2.2a15.091,15.091,0,0,0,3.52.954c.28-.5,1,.006,1.321-.513-.349-.34.8-.926-.073-.955-.3-1.408-2.332-1.626-3.376-2.273-.583-1.274,2.662-.845.881-1.688-.1-.976.848.1,1.246-.368-.377-.478-1.108-.756-1.246-1.394a2.277,2.277,0,0,1,1.32-.807c.016-.666.88-1.825-.734-1.466-.106-.159-.257-.624.147-.515.661.177.106.067-.368-.294l-.584-.018c-1.71-.129,1.162-1.088.584-2.037.011-1.123-1.778-.754-2.421-1.321-.953-.136-6.082-1.613-6.016-2.494-1.993.46-3.694.034-5.649-.294-.724-.122-1.538,1.041-2.2.366a3.7,3.7,0,0,0-2.57,1.468c-.516-.208-2.076-1.533-2.052-.148-.631-.235-.709.363-.59.807-.517.464-.5,1.453-1.1,1.762.092-2.466-6.233-1.03-7.411-1.247-.9-.843-1.279.872-2.2.807-.931-.929-.439-2-.148-3.081.37.195.549-.416.587-.661-.53.274-.975-1.089-1.761-1.027.392-.9,2.536-.734,1.761-1.835.739-.706-.658-.819-.513-1.467-.128-.216-.211-.685.22-.587-.378-.187-.288-.949,0-1.173,1.792-1.4.291,2.765,3.229,2.421.5-2.175,1.558,1.3,2.2-.954.345.516.806.135.734-.368.752-.951,1.216.946-.144,1.468.1.415.362,1.156.879,1.173.231-.473.43-1.09.954-1.32,0,.37.193,1,.66.587l.294.22c.055-1.7,1.538.251,2.349-.147a4.247,4.247,0,0,0,4.183,2.054c.334-.557,1.1-.627.806-1.467-1.361-.612-.57-3.092-2.054-3.229-.316-.745-1.482-2.372-.22-2.934-.1-.042-3.728-4.262-4.182-4.77,1.4-.542,2.951-.139,4.4-.365-.309.912-.935,1.637-.954,2.641-.063,3.12,9.19,2.252,10.345.587.8-1.145-1.851-2.85-2.348-3.67.524-.376.3-1.162.221-1.687-1.527-.152-5.34,2.478-6.458,1.54.665-.955-.5-1.973-1.246-2.421-2.267.155-.576-2.193-1.761-3.008-1.024.3-2.084.94-3.155.44-.379.2-.741.881-1.247.661-.383-.717-1.273.061-1.394-.881.9-.345-.134-.773-.514-.881.1-.144.444-.443.514-.073l.294-.661c-.976.437-.654-.64-1.1-1.1.276-1.509,1.5-.093,2.349-.294,1.874,1.422,4.327,1.69,6.6,1.761.835-.57,2.529-.2,2.2-1.761s-2.08-1.272-2.934-2.274c.273-.744,1.137-1,1.393-1.762.981,0,1.273.9,2.495.808,3.294-.236,3.922-2.265.662-3.229-1.723-.51-.452-1.381-1.1-2.422-1.514,1.011-2.833-.681-4.328-.22-.924.287.3,1.015-.294,1.028a2.236,2.236,0,0,1-.587-1.1c-.711-.258.015-.987.147-1.393-.961-.756-2.7-3.011-2.863-3.009-.584-.657-.142-1.556.22-2.2a1.336,1.336,0,0,0-2.053,0c-.345-.1-.153-.495,0-.659-.063-1.946-1.924-.469-2.2-1.762a4.661,4.661,0,0,1-3.449,1.1c-.322.156-.625.531-.368.881l-.367.44-.366-.368.173-.226c.882-1.185-.933.479-1.347-.433a2.15,2.15,0,0,1,.074-1.761c-.127-1.648-1.292.335-2.053-.221-.726.86-3.157-.267-2.422,1.687.7-.449,1.533.729,2.054-.147.168.295,1.492.588.734,1.028a17.337,17.337,0,0,1-2.5,1.615c-.916-.617.631-1.4.368-2.2-.426-.287-.854.49-1.394.22-.542-.962.194-1.76-.441-2.641-2.121.889-4.521.776-6.53,1.979a15.269,15.269,0,0,1,.073,1.762c.159.322.6.97,1.028.66.685.061,1.27-1.092,1.906-.66a4.134,4.134,0,0,1-2.494,1.761c-.274.787-.98.3-1.54.44a11.2,11.2,0,0,0-1.175,2.348c-.731-.74-3.444-2.789-4.476-2.789-.231-.429-.932-1.056.074-1.1-1.061.068-1.958-.658-3.008-.66-.139-1.077-1.629-.773-1.761-1.541-.109-.624,1.432-.473,1.761-.513a20.619,20.619,0,0,0,7.851,3.008c.556-.477.141-1.708-.073-2.348,1.024-.021-.12-.785-.443-.88a13.216,13.216,0,0,0-2.126-.147,1.3,1.3,0,0,1-.516-1.468c-1.522.14-1.8-1.617-3.154-1.761,0-1.158,1.219-1.642,1.689-2.568-.624-.379-.493-1.626-1.249-1.688a10.328,10.328,0,0,0,3.889-.66c.627-.274,2.4-.711,1.834-1.835-1.116-2.234-6.457-.672-8.218-.22-1.558.4-.251-1.688-1.761-1.028.142-.652-.5-1.184-.953-1.54l.879-.587c-.227-2.453-2.765-.919-.439-3.963-1.445-.853,1.365-1.849-.734-2.2-.143-2.254-3.745-1.8-3.668-4.256-1.38-.769-2.144,1.274-3.228,1.468a4.41,4.41,0,0,0,.073,1.32,24.163,24.163,0,0,0,4.77,3.6c-1.139,4.035-3.709-1.063-6.018-.369-.7-.612.208-1.014.148-1.687-2.871-.016-.463-1.182.586-1.32-.334.022-1.159-.06-.44-.514-1.475-.015-1.884-2.666-3.449-2.274-1.378.345-.879,2.656.367,2.861-.479,1.832-2.946.157-.292,4.769-.9,1.047-3.235,1.084-3.23-.587.64-.745-.661-1.807-1.027-2.494-.809-1.522-3.026,1.811-3.3,0a3.456,3.456,0,0,0-1.835,1.541c1.109,1.808-1.444,1.206-1.687,1.54-.29-1.874-1.269-3.524-1.688-5.356-.2-.887,5.089-1.625,5.87-3.008,1.1-.5-.061-1.4,0-2.127-.969-.193-1.965-.121-2.933-.294-.877.815-1.558-.522-2.422-.294-.424-1.038-1.863,1.022-2.2,1.32a3.964,3.964,0,0,0-3.6-.733c-1.075-.762-3.32.021-4.548.147-.843-1.132-.8.967-2.569.22.085.931-.877.64-.514-.22-1.067-.907.67-.735.443-1.909-.3-1.538-1.625-1.251-2.643-1.98-1.172.418-1.69-1.1-2.789-1.1-.269.234-.614.641-.512,1.028-.152.283-.5.554-.808.294a8.509,8.509,0,0,1-2.786.734l-.009.533c-.107,1.485-1.278-.719-2.193-.167l.806.659a5.677,5.677,0,0,1-.88,1.909c-.646-1-2.022-1.027-2.715-2.056-.485-.719.1-.707.66-.586.065-.169.206-.841-.22-.66l-.586-.66a1.976,1.976,0,0,1,1.622-.453,1.067,1.067,0,0,1-.6-.574c.643-.738-1.184-.144-1.1-.954-.93,1.025-1.109-.733-1.979-.514-.4.956-1.354,1.526-1.615,2.569-1.054.416-.4,1.787-1.176,2.422a1.449,1.449,0,0,0,.881,1.027,2.577,2.577,0,0,1-1.614.147c-.808.213-.3,1.153-.734,1.614a4.142,4.142,0,0,0-3.96-1.247c-.443-.335-1.163-1.208-1.763-1.173-.691.038-2.33,3.146-.587,3.155.487,1.877,1.868,3.241,2.863,4.843l-1.028.44c-.122.422.712.916-.073,1.1-.129-1.031-1.627-.415-1.615-1.32.764-1.061-.832-1.78-.586-2.715l-.808-.366.075-.368c-1.065-1.222-2-3.517-4.036-2.789.867,2.285-2.321.209-3.081,1.175,1.025,1.219-1.7.855-1.983,1.687-.415,1.235-1.656,2.2-1.835,3.376-.233.253-1.061.964-.953.074-1.555-1.417-3.014-3.231-5.211-3.6-3.422,5.529-.882,4.589-.88,9.319l-.44-.074c-.006-.933-2.094-1.589-1.1-2.495-.275-.1-1.742-2.8-2.348-1.394l.294.294c-.325.84,1.24,1.215-.073,1.614-.14-.382-.734-.483-.661-.953-1.65-.948-3.1-3.294-5.282-2.128a4.972,4.972,0,0,0-.66,2.568c-2.439.382-5.914-.616-6.163,2.935,1.383.921,3.588.927,5.209,1.688,1.93.906-.28,1.811.587,3.228l.439.074a20.028,20.028,0,0,0,1.32-1.982c.263.436-.081,1.145-.292,1.541-.623.332,0,.935-.294,1.394-.9-.213-1.446-1.172-2.421-1.175a4.088,4.088,0,0,0-2.716-2.421c-1.583.962-3.99.815-5.282,2.2-.556.6.208,1.478-.368,2.056a3.224,3.224,0,0,0,2.569.586c1.784.843-1.094,1.021-.954,2.127-.278.56-.68,1.983.22,2.2,1.606-.838,3.112.937,4.549.074,1.562,1.205,4.062-1.049,4.989,1.32.651,1.659-2.4,2.5-1.834,4.036.446,1.219,2.616-.181,3.6.733.9.839-1.307.815-1.028,1.835.366.058.875.247.954.661h-.22c-.385-.432-1.815,2-2.348,2.2a.463.463,0,0,0-.734.221c-.937-.6-2.076-.139-3.081-.514-.954.579-2.575.035-2.495,1.688-.263.316.775.728.148.807-1.272-1.216-.819,1.189-2.056.881-.7-.173-2.845-.8-2.861-.366l-.366-.368c-.736-.134-3.679-.033-2.643,1.468-.814.553-1.028-.021-1.76-.295.282-.759-1.809-.994-.734-1.614-2.587-.495.55-1.97-.294-3.375l-.808.587c-.626-.221-1.6.389-2.053-.294-.915-.055-1.243,3.617-1.835,1.468a1.3,1.3,0,0,0,.147-1.616c-1.581-.8-1.131,1.188-1.909,1.836,1.109-.054,0,1.029-.292,1.247,1.106-2.045-1.677-.814-2.421-1.467-.347.258-1.25.544-.514,1.025-.075,1.007.786,1.809,1.467,2.422a5.719,5.719,0,0,0-1.247.881c.362,1.446,2.3,1.385,2.937,2.642-1.471.619.733,2.083-.954,2.494L43,51.161c-.725-.577-1.875-.35-2.715-.22-.153.024-1.33.587-.587.514l.074.586c.694.318,1.011,1.243,1.834,1.32.013.865-1.33.374-1.247,1.247.954,1.078-.638,1.153-.954,1.908-.623.025-.265-.963-.366-1.32a1.226,1.226,0,0,0-1.467.22A8.483,8.483,0,0,1,36.4,53.142c-.746.5-.862,2.118-1.761,1.4.083-.873-1.129-.455-1.32-1.176-.793-.016-1.7-1.843-2.349-.439.672,2.154-4.316,3.382-1.173,6.162,2.355-.011.059,3.994,6.016,3.744.318.531.973-.134,1.4.292,2.555-.6,1.936,2.41,3.081,3.815.9,1.108,1.938.772,2.789,1.615.043.331,2.729,2.461.88,2.715-.137.506-.505,1.125.292,1.247-.113.95-1-.009-1.466.074-.612.11-.189.993-.807,1.1-1,.174-1.6-.389-1.321-1.394-.608-.188-.664-1.521-1.394-1.1-.337-.088-.159-.442,0-.587-.6-.226-.862-1.271-1.54-1.541.389-.828,1.156.54,1.32-.22l.22-1.394c-.438,1.018-1.646.828-2.495,1.175l-.439-.513c-.493-.079-.43.667-.368.953l.881-.366c.577.69-.732.92-.954,1.394a1.483,1.483,0,0,1-1.467-.221c-.4.581-1.159.874-1.688,1.321-.335-.489-.308-1.548-1.1-1.541.253.65-.438,1.462-.074,1.982.392.134.135.511-.073.659-.1,1.23.685-.122,1.173.221.8,2.17-1.769.9-1.982,2.422-.332.079-.852.314-.806.733a2.38,2.38,0,0,1-1.542-.807c.087-1.054-.744-.536-1.245-1.027h.586c.364-.729,1.425-.413,1.906-1.028-.173-.674.618-1.336.074-2.054-.391-.518-4.4-2.367-5.135-2.569C22.2,67.552,19.162,70,17.246,71.046c-1.151.626-4.912.4-4.623,1.467-.775.8-1-.816-1.761-.66-.229.047-.81.9-.221,1.173-.437.448-.6,1.176-1.247,1.394-.6-.327.419-.616.074-.954-.539-.527-1.859.09-2.494.148-.072.838.734,1.69,1.246,2.273C9.553,77.408,7.2,77.551,7.193,78.9c-1.286.066-1.087,1.384-1.321,2.274,3.228,1.4,6.271,3.665,9.906,3.815-.218.31-.443.814-.22,1.173-.687,0-4.522.013-3.082,1.1-.812.309.356.731.368,1.247-1.59-.078-2.557-2.162-3.67-3.082l.294-.44c-2.437-.645-1.748.721-2.935,1.835-.937.88-.356-.706-.954-1.1C3.838,84.573,2.6,83.337.3,83.592c.257.7-.537,1.022-.221,1.762,1.714.822,3.278,2.045,5.283,1.908C4.2,90.068,7.616,89.384,8.88,90.71c-.154,1.058-.98.11-1.247-.294-1.124.331.254,1.089-.221,1.761.094.213.459.734.661.294.263.645,1.6,1.2.221,1.688-.456-.607-1.655.868-2.2,1.027a17.246,17.246,0,0,0,0,2.642,2.376,2.376,0,0,1-1.835.44c.133.664-.721.95-.587,1.614-.926.231-.693-.662-1.1-1.1a1.768,1.768,0,0,0-.514,1.982,1.446,1.446,0,0,0,1.32,0c-.119.543.641,1.562,0,1.908-1.043-.621-.738.915-1.32,1.1.637-.274,1.341,1.229,1.394-.147l.66.22c1.188-.982,2.4,1.191,3.449-.294-.24-1.438,2.053.027,2.275-2.347.04-.442.907.13.586-.295l-.44-.513c.415-1.238.875.048,1.394.294A4.257,4.257,0,0,0,9.981,97.9c.4-.235.442-.912.44-1.321,1.23-.009.4,2.138,1.761,2.2.288.57,1.6.855,2.2,1.027,1.629.469.056,1.478.733,1.982.847.63.706.592-.291.954.419.5,1.9,2.417,1.687,2.569.5.7-1.011,1.218-.073,1.834,1.157.76,3.109-.311,3.961,1.321.545-1.329,1.7.6,2.643-.074-.6-1.829,1.317-.8,2.126-.586.674-.61,1.538.1,2.275-.295.359.511.078,1.125.147,1.688.2-.337.754-1.021,1.173-.586l.881-.368.514.147.439.514c.431-1.246,1.884-.146,2.716-.588.619.618,1.633.445,2.421.441a1.679,1.679,0,0,0,1.1.44l.073.368c.473-.762,1.137.043,1.688-.442.2-1.273,1.781.029,1.982-1.173l1.466.514c-1.226,1.143.455,1.81.881,2.789-1.56-.429-2.743-.1-3.081,1.614a3.8,3.8,0,0,0-1.32-.733c-.128-.741-1.432-.9-.954-1.762a2.46,2.46,0,0,0-1.982-.587c-.987,1.272-2.723-.067-3.67,1.028-.571.661.322,1.071.294,1.614-.041.794-.83.509-1.247.22-.339,1.088-1.7,1.656-2.2,2.715-3.491-.655-1.724.981-4.329.881-.428-.016-.923-.7-1.173-.366.841.145.208.836-.147,1.1a2.713,2.713,0,0,1-.882-.881c.187.067,1.619.53.735-.147.223-1.4-1.454-1.868-2.422-2.348-1.391.839-2.153-.939-3.522-.733-.495.67-1.01,1.757-1.98,1.761-.727.819-1.485,3.285-1.763,3.228a2.275,2.275,0,0,1-1.245,2.2c.608.746,2.28.533,1.979,1.908.24.188,1.009.617,1.029,0,.863-.189-.2.826.218,1.028l.514-.147c.59,2.191,1.209.229,2.128.294,1.219.894,1.63.552,2.934.954-.443,1.724,2.625.112,1.321,1.761.4,1.4,6.068,2.511,4.036.147a2.059,2.059,0,0,0,1.834-.368l.366.881c.506.223.318-1.04.954-1.1l.294.587c.342-.675-.8-1.129-.366-1.761.724.194,1.509-.049,2.2.294-.472,2.346-3.738,5.524-.074,5.87,1.64-1,2.036-3.206,3.889-3.962.7-.926,1.95-1.151,2.789-1.908A1.071,1.071,0,0,1,38.6,126c-1.834,1.149-1.87,3.843-3.449,5.282.5.646.428,1.507.807,2.2.653.149,1.616.292,1.982-.439,2.374-.541,6.167-4.452,8.511-1.982-.468,1.741.391,1.451,1.247,2.421.089-.429.372-1.018.881-1.027-.012-1.855,5.958-.628,7.117-2.642,1.215.235.177-1.485,1.173-1.615l.22,1.176c-.672.348-.578,1.384-1.32,1.687a1.454,1.454,0,0,0,.513,1.467c-.072.758-1.576,1.515-.66,2.2.466-.049,1,.564,1.394.074a11.628,11.628,0,0,1,2.274-2.716c.6.7.747-1.433,1.982-.733.034,1.008,1.237.234,1.615-.074.646.043.794.719.659,1.247.121-.188.53-.549.587-.073,1.959.108-1.258,4.6.808,6.163h.954c-.269-.767.978-.671.366-1.32.646-.25.3-1.323,1.027-1.541,1.1.818,1.447-.821,2.2-1.173.2-1.6,4.309-2.617,5.652-2.349.64-1.459,2.117.04,3.448-.88-.216-.939,1.319-.534,1.175-1.468-.5-.39.643-.638.22-1.173.214-.409,2-2.906,2.053-1.394a2.188,2.188,0,0,0,3.009-.954c-.58-1.855,1.868-.72,2.495-1.76.537.838-1.265.516.366,2.494.8-1.115,2.493-2.138,1.982-3.742,1.2-.9,1.4-2.789,2.935-3.3-.025-3.236,7.494,4.864,8.511,5.576.128.6.33,1.459,1.025,1.615,2.345,5.258,1.446,11.171.148,16.582-.675,2.816-1.41-.907-2.275-1.247-2.363-.927-.7,3.664-.368,4.329-5.322,1.52-6.034-3.078-7.7-2.421-.08.78.339,1.051.44,1.688.149.951-.453-.334-.513-.513l-.807-.221c.717,1.358,1.563,3.28,3.082,3.889a29.387,29.387,0,0,1-1.541-4.182,22.208,22.208,0,0,0,3.741,3.081l.146-.294c.939.67,8.771,1.924,9.687,1.468-.456-1.067-2.124-.287-2.641-1.321.345-.237,1.285-.472,1.392.147,1.5.148,1.283-1.419,2.056-2.2,3.283,2.058,8.022,1.566,11.738,2.348-1.829.561-3.711,0-5.575.147l.148.44c2.841.078,6.634.99,8.951-1.175-.243-.9-.728.482-1.247.294-.58.251-1.628.64-1.982-.147-2.648-.452-5.353-.473-8-.954l.516-.807c2.759.07,5.42-.732,8.143-1.027v-.295c-.884-.269-1.828-.1-2.715-.367.549-1.616,2.784-1,2.2-3.081.646-.411.632.859,1.32.659a40.325,40.325,0,0,1-3.741-9.684c-.146-.533.1-1.11-.073-1.541.961-1.868-.134-5.656,2.933-5.8,2.372-1.908,6.993-1.492,9.907-1.394,2.7.092,5.6-.8,8.218-.368.506.085.794,1.126,1.249.294a3.216,3.216,0,0,0,1.834-.439c.247.665.732.248.954-.147.073.435.6,1.166.146,1.541.078.638-1.852,1.812-2.495,2.128s-.781-.531-1.172-.808c-1.381.089-.085-2-1.249-2.054-.982,2.215-.448,4.287-.954,6.457-.22.948-1.708,1.114-1.394,2.347,1.979.426,3.2-.731,4.769-1.687.144-.653,1.263-.242,1.175-1.1.464-.248.522.278.439.587a3.876,3.876,0,0,0,1.982,1.247c.405.612,1.889-.146,2.568.072a28.248,28.248,0,0,0,3.376-1.906c-.009.9,1.356.614,1.614,1.394a9.007,9.007,0,0,1,2.5.512c1.9.477-.148,2.025.512,3.083a4.233,4.233,0,0,0,1.467.22c2.325-.491.773-2.53,1.323-3.081.99.371.412-.26.88-.734.469.076.484-.426.366-.734.694.287.843-1.233,1.468-.292.352-.026.86-.221.808-.661a2.4,2.4,0,0,1,2.126,0c-.16.422-2.005.363-2.642,2.056.687.448,1.709-.191,2.2.659.6.016.557-.348.88-.734.522.505,1.952-1.795,1.908-1.906h.734c.23-1.85,1.6-1.662,1.173-.441a11.9,11.9,0,0,0,3.742.294c.186-.5.88-.554.881-1.175.639.189,1.23-1.13,1.688-.441,1.392-.754-.067,2.053-.148,2.422,1.179.392,1.1,2,2.276,2.347.076.982,1.186,1.474,1.392,2.422.821.58,1.625,1.433,2.717.955.977-1.536,3.063-.94,4.256-2.13a3.905,3.905,0,0,0,2.347.587c.859-.51,3.32-.453,3.448-1.76.152-1.533.666-.354,1.688-.148.337-.289.533-1.029,1.1-.88-.221.251,3.124,1.848.881,1.394-.507.491-1.474.5-1.468,1.393.541.475,1.578.989,2.2.368.939.962.886-.86,1.616-1.1,1.267-.417,4.673-.128,5.355-1.319.3-.514.444-1.613-.22-1.909,1.851-.182-.034-.917-.587-1.1.437-.886-1.636-.152-1.836-.955l.369-.147c.039.009,1.808.355,1.1-.074.6-.334,1.162.343,1.76.074,2.309-1.037,2.572,2.486,6.018.368.872-.537-.617-.384-.074-.955l-.439.074a10.3,10.3,0,0,0,.513-2.2l.366.073c.132.794.563.792,1.176.442l.133-.282c.12-.393-.6.17-.648.208l-.147-.807.588.22c.2-.217.66-.933,0-.88.5.008.363-.741.88-.66-.357.937.767-.371.881.586.518-.059.747.505,1.246.44.2.1.6.433.294.66l.53.175.35.13c1.062.433-1.724-.026-.7.848l.33.24c-.081.063-.726.691-.221.661.4-.175.93.134,1.247.366a3.738,3.738,0,0,1,3.888.514c-.1-1.385,1.228-.74.441.147l.734.294c.3-.556,1.015-.315,1.54-.735.472.686,1.357-.078,1.983.295-.431-.577,1.125-.243,1.32-.808.935.325.2,1.029-.292,1.323a3.143,3.143,0,0,0,2.2.512c.213.526.818.258,1.175.074-1.7-.724.737-.67.513-1.615l.244.162c.6.377-.214-.463-.1-.968.26-1.125,1.346-.009,1.246-.955.835-.439.626.739,1.322.661.816-1.114.81.758,1.688-.073.54.253,1.17-.516,1.906,0,.27-.62,1.095-.479,1.615-.734l-.292-.514c.153-.88-.939-.815-1.028-1.467-.206-.237-.655-.585-.954-.294-.668-.51-2.059.076-2.349-.954.633.032-.123-.736.662-.587.507.1,1.311,1.282,1.76.881-.748-1.152-2.237-1.125-2.934-2.128a4.339,4.339,0,0,1,1.394.074l.659-.955a1.564,1.564,0,0,1,1.247.44c.421-.247,2.2,1.065,1.394-.292.781-.067,1.5.288,2.274.292.3-.191,4.647-.079,2.642-1.687M190.7,48.74c.073.587.44.881.88,1.32-.807.147-1.1.44-1.906,0,.734-.366-.147-1.173,1.027-1.32m-5.429,17.683c.439-.807,1.834-.22,1.54.366-.586-.586-1.76.368-1.54-.366M18.566,96.873a.591.591,0,0,1-.66-.292c.22-.587-.587-.954-.955-1.173-.073-.368,1.028-1.688-.073-1.028-.513-.587-1.54-1.175-1.54-1.908.733-.22.806.294,1.1.733-.222.808,1.027.074,1.246.734.147-.073,0-.22.074-.439.366.807,1.247,1.1,2.274,1.32.221,1.027-1.247.954-1.467,2.053m2.2-19.37a1.44,1.44,0,0,0-1.761.881v-.147l-.366.22c.207.167.413.51.146.733-.52-.23-.94.4-1.1.808.9.733-.836.908-.294,1.834-.563,0-.892.578-1.466.513v-.366c-1.4-1.172-3.267-1.531-4.7-2.641,2.034.22,3.456,2.173,5.65,1.393.537-.808-1.232-4.723,1.32-2.935a2.714,2.714,0,0,0-1.173-1.54c.586-.389,1.6,1.556,1.955.506a2.779,2.779,0,0,0,.1-.506c.29-1.317,2.359-.175,3.154-1.1.1-.552.7-1.278,0-1.687,1.408.773,3.029-.176,4.478.439-.6,2.2-3.147-.877-4.183,1.688-.33.821-1.474.975-1.761,1.909M26.123,107c-.292-.148-.734-.514-.734-.808.368-.22.734.147,1.176,0-.075.22-.148.66-.442.808m2.569-7.632c-.436.366-.822.953-1.467.881a2.045,2.045,0,0,0,.22,1.613l-.88.221c-.316-.318-.092-.825-.661-.88l-.22.586c-.168-.283-.551-.646-.881-.366a10.891,10.891,0,0,0-1.173-.954c.574-.381,1.884-.4,2.2-1.028-.234-.469-.91-.339-1.247-.073-.244,1.367-.939-1.912-1.32-.587h-.294v.66c-1.269-.311-.834-2.209.074-1.98.4.468,1.089.274,1.54.66.59-.332.9-1.453,1.688-.734.654-.3.429-1.38,1.173-1.394.386-.006,3.487.114,3.3.734-1.337.143-.15,2.794-2.054,2.642m-.44-8.144c-.22-.074-1.54.293-1.1-.514-.439-.66,1.028-.148,1.1.514m2.421-5.211c-.586.294-.366,1.028-.586,1.467-.66-.293-1.762.954-1.394-.293.88-.295,1.1-1.467,1.908-1.394a10.425,10.425,0,0,0-3.081.586.64.64,0,0,0-.063.032.553.553,0,0,1-.258.338c-.107.492.269,1.226-.559,1.171.513.513-.221.587-.514.734-1.906.659-.22-.955-.366-1.467.222-.829.983-.2,1.44-.438a.471.471,0,0,1,.258-.338,1.316,1.316,0,0,0,.063-.253c-.661-1.027,1.908-.22.513-1.1-.734-.074,1.027-.294,1.1.221-.074,0-.074.073-.147.073.366.368,2.787-.734,1.687.66m5.651-3.082c-.936,0-1.118,2.563-2.128,1.028-1.081.522-.531-1.068-.587-1.541.883-.181,1.723-.789,2.642-.366,1.067-.577-1.69-.732-1.394-1.4,1.54-.28,2.087,1.956,3.67,1.542.848,1.637-1.819.291-2.2.733m3.889-9.538c-.661-.294-2.2.073-1.835-.881,0-.66,1.761-.807.734-.147.365.513,1.32.147,1.1,1.028m-1.249,54.738a.485.485,0,0,1-.439.072c-.073-.513.513-1.025.366-1.467.954.368-.147.808.073,1.4M37.5,121.82c-.068-.469.569-.489.881-.439.566-2.457,1.311-.505-.294-3.741.031.045,2.288,1.1,1.246,2.126.268,2.3.83,2.066-1.834,2.054M99.79,143.1h.368c-.073,1.028,1.614,1.614.881,2.569a1.212,1.212,0,0,0,.586.954c.147-.074.366-.074.439.073-.439.368-1.246.147-1.834-.073a3.124,3.124,0,0,1-.441-3.523m-1.1,5.137a2.327,2.327,0,0,1,2.642.147,15.814,15.814,0,0,1-2.642-.147m2.495-.807a1.228,1.228,0,0,1,1.613.954,2.216,2.216,0,0,1-1.613-.954m17.168-6.384c-.073.442.66.808.295,1.027a1.137,1.137,0,0,1-.295-1.027m-1.1-4.108c.147,1.32,1.028,2.494,1.028,3.888-.22-.22-.881-.807-.22-1.1-.22-.439-1.1-1.1-.587-1.614a2.679,2.679,0,0,1-.221-1.173M184.246,83.08c.365-.148,1.393.439.439.659-.366.808,1.027.514-.148.881-.659-.147-.364-1.1-.291-1.54m-1.526-9.134c.029.041.1.136.277.328,0,.367-.512,1.394.514,1.175-.661.294-1.027,1.393-1.468.22-1.836-.22,0-1.028.442-1.32.421-.042.288-.321.235-.4-.024-.033-.018-.027,0,0m-1.7-19.923c-.073-.808.66,0,.954-.587.617.136.593.785.527,1.407a.179.179,0,0,1-.008.211.071.071,0,0,1-.068.063.507.507,0,0,1-.085.079c0-.065.043-.072.085-.079a.605.605,0,0,0,.068-.063.129.129,0,0,0,0-.078c0-.045.008-.089.013-.134-.136-.234-.719-.419-.821-.673-.292.146-.147.586-.807.439-.368-.513-1.028-1.467.147-.586m-3.523,1.468c1.455.429.391,1.285-.367.806-.2-.4-.042-.672.367-.806m-.88,3.007c.469.15,1.408.8,1.321-.22a1.535,1.535,0,0,1,.954.733c-1.311,1.074-3.1-.47-3.155-1.394.275.476,1.386.031.88.881M175.44,74.127c.075.221-.146.513-.146.734,0,.147.368.074.146.292a.717.717,0,0,1-.294.662c-.294-.662-.294-1.468-1.027-1.982.513-.368.953.439,1.32.292m-12.179-35.88c.511.294,1.539.368,1.539.66-.733.368-2.641.734-1.539-.66m-1.982,6.237c-.295-.22-.662-.88-.074-1.175.66.366.146.734.074,1.175m.072-1.614c-.806.22-2.272.439-2.787-.147.516-.44,1.834-.073,2.787.147M158.2,76.256l-.22-.807h-.295l-.291.586c-.164-.482-.43-1.114,0-1.54.769.193,1.205-1.183,1.688-.074-.523.668.524,1.2-.882,1.835m.954.366c-.292.294-.22.807-.292,1.028-.222.146-.295-.147-.441-.221.073-.366.367-.88.733-.807m-4.109-43.29c.734.586,1.98.513,2.861,1.027,0,.146-.293.368-.074.513.734.294.734-.586,1.25-.513-.808.733.511,2.2-1.176,2.054.221-.294.514-.661.294-1.028-1.761-.147-3.3.734-4.843.221,0-1.175,1.247-1.32,1.688-2.274m-5.429-8.513c.292.147.366.368.66.587-.221.366-.294.881-.514,1.175a1.415,1.415,0,0,1-.146-1.762m1.245,7.925c.662,1.173,0,1.173-.366,2.347-.733.587-.879-.733-1.613-.587a2.666,2.666,0,0,0,1.979-1.76m-6.235-9.907c.31.329,1.359,1.224,1.319.148-.033-.863-1.433-1.209-.586-2.2.785.475.877,1.61,1.762,1.98.478.914-1.067.344-1.25.734-.251.539,1.11.046,1.469.294a2.591,2.591,0,0,0-.808,1.246c-2.24.484-1.177-2.407-1.98-.733-.741-.571-2.276-.149-3.155-.147.718-1.149,2.266-.584,3.229-1.321m2.568,27.369c-.44-.147-.88.954-1.1.147.44-.22.661-.953,1.249-.733-.514,0-.366.586-.147.586m-2.861-7.63c.733-.368,1.613-.146,2.2-.587.147.22-.587.661.147.808,0,.366-.808.366-1.246.366-.295-.074-.589-.513-1.1-.587m.366,13.94s-.88-.587,0-.953c.586.22.146.66,0,.953m-4.769,30.377c-.587.221-.733.881-1.028,1.028.221-.513-.368-1.467.587-1.467.366,0,.513.073.44.439m-1.4-51.655c-.525.089-1.239-.412-1.54.295a2.04,2.04,0,0,0,1.615.218c-.237.068-1.2.473-.516.735-.869,1.632,1.933.627.955,1.246.6.348.664.46.586,1.173-.742-.22-.7.74-1.172,1.029.909.674,0,1.051-.073,1.832-.911.466.334,1.148-.368,1.541-1.367-.2-2.762.372-4.11,0,.365-1.224,1.694-1.9,1.836-3.227l-.734-.074c.1-.5,1.074-1.58,0-1.688-1.339,3.789-4.339,6.626-6.971,9.538.379-2.644,1.828-4.971,2.641-7.484.929-.1,1.655-1.03,2.643-.807.908-1.292,2.733-1.808,3.007-3.522.408-.47,1.317-1.311,1.249-1.982.295.1,2.4.928.953,1.173m-.512,53.343c-.294.074.22-.954-.441-.881-.514.808-.807-.954-.954.294-.442-.439-1.175-.294-1.541-.88-.587.147-.512,1.688-1.1,1.32-.144-.734.661-.734.514-1.614.587.368.734-.587,1.029-.074,0-.953,1.025-.292,1.32-.953.365,1.173,2.494.294,1.761,1.98.147.514-.294.66-.587.807m-5.209,15.262c.22.074.66.147.66.514.145.366-.365.807-.66.513.295-.366-.513-.807,0-1.028m-2.13,4.623c-3.724,4.155-2.673-1.144-4.18.733-.261.324-.356,1.029-.881,1.028-.892-.749-4.393,1.525-6.016.587-1.063-.614-2.571.523-3.449,1.027.37.725-.558,1.139-1.028,1.467-.525-.169.875-.693.074-1.172.877-.468-.048-1.5,1.173-1.762-.5-1.4,1.75-.865,1.246-1.982.229-.526,1.023-.406,1.468-.586,1.2.736-.53-.823-.882-.955.617-.241,1.681-.391,1.836-1.173l.366-.147a5.209,5.209,0,0,0-2.494-.734c1.138.148,2.248-.977,3.082-.88.534.062.752.8,1.025,1.173.921,1.262,1.7-.868,2.2.734l.659-.513c-.155-.288-.653-.5-.439-.881a1.835,1.835,0,0,0,1.834-.807l.222.66c-.41.2-1.1.379-1.249.881-.585,1.97-2.939.819-3.522,2.715,1.716,3.828,7.575-.322,9.833-2.127-.248-.61.451-1.474,1.027-.881-.137.537.432,1.333-.218,1.688-.479-.215-.554.953-.882.146-.181.666-1.33.884-.808,1.762m-3.741,4.99a1.18,1.18,0,0,1-.661-1.249c.148.368,1.467.881.661,1.249m-11.005,27.074c-.294.66-.661.44-.661-.146.294-.442.368,0,.661.146m-.808-17.756c0-.147.074-1.323.294-.366-.22.072-.22.22-.294.366m.294,13.647c.586.44.586,1.249.734,1.762-.366-.295-1.028-1.1-.734-1.762m.221-5.944c.073-.292.22-.66.294-1.027-.074.367-.221.734-.294,1.027m.365,11.007c.294,0,.514.659.368.733a.573.573,0,0,1-.368-.733m.148-13.283a3.664,3.664,0,0,0,.294-.953,3.664,3.664,0,0,1-.294.953m-2.789-71.759c.294-.514-.44-.66-.587-1.1-.218.148-.439,1.247-.586.44.073-.587.733-.587,1.174-.587.254.506.455,1.119,1.023,1.232a.45.45,0,0,1,.3.015,1.023,1.023,0,0,1-.3-.015c-.463.135-.422,1.156-1.17.969.661-.22-.659-.881.147-.954m-1.027,2.128c-.442.512-.66-.368-.734-.44.513-.221,2.054-.073.734.44m.512,10.565c.587.221.368-.88.954-.292a37.219,37.219,0,0,0-2.273,6.823c-1.247-2.861-1.029-6.163-.515-9.318.22,1.32,1.982,1.173,1.834,2.787m1.321,3.229a7.241,7.241,0,0,1,2.2.147c-.733,0-.586,1.393.221.66-1.321,1.394,1.32.954.294,2.421.732,1.542-.294,2.716-.734,4.183-1.172-.513-.44.954-1.1,1.247a8.359,8.359,0,0,0-.514,1.175c-.807-.807-.367-2.348-1.1-3.082-.146-2.568-.22-4.622.734-6.751m2.2-26.709c.294-.586,1.908-.881,1.027-1.982a3.469,3.469,0,0,0-.806-2.274c0-.513-.66-.881-.295-1.393a2.543,2.543,0,0,0,2.641,1.1,27.472,27.472,0,0,1-1.025,8.366c-.514.22-.954.586-1.394.807a34.213,34.213,0,0,1-.147-4.623m3.963-21.937c.586.073,1.467-.514,2.273-.442-.587.442-2.347,1.541-2.715.881-1.32.22.147-.439.442-.439m.512-3.156c-.511.368.222,1.475-.881.954-.265-.395.8-.975.881-.954M126.5,39.936c1.251.22,3.245-2.75,2.274,0-1.145,3.236-2.093,6.6-3.082,9.9-.911-1.394-2.574-2.31-2.935-4.035-1.309-.371-.24-1.408.147-2.054,1.028-1.714.888-4.294,3.6-3.815m-.074-4.184a1.229,1.229,0,0,0,.532-.059c.814-.509.586-2.977,1.521-1.042.222.295.808-.073.881.514-.366.734-.734-.22-1.32,0-.421.1-.693.4-1.082.527a.619.619,0,0,1-.532.059m2.2,14.9c-.876-.478-.876.986-1.76.366.169-1.568,1.863-1.123,1.76-.366m-.438-.954c.623,0,.361-1.474,1.393-1.247-.018.887-.616,1.082-1.393,1.247m-3.522,21.793c-.735.073-.148-.294-.222-.661-.368-.22-.734-.586-1.027-.733.586-.807,1.906.366,1.834-1.028-.66-.953.955-.294,1.249-.953-1.762-.368,1.1-1.1.22,0,.44.22,1.32-.147,1.687.22-.882.586-2.861.22-3.008,1.688.513,1.173-.294.586-.732,1.467m-2.5,10.566c-.717.477-1.465-1.054-2.127.221-.843.507-.7-.954-1.467-.662a1.325,1.325,0,0,0-1.541,0c-.093.189-1.013,1.6-.513.589.917-1.858,1.246-4.421,3.522-2.495.978.124,2.437-.782,2.935.514.708-.136.861.533,1.394.806.24.47.746,1.144.439,1.688-.5-.036-3.224.846-2.495-.368Zm0-40.063a13.359,13.359,0,0,1-1.563,3.226,1.321,1.321,0,0,1-.269.517c.072-.159.167-.335.269-.517.381-1.331-.679-3.48,1.563-3.226m-.513-4.549a9.642,9.642,0,0,0,1.541-.292c-1.1.513-1.467,1.688-2.274,2.347-.442-.954.368-1.393.733-2.054m4.4,28.763c.808-.569,2.812-.378,1.249.733a1.2,1.2,0,0,1-1.249-.733M122.17,21.3c.954-.88,1.835-.22,3.082-.294a16.093,16.093,0,0,1-3.082.294m-.879-2.422c.439-.366.879.147.953.514-.439.147-1.027.147-.953-.514m-1.469,44.172c-.512.586-.66-.294-1.172-.366.073-.147-.22-.807.291-.881,1.1-.441.369.954.881,1.247m13.284,38.3c-.265.485-1.15-.931-1.762-.661-.149-.421.459-.294.66-.22.089-.665.718-1.264,0-1.835a4.412,4.412,0,0,0-1.468.366,10.366,10.366,0,0,1,1.836-1.32c.141.475,1.39.685,1.1,1.247,1.991,1.81-.621,1.532-.365,2.422m1.834-23.113c-.456-.621-2.442-.708-1.834-1.909l1.319.221a5.1,5.1,0,0,1,.587-2.568c.43.175,1.773-.475,1.761.292a1.868,1.868,0,0,0-1.027.954l.22.881c.285-.406.84-.409,1.135-.65.048-.074.1-.146.152-.216a.727.727,0,0,0,.034-.382l-.222-.021c-.384-.041.075-.169.222-.345-.068.349.069.471.257.446a1.182,1.182,0,0,1,.4-.227.731.731,0,0,1-.4.227,1.768,1.768,0,0,0-.291.3.489.489,0,0,1-.152.216,2.4,2.4,0,0,1-.916,1.016l-.365-.147c-.183.395,1.858,1.641-.88,1.909M134.2,46.612c.88-.22,1.761-.366,2.126-1.1.295,0,.368.074.442.294a3.975,3.975,0,0,1-2.568.806m2.421-1.979.439.291c-.779.538-1.935-.112-2.641.588v.294c-.862-.464-1.888.975-2.569,0a7.861,7.861,0,0,1,1.688-2.054c1.521.132,3.032-.152,4.548-.075a4.3,4.3,0,0,1-1.466.956m-1.394,11.446c-1.368.006-1.31,1.386-2.642.294-.435-.011-.3.632-.218.88.671.39-1.544.754-1.028-.073.635-1.023,2.911-2.238,3.888-1.1m2.275-23.48c0,.66.733-.221.66.513-1.247-.954-.44,1.393-1.541-.074,1.246-.292-.221-1.32.147-1.467-.294-.146-.221-.587.074-.587.807.221,1.614,1.1.66,1.615m-.881-9.319h.035a.1.1,0,0,1,.112,0h-.112c-.043.032-.063.1-.109.148.221.366,1.1.146.734.733-.955.22-.294,1.173-.955,1.688-1.1.294-1.392-.22-2.348-.587.514.368-.586.44-.439.661-.292-.294-1.027-.882-1.54-.294,0-.148-.148-.221-.222-.368-.144,0-.218.147-.292.22.661.587,0,.514-.514.514-.439-.147.148-.294.074-.514a1.4,1.4,0,0,1,.221-1.76c-.147.733.881.439,1.1.586.953-1.1,3.668.147,4.254-1.028M118.354,11.1c.955-.147.955,1.394,1.983.881a7.935,7.935,0,0,0,.88-1.762c.733,0,1.835.514,2.274-.512.295.146.734.439,1.028.073,0-.661-.22-1.028.148-1.762.217.295.658.221.511.734,1.615,2.569,4.991,0,7.193.147a2.55,2.55,0,0,0-.882,1.394c1.1-.368,0,1.614,1.247,1.321.369.073.514-.44.879-.44-.732,1.247.148,2.642.295,3.962-1.76.881-2.567-2.348-3.741-.294,0,.366.147,1.614-.587.954a3.206,3.206,0,0,1-.074-1.175c.442.294.587-.439.734-.66-.365-.292-.22-.66-.513-1.173-1.1.366-1.909-1.249-3.156-.807-.439-.807-1.394-.587-2.053-1.028-.661.368-.074,1.614-.881,1.762-1.249.366-3.3.807-4.182-.661-.516,0-1.394-.073-1.1-.954m-1.541,10.419c.661-.292,1.616-.66,2.275,0,.073.147-.148,0-.148.147.662.147.074.661-.145.808-.881-.074-2.348.586-2.861-.514,1.027.807.072-1.173.879-.44m-5.8-15.7c-.147,0-.22.661.074.734.366-.073,0,.074-.074.147a1.874,1.874,0,0,0,2.275.22c.221-.366.512-1.1.88-.66-.734,1.175.734,2.2,1.1,2.935-.66-.44-2.274-.44-2.495-1.321-1.025,0-2.2-1.54-3.448-2.2-2.935-1.908,1.1.146,1.687.146M108.891,25.04c-.436-.438-.922-1.017-1.615-.88.54-.381,1.251-.634,1.32-1.394.471.314,1.255.756,1.832.513.667,1.005,1.464.079,2.131.881l-.148.66a3,3,0,0,0,1.125.068c.041-.1.128-.164.343-.141a.873.873,0,0,1-.343.141c-.107.254.121.732-.538.519-.435.721-1.693.1-1.541,1.32-.807-.168-1.548-1.466-2.347-.439.53.672,2.5.295,2.126,1.613,1.191-.369.7.788.368,1.321-.927-.081-1.8-.86-2.713-.294.68-.58-.366-1.036-.95-1.071-.1.027-.2.051-.289.079.081.265.148.776-.3.332,0-.2.13-.28.3-.332l-.009-.035a.55.55,0,0,1,.3-.043c.237-.062.465-.159.507-.469.171-1.238-1.43-.049-1.539-2.789.681,0,1.3.59,1.982.439m-2.643,21.94c2.406.611.883-3.035,1.834-3.742,4.225,4.229,3.29.2,4.11-1.688l.294.148a18.1,18.1,0,0,1,2.715,8c-1.031.349.312,2.036,1.247,1.467-.5.109.274.7-.368.734-.242-.628-1.3-.847-1.832-1.173-.145.868-1.232.883-1.909.807-.625-1.087-2.151-1.392-3.3-1.321l.366-.292c-.344-.459-.256-2.207-.711-2.056l-1.049,2.275c-.458.089-1.869.215-1.467-.66-.384-.788.067-2.281-1.176-2.421-.011-.613-1.634-1.371-.734-1.835.127.808,1.233,1.572,1.983,1.761m-.221,36.76c-.923-.148-1.619-1.542-2.641-1.027-1.406-1-2.695-2.162-4.11-3.155-.047-.719,2.986-2.552,2.787-3.815.546-.327,1.77-1.072,1.982-1.688.194-.553-1.242-1.153-.366-1.762-1.644-.821-.123-2.026-1.249-3.667l-.338,0c-.628-.067.445-.6.56-.657.681-.328.152.848.587,1.1l-.147.587c1.377.991,3.571,11.318,3.082,12.621.935.1-.381.922-.148,1.466m1.175,34.779c-.37-.894-.363-1.894-.734-2.789.388-1.077.566.514.588.808-.027.033.168,1.647.146,1.98m0,8c-1.027-2.715-2.2-5.355-3.375-8.071-.148-1.1,1.319-.954,1.761-1.687h.587a28.57,28.57,0,0,1,1.027,9.758m-.292,8.366a19.562,19.562,0,0,0-.442-4.11c.294,0,.513.22.734.294a10.161,10.161,0,0,1,0,4.7c-.146-.368.292-.734-.292-.88m0,1.76c-.074.442-.148.881-.221,1.321.073-.44.147-.88.221-1.321m-1.029-11.079c.881,1.249.368,3.082,1.029,4.4.147.368-.221.294-.221.513-.221-1.834-.955-3.155-.808-4.916m-.074,6.018c-.417-.418-.305-1.366-.484-2.14a4.005,4.005,0,0,0-.176-.5,1.924,1.924,0,0,1,.176.5c.217.722.308,1.547.484,2.14m-4.328-48.648c.694.615,1.543,1.03,2.2,1.688-.242.861-2.911-.7-2.2-1.688m2.054,32.578c.074.368-.366.22-.292.44-1.249.294.66-2.2.292-.44m-3.081-30.377c.366-.586,1.393-.441.66.294-.734.147-.586.881-1.467.733-.294-1.173,1.32.44.807-1.027m.22-13.794a.628.628,0,0,1,.193.126c.585.324,1.563.417.908,1.269-.075-.147.147-.514-.22-.514-.513-.073-.22,1.1-.881.44.063-.322.522-.866.193-1.195a1.213,1.213,0,0,1-.193-.126m2.861-3.889c-.345-.476.209-.9.147-1.4,1.085.951,2.494,1,3.815,1.4-1.6,1.982-1.706,4.73-3.375.44.127-.377-.323-.472-.587-.44m.222-9.759c-.159.188-1.2,1.048-.148.807l-.295.366c-.478-1.464-1.31.892-2.2-.147.993.173-.092-1.457-.147-1.54.627-.573.981.58,1.541.66.3-.5,2.41-1.535,1.249-.147m2.2,15.115c-1.282-1.474,1.411-1.437,2.015-2.821.028-.237.065-.471.113-.7a1.473,1.473,0,0,1-.113.7c-.395,3.322,1.108,7.317.627,10.671-2.642-1.687-1.54-5.063-2.642-7.85m-2.568-39.182a2.924,2.924,0,0,0,.733-.292c-.486.731.993.244,1.247.881-1.346-.322-2.36,1.259-3.449.438,2.185-.235-.359-2.17,1.468-1.027m-1.1,2.348c.226,1.258-1.843,1.471-2.642,1.834-.659-.236-.363-1.129-1.1-1.246.58-1.911,1.865.606,2.054.44.55-.48.707-1.223,1.688-1.028M99.571,46.612c0,.588-1.467.368-1.982.148-.22-.368.074-.66.295-.954.66-.22.734,1.394,1.687.806M98.323,16.383c.221-.294.516,0,.66,0,.073,1.027-1.1.147-1.394.88-.22-.292.295-.88.734-.88m.221.953.22,1.028c-.394.991-1,.654-1.688.147.462-.46,1.2-.511,1.468-1.175M97.46,22.029c.39.009.759-.1.5-.584.053-1.054.989.626,1.394-.22l-.88-1.1.658-.22c-1.172-.2.444-.971-.218-1.394.678.463,1.1,2.354,2.2,1.835a3.441,3.441,0,0,1,0,1.394l-.807.366c.613.834-1.944.491-2.2.44a1.494,1.494,0,0,0-.644-.517,2.564,2.564,0,0,1-.53-.07.9.9,0,0,1,.53.07m-1.337-4.694c-.148.66-.074,1.321-.44,1.762.292-.587-.881-.807-.442-1.468-1.394.44-2.2-1.613-3.3-.366,0-.513-.587-.954,0-1.32.587.734,1.688,0,2.053.954.808.146,1.247.587,2.13.439m-4.7-5.429c.442,1.1,4.549,1.909,1.323,3.008.218-1.027-.808-.366-1.1-.807.294-.807-.66-1.614-.221-2.2M93.04,33.038c.368-.366-.291-.586.368-.88.734-.44.955.954,1.32-.294.367,0,1.1-.366,1.541,0,.366-.366.294-1.688,1.1-1.173-.074-.221-.294-.294-.218-.587.218,0,.291.073.291.294.881.146,1.541-1.175,2.716-.881.073.44-.439.294-.587.44-1.32,0-1.247,1.468-2.42,1.761-.516.66,1.32,1.028.218,1.834-.218.587,1.1,1.688.147,2.056-.881-.44-1.247-1.688-1.834-2.127v-.295c-.513-.659-2.275-.954-1.615.44-2.054.588,2.716,1.175.513,2.789-.953.147-.218-1.467-1.32-1.541-.88-.734.513-.954-.587-1.247a8.631,8.631,0,0,1-2.053.147c.22-.221-.368-1.32.22-.439.881.366,1.541-.734,2.2-.295m-2.716,8.511c-1.15.289-1.916-.874-2.568-1.613.9-.154,1.2-1.184,1.762-1.762-.011,1.3,2.226-.073,3.449.294-1.485,1.065-3.617.177-2.643,3.081m-3.08-20.911c-1.022-.2-1.186-1.2-1.614-1.982.775.728,1.629-1.015,2.126-1.541.516-.54-.477-1.139.222-1.688.382.7-.033,1.512.586,2.128.327-.2.916-.653.734-1.1l.66,1.173c-.559,1.184,1.063,2.019.661,3.229l.168.215c.7.906-.583-.425-1.122-.068-.967.639-.8,1.884-1.321,2.789l-.661.294c-.4-.8,1.262-1.432.073-1.909-.544.462-1.9,1.189-1.171,2.054.591.135-.018.947.438,1.175,1.155-1.022,1.137-.227.442.147-.274,1.388,2.159.433.847,1.115l-.408.206a1.882,1.882,0,0,0,0,1.394,3.113,3.113,0,0,0,0,1.321s-.966-1.264-.513-.881a7.913,7.913,0,0,1-.147-2.2c-.7-.274-1.635-.059-1.909-.954,1.795-1.34-.678-3.641,1.909-4.916M85.556,73.173c-.294,0-.734-.586-1.246-.66.146-1.173-1.982-.513-.734-1.614.806-.074,1.687-.366,2.347.294a2.4,2.4,0,0,0-.367,1.98m-.807-57.305c.22.074,0,.221,0,.366-.439-.292-1.247.661-1.467-.218,0-1.1,1.028-.295,1.467-.148m-1.614,40.8c1.492,1.581-1.108.726-.148,1.982a1.616,1.616,0,0,1,1.176.513,2.164,2.164,0,0,1-.881.807c.429.68,1.36.02,1.54.808.436,1.885-.226-.155-1.467.513l-.512.22c.505-.366-.283-1.037-.588-1.247l-.073-.366h.513l-3.073-2.57-.008,0-.955-.808.963.806c.572-.16,1.191-.276,1.459-.879l-.173-.947c.736,3.161,1.2.075,2.227,1.166M78.586,25.848c.734.294,1.466-1.175,1.175.294-.808.292.439,0,.22.44,0,.807.439,1.173.515,1.76a3.991,3.991,0,0,0-2.5-.66c-.366-.44.368-1.319.587-1.834m-7.338-4.622c.368-.147,1.321.146,1.175-.587.807-.368,1.173.587,1.906.44,1.762,1.394-1.686-.221-1.466,1.394-.734.365-.807-1.028-1.688-.442-.073-.22-.22-.66.073-.806m.808,16.581a3.106,3.106,0,0,0,2.421-1.613c-1.6-1.854,4.845.425,5.87.22.711.324-.009.613,0,1.1.011.511,2.167,2.132.439,2.495l-.734.074c-.671-.821.206-1.682-1.319-1.836-1.493-.149-2.368-1.56-4.109-.807-.745.323-.227,2.14-1.247,1.028-.9.136-1.521-.8-2.421-.661.014-.406.8.042,1.1,0m6.236,10.787c-.513.808-.954-.881-1.761-1.028-.366.429-.228,0-.339-.12-.034-.008-.065-.019-.1-.026a.093.093,0,0,1,.1.026,1.914,1.914,0,0,0,.926.12c0-.586.515-.659,1.028-.439-.22.513.368,1.028.147,1.467m-4.109,21.5c-.807.22-1.175-1.467-2.054-.513-.586-.074-.22-.661-.294-.954a.937.937,0,0,0,.88,0c0-.221.221-.294,0-.442.514.221.881.881,1.468.881.513-.366-.22-.66.074-1.173.66.807-.442,1.394-.074,2.2m0-15.848a1.666,1.666,0,0,1-1.32-.662c.44-.512.733.295,1.175.442-.074.073.073.147.146.221m-2.495,48.72c0-.44-.733-.955-.218-1.394a11.241,11.241,0,0,0,1.32,1.1.558.558,0,0,1-.368-.147c-.587.514.221.66-.734.44m-.661-53.931c-.291.587.221,1.173.075,1.688a13.531,13.531,0,0,0-1.323-.881c.588,0,.516-1.32,1.247-.807M68.9,84.254c-.222,1.1.584,2.2-.443,3.081-1.247-.146.295-1.467-.733-1.761a9.91,9.91,0,0,1,1.176-1.32m-11.375-24.8a8.589,8.589,0,0,1-.807,1.173c-1.027.22-.368-1.028-.954-1.247.513.294,1.32-.221,1.761.074M51,89.315c0-.88.88.881,1.761.514.22.367,1.1.661.661,1.321-.955-.734-1.909.733-2.935.074.22-.734-.44-1.689.513-1.91m-.513-43.362c.513.22.881.292,1.173.807-.074.953-.66.147-1.1,0-.147-.221-.44-.587-.073-.807m-.074,1.98a2.877,2.877,0,0,1,.734.587c-.368.366,0,1.173-.734,1.247.514-.734-.66-1.028,0-1.835m-.074,57.746c-.329,1.928-2.424,1.183-3.741,1.467.318-.74-1.228-1.121-.515-1.32,1.309.724,2.928.271,4.256-.147m-5.8-41.825c-.881.661-2.056.295-2.935-.072-.073-.44-.587-.881-.147-1.173a1.336,1.336,0,0,0,1.467,0c.366-.734.295-1.4,1.028-1.762,0-.294-.294-1.173.368-1.32.88,0,0,1.32.953,1.247a1.766,1.766,0,0,0,.039-1.033.99.99,0,0,1-.331-.657,1.719,1.719,0,0,1,.331.657c.659.6,2.044.516,1.87,1.619.294.221.807-.147,1.1.147-.513.074-1.1.074-1.32.66-.22-.88-1.1.221-1.761.074a3.794,3.794,0,0,1,.513,1.613c2.2.808-.66.515-.44,1.689-1.687-.074.807-1.761-.733-1.689m-.44,37.5c1.661.912.953-1.26,1.834-.368-.542.268-.536.586,0,.88a2.359,2.359,0,0,1-1.834-.512m1.541,9.611c.561-.1,1.655-.134,1.1.808.275.944-2.4-.577-1.1-.808m6.236,15.116c-.578.1-1.108.356-.88,1.027-.287-1.173-2.388.344-2.421.66-.536-.054.023-.619-.661-.66-.308-.019-.914.026-.881-.439.061-.856,1.843-.006,1.321-1.176.594-.292.048-1.068.44-1.467.677,2.057,1.8-1.024,2.495,1.175.127.408.9.284.586.881m-.146-22.453c-.587.147.073.807-.514.807-.44-1.175,1.468-1.175,1.541-.44.661,1.4.073.514-.661.22.221-.22-.22-.439-.365-.586m1.688,21.059c-.295-.295-1.323-1.982-.295-.587.221-.147.807,0,.734.44-.147.074-.368,0-.439.147m.953-7.7c.221-.514.881-1.762,1.247-.661-.366.221-.733.734-1.247.661m5.357-41.6c-.813.356-1.768.08-2.569.513-.675-.078-1.311.268-1.982,0,.056-.439-.06-1.081-.66-.734-.415,1.282-.982-.388-1.541-.586a1,1,0,0,1,.587-.661c-.52,1.121.665.4.366-.88-.792-.666-.451,1.178-1.32.147.566-.217-.115-.736-.366-.881-.524.2.31-.475.366-.512l-.366-1.028c.112-.476.7.17.88-.294.076.468.349,1.307.955,1.247.328-.517-.614-.94-.074-1.394.265.2.833.406.807-.147.438.264,1.153.388,1.247-.294-.547-.122-.039-.83-.514-1.027l.294-1.321c.646.442,3.345-.6,2.2,1.028-.438-.25-.867.411-1.027.734.349.74-1.245,1.282-.368,1.688l.66.22a4.369,4.369,0,0,1,.734-1.98c.8,2.046,3.464,1.272,5.137,1.687-1.034,1.834,1.672,1.723,2.054,3.007-1.206.734-3.52-1.318-3.228,1.1a1.477,1.477,0,0,0-2.274.367m2.934,8.585c-.147.66-.587.074-.807-.147-.368-1.32,1.762-1.173,1.687-.44-.439.366-.22.514-.88.587m.88,12.4c-.444-.812.772-.83,1.028-.368a20.822,20.822,0,0,1,3.449,1.175c-1.091-.076-.433,1.66-1.687.88,2.5-.615-2.361-.9-2.79-1.687m4.477,20.251c-.44.221-2.422,1.908-1.467.368.733-.295.954-1.175,1.32-1.762-.807-.88.586-.439.513.074-.22.368-.88,1.1-.366,1.32m.366-23.26c.221-.733-.954-1.614.368-1.906.732-.147.88,1.1,1.32,1.393-1.027.221-.515.807-1.688.513m2.641,20.106c-.147.073-.291.073-.365.22a1.866,1.866,0,0,1-.294-1.247c.146.366.954.44.659,1.028m-.732-8.145c.44-.294-.368-.734.44-.661.807.44,1.614-.22,2.273.514-1.1.221-1.982-.807-2.713.147m4.4,23.846c-.806-.074-.733,2.054-1.393.66-1.175-.66.88-.513.954-1.394.587-.073.512.366.439.734m-1.1-9.392c.733-1.393-.147,1.028,1.028.734-.074.22-.074.441-.147.587-.439-.368-.586-1.321-.881-1.321M79.32,78.384a14.557,14.557,0,0,1-.88,2.494c-1.424.6-2.187-2.514-3.671-1.468l.294.882c-.631.069-1.119-.486-1.687-.661.922-1.745-1.7-.47-1.761-1.98a12.864,12.864,0,0,0,3.448-1.615c.7.444,2.928,1.267,3.67.661.841.779,1.859-.187,2.642.733,1.6.189,2.288-1.109,3.523.513.244.325,2.967-.1,1.466,1.028-.473.356-2.725-1.1-3.962-1.541a.764.764,0,0,0-.292.955c-.93-.466-1.827-.073-2.789,0M82.4,125.636a.324.324,0,0,1-.439-.147c-.074-.146.072-.146.147-.292-.881-.147-.147-.368.073-.66.881-.221.22.807.22,1.1m1.028-1.1c-.366.44.073-.44-.294-.44-.881,0-.954-.661-1.467-1.175,1.1-.366,3.594-.22,1.761,1.615M87.465,104.8c.33-1.441-2.517-.754-3.155-.439l.292-1.028c1.309-.367,2.875-.566,3.6.88Zm.807,3.449c.807.073,2.348-.294,3.154.368-1.1.439-2.127-.221-3.154-.368m3.081-.439c.148-.368.44-.148.807-.221a.427.427,0,0,1-.807.221m2.641-28.25c-.586.661-.586.515-1.32.661-.365-.442-.439-.514-.146-1.029-.44-.806-1.688-.22-1.908-1.172.733.806,1.32-1.249,1.54.072.074.221.294.074.44.148-.366-.661.221-.295.514,0,.513-.442.807.806,1.027-.148.294,0,.66.44.88,0-.294-.806-1.1-.22-1.393-.513.586.074,1.541-.147,2.495-.073.218-1.687,2.2.439,2.2-1.615-.439-.294-1.1.295-1.54-.146a1.862,1.862,0,0,1,.292-1.615,2.335,2.335,0,0,0,2.715-.292c.441,0,.808.513,1.175.072.294,1.1-.955,1.4-.807,2.569-.807.294-.881,2.348-1.762,1.028-.659.366-.439,1.54-1.613,1.027-.295.587-.955-.22-.955.587-.88-.513-.954,1.32-1.835.44m8.8,46.373c.075.073.147.147.295.292.147,1.175-1.468-1.613-.295-.292M96.123,119.4c-.357-.467-1.612-.772-.954-1.541.123-1.161,1.69-.16,1.466-1.541.468-.119,1.263.053,1.4-.587-.574-.054-.574-.6,0-.659l.44.733a.484.484,0,0,1,.733-.074c-.926.14.159.47.366.514.429-.163,1.193-.218,1.173.439-.812.206-.778,1.615-.954,2.275.86.115,1.522,1.417,2.5.66,1.767,1.387,1.541,4.178,2.787,5.944-3.142-1.811-5.406-5.029-8.951-6.163m9.465,28.177a5.165,5.165,0,0,1-1.761-3.009c.529-.828.408-3.7,1.54-5.282,0,2.121-.85,4.294-.954,6.456.646,1.023,1.549-5.631,1.982-6.531a44.931,44.931,0,0,1-.954,6.531c.846.412.675,1.236.147,1.836m1.541-2.349c-1.688,1.541.294-1.1-.734-1.173a19.994,19.994,0,0,1,1.1-5.209h.295c-.587,1.393.22,3.668-1.028,4.548-.66.881.807,1.028.368,1.835m.513-30.745c-.074-.22.733-.073.367.295-.075.439-.367-.147-.367-.295m.439,20.179a14.229,14.229,0,0,0-.292-3.6c.586.954.368,2.2.292,3.6m1.249-11.96a2.813,2.813,0,0,1-.034-.349,7.6,7.6,0,0,1,.034-2.44,12.282,12.282,0,0,1-.034,2.44c.012.117.024.241.034.349m.147-2.935c-.142-1.036-.585-2.131-.147-3.155.631.325.288,2.557.147,3.155m-.075-11.079.954.073c-.107,1.045-.583,6.113-1.025,6.678-.509-1.232-.114-2.608-.368-3.889.923-.2-.415-.546.368-.881a.769.769,0,0,0-1.249-.292c-.525.463.442.747.442,1.1v2.934c-.746-.248-.623-1.334-1.467-1.394.1-.57-.415-1.92.438-2.054,0-.9-.034-1.353-.806-1.908.746-.339,1.387.47,2.2.22-.4-.861-1.559-.978-2.13-1.687-.086-.019-1.774-.386-1.183-.537l.449-.049.661.146c.559-.389-.571-.638-.294-1.1.193.243.939,1.027,1.173.44-2.433-1.835,3.012-1.738,1.028-4.623a1.535,1.535,0,0,1-1.32-.146c.281-.835,1.111-1.173,1.615-1.835.64.137.1,1.183,1.025.954.458.384-.442,1.317.074,1.835,1.192-.013.323,1.1.733,1.614-.792.41-.511-1.238-1.246-.4l-.147.181-.734.294a2.938,2.938,0,0,1-.954,1.834c.482.95,1.684,1.215,1.76,2.495m1.468,21.572c.292-.22-.147-.88.367-.88.147.146.147,1.906-.367.88m1.027,1.761c-.292-.22.074-.586.148-.88.44.365-.148.585-.148.88m.515-22.893c-.586,0-.294,1.541-.659.881.073-.367.365-.734.144-1.1-.66-.148-.953-.955-1.247-1.468,1.029-.88.661,1.98,2.2,1.175.808-1.028.954.732,1.836.146.439,1.247-1.1,1.247-1.173,2.056-.148-1.175-1.1-.66-1.1-1.689m.954,28.69s.514,1.541-.147.587c-.22-.147-.073-.441.147-.587m.294,2.275c.221.072.66,1.467-.146.733-.295-.22,0-.439.146-.733m3.3,5.135c-1.173,0-2.2.366-3.3.366,1.1-.66,2.054-.294,3.3-.366m-.513-27.955c-.807-.44.733-1.175.073-1.909,0-.292.292-.733.44-.147-.44.587-.148,1.467-.513,2.056m3.081,6.309c-1.1,0-.66,2.054-1.247,1.1-.366-1.982.88-.515,1.687-1.688,1.467-.294-.147.22-.439.586m.587.514c.586-.294,1.027-.881,1.688-.881a6.15,6.15,0,0,1-1.688.881m1.175-3.082c1.025-.22,1.906.368,3.008.368a4.477,4.477,0,0,1-3.008-.368m3.448,1.908h0Zm.881-.073a1.846,1.846,0,0,1,1.541-.147c.147.513.733.074,1.028.294a5.065,5.065,0,0,1-2.569-.147m4.183-.147c.641.059,1.373.344,1.978.35.163-.022.318-.043.443-.056a1.388,1.388,0,0,1-.443.056c-.8.109-1.917.258-1.978-.35m-1.4-1.027,4.4-.294c-1.125.345-3.307.8-4.4.294m5.208,1.246c-.585.074.295,0,.368-.366,1.543.366.222.221-.368.366m3.377-2.2c-3.275.073-6.558.157-9.832.294-2.255.094-4.657-1.347-6.823-.44a3.8,3.8,0,0,1-.881-1.247c-.365.505-.655,1.285-.807.074-.072-.564,1.114-1.151.147-1.468l-.417.35c-1.132.859-.013-1.151-.271-1.871a1.866,1.866,0,0,1-.265-.238.336.336,0,0,1,.265.238c1.777,1.381,7.087,1.032,8.906.422-.436.847.714,1.172,1.175,1.614.747-.457,1.706-.606,1.906-1.614.544-.067.9-.8,1.468-.66h0a.715.715,0,0,1-.218-.367l.218.367c.585.52,1.992-.094,2.421.513.129-.487,1.4-.3,1.1-.806.631-.819,2.152.228,1.541-1.908.291.254.526-.227.586-.44.1.372.415.567.66.147l-.146-1.028.661-.368v-.144c.608.5,1.785.792,1.54,1.172.538.793.358.98-.147,1.688.226.625-.793,1.386-.734,2.128.393.529,1.39.634,1.467,1.393-.811,1.252-2.614,1.072-3.522,2.2m3.742-57.891c.22-.587,1.027-.954.512-1.615-.146-.147-.585,0-.439-.439,0-1.394.954.073,1.028.366-.22.512.439.587.587.807.22.44.291.954.512,1.394-.66.44-1.76-.074-2.2-.513m2.494,33.6-.22-.294-.295.221.221.66a2.539,2.539,0,0,0-.66-1.1c-.386.8-1.4-.63-.733-.954l.294.513c.516-.261.911-.879,1.541-.881l.093-.44-.021,1.249c.424.06.417.8.882.659.651.9-.721.507-1.1.368m.807-12.473c.514-.514-.439-.368.22-.88.148.147.66.512.369.88.024.147.23-.012.444-.227.87-1.063.422-.423,0,0l0,.006c.733.734-.366.295.147,1.175-.295-.807-1.323.22-1.175-.954m1.541,10.713c.073.587,1.762.734.881,1.393.073.44-.294,1.1-.146,1.4-1.176-.147.073-1.835-1.1-1.761a1.784,1.784,0,0,0,.366-1.028m3.742,31.624c-1.028,1.027-2.642.439-3.523,1.687.147.368-.66.074-.586-.294,0-1.025,0-1.76,1.175-1.687.22-.441,1.027-.515,1.027-.954.806.586,1.98-.881,2.128.586h.294c-.294.661.147.515-.514.661m1.467-29.424c-.7.334-.2-.613-.733-.512-1.042.2.62,1.338-.439,1.393.045.3.008.953-.442.441-.029-.089.044-.223.1-.323-.044.009-.117-.039-.242-.19l.283.072c-.035-.458-.78-1.972-1.237-1.172-1.357.153-.336-1.824-.661-2.495.752-.422.667.668,1.321.734.517-.736,1.394,1.593,1.58.29l.033-.437.294-.366c-.07.446.136.935.661.88-1.2.412.425,1.243-.514,1.687m3.6,7.118c-.22-.881-1.541-.586-2.2-.22.074-.295-.294-.733.294-.587.366-.294-1.175-.808,0-.586-.587-.514.22-.661.44-.955.658.22.366,2.642,1.247,1.1.072-.146.22-.146.439-.146-.66.44.807,1.32-.22,1.393m.366-10.492c-.586-.44-.514.733-.514,1.1a1.752,1.752,0,0,1-.514.661c-.291,1.246-.22.44,0-.074a1.438,1.438,0,0,0-1.025-1.908c-.734-.074-.513.881-.294,1.1,1.247.44.074.294-.294-.073.148-.661-.66-.734-.586-1.468,1.1.587.586-1.54,1.908-1.173.291-.439,0-.587.586-.807,1.028.44-.442,2.127.66,2.127,0,.22.295.881.074.514m-3.082-27.517c.011-.681,1.626-.963.808-1.761.189-.943,1.365.13,1.688-.734l.439.295c-.872.393-.331.808-.66,1.467.337.331,2.592.713,1.762,1.762-1.432.073-2.692-.688-4.037-1.029m8.364,56.351c-.368-.22-.88-.367-.951-.733.659.366,1.905-.734,1.832.074-.367.146-.587.512-.881.659m12.4-2.494c-.22.587-1.173.292-1.542.292.147-.22-.146-.439-.291-.659-1.175-.074-1.836.954-3.082.807-.221-.295-.586-.807-1.028-.587a1.183,1.183,0,0,1-1.32.587c0-.514.733-.661.586-1.321.808.074.147-1.541,1.176-.954.439-.147,0-.587.147-.807,1.613-.587,1.392,3.963,2.715.807.587,0,.953.074,1.172-.439a2.593,2.593,0,0,1,1.541.807c-1.1.88,1.468,1.54-.073,1.467m3.155-1.321c.115,1.6-.479.894-1.163.876a1.661,1.661,0,0,1-.6.224.811.811,0,0,1,.6-.224c.336-.189.635-.442.87-.583.073-.881-.661-.513.221-.954a2.176,2.176,0,0,0,1.172-.147c-.073.661-.953.22-1.1.807m3.742,2.2c-.292,0-.587-.292-.807,0,.22.074.587.147.294.442-.147.072-.954-.148-.808.439-.193-.317-.305-.411-.375-.389l-.066.082c-.11.284,0,1.157-.439.526.143-.16.288-.342.439-.526a.125.125,0,0,1,.066-.082,3.021,3.021,0,0,1,2.135-1.372c.074.292-.586.513-.439.88m.368-1.908c.336-.067.485.355.621.539.024.014.038.029.038.048a.433.433,0,0,1-.038-.048c-.156-.089-.751-.092-.621-.539m1.98-13.574a.845.845,0,0,0-.512.954c-.435.129-1.331-.645-1.029.368-.421-.2-.677-.051-.439.441a2.784,2.784,0,0,0-2.569-.588l-.44-.366c.24-.324,1.835-1,.8-1.3l-.431-.092c-1.56-.07-2.759.477-4.182-.66-.209,1.388-1.7-.216-1.909.294-1.949-.873-1.2,1.843-2.569,2.2l.295.586c-.3.24-.7-.135-.881-.366l-.292.807c-1.009-.505-1.489,2.446-2.127,2.716-.283.119-1.034-.007-.954.587a1.933,1.933,0,0,1-1.762-1.321c1.163-.06-.811-2.157-2.056-1.908l.191.276c.587.908-1.151-.787-1.145.6-.623.229-1.2-.5-1.834-.148.154,1.633-1.779.29-2.053.295.055-.772,1.686.323,1.32-.441-1.554.074-.639-1.763-1.98-1.688v-.294l.879-.513c-.437-.073-.692-.651-.807-1.028.175-.1.682-.343.877-.159-.089-.364.475-.608.3-1.016-.336,0-.9-.069-1.027-.438.814-.538-.459-1.5.294-1.762,0,.958.841,1.344,1.246,2.128.374.715.188,2.907,1.1,2.787-.229-1.072.305-2.252-.66-3.082.3-.26.651.011.807.295l.147-.955c.161.482.654,1.175,1.246,1.027.332.16.518-.148.513-.438.431.365,1.062.246,1.249.88,1.39.567,1.036-3.177,0-3.523l.586.074c.143.712.732,1.173,1.1,1.761a28.693,28.693,0,0,0-.734-2.861c.374.069.378-.345.295-.587-.405.249-.245-.961-.222-1.1-.227-.505-1.529-1.116-.512-1.615l-.734-.22c.583.079.651-.929,1.1.147.444-.506,2.43.506,2.128-.733a1.259,1.259,0,0,1-1.321.22c-.136-.7-1.325-.031-1.1-.954-.485-.477-1.384-.763-.881-1.614-1.417-.576-.2.781-.807,1.394a3.207,3.207,0,0,0-2.641-1.688c-.82-.038-.139.8-.589,1.1.714.643.41,1.6.589,2.421-.713.294-.834-.686-1.1-1.1l.073-.366c-.032.228.063.561.366.44.855-.337-1.018-1.64-.218-2.568l-.442-.514c-.189.453-.7,1.208-1.1.44.3-.779-.664-2.161.22-2.494.524.174.964.509,1.468.733l.072-.807c.061.451.132,1.018.587,1.247.142-.458.832-.651,1.247-.734.115.678.448.047.441.734.78-.866.914,1.523,2.128.586.191.039.536.235.072.294-.247.538.411.554.514,1.028a1.008,1.008,0,0,1,.513-.734c.285.459.99,1.647,1.541,1.761.618.127.608-.726.515-1.1.406.287,1.775,1.366,2.274.954-.47.435,2.826.09,3.155-.073l.026.183c.132.6.671-.379.78.036.721.078,1.762.149,2.056.954-.273.572,0-.241-.439-.073v.954a21.362,21.362,0,0,0-2.128-.734c-.5.7.937.395.146,1.1l-.586-.294c-.056.524-1,.3-1.394.368.275.39.958.442,1.394.439a3.632,3.632,0,0,0,.44,1.908c1.285-.436.792,1.9,1.246,2.5a1.378,1.378,0,0,1,1.1.366c.3,1.025,1.69,1.2,1.909,2.274-.007-2.07,1.341.027,2.054-.368.047-.3.27-.825.66-.586.015.1.262,1.428.513.881-.093-.43-.218-1.636.589-1.247.25.469,1.614.892.366,1.32l1.1.074c-.006-.57.855-.755,1.173-.368.792.969,1.11-.594,1.467.294.471.231,1.041.026,1.541.147-.85.652-2.138-.288-2.2,1.247M183.512,90.2a3.714,3.714,0,0,1-.954-1.173c-.514.513-1.321.513-1.1,1.54a.912.912,0,0,0,.295.588c1.393-1.247.074.513-.586.513-.809.22.439-.661-.734-.587-.442-1.393,1.173-1.247,1.246-2.421,1.246.659.955-.588,1.541-1.1-.808-.661,0-1.4-.733-1.834a.955.955,0,0,1,.807-1.029c1.1.294.513,2.5,2.126,1.321.588,0-.218.513-.439.44-.442,0-3.083-.221-1.687,1.1.513.439,1.832,1.173,1.466,2.128-.439.953-.733-.295-1.246.512m7.7,35.147c.012.927-1.344.551-1.832,1.027.355,1.745-1.512.229-.808,1.762-1.161.194.2,1.4-1.173,1.393.147,1.285-1.045.191-1.321-.146-.483.343-1.044.1-1.541-.074-.644-1.049,1.742-1,.955-1.688.714-.193.473-1.02,1.394-.881.209-.265.685-.618.954-.22,2.453-.734-1.848-1.325.66-1.834.564.256.369,1.556,1.32.806-.094.549.646.276.881.147-.765-.745.543-.1.587-.953.027-.51-.914-.734-.514-1.028,0,.968,1.892.756.439,1.688m16.07-9.98c-.22.366-.66.074-.953.366.072-.513.513-.513.733-.953.294,0,.22.367.22.586m2.128-2.348c-.954.366-.954.147-1.027-.66.439.148,1.393-.294,1.027.66m.734-4.7-.881.441c.145.139.418.576,0,.586-.68-.531.335-1.119.147-1.76.893-.129,1.172-2.1,2.054-1.614-.141,1.666-2.37,1.388-1.32,2.347m14.16,15.7c-.221-.653.611-.94,1.027-1.246.7.464.483,1.461.808,2.127-1.179.632-.812-.953-1.835-.881" transform="translate(0 0)" fill="#232323"/>
      <path id="Path_60" data-name="Path 60" d="M125.321,120.872c-.444-.032-.934-.068-1.464-.11.492.056.982.1,1.464.11" transform="translate(21.629 21.088)" fill="#232323"/>
      <path id="Path_61" data-name="Path 61" d="M123.138,120.471c-5.439-.934-10.675-.651-16.069-1.394.733.234,13.166,1.464,19.72,1.979-1.316-.15-2.624-.409-3.651-.585" transform="translate(18.697 20.794)" fill="#232323"/>
      <path id="Path_62" data-name="Path 62" d="M127.545,121.016l.222-.439a7.187,7.187,0,0,1-2.665.328c1.3.093,2.2.137,2.443.112" transform="translate(21.846 21.056)" fill="#232323"/>
      <path id="Path_63" data-name="Path 63" d="M140.973,125.124l.659-.586c-6.209-.8-12.308,1.014-18.491,1.172,1.536-.3,6.742-1.473,7.339-2.787-1.693-1.273-15.411.872-19.958-.734a4.293,4.293,0,0,1,2.054-.66,3.869,3.869,0,0,0-3.008.734c3.059,2.207,15.717-.187,20.4.88-.442.927-5.737,1.936-6.825,1.835.438-1.871-1.75-.28-2.053-.073l-.074-.44c-.572-.518-.745.577-.733.88l-.954-.953-.368.733c-1.081,2.131.116-.924-1.1-.733-.013.957-.164,2.6.734,3.229l.734-1.029c6.5-.585,12.968-1.834,19.518-1.761-.843.573.742.412.807.955,5.606.234,11.15-1.009,16.73-1.321-5.164-.4-10.26,1.384-15.409.66" transform="translate(19.134 21.204)" fill="#232323"/>
      <path id="Path_64" data-name="Path 64" d="M52.769,125.352c.168.011.335.029.5.046-.405-.1-.815-.17-1.226-.231.193.056.429.117.724.186" transform="translate(9.088 21.857)" fill="#232323"/>
      <path id="Path_65" data-name="Path 65" d="M82.89,122.323a32.535,32.535,0,0,0-4.036,1.1c-.953-.22-3.6,1.027-2.421-.66,1.32.294,1.1-1.247,1.98-1.54.295.512-.66.733.073,1.172.295,0,.588-.073.662-.366-.516-.513.294-1.173-.295-1.761-.88,0-1.1.44-1.32,1.173-.954.44-.147-1.393-.22-2.053-1.541-.734-.954,1.761-1.468,2.274-.806-.734-.439-2.2-1.762-2.568-.291-.368.148-.954-.439-.954.148,2.053,1.4,3.741,1.687,5.575a111.468,111.468,0,0,1-13.206.881c-1.32-.367-2.2-.953-3.668-.953-.294-.368.366-1.249-.22-1.175-.588.294-.442,1.614-.295,2.275.808.515.074,3.007,1.689,2.054.073.147.22.513-.074.513-2.112.136-4.287-.48-6.468-.688a12.608,12.608,0,0,1,2.286.761c6.162,1.321,12.106-1.247,18.49-.806a1.226,1.226,0,0,0,.294-.514c-3.3-.22-6.6-.806-9.686-1.32a125.578,125.578,0,0,0,16.729-1.4,11.139,11.139,0,0,0,1.688-1.027m-23.774,3.742c-.292-.368-.147-.954-.439-1.394a6.192,6.192,0,0,1,1.1.294,2.474,2.474,0,0,0-.661,1.1m7.559-.439a16.975,16.975,0,0,1,1.835.22c.294.367.953-.074,1.173.293-3.081.368-6.237,1.1-9.466,1.1-.659-4.4,4.33-1.322,6.458-1.613" transform="translate(9.271 20.63)" fill="#232323"/>
      <path id="Path_66" data-name="Path 66" d="M56.765,124.473c-.221-.074.073-.44-.221-.294-5.87,1.615-10.933-1.246-16.876.075v.292c4.526,1.469,9.712.119,14.538.841-2.309-.674,2.152-.577,2.558-.915m-13.722.148c.74-.237,1.541.066,2.275-.222.836.466,2.37.153,3.375.294a12.847,12.847,0,0,1-5.65-.072" transform="translate(6.927 21.635)" fill="#232323"/>
      <path id="Path_67" data-name="Path 67" d="M102.508,118.953c1.438,1.777-.734,7.284.808,6.531.411-.828.455-1.79.806-2.642l-.09-.207c-.318-.62-.269.829-.715.207.281-1.089-.221-2.339.074-3.082-.14-.338-.451-.857-.882-.807" transform="translate(17.901 20.771)" fill="#232323"/>
      <path id="Path_68" data-name="Path 68" d="M104.769,123.4c-.357-1.011.6-2.7-.368-3.449.117.623-.661,5,.587,4.33.364-.646,1.1-1.31.88-2.128-.539.211-.527,1.251-1.1,1.247" transform="translate(18.208 20.946)" fill="#232323"/>
    </g>
  </g>
</svg>
