<svg xmlns="http://www.w3.org/2000/svg" xmlns:xlink="http://www.w3.org/1999/xlink" width="1920" height="1197.052" viewBox="0 0 1920 1197.052">
  <defs>
    <clipPath id="clip-path">
      <rect id="Rectangle_9" data-name="Rectangle 9" width="1920" height="1197.052" fill="none"/>
    </clipPath>
  </defs>
  <g id="Group_61" data-name="Group 61" transform="translate(0)" opacity="0.07">
    <g id="Group_3" data-name="Group 3" transform="translate(0 0)" clip-path="url(#clip-path)">
      <path id="Path_55" data-name="Path 55" d="M53.747,125.934c-3.527.593,5.878,3.527,8.22,3.527-1.185-3.527-5.869-2.351-8.22-3.527" transform="translate(445.159 1058.45)" fill="#dcb584"/>
      <path id="Path_56" data-name="Path 56" d="M127.426,83.237a3.169,3.169,0,0,1-.348.79c.235-.047.367-.3.348-.79" transform="translate(1068.065 699.59)" fill="#dcb584"/>
      <path id="Path_57" data-name="Path 57" d="M127.187,83.239l-.075-.019.028.169c0-.038.056-.132.047-.15" transform="translate(1068.351 699.447)" fill="#dcb584"/>
      <path id="Path_58" data-name="Path 58" d="M94.272,1.755a18.326,18.326,0,0,0,3.442,1.27,9.752,9.752,0,0,0-3.442-1.27" transform="translate(792.338 14.75)" fill="#dcb584"/>
      <path id="Path_59" data-name="Path 59" d="M1915.789,951.88c3.762-6.762-9.452-8.22-2.342-12.922-11.145,1.11-20.07-5.6-29.38-10.58,2.163-3.075-5.135-5.408-7.044-5.878.847-2.765,11.465-1.749,7.044-4.693-2.634-1.768-7.6.32-9.979,1.749-9.489-12.245-33.18-13.43-47-20.559-13.364-6.866-8.37,7.12-13.514,13.524-9.622-.677-14.07-11.606-21.735-15.866-.771-5.981,7.326-5.69,11.154-5.295,4.213-8.925,18.706-5.549,18.81-17.625.019-3.113-.828-9.894-5.3-9.4-1.241-6.029-39.632-2.417-41.71-9.988-1.58,10.251-9.725-2.125-11.163-5.285-4.966,7.477-11.558-10.43-17.615-9.4-.339-.132-.988-.743-.988-.4l.988,2.154c-6.085-1.43,3.762,7.909-3.536,8.22-4.6-6.263-6.583-10.326-1.777-17.615,1.383.216,13.712,1.872,6.471,0-1.242-3.094-10.487-2.944-6.471-7.637,17.653,5.944,7.524-7.195,15.884-7.054-.564-5.154-8.981-3.564-12.339-3.527,4.919-5.981-7.947-7.148-11.154-6.461-5.605-4.138,3.687-1.871,5.286-4.693-.517-4.044-7.195-3.009-6.461-7.054l1.081-4.373c3.2-11.22,3.273,9.245,12.414,6.132l-6.461-8.22c.677-11.05-7.909.64-14.1-2.943-13.035,11.662-16.092-10.214-24.669,2.943-4.533-1.486-9.386-1.533-13.515-4.119-4.382,10.026-16.054-4.138-18.208,8.22-11.38-5.671-22.684,1.082-33.481,4.712.611,14.154-9.621,10.477-18.819,14.1-11.042,16.3-29.55,35.343-34.073,54.632-5.963,2.125-24.152-.037-21.725-7.044-4.985,1.589-10.214-6.8-12.339,1.759-8.887-6.649-19.731-5.351-29.954-3.527-2.446-8.493-23.23-4.054-12.349-16.449-8.125,6.743-6.809-8.323-12.922-8.22l1.166,1.815c3.367,5.746-7.373-3.141-7.044,1.712-6.282-9.706-1.975-16.506,8.812-18.8l1.956,1.58c2.643,2.125.809-1.317,2.153-4.524l5.878,1.759c3.64,5.492,4.176,13.336,1.759,19.393,5.925,2.708,21.782,14.361,18.218-1.768,5.586-4.025,21.819,6.5,26.437,0,1.1-18.2,15.358,8.333,22.9-6.452,3.4-6.612,6.546-12.847,2.361-19.985-14.117-5.558,4.74-12.828-6.452-21.142,1.1-4.5,5.671-5.511,9.395-7.053,8.634-14.38-4.6-24.462-5.887-38.183l3.527-.583.592-4.7c8.953-1.608,5.653-8.389,8.23-14.69,6.066-2.473,2.708,3.038,4.7,5.878,11.389,16.2,73.3,16.054,90.474,8.22,13.628-6.207,25.563,15.038,39.34-6.461-1.919-1.458-4.656-4.74-2.332-7.054,6.95-.668.216-3.038-1.768-3.518-4.693-6.4-15.1-5.605-18.8-12.931,1.147-7.044-8.841-6.753-8.8-14.1,6.884-4.279,14.2-11.116,22.91-7.637,1.232,3.593,8.709,3.282,11.746,2.944l2.351,4.693c-1.147,5.85.1,11.765-.583,17.625,8.6,4.9,18.857,4.984,28.187,7.637,2.238-3.969,8.013.047,10.58-4.11-2.793-2.718,6.367-7.411-.583-7.646-2.37-11.276-18.669-13.016-27.03-18.2-4.665-10.2,21.311-6.762,7.054-13.515-.809-7.815,6.791.8,9.979-2.944-3.019-3.828-8.869-6.057-9.979-11.164,2.135-3.461,6.8-5.389,10.571-6.461.132-5.333,7.044-14.615-5.878-11.737-.847-1.27-2.06-4.994,1.175-4.119,5.3,1.42.847.536-2.943-2.351l-4.675-.141c-13.693-1.034,9.3-8.709,4.675-16.308.085-8.991-14.239-6.038-19.384-10.58-7.627-1.091-48.7-12.913-48.171-19.967-15.96,3.687-29.578.273-45.228-2.351-5.793-.978-12.311,8.333-17.625,2.934a29.656,29.656,0,0,0-20.578,11.756c-4.129-1.665-16.618-12.273-16.43-1.185-5.05-1.881-5.68,2.906-4.721,6.461-4.138,3.715-3.969,11.634-8.793,14.107.734-19.741-49.9-8.248-59.335-9.988-7.167-6.753-10.242,6.978-17.625,6.461-7.458-7.439-3.517-16.045-1.185-24.669,2.963,1.561,4.392-3.329,4.7-5.295-4.242,2.191-7.806-8.718-14.1-8.22,3.141-7.2,20.3-5.878,14.1-14.69,5.915-5.652-5.267-6.555-4.11-11.747-1.025-1.73-1.693-5.483,1.758-4.7-3.028-1.5-2.3-7.6,0-9.4,14.352-11.22,2.332,22.139,25.854,19.383,4-17.418,12.471,10.373,17.615-7.637,2.765,4.129,6.452,1.081,5.878-2.944,6.019-7.618,9.734,7.571-1.157,11.756.809,3.32,2.9,9.254,7.035,9.4,1.853-3.79,3.442-8.728,7.636-10.571-.019,2.962,1.543,7.994,5.286,4.7l2.351,1.759c.442-13.618,12.311,2.013,18.81-1.176,6.311,11.474,20.568,18.292,33.491,16.449,2.671-4.458,8.784-5.022,6.451-11.747-10.9-4.9-4.561-24.753-16.449-25.854-2.53-5.963-11.869-18.988-1.759-23.493-.828-.339-29.851-34.121-33.481-38.193,11.2-4.336,23.625-1.11,35.24-2.925-2.473,7.3-7.486,13.11-7.636,21.142-.508,24.979,73.583,18.029,82.828,4.7,6.377-9.17-14.822-22.816-18.8-29.381,4.194-3.01,2.417-9.3,1.768-13.505-12.226-1.213-42.754,19.844-51.707,12.33,5.323-7.646-4.007-15.8-9.979-19.383-18.151,1.241-4.608-17.559-14.1-24.086-8.2,2.379-16.685,7.524-25.262,3.527-3.038,1.637-5.934,7.054-9.988,5.3-3.066-5.737-10.195.489-11.163-7.054,7.166-2.765-1.072-6.188-4.119-7.054.771-1.157,3.555-3.546,4.119-.583l2.351-5.295c-7.815,3.5-5.238-5.126-8.831-8.812,2.21-12.085,12.047-.743,18.809-2.351,15,11.389,34.648,13.533,52.874,14.1,6.687-4.561,20.249-1.627,17.625-14.1-2.587-12.4-16.656-10.185-23.494-18.208,2.182-5.953,9.1-7.994,11.154-14.107,7.853.038,10.2,7.176,19.976,6.47,26.371-1.89,31.4-18.132,5.3-25.854-13.8-4.082-3.621-11.06-8.822-19.393-12.123,8.1-22.685-5.455-34.657-1.759-7.4,2.295,2.4,8.126-2.351,8.229-2.474-2.163-3.865-5.69-4.7-8.812-5.69-2.069.122-7.9,1.176-11.154-7.693-6.057-21.622-24.1-22.92-24.1-4.674-5.257-1.138-12.461,1.759-17.625-4.307-5.981-11.568-4.279-16.44,0-2.765-.818-1.223-3.959,0-5.276-.508-15.584-15.405-3.752-17.624-14.107-7.383,6.79-17.766,9.424-27.613,8.8-2.577,1.251-5,4.251-2.944,7.054l-2.934,3.527-2.934-2.944,1.383-1.806c7.063-9.489-7.468,3.837-10.787-3.47-1.58-3.489-1.843-11.07.593-14.1-1.016-13.195-10.345,2.68-16.439-1.768-5.812,6.884-25.28-2.135-19.393,13.505,5.634-3.593,12.273,5.84,16.449-1.176,1.345,2.361,11.944,4.712,5.878,8.229-5.483,3.188-14.568,11.408-19.985,12.932-7.336-4.938,5.05-11.173,2.944-17.625-3.414-2.295-6.838,3.922-11.164,1.759-4.335-7.7,1.552-14.088-3.527-21.142-16.985,7.119-36.2,6.217-52.281,15.847-.5,4.768,1.627,9.358.583,14.107,1.27,2.577,4.806,7.768,8.229,5.285,5.483.489,10.167-8.747,15.264-5.285-3.931,6.508-12.442,12.687-19.966,14.1-2.191,6.3-7.844,2.38-12.33,3.527-4.326,5.577-6.536,12.452-9.4,18.8-5.85-5.925-27.575-22.327-35.842-22.327-1.853-3.433-7.458-8.455.592-8.812-8.492.545-15.677-5.267-24.085-5.285-1.11-8.624-13.045-6.188-14.1-12.339-.875-4.994,11.464-3.79,14.1-4.11,18.922,11.831,40.676,20.907,62.861,24.086,4.448-3.818,1.129-13.675-.583-18.8,8.2-.169-.959-6.282-3.546-7.044-4.608-1.373-12.02-.7-17.022-1.176-3.264-2.7-6.188-7.543-4.129-11.756-12.189,1.119-14.427-12.95-25.252-14.1.009-9.273,9.762-13.148,13.524-20.559-4.994-3.038-3.95-13.016-10-13.515,11.577-.752,20.211-.527,31.139-5.285,5.022-2.191,19.186-5.69,14.681-14.69-8.934-17.888-51.7-5.38-65.8-1.759-12.471,3.2-2.012-13.515-14.1-8.229,1.138-5.22-4.025-9.48-7.627-12.33l7.035-4.7c-1.815-19.637-22.139-7.355-3.517-31.732-11.568-6.828,10.928-14.8-5.878-17.625-1.148-18.048-29.982-14.427-29.371-34.074-11.051-6.16-17.164,10.2-25.845,11.756a35.327,35.327,0,0,0,.583,10.571c11.831,10.59,24.029,21.405,38.193,28.8-9.122,32.305-29.7-8.511-48.181-2.953-5.624-4.9,1.665-8.116,1.185-13.505-22.985-.132-3.705-9.461,4.693-10.571-2.671.179-9.282-.48-3.527-4.119-11.812-.122-15.085-21.349-27.613-18.208-11.032,2.765-7.035,21.264,2.934,22.91-3.837,14.671-23.587,1.26-2.342,38.183-7.195,8.38-25.9,8.681-25.863-4.7,5.126-5.963-5.295-14.465-8.219-19.966-6.48-12.189-24.227,14.5-26.437,0-5.521.771-11.859,7.853-14.69,12.339,8.878,14.474-11.559,9.659-13.506,12.33-2.323-15-10.157-28.214-13.515-42.886-1.627-7.1,40.742-13.007,47-24.086,8.812-3.978-.489-11.239,0-17.032-7.759-1.542-15.734-.969-23.484-2.351-7.026,6.527-12.471-4.176-19.393-2.351-3.4-8.314-14.916,8.182-17.615,10.571-7.374-6.668-19.43-8.615-28.807-5.869-8.606-6.1-26.578.169-36.416,1.176-6.752-9.066-6.386,7.74-20.568,1.759.677,7.458-7.025,5.126-4.119-1.759-8.539-7.261,5.361-5.887,3.546-15.283-2.4-12.311-13.007-10.016-21.161-15.857-9.386,3.348-13.534-8.793-22.327-8.812-2.154,1.872-4.919,5.135-4.1,8.229-1.213,2.267-4.025,4.439-6.471,2.351-6.63,4.2-14.878,4.176-22.308,5.878l-.075,4.27c-.856,11.888-10.232-5.756-17.559-1.335l6.451,5.276c-.592,5.784-4.5,10.279-7.044,15.283-5.173-8.022-16.186-8.22-21.734-16.458-3.884-5.756.809-5.662,5.286-4.693.517-1.354,1.646-6.734-1.759-5.286l-4.693-5.285c2.915-2.887,8.492-4.477,12.988-3.63-2.116-1.006-4.072-2.473-4.778-4.6,5.144-5.906-9.48-1.157-8.812-7.637-7.448,8.21-8.878-5.869-15.847-4.119-3.226,7.656-10.844,12.217-12.931,20.568-8.436,3.329-3.216,14.3-9.414,19.393.5,3.715,3.762,6.743,7.054,8.22-3.837,1.288-8.982,2.68-12.922,1.176-6.471,1.7-2.4,9.236-5.878,12.922-8.615-8.634-19.618-12.743-31.7-9.988-3.545-2.68-9.311-9.668-14.117-9.4-5.53.3-18.659,25.186-4.7,25.261,3.9,15.029,14.954,25.948,22.92,38.776l-8.229,3.527c-.978,3.376,5.7,7.336-.583,8.8-1.035-8.257-13.026-3.32-12.932-10.571,6.113-8.493-6.659-14.248-4.693-21.734l-6.47-2.934.6-2.944C754.635,71.45,747.13,53.073,730.85,58.9c6.941,18.292-18.584,1.674-24.669,9.4,8.21,9.762-13.637,6.847-15.875,13.505-3.32,9.884-13.261,17.606-14.69,27.029-1.862,2.022-8.492,7.721-7.627.593-12.452-11.342-24.133-25.873-41.72-28.8-27.4,44.268-7.063,36.745-7.044,74.618l-3.527-.592c-.047-7.467-16.769-12.725-8.812-19.976-2.2-.771-13.947-22.383-18.8-11.163l2.351,2.351c-2.605,6.724,9.931,9.725-.583,12.922-1.119-3.057-5.878-3.865-5.295-7.627-13.214-7.59-24.847-26.371-42.293-17.041-3.2,6.367-5.831,13.317-5.285,20.559-19.524,3.057-47.353-4.928-49.347,23.5,11.069,7.373,28.732,7.42,41.71,13.515,15.452,7.251-2.238,14.5,4.7,25.844l3.518.592c4.119-4.844,7.072-10.59,10.571-15.866,2.107,3.489-.649,9.17-2.342,12.339-4.984,2.662-.019,7.486-2.351,11.164-7.223-1.7-11.577-9.386-19.383-9.4-2.84-10.2-12.537-15.715-21.744-19.383-12.678,7.7-31.948,6.527-42.293,17.625-4.448,4.768,1.665,11.831-2.944,16.458,6.113,4.289,13.157,6.273,20.568,4.693,14.286,6.753-8.756,8.173-7.637,17.032-2.229,4.486-5.445,15.875,1.759,17.625,12.856-6.706,24.913,7.5,36.425.592,12.509,9.649,32.522-8.4,39.942,10.571,5.21,13.28-19.176,20.042-14.681,32.315,3.574,9.762,20.944-1.448,28.788,5.869,7.176,6.715-10.468,6.527-8.229,14.69,2.934.461,7.007,1.975,7.637,5.295h-1.759c-3.085-3.461-14.53,15.979-18.8,17.615-2.182-1.909-4.806-.517-5.878,1.768-7.5-4.834-16.618-1.11-24.669-4.119-7.637,4.637-20.615.282-19.976,13.515-2.107,2.53,6.207,5.831,1.185,6.461-10.185-9.734-6.555,9.518-16.458,7.054-5.577-1.383-22.778-6.442-22.91-2.934l-2.934-2.944c-5.9-1.072-29.456-.263-21.161,11.756-6.517,4.43-8.229-.169-14.088-2.361,2.257-6.076-14.483-7.956-5.878-12.922-20.709-3.959,4.4-15.772-2.351-27.02l-6.47,4.7c-5.013-1.768-12.819,3.113-16.44-2.351-7.326-.442-9.95,28.957-14.69,11.756,3.931-3.875,3.282-8.286,1.176-12.941-12.659-6.414-9.057,9.508-15.283,14.7,8.878-.433.028,8.239-2.342,9.988,8.859-16.374-13.43-6.518-19.383-11.747-2.774,2.069-10.007,4.354-4.119,8.21-.6,8.06,6.292,14.483,11.747,19.393a45.788,45.788,0,0,0-9.988,7.054c2.9,11.577,18.452,11.088,23.512,21.151-11.775,4.956,5.869,16.675-7.637,19.967l-1.768-5.878c-5.8-4.618-15.01-2.8-21.735-1.759-1.223.188-10.646,4.7-4.7,4.119l.592,4.693c5.558,2.549,8.1,9.95,14.681,10.571.1,6.922-10.646,2.991-9.988,9.988,7.637,8.634-5.107,9.235-7.637,15.273-4.985.2-2.125-7.712-2.934-10.571a9.819,9.819,0,0,0-11.747,1.759c-3.687-5.746-7.58-11.549-9.4-18.208-5.972,4.006-6.9,16.957-14.1,11.173.668-6.988-9.038-3.64-10.571-9.414-6.348-.132-13.609-14.756-18.81-3.517,5.38,17.248-34.553,27.076-9.4,49.338,18.857-.085.47,31.976,48.172,29.973,2.549,4.251,7.787-1.072,11.173,2.342,20.456-4.778,15.5,19.3,24.669,30.547,7.213,8.869,15.518,6.179,22.327,12.932.348,2.652,21.847,19.7,7.044,21.734-1.1,4.054-4.044,9.01,2.342,9.988-.9,7.608-8.022-.075-11.737.593-4.9.884-1.514,7.947-6.461,8.8-7.975,1.392-12.772-3.113-10.581-11.164-4.872-1.5-5.314-12.179-11.163-8.8-2.7-.705-1.27-3.536,0-4.7-4.834-1.806-6.9-10.176-12.33-12.339,3.113-6.63,9.254,4.326,10.571-1.759l1.759-11.164c-3.508,8.154-13.176,6.63-19.976,9.4l-3.517-4.11c-3.95-.63-3.442,5.342-2.944,7.627l7.054-2.934c4.618,5.521-5.859,7.364-7.637,11.164a11.874,11.874,0,0,1-11.747-1.768c-3.207,4.655-9.283,7-13.515,10.58-2.68-3.912-2.464-12.4-8.812-12.339,2.022,5.2-3.508,11.709-.593,15.866,3.141,1.072,1.082,4.091-.583,5.276-.771,9.847,5.483-.978,9.4,1.768,6.442,17.371-14.164,7.242-15.866,19.393-2.661.63-6.818,2.511-6.452,5.869-4.731-.028-9.151-3.263-12.348-6.461.7-8.436-5.953-4.289-9.969-8.22H221.5c2.916-5.84,11.408-3.31,15.264-8.229-1.382-5.4,4.947-10.693.592-16.449-3.132-4.147-35.249-18.951-41.118-20.568-18.49-5.06-42.82,14.577-58.159,22.919-9.217,5.013-39.331,3.188-37.017,11.747-6.207,6.424-7.975-6.536-14.1-5.286-1.834.376-6.489,7.232-1.768,9.4-3.5,3.583-4.806,9.414-9.988,11.164-4.778-2.615,3.358-4.928.593-7.637-4.317-4.223-14.888.724-19.966,1.185-.574,6.706,5.878,13.533,9.978,18.2,10.674,12.17-8.192,13.317-8.22,24.1-10.3.527-8.7,11.079-10.58,18.208,25.844,11.182,50.212,29.343,79.311,30.547-1.749,2.483-3.546,6.518-1.759,9.4-5.5.019-36.208.1-24.678,8.822-6.5,2.474,2.85,5.85,2.944,9.988-12.734-.621-20.474-17.314-29.381-24.678l2.351-3.527c-19.515-5.163-13.994,5.775-23.5,14.69-7.505,7.044-2.85-5.652-7.637-8.8-13.938-9.2-23.86-19.092-42.293-17.051,2.06,5.568-4.3,8.182-1.768,14.107,13.722,6.583,26.249,16.374,42.3,15.273-9.283,22.468,18.076,16.995,28.2,27.613-1.232,8.474-7.844.884-9.988-2.351-9,2.652,2.031,8.718-1.768,14.1.752,1.7,3.677,5.878,5.295,2.351,2.107,5.163,12.838,9.574,1.768,13.515-3.649-4.862-13.251,6.95-17.625,8.22-1.73,7.035.649,14.088,0,21.151-3.988,3.4-9.64,4.157-14.69,3.527,1.063,5.314-5.775,7.609-4.7,12.922-7.411,1.853-5.549-5.3-8.8-8.812-4.176,4.7-6.743,9.621-4.119,15.866a11.58,11.58,0,0,0,10.571,0c-.95,4.345,5.135,12.508,0,15.273-8.351-4.975-5.906,7.326-10.571,8.812,5.1-2.191,10.74,9.837,11.164-1.176l5.285,1.759c9.508-7.862,19.186,9.536,27.613-2.351-1.919-11.512,16.44.216,18.217-18.791.32-3.536,7.261,1.044,4.693-2.361l-3.527-4.11c3.32-9.913,7.007.386,11.163,2.351-1.044-8.944-4.486-16.214-11.163-22.317,3.2-1.881,3.536-7.3,3.527-10.581,9.847-.075,3.169,17.117,14.1,17.625,2.3,4.561,12.838,6.846,17.625,8.22,13.044,3.753.451,11.831,5.869,15.866,6.781,5.041,5.652,4.74-2.332,7.637,3.358,3.978,15.236,19.355,13.505,20.568,3.988,5.577-8.1,9.753-.583,14.681,9.264,6.085,24.895-2.492,31.713,10.58,4.364-10.637,13.628,4.815,21.161-.593-4.806-14.643,10.543-6.376,17.023-4.693,5.4-4.881,12.311.837,18.217-2.361,2.878,4.091.621,9.01,1.176,13.515,1.6-2.7,6.038-8.173,9.4-4.693l7.054-2.944,4.119,1.176L245,871.987c3.452-9.978,15.085-1.166,21.744-4.712,4.956,4.947,13.073,3.564,19.383,3.527,2.088,2.37,5.775,3.263,8.812,3.527l.583,2.944c3.79-6.1,9.1.348,13.515-3.536,1.608-10.195,14.258.235,15.866-9.4l11.737,4.119c-9.819,9.151,3.64,14.493,7.054,22.327-12.49-3.433-21.96-.818-24.669,12.922a30.457,30.457,0,0,0-10.571-5.868c-1.025-5.935-11.464-7.223-7.637-14.107-3.48-4.307-10.712-4.966-15.866-4.7-7.9,10.186-21.8-.536-29.381,8.229-4.571,5.295,2.577,8.577,2.351,12.922-.329,6.358-6.649,4.072-9.988,1.759-2.718,8.709-13.628,13.261-17.625,21.734-27.951-5.248-13.806,7.853-34.657,7.053-3.423-.131-7.392-5.614-9.4-2.934,6.734,1.157,1.665,6.7-1.176,8.812a21.725,21.725,0,0,1-7.063-7.054c1.5.536,12.96,4.242,5.887-1.176,1.787-11.2-11.643-14.954-19.393-18.8-11.135,6.715-17.239-7.515-28.2-5.869-3.959,5.361-8.088,14.07-15.856,14.1-5.822,6.555-11.888,26.305-14.117,25.844.564,7.59-3.386,14.041-9.969,17.625,4.872,5.972,18.255,4.27,15.847,15.273,1.919,1.505,8.079,4.938,8.239,0,6.913-1.514-1.618,6.612,1.749,8.229l4.119-1.176c4.721,17.54,9.678,1.834,17.041,2.351,9.762,7.157,13.054,4.42,23.493,7.637-3.546,13.806,21.02.893,10.58,14.1,3.2,11.239,48.585,20.107,32.315,1.176,5.069,1.693,10.458.085,14.681-2.944l2.934,7.054c4.053,1.787,2.549-8.323,7.637-8.812l2.351,4.7c2.737-5.408-6.4-9.038-2.934-14.1,5.793,1.552,12.085-.4,17.625,2.351-3.781,18.782-29.926,44.231-.593,47,13.129-8,16.3-25.666,31.139-31.722,5.6-7.411,15.612-9.217,22.327-15.274,4.89,2.144,5.887,7.073,4.11,11.747-14.681,9.2-14.972,30.773-27.612,42.294,3.978,5.172,3.423,12.066,6.461,17.624,5.229,1.195,12.941,2.342,15.866-3.517,19.007-4.336,49.375-35.644,68.147-15.866-3.743,13.938,3.132,11.615,9.988,19.383.715-3.433,2.981-8.154,7.054-8.22-.094-14.85,47.7-5.031,56.984-21.151,9.724,1.881,1.42-11.888,9.4-12.932l1.759,9.414c-5.379,2.784-4.627,11.079-10.571,13.505-.536,3.884.207,9.724,4.11,11.746-.574,6.066-12.621,12.132-5.285,17.625,3.734-.395,8.041,4.514,11.163.593,6.367-8.013,9.386-15.311,18.208-21.744,4.778,5.6,5.981-11.474,15.866-5.869.273,8.069,9.9,1.872,12.932-.592,5.173.348,6.357,5.756,5.276,9.988.969-1.5,4.242-4.392,4.7-.583,15.687.865-10.073,36.829,6.47,49.347h7.637c-2.154-6.142,7.834-5.37,2.934-10.571,5.173-2,2.379-10.59,8.22-12.339,8.794,6.546,11.587-6.574,17.615-9.4,1.59-12.828,34.5-20.954,45.256-18.81,5.126-11.681,16.948.32,27.6-7.044-1.731-7.514,10.562-4.279,9.4-11.756-4.016-3.123,5.144-5.107,1.759-9.4,1.712-3.273,16.035-23.268,16.44-11.164,8.464,5.436,19.628.724,24.1-7.637-4.646-14.85,14.954-5.765,19.976-14.088,4.3,6.706-10.129,4.129,2.934,19.966,6.423-8.925,19.957-17.117,15.866-29.964,9.593-7.232,11.173-22.327,23.5-26.437-.2-25.91,60,38.945,68.147,44.645,1.025,4.768,2.643,11.681,8.21,12.932,18.772,42.1,11.577,89.44,1.185,132.768-5.408,22.543-11.286-7.261-18.217-9.988-18.922-7.421-5.605,29.333-2.944,34.657-42.613,12.169-48.312-24.641-61.677-19.383-.64,6.245,2.718,8.417,3.527,13.515,1.194,7.618-3.63-2.671-4.11-4.11l-6.461-1.768c5.737,10.872,12.518,26.258,24.678,31.139-1.862-2.144-12.819-32.475-12.339-33.481,8.841,9.471,19.3,17.371,29.954,24.669l1.166-2.351c7.514,5.361,70.226,15.405,77.561,11.756-3.649-8.539-17-2.295-21.142-10.58,2.765-1.9,10.289-3.781,11.145,1.175,11.991,1.185,10.27-11.361,16.458-17.625,26.286,16.477,64.225,12.536,93.982,18.8-14.643,4.5-29.71.038-44.635,1.176l1.185,3.526c22.75.621,53.118,7.928,71.664-9.4-1.947-7.232-5.831,3.856-9.988,2.352-4.646,2.012-13.035,5.125-15.866-1.176-21.2-3.621-42.858-3.79-64.037-7.636l4.129-6.461c22.092.564,43.394-5.859,65.194-8.22v-2.36c-7.082-2.154-14.634-.762-21.734-2.934,4.392-12.941,22.289-8.032,17.625-24.669,5.173-3.292,5.06,6.875,10.571,5.276-14.634-26.7-22.1-48.51-29.954-77.533-1.166-4.27.828-8.887-.583-12.339,7.693-14.953-1.072-45.284,23.484-46.413,18.988-15.273,55.987-11.944,79.32-11.163,21.631.733,44.842-6.386,65.8-2.944,4.053.677,6.358,9.019,10,2.351,4.834,1.326,10.308-1.853,14.681-3.517,1.975,5.323,5.859,1.984,7.636-1.176.583,3.48,4.806,9.339,1.167,12.339.62,5.107-14.832,14.512-19.976,17.042s-6.254-4.251-9.386-6.471c-11.06.715-.677-15.988-10-16.449-7.863,17.738-3.583,34.328-7.637,51.7-1.759,7.59-13.674,8.916-11.163,18.791,15.847,3.414,25.646-5.85,38.183-13.505,1.157-5.229,10.11-1.937,9.4-8.812,3.715-1.985,4.176,2.229,3.518,4.7,3.8,5.013,9.95,8.21,15.866,9.988,3.245,4.9,15.123-1.166,20.559.574,8.972-5.107,18.8-8.944,27.03-15.264-.075,7.242,10.853,4.919,12.922,11.163,6.188-.451,13.928,2.605,19.985,4.1,15.226,3.818-1.185,16.214,4.1,24.688,3.762.583,7.9,2.577,11.746,1.758,18.612-3.931,6.189-20.258,10.59-24.669,7.928,2.972,3.3-2.078,7.044-5.878,3.753.611,3.875-3.414,2.935-5.878,5.558,2.294,6.753-9.875,11.756-2.342,2.822-.207,6.885-1.768,6.47-5.3,5.3-1.608,12.085-3.687,17.023,0-1.279,3.376-16.054,2.906-21.151,16.458,5.5,3.583,13.684-1.533,17.634,5.276,4.787.132,4.458-2.784,7.044-5.878,4.176,4.044,15.631-14.371,15.274-15.264h5.878c1.843-14.812,12.847-13.308,9.4-3.527,9.8,3.123,19.8,2.389,29.964,2.351,1.486-3.988,7.044-4.439,7.053-9.4,5.116,1.514,9.847-9.047,13.515-3.527,11.144-6.038-.536,16.44-1.185,19.393,9.442,3.141,8.784,16.026,18.226,18.791.612,7.863,9.5,11.8,11.145,19.393,6.574,4.646,13.007,11.474,21.754,7.646,7.825-12.3,24.528-7.524,34.073-17.051,5.492,4.42,12.113,4.213,18.791,4.7,6.874-4.082,26.578-3.63,27.6-14.088,1.213-12.273,5.333-2.831,13.515-1.185,2.7-2.314,4.27-8.238,8.821-7.044-1.768,2.013,25.017,14.794,7.054,11.164-4.063,3.931-11.8,4.016-11.756,11.154,4.335,3.8,12.63,7.919,17.615,2.944,7.515,7.7,7.091-6.884,12.941-8.822,10.148-3.339,37.412-1.025,42.876-10.562,2.37-4.119,3.555-12.913-1.758-15.282,14.822-1.458-.273-7.345-4.7-8.8,3.5-7.091-13.1-1.214-14.7-7.646l2.954-1.175c.31.075,14.474,2.84,8.812-.593,4.844-2.671,9.3,2.746,14.088.593,18.489-8.3,20.6,19.9,48.181,2.944,6.979-4.3-4.937-3.075-.593-7.646l-3.517.592c3.338-5.8,3.188-16.609,4.11-17.625l2.934.583c1.053,6.358,4.505,6.339,9.414,3.536l1.063-2.257c.959-3.151-4.806,1.364-5.192,1.665l-1.175-6.461,4.712,1.759c1.617-1.74,5.285-7.468,0-7.044,4.034.066,2.906-5.934,7.044-5.285-2.859,7.505,6.141-2.972,7.054,4.693,4.147-.47,5.981,4.044,9.978,3.527,1.571.837,4.843,3.47,2.351,5.285l4.242,1.4,2.8,1.044c8.5,3.47-13.807-.207-5.568,6.79l2.643,1.919c-.649.508-5.812,5.53-1.768,5.295,3.226-1.4,7.448,1.072,9.988,2.934,10.138-3.573,23-4.006,31.129,4.119-.827-11.088,9.828-5.925,3.527,1.176l5.878,2.351c2.407-4.448,8.125-2.52,12.329-5.887,3.781,5.493,10.863-.621,15.876,2.36-3.452-4.617,9.01-1.947,10.571-6.47,7.486,2.6,1.589,8.238-2.342,10.59,6.583,3.047,10.091,5.436,17.615,4.1,1.7,4.214,6.546,2.069,9.4.593-13.59-5.793,5.9-5.361,4.11-12.932l1.956,1.3c4.768,3.019-1.711-3.705-.78-7.749,2.078-9.01,10.778-.075,9.979-7.646,6.687-3.517,5.013,5.916,10.58,5.295,6.536-8.916,6.489,6.066,13.515-.583,4.326,2.022,9.367-4.129,15.264,0,2.163-4.966,8.765-3.837,12.932-5.878l-2.342-4.119c1.223-7.044-7.514-6.527-8.229-11.746-1.646-1.9-5.248-4.684-7.636-2.351-5.352-4.082-16.487.611-18.81-7.637,5.069.254-.988-5.9,5.3-4.7,4.063.78,10.5,10.261,14.088,7.054-5.991-9.226-17.906-9.01-23.493-17.042,3.7-.019,7.561-.592,11.163.593l5.276-7.646c3.339-.009,7.881.649,9.988,3.527,3.367-1.975,17.634,8.53,11.164-2.342,6.254-.536,12.048,2.3,18.208,2.342,2.379-1.533,37.205-.63,21.151-13.505M1526.882,390.244c.583,4.7,3.527,7.054,7.044,10.571-6.461,1.175-8.794,3.527-15.264,0,5.878-2.934-1.175-9.4,8.22-10.571m-43.469,141.58c3.517-6.461,14.68-1.759,12.329,2.934-4.693-4.693-14.088,2.944-12.329-2.934M148.655,775.625c-2.351.593-4.119-.583-5.286-2.342,1.759-4.7-4.7-7.637-7.646-9.4-.583-2.944,8.229-13.515-.583-8.229-4.11-4.7-12.33-9.4-12.33-15.273,5.869-1.759,6.452,2.351,8.812,5.869-1.777,6.471,8.22.593,9.978,5.878,1.176-.583,0-1.759.593-3.518,2.934,6.461,9.988,8.8,18.208,10.571,1.768,8.22-9.988,7.637-11.747,16.44M166.279,620.54c-5.737-1.561-12.16,1.232-14.1,7.053v-1.176l-2.934,1.759c1.655,1.335,3.311,4.082,1.166,5.869-4.166-1.843-7.524,3.207-8.812,6.471,7.176,5.869-6.7,7.27-2.351,14.681-4.5.038-7.138,4.627-11.737,4.11v-2.934c-11.182-9.386-26.155-12.254-37.61-21.142,16.289,1.759,27.669,17.4,45.237,11.154,4.3-6.47-9.866-37.817,10.571-23.5-1.589-4.721-4.834-10-9.4-12.33,4.693-3.113,12.791,12.461,15.65,4.054.762-2.22.235-1.514.8-4.054,2.323-10.543,18.885-1.4,25.252-8.822.781-4.42,5.633-10.232,0-13.505,11.276,6.188,24.255-1.411,35.851,3.517-4.787,17.634-25.2-7.025-33.491,13.515-2.643,6.574-11.8,7.806-14.1,15.283m42.876,236.173c-2.342-1.185-5.878-4.119-5.878-6.471,2.944-1.759,5.878,1.176,9.414,0-.6,1.759-1.185,5.286-3.536,6.471m20.568-61.1c-3.489,2.934-6.583,7.627-11.747,7.054-.987,4.411-.818,9.057,1.759,12.913l-7.044,1.768c-2.53-2.549-.734-6.6-5.295-7.044l-1.759,4.693c-1.345-2.267-4.411-5.173-7.054-2.934a87.186,87.186,0,0,0-9.4-7.637c4.6-3.047,15.085-3.217,17.625-8.229-1.872-3.753-7.289-2.718-9.988-.583-1.956,10.947-7.514-15.311-10.571-4.7H183.9v5.285c-10.157-2.492-6.677-17.69.593-15.856,3.2,3.743,8.718,2.191,12.33,5.286,4.721-2.662,7.242-11.634,13.515-5.878,5.238-2.37,3.433-11.051,9.4-11.164,3.094-.047,27.923.912,26.437,5.878-10.7,1.148-1.2,22.374-16.449,21.151m-3.527-65.2c-1.759-.592-12.33,2.342-8.812-4.119-3.517-5.285,8.229-1.185,8.812,4.119m19.383-41.72c-4.693,2.351-2.934,8.229-4.693,11.747-5.285-2.342-14.107,7.637-11.164-2.342,7.044-2.361,8.812-11.747,15.273-11.164-8.229-.583-17.625,2.925-24.669,4.693a5.124,5.124,0,0,0-.508.254,4.429,4.429,0,0,1-2.069,2.709c-.856,3.941,2.154,9.819-4.477,9.377,4.11,4.11-1.768,4.7-4.119,5.878-15.264,5.276-1.759-7.646-2.934-11.747,1.777-6.64,7.872-1.627,11.53-3.508a3.771,3.771,0,0,1,2.069-2.709,10.539,10.539,0,0,0,.508-2.022c-5.295-8.22,15.273-1.759,4.11-8.8-5.878-.593,8.22-2.351,8.812,1.768-.592,0-.592.583-1.176.583,2.934,2.944,22.318-5.878,13.505,5.286m45.247-24.678c-7.5.038-8.953,20.521-17.042,8.229-8.652,4.176-4.251-8.549-4.7-12.339,7.072-1.448,13.8-6.32,21.151-2.934,8.54-4.618-13.534-5.859-11.163-11.173,12.33-2.238,16.712,15.659,29.381,12.349,6.79,13.11-14.568,2.332-17.625,5.869m31.139-76.367c-5.295-2.351-17.634.583-14.69-7.054,0-5.286,14.1-6.461,5.878-1.176,2.925,4.11,10.571,1.176,8.812,8.229m-10,438.264c-1.166.574-2.342,1.166-3.517.574-.583-4.11,4.11-8.21,2.934-11.746,7.637,2.944-1.176,6.47.583,11.173m-11.747-50.532c-.545-3.753,4.552-3.913,7.054-3.517,4.533-19.675,10.5-4.044-2.351-29.954.245.357,18.32,8.812,9.978,17.023,2.144,18.4,6.649,16.543-14.681,16.449m498.765,170.368h2.944c-.583,8.229,12.922,12.922,7.053,20.568.583,2.935,1.759,6.461,4.693,7.637,1.176-.592,2.934-.592,3.518.583-3.518,2.944-9.979,1.176-14.681-.583-6.461-8.229-8.822-18.8-3.527-28.2m-8.8,41.127c5.286-2.943,15.857-4.7,21.151,1.176-7.054.593-14.107-.583-21.151-1.176m19.976-6.461c6.452-1.759,11.747,1.759,12.913,7.637-4.1-.583-10.571-2.944-12.913-7.637m137.461-51.115c-.583,3.536,5.286,6.47,2.361,8.219a9.1,9.1,0,0,1-2.361-8.219m-8.812-32.889c1.176,10.571,8.229,19.966,8.229,31.13-1.759-1.758-7.054-6.461-1.759-8.812-1.758-3.518-8.812-8.812-4.7-12.923-1.176-2.943-2.351-8.22-1.768-9.4m536.384-431.21c2.925-1.185,11.154,3.517,3.517,5.276-2.934,6.47,8.22,4.119-1.185,7.054-5.276-1.176-2.915-8.812-2.332-12.33m-12.217-73.132c.235.329.837,1.091,2.219,2.624,0,2.934-4.1,11.164,4.12,9.4-5.3,2.351-8.22,11.154-11.756,1.759-14.7-1.759,0-8.229,3.536-10.571,3.367-.339,2.3-2.567,1.881-3.216-.188-.263-.141-.216,0,0m-13.637-159.515c-.583-6.471,5.286,0,7.637-4.7,4.937,1.091,4.75,6.282,4.223,11.267a1.431,1.431,0,0,1-.066,1.693.566.566,0,0,1-.546.508,4.07,4.07,0,0,1-.677.63c0-.517.348-.574.677-.63a4.872,4.872,0,0,0,.546-.508,1.04,1.04,0,0,0-.038-.621c.038-.357.066-.715.1-1.072-1.091-1.872-5.756-3.357-6.574-5.389-2.342,1.166-1.176,4.693-6.461,3.517-2.944-4.11-8.229-11.747,1.176-4.693M1421.134,444.3c11.652,3.433,3.132,10.289-2.934,6.452-1.627-3.216-.338-5.38,2.934-6.452m-7.044,24.076c3.753,1.2,11.276,6.386,10.581-1.759,2.8,1.016,6.564,2.878,7.636,5.868-10.5,8.6-24.781-3.762-25.261-11.164,2.2,3.809,11.1.245,7.045,7.054m-9.4,125.131c.6,1.768-1.167,4.11-1.167,5.878,0,1.176,2.944.593,1.167,2.342,0,2.361-.583,4.119-2.351,5.3-2.351-5.3-2.351-11.756-8.22-15.866,4.11-2.944,7.627,3.517,10.571,2.342m-97.509-287.279c4.091,2.351,12.32,2.944,12.32,5.285-5.869,2.944-21.142,5.878-12.32-5.285m-15.866,49.939c-2.36-1.759-5.3-7.044-.592-9.4,5.286,2.934,1.166,5.878.592,9.4m.574-12.922c-6.452,1.759-18.189,3.517-22.318-1.176,4.129-3.527,14.681-.583,22.318,1.176m-25.252,267.3-1.759-6.461h-2.36l-2.333,4.693c-1.316-3.856-3.442-8.916,0-12.33,6.16,1.542,9.65-9.471,13.515-.592-4.185,5.351,4.194,9.621-7.063,14.69m7.637,2.934c-2.342,2.351-1.759,6.461-2.342,8.229-1.778,1.166-2.361-1.176-3.527-1.768.583-2.934,2.935-7.044,5.869-6.461m-32.9-346.6c5.878,4.693,15.857,4.11,22.91,8.22,0,1.166-2.342,2.944-.593,4.11,5.878,2.351,5.878-4.693,10.007-4.11-6.471,5.869,4.091,17.625-9.414,16.449,1.768-2.351,4.119-5.295,2.351-8.229-14.1-1.176-26.437,5.878-38.776,1.768,0-9.4,9.988-10.571,13.515-18.208M1197.9,198.725c2.342,1.176,2.934,2.944,5.285,4.7-1.768,2.934-2.351,7.054-4.119,9.4-2.342-3.527-5.295-8.822-1.166-14.107m9.969,63.454c5.3,9.4,0,9.4-2.934,18.791-5.869,4.7-7.035-5.869-12.913-4.7,7.044-1.166,13.505-7.044,15.847-14.088m-49.921-79.32c2.483,2.633,10.881,9.8,10.562,1.185-.263-6.913-11.474-9.678-4.693-17.625,6.282,3.8,7.025,12.894,14.107,15.856,3.827,7.317-8.54,2.756-10.007,5.878-2.013,4.317,8.887.367,11.765,2.351-2.662,2.643-5.831,6.188-6.471,9.979-17.935,3.875-9.423-19.27-15.857-5.869-5.934-4.571-18.226-1.194-25.261-1.176,5.746-9.2,18.142-4.674,25.854-10.58m20.559,219.132c-3.527-1.175-7.044,7.637-8.822,1.176,3.527-1.759,5.295-7.627,10-5.869-4.119,0-2.934,4.693-1.176,4.693M1155.6,340.9c5.869-2.944,12.913-1.166,17.615-4.7,1.176,1.759-4.7,5.3,1.176,6.471,0,2.934-6.47,2.934-9.979,2.934-2.36-.593-4.711-4.11-8.812-4.7m2.934,111.616s-7.044-4.7,0-7.627c4.693,1.759,1.166,5.285,0,7.627M1120.35,695.731c-4.7,1.768-5.869,7.054-8.229,8.229,1.768-4.11-2.944-11.747,4.7-11.747,2.934,0,4.11.583,3.527,3.517m-11.173-413.585c-4.2.715-9.922-3.3-12.33,2.361,3.856,2.577,8.521,2.756,12.932,1.749-1.9.545-9.631,3.79-4.129,5.887-6.96,13.063,15.48,5.022,7.646,9.979,4.787,2.784,5.314,3.687,4.693,9.4-5.944-1.759-5.615,5.925-9.386,8.239,7.279,5.4.009,8.417-.583,14.672-7.3,3.734,2.671,9.188-2.944,12.339-10.947-1.618-22.111,2.981-32.907,0,2.925-9.8,13.562-15.226,14.7-25.835l-5.878-.592c.771-3.988,8.6-12.65,0-13.515-10.721,30.34-34.741,53.052-55.817,76.367,3.038-21.17,14.634-39.8,21.142-59.918,7.44-.771,13.252-8.248,21.161-6.461,7.27-10.345,21.885-14.474,24.077-28.2,3.263-3.762,10.543-10.5,10-15.866,2.361.79,19.242,7.43,7.627,9.4m-4.1,427.1c-2.351.592,1.759-7.637-3.527-7.054-4.119,6.471-6.461-7.637-7.637,2.351-3.536-3.517-9.4-2.351-12.339-7.044-4.7,1.175-4.1,13.515-8.822,10.571-1.156-5.878,5.295-5.878,4.119-12.922,4.7,2.944,5.878-4.7,8.239-.593,0-7.627,8.21-2.342,10.571-7.627,2.925,9.4,19.966,2.351,14.1,15.857,1.176,4.119-2.351,5.286-4.7,6.461m-41.71,122.2c1.759.593,5.286,1.176,5.286,4.119,1.157,2.934-2.925,6.461-5.286,4.11,2.361-2.934-4.11-6.461,0-8.229m-17.051,37.017c-29.813,33.265-21.405-9.16-33.471,5.868-2.088,2.6-2.85,8.239-7.054,8.229-7.138-6-35.174,12.207-48.172,4.7-8.511-4.919-20.587,4.185-27.612,8.22,2.962,5.8-4.467,9.123-8.229,11.747-4.2-1.354,7.007-5.549.593-9.386,7.025-3.743-.386-12.01,9.4-14.107-4-11.182,14.013-6.922,9.978-15.866,1.834-4.213,8.191-3.254,11.756-4.693,9.631,5.9-4.241-6.593-7.063-7.646,4.937-1.928,13.458-3.132,14.7-9.4l2.934-1.175c-5.624-4.364-13.195-4.843-19.966-5.878,9.113,1.185,18-7.825,24.678-7.044,4.279.5,6.019,6.386,8.21,9.4,7.373,10.1,13.637-6.95,17.634,5.878l5.276-4.11c-1.241-2.3-5.229-4.016-3.517-7.053,6.132.527,11.22-1.223,14.681-6.461l1.778,5.285c-3.283,1.589-8.794,3.038-10,7.054-4.683,15.772-23.531,6.555-28.2,21.735,13.74,30.65,60.652-2.577,78.728-17.032-1.984-4.881,3.612-11.8,8.22-7.053-1.1,4.3,3.461,10.674-1.749,13.515-3.838-1.721-4.439,7.627-7.063,1.166-1.448,5.333-10.646,7.082-6.471,14.107m-29.954,39.951c-2.944-1.185-6.461-5.878-5.295-10,1.185,2.944,11.747,7.054,5.295,10m-88.114,216.772c-2.351,5.286-5.295,3.527-5.295-1.166,2.351-3.536,2.944,0,5.295,1.166m-6.47-142.163c0-1.176.593-10.59,2.351-2.934-1.759.574-1.759,1.759-2.351,2.934m2.351,109.265c4.693,3.527,4.693,10,5.878,14.107-2.934-2.36-8.229-8.812-5.878-14.107M925.9,1044.7c.583-2.342,1.759-5.286,2.351-8.22-.593,2.935-1.768,5.878-2.351,8.22m2.925,88.132c2.351,0,4.119,5.276,2.944,5.869-2.351-.592-3.518-2.934-2.944-5.869m1.185-106.35a29.347,29.347,0,0,0,2.351-7.627,29.347,29.347,0,0,1-2.351,7.627M907.679,451.93c2.351-4.119-3.527-5.285-4.7-8.812-1.749,1.185-3.517,9.988-4.693,3.527.583-4.7,5.869-4.7,9.4-4.7,2.031,4.054,3.64,8.963,8.192,9.866a3.608,3.608,0,0,1,2.389.122,8.188,8.188,0,0,1-2.389-.122c-3.705,1.081-3.376,9.254-9.367,7.759,5.295-1.759-5.276-7.054,1.175-7.637m-8.22,17.042c-3.536,4.1-5.285-2.944-5.878-3.527,4.11-1.768,16.449-.583,5.878,3.527m4.1,84.587c4.7,1.768,2.944-7.044,7.637-2.342-7.637,17.625-14.088,35.832-18.2,54.632-9.988-22.91-8.239-49.347-4.119-74.608,1.759,10.571,15.866,9.4,14.681,22.318m10.581,25.854c5.878.583,12.339-1.176,17.625,1.176-5.869,0-4.693,11.154,1.768,5.285-10.58,11.164,10.571,7.637,2.351,19.383,5.859,12.348-2.351,21.744-5.878,33.49-9.386-4.11-3.527,7.637-8.812,9.988a66.974,66.974,0,0,0-4.119,9.4c-6.461-6.461-2.934-18.8-8.812-24.678-1.166-20.559-1.758-37.008,5.878-54.049m17.625-213.846c2.351-4.693,15.273-7.054,8.22-15.866,0-5.276-1.759-13.505-6.452-18.208,0-4.11-5.286-7.054-2.36-11.154,4.11,5.869,12.349,11.154,21.142,8.8,1.184,19.985-2.333,46.422-8.211,66.981-4.119,1.759-7.637,4.693-11.164,6.461-2.351-13.515-.583-26.437-1.175-37.017M963.5,189.922c4.693.583,11.746-4.119,18.2-3.536-4.7,3.536-18.791,12.339-21.735,7.054-10.571,1.759,1.176-3.517,3.536-3.517m4.1-25.271c-4.091,2.944,1.778,11.812-7.054,7.637-2.125-3.16,6.414-7.806,7.054-7.637m45.247,155.1c10.016,1.759,25.985-22.017,18.207,0-9.17,25.91-16.759,52.883-24.678,79.3-7.3-11.164-20.606-18.5-23.5-32.305-10.477-2.972-1.919-11.276,1.176-16.449,8.229-13.722,7.11-34.384,28.8-30.547m-.593-33.5a9.843,9.843,0,0,0,4.261-.47c6.518-4.072,4.693-23.832,12.18-8.342,1.777,2.361,6.47-.583,7.053,4.119-2.934,5.878-5.878-1.759-10.571,0-3.367.837-5.549,3.179-8.662,4.223a4.959,4.959,0,0,1-4.261.47m17.616,119.262c-7.016-3.828-7.016,7.891-14.088,2.934,1.354-12.555,14.916-8.991,14.088-2.934m-3.508-7.637c4.984.019,2.887-11.8,11.154-9.988-.141,7.1-4.928,8.662-11.154,9.988m-28.2,174.487c-5.888.583-1.185-2.351-1.778-5.3-2.944-1.759-5.878-4.693-8.22-5.868,4.693-6.461,15.264,2.934,14.681-8.229-5.285-7.627,7.646-2.351,10-7.627-14.107-2.944,8.8-8.812,1.758,0,3.527,1.759,10.571-1.175,13.505,1.759-7.063,4.693-22.91,1.759-24.086,13.515,4.11,9.4-2.351,4.693-5.859,11.747m-19.995,84.6c-5.737,3.818-11.728-8.436-17.032,1.768-6.753,4.063-5.568-7.636-11.747-5.3-3.273-3.245-8.775-2.031-12.339,0-.743,1.514-8.107,12.809-4.11,4.712,7.345-14.878,9.978-35.4,28.2-19.976,7.834,1,19.515-6.264,23.5,4.119,5.671-1.091,6.894,4.27,11.163,6.452,1.919,3.762,5.972,9.16,3.517,13.515-4-.292-25.816,6.771-19.976-2.944Zm0-320.77c-1.956,8.822-8.389,18.433-12.518,25.826a10.574,10.574,0,0,1-2.154,4.138c.574-1.27,1.336-2.68,2.154-4.138,3.047-10.656-5.436-27.866,12.518-25.826m-4.11-36.425c4.11-1.176,8.813-.583,12.339-2.342-8.8,4.11-11.747,13.515-18.208,18.791-3.536-7.637,2.944-11.154,5.868-16.449m35.249,230.3c6.471-4.552,22.515-3.028,10,5.869-4.1.009-8.747-1.514-10-5.869M978.168,170.529c7.636-7.044,14.69-1.759,24.678-2.351-4.11,1.185-16.449,2.351-24.678,2.351m-7.035-19.393c3.517-2.934,7.035,1.176,7.627,4.119-3.518,1.176-8.22,1.176-7.627-4.119M959.368,504.8c-4.1,4.693-5.286-2.351-9.386-2.934.583-1.176-1.759-6.461,2.333-7.054,8.822-3.527,2.953,7.637,7.053,9.988m106.359,306.672c-2.125,3.884-9.207-7.458-14.107-5.3-1.194-3.367,3.677-2.351,5.286-1.759.715-5.323,5.746-10.12,0-14.69-3.969.047-8.088,1.523-11.756,2.934,3.96-4.6,9.9-7,14.7-10.571,1.128,3.8,11.126,5.483,8.8,9.988,15.941,14.493-4.975,12.264-2.925,19.393m14.681-185.058c-3.649-4.975-19.552-5.671-14.681-15.283l10.562,1.768c-.611-7.27,1.7-14.06,4.7-20.559,3.442,1.4,14.192-3.8,14.1,2.342-3.6.95-6.527,4.486-8.22,7.637l1.759,7.054c2.286-3.254,6.725-3.273,9.085-5.2.385-.592.79-1.166,1.213-1.73a5.817,5.817,0,0,0,.273-3.057l-1.778-.169c-3.075-.329.6-1.354,1.778-2.765-.545,2.793.555,3.771,2.06,3.574a9.464,9.464,0,0,1,3.226-1.815,5.849,5.849,0,0,1-3.226,1.815,14.165,14.165,0,0,0-2.333,2.417,3.912,3.912,0,0,1-1.213,1.73c-2.031,3.122-3.8,6.518-7.336,8.135l-2.925-1.176c-1.467,3.16,14.878,13.138-7.044,15.283M1074.53,373.2c7.044-1.759,14.1-2.934,17.023-8.8,2.36,0,2.944.592,3.536,2.351-4.712,5.285-14.1,5.868-20.559,6.452m19.383-15.847,3.517,2.332c-6.235,4.307-15.49-.893-21.142,4.712v2.351c-6.9-3.715-15.114,7.806-20.568,0,2.68-6.612,8.887-11.276,13.515-16.449,12.179,1.053,24.274-1.213,36.416-.6-3.01,3.376-7.665,5.878-11.737,7.655M1082.75,449c-10.957.047-10.486,11.1-21.151,2.351-3.48-.085-2.426,5.06-1.749,7.044,5.37,3.122-12.358,6.038-8.229-.583,5.088-8.192,23.305-17.916,31.13-8.812M1100.967,261c0,5.285,5.869-1.768,5.285,4.11-9.988-7.637-3.527,11.154-12.339-.592,9.979-2.342-1.768-10.571,1.176-11.747-2.351-1.166-1.768-4.7.593-4.7,6.461,1.768,12.922,8.822,5.286,12.932m-7.054-74.618h.282a.769.769,0,0,1,.894,0h-.894c-.348.254-.508.818-.875,1.185,1.768,2.934,8.822,1.166,5.878,5.869-7.646,1.759-2.351,9.4-7.646,13.515-8.8,2.351-11.145-1.759-18.8-4.7,4.119,2.944-4.693,3.527-3.517,5.295-2.342-2.351-8.22-7.063-12.33-2.351,0-1.185-1.185-1.768-1.778-2.944-1.157,0-1.749,1.176-2.342,1.759,5.295,4.7,0,4.119-4.119,4.119-3.518-1.176,1.185-2.351.592-4.119-2.944-4.693-1.759-11.747,1.768-14.088-1.175,5.869,7.054,3.517,8.822,4.693,7.627-8.812,29.371,1.176,34.064-8.229M947.621,88.867c7.646-1.176,7.646,11.164,15.875,7.054,2.342-4.7,6.452-9.988,7.044-14.107,5.869,0,14.69,4.119,18.208-4.1,2.361,1.166,5.878,3.517,8.229.583,0-5.295-1.759-8.229,1.185-14.107,1.74,2.361,5.267,1.768,4.091,5.878,12.931,20.568,39.961,0,57.6,1.176-2.944,2.351-6.471,7.054-7.063,11.163,8.812-2.944,0,12.922,9.988,10.58,2.953.583,4.119-3.527,7.035-3.527-5.859,9.988,1.185,21.151,2.361,31.722-14.088,7.054-20.55-18.8-29.954-2.351,0,2.934,1.175,12.922-4.7,7.637-1.166-2.944-.593-6.47-.593-9.4,3.536,2.351,4.7-3.517,5.878-5.285-2.925-2.342-1.759-5.286-4.11-9.4-8.822,2.934-15.283-10-25.271-6.461-3.517-6.461-11.163-4.7-16.44-8.229-5.3,2.944-.593,12.922-7.054,14.107-10,2.934-26.428,6.461-33.481-5.295-4.128,0-11.164-.583-8.822-7.637m-12.339,83.421c5.3-2.342,12.941-5.286,18.217,0,.583,1.176-1.184,0-1.184,1.176,5.3,1.176.592,5.295-1.157,6.471-7.054-.592-18.8,4.693-22.91-4.119,8.22,6.461.574-9.4,7.035-3.527m-46.4-125.723c-1.175,0-1.758,5.295.593,5.878,2.934-.583,0,.592-.593,1.176,5.888,4.7,11.164,5.285,18.217,1.759,1.768-2.934,4.1-8.812,7.044-5.286-5.878,9.4,5.878,17.625,8.812,23.5-5.286-3.527-18.208-3.527-19.976-10.58-8.21,0-17.624-12.33-27.6-17.615-23.5-15.273,8.793,1.166,13.505,1.166M871.856,200.484c-3.489-3.508-7.383-8.145-12.932-7.044,4.326-3.047,10.016-5.079,10.571-11.164,3.771,2.511,10.044,6.057,14.671,4.11,5.342,8.05,11.719.63,17.06,7.054l-1.185,5.285c2.521.517,6.095,1.147,9.01.545.329-.781,1.025-1.317,2.746-1.129a6.99,6.99,0,0,1-2.746,1.129c-.856,2.031.969,5.859-4.307,4.157-3.48,5.775-13.552.818-12.339,10.571-6.461-1.345-12.4-11.737-18.791-3.517,4.241,5.38,20.013,2.361,17.022,12.913,9.536-2.953,5.615,6.311,2.944,10.58-7.42-.649-14.38-6.884-21.725-2.351,5.445-4.646-2.935-8.3-7.609-8.577-.8.216-1.589.4-2.313.63.649,2.125,1.185,6.217-2.436,2.662-.019-1.608,1.044-2.238,2.436-2.662l-.075-.282a4.406,4.406,0,0,1,2.389-.348c1.9-.5,3.724-1.27,4.063-3.753,1.373-9.913-11.446-.4-12.32-22.327,5.455.019,10.4,4.721,15.866,3.517M850.7,376.147c19.261,4.89,7.072-24.3,14.681-29.964,33.829,33.857,26.343,1.637,32.907-13.515l2.351,1.185c14.013,23.851,17.841,36.81,21.735,64.028-8.257,2.793,2.5,16.3,9.988,11.747-3.978.875,2.191,5.605-2.944,5.878-1.937-5.032-10.43-6.781-14.671-9.4-1.157,6.95-9.866,7.072-15.283,6.461-5-8.7-17.22-11.145-26.447-10.58l2.934-2.342c-2.755-3.677-2.05-17.672-5.69-16.458l-8.4,18.217c-3.668.715-14.963,1.721-11.747-5.286-3.075-6.311.536-18.264-9.414-19.383-.085-4.909-13.082-10.975-5.878-14.69,1.016,6.47,9.875,12.584,15.875,14.1M848.927,670.47c-7.392-1.185-12.96-12.349-21.142-8.22-11.257-8.032-21.575-17.314-32.907-25.261-.376-5.756,23.907-20.437,22.318-30.547,4.373-2.615,14.173-8.587,15.866-13.515,1.552-4.43-9.941-9.235-2.934-14.107-13.167-6.574-.987-16.223-10-29.362l-2.709-.028c-5.032-.536,3.565-4.825,4.486-5.257,5.455-2.624,1.213,6.79,4.7,8.8l-1.175,4.7c11.022,7.938,28.591,90.615,24.678,101.055,7.486.762-3.047,7.383-1.185,11.737m9.4,278.467c-2.963-7.157-2.906-15.161-5.878-22.327,3.1-8.624,4.533,4.119,4.712,6.471-.216.263,1.345,13.186,1.166,15.857m0,64.037c-8.22-21.735-17.634-42.877-27.02-64.621-1.185-8.812,10.562-7.637,14.1-13.505h4.7c8.812,27.01,8.812,54.04,8.22,78.126m-2.342,66.981c-1.185-9.988,0-22.919-3.536-32.907,2.351,0,4.11,1.759,5.878,2.351,1.768,11.746,4.1,24.678,0,37.6-1.166-2.944,2.342-5.878-2.342-7.044m0,14.089c-.593,3.536-1.185,7.053-1.768,10.581.583-3.527,1.176-7.044,1.768-10.581m-8.239-88.706c7.054,10,2.944,24.678,8.239,35.249,1.175,2.944-1.768,2.351-1.768,4.11-1.768-14.681-7.646-25.262-6.471-39.36m-.593,48.181c-3.339-3.348-2.445-10.938-3.875-17.135a32.085,32.085,0,0,0-1.411-4.016,15.4,15.4,0,0,1,1.411,4.016c1.74,5.784,2.464,12.386,3.875,17.135M812.5,664.009c5.558,4.928,12.358,8.248,17.625,13.515-1.937,6.894-23.305-5.568-17.625-13.515m16.449,260.842c.593,2.944-2.934,1.759-2.342,3.527-10,2.351,5.286-17.625,2.342-3.527M804.283,681.633c2.934-4.693,11.154-3.527,5.285,2.351-5.878,1.176-4.693,7.054-11.747,5.869-2.351-9.4,10.571,3.527,6.461-8.22m1.759-110.441a5.029,5.029,0,0,1,1.542,1.006c4.684,2.6,12.518,3.339,7.27,10.157-.6-1.176,1.176-4.119-1.759-4.119-4.11-.583-1.759,8.812-7.054,3.527.508-2.577,4.176-6.931,1.542-9.565a9.7,9.7,0,0,1-1.542-1.006m22.91-31.139c-2.765-3.809,1.674-7.223,1.176-11.173,8.69,7.618,19.966,8.013,30.547,11.173-12.847,15.866-13.656,37.873-27.02,3.527,1.016-3.019-2.586-3.781-4.7-3.527m1.777-78.135c-1.27,1.5-9.6,8.389-1.185,6.461l-2.361,2.934c-3.828-11.718-10.486,7.138-17.615-1.176,7.947,1.383-.734-11.662-1.175-12.33,5.022-4.59,7.853,4.646,12.339,5.285,2.427-4.016,19.3-12.292,10-1.176m17.615,121.021c-10.261-11.8,11.3-11.5,16.129-22.59.226-1.9.517-3.771.9-5.605a11.791,11.791,0,0,1-.9,5.605c-3.16,26.6,8.869,58.582,5.022,85.443-21.151-13.505-12.33-40.535-21.151-62.852M827.785,269.223a23.412,23.412,0,0,0,5.869-2.342c-3.894,5.85,7.947,1.956,9.988,7.054-10.778-2.577-18.894,10.082-27.613,3.508,17.493-1.881-2.878-17.371,11.756-8.22m-8.812,18.8c1.806,10.073-14.756,11.775-21.151,14.681-5.276-1.89-2.906-9.038-8.812-9.979,4.646-15.3,14.935,4.853,16.449,3.527,4.4-3.847,5.662-9.79,13.515-8.229M797.229,373.2c0,4.712-11.747,2.944-15.866,1.185-1.759-2.944.593-5.286,2.361-7.637,5.285-1.759,5.878,11.163,13.505,6.452M787.241,131.17c1.768-2.351,4.128,0,5.285,0,.583,8.22-8.8,1.176-11.164,7.044-1.759-2.342,2.361-7.044,5.878-7.044m1.768,7.627,1.759,8.229c-3.151,7.938-7.985,5.238-13.515,1.176,3.7-3.687,9.64-4.091,11.756-9.4m-8.681,37.582c3.122.075,6.076-.79,3.978-4.674.423-8.436,7.919,5.013,11.164-1.759l-7.044-8.822,5.267-1.759c-9.386-1.627,3.555-7.778-1.749-11.163,5.426,3.705,8.8,18.847,17.624,14.69a27.55,27.55,0,0,1,0,11.164l-6.461,2.934c4.909,6.677-15.565,3.931-17.625,3.527a11.962,11.962,0,0,0-5.154-4.138,20.532,20.532,0,0,1-4.242-.564,7.168,7.168,0,0,1,4.242.564m-10.7-37.582c-1.185,5.286-.592,10.58-3.527,14.107,2.342-4.7-7.053-6.461-3.536-11.756-11.164,3.527-17.625-12.913-26.428-2.934,0-4.11-4.7-7.637,0-10.571,4.7,5.878,13.515,0,16.44,7.637,6.47,1.166,9.988,4.7,17.051,3.517m-37.61-43.469c3.536,8.812,36.425,15.283,10.59,24.086,1.749-8.22-6.471-2.934-8.822-6.461,2.351-6.461-5.286-12.922-1.768-17.625m12.922,169.192c2.944-2.934-2.332-4.693,2.944-7.044,5.878-3.527,7.646,7.637,10.571-2.351,2.934,0,8.812-2.934,12.339,0,2.934-2.934,2.351-13.515,8.812-9.4-.593-1.768-2.351-2.351-1.749-4.7,1.749,0,2.333.583,2.333,2.351,7.054,1.166,12.339-9.4,21.744-7.054.583,3.527-3.517,2.351-4.7,3.527-10.571,0-9.988,11.756-19.374,14.1-4.129,5.285,10.571,8.229,1.749,14.681-1.749,4.7,8.822,13.515,1.176,16.458-7.054-3.527-9.988-13.515-14.681-17.032V265.7c-4.11-5.276-18.217-7.637-12.932,3.527-16.449,4.712,21.744,9.4,4.11,22.327-7.627,1.176-1.749-11.747-10.571-12.339-7.044-5.878,4.11-7.637-4.7-9.988-4.11,1.768-10.571.593-16.44,1.176,1.759-1.768-2.944-10.571,1.759-3.517,7.054,2.934,12.339-5.878,17.615-2.361m-21.744,68.147c-9.207,2.314-15.339-7-20.559-12.913,7.223-1.232,9.583-9.48,14.107-14.107-.085,10.383,17.822-.583,27.612,2.351-11.888,8.53-28.957,1.42-21.161,24.669M698.535,165.244c-8.182-1.636-9.5-9.621-12.922-15.866,6.207,5.831,13.044-8.126,17.023-12.339,4.129-4.326-3.818-9.123,1.778-13.515,3.057,5.643-.263,12.1,4.693,17.041,2.615-1.589,7.336-5.229,5.878-8.812l5.286,9.4c-4.477,9.48,8.511,16.167,5.295,25.854l1.345,1.721c5.6,7.251-4.665-3.4-8.982-.545-7.74,5.116-6.4,15.085-10.581,22.327l-5.295,2.351c-3.207-6.4,10.1-11.464.583-15.283-4.355,3.7-15.226,9.518-9.377,16.449,4.731,1.082-.141,7.58,3.508,9.4,9.245-8.182,9.1-1.815,3.536,1.176-2.191,11.116,17.286,3.47,6.781,8.925l-3.263,1.646c-1.11,4.26-1.749,6.894,0,11.164a24.922,24.922,0,0,0,0,10.58s-7.731-10.12-4.11-7.054a63.351,63.351,0,0,1-1.176-17.625c-5.577-2.191-13.091-.47-15.283-7.637,14.371-10.731-5.427-29.155,15.283-39.359M685.02,585.874c-2.351,0-5.878-4.693-9.978-5.285,1.166-9.4-15.866-4.11-5.878-12.922,6.452-.593,13.505-2.934,18.791,2.351-2.342,4.11-5.286,11.163-2.935,15.856m-6.461-458.823c1.759.593,0,1.768,0,2.934-3.517-2.342-9.988,5.295-11.747-1.749,0-8.822,8.229-2.361,11.747-1.185M665.637,453.689c11.944,12.659-8.869,5.812-1.185,15.866,3.254.263,7.448,1.317,9.414,4.11-1.467,2.784-4.336,4.966-7.054,6.461,3.433,5.445,10.891.16,12.33,6.471,3.489,15.095-1.806-1.241-11.747,4.11l-4.1,1.759c4.044-2.934-2.267-8.3-4.712-9.988L658,479.543h4.11l-24.6-20.578-.066.019-7.646-6.471,7.712,6.452c4.58-1.279,9.537-2.21,11.681-7.035l-1.382-7.58c5.9,25.308,9.574.6,17.831,9.339M629.212,206.954c5.878,2.351,11.737-9.4,9.4,2.351-6.471,2.342,3.517,0,1.759,3.527,0,6.461,3.517,9.4,4.119,14.088a31.957,31.957,0,0,0-19.985-5.286c-2.934-3.527,2.944-10.562,4.7-14.681M570.46,169.946c2.944-1.176,10.58,1.166,9.4-4.7,6.461-2.944,9.4,4.7,15.264,3.527,14.107,11.163-13.5-1.768-11.737,11.163-5.878,2.925-6.461-8.229-13.515-3.536-.583-1.759-1.759-5.285.583-6.452M576.931,302.7c7.834-1.063,15.96-5.511,19.383-12.913-12.847-14.841,38.795,3.4,47,1.759,5.69,2.6-.075,4.909,0,8.812.085,4.091,17.352,17.07,3.517,19.976l-5.878.592c-5.37-6.574,1.646-13.468-10.562-14.7-11.953-1.194-18.96-12.49-32.9-6.461-5.963,2.586-1.815,17.135-9.988,8.229-7.214,1.091-12.179-6.377-19.383-5.295.113-3.254,6.423.339,8.812,0m49.93,86.364c-4.11,6.47-7.637-7.054-14.1-8.229-2.934,3.433-1.825-.038-2.718-.959-.273-.066-.517-.15-.809-.207a.745.745,0,0,1,.809.207c2.455.611,4.242,1.5,7.411.959,0-4.693,4.119-5.276,8.229-3.517-1.759,4.11,2.944,8.229,1.176,11.747M593.963,561.2c-6.461,1.759-9.4-11.747-16.449-4.11-4.693-.593-1.759-5.3-2.351-7.637,1.768,1.166,4.7,1.166,7.044,0,0-1.768,1.768-2.351,0-3.536,4.119,1.768,7.054,7.054,11.756,7.054,4.11-2.934-1.759-5.286.593-9.4,5.286,6.461-3.536,11.164-.593,17.625m0-126.89c-4.7.574-8.22-2.944-10.571-5.3,3.527-4.1,5.868,2.36,9.4,3.536-.592.583.583,1.175,1.166,1.768M573.987,824.4c0-3.527-5.868-7.646-1.749-11.164,3.517,2.934,8.8,8.229,10.571,8.812a4.469,4.469,0,0,1-2.944-1.176c-4.7,4.119,1.768,5.286-5.878,3.527m-5.295-431.8c-2.332,4.7,1.768,9.4.6,13.515-3.527-2.944-7.054-4.7-10.59-7.054,4.712,0,4.129-10.571,9.988-6.461M551.679,674.589c-1.777,8.812,4.674,17.625-3.546,24.669-9.988-1.166,2.361-11.747-5.869-14.1,2.351-4.11,6.461-7.054,9.414-10.571M460.6,476.025c-2.351,2.925-2.934,5.869-6.461,9.4-8.22,1.759-2.944-8.229-7.637-9.988,4.11,2.351,10.571-1.768,14.1.593M408.322,715.114c0-7.044,7.044,7.054,14.1,4.119,1.759,2.935,8.812,5.3,5.295,10.581-7.646-5.878-15.283,5.869-23.5.592,1.759-5.878-3.527-13.524,4.11-15.292m-4.11-347.188c4.11,1.759,7.054,2.342,9.4,6.461-.592,7.627-5.285,1.176-8.812,0-1.176-1.768-3.527-4.7-.583-6.461m-.592,15.856a23.036,23.036,0,0,1,5.878,4.7c-2.944,2.934,0,9.4-5.878,9.988,4.119-5.878-5.286-8.229,0-14.69m-.592,462.349c-2.633,15.434-19.412,9.471-29.954,11.747,2.549-5.925-9.828-8.972-4.119-10.571,10.477,5.793,23.446,2.173,34.074-1.176m-46.4-334.877c-7.054,5.295-16.458,2.361-23.5-.574-.583-3.527-4.7-7.054-1.176-9.4,2.934,2.342,8.812,2.342,11.747,0,2.934-5.878,2.361-11.173,8.229-14.107,0-2.351-2.351-9.4,2.944-10.571,7.044,0,0,10.571,7.627,9.988a14.141,14.141,0,0,0,.31-8.267,7.93,7.93,0,0,1-2.652-5.257,13.761,13.761,0,0,1,2.652,5.257c5.276,4.834,16.364,4.129,14.972,12.96,2.351,1.768,6.461-1.176,8.8,1.176-4.11.593-8.8.593-10.571,5.285-1.759-7.044-8.812,1.768-14.1.593,1.768,3.527,4.11,8.22,4.11,12.913,17.625,6.471-5.285,4.119-3.527,13.524-13.505-.593,6.461-14.1-5.869-13.524M353.1,811.476c13.3,7.3,7.627-10.092,14.681-2.944-4.336,2.145-4.289,4.693,0,7.044-5.22,1.166-10.5-1.11-14.681-4.1m12.339,76.95c4.5-.79,13.251-1.072,8.812,6.47,2.2,7.562-19.252-4.618-8.812-6.47m49.93,121.03c-4.627.818-8.869,2.85-7.044,8.22-2.295-9.4-19.12,2.756-19.383,5.286-4.289-.433.188-4.956-5.295-5.286-2.464-.15-7.317.207-7.054-3.517.489-6.856,14.756-.047,10.58-9.414,4.759-2.342.386-8.549,3.527-11.747,5.417,16.468,14.436-8.2,19.976,9.4,1.016,3.264,7.195,2.276,4.693,7.054M414.2,829.684c-4.7,1.176.583,6.461-4.119,6.461-3.527-9.4,11.756-9.4,12.339-3.527,5.295,11.173.583,4.119-5.295,1.759,1.768-1.759-1.759-3.517-2.925-4.693m13.515,168.609c-2.361-2.361-10.59-15.866-2.361-4.7,1.768-1.176,6.461,0,5.878,3.526-1.176.593-2.944,0-3.517,1.176m7.627-61.686c1.768-4.119,7.054-14.107,9.988-5.3-2.934,1.768-5.869,5.878-9.988,5.3m42.9-333.109c-6.508,2.85-14.154.64-20.568,4.11-5.408-.621-10.5,2.144-15.866,0,.451-3.518-.48-8.653-5.286-5.878-3.32,10.261-7.862-3.1-12.339-4.693a8.023,8.023,0,0,1,4.7-5.295c-4.166,8.972,5.323,3.217,2.934-7.044-6.339-5.332-3.611,9.433-10.571,1.176,4.533-1.74-.922-5.9-2.934-7.054-4.195,1.561,2.483-3.8,2.934-4.1l-2.934-8.229c.893-3.809,5.605,1.364,7.044-2.351.611,3.743,2.793,10.467,7.646,9.988,2.624-4.138-4.919-7.524-.592-11.163,2.125,1.58,6.668,3.254,6.461-1.176,3.508,2.116,9.236,3.1,9.988-2.351-4.383-.978-.31-6.649-4.119-8.22l2.351-10.58c5.173,3.536,26.785-4.834,17.625,8.229-3.508-2-6.941,3.292-8.22,5.878,2.793,5.925-9.969,10.26-2.944,13.515l5.285,1.759c1.542-5.68,1.787-11.258,5.878-15.857,6.423,16.383,27.735,10.185,41.127,13.505-8.276,14.681,13.383,13.8,16.449,24.076-9.659,5.878-28.186-10.552-25.844,8.822-4.956-5.558-14.86-3.188-18.208,2.934m23.493,68.74c-1.176,5.286-4.7.592-6.461-1.175-2.944-10.571,14.107-9.4,13.505-3.527-3.517,2.934-1.759,4.119-7.044,4.7m7.044,99.287c-3.555-6.5,6.179-6.649,8.229-2.944,9.4,2.5,18.781,5.295,27.613,9.4-8.737-.611-3.47,13.289-13.505,7.044,19.995-4.928-18.9-7.242-22.336-13.505m35.842,162.139c-3.527,1.768-19.393,15.273-11.747,2.944,5.869-2.361,7.637-9.405,10.571-14.107-6.461-7.044,4.693-3.517,4.11.593-1.759,2.944-7.044,8.822-2.934,10.571m2.934-186.234c1.768-5.868-7.637-12.922,2.944-15.264,5.859-1.176,7.044,8.812,10.571,11.154-8.22,1.768-4.119,6.461-13.515,4.11m21.142,160.982c-1.176.583-2.332.583-2.925,1.759-2.351-2.944-2.351-6.461-2.351-9.988,1.166,2.934,7.637,3.527,5.276,8.229M562.833,843.2c3.527-2.351-2.944-5.878,3.527-5.295,6.461,3.527,12.922-1.759,18.2,4.119-8.8,1.768-15.866-6.461-21.725,1.176m35.24,190.927c-6.452-.592-5.869,16.449-11.154,5.286-9.4-5.286,7.044-4.11,7.637-11.164,4.7-.583,4.1,2.935,3.517,5.878m-8.812-75.2c5.869-11.154-1.176,8.229,8.229,5.878-.592,1.759-.592,3.527-1.176,4.7-3.517-2.944-4.693-10.58-7.054-10.58m45.83-331.331c-1.035,7.148-4.787,13.214-7.044,19.966-11.4,4.834-17.512-20.126-29.39-11.756l2.351,7.063c-5.05.555-8.963-3.894-13.505-5.295,7.383-13.975-13.618-3.762-14.1-15.857,9.621-3.207,19.308-7.007,27.6-12.932,5.624,3.555,23.446,10.148,29.381,5.295,6.734,6.235,14.888-1.5,21.151,5.869,12.838,1.514,18.321-8.878,28.205,4.11,1.956,2.605,23.757-.79,11.737,8.229-3.79,2.85-21.819-8.831-31.722-12.339-2.869,1.335-3.207,4.966-2.342,7.646-7.449-3.734-14.624-.583-22.327,0m24.669,378.327c-1.759.593-2.944,0-3.517-1.175-.592-1.167.574-1.167,1.176-2.342-7.054-1.176-1.176-2.944.583-5.286,7.054-1.768,1.759,6.461,1.759,8.8m8.229-8.8c-2.934,3.527.583-3.526-2.351-3.526-7.053,0-7.637-5.295-11.747-9.4,8.8-2.934,28.779-1.759,14.1,12.931M700.3,839.079c2.643-11.54-20.155-6.038-25.261-3.517l2.342-8.229c10.477-2.934,23.023-4.533,28.8,7.044Zm6.461,27.612c6.461.583,18.8-2.351,25.252,2.944-8.822,3.517-17.032-1.768-25.252-2.944m24.669-3.517c1.185-2.944,3.527-1.185,6.461-1.768,0,4.11-4.693,4.7-6.461,1.768m21.142-226.186c-4.693,5.3-4.693,4.119-10.571,5.3-2.925-3.536-3.517-4.119-1.166-8.239-3.527-6.452-13.515-1.759-15.273-9.386,5.869,6.452,10.571-10,12.33.574.592,1.768,2.351.592,3.527,1.185-2.934-5.295,1.768-2.361,4.119,0,4.11-3.536,6.461,6.452,8.22-1.185,2.351,0,5.285,3.527,7.044,0-2.351-6.452-8.8-1.759-11.154-4.11,4.693.592,12.339-1.176,19.976-.583,1.749-13.505,17.615,3.517,17.615-12.932-3.517-2.351-8.812,2.361-12.33-1.166-1.185-3.527-.6-9.4,2.342-12.932,6.471,3.527,15.857,3.527,21.734-2.342,3.527,0,6.471,4.11,9.405.574,2.351,8.822-7.646,11.173-6.461,20.568-6.461,2.351-7.054,18.8-14.107,8.229-5.276,2.934-3.518,12.33-12.913,8.22-2.361,4.7-7.646-1.759-7.646,4.7-7.044-4.11-7.637,10.571-14.69,3.527m70.5,371.292c.6.583,1.176,1.176,2.361,2.342,1.175,9.4-11.756-12.913-2.361-2.342M769.626,955.99c-2.859-3.743-12.9-6.179-7.637-12.339.988-9.292,13.533-1.279,11.737-12.339,3.743-.95,10.11.423,11.173-4.7-4.6-.433-4.6-4.843,0-5.276l3.527,5.868c1.486-1.618,4.185-2.6,5.869-.592-7.411,1.119,1.27,3.762,2.934,4.119,3.433-1.307,9.555-1.749,9.4,3.517-6.5,1.646-6.226,12.932-7.637,18.217,6.884.922,12.189,11.342,19.985,5.285,14.145,11.107,12.339,33.453,22.318,47.588-25.158-14.5-43.281-40.262-71.665-49.347m75.784,225.6c-7.712-5.944-11.925-14.8-14.1-24.1,4.232-6.63,3.264-29.587,12.33-42.293,0,16.985-6.809,34.384-7.637,51.689,5.173,8.192,12.4-45.086,15.866-52.29-1.711,17.521-3.367,35.183-7.637,52.29,6.771,3.3,5.408,9.894,1.175,14.7m12.339-18.809c-13.515,12.339,2.351-8.812-5.878-9.4,1.768-13.524,3.527-29.964,8.8-41.71h2.361c-4.7,11.154,1.759,29.371-8.229,36.416-5.286,7.053,6.461,8.229,2.944,14.69m4.11-246.161c-.592-1.759,5.869-.583,2.934,2.36-.6,3.517-2.934-1.175-2.934-2.36m3.517,161.565a113.928,113.928,0,0,0-2.342-28.788c4.693,7.636,2.944,17.634,2.342,28.788m10-95.76a22.475,22.475,0,0,1-.273-2.793c-.583-6.076-1.251-13.421.273-19.534,1.533,5.634-.5,13.054-.273,19.534.094.941.188,1.928.273,2.793m1.176-23.5c-1.138-8.3-4.684-17.06-1.176-25.261,5.05,2.605,2.3,20.474,1.176,25.261m-.6-88.706,7.637.583c-.856,8.37-4.665,48.943-8.21,53.466-4.072-9.866-.912-20.879-2.944-31.139,7.392-1.571-3.32-4.373,2.944-7.053-1.044-4.308-6.856-5.1-10-2.342-4.2,3.705,3.536,5.981,3.536,8.812v23.493c-5.972-1.984-4.985-10.684-11.747-11.164.837-4.562-3.32-15.377,3.508-16.449,0-7.233-.273-10.834-6.452-15.274,5.972-2.718,11.107,3.762,17.634,1.759-3.188-6.894-12.48-7.834-17.051-13.505-.687-.15-14.2-3.094-9.471-4.3l3.592-.395,5.295,1.166c4.477-3.113-4.571-5.107-2.351-8.812,1.543,1.947,7.515,8.22,9.4,3.527-19.477-14.69,24.114-13.919,8.229-37.017-3.2.752-7.966,1.26-10.571-1.166,2.248-6.687,8.9-9.4,12.932-14.69,5.126,1.1.79,9.471,8.21,7.637,3.668,3.075-3.536,10.543.592,14.69,9.546-.1,2.586,8.831,5.869,12.922-6.339,3.282-4.091-9.913-9.978-3.207l-1.176,1.448-5.878,2.351c-1.608,5.427-2.577,11.3-7.637,14.681,3.856,7.608,13.486,9.725,14.088,19.976M887.7,1042.938c2.342-1.759-1.176-7.044,2.934-7.044,1.176,1.166,1.176,15.264-2.934,7.044m8.22,14.1c-2.342-1.758.592-4.693,1.185-7.044,3.527,2.925-1.185,4.683-1.185,7.044m4.119-183.3c-4.693,0-2.351,12.339-5.276,7.053.583-2.934,2.925-5.878,1.157-8.8-5.286-1.185-7.627-7.646-9.988-11.756,8.239-7.044,5.295,15.856,17.625,9.405,6.471-8.229,7.637,5.859,14.7,1.166,3.517,9.988-8.822,9.988-9.4,16.459-1.185-9.405-8.822-5.286-8.822-13.524m7.637,229.712s4.119,12.339-1.175,4.7c-1.759-1.175-.583-3.527,1.175-4.7m2.351,18.217c1.768.573,5.285,11.746-1.166,5.868-2.361-1.758,0-3.517,1.166-5.868m26.437,41.118c-9.4,0-17.634,2.934-26.437,2.934,8.8-5.285,16.449-2.351,26.437-2.934m-4.11-223.825c-6.461-3.527,5.869-9.4.583-15.283,0-2.342,2.342-5.869,3.527-1.176-3.527,4.7-1.185,11.747-4.11,16.459m24.669,50.513c-8.8,0-5.286,16.449-9.988,8.822-2.934-15.866,7.044-4.119,13.505-13.515,11.747-2.351-1.175,1.759-3.517,4.693m4.7,4.119c4.693-2.351,8.22-7.054,13.515-7.054-3.527,2.934-8.821,5.295-13.515,7.054m9.405-24.678c8.21-1.759,15.264,2.944,24.086,2.944-8.229,1.175-18.81,1.175-24.086-2.944m27.6,15.273h0Zm7.053-.583c2.934-1.758,8.22-2.944,12.339-1.176,1.175,4.11,5.869.593,8.229,2.351-7.054,1.759-14.108.583-20.568-1.176m33.49-1.176c5.135.471,10.994,2.756,15.838,2.8,1.307-.179,2.549-.348,3.546-.451a11.127,11.127,0,0,1-3.546.451c-6.4.875-15.349,2.069-15.838-2.8m-11.173-8.22,35.258-2.351c-9.01,2.765-26.474,6.4-35.258,2.351m41.7,9.979c-4.684.593,2.361,0,2.944-2.934,12.358,2.934,1.777,1.768-2.944,2.934m27.039-17.625c-26.221.583-52.507,1.26-78.718,2.351-18.057.752-37.29-10.787-54.633-3.527-3.508-2.37-4.844-6.583-7.054-9.988-2.925,4.044-5.248,10.289-6.461.592-.574-4.514,8.916-9.217,1.176-11.756l-3.339,2.8c-9.067,6.875-.1-9.217-2.172-14.982a14.941,14.941,0,0,1-2.126-1.909,2.69,2.69,0,0,1,2.126,1.909c14.229,11.06,56.739,8.267,71.307,3.376-3.489,6.781,5.718,9.386,9.405,12.922,5.981-3.659,13.656-4.853,15.264-12.922,4.355-.536,7.194-6.433,11.756-5.285l-.009-.009a5.725,5.725,0,0,1-1.749-2.935l1.749,2.935c4.684,4.166,15.95-.753,19.383,4.11,1.035-3.9,11.173-2.426,8.822-6.452,5.051-6.555,17.23,1.824,12.339-15.273,2.332,2.032,4.213-1.815,4.693-3.527.771,2.981,3.32,4.542,5.286,1.176l-1.167-8.229,5.3-2.944v-1.157c4.872,4.016,14.3,6.339,12.33,9.386,4.307,6.348,2.868,7.843-1.176,13.515,1.806,5-6.348,11.1-5.878,17.041,3.151,4.232,11.126,5.079,11.747,11.154-6.489,10.026-20.926,8.587-28.2,17.625m29.964-463.516c1.759-4.7,8.22-7.637,4.1-12.932-1.166-1.176-4.684,0-3.518-3.517,0-11.164,7.637.583,8.23,2.934-1.759,4.1,3.517,4.7,4.7,6.461,1.759,3.527,2.333,7.637,4.1,11.164-5.285,3.527-14.088-.593-17.615-4.11m19.967,269.062-1.759-2.351-2.361,1.768,1.768,5.285c-1.11-3.075-2.7-6.7-5.285-8.812-3.094,6.367-11.211-5.041-5.869-7.637l2.351,4.11c4.129-2.088,7.3-7.035,12.339-7.054l.743-3.527-.169,10c3.4.479,3.339,6.4,7.063,5.276,5.21,7.195-5.774,4.063-8.822,2.944m6.461-99.869c4.119-4.119-3.517-2.944,1.759-7.044,1.185,1.176,5.285,4.1,2.953,7.044.188,1.176,1.844-.094,3.555-1.815,6.969-8.511,3.377-3.386,0,0l-.037.047c5.868,5.878-2.934,2.36,1.176,9.4-2.361-6.461-10.59,1.759-9.4-7.637m12.339,85.772c.583,4.7,14.107,5.878,7.053,11.154.583,3.527-2.351,8.822-1.167,11.173-9.414-1.176.583-14.69-8.822-14.1-.593.583,3.517-4.119,2.935-8.229m29.963,253.206c-8.229,8.22-21.151,3.517-28.205,13.5,1.176,2.944-5.285.593-4.693-2.351,0-8.21,0-14.089,9.4-13.505,1.759-3.527,8.22-4.119,8.22-7.637,6.451,4.693,15.856-7.053,17.041,4.693h2.351c-2.351,5.3,1.176,4.119-4.119,5.3m11.747-235.591c-5.615,2.671-1.589-4.909-5.869-4.1-8.342,1.571,4.966,10.712-3.517,11.154.357,2.426.066,7.627-3.536,3.527-.235-.715.348-1.787.771-2.586-.349.075-.941-.31-1.938-1.523l2.267.574c-.282-3.668-6.245-15.791-9.9-9.386-10.863,1.223-2.69-14.606-5.295-19.976,6.019-3.376,5.342,5.351,10.58,5.878,4.138-5.9,11.164,12.753,12.65,2.323l.263-3.5,2.351-2.934c-.564,3.574,1.091,7.486,5.3,7.044-9.593,3.3,3.4,9.95-4.119,13.505m28.8,56.993c-1.759-7.054-12.339-4.693-17.625-1.759.592-2.361-2.351-5.869,2.351-4.7,2.934-2.351-9.4-6.471,0-4.693-4.7-4.119,1.759-5.3,3.527-7.646,5.267,1.759,2.934,21.151,9.988,8.812.574-1.166,1.759-1.166,3.518-1.166-5.286,3.527,6.461,10.571-1.759,11.154m2.934-84c-4.693-3.527-4.119,5.869-4.119,8.8a14.032,14.032,0,0,1-4.119,5.295c-2.332,9.979-1.759,3.527,0-.592,1.185-7.044.593-11.747-8.21-15.273-5.878-.593-4.11,7.054-2.351,8.812,9.988,3.527.593,2.351-2.351-.583,1.185-5.3-5.286-5.878-4.693-11.756,8.8,4.7,4.693-12.33,15.274-9.4,2.332-3.518,0-4.7,4.693-6.461,8.229,3.527-3.536,17.032,5.286,17.032,0,1.759,2.361,7.054.592,4.119M1214.342,528.3c.085-5.455,13.016-7.712,6.47-14.1,1.514-7.552,10.928,1.044,13.515-5.878l3.518,2.361c-6.979,3.151-2.652,6.47-5.286,11.747,2.7,2.652,20.757,5.709,14.107,14.107-11.464.583-21.556-5.511-32.324-8.239m66.972,451.186c-2.944-1.759-7.044-2.934-7.618-5.869,5.276,2.934,15.255-5.878,14.671.593-2.934,1.166-4.7,4.1-7.054,5.276m99.286-19.966c-1.759,4.7-9.4,2.342-12.349,2.342,1.176-1.759-1.166-3.517-2.332-5.276-9.4-.593-14.7,7.637-24.678,6.461-1.768-2.361-4.693-6.461-8.229-4.7-2.925,4.119-5.286,5.285-10.571,4.7,0-4.119,5.868-5.3,4.693-10.581,6.471.592,1.176-12.339,9.415-7.637,3.517-1.175,0-4.7,1.176-6.461,12.912-4.7,11.145,31.732,21.734,6.461,4.7,0,7.628.593,9.386-3.517,4.712,1.166,10,2.925,12.339,6.461-8.812,7.044,11.756,12.33-.583,11.747m25.261-10.58c.922,12.772-3.837,7.157-9.311,7.016a13.3,13.3,0,0,1-4.787,1.8,6.492,6.492,0,0,1,4.787-1.8c2.69-1.514,5.088-3.536,6.969-4.665.583-7.054-5.295-4.11,1.769-7.637,3.508.583,5.868,0,9.386-1.176-.583,5.295-7.628,1.759-8.812,6.461m29.964,17.625c-2.342,0-4.7-2.342-6.461,0,1.759.592,4.7,1.175,2.351,3.536-1.176.573-7.636-1.185-6.47,3.517-1.542-2.539-2.445-3.292-3-3.113l-.526.658c-.884,2.276-.028,9.264-3.518,4.213,1.148-1.279,2.3-2.737,3.518-4.213a1,1,0,0,1,.526-.658c4.214-5.145,9.17-10.543,17.1-10.985.592,2.342-4.693,4.11-3.517,7.044m2.944-15.273c2.69-.536,3.884,2.84,4.975,4.317.188.113.3.235.3.385a3.425,3.425,0,0,1-.3-.385c-1.251-.715-6.009-.734-4.975-4.317m15.857-108.682c-3.273.828-4.411,4.627-4.1,7.637-3.48,1.034-10.656-5.163-8.239,2.944-3.367-1.571-5.417-.4-3.517,3.527-6.348-5.295-12.6-6.311-20.568-4.712l-3.527-2.934c1.919-2.6,14.691-7.994,6.386-10.43l-3.451-.733c-12.49-.564-22.092,3.818-33.481-5.285-1.674,11.116-13.618-1.731-15.283,2.351-15.6-6.988-9.64,14.756-20.568,17.625l2.361,4.693c-2.417,1.919-5.633-1.081-7.054-2.934l-2.342,6.461c-8.078-4.044-11.925,19.581-17.032,21.744-2.266.95-8.276-.057-7.637,4.7-6.461-1-12.273-3.866-14.107-10.581,9.311-.48-6.49-17.267-16.458-15.273l1.533,2.21c4.7,7.27-9.217-6.3-9.169,4.844-4.984,1.834-9.6-4-14.681-1.185,1.232,13.073-14.248,2.323-16.439,2.361.442-6.179,13.5,2.586,10.571-3.527-12.443.593-5.116-14.116-15.856-13.515v-2.351l7.035-4.11c-3.5-.583-5.539-5.21-6.461-8.229,1.4-.809,5.464-2.746,7.026-1.27-.715-2.915,3.8-4.872,2.38-8.135-2.69.019-7.167-.555-8.22-3.508,6.518-4.307-3.677-12,2.352-14.107-.019,7.674,6.734,10.759,9.978,17.042,2.99,5.728,1.5,23.277,8.822,22.318-1.834-8.587,2.445-18.029-5.285-24.678,2.426-2.078,5.21.085,6.461,2.361l1.176-7.646c1.289,3.856,5.239,9.4,9.979,8.22,2.662,1.279,4.147-1.185,4.11-3.508,3.451,2.925,8.5,1.966,10,7.044,11.126,4.543,8.3-25.44,0-28.205l4.693.593c1.147,5.7,5.859,9.4,8.812,14.1-2.069-7.627-3.028-15.509-5.878-22.91,2.991.555,3.028-2.765,2.361-4.7-3.245,1.994-1.965-7.693-1.778-8.812-1.815-4.044-12.245-8.935-4.1-12.932l-5.878-1.759c4.665.63,5.21-7.439,8.812,1.176,3.555-4.054,19.458,4.054,17.041-5.869-2.53,2.887-7.2,2.906-10.58,1.759-1.091-5.624-10.608-.245-8.812-7.637-3.884-3.818-11.079-6.113-7.054-12.922-11.342-4.608-1.58,6.254-6.461,11.164-3.2-7.637-13.11-13.148-21.142-13.515-6.565-.3-1.11,6.386-4.712,8.812,5.718,5.145,3.282,12.781,4.712,19.383-5.709,2.351-6.677-5.492-8.813-8.812l.584-2.934c-.254,1.824.508,4.5,2.934,3.527,6.846-2.7-8.154-13.129-1.749-20.559l-3.536-4.119c-1.515,3.63-5.634,9.668-8.8,3.527,2.37-6.235-5.314-17.3,1.758-19.966,4.195,1.392,7.722,4.072,11.756,5.869l.574-6.461c.489,3.611,1.053,8.154,4.7,9.988,1.138-3.668,6.659-5.21,9.988-5.878.922,5.427,3.583.376,3.527,5.878,6.245-6.931,7.317,12.2,17.041,4.693,1.533.31,4.289,1.881.574,2.351-1.975,4.308,3.292,4.439,4.119,8.229a8.067,8.067,0,0,1,4.11-5.878c2.286,3.677,7.928,13.185,12.339,14.1,4.947,1.016,4.872-5.812,4.119-8.812,3.254,2.295,14.211,10.938,18.207,7.637-3.761,3.48,22.628.724,25.261-.583l.207,1.467c1.054,4.787,5.37-3.038,6.245.292,5.775.621,14.107,1.194,16.458,7.637-2.182,4.58,0-1.928-3.517-.583V768c-5.511-2.5-11.333-3.978-17.041-5.878-4.035,5.605,7.505,3.16,1.166,8.812l-4.693-2.351c-.451,4.194-7.994,2.389-11.163,2.944,2.2,3.122,7.674,3.536,11.163,3.517a29.077,29.077,0,0,0,3.527,15.273c10.289-3.489,6.339,15.2,9.978,19.985,2.794-.94,6.79,1.251,8.813,2.934,2.37,8.21,13.534,9.583,15.283,18.208-.056-16.571,10.741.216,16.449-2.944.376-2.4,2.163-6.6,5.285-4.693.122.809,2.1,11.436,4.11,7.054-.743-3.442-1.749-13.1,4.712-9.988,2,3.753,12.922,7.138,2.934,10.571l8.812.593c-.047-4.561,6.847-6.047,9.4-2.944,6.339,7.759,8.887-4.759,11.746,2.351,3.772,1.853,8.333.207,12.339,1.176-6.809,5.22-17.117-2.3-17.625,9.988m14.69-120.438a29.729,29.729,0,0,1-7.637-9.4c-4.119,4.11-10.58,4.11-8.822,12.33a7.3,7.3,0,0,0,2.361,4.712c11.154-9.988.593,4.11-4.693,4.11-6.48,1.759,3.517-5.295-5.878-4.7-3.536-11.154,9.4-9.988,9.979-19.383,9.978,5.276,7.646-4.712,12.339-8.812-6.47-5.3,0-11.173-5.869-14.681,0-4.119,1.759-7.063,6.461-8.239,8.812,2.351,4.11,19.985,17.023,10.581,4.712,0-1.749,4.11-3.517,3.527-3.536,0-24.688-1.768-13.505,8.812,4.11,3.517,14.672,9.4,11.737,17.041-3.517,7.627-5.868-2.361-9.978,4.1m61.667,281.41c.094,7.421-10.759,4.411-14.672,8.22,2.84,13.976-12.1,1.834-6.47,14.107-9.292,1.552,1.636,11.239-9.4,11.154,1.175,10.289-8.371,1.533-10.581-1.166-3.865,2.746-8.36.79-12.339-.592-5.154-8.4,13.948-7.995,7.646-13.515,5.718-1.542,3.79-8.163,11.163-7.053,1.674-2.126,5.483-4.947,7.637-1.759,19.637-5.878-14.794-10.609,5.286-14.681,4.514,2.05,2.953,12.461,10.571,6.452-.752,4.392,5.173,2.21,7.054,1.175-6.123-5.963,4.345-.79,4.7-7.627.216-4.082-7.317-5.878-4.119-8.229,0,7.749,15.151,6.056,3.517,13.514m128.667-79.9c-1.759,2.934-5.285.593-7.627,2.934.574-4.11,4.11-4.11,5.869-7.627,2.351,0,1.759,2.934,1.759,4.693m17.041-18.8c-7.636,2.934-7.636,1.176-8.22-5.286,3.517,1.185,11.154-2.351,8.22,5.286m5.878-37.6-7.053,3.527c1.156,1.11,3.348,4.608,0,4.693-5.445-4.251,2.68-8.963,1.175-14.088,7.148-1.035,9.386-16.806,16.449-12.922-1.128,13.336-18.979,11.116-10.571,18.791M1795.944,993c-1.768-5.229,4.89-7.524,8.22-9.978,5.568,3.715,3.865,11.7,6.47,17.032-9.442,5.06-6.5-7.627-14.69-7.054" transform="translate(-0.003 -0.002)" fill="#dcb584"/>
      <path id="Path_60" data-name="Path 60" d="M135.575,121.646c-3.555-.254-7.477-.546-11.718-.884,3.941.452,7.862.771,11.718.884" transform="translate(1040.994 1014.98)" fill="#dcb584"/>
      <path id="Path_61" data-name="Path 61" d="M235.727,130.241c-43.544-7.477-85.471-5.21-128.658-11.164,5.869,1.872,105.419,11.718,157.888,15.847-10.533-1.2-21.01-3.273-29.23-4.683" transform="translate(899.894 1000.818)" fill="#dcb584"/>
      <path id="Path_62" data-name="Path 62" d="M144.664,124.094l1.777-3.517c-6,2.248-13.458,2.859-21.34,2.624,10.4.743,17.587,1.1,19.562.893" transform="translate(1051.458 1013.425)" fill="#dcb584"/>
      <path id="Path_63" data-name="Path 63" d="M361.015,151.051l5.276-4.693c-49.714-6.414-98.544,8.116-148.051,9.386,12.3-2.4,53.984-11.794,58.761-22.318-13.552-10.195-123.391,6.978-159.8-5.878,5.032-2.859,10.552-5.238,16.449-5.285-8.5-2.765-16.872,1.853-24.086,5.878,24.49,17.672,125.837-1.5,163.314,7.044-3.536,7.421-45.933,15.5-54.642,14.69,3.508-14.982-14.013-2.238-16.439-.583l-.593-3.527c-4.58-4.148-5.963,4.618-5.868,7.044l-7.637-7.627-2.944,5.868c-8.652,17.06.931-7.4-8.812-5.868-.1,7.665-1.317,20.813,5.878,25.854L187.7,162.8c52.056-4.684,103.829-14.681,156.271-14.1-6.753,4.59,5.943,3.3,6.461,7.646,44.889,1.871,89.27-8.079,133.952-10.58-41.343-3.236-82.151,11.079-123.372,5.285" transform="translate(920.898 1020.542)" fill="#dcb584"/>
      <path id="Path_64" data-name="Path 64" d="M57.838,126.652c1.345.085,2.68.235,4.025.367-3.245-.762-6.527-1.363-9.819-1.853,1.542.451,3.433.94,5.793,1.486" transform="translate(437.428 1051.995)" fill="#dcb584"/>
      <path id="Path_65" data-name="Path 65" d="M291.69,151.622c-11.756,2.944-21.744,4.7-32.315,8.812-7.628-1.759-28.788,8.22-19.383-5.286,10.571,2.351,8.812-9.988,15.856-12.33,2.361,4.1-5.286,5.868.583,9.386,2.36,0,4.712-.583,5.3-2.934-4.129-4.11,2.351-9.4-2.361-14.1-7.044,0-8.812,3.527-10.571,9.4-7.637,3.527-1.176-11.154-1.759-16.44-12.339-5.878-7.637,14.1-11.756,18.208-6.452-5.878-3.517-17.625-14.107-20.559-2.332-2.944,1.185-7.637-3.517-7.637,1.185,16.44,11.173,29.954,13.505,44.635-34.064,3.536-70.489,7.646-105.738,7.053-10.571-2.934-17.625-7.627-29.371-7.627-2.351-2.944,2.934-10-1.759-9.4-4.712,2.351-3.536,12.922-2.361,18.217,6.47,4.119.593,24.076,13.524,16.449.583,1.176,1.759,4.11-.593,4.11-16.91,1.091-34.328-3.847-51.783-5.511a100.953,100.953,0,0,1,18.3,6.094c49.338,10.58,96.926-9.988,148.041-6.452a9.821,9.821,0,0,0,2.351-4.119c-26.446-1.759-52.874-6.452-77.552-10.571,45.237-1.185,90.474-4.119,133.943-11.173,4.712-2.934,10.58-5.276,13.515-8.22M101.337,181.586c-2.342-2.944-1.176-7.637-3.517-11.164a49.537,49.537,0,0,1,8.812,2.351c-2.944,2.361-4.11,5.869-5.295,8.812m60.52-3.517c4.11.574,9.988.574,14.69,1.759,2.351,2.934,7.627-.593,9.4,2.342-24.669,2.944-49.939,8.812-75.793,8.812-5.276-35.249,34.666-10.58,51.708-12.913" transform="translate(446.211 992.951)" fill="#dcb584"/>
      <path id="Path_66" data-name="Path 66" d="M176.555,128.528c-1.768-.592.583-3.527-1.768-2.351-47,12.932-87.54-9.978-135.119.6v2.342c36.237,11.766,77.759.95,116.4,6.734-18.49-5.4,17.229-4.618,20.484-7.327M66.688,129.713c5.925-1.9,12.339.527,18.217-1.778,6.7,3.734,18.979,1.223,27.02,2.351-14.672,3.668-30.566,2.473-45.237-.574" transform="translate(333.402 1041.307)" fill="#dcb584"/>
      <path id="Path_67" data-name="Path 67" d="M102.508,118.977c11.511,14.229-5.878,58.319,6.471,52.291,3.292-6.63,3.64-14.333,6.452-21.151l-.724-1.655c-2.549-4.966-2.154,6.64-5.727,1.655,2.248-8.718-1.768-18.725.592-24.678-1.119-2.709-3.611-6.866-7.063-6.461" transform="translate(861.56 999.743)" fill="#dcb584"/>
      <path id="Path_68" data-name="Path 68" d="M108.28,147.563c-2.859-8.1,4.834-21.631-2.944-27.612.94,4.985-5.3,40.027,4.7,34.666,2.916-5.173,8.831-10.486,7.044-17.041-4.317,1.693-4.223,10.016-8.8,9.988" transform="translate(876.356 1008.164)" fill="#dcb584"/>
    </g>
  </g>
</svg>
